<svg width="391" height="196" viewBox="0 0 391 196" fill="none" xmlns="http://www.w3.org/2000/svg">
<path d="M2.49951 19C16.3895 19 30.5458 19 46.6189 19C52.5682 19 82.1768 95.5 88.2864 95.5C96.4565 95.5 100.322 72.0441 111.163 71.5C122.004 70.9558 121.057 141.623 127.503 145C133.949 148.377 152.299 68.5 161 68.5C201.034 68.5 184.78 34.5 196.132 34.5C202.668 34.5 198.549 64.0724 236.982 124C241.806 131.521 242.675 74.604 248.42 68.5C260.808 55.3394 261.039 175.072 277.833 170L326.853 46L366.887 24.5L372.606 24.5" stroke="#E7F5EB" stroke-width="4" stroke-linecap="round"/>
<path d="M7 140H22" stroke="#E7F5EB" stroke-width="4"/>
<path d="M7 120H22" stroke="#118383" stroke-width="4"/>
<path d="M2.49951 19C16.3895 19 46.8199 19 62.8929 19C68.8423 19 81.0848 65.5119 84.7513 68.5C88.4179 71.4881 100.471 49.5442 111.312 49C122.153 48.4559 117.789 94.1227 124.235 97.5C130.681 100.877 160.47 19 169.17 19C209.204 19 191.316 19 202.668 19C209.204 19 190.379 29.0724 228.812 89C233.636 96.5209 242.675 74.604 248.42 68.5C260.807 55.3394 258.588 143.072 275.382 138L313.781 31.5L342.377 19L371.789 19" stroke="#118383" stroke-width="4" stroke-linecap="round"/>
<path d="M112.162 158.85V157.82H114.962V158.85H112.162ZM122.989 158.41H124.099V159.41H122.989V161H121.789V159.41H118.529V158.21L121.849 153.88H122.989V158.41ZM121.789 158.41V155.62H121.769L119.629 158.41H121.789ZM127.813 161.14C126.933 161.14 126.263 160.83 125.803 160.19C125.343 159.56 125.123 158.64 125.123 157.42C125.123 156.22 125.353 155.3 125.812 154.68C126.273 154.06 126.943 153.74 127.823 153.74C128.693 153.74 129.353 154.06 129.813 154.68C130.273 155.3 130.503 156.22 130.503 157.42C130.503 158.64 130.273 159.56 129.813 160.19C129.353 160.83 128.683 161.14 127.813 161.14ZM127.823 160.11C128.323 160.11 128.683 159.9 128.923 159.47C129.153 159.04 129.273 158.36 129.273 157.43C129.273 156.51 129.153 155.84 128.913 155.41C128.673 154.99 128.313 154.77 127.813 154.77C127.313 154.77 126.943 154.99 126.703 155.41C126.463 155.84 126.353 156.51 126.353 157.43C126.353 158.36 126.473 159.04 126.713 159.47C126.953 159.9 127.323 160.11 127.823 160.11ZM133.666 158.1C133.066 158.1 132.606 157.91 132.286 157.51C131.966 157.12 131.816 156.56 131.816 155.82C131.816 155.1 131.966 154.55 132.286 154.16C132.596 153.77 133.056 153.57 133.666 153.57C134.266 153.57 134.726 153.77 135.046 154.16C135.356 154.55 135.516 155.1 135.516 155.82C135.516 156.56 135.356 157.12 135.036 157.51C134.716 157.91 134.266 158.1 133.666 158.1ZM134.236 161.15L138.716 153.73H139.696L135.236 161.15H134.236ZM133.666 157.29C133.966 157.29 134.186 157.18 134.336 156.95C134.476 156.72 134.556 156.35 134.556 155.83C134.556 155.32 134.476 154.95 134.336 154.72C134.186 154.5 133.966 154.38 133.666 154.38C133.366 154.38 133.136 154.5 132.996 154.72C132.846 154.95 132.776 155.32 132.776 155.83C132.776 156.35 132.846 156.72 132.996 156.95C133.136 157.18 133.366 157.29 133.666 157.29ZM140.396 161.16C139.796 161.16 139.336 160.97 139.016 160.57C138.696 160.18 138.546 159.62 138.546 158.88C138.546 158.16 138.696 157.61 139.016 157.22C139.326 156.83 139.786 156.63 140.396 156.63C140.996 156.63 141.456 156.83 141.776 157.22C142.086 157.61 142.246 158.16 142.246 158.88C142.246 159.62 142.086 160.18 141.766 160.57C141.446 160.97 140.996 161.16 140.396 161.16ZM140.396 160.35C140.696 160.35 140.916 160.24 141.066 160.01C141.206 159.78 141.286 159.41 141.286 158.89C141.286 158.39 141.206 158.02 141.066 157.79C140.916 157.57 140.696 157.45 140.396 157.45C140.096 157.45 139.866 157.57 139.726 157.79C139.576 158.02 139.506 158.39 139.506 158.89C139.506 159.41 139.576 159.78 139.726 160.01C139.866 160.24 140.096 160.35 140.396 160.35Z" fill="#D03F17"/>
<path d="M30.41 143.19C29.51 143.19 28.8 142.98 28.29 142.56C27.77 142.14 27.49 141.54 27.45 140.74H28.63C28.69 141.72 29.29 142.2 30.42 142.2C30.92 142.2 31.31 142.11 31.58 141.92C31.84 141.73 31.98 141.46 31.98 141.11C31.98 140.83 31.87 140.6 31.67 140.44C31.47 140.28 31.14 140.14 30.69 140.04L29.53 139.77C28.28 139.49 27.66 138.85 27.66 137.85C27.66 137.24 27.88 136.73 28.33 136.33C28.78 135.93 29.42 135.72 30.25 135.72C31.07 135.72 31.72 135.92 32.22 136.32C32.71 136.72 32.98 137.27 33.04 137.97H31.87C31.82 137.57 31.65 137.26 31.37 137.04C31.09 136.82 30.71 136.71 30.24 136.71C29.8 136.71 29.46 136.81 29.22 136.99C28.97 137.17 28.85 137.42 28.85 137.73C28.85 138.2 29.19 138.51 29.88 138.66L31.22 138.97C32.54 139.28 33.21 139.96 33.21 141.01C33.21 141.67 32.97 142.19 32.49 142.59C32.01 142.99 31.31 143.19 30.41 143.19ZM41.0204 143.01H39.5604L38.9204 142.28C38.3004 142.86 37.5904 143.15 36.7704 143.15C36.0504 143.15 35.4604 142.97 35.0204 142.59C34.5704 142.22 34.3504 141.72 34.3504 141.1C34.3504 140.12 34.9004 139.41 36.0104 138.96C35.4904 138.38 35.2404 137.85 35.2404 137.36C35.2404 136.88 35.4104 136.48 35.7704 136.17C36.1304 135.87 36.5804 135.71 37.1404 135.71C37.7004 135.71 38.1704 135.87 38.5304 136.18C38.8904 136.5 39.0704 136.9 39.0704 137.38C39.0704 138.16 38.6004 138.78 37.6604 139.25L38.9404 140.68C39.1004 140.32 39.2004 139.92 39.2604 139.47H40.3804C40.2804 140.23 40.0304 140.9 39.6404 141.46L41.0204 143.01ZM37.1604 136.68C36.9304 136.68 36.7404 136.75 36.5904 136.88C36.4404 137.01 36.3704 137.19 36.3704 137.41C36.3704 137.69 36.5004 137.97 36.7704 138.25L37.0004 138.51C37.3304 138.36 37.5704 138.2 37.7304 138.03C37.8904 137.87 37.9704 137.67 37.9704 137.44C37.9704 137.21 37.8904 137.03 37.7304 136.89C37.5704 136.75 37.3804 136.68 37.1604 136.68ZM36.8604 142.16C37.4004 142.16 37.8704 141.96 38.2704 141.54L36.6704 139.7C35.9004 140.02 35.5204 140.47 35.5204 141.04C35.5204 141.37 35.6304 141.64 35.8704 141.85C36.1104 142.06 36.4404 142.16 36.8604 142.16ZM44.8488 135.88C45.5888 135.88 46.1688 136.07 46.5888 136.45C47.0088 136.83 47.2288 137.36 47.2288 138.05C47.2288 138.77 47.0088 139.32 46.5788 139.7C46.1488 140.09 45.5488 140.28 44.7688 140.28H43.1788V143H41.9688V135.88H44.8488ZM44.7088 139.25C45.1288 139.25 45.4588 139.15 45.6988 138.94C45.9288 138.74 46.0488 138.44 46.0488 138.06C46.0488 137.69 45.9288 137.41 45.6988 137.21C45.4688 137.01 45.1588 136.91 44.7688 136.91H43.1788V139.25H44.7088ZM53.3152 143.16C52.5952 143.16 52.0152 142.98 51.5552 142.62C51.0952 142.26 50.8252 141.75 50.7452 141.11L51.9352 141.05C51.9952 141.41 52.1552 141.68 52.4052 141.86C52.6552 142.05 52.9652 142.14 53.3352 142.14C53.7752 142.14 54.1152 142.01 54.3752 141.75C54.6252 141.49 54.7552 141.13 54.7552 140.69C54.7552 140.26 54.6252 139.91 54.3752 139.65C54.1152 139.39 53.7652 139.25 53.3152 139.25C52.8352 139.25 52.4252 139.43 52.0952 139.78L50.9352 139.67L51.6252 135.88H55.5452V136.95H52.5052L52.1952 138.66L52.2152 138.67C52.6352 138.39 53.1152 138.24 53.6352 138.24C54.3352 138.24 54.8952 138.47 55.3252 138.91C55.7552 139.36 55.9752 139.94 55.9752 140.65C55.9752 141.39 55.7352 142 55.2552 142.46C54.7752 142.93 54.1252 143.16 53.3152 143.16ZM59.8691 143.14C58.9891 143.14 58.3191 142.83 57.8591 142.19C57.3991 141.56 57.1791 140.64 57.1791 139.42C57.1791 138.22 57.4091 137.3 57.8691 136.68C58.3291 136.06 58.9991 135.74 59.8791 135.74C60.7491 135.74 61.4091 136.06 61.8691 136.68C62.3291 137.3 62.5591 138.22 62.5591 139.42C62.5591 140.64 62.3291 141.56 61.8691 142.19C61.4091 142.83 60.7391 143.14 59.8691 143.14ZM59.8791 142.11C60.3791 142.11 60.7391 141.9 60.9791 141.47C61.2091 141.04 61.3291 140.36 61.3291 139.43C61.3291 138.51 61.2091 137.84 60.9691 137.41C60.7291 136.99 60.3691 136.77 59.8691 136.77C59.3691 136.77 58.9991 136.99 58.7591 137.41C58.5191 137.84 58.4091 138.51 58.4091 139.43C58.4091 140.36 58.5291 141.04 58.7691 141.47C59.0091 141.9 59.3791 142.11 59.8791 142.11ZM66.373 143.14C65.493 143.14 64.823 142.83 64.363 142.19C63.903 141.56 63.683 140.64 63.683 139.42C63.683 138.22 63.913 137.3 64.373 136.68C64.833 136.06 65.503 135.74 66.383 135.74C67.253 135.74 67.913 136.06 68.373 136.68C68.833 137.3 69.063 138.22 69.063 139.42C69.063 140.64 68.833 141.56 68.373 142.19C67.913 142.83 67.243 143.14 66.373 143.14ZM66.383 142.11C66.883 142.11 67.243 141.9 67.483 141.47C67.713 141.04 67.833 140.36 67.833 139.43C67.833 138.51 67.713 137.84 67.473 137.41C67.233 136.99 66.873 136.77 66.373 136.77C65.873 136.77 65.503 136.99 65.263 137.41C65.023 137.84 64.913 138.51 64.913 139.43C64.913 140.36 65.033 141.04 65.273 141.47C65.513 141.9 65.883 142.11 66.383 142.11Z" fill="#161717"/>
<path d="M32.17 115.88H33.5L30.98 120.16V123H29.77V120.16L27.19 115.88H28.57L30.02 118.44L30.38 119.21L30.73 118.44L32.17 115.88ZM36.6692 123.15C35.9092 123.15 35.2992 122.9 34.8192 122.39C34.3392 121.89 34.1092 121.23 34.1092 120.43C34.1092 119.63 34.3492 118.97 34.8292 118.47C35.3092 117.97 35.9292 117.71 36.6892 117.71C37.4392 117.71 38.0492 117.96 38.5292 118.46C38.9992 118.96 39.2392 119.61 39.2392 120.41C39.2392 121.21 38.9992 121.87 38.5192 122.38C38.0392 122.9 37.4192 123.15 36.6692 123.15ZM36.6692 122.21C37.1092 122.21 37.4592 122.05 37.7192 121.72C37.9692 121.4 38.0992 120.96 38.0992 120.41C38.0992 119.87 37.9692 119.44 37.7192 119.12C37.4592 118.81 37.1092 118.65 36.6692 118.65C36.2292 118.65 35.8792 118.81 35.6292 119.13C35.3792 119.45 35.2592 119.89 35.2592 120.43C35.2592 120.97 35.3792 121.41 35.6392 121.73C35.8892 122.05 36.2292 122.21 36.6692 122.21ZM43.6267 117.84H44.7967V123H43.6767L43.6567 122.28C43.2967 122.85 42.7567 123.13 42.0567 123.13C41.5167 123.13 41.0867 122.98 40.7867 122.66C40.4867 122.35 40.3367 121.92 40.3367 121.36V117.84H41.5067V121.11C41.5067 121.77 41.7967 122.09 42.3967 122.09C42.7467 122.09 43.0367 121.97 43.2767 121.73C43.5067 121.49 43.6267 121.13 43.6267 120.65V117.84ZM48.7261 117.68C48.8361 117.68 48.9461 117.69 49.0561 117.71V118.82C48.9061 118.81 48.8061 118.8 48.7461 118.8C48.3361 118.8 48.0061 118.94 47.7561 119.2C47.4961 119.46 47.3661 119.84 47.3661 120.34V123H46.1961V117.84H47.3161L47.2961 118.78C47.5661 118.05 48.0461 117.68 48.7261 117.68ZM55.2242 117.72C55.8542 117.72 56.3742 117.96 56.7842 118.44C57.1842 118.92 57.3942 119.55 57.3942 120.35C57.3942 121.17 57.1842 121.84 56.7742 122.36C56.3642 122.88 55.8242 123.14 55.1542 123.14C54.5342 123.14 54.0442 122.91 53.6942 122.45V125.04H52.5242V117.84H53.5542L53.5742 118.58C53.9242 118.01 54.4742 117.72 55.2242 117.72ZM54.9542 122.12C55.3342 122.12 55.6442 121.96 55.8842 121.64C56.1242 121.32 56.2442 120.89 56.2442 120.35C56.2442 119.83 56.1242 119.43 55.8942 119.14C55.6542 118.85 55.3442 118.7 54.9542 118.7C54.5542 118.7 54.2342 118.85 53.9942 119.15C53.7542 119.45 53.6342 119.86 53.6342 120.38C53.6342 120.91 53.7542 121.33 53.9942 121.65C54.2342 121.97 54.5542 122.12 54.9542 122.12ZM60.761 123.15C60.001 123.15 59.391 122.9 58.911 122.39C58.431 121.89 58.201 121.23 58.201 120.43C58.201 119.63 58.441 118.97 58.921 118.47C59.401 117.97 60.021 117.71 60.781 117.71C61.531 117.71 62.141 117.96 62.621 118.46C63.091 118.96 63.331 119.61 63.331 120.41C63.331 121.21 63.091 121.87 62.611 122.38C62.131 122.9 61.511 123.15 60.761 123.15ZM60.761 122.21C61.201 122.21 61.551 122.05 61.811 121.72C62.061 121.4 62.191 120.96 62.191 120.41C62.191 119.87 62.061 119.44 61.811 119.12C61.551 118.81 61.201 118.65 60.761 118.65C60.321 118.65 59.971 118.81 59.721 119.13C59.471 119.45 59.351 119.89 59.351 120.43C59.351 120.97 59.471 121.41 59.731 121.73C59.981 122.05 60.321 122.21 60.761 122.21ZM66.9585 117.68C67.0685 117.68 67.1785 117.69 67.2885 117.71V118.82C67.1385 118.81 67.0385 118.8 66.9785 118.8C66.5685 118.8 66.2385 118.94 65.9885 119.2C65.7285 119.46 65.5985 119.84 65.5985 120.34V123H64.4285V117.84H65.5485L65.5285 118.78C65.7985 118.05 66.2785 117.68 66.9585 117.68ZM69.639 118.68V121.55C69.639 121.74 69.669 121.87 69.749 121.94C69.819 122.02 69.949 122.05 70.129 122.05H70.699V123H69.769C69.309 123 68.969 122.9 68.769 122.7C68.569 122.5 68.469 122.16 68.469 121.7V118.69L67.729 118.72V117.84L68.469 117.87V116.25H69.639V117.87L70.699 117.84V118.72L69.639 118.68ZM73.7853 116.83C73.5553 116.83 73.3953 116.88 73.3053 116.98C73.2053 117.08 73.1653 117.23 73.1653 117.45V117.87L74.2353 117.84V118.72L73.1653 118.68V123H71.9953V118.69L71.2153 118.72V117.84L71.9953 117.87V117.48C71.9953 116.42 72.5253 115.88 73.5953 115.88H74.2353V116.83H73.7853ZM77.3821 123.15C76.6221 123.15 76.0121 122.9 75.5321 122.39C75.0521 121.89 74.8221 121.23 74.8221 120.43C74.8221 119.63 75.0621 118.97 75.5421 118.47C76.0221 117.97 76.6421 117.71 77.4021 117.71C78.1521 117.71 78.7621 117.96 79.2421 118.46C79.7121 118.96 79.9521 119.61 79.9521 120.41C79.9521 121.21 79.7121 121.87 79.2321 122.38C78.7521 122.9 78.1321 123.15 77.3821 123.15ZM77.3821 122.21C77.8221 122.21 78.1721 122.05 78.4321 121.72C78.6821 121.4 78.8121 120.96 78.8121 120.41C78.8121 119.87 78.6821 119.44 78.4321 119.12C78.1721 118.81 77.8221 118.65 77.3821 118.65C76.9421 118.65 76.5921 118.81 76.3421 119.13C76.0921 119.45 75.9721 119.89 75.9721 120.43C75.9721 120.97 76.0921 121.41 76.3521 121.73C76.6021 122.05 76.9421 122.21 77.3821 122.21ZM81.0496 123V115.88H82.2196V123H81.0496ZM83.618 117.02V115.88H84.788V117.02H83.618ZM83.618 123V117.84H84.788V123H83.618ZM88.4563 123.15C87.6963 123.15 87.0863 122.9 86.6063 122.39C86.1263 121.89 85.8963 121.23 85.8963 120.43C85.8963 119.63 86.1363 118.97 86.6163 118.47C87.0963 117.97 87.7163 117.71 88.4763 117.71C89.2263 117.71 89.8363 117.96 90.3163 118.46C90.7863 118.96 91.0263 119.61 91.0263 120.41C91.0263 121.21 90.7863 121.87 90.3063 122.38C89.8263 122.9 89.2063 123.15 88.4563 123.15ZM88.4563 122.21C88.8963 122.21 89.2463 122.05 89.5063 121.72C89.7563 121.4 89.8863 120.96 89.8863 120.41C89.8863 119.87 89.7563 119.44 89.5063 119.12C89.2463 118.81 88.8963 118.65 88.4563 118.65C88.0163 118.65 87.6663 118.81 87.4163 119.13C87.1663 119.45 87.0463 119.89 87.0463 120.43C87.0463 120.97 87.1663 121.41 87.4263 121.73C87.6763 122.05 88.0163 122.21 88.4563 122.21Z" fill="#161717"/>
<path d="M263.162 182.85V181.82H265.962V182.85H263.162ZM272.259 185.16C271.539 185.16 270.959 184.98 270.499 184.62C270.039 184.26 269.769 183.75 269.689 183.11L270.879 183.05C270.939 183.41 271.099 183.68 271.349 183.86C271.599 184.05 271.909 184.14 272.279 184.14C272.719 184.14 273.059 184.01 273.319 183.75C273.569 183.49 273.699 183.13 273.699 182.69C273.699 182.26 273.569 181.91 273.319 181.65C273.059 181.39 272.709 181.25 272.259 181.25C271.779 181.25 271.369 181.43 271.039 181.78L269.879 181.67L270.569 177.88H274.489V178.95H271.449L271.139 180.66L271.159 180.67C271.579 180.39 272.059 180.24 272.579 180.24C273.279 180.24 273.839 180.47 274.269 180.91C274.699 181.36 274.919 181.94 274.919 182.65C274.919 183.39 274.679 184 274.199 184.46C273.719 184.93 273.069 185.16 272.259 185.16ZM278.813 185.14C277.933 185.14 277.263 184.83 276.803 184.19C276.343 183.56 276.123 182.64 276.123 181.42C276.123 180.22 276.353 179.3 276.812 178.68C277.273 178.06 277.943 177.74 278.823 177.74C279.693 177.74 280.353 178.06 280.813 178.68C281.273 179.3 281.503 180.22 281.503 181.42C281.503 182.64 281.273 183.56 280.813 184.19C280.353 184.83 279.683 185.14 278.813 185.14ZM278.823 184.11C279.323 184.11 279.683 183.9 279.923 183.47C280.153 183.04 280.273 182.36 280.273 181.43C280.273 180.51 280.153 179.84 279.913 179.41C279.673 178.99 279.313 178.77 278.813 178.77C278.313 178.77 277.943 178.99 277.703 179.41C277.463 179.84 277.353 180.51 277.353 181.43C277.353 182.36 277.473 183.04 277.713 183.47C277.953 183.9 278.323 184.11 278.823 184.11ZM284.666 182.1C284.066 182.1 283.606 181.91 283.286 181.51C282.966 181.12 282.816 180.56 282.816 179.82C282.816 179.1 282.966 178.55 283.286 178.16C283.596 177.77 284.056 177.57 284.666 177.57C285.266 177.57 285.726 177.77 286.046 178.16C286.356 178.55 286.516 179.1 286.516 179.82C286.516 180.56 286.356 181.12 286.036 181.51C285.716 181.91 285.266 182.1 284.666 182.1ZM285.236 185.15L289.716 177.73H290.696L286.236 185.15H285.236ZM284.666 181.29C284.966 181.29 285.186 181.18 285.336 180.95C285.476 180.72 285.556 180.35 285.556 179.83C285.556 179.32 285.476 178.95 285.336 178.72C285.186 178.5 284.966 178.38 284.666 178.38C284.366 178.38 284.136 178.5 283.996 178.72C283.846 178.95 283.776 179.32 283.776 179.83C283.776 180.35 283.846 180.72 283.996 180.95C284.136 181.18 284.366 181.29 284.666 181.29ZM291.396 185.16C290.796 185.16 290.336 184.97 290.016 184.57C289.696 184.18 289.546 183.62 289.546 182.88C289.546 182.16 289.696 181.61 290.016 181.22C290.326 180.83 290.786 180.63 291.396 180.63C291.996 180.63 292.456 180.83 292.776 181.22C293.086 181.61 293.246 182.16 293.246 182.88C293.246 183.62 293.086 184.18 292.766 184.57C292.446 184.97 291.996 185.16 291.396 185.16ZM291.396 184.35C291.696 184.35 291.916 184.24 292.066 184.01C292.206 183.78 292.286 183.41 292.286 182.89C292.286 182.39 292.206 182.02 292.066 181.79C291.916 181.57 291.696 181.45 291.396 181.45C291.096 181.45 290.866 181.57 290.726 181.79C290.576 182.02 290.506 182.39 290.506 182.89C290.506 183.41 290.576 183.78 290.726 184.01C290.866 184.24 291.096 184.35 291.396 184.35Z" fill="#D03F17"/>
<path d="M2.49951 19C16.3895 19 30.5458 19 46.6189 19C52.5682 19 82.1768 95.5 88.2864 95.5C96.4565 95.5 100.322 72.0441 111.163 71.5C122.004 70.9558 121.057 141.623 127.503 145C133.949 148.377 152.299 68.5 161 68.5C201.034 68.5 184.78 34.5 196.132 34.5C202.668 34.5 198.549 64.0724 236.982 124C241.806 131.521 242.675 74.604 248.42 68.5C260.808 55.3394 261.039 175.072 277.833 170L326.853 46L366.887 24.5L372.606 24.5" stroke="#E7F5EB" stroke-width="4" stroke-linecap="round"/>
<path d="M7 140H22" stroke="#E7F5EB" stroke-width="4"/>
<path d="M7 120H22" stroke="#118383" stroke-width="4"/>
<path d="M2.49951 19C16.3895 19 46.8199 19 62.8929 19C68.8423 19 81.0848 65.5119 84.7513 68.5C88.4179 71.4881 100.471 49.5442 111.312 49C122.153 48.4559 117.789 94.1227 124.235 97.5C130.681 100.877 160.47 19 169.17 19C209.204 19 191.316 19 202.668 19C209.204 19 190.379 29.0724 228.812 89C233.636 96.5209 242.675 74.604 248.42 68.5C260.807 55.3394 258.588 143.072 275.382 138L313.781 31.5L342.377 19L371.789 19" stroke="#118383" stroke-width="4" stroke-linecap="round"/>
<path d="M112.162 158.85V157.82H114.962V158.85H112.162ZM122.989 158.41H124.099V159.41H122.989V161H121.789V159.41H118.529V158.21L121.849 153.88H122.989V158.41ZM121.789 158.41V155.62H121.769L119.629 158.41H121.789ZM127.813 161.14C126.933 161.14 126.263 160.83 125.803 160.19C125.343 159.56 125.123 158.64 125.123 157.42C125.123 156.22 125.353 155.3 125.812 154.68C126.273 154.06 126.943 153.74 127.823 153.74C128.693 153.74 129.353 154.06 129.813 154.68C130.273 155.3 130.503 156.22 130.503 157.42C130.503 158.64 130.273 159.56 129.813 160.19C129.353 160.83 128.683 161.14 127.813 161.14ZM127.823 160.11C128.323 160.11 128.683 159.9 128.923 159.47C129.153 159.04 129.273 158.36 129.273 157.43C129.273 156.51 129.153 155.84 128.913 155.41C128.673 154.99 128.313 154.77 127.813 154.77C127.313 154.77 126.943 154.99 126.703 155.41C126.463 155.84 126.353 156.51 126.353 157.43C126.353 158.36 126.473 159.04 126.713 159.47C126.953 159.9 127.323 160.11 127.823 160.11ZM133.666 158.1C133.066 158.1 132.606 157.91 132.286 157.51C131.966 157.12 131.816 156.56 131.816 155.82C131.816 155.1 131.966 154.55 132.286 154.16C132.596 153.77 133.056 153.57 133.666 153.57C134.266 153.57 134.726 153.77 135.046 154.16C135.356 154.55 135.516 155.1 135.516 155.82C135.516 156.56 135.356 157.12 135.036 157.51C134.716 157.91 134.266 158.1 133.666 158.1ZM134.236 161.15L138.716 153.73H139.696L135.236 161.15H134.236ZM133.666 157.29C133.966 157.29 134.186 157.18 134.336 156.95C134.476 156.72 134.556 156.35 134.556 155.83C134.556 155.32 134.476 154.95 134.336 154.72C134.186 154.5 133.966 154.38 133.666 154.38C133.366 154.38 133.136 154.5 132.996 154.72C132.846 154.95 132.776 155.32 132.776 155.83C132.776 156.35 132.846 156.72 132.996 156.95C133.136 157.18 133.366 157.29 133.666 157.29ZM140.396 161.16C139.796 161.16 139.336 160.97 139.016 160.57C138.696 160.18 138.546 159.62 138.546 158.88C138.546 158.16 138.696 157.61 139.016 157.22C139.326 156.83 139.786 156.63 140.396 156.63C140.996 156.63 141.456 156.83 141.776 157.22C142.086 157.61 142.246 158.16 142.246 158.88C142.246 159.62 142.086 160.18 141.766 160.57C141.446 160.97 140.996 161.16 140.396 161.16ZM140.396 160.35C140.696 160.35 140.916 160.24 141.066 160.01C141.206 159.78 141.286 159.41 141.286 158.89C141.286 158.39 141.206 158.02 141.066 157.79C140.916 157.57 140.696 157.45 140.396 157.45C140.096 157.45 139.866 157.57 139.726 157.79C139.576 158.02 139.506 158.39 139.506 158.89C139.506 159.41 139.576 159.78 139.726 160.01C139.866 160.24 140.096 160.35 140.396 160.35Z" fill="#D03F17"/>
<path d="M30.41 143.19C29.51 143.19 28.8 142.98 28.29 142.56C27.77 142.14 27.49 141.54 27.45 140.74H28.63C28.69 141.72 29.29 142.2 30.42 142.2C30.92 142.2 31.31 142.11 31.58 141.92C31.84 141.73 31.98 141.46 31.98 141.11C31.98 140.83 31.87 140.6 31.67 140.44C31.47 140.28 31.14 140.14 30.69 140.04L29.53 139.77C28.28 139.49 27.66 138.85 27.66 137.85C27.66 137.24 27.88 136.73 28.33 136.33C28.78 135.93 29.42 135.72 30.25 135.72C31.07 135.72 31.72 135.92 32.22 136.32C32.71 136.72 32.98 137.27 33.04 137.97H31.87C31.82 137.57 31.65 137.26 31.37 137.04C31.09 136.82 30.71 136.71 30.24 136.71C29.8 136.71 29.46 136.81 29.22 136.99C28.97 137.17 28.85 137.42 28.85 137.73C28.85 138.2 29.19 138.51 29.88 138.66L31.22 138.97C32.54 139.28 33.21 139.96 33.21 141.01C33.21 141.67 32.97 142.19 32.49 142.59C32.01 142.99 31.31 143.19 30.41 143.19ZM41.0204 143.01H39.5604L38.9204 142.28C38.3004 142.86 37.5904 143.15 36.7704 143.15C36.0504 143.15 35.4604 142.97 35.0204 142.59C34.5704 142.22 34.3504 141.72 34.3504 141.1C34.3504 140.12 34.9004 139.41 36.0104 138.96C35.4904 138.38 35.2404 137.85 35.2404 137.36C35.2404 136.88 35.4104 136.48 35.7704 136.17C36.1304 135.87 36.5804 135.71 37.1404 135.71C37.7004 135.71 38.1704 135.87 38.5304 136.18C38.8904 136.5 39.0704 136.9 39.0704 137.38C39.0704 138.16 38.6004 138.78 37.6604 139.25L38.9404 140.68C39.1004 140.32 39.2004 139.92 39.2604 139.47H40.3804C40.2804 140.23 40.0304 140.9 39.6404 141.46L41.0204 143.01ZM37.1604 136.68C36.9304 136.68 36.7404 136.75 36.5904 136.88C36.4404 137.01 36.3704 137.19 36.3704 137.41C36.3704 137.69 36.5004 137.97 36.7704 138.25L37.0004 138.51C37.3304 138.36 37.5704 138.2 37.7304 138.03C37.8904 137.87 37.9704 137.67 37.9704 137.44C37.9704 137.21 37.8904 137.03 37.7304 136.89C37.5704 136.75 37.3804 136.68 37.1604 136.68ZM36.8604 142.16C37.4004 142.16 37.8704 141.96 38.2704 141.54L36.6704 139.7C35.9004 140.02 35.5204 140.47 35.5204 141.04C35.5204 141.37 35.6304 141.64 35.8704 141.85C36.1104 142.06 36.4404 142.16 36.8604 142.16ZM44.8488 135.88C45.5888 135.88 46.1688 136.07 46.5888 136.45C47.0088 136.83 47.2288 137.36 47.2288 138.05C47.2288 138.77 47.0088 139.32 46.5788 139.7C46.1488 140.09 45.5488 140.28 44.7688 140.28H43.1788V143H41.9688V135.88H44.8488ZM44.7088 139.25C45.1288 139.25 45.4588 139.15 45.6988 138.94C45.9288 138.74 46.0488 138.44 46.0488 138.06C46.0488 137.69 45.9288 137.41 45.6988 137.21C45.4688 137.01 45.1588 136.91 44.7688 136.91H43.1788V139.25H44.7088ZM53.3152 143.16C52.5952 143.16 52.0152 142.98 51.5552 142.62C51.0952 142.26 50.8252 141.75 50.7452 141.11L51.9352 141.05C51.9952 141.41 52.1552 141.68 52.4052 141.86C52.6552 142.05 52.9652 142.14 53.3352 142.14C53.7752 142.14 54.1152 142.01 54.3752 141.75C54.6252 141.49 54.7552 141.13 54.7552 140.69C54.7552 140.26 54.6252 139.91 54.3752 139.65C54.1152 139.39 53.7652 139.25 53.3152 139.25C52.8352 139.25 52.4252 139.43 52.0952 139.78L50.9352 139.67L51.6252 135.88H55.5452V136.95H52.5052L52.1952 138.66L52.2152 138.67C52.6352 138.39 53.1152 138.24 53.6352 138.24C54.3352 138.24 54.8952 138.47 55.3252 138.91C55.7552 139.36 55.9752 139.94 55.9752 140.65C55.9752 141.39 55.7352 142 55.2552 142.46C54.7752 142.93 54.1252 143.16 53.3152 143.16ZM59.8691 143.14C58.9891 143.14 58.3191 142.83 57.8591 142.19C57.3991 141.56 57.1791 140.64 57.1791 139.42C57.1791 138.22 57.4091 137.3 57.8691 136.68C58.3291 136.06 58.9991 135.74 59.8791 135.74C60.7491 135.74 61.4091 136.06 61.8691 136.68C62.3291 137.3 62.5591 138.22 62.5591 139.42C62.5591 140.64 62.3291 141.56 61.8691 142.19C61.4091 142.83 60.7391 143.14 59.8691 143.14ZM59.8791 142.11C60.3791 142.11 60.7391 141.9 60.9791 141.47C61.2091 141.04 61.3291 140.36 61.3291 139.43C61.3291 138.51 61.2091 137.84 60.9691 137.41C60.7291 136.99 60.3691 136.77 59.8691 136.77C59.3691 136.77 58.9991 136.99 58.7591 137.41C58.5191 137.84 58.4091 138.51 58.4091 139.43C58.4091 140.36 58.5291 141.04 58.7691 141.47C59.0091 141.9 59.3791 142.11 59.8791 142.11ZM66.373 143.14C65.493 143.14 64.823 142.83 64.363 142.19C63.903 141.56 63.683 140.64 63.683 139.42C63.683 138.22 63.913 137.3 64.373 136.68C64.833 136.06 65.503 135.74 66.383 135.74C67.253 135.74 67.913 136.06 68.373 136.68C68.833 137.3 69.063 138.22 69.063 139.42C69.063 140.64 68.833 141.56 68.373 142.19C67.913 142.83 67.243 143.14 66.373 143.14ZM66.383 142.11C66.883 142.11 67.243 141.9 67.483 141.47C67.713 141.04 67.833 140.36 67.833 139.43C67.833 138.51 67.713 137.84 67.473 137.41C67.233 136.99 66.873 136.77 66.373 136.77C65.873 136.77 65.503 136.99 65.263 137.41C65.023 137.84 64.913 138.51 64.913 139.43C64.913 140.36 65.033 141.04 65.273 141.47C65.513 141.9 65.883 142.11 66.383 142.11Z" fill="white"/>
<path d="M32.17 115.88H33.5L30.98 120.16V123H29.77V120.16L27.19 115.88H28.57L30.02 118.44L30.38 119.21L30.73 118.44L32.17 115.88ZM36.6692 123.15C35.9092 123.15 35.2992 122.9 34.8192 122.39C34.3392 121.89 34.1092 121.23 34.1092 120.43C34.1092 119.63 34.3492 118.97 34.8292 118.47C35.3092 117.97 35.9292 117.71 36.6892 117.71C37.4392 117.71 38.0492 117.96 38.5292 118.46C38.9992 118.96 39.2392 119.61 39.2392 120.41C39.2392 121.21 38.9992 121.87 38.5192 122.38C38.0392 122.9 37.4192 123.15 36.6692 123.15ZM36.6692 122.21C37.1092 122.21 37.4592 122.05 37.7192 121.72C37.9692 121.4 38.0992 120.96 38.0992 120.41C38.0992 119.87 37.9692 119.44 37.7192 119.12C37.4592 118.81 37.1092 118.65 36.6692 118.65C36.2292 118.65 35.8792 118.81 35.6292 119.13C35.3792 119.45 35.2592 119.89 35.2592 120.43C35.2592 120.97 35.3792 121.41 35.6392 121.73C35.8892 122.05 36.2292 122.21 36.6692 122.21ZM43.6267 117.84H44.7967V123H43.6767L43.6567 122.28C43.2967 122.85 42.7567 123.13 42.0567 123.13C41.5167 123.13 41.0867 122.98 40.7867 122.66C40.4867 122.35 40.3367 121.92 40.3367 121.36V117.84H41.5067V121.11C41.5067 121.77 41.7967 122.09 42.3967 122.09C42.7467 122.09 43.0367 121.97 43.2767 121.73C43.5067 121.49 43.6267 121.13 43.6267 120.65V117.84ZM48.7261 117.68C48.8361 117.68 48.9461 117.69 49.0561 117.71V118.82C48.9061 118.81 48.8061 118.8 48.7461 118.8C48.3361 118.8 48.0061 118.94 47.7561 119.2C47.4961 119.46 47.3661 119.84 47.3661 120.34V123H46.1961V117.84H47.3161L47.2961 118.78C47.5661 118.05 48.0461 117.68 48.7261 117.68ZM55.2242 117.72C55.8542 117.72 56.3742 117.96 56.7842 118.44C57.1842 118.92 57.3942 119.55 57.3942 120.35C57.3942 121.17 57.1842 121.84 56.7742 122.36C56.3642 122.88 55.8242 123.14 55.1542 123.14C54.5342 123.14 54.0442 122.91 53.6942 122.45V125.04H52.5242V117.84H53.5542L53.5742 118.58C53.9242 118.01 54.4742 117.72 55.2242 117.72ZM54.9542 122.12C55.3342 122.12 55.6442 121.96 55.8842 121.64C56.1242 121.32 56.2442 120.89 56.2442 120.35C56.2442 119.83 56.1242 119.43 55.8942 119.14C55.6542 118.85 55.3442 118.7 54.9542 118.7C54.5542 118.7 54.2342 118.85 53.9942 119.15C53.7542 119.45 53.6342 119.86 53.6342 120.38C53.6342 120.91 53.7542 121.33 53.9942 121.65C54.2342 121.97 54.5542 122.12 54.9542 122.12ZM60.761 123.15C60.001 123.15 59.391 122.9 58.911 122.39C58.431 121.89 58.201 121.23 58.201 120.43C58.201 119.63 58.441 118.97 58.921 118.47C59.401 117.97 60.021 117.71 60.781 117.71C61.531 117.71 62.141 117.96 62.621 118.46C63.091 118.96 63.331 119.61 63.331 120.41C63.331 121.21 63.091 121.87 62.611 122.38C62.131 122.9 61.511 123.15 60.761 123.15ZM60.761 122.21C61.201 122.21 61.551 122.05 61.811 121.72C62.061 121.4 62.191 120.96 62.191 120.41C62.191 119.87 62.061 119.44 61.811 119.12C61.551 118.81 61.201 118.65 60.761 118.65C60.321 118.65 59.971 118.81 59.721 119.13C59.471 119.45 59.351 119.89 59.351 120.43C59.351 120.97 59.471 121.41 59.731 121.73C59.981 122.05 60.321 122.21 60.761 122.21ZM66.9585 117.68C67.0685 117.68 67.1785 117.69 67.2885 117.71V118.82C67.1385 118.81 67.0385 118.8 66.9785 118.8C66.5685 118.8 66.2385 118.94 65.9885 119.2C65.7285 119.46 65.5985 119.84 65.5985 120.34V123H64.4285V117.84H65.5485L65.5285 118.78C65.7985 118.05 66.2785 117.68 66.9585 117.68ZM69.639 118.68V121.55C69.639 121.74 69.669 121.87 69.749 121.94C69.819 122.02 69.949 122.05 70.129 122.05H70.699V123H69.769C69.309 123 68.969 122.9 68.769 122.7C68.569 122.5 68.469 122.16 68.469 121.7V118.69L67.729 118.72V117.84L68.469 117.87V116.25H69.639V117.87L70.699 117.84V118.72L69.639 118.68ZM73.7853 116.83C73.5553 116.83 73.3953 116.88 73.3053 116.98C73.2053 117.08 73.1653 117.23 73.1653 117.45V117.87L74.2353 117.84V118.72L73.1653 118.68V123H71.9953V118.69L71.2153 118.72V117.84L71.9953 117.87V117.48C71.9953 116.42 72.5253 115.88 73.5953 115.88H74.2353V116.83H73.7853ZM77.3821 123.15C76.6221 123.15 76.0121 122.9 75.5321 122.39C75.0521 121.89 74.8221 121.23 74.8221 120.43C74.8221 119.63 75.0621 118.97 75.5421 118.47C76.0221 117.97 76.6421 117.71 77.4021 117.71C78.1521 117.71 78.7621 117.96 79.2421 118.46C79.7121 118.96 79.9521 119.61 79.9521 120.41C79.9521 121.21 79.7121 121.87 79.2321 122.38C78.7521 122.9 78.1321 123.15 77.3821 123.15ZM77.3821 122.21C77.8221 122.21 78.1721 122.05 78.4321 121.72C78.6821 121.4 78.8121 120.96 78.8121 120.41C78.8121 119.87 78.6821 119.44 78.4321 119.12C78.1721 118.81 77.8221 118.65 77.3821 118.65C76.9421 118.65 76.5921 118.81 76.3421 119.13C76.0921 119.45 75.9721 119.89 75.9721 120.43C75.9721 120.97 76.0921 121.41 76.3521 121.73C76.6021 122.05 76.9421 122.21 77.3821 122.21ZM81.0496 123V115.88H82.2196V123H81.0496ZM83.618 117.02V115.88H84.788V117.02H83.618ZM83.618 123V117.84H84.788V123H83.618ZM88.4563 123.15C87.6963 123.15 87.0863 122.9 86.6063 122.39C86.1263 121.89 85.8963 121.23 85.8963 120.43C85.8963 119.63 86.1363 118.97 86.6163 118.47C87.0963 117.97 87.7163 117.71 88.4763 117.71C89.2263 117.71 89.8363 117.96 90.3163 118.46C90.7863 118.96 91.0263 119.61 91.0263 120.41C91.0263 121.21 90.7863 121.87 90.3063 122.38C89.8263 122.9 89.2063 123.15 88.4563 123.15ZM88.4563 122.21C88.8963 122.21 89.2463 122.05 89.5063 121.72C89.7563 121.4 89.8863 120.96 89.8863 120.41C89.8863 119.87 89.7563 119.44 89.5063 119.12C89.2463 118.81 88.8963 118.65 88.4563 118.65C88.0163 118.65 87.6663 118.81 87.4163 119.13C87.1663 119.45 87.0463 119.89 87.0463 120.43C87.0463 120.97 87.1663 121.41 87.4263 121.73C87.6763 122.05 88.0163 122.21 88.4563 122.21Z" fill="white"/>
<path d="M263.162 182.85V181.82H265.962V182.85H263.162ZM272.259 185.16C271.539 185.16 270.959 184.98 270.499 184.62C270.039 184.26 269.769 183.75 269.689 183.11L270.879 183.05C270.939 183.41 271.099 183.68 271.349 183.86C271.599 184.05 271.909 184.14 272.279 184.14C272.719 184.14 273.059 184.01 273.319 183.75C273.569 183.49 273.699 183.13 273.699 182.69C273.699 182.26 273.569 181.91 273.319 181.65C273.059 181.39 272.709 181.25 272.259 181.25C271.779 181.25 271.369 181.43 271.039 181.78L269.879 181.67L270.569 177.88H274.489V178.95H271.449L271.139 180.66L271.159 180.67C271.579 180.39 272.059 180.24 272.579 180.24C273.279 180.24 273.839 180.47 274.269 180.91C274.699 181.36 274.919 181.94 274.919 182.65C274.919 183.39 274.679 184 274.199 184.46C273.719 184.93 273.069 185.16 272.259 185.16ZM278.813 185.14C277.933 185.14 277.263 184.83 276.803 184.19C276.343 183.56 276.123 182.64 276.123 181.42C276.123 180.22 276.353 179.3 276.812 178.68C277.273 178.06 277.943 177.74 278.823 177.74C279.693 177.74 280.353 178.06 280.813 178.68C281.273 179.3 281.503 180.22 281.503 181.42C281.503 182.64 281.273 183.56 280.813 184.19C280.353 184.83 279.683 185.14 278.813 185.14ZM278.823 184.11C279.323 184.11 279.683 183.9 279.923 183.47C280.153 183.04 280.273 182.36 280.273 181.43C280.273 180.51 280.153 179.84 279.913 179.41C279.673 178.99 279.313 178.77 278.813 178.77C278.313 178.77 277.943 178.99 277.703 179.41C277.463 179.84 277.353 180.51 277.353 181.43C277.353 182.36 277.473 183.04 277.713 183.47C277.953 183.9 278.323 184.11 278.823 184.11ZM284.666 182.1C284.066 182.1 283.606 181.91 283.286 181.51C282.966 181.12 282.816 180.56 282.816 179.82C282.816 179.1 282.966 178.55 283.286 178.16C283.596 177.77 284.056 177.57 284.666 177.57C285.266 177.57 285.726 177.77 286.046 178.16C286.356 178.55 286.516 179.1 286.516 179.82C286.516 180.56 286.356 181.12 286.036 181.51C285.716 181.91 285.266 182.1 284.666 182.1ZM285.236 185.15L289.716 177.73H290.696L286.236 185.15H285.236ZM284.666 181.29C284.966 181.29 285.186 181.18 285.336 180.95C285.476 180.72 285.556 180.35 285.556 179.83C285.556 179.32 285.476 178.95 285.336 178.72C285.186 178.5 284.966 178.38 284.666 178.38C284.366 178.38 284.136 178.5 283.996 178.72C283.846 178.95 283.776 179.32 283.776 179.83C283.776 180.35 283.846 180.72 283.996 180.95C284.136 181.18 284.366 181.29 284.666 181.29ZM291.396 185.16C290.796 185.16 290.336 184.97 290.016 184.57C289.696 184.18 289.546 183.62 289.546 182.88C289.546 182.16 289.696 181.61 290.016 181.22C290.326 180.83 290.786 180.63 291.396 180.63C291.996 180.63 292.456 180.83 292.776 181.22C293.086 181.61 293.246 182.16 293.246 182.88C293.246 183.62 293.086 184.18 292.766 184.57C292.446 184.97 291.996 185.16 291.396 185.16ZM291.396 184.35C291.696 184.35 291.916 184.24 292.066 184.01C292.206 183.78 292.286 183.41 292.286 182.89C292.286 182.39 292.206 182.02 292.066 181.79C291.916 181.57 291.696 181.45 291.396 181.45C291.096 181.45 290.866 181.57 290.726 181.79C290.576 182.02 290.506 182.39 290.506 182.89C290.506 183.41 290.576 183.78 290.726 184.01C290.866 184.24 291.096 184.35 291.396 184.35Z" fill="#D03F17"/>
</svg>
