<svg width="375" height="268" viewBox="0 0 375 268" fill="none" xmlns="http://www.w3.org/2000/svg">
<path d="M363.574 253.158C361.23 240.111 364.307 230.052 350.697 252.174C347.659 257.112 344.384 223.383 341.029 228.273C337.674 233.164 335.436 209.831 325.53 209.074C315.625 208.317 313.245 220.145 307.35 225.7C301.455 231.255 295.318 206.766 287.394 206.16C279.47 205.555 266.079 193.462 263.125 204.306C252.137 244.643 264.604 122.064 229.399 219.744C224.981 232.003 205.91 227.386 200.669 217.549C189.369 196.339 179.922 214.195 164.584 206.16C149.246 198.125 148.941 197.764 133.508 204.306C124.903 207.953 118.153 176.539 106.266 175.631C90.4174 174.42 88.3663 138.482 80.6643 121.594C72.9623 104.706 71.1438 107.282 56.7324 100.176C42.321 93.07 45.9949 83.9143 37.0161 84.0861C28.0373 84.2579 24.4118 99.4223 19.0915 97.3C14.8352 95.6023 12.2362 80.191 11.4687 72.6975" stroke="#D03F17" stroke-width="4" stroke-linecap="round"/>
<path d="M368.015 186.805C365.751 182.008 367.852 178.47 357.845 186.028C355.611 187.715 351.952 175.405 349.467 177.065C346.982 178.725 344.472 170.21 336.649 169.612C328.826 169.014 327.331 173.216 322.867 175.032C318.404 176.849 312.787 167.788 306.529 167.31C300.27 166.832 289.34 162.019 287.361 165.846C280.001 180.08 285.891 136.139 261.301 170.328C258.215 174.619 243.051 172.325 238.609 168.594C229.033 160.551 222.167 166.703 209.833 163.294C197.499 159.885 197.247 159.745 185.306 161.607C178.647 162.645 172.326 151.059 162.938 150.341C150.42 149.385 147.654 136.316 141.049 129.954C134.444 123.592 133.094 124.464 121.52 121.422C109.945 118.38 112.544 115.187 105.48 114.956C98.4163 114.724 96.0475 120.092 91.7905 119.15C88.3849 118.397 85.8449 112.736 85.0006 110" stroke="#CBCAC9" stroke-width="2" stroke-linecap="round" stroke-dasharray="8 8"/>
<path d="M76.8066 97.1749C83.8371 97.1751 89.501 102.929 89.501 109.982C89.5007 117.034 83.8369 122.787 76.8066 122.787C69.7761 122.787 64.1116 117.034 64.1113 109.982C64.1113 102.928 69.776 97.1749 76.8066 97.1749Z" fill="#FB9502" stroke="#FFFEFA" stroke-width="4"/>
<ellipse cx="76.8062" cy="109.981" rx="6.11134" ry="6.17496" fill="#FFFEFA"/>
<line x1="77" y1="99" x2="77" y2="61" stroke="#CBCAC9" stroke-width="2"/>
<g filter="url(#filter0_d_9967_21617)">
<rect x="21" y="1" width="183.001" height="60.3774" rx="8" fill="#FFFEFA"/>
<rect x="21.5" y="1.5" width="182.001" height="59.3774" rx="7.5" stroke="#CBCAC9"/>
</g>
<path d="M32.8133 19.907C31.9133 19.907 31.2033 19.697 30.6933 19.277C30.1733 18.857 29.8933 18.257 29.8533 17.457H31.0333C31.0933 18.437 31.6933 18.917 32.8233 18.917C33.3233 18.917 33.7133 18.827 33.9833 18.637C34.2433 18.447 34.3833 18.177 34.3833 17.827C34.3833 17.547 34.2733 17.317 34.0733 17.157C33.8733 16.997 33.5433 16.857 33.0933 16.757L31.9333 16.487C30.6833 16.207 30.0633 15.567 30.0633 14.567C30.0633 13.957 30.2833 13.447 30.7333 13.047C31.1833 12.647 31.8233 12.437 32.6533 12.437C33.4733 12.437 34.1233 12.637 34.6233 13.037C35.1133 13.437 35.3833 13.987 35.4433 14.687H34.2733C34.2233 14.287 34.0533 13.977 33.7733 13.757C33.4933 13.537 33.1133 13.427 32.6433 13.427C32.2033 13.427 31.8633 13.527 31.6233 13.707C31.3733 13.887 31.2533 14.137 31.2533 14.447C31.2533 14.917 31.5933 15.227 32.2833 15.377L33.6233 15.687C34.9433 15.997 35.6133 16.677 35.6133 17.727C35.6133 18.387 35.3733 18.907 34.8933 19.307C34.4133 19.707 33.7133 19.907 32.8133 19.907ZM39.4937 14.427C40.0337 14.427 40.4537 14.587 40.7537 14.897C41.0537 15.217 41.2137 15.647 41.2137 16.197V19.717H40.0437V16.447C40.0437 15.797 39.7437 15.467 39.1537 15.467C38.7937 15.467 38.5037 15.597 38.2737 15.837C38.0337 16.077 37.9237 16.437 37.9237 16.907V19.717H36.7537V12.597H37.9237V15.227C38.2837 14.697 38.8037 14.427 39.4937 14.427ZM47.0531 19.717H45.8731C45.8331 19.587 45.7931 19.387 45.7431 19.117C45.3531 19.617 44.7931 19.857 44.0531 19.857C43.5131 19.857 43.0831 19.727 42.7631 19.447C42.4431 19.167 42.2931 18.797 42.2931 18.317C42.2931 17.457 42.8431 16.927 43.9531 16.737L45.5631 16.467C45.6231 16.457 45.6731 16.447 45.7031 16.427V15.977C45.7031 15.527 45.3631 15.297 44.6831 15.297C44.3531 15.297 44.1031 15.367 43.9431 15.487C43.7731 15.607 43.6731 15.817 43.6431 16.097L42.5431 16.087C42.6431 14.987 43.3631 14.427 44.7131 14.427C46.1331 14.427 46.8431 15.027 46.8431 16.207V18.527C46.8431 18.907 46.9131 19.307 47.0531 19.717ZM44.3431 18.977C44.7231 18.977 45.0431 18.867 45.3031 18.647C45.5631 18.427 45.7031 18.137 45.7031 17.787V17.247L44.2731 17.497C43.7131 17.597 43.4431 17.857 43.4431 18.257C43.4431 18.487 43.5231 18.667 43.6831 18.787C43.8431 18.917 44.0631 18.977 44.3431 18.977ZM50.7583 14.397C50.8683 14.397 50.9783 14.407 51.0883 14.427V15.537C50.9383 15.527 50.8383 15.517 50.7783 15.517C50.3683 15.517 50.0383 15.657 49.7883 15.917C49.5283 16.177 49.3983 16.557 49.3983 17.057V19.717H48.2283V14.557H49.3483L49.3283 15.497C49.5983 14.767 50.0783 14.397 50.7583 14.397ZM56.6688 17.167V17.457H52.8588C52.8788 17.937 53.0188 18.297 53.2588 18.557C53.4988 18.817 53.8288 18.937 54.2488 18.937C54.8388 18.937 55.2388 18.657 55.4488 18.097L56.5688 18.197C56.4088 18.737 56.1188 19.157 55.7188 19.437C55.3188 19.727 54.8288 19.867 54.2488 19.867C53.4488 19.867 52.8188 19.617 52.3588 19.097C51.8988 18.587 51.6688 17.927 51.6688 17.117C51.6688 16.337 51.8888 15.687 52.3388 15.187C52.7788 14.687 53.3888 14.427 54.1588 14.427C54.9088 14.427 55.5188 14.677 55.9788 15.167C56.4388 15.657 56.6688 16.327 56.6688 17.167ZM54.1888 15.327C53.8088 15.327 53.5088 15.447 53.2688 15.677C53.0288 15.907 52.8988 16.227 52.8688 16.647H55.4988C55.4488 16.227 55.3088 15.897 55.0888 15.667C54.8588 15.447 54.5588 15.327 54.1888 15.327ZM59.7293 19.877C59.0493 19.877 58.5193 19.737 58.1393 19.437C57.7593 19.137 57.5393 18.707 57.4793 18.137L58.5693 18.107C58.6493 18.717 59.0493 19.017 59.7693 19.017C60.1093 19.017 60.3693 18.957 60.5593 18.837C60.7493 18.717 60.8493 18.547 60.8493 18.327C60.8493 18.007 60.5993 17.797 60.1093 17.697L59.0793 17.487C58.0993 17.287 57.6093 16.797 57.6093 16.027C57.6093 15.547 57.7793 15.157 58.1393 14.867C58.4993 14.577 58.9893 14.427 59.6193 14.427C60.2293 14.427 60.7293 14.577 61.1093 14.857C61.4893 15.137 61.7193 15.547 61.7893 16.067L60.6993 16.097C60.5993 15.557 60.2393 15.287 59.5993 15.287C59.3093 15.287 59.0893 15.347 58.9293 15.447C58.7693 15.557 58.6893 15.707 58.6893 15.907C58.6893 16.207 58.9193 16.407 59.3793 16.507L60.4393 16.727C60.9593 16.847 61.3393 17.017 61.5793 17.257C61.8193 17.497 61.9493 17.817 61.9493 18.197C61.9493 18.727 61.7493 19.137 61.3493 19.437C60.9493 19.737 60.4093 19.877 59.7293 19.877ZM70.0414 19.717H68.8614C68.8214 19.587 68.7814 19.387 68.7314 19.117C68.3414 19.617 67.7814 19.857 67.0414 19.857C66.5014 19.857 66.0714 19.727 65.7514 19.447C65.4314 19.167 65.2814 18.797 65.2814 18.317C65.2814 17.457 65.8314 16.927 66.9414 16.737L68.5514 16.467C68.6114 16.457 68.6614 16.447 68.6914 16.427V15.977C68.6914 15.527 68.3514 15.297 67.6714 15.297C67.3414 15.297 67.0914 15.367 66.9314 15.487C66.7614 15.607 66.6614 15.817 66.6314 16.097L65.5314 16.087C65.6314 14.987 66.3514 14.427 67.7014 14.427C69.1214 14.427 69.8314 15.027 69.8314 16.207V18.527C69.8314 18.907 69.9014 19.307 70.0414 19.717ZM67.3314 18.977C67.7114 18.977 68.0314 18.867 68.2914 18.647C68.5514 18.427 68.6914 18.137 68.6914 17.787V17.247L67.2614 17.497C66.7014 17.597 66.4314 17.857 66.4314 18.257C66.4314 18.487 66.5114 18.667 66.6714 18.787C66.8314 18.917 67.0514 18.977 67.3314 18.977ZM73.7466 14.397C73.8566 14.397 73.9666 14.407 74.0766 14.427V15.537C73.9266 15.527 73.8266 15.517 73.7666 15.517C73.3566 15.517 73.0266 15.657 72.7766 15.917C72.5166 16.177 72.3866 16.557 72.3866 17.057V19.717H71.2166V14.557H72.3366L72.3166 15.497C72.5866 14.767 73.0666 14.397 73.7466 14.397ZM79.6571 17.167V17.457H75.8471C75.8671 17.937 76.0071 18.297 76.2471 18.557C76.4871 18.817 76.8171 18.937 77.2371 18.937C77.8271 18.937 78.2271 18.657 78.4371 18.097L79.5571 18.197C79.3971 18.737 79.1071 19.157 78.7071 19.437C78.3071 19.727 77.8171 19.867 77.2371 19.867C76.4371 19.867 75.8071 19.617 75.3471 19.097C74.8871 18.587 74.6571 17.927 74.6571 17.117C74.6571 16.337 74.8771 15.687 75.3271 15.187C75.7671 14.687 76.3771 14.427 77.1471 14.427C77.8971 14.427 78.5071 14.677 78.9671 15.167C79.4271 15.657 79.6571 16.327 79.6571 17.167ZM77.1771 15.327C76.7971 15.327 76.4971 15.447 76.2571 15.677C76.0171 15.907 75.8871 16.227 75.8571 16.647H78.4871C78.4371 16.227 78.2971 15.897 78.0771 15.667C77.8471 15.447 77.5471 15.327 77.1771 15.327ZM84.8353 15.397V18.267C84.8353 18.457 84.8653 18.587 84.9453 18.657C85.0153 18.737 85.1453 18.767 85.3253 18.767H85.8953V19.717H84.9653C84.5053 19.717 84.1653 19.617 83.9653 19.417C83.7653 19.217 83.6653 18.877 83.6653 18.417V15.407L82.9253 15.437V14.557L83.6653 14.587V12.967H84.8353V14.587L85.8953 14.557V15.437L84.8353 15.397ZM89.3716 14.397C89.4816 14.397 89.5916 14.407 89.7016 14.427V15.537C89.5516 15.527 89.4516 15.517 89.3916 15.517C88.9816 15.517 88.6516 15.657 88.4016 15.917C88.1416 16.177 88.0116 16.557 88.0116 17.057V19.717H86.8416V14.557H87.9616L87.9416 15.497C88.2116 14.767 88.6916 14.397 89.3716 14.397ZM95.0121 19.717H93.8321C93.7921 19.587 93.7521 19.387 93.7021 19.117C93.3121 19.617 92.7521 19.857 92.0121 19.857C91.4721 19.857 91.0421 19.727 90.7221 19.447C90.4021 19.167 90.2521 18.797 90.2521 18.317C90.2521 17.457 90.8021 16.927 91.9121 16.737L93.5221 16.467C93.5821 16.457 93.6321 16.447 93.6621 16.427V15.977C93.6621 15.527 93.3221 15.297 92.6421 15.297C92.3121 15.297 92.0621 15.367 91.9021 15.487C91.7321 15.607 91.6321 15.817 91.6021 16.097L90.5021 16.087C90.6021 14.987 91.3221 14.427 92.6721 14.427C94.0921 14.427 94.8021 15.027 94.8021 16.207V18.527C94.8021 18.907 94.8721 19.307 95.0121 19.717ZM92.3021 18.977C92.6821 18.977 93.0021 18.867 93.2621 18.647C93.5221 18.427 93.6621 18.137 93.6621 17.787V17.247L92.2321 17.497C91.6721 17.597 91.4021 17.857 91.4021 18.257C91.4021 18.487 91.4821 18.667 91.6421 18.787C91.8021 18.917 92.0221 18.977 92.3021 18.977ZM99.5973 12.597H100.767V19.717H99.7373L99.7173 18.987C99.3573 19.567 98.8273 19.857 98.1373 19.857C97.4573 19.857 96.9173 19.607 96.5073 19.087C96.0973 18.577 95.8973 17.907 95.8973 17.087C95.8973 16.287 96.0973 15.647 96.5073 15.167C96.9073 14.687 97.4273 14.437 98.0673 14.437C98.7273 14.437 99.2373 14.667 99.5973 15.127V12.597ZM98.3373 18.837C98.7173 18.837 99.0373 18.687 99.2873 18.367C99.5273 18.047 99.6573 17.627 99.6573 17.097C99.6573 16.577 99.5273 16.167 99.2873 15.867C99.0473 15.567 98.7273 15.417 98.3373 15.417C97.9373 15.417 97.6273 15.567 97.3973 15.857C97.1573 16.157 97.0473 16.567 97.0473 17.087C97.0473 17.627 97.1573 18.047 97.3973 18.367C97.6273 18.687 97.9373 18.837 98.3373 18.837ZM102.164 13.737V12.597H103.334V13.737H102.164ZM102.164 19.717V14.557H103.334V19.717H102.164ZM107.472 14.427C108.012 14.427 108.432 14.587 108.732 14.897C109.032 15.217 109.192 15.647 109.192 16.197V19.717H108.022V16.447C108.022 15.797 107.722 15.467 107.132 15.467C106.772 15.467 106.482 15.597 106.252 15.837C106.012 16.077 105.902 16.437 105.902 16.907V19.717H104.732V14.557H105.852L105.872 15.277C106.232 14.717 106.762 14.427 107.472 14.427ZM114.142 14.557H115.202V19.667C115.202 20.407 114.982 20.957 114.552 21.327C114.122 21.697 113.522 21.877 112.762 21.877C112.082 21.877 111.552 21.747 111.162 21.467C110.762 21.187 110.542 20.787 110.482 20.247H111.582C111.682 20.747 112.072 20.987 112.752 20.987C113.212 20.987 113.542 20.887 113.742 20.687C113.942 20.487 114.042 20.157 114.042 19.717V19.037C113.682 19.527 113.172 19.767 112.532 19.767C111.862 19.767 111.322 19.517 110.912 19.017C110.502 18.517 110.302 17.857 110.302 17.047C110.302 16.257 110.502 15.627 110.922 15.147C111.332 14.677 111.862 14.437 112.522 14.437C113.242 14.437 113.782 14.727 114.122 15.287L114.142 14.557ZM112.742 18.767C113.122 18.767 113.442 18.617 113.692 18.307C113.932 17.997 114.062 17.577 114.062 17.057C114.062 16.537 113.932 16.137 113.692 15.837C113.452 15.547 113.132 15.397 112.742 15.397C112.342 15.397 112.032 15.547 111.802 15.837C111.562 16.137 111.452 16.537 111.452 17.047C111.452 17.577 111.562 17.997 111.802 18.307C112.032 18.617 112.342 18.767 112.742 18.767ZM119.185 19.717V12.597H120.355V19.717H119.185ZM124.024 19.867C123.264 19.867 122.654 19.617 122.174 19.107C121.694 18.607 121.464 17.947 121.464 17.147C121.464 16.347 121.704 15.687 122.184 15.187C122.664 14.687 123.284 14.427 124.044 14.427C124.794 14.427 125.404 14.677 125.884 15.177C126.354 15.677 126.594 16.327 126.594 17.127C126.594 17.927 126.354 18.587 125.874 19.097C125.394 19.617 124.774 19.867 124.024 19.867ZM124.024 18.927C124.464 18.927 124.814 18.767 125.074 18.437C125.324 18.117 125.454 17.677 125.454 17.127C125.454 16.587 125.324 16.157 125.074 15.837C124.814 15.527 124.464 15.367 124.024 15.367C123.584 15.367 123.234 15.527 122.984 15.847C122.734 16.167 122.614 16.607 122.614 17.147C122.614 17.687 122.734 18.127 122.994 18.447C123.244 18.767 123.584 18.927 124.024 18.927ZM133.321 14.557H134.541L132.931 19.717H131.801L131.061 16.747L130.871 15.747L130.671 16.747L129.911 19.717H128.771L127.191 14.557H128.431L129.121 17.187L129.391 18.487L129.651 17.187L130.311 14.557H131.441L132.091 17.177L132.351 18.477L132.611 17.187L133.321 14.557ZM140.155 17.167V17.457H136.345C136.365 17.937 136.505 18.297 136.745 18.557C136.985 18.817 137.315 18.937 137.735 18.937C138.325 18.937 138.725 18.657 138.935 18.097L140.055 18.197C139.895 18.737 139.605 19.157 139.205 19.437C138.805 19.727 138.315 19.867 137.735 19.867C136.935 19.867 136.305 19.617 135.845 19.097C135.385 18.587 135.155 17.927 135.155 17.117C135.155 16.337 135.375 15.687 135.825 15.187C136.265 14.687 136.875 14.427 137.645 14.427C138.395 14.427 139.005 14.677 139.465 15.167C139.925 15.657 140.155 16.327 140.155 17.167ZM137.675 15.327C137.295 15.327 136.995 15.447 136.755 15.677C136.515 15.907 136.385 16.227 136.355 16.647H138.985C138.935 16.227 138.795 15.897 138.575 15.667C138.345 15.447 138.045 15.327 137.675 15.327ZM143.786 14.397C143.896 14.397 144.006 14.407 144.116 14.427V15.537C143.966 15.527 143.866 15.517 143.806 15.517C143.396 15.517 143.066 15.657 142.816 15.917C142.556 16.177 142.426 16.557 142.426 17.057V19.717H141.256V14.557H142.376L142.356 15.497C142.626 14.767 143.106 14.397 143.786 14.397ZM152.024 19.717H150.844C150.804 19.587 150.764 19.387 150.714 19.117C150.324 19.617 149.764 19.857 149.024 19.857C148.484 19.857 148.054 19.727 147.734 19.447C147.414 19.167 147.264 18.797 147.264 18.317C147.264 17.457 147.814 16.927 148.924 16.737L150.534 16.467C150.594 16.457 150.644 16.447 150.674 16.427V15.977C150.674 15.527 150.334 15.297 149.654 15.297C149.324 15.297 149.074 15.367 148.914 15.487C148.744 15.607 148.644 15.817 148.614 16.097L147.514 16.087C147.614 14.987 148.334 14.427 149.684 14.427C151.104 14.427 151.814 15.027 151.814 16.207V18.527C151.814 18.907 151.884 19.307 152.024 19.717ZM149.314 18.977C149.694 18.977 150.014 18.867 150.274 18.647C150.534 18.427 150.674 18.137 150.674 17.787V17.247L149.244 17.497C148.684 17.597 148.414 17.857 148.414 18.257C148.414 18.487 148.494 18.667 148.654 18.787C148.814 18.917 149.034 18.977 149.314 18.977ZM155.339 13.547C155.109 13.547 154.949 13.597 154.859 13.697C154.759 13.797 154.719 13.947 154.719 14.167V14.587L155.789 14.557V15.437L154.719 15.397V19.717H153.549V15.407L152.769 15.437V14.557L153.549 14.587V14.197C153.549 13.137 154.079 12.597 155.149 12.597H155.789V13.547H155.339ZM158.146 15.397V18.267C158.146 18.457 158.176 18.587 158.256 18.657C158.326 18.737 158.456 18.767 158.636 18.767H159.206V19.717H158.276C157.816 19.717 157.476 19.617 157.276 19.417C157.076 19.217 156.976 18.877 156.976 18.417V15.407L156.236 15.437V14.557L156.976 14.587V12.967H158.146V14.587L159.206 14.557V15.437L158.146 15.397ZM164.862 17.167V17.457H161.052C161.072 17.937 161.212 18.297 161.452 18.557C161.692 18.817 162.022 18.937 162.442 18.937C163.032 18.937 163.432 18.657 163.642 18.097L164.762 18.197C164.602 18.737 164.312 19.157 163.912 19.437C163.512 19.727 163.022 19.867 162.442 19.867C161.642 19.867 161.012 19.617 160.552 19.097C160.092 18.587 159.862 17.927 159.862 17.117C159.862 16.337 160.082 15.687 160.532 15.187C160.972 14.687 161.582 14.427 162.352 14.427C163.102 14.427 163.712 14.677 164.172 15.167C164.632 15.657 164.862 16.327 164.862 17.167ZM162.382 15.327C162.002 15.327 161.702 15.447 161.462 15.677C161.222 15.907 161.092 16.227 161.062 16.647H163.692C163.642 16.227 163.502 15.897 163.282 15.667C163.052 15.447 162.752 15.327 162.382 15.327ZM168.493 14.397C168.603 14.397 168.713 14.407 168.823 14.427V15.537C168.673 15.527 168.573 15.517 168.513 15.517C168.103 15.517 167.773 15.657 167.523 15.917C167.263 16.177 167.133 16.557 167.133 17.057V19.717H165.963V14.557H167.083L167.063 15.497C167.333 14.767 167.813 14.397 168.493 14.397ZM173.771 15.397V18.267C173.771 18.457 173.801 18.587 173.881 18.657C173.951 18.737 174.081 18.767 174.261 18.767H174.831V19.717H173.901C173.441 19.717 173.101 19.617 172.901 19.417C172.701 19.217 172.601 18.877 172.601 18.417V15.407L171.861 15.437V14.557L172.601 14.587V12.967H173.771V14.587L174.831 14.557V15.437L173.771 15.397ZM178.517 14.427C179.057 14.427 179.477 14.587 179.777 14.897C180.077 15.217 180.237 15.647 180.237 16.197V19.717H179.067V16.447C179.067 15.797 178.767 15.467 178.177 15.467C177.817 15.467 177.527 15.597 177.297 15.837C177.057 16.077 176.947 16.437 176.947 16.907V19.717H175.777V12.597H176.947V15.227C177.307 14.697 177.827 14.427 178.517 14.427ZM186.347 17.167V17.457H182.537C182.557 17.937 182.697 18.297 182.937 18.557C183.177 18.817 183.507 18.937 183.927 18.937C184.517 18.937 184.917 18.657 185.127 18.097L186.247 18.197C186.087 18.737 185.797 19.157 185.397 19.437C184.997 19.727 184.507 19.867 183.927 19.867C183.127 19.867 182.497 19.617 182.037 19.097C181.577 18.587 181.347 17.927 181.347 17.117C181.347 16.337 181.567 15.687 182.017 15.187C182.457 14.687 183.067 14.427 183.837 14.427C184.587 14.427 185.197 14.677 185.657 15.167C186.117 15.657 186.347 16.327 186.347 17.167ZM183.867 15.327C183.487 15.327 183.187 15.447 182.947 15.677C182.707 15.907 182.577 16.227 182.547 16.647H185.177C185.127 16.227 184.987 15.897 184.767 15.667C184.537 15.447 184.237 15.327 183.867 15.327ZM32.2533 34.867C31.4933 34.867 30.9033 34.637 30.4633 34.157C30.0233 33.677 29.8133 33.017 29.8133 32.167C29.8133 31.327 30.0333 30.657 30.4733 30.167C30.9133 29.677 31.5133 29.427 32.2733 29.427C32.9033 29.427 33.4233 29.597 33.8233 29.917C34.2233 30.247 34.4633 30.707 34.5633 31.307H33.4333C33.2833 30.687 32.9033 30.367 32.2933 30.367C31.8533 30.367 31.5233 30.527 31.3033 30.827C31.0733 31.137 30.9633 31.577 30.9633 32.147C30.9633 32.717 31.0733 33.157 31.3033 33.467C31.5333 33.777 31.8633 33.927 32.2833 33.927C32.9033 33.927 33.2833 33.597 33.4333 32.927H34.5633C34.4633 33.547 34.2133 34.017 33.8133 34.357C33.4133 34.697 32.8933 34.867 32.2533 34.867ZM37.8909 34.867C37.1309 34.867 36.5209 34.617 36.0409 34.107C35.5609 33.607 35.3309 32.947 35.3309 32.147C35.3309 31.347 35.5709 30.687 36.0509 30.187C36.5309 29.687 37.1509 29.427 37.9109 29.427C38.6609 29.427 39.2709 29.677 39.7509 30.177C40.2209 30.677 40.4609 31.327 40.4609 32.127C40.4609 32.927 40.2209 33.587 39.7409 34.097C39.2609 34.617 38.6409 34.867 37.8909 34.867ZM37.8909 33.927C38.3309 33.927 38.6809 33.767 38.9409 33.437C39.1909 33.117 39.3209 32.677 39.3209 32.127C39.3209 31.587 39.1909 31.157 38.9409 30.837C38.6809 30.527 38.3309 30.367 37.8909 30.367C37.4509 30.367 37.1009 30.527 36.8509 30.847C36.6009 31.167 36.4809 31.607 36.4809 32.147C36.4809 32.687 36.6009 33.127 36.8609 33.447C37.1109 33.767 37.4509 33.927 37.8909 33.927ZM47.1984 29.427C47.7184 29.427 48.1184 29.587 48.3984 29.897C48.6784 30.217 48.8184 30.657 48.8184 31.227V34.717H47.6484V31.367C47.6484 31.097 47.5784 30.877 47.4384 30.717C47.2984 30.557 47.1084 30.467 46.8584 30.467C46.5384 30.467 46.2784 30.597 46.0784 30.837C45.8684 31.077 45.7684 31.447 45.7684 31.937V34.717H44.5984V31.367C44.5984 31.097 44.5284 30.877 44.3884 30.717C44.2484 30.557 44.0584 30.467 43.8084 30.467C43.4984 30.467 43.2384 30.597 43.0384 30.847C42.8284 31.097 42.7284 31.467 42.7284 31.957V34.717H41.5584V29.557H42.6884L42.6784 30.277C43.0084 29.717 43.5084 29.427 44.1684 29.427C44.8884 29.427 45.3784 29.737 45.6184 30.347C45.9384 29.737 46.4684 29.427 47.1984 29.427ZM52.9107 29.437C53.5407 29.437 54.0607 29.677 54.4707 30.157C54.8707 30.637 55.0807 31.267 55.0807 32.067C55.0807 32.887 54.8707 33.557 54.4607 34.077C54.0507 34.597 53.5107 34.857 52.8407 34.857C52.2207 34.857 51.7307 34.627 51.3807 34.167V36.757H50.2107V29.557H51.2407L51.2607 30.297C51.6107 29.727 52.1607 29.437 52.9107 29.437ZM52.6407 33.837C53.0207 33.837 53.3307 33.677 53.5707 33.357C53.8107 33.037 53.9307 32.607 53.9307 32.067C53.9307 31.547 53.8107 31.147 53.5807 30.857C53.3407 30.567 53.0307 30.417 52.6407 30.417C52.2407 30.417 51.9207 30.567 51.6807 30.867C51.4407 31.167 51.3207 31.577 51.3207 32.097C51.3207 32.627 51.4407 33.047 51.6807 33.367C51.9207 33.687 52.2407 33.837 52.6407 33.837ZM60.6175 34.717H59.4375C59.3975 34.587 59.3575 34.387 59.3075 34.117C58.9175 34.617 58.3575 34.857 57.6175 34.857C57.0775 34.857 56.6475 34.727 56.3275 34.447C56.0075 34.167 55.8575 33.797 55.8575 33.317C55.8575 32.457 56.4075 31.927 57.5175 31.737L59.1275 31.467C59.1875 31.457 59.2375 31.447 59.2675 31.427V30.977C59.2675 30.527 58.9275 30.297 58.2475 30.297C57.9175 30.297 57.6675 30.367 57.5075 30.487C57.3375 30.607 57.2375 30.817 57.2075 31.097L56.1075 31.087C56.2075 29.987 56.9275 29.427 58.2775 29.427C59.6975 29.427 60.4075 30.027 60.4075 31.207V33.527C60.4075 33.907 60.4775 34.307 60.6175 34.717ZM57.9075 33.977C58.2875 33.977 58.6075 33.867 58.8675 33.647C59.1275 33.427 59.2675 33.137 59.2675 32.787V32.247L57.8375 32.497C57.2775 32.597 57.0075 32.857 57.0075 33.257C57.0075 33.487 57.0875 33.667 57.2475 33.787C57.4075 33.917 57.6275 33.977 57.9075 33.977ZM64.5328 29.427C65.0728 29.427 65.4928 29.587 65.7928 29.897C66.0928 30.217 66.2528 30.647 66.2528 31.197V34.717H65.0828V31.447C65.0828 30.797 64.7828 30.467 64.1928 30.467C63.8328 30.467 63.5428 30.597 63.3128 30.837C63.0728 31.077 62.9628 31.437 62.9628 31.907V34.717H61.7928V29.557H62.9128L62.9328 30.277C63.2928 29.717 63.8228 29.427 64.5328 29.427ZM71.0021 29.557H72.2321L70.0021 35.677C69.8521 36.097 69.6721 36.377 69.4521 36.527C69.2321 36.687 68.9421 36.757 68.5621 36.757H67.6721V35.767H68.2621C68.4821 35.767 68.6421 35.727 68.7621 35.647C68.8721 35.567 68.9721 35.427 69.0521 35.207L69.1921 34.827L67.1521 29.557H68.4321L69.5721 32.777L69.7121 33.477L71.0021 29.557ZM75.7283 28.737V27.597H76.8983V28.737H75.7283ZM75.7283 34.717V29.557H76.8983V34.717H75.7283ZM80.2567 34.877C79.5767 34.877 79.0467 34.737 78.6667 34.437C78.2867 34.137 78.0667 33.707 78.0067 33.137L79.0967 33.107C79.1767 33.717 79.5767 34.017 80.2967 34.017C80.6367 34.017 80.8967 33.957 81.0867 33.837C81.2767 33.717 81.3767 33.547 81.3767 33.327C81.3767 33.007 81.1267 32.797 80.6367 32.697L79.6067 32.487C78.6267 32.287 78.1367 31.797 78.1367 31.027C78.1367 30.547 78.3067 30.157 78.6667 29.867C79.0267 29.577 79.5167 29.427 80.1467 29.427C80.7567 29.427 81.2567 29.577 81.6367 29.857C82.0167 30.137 82.2467 30.547 82.3167 31.067L81.2267 31.097C81.1267 30.557 80.7667 30.287 80.1267 30.287C79.8367 30.287 79.6167 30.347 79.4567 30.447C79.2967 30.557 79.2167 30.707 79.2167 30.907C79.2167 31.207 79.4467 31.407 79.9067 31.507L80.9667 31.727C81.4867 31.847 81.8667 32.017 82.1067 32.257C82.3467 32.497 82.4767 32.817 82.4767 33.197C82.4767 33.727 82.2767 34.137 81.8767 34.437C81.4767 34.737 80.9367 34.877 80.2567 34.877ZM85.4911 34.877C84.8111 34.877 84.2811 34.737 83.9011 34.437C83.5211 34.137 83.3011 33.707 83.2411 33.137L84.3311 33.107C84.4111 33.717 84.8111 34.017 85.5311 34.017C85.8711 34.017 86.1311 33.957 86.3211 33.837C86.5111 33.717 86.6111 33.547 86.6111 33.327C86.6111 33.007 86.3611 32.797 85.8711 32.697L84.8411 32.487C83.8611 32.287 83.3711 31.797 83.3711 31.027C83.3711 30.547 83.5411 30.157 83.9011 29.867C84.2611 29.577 84.7511 29.427 85.3811 29.427C85.9911 29.427 86.4911 29.577 86.8711 29.857C87.2511 30.137 87.4811 30.547 87.5511 31.067L86.4611 31.097C86.3611 30.557 86.0011 30.287 85.3611 30.287C85.0711 30.287 84.8511 30.347 84.6911 30.447C84.5311 30.557 84.4511 30.707 84.4511 30.907C84.4511 31.207 84.6811 31.407 85.1411 31.507L86.2011 31.727C86.7211 31.847 87.1011 32.017 87.3411 32.257C87.5811 32.497 87.7111 32.817 87.7111 33.197C87.7111 33.727 87.5111 34.137 87.1111 34.437C86.7111 34.737 86.1711 34.877 85.4911 34.877ZM92.0554 29.557H93.2254V34.717H92.1054L92.0854 33.997C91.7254 34.567 91.1854 34.847 90.4854 34.847C89.9454 34.847 89.5154 34.697 89.2154 34.377C88.9154 34.067 88.7654 33.637 88.7654 33.077V29.557H89.9354V32.827C89.9354 33.487 90.2254 33.807 90.8254 33.807C91.1754 33.807 91.4654 33.687 91.7054 33.447C91.9354 33.207 92.0554 32.847 92.0554 32.367V29.557ZM99.3348 32.167V32.457H95.5248C95.5448 32.937 95.6848 33.297 95.9248 33.557C96.1648 33.817 96.4948 33.937 96.9148 33.937C97.5048 33.937 97.9048 33.657 98.1148 33.097L99.2348 33.197C99.0748 33.737 98.7848 34.157 98.3848 34.437C97.9848 34.727 97.4948 34.867 96.9148 34.867C96.1148 34.867 95.4848 34.617 95.0248 34.097C94.5648 33.587 94.3348 32.927 94.3348 32.117C94.3348 31.337 94.5548 30.687 95.0048 30.187C95.4448 29.687 96.0548 29.427 96.8248 29.427C97.5748 29.427 98.1848 29.677 98.6448 30.167C99.1048 30.657 99.3348 31.327 99.3348 32.167ZM96.8548 30.327C96.4748 30.327 96.1748 30.447 95.9348 30.677C95.6948 30.907 95.5648 31.227 95.5348 31.647H98.1648C98.1148 31.227 97.9748 30.897 97.7548 30.667C97.5248 30.447 97.2248 30.327 96.8548 30.327ZM103.845 27.597H105.015V34.717H103.985L103.965 33.987C103.605 34.567 103.075 34.857 102.385 34.857C101.705 34.857 101.165 34.607 100.755 34.087C100.345 33.577 100.145 32.907 100.145 32.087C100.145 31.287 100.345 30.647 100.755 30.167C101.155 29.687 101.675 29.437 102.315 29.437C102.975 29.437 103.485 29.667 103.845 30.127V27.597ZM102.585 33.837C102.965 33.837 103.285 33.687 103.535 33.367C103.775 33.047 103.905 32.627 103.905 32.097C103.905 31.577 103.775 31.167 103.535 30.867C103.295 30.567 102.975 30.417 102.585 30.417C102.185 30.417 101.875 30.567 101.645 30.857C101.405 31.157 101.295 31.567 101.295 32.087C101.295 32.627 101.405 33.047 101.645 33.367C101.875 33.687 102.185 33.837 102.585 33.837ZM111.51 34.877C110.79 34.877 110.21 34.697 109.75 34.337C109.29 33.977 109.02 33.467 108.94 32.827L110.13 32.767C110.19 33.127 110.35 33.397 110.6 33.577C110.85 33.767 111.16 33.857 111.53 33.857C111.97 33.857 112.31 33.727 112.57 33.467C112.82 33.207 112.95 32.847 112.95 32.407C112.95 31.977 112.82 31.627 112.57 31.367C112.31 31.107 111.96 30.967 111.51 30.967C111.03 30.967 110.62 31.147 110.29 31.497L109.13 31.387L109.82 27.597H113.74V28.667H110.7L110.39 30.377L110.41 30.387C110.83 30.107 111.31 29.957 111.83 29.957C112.53 29.957 113.09 30.187 113.52 30.627C113.95 31.077 114.17 31.657 114.17 32.367C114.17 33.107 113.93 33.717 113.45 34.177C112.97 34.647 112.32 34.877 111.51 34.877ZM118.063 34.857C117.183 34.857 116.513 34.547 116.053 33.907C115.593 33.277 115.373 32.357 115.373 31.137C115.373 29.937 115.603 29.017 116.063 28.397C116.523 27.777 117.193 27.457 118.073 27.457C118.943 27.457 119.603 27.777 120.063 28.397C120.523 29.017 120.753 29.937 120.753 31.137C120.753 32.357 120.523 33.277 120.063 33.907C119.603 34.547 118.933 34.857 118.063 34.857ZM118.073 33.827C118.573 33.827 118.933 33.617 119.173 33.187C119.403 32.757 119.523 32.077 119.523 31.147C119.523 30.227 119.403 29.557 119.163 29.127C118.923 28.707 118.563 28.487 118.063 28.487C117.563 28.487 117.193 28.707 116.953 29.127C116.713 29.557 116.603 30.227 116.603 31.147C116.603 32.077 116.723 32.757 116.963 33.187C117.203 33.617 117.573 33.827 118.073 33.827ZM127.377 27.597H129.087V34.717H127.967V31.047L128.067 28.667L127.567 30.357L126.207 34.717H124.997L123.557 30.247L123.077 28.627L123.177 31.047V34.717H122.067V27.597H123.767L125.327 32.397L125.597 33.467L125.867 32.397L127.377 27.597ZM135.091 34.877C134.411 34.877 133.881 34.737 133.501 34.437C133.121 34.137 132.901 33.707 132.841 33.137L133.931 33.107C134.011 33.717 134.411 34.017 135.131 34.017C135.471 34.017 135.731 33.957 135.921 33.837C136.111 33.717 136.211 33.547 136.211 33.327C136.211 33.007 135.961 32.797 135.471 32.697L134.441 32.487C133.461 32.287 132.971 31.797 132.971 31.027C132.971 30.547 133.141 30.157 133.501 29.867C133.861 29.577 134.351 29.427 134.981 29.427C135.591 29.427 136.091 29.577 136.471 29.857C136.851 30.137 137.081 30.547 137.151 31.067L136.061 31.097C135.961 30.557 135.601 30.287 134.961 30.287C134.671 30.287 134.451 30.347 134.291 30.447C134.131 30.557 134.051 30.707 134.051 30.907C134.051 31.207 134.281 31.407 134.741 31.507L135.801 31.727C136.321 31.847 136.701 32.017 136.941 32.257C137.181 32.497 137.311 32.817 137.311 33.197C137.311 33.727 137.111 34.137 136.711 34.437C136.311 34.737 135.771 34.877 135.091 34.877ZM141.105 29.427C141.645 29.427 142.065 29.587 142.365 29.897C142.665 30.217 142.825 30.647 142.825 31.197V34.717H141.655V31.447C141.655 30.797 141.355 30.467 140.765 30.467C140.405 30.467 140.115 30.597 139.885 30.837C139.645 31.077 139.535 31.437 139.535 31.907V34.717H138.365V27.597H139.535V30.227C139.895 29.697 140.415 29.427 141.105 29.427ZM148.664 34.717H147.484C147.444 34.587 147.404 34.387 147.354 34.117C146.964 34.617 146.404 34.857 145.664 34.857C145.124 34.857 144.694 34.727 144.374 34.447C144.054 34.167 143.904 33.797 143.904 33.317C143.904 32.457 144.454 31.927 145.564 31.737L147.174 31.467C147.234 31.457 147.284 31.447 147.314 31.427V30.977C147.314 30.527 146.974 30.297 146.294 30.297C145.964 30.297 145.714 30.367 145.554 30.487C145.384 30.607 145.284 30.817 145.254 31.097L144.154 31.087C144.254 29.987 144.974 29.427 146.324 29.427C147.744 29.427 148.454 30.027 148.454 31.207V33.527C148.454 33.907 148.524 34.307 148.664 34.717ZM145.954 33.977C146.334 33.977 146.654 33.867 146.914 33.647C147.174 33.427 147.314 33.137 147.314 32.787V32.247L145.884 32.497C145.324 32.597 145.054 32.857 145.054 33.257C145.054 33.487 145.134 33.667 145.294 33.787C145.454 33.917 145.674 33.977 145.954 33.977ZM152.37 29.397C152.48 29.397 152.59 29.407 152.7 29.427V30.537C152.55 30.527 152.45 30.517 152.39 30.517C151.98 30.517 151.65 30.657 151.4 30.917C151.14 31.177 151.01 31.557 151.01 32.057V34.717H149.84V29.557H150.96L150.94 30.497C151.21 29.767 151.69 29.397 152.37 29.397ZM158.28 32.167V32.457H154.47C154.49 32.937 154.63 33.297 154.87 33.557C155.11 33.817 155.44 33.937 155.86 33.937C156.45 33.937 156.85 33.657 157.06 33.097L158.18 33.197C158.02 33.737 157.73 34.157 157.33 34.437C156.93 34.727 156.44 34.867 155.86 34.867C155.06 34.867 154.43 34.617 153.97 34.097C153.51 33.587 153.28 32.927 153.28 32.117C153.28 31.337 153.5 30.687 153.95 30.187C154.39 29.687 155 29.427 155.77 29.427C156.52 29.427 157.13 29.677 157.59 30.167C158.05 30.657 158.28 31.327 158.28 32.167ZM155.8 30.327C155.42 30.327 155.12 30.447 154.88 30.677C154.64 30.907 154.51 31.227 154.48 31.647H157.11C157.06 31.227 156.92 30.897 156.7 30.667C156.47 30.447 156.17 30.327 155.8 30.327ZM161.341 34.877C160.661 34.877 160.131 34.737 159.751 34.437C159.371 34.137 159.151 33.707 159.091 33.137L160.181 33.107C160.261 33.717 160.661 34.017 161.381 34.017C161.721 34.017 161.981 33.957 162.171 33.837C162.361 33.717 162.461 33.547 162.461 33.327C162.461 33.007 162.211 32.797 161.721 32.697L160.691 32.487C159.711 32.287 159.221 31.797 159.221 31.027C159.221 30.547 159.391 30.157 159.751 29.867C160.111 29.577 160.601 29.427 161.231 29.427C161.841 29.427 162.341 29.577 162.721 29.857C163.101 30.137 163.331 30.547 163.401 31.067L162.311 31.097C162.211 30.557 161.851 30.287 161.211 30.287C160.921 30.287 160.701 30.347 160.541 30.447C160.381 30.557 160.301 30.707 160.301 30.907C160.301 31.207 160.531 31.407 160.991 31.507L162.051 31.727C162.571 31.847 162.951 32.017 163.191 32.257C163.431 32.497 163.561 32.817 163.561 33.197C163.561 33.727 163.361 34.137 162.961 34.437C162.561 34.737 162.021 34.877 161.341 34.877ZM167.213 28.737V27.597H168.383V28.737H167.213ZM167.213 34.717V29.557H168.383V34.717H167.213ZM172.521 29.427C173.061 29.427 173.481 29.587 173.781 29.897C174.081 30.217 174.241 30.647 174.241 31.197V34.717H173.071V31.447C173.071 30.797 172.771 30.467 172.181 30.467C171.821 30.467 171.531 30.597 171.301 30.837C171.061 31.077 170.951 31.437 170.951 31.907V34.717H169.781V29.557H170.901L170.921 30.277C171.281 29.717 171.811 29.427 172.521 29.427ZM182.678 34.717H181.498C181.458 34.587 181.418 34.387 181.368 34.117C180.978 34.617 180.418 34.857 179.678 34.857C179.138 34.857 178.708 34.727 178.388 34.447C178.068 34.167 177.918 33.797 177.918 33.317C177.918 32.457 178.468 31.927 179.578 31.737L181.188 31.467C181.248 31.457 181.298 31.447 181.328 31.427V30.977C181.328 30.527 180.988 30.297 180.308 30.297C179.978 30.297 179.728 30.367 179.568 30.487C179.398 30.607 179.298 30.817 179.268 31.097L178.168 31.087C178.268 29.987 178.988 29.427 180.338 29.427C181.758 29.427 182.468 30.027 182.468 31.207V33.527C182.468 33.907 182.538 34.307 182.678 34.717ZM179.968 33.977C180.348 33.977 180.668 33.867 180.928 33.647C181.188 33.427 181.328 33.137 181.328 32.787V32.247L179.898 32.497C179.338 32.597 179.068 32.857 179.068 33.257C179.068 33.487 179.148 33.667 179.308 33.787C179.468 33.917 179.688 33.977 179.968 33.977ZM32.0633 49.877C31.3833 49.877 30.8533 49.737 30.4733 49.437C30.0933 49.137 29.8733 48.707 29.8133 48.137L30.9033 48.107C30.9833 48.717 31.3833 49.017 32.1033 49.017C32.4433 49.017 32.7033 48.957 32.8933 48.837C33.0833 48.717 33.1833 48.547 33.1833 48.327C33.1833 48.007 32.9333 47.797 32.4433 47.697L31.4133 47.487C30.4333 47.287 29.9433 46.797 29.9433 46.027C29.9433 45.547 30.1133 45.157 30.4733 44.867C30.8333 44.577 31.3233 44.427 31.9533 44.427C32.5633 44.427 33.0633 44.577 33.4433 44.857C33.8233 45.137 34.0533 45.547 34.1233 46.067L33.0333 46.097C32.9333 45.557 32.5733 45.287 31.9333 45.287C31.6433 45.287 31.4233 45.347 31.2633 45.447C31.1033 45.557 31.0233 45.707 31.0233 45.907C31.0233 46.207 31.2533 46.407 31.7133 46.507L32.7733 46.727C33.2933 46.847 33.6733 47.017 33.9133 47.257C34.1533 47.497 34.2833 47.817 34.2833 48.197C34.2833 48.727 34.0833 49.137 33.6833 49.437C33.2833 49.737 32.7433 49.877 32.0633 49.877ZM40.0477 47.167V47.457H36.2377C36.2577 47.937 36.3977 48.297 36.6377 48.557C36.8777 48.817 37.2077 48.937 37.6277 48.937C38.2177 48.937 38.6177 48.657 38.8277 48.097L39.9477 48.197C39.7877 48.737 39.4977 49.157 39.0977 49.437C38.6977 49.727 38.2077 49.867 37.6277 49.867C36.8277 49.867 36.1977 49.617 35.7377 49.097C35.2777 48.587 35.0477 47.927 35.0477 47.117C35.0477 46.337 35.2677 45.687 35.7177 45.187C36.1577 44.687 36.7677 44.427 37.5377 44.427C38.2877 44.427 38.8977 44.677 39.3577 45.167C39.8177 45.657 40.0477 46.327 40.0477 47.167ZM37.5677 45.327C37.1877 45.327 36.8877 45.447 36.6477 45.677C36.4077 45.907 36.2777 46.227 36.2477 46.647H38.8777C38.8277 46.227 38.6877 45.897 38.4677 45.667C38.2377 45.447 37.9377 45.327 37.5677 45.327ZM43.2982 49.867C42.5382 49.867 41.9482 49.637 41.5082 49.157C41.0682 48.677 40.8582 48.017 40.8582 47.167C40.8582 46.327 41.0782 45.657 41.5182 45.167C41.9582 44.677 42.5582 44.427 43.3182 44.427C43.9482 44.427 44.4682 44.597 44.8682 44.917C45.2682 45.247 45.5082 45.707 45.6082 46.307H44.4782C44.3282 45.687 43.9482 45.367 43.3382 45.367C42.8982 45.367 42.5682 45.527 42.3482 45.827C42.1182 46.137 42.0082 46.577 42.0082 47.147C42.0082 47.717 42.1182 48.157 42.3482 48.467C42.5782 48.777 42.9082 48.927 43.3282 48.927C43.9482 48.927 44.3282 48.597 44.4782 47.927H45.6082C45.5082 48.547 45.2582 49.017 44.8582 49.357C44.4582 49.697 43.9382 49.867 43.2982 49.867ZM48.9358 49.867C48.1758 49.867 47.5658 49.617 47.0858 49.107C46.6058 48.607 46.3758 47.947 46.3758 47.147C46.3758 46.347 46.6158 45.687 47.0958 45.187C47.5758 44.687 48.1958 44.427 48.9558 44.427C49.7058 44.427 50.3158 44.677 50.7958 45.177C51.2658 45.677 51.5058 46.327 51.5058 47.127C51.5058 47.927 51.2658 48.587 50.7858 49.097C50.3058 49.617 49.6858 49.867 48.9358 49.867ZM48.9358 48.927C49.3758 48.927 49.7258 48.767 49.9858 48.437C50.2358 48.117 50.3658 47.677 50.3658 47.127C50.3658 46.587 50.2358 46.157 49.9858 45.837C49.7258 45.527 49.3758 45.367 48.9358 45.367C48.4958 45.367 48.1458 45.527 47.8958 45.847C47.6458 46.167 47.5258 46.607 47.5258 47.147C47.5258 47.687 47.6458 48.127 47.9058 48.447C48.1558 48.767 48.4958 48.927 48.9358 48.927ZM55.3433 44.427C55.8833 44.427 56.3033 44.587 56.6033 44.897C56.9033 45.217 57.0633 45.647 57.0633 46.197V49.717H55.8933V46.447C55.8933 45.797 55.5933 45.467 55.0033 45.467C54.6433 45.467 54.3533 45.597 54.1233 45.837C53.8833 46.077 53.7733 46.437 53.7733 46.907V49.717H52.6033V44.557H53.7233L53.7433 45.277C54.1033 44.717 54.6333 44.427 55.3433 44.427ZM61.8727 42.597H63.0427V49.717H62.0127L61.9927 48.987C61.6327 49.567 61.1027 49.857 60.4127 49.857C59.7327 49.857 59.1927 49.607 58.7827 49.087C58.3727 48.577 58.1727 47.907 58.1727 47.087C58.1727 46.287 58.3727 45.647 58.7827 45.167C59.1827 44.687 59.7027 44.437 60.3427 44.437C61.0027 44.437 61.5127 44.667 61.8727 45.127V42.597ZM60.6127 48.837C60.9927 48.837 61.3127 48.687 61.5627 48.367C61.8027 48.047 61.9327 47.627 61.9327 47.097C61.9327 46.577 61.8027 46.167 61.5627 45.867C61.3227 45.567 61.0027 45.417 60.6127 45.417C60.2127 45.417 59.9027 45.567 59.6727 45.857C59.4327 46.157 59.3227 46.567 59.3227 47.087C59.3227 47.627 59.4327 48.047 59.6727 48.367C59.9027 48.687 60.2127 48.837 60.6127 48.837ZM68.8793 49.717H67.6993C67.6593 49.587 67.6193 49.387 67.5693 49.117C67.1793 49.617 66.6193 49.857 65.8793 49.857C65.3393 49.857 64.9093 49.727 64.5893 49.447C64.2693 49.167 64.1193 48.797 64.1193 48.317C64.1193 47.457 64.6693 46.927 65.7793 46.737L67.3893 46.467C67.4493 46.457 67.4993 46.447 67.5293 46.427V45.977C67.5293 45.527 67.1893 45.297 66.5093 45.297C66.1793 45.297 65.9293 45.367 65.7693 45.487C65.5993 45.607 65.4993 45.817 65.4693 46.097L64.3693 46.087C64.4693 44.987 65.1893 44.427 66.5393 44.427C67.9593 44.427 68.6693 45.027 68.6693 46.207V48.527C68.6693 48.907 68.7393 49.307 68.8793 49.717ZM66.1693 48.977C66.5493 48.977 66.8693 48.867 67.1293 48.647C67.3893 48.427 67.5293 48.137 67.5293 47.787V47.247L66.0993 47.497C65.5393 47.597 65.2693 47.857 65.2693 48.257C65.2693 48.487 65.3493 48.667 65.5093 48.787C65.6693 48.917 65.8893 48.977 66.1693 48.977ZM72.5845 44.397C72.6945 44.397 72.8045 44.407 72.9145 44.427V45.537C72.7645 45.527 72.6645 45.517 72.6045 45.517C72.1945 45.517 71.8645 45.657 71.6145 45.917C71.3545 46.177 71.2245 46.557 71.2245 47.057V49.717H70.0545V44.557H71.1745L71.1545 45.497C71.4245 44.767 71.9045 44.397 72.5845 44.397ZM77.135 44.557H78.365L76.135 50.677C75.985 51.097 75.805 51.377 75.585 51.527C75.365 51.687 75.075 51.757 74.695 51.757H73.805V50.767H74.395C74.615 50.767 74.775 50.727 74.895 50.647C75.005 50.567 75.105 50.427 75.185 50.207L75.325 49.827L73.285 44.557H74.565L75.705 47.777L75.845 48.477L77.135 44.557ZM83.3411 45.397V48.267C83.3411 48.457 83.3711 48.587 83.4511 48.657C83.5211 48.737 83.6511 48.767 83.8311 48.767H84.4011V49.717H83.4711C83.0111 49.717 82.6711 49.617 82.4711 49.417C82.2711 49.217 82.1711 48.877 82.1711 48.417V45.407L81.4311 45.437V44.557L82.1711 44.587V42.967H83.3411V44.587L84.4011 44.557V45.437L83.3411 45.397ZM87.8775 44.397C87.9875 44.397 88.0975 44.407 88.2075 44.427V45.537C88.0575 45.527 87.9575 45.517 87.8975 45.517C87.4875 45.517 87.1575 45.657 86.9075 45.917C86.6475 46.177 86.5175 46.557 86.5175 47.057V49.717H85.3475V44.557H86.4675L86.4475 45.497C86.7175 44.767 87.1975 44.397 87.8775 44.397ZM93.5179 49.717H92.3379C92.2979 49.587 92.2579 49.387 92.2079 49.117C91.8179 49.617 91.2579 49.857 90.5179 49.857C89.9779 49.857 89.5479 49.727 89.2279 49.447C88.9079 49.167 88.7579 48.797 88.7579 48.317C88.7579 47.457 89.3079 46.927 90.4179 46.737L92.0279 46.467C92.0879 46.457 92.1379 46.447 92.1679 46.427V45.977C92.1679 45.527 91.8279 45.297 91.1479 45.297C90.8179 45.297 90.5679 45.367 90.4079 45.487C90.2379 45.607 90.1379 45.817 90.1079 46.097L89.0079 46.087C89.1079 44.987 89.8279 44.427 91.1779 44.427C92.5979 44.427 93.3079 45.027 93.3079 46.207V48.527C93.3079 48.907 93.3779 49.307 93.5179 49.717ZM90.8079 48.977C91.1879 48.977 91.5079 48.867 91.7679 48.647C92.0279 48.427 92.1679 48.137 92.1679 47.787V47.247L90.7379 47.497C90.1779 47.597 89.9079 47.857 89.9079 48.257C89.9079 48.487 89.9879 48.667 90.1479 48.787C90.3079 48.917 90.5279 48.977 90.8079 48.977ZM97.4332 44.427C97.9732 44.427 98.3932 44.587 98.6932 44.897C98.9932 45.217 99.1532 45.647 99.1532 46.197V49.717H97.9832V46.447C97.9832 45.797 97.6832 45.467 97.0932 45.467C96.7332 45.467 96.4432 45.597 96.2132 45.837C95.9732 46.077 95.8632 46.437 95.8632 46.907V49.717H94.6932V44.557H95.8132L95.8332 45.277C96.1932 44.717 96.7232 44.427 97.4332 44.427ZM102.513 49.877C101.833 49.877 101.303 49.737 100.923 49.437C100.543 49.137 100.323 48.707 100.263 48.137L101.353 48.107C101.433 48.717 101.833 49.017 102.553 49.017C102.893 49.017 103.153 48.957 103.343 48.837C103.533 48.717 103.633 48.547 103.633 48.327C103.633 48.007 103.383 47.797 102.893 47.697L101.863 47.487C100.883 47.287 100.393 46.797 100.393 46.027C100.393 45.547 100.563 45.157 100.923 44.867C101.283 44.577 101.773 44.427 102.403 44.427C103.013 44.427 103.513 44.577 103.893 44.857C104.273 45.137 104.503 45.547 104.573 46.067L103.483 46.097C103.383 45.557 103.023 45.287 102.383 45.287C102.093 45.287 101.873 45.347 101.713 45.447C101.553 45.557 101.473 45.707 101.473 45.907C101.473 46.207 101.703 46.407 102.163 46.507L103.223 46.727C103.743 46.847 104.123 47.017 104.363 47.257C104.603 47.497 104.733 47.817 104.733 48.197C104.733 48.727 104.533 49.137 104.133 49.437C103.733 49.737 103.193 49.877 102.513 49.877ZM110.227 49.717H109.047C109.007 49.587 108.967 49.387 108.917 49.117C108.527 49.617 107.967 49.857 107.227 49.857C106.687 49.857 106.257 49.727 105.937 49.447C105.617 49.167 105.467 48.797 105.467 48.317C105.467 47.457 106.017 46.927 107.127 46.737L108.737 46.467C108.797 46.457 108.847 46.447 108.877 46.427V45.977C108.877 45.527 108.537 45.297 107.857 45.297C107.527 45.297 107.277 45.367 107.117 45.487C106.947 45.607 106.847 45.817 106.817 46.097L105.717 46.087C105.817 44.987 106.537 44.427 107.887 44.427C109.307 44.427 110.017 45.027 110.017 46.207V48.527C110.017 48.907 110.087 49.307 110.227 49.717ZM107.517 48.977C107.897 48.977 108.217 48.867 108.477 48.647C108.737 48.427 108.877 48.137 108.877 47.787V47.247L107.447 47.497C106.887 47.597 106.617 47.857 106.617 48.257C106.617 48.487 106.697 48.667 106.857 48.787C107.017 48.917 107.237 48.977 107.517 48.977ZM113.552 49.867C112.792 49.867 112.202 49.637 111.762 49.157C111.322 48.677 111.112 48.017 111.112 47.167C111.112 46.327 111.332 45.657 111.772 45.167C112.212 44.677 112.812 44.427 113.572 44.427C114.202 44.427 114.722 44.597 115.122 44.917C115.522 45.247 115.762 45.707 115.862 46.307H114.732C114.582 45.687 114.202 45.367 113.592 45.367C113.152 45.367 112.822 45.527 112.602 45.827C112.372 46.137 112.262 46.577 112.262 47.147C112.262 47.717 112.372 48.157 112.602 48.467C112.832 48.777 113.162 48.927 113.582 48.927C114.202 48.927 114.582 48.597 114.732 47.927H115.862C115.762 48.547 115.512 49.017 115.112 49.357C114.712 49.697 114.192 49.867 113.552 49.867ZM118.4 45.397V48.267C118.4 48.457 118.43 48.587 118.51 48.657C118.58 48.737 118.71 48.767 118.89 48.767H119.46V49.717H118.53C118.07 49.717 117.73 49.617 117.53 49.417C117.33 49.217 117.23 48.877 117.23 48.417V45.407L116.49 45.437V44.557L117.23 44.587V42.967H118.4V44.587L119.46 44.557V45.437L118.4 45.397ZM120.406 43.737V42.597H121.576V43.737H120.406ZM120.406 49.717V44.557H121.576V49.717H120.406ZM125.244 49.867C124.484 49.867 123.874 49.617 123.394 49.107C122.914 48.607 122.684 47.947 122.684 47.147C122.684 46.347 122.924 45.687 123.404 45.187C123.884 44.687 124.504 44.427 125.264 44.427C126.014 44.427 126.624 44.677 127.104 45.177C127.574 45.677 127.814 46.327 127.814 47.127C127.814 47.927 127.574 48.587 127.094 49.097C126.614 49.617 125.994 49.867 125.244 49.867ZM125.244 48.927C125.684 48.927 126.034 48.767 126.294 48.437C126.544 48.117 126.674 47.677 126.674 47.127C126.674 46.587 126.544 46.157 126.294 45.837C126.034 45.527 125.684 45.367 125.244 45.367C124.804 45.367 124.454 45.527 124.204 45.847C123.954 46.167 123.834 46.607 123.834 47.147C123.834 47.687 123.954 48.127 124.214 48.447C124.464 48.767 124.804 48.927 125.244 48.927ZM131.652 44.427C132.192 44.427 132.612 44.587 132.912 44.897C133.212 45.217 133.372 45.647 133.372 46.197V49.717H132.202V46.447C132.202 45.797 131.902 45.467 131.312 45.467C130.952 45.467 130.662 45.597 130.432 45.837C130.192 46.077 130.082 46.437 130.082 46.907V49.717H128.912V44.557H130.032L130.052 45.277C130.412 44.717 130.942 44.427 131.652 44.427ZM134.791 49.717V48.457H136.191V49.717H134.791Z" fill="black"/>
<path d="M12 260H27" stroke="#CBCAC9" stroke-width="4"/>
<path d="M12 240H27" stroke="#D03F17" stroke-width="4"/>
<path d="M35.41 263.19C34.51 263.19 33.8 262.98 33.29 262.56C32.77 262.14 32.49 261.54 32.45 260.74H33.63C33.69 261.72 34.29 262.2 35.42 262.2C35.92 262.2 36.31 262.11 36.58 261.92C36.84 261.73 36.98 261.46 36.98 261.11C36.98 260.83 36.87 260.6 36.67 260.44C36.47 260.28 36.14 260.14 35.69 260.04L34.53 259.77C33.28 259.49 32.66 258.85 32.66 257.85C32.66 257.24 32.88 256.73 33.33 256.33C33.78 255.93 34.42 255.72 35.25 255.72C36.07 255.72 36.72 255.92 37.22 256.32C37.71 256.72 37.98 257.27 38.04 257.97H36.87C36.82 257.57 36.65 257.26 36.37 257.04C36.09 256.82 35.71 256.71 35.24 256.71C34.8 256.71 34.46 256.81 34.22 256.99C33.97 257.17 33.85 257.42 33.85 257.73C33.85 258.2 34.19 258.51 34.88 258.66L36.22 258.97C37.54 259.28 38.21 259.96 38.21 261.01C38.21 261.67 37.97 262.19 37.49 262.59C37.01 262.99 36.31 263.19 35.41 263.19ZM44.9804 257.84H46.2004L44.5904 263H43.4604L42.7204 260.03L42.5304 259.03L42.3304 260.03L41.5704 263H40.4304L38.8504 257.84H40.0904L40.7804 260.47L41.0504 261.77L41.3104 260.47L41.9704 257.84H43.1004L43.7504 260.46L44.0104 261.76L44.2704 260.47L44.9804 257.84ZM47.1043 257.02V255.88H48.2743V257.02H47.1043ZM47.1043 263V257.84H48.2743V263H47.1043ZM51.1527 258.68V261.55C51.1527 261.74 51.1827 261.87 51.2627 261.94C51.3327 262.02 51.4627 262.05 51.6427 262.05H52.2127V263H51.2827C50.8227 263 50.4827 262.9 50.2827 262.7C50.0827 262.5 49.9827 262.16 49.9827 261.7V258.69L49.2427 258.72V257.84L49.9827 257.87V256.25H51.1527V257.87L52.2127 257.84V258.72L51.1527 258.68ZM55.309 263.15C54.549 263.15 53.959 262.92 53.519 262.44C53.079 261.96 52.869 261.3 52.869 260.45C52.869 259.61 53.089 258.94 53.529 258.45C53.969 257.96 54.569 257.71 55.329 257.71C55.959 257.71 56.479 257.88 56.879 258.2C57.279 258.53 57.519 258.99 57.619 259.59H56.489C56.339 258.97 55.959 258.65 55.349 258.65C54.909 258.65 54.579 258.81 54.359 259.11C54.129 259.42 54.019 259.86 54.019 260.43C54.019 261 54.129 261.44 54.359 261.75C54.589 262.06 54.919 262.21 55.339 262.21C55.959 262.21 56.339 261.88 56.489 261.21H57.619C57.519 261.83 57.269 262.3 56.869 262.64C56.469 262.98 55.949 263.15 55.309 263.15ZM61.4166 257.71C61.9566 257.71 62.3766 257.87 62.6766 258.18C62.9766 258.5 63.1366 258.93 63.1366 259.48V263H61.9666V259.73C61.9666 259.08 61.6666 258.75 61.0766 258.75C60.7166 258.75 60.4266 258.88 60.1966 259.12C59.9566 259.36 59.8466 259.72 59.8466 260.19V263H58.6766V255.88H59.8466V258.51C60.2066 257.98 60.7266 257.71 61.4166 257.71ZM68.6136 258.68V261.55C68.6136 261.74 68.6436 261.87 68.7236 261.94C68.7936 262.02 68.9236 262.05 69.1036 262.05H69.6736V263H68.7436C68.2836 263 67.9436 262.9 67.7436 262.7C67.5436 262.5 67.4436 262.16 67.4436 261.7V258.69L66.7036 258.72V257.84L67.4436 257.87V256.25H68.6136V257.87L69.6736 257.84V258.72L68.6136 258.68ZM72.8899 263.15C72.1299 263.15 71.5199 262.9 71.0399 262.39C70.5599 261.89 70.3299 261.23 70.3299 260.43C70.3299 259.63 70.5699 258.97 71.0499 258.47C71.5299 257.97 72.1499 257.71 72.9099 257.71C73.6599 257.71 74.2699 257.96 74.7499 258.46C75.2199 258.96 75.4599 259.61 75.4599 260.41C75.4599 261.21 75.2199 261.87 74.7399 262.38C74.2599 262.9 73.6399 263.15 72.8899 263.15ZM72.8899 262.21C73.3299 262.21 73.6799 262.05 73.9399 261.72C74.1899 261.4 74.3199 260.96 74.3199 260.41C74.3199 259.87 74.1899 259.44 73.9399 259.12C73.6799 258.81 73.3299 258.65 72.8899 258.65C72.4499 258.65 72.0999 258.81 71.8499 259.13C71.5999 259.45 71.4799 259.89 71.4799 260.43C71.4799 260.97 71.5999 261.41 71.8599 261.73C72.1099 262.05 72.4499 262.21 72.8899 262.21ZM81.8651 263.19C80.9651 263.19 80.2551 262.98 79.7451 262.56C79.2251 262.14 78.9451 261.54 78.9051 260.74H80.0851C80.1451 261.72 80.7451 262.2 81.8751 262.2C82.3751 262.2 82.7651 262.11 83.0351 261.92C83.2951 261.73 83.4351 261.46 83.4351 261.11C83.4351 260.83 83.3251 260.6 83.1251 260.44C82.9251 260.28 82.5951 260.14 82.1451 260.04L80.9851 259.77C79.7351 259.49 79.1151 258.85 79.1151 257.85C79.1151 257.24 79.3351 256.73 79.7851 256.33C80.2351 255.93 80.8751 255.72 81.7051 255.72C82.5251 255.72 83.1751 255.92 83.6751 256.32C84.1651 256.72 84.4351 257.27 84.4951 257.97H83.3251C83.2751 257.57 83.1051 257.26 82.8251 257.04C82.5451 256.82 82.1651 256.71 81.6951 256.71C81.2551 256.71 80.9151 256.81 80.6751 256.99C80.4251 257.17 80.3051 257.42 80.3051 257.73C80.3051 258.2 80.6451 258.51 81.3351 258.66L82.6751 258.97C83.9951 259.28 84.6651 259.96 84.6651 261.01C84.6651 261.67 84.4251 262.19 83.9451 262.59C83.4651 262.99 82.7651 263.19 81.8651 263.19ZM92.4755 263.01H91.0155L90.3755 262.28C89.7555 262.86 89.0455 263.15 88.2255 263.15C87.5055 263.15 86.9155 262.97 86.4755 262.59C86.0255 262.22 85.8055 261.72 85.8055 261.1C85.8055 260.12 86.3555 259.41 87.4655 258.96C86.9455 258.38 86.6955 257.85 86.6955 257.36C86.6955 256.88 86.8655 256.48 87.2255 256.17C87.5855 255.87 88.0355 255.71 88.5955 255.71C89.1555 255.71 89.6255 255.87 89.9855 256.18C90.3455 256.5 90.5255 256.9 90.5255 257.38C90.5255 258.16 90.0555 258.78 89.1155 259.25L90.3955 260.68C90.5555 260.32 90.6555 259.92 90.7155 259.47H91.8355C91.7355 260.23 91.4855 260.9 91.0955 261.46L92.4755 263.01ZM88.6155 256.68C88.3855 256.68 88.1955 256.75 88.0455 256.88C87.8955 257.01 87.8255 257.19 87.8255 257.41C87.8255 257.69 87.9555 257.97 88.2255 258.25L88.4555 258.51C88.7855 258.36 89.0255 258.2 89.1855 258.03C89.3455 257.87 89.4255 257.67 89.4255 257.44C89.4255 257.21 89.3455 257.03 89.1855 256.89C89.0255 256.75 88.8355 256.68 88.6155 256.68ZM88.3155 262.16C88.8555 262.16 89.3255 261.96 89.7255 261.54L88.1255 259.7C87.3555 260.02 86.9755 260.47 86.9755 261.04C86.9755 261.37 87.0855 261.64 87.3255 261.85C87.5655 262.06 87.8955 262.16 88.3155 262.16ZM96.3038 255.88C97.0438 255.88 97.6238 256.07 98.0438 256.45C98.4638 256.83 98.6838 257.36 98.6838 258.05C98.6838 258.77 98.4638 259.32 98.0338 259.7C97.6038 260.09 97.0038 260.28 96.2238 260.28H94.6338V263H93.4238V255.88H96.3038ZM96.1638 259.25C96.5838 259.25 96.9138 259.15 97.1538 258.94C97.3838 258.74 97.5038 258.44 97.5038 258.06C97.5038 257.69 97.3838 257.41 97.1538 257.21C96.9238 257.01 96.6138 256.91 96.2238 256.91H94.6338V259.25H96.1638ZM104.77 263.16C104.05 263.16 103.47 262.98 103.01 262.62C102.55 262.26 102.28 261.75 102.2 261.11L103.39 261.05C103.45 261.41 103.61 261.68 103.86 261.86C104.11 262.05 104.42 262.14 104.79 262.14C105.23 262.14 105.57 262.01 105.83 261.75C106.08 261.49 106.21 261.13 106.21 260.69C106.21 260.26 106.08 259.91 105.83 259.65C105.57 259.39 105.22 259.25 104.77 259.25C104.29 259.25 103.88 259.43 103.55 259.78L102.39 259.67L103.08 255.88H107V256.95H103.96L103.65 258.66L103.67 258.67C104.09 258.39 104.57 258.24 105.09 258.24C105.79 258.24 106.35 258.47 106.78 258.91C107.21 259.36 107.43 259.94 107.43 260.65C107.43 261.39 107.19 262 106.71 262.46C106.23 262.93 105.58 263.16 104.77 263.16ZM111.324 263.14C110.444 263.14 109.774 262.83 109.314 262.19C108.854 261.56 108.634 260.64 108.634 259.42C108.634 258.22 108.864 257.3 109.324 256.68C109.784 256.06 110.454 255.74 111.334 255.74C112.204 255.74 112.864 256.06 113.324 256.68C113.784 257.3 114.014 258.22 114.014 259.42C114.014 260.64 113.784 261.56 113.324 262.19C112.864 262.83 112.194 263.14 111.324 263.14ZM111.334 262.11C111.834 262.11 112.194 261.9 112.434 261.47C112.664 261.04 112.784 260.36 112.784 259.43C112.784 258.51 112.664 257.84 112.424 257.41C112.184 256.99 111.824 256.77 111.324 256.77C110.824 256.77 110.454 256.99 110.214 257.41C109.974 257.84 109.864 258.51 109.864 259.43C109.864 260.36 109.984 261.04 110.224 261.47C110.464 261.9 110.834 262.11 111.334 262.11ZM117.828 263.14C116.948 263.14 116.278 262.83 115.818 262.19C115.358 261.56 115.138 260.64 115.138 259.42C115.138 258.22 115.368 257.3 115.828 256.68C116.288 256.06 116.958 255.74 117.838 255.74C118.708 255.74 119.368 256.06 119.828 256.68C120.288 257.3 120.518 258.22 120.518 259.42C120.518 260.64 120.288 261.56 119.828 262.19C119.368 262.83 118.698 263.14 117.828 263.14ZM117.838 262.11C118.338 262.11 118.698 261.9 118.938 261.47C119.168 261.04 119.288 260.36 119.288 259.43C119.288 258.51 119.168 257.84 118.928 257.41C118.688 256.99 118.328 256.77 117.828 256.77C117.328 256.77 116.958 256.99 116.718 257.41C116.478 257.84 116.368 258.51 116.368 259.43C116.368 260.36 116.488 261.04 116.728 261.47C116.968 261.9 117.338 262.11 117.838 262.11Z" fill="#161717"/>
<path d="M37.59 243L36.97 241.22H34.19L33.56 243H32.27L34.91 235.88H36.3L38.9 243H37.59ZM34.55 240.2H36.62L36.01 238.43L35.59 237.03L35.17 238.43L34.55 240.2ZM42.9377 243.2C41.9577 243.2 41.1677 242.86 40.5677 242.16C39.9677 241.47 39.6677 240.56 39.6677 239.44C39.6677 238.33 39.9677 237.43 40.5677 236.75C41.1677 236.07 41.9577 235.73 42.9377 235.73C43.7477 235.73 44.4277 235.95 44.9677 236.39C45.5077 236.83 45.8177 237.41 45.9077 238.14H44.7277C44.6277 237.72 44.4377 237.39 44.1377 237.15C43.8377 236.91 43.4577 236.79 42.9977 236.79C42.3377 236.79 41.8177 237.03 41.4477 237.51C41.0677 237.99 40.8877 238.63 40.8877 239.44C40.8877 240.27 41.0677 240.93 41.4477 241.41C41.8177 241.9 42.3377 242.14 42.9977 242.14C43.4977 242.14 43.9077 242 44.2077 241.72C44.5077 241.44 44.6977 241.04 44.7777 240.54H45.9477C45.8577 241.38 45.5477 242.03 45.0177 242.5C44.4777 242.97 43.7877 243.2 42.9377 243.2ZM52.3569 235.88H54.0669V243H52.9469V239.33L53.0469 236.95L52.5469 238.64L51.1869 243H49.9769L48.5369 238.53L48.0569 236.91L48.1569 239.33V243H47.0469V235.88H48.7469L50.3069 240.68L50.5769 241.75L50.8469 240.68L52.3569 235.88ZM56.7725 241.97H60.7625V243H55.5625V235.88H60.6725V236.91H56.7725V238.8H60.3225V239.84H56.7725V241.97Z" fill="#161717"/>
<defs>
<filter id="filter0_d_9967_21617" x="18" y="0" width="189.001" height="66.3773" filterUnits="userSpaceOnUse" color-interpolation-filters="sRGB">
<feFlood flood-opacity="0" result="BackgroundImageFix"/>
<feColorMatrix in="SourceAlpha" type="matrix" values="0 0 0 0 0 0 0 0 0 0 0 0 0 0 0 0 0 0 127 0" result="hardAlpha"/>
<feOffset dy="2"/>
<feGaussianBlur stdDeviation="1.5"/>
<feColorMatrix type="matrix" values="0 0 0 0 0.796078 0 0 0 0 0.792157 0 0 0 0 0.788235 0 0 0 0.5 0"/>
<feBlend mode="normal" in2="BackgroundImageFix" result="effect1_dropShadow_9967_21617"/>
<feBlend mode="normal" in="SourceGraphic" in2="effect1_dropShadow_9967_21617" result="shape"/>
</filter>
</defs>
</svg>
