<svg width="78" height="73" viewBox="0 0 78 73" fill="none" xmlns="http://www.w3.org/2000/svg">
<path d="M15.4299 0.391953C11.8553 0.391953 5.85506 2.95553 3.30176 4.23729C4.57841 10.0053 32.6647 9.8771 40.3246 9.36438C47.9844 8.85166 70.9641 8.72346 74.7941 4.23729C72.8791 3.38273 68.5385 1.6737 66.4959 1.6737C63.9425 1.6737 53.7294 0.391953 49.2611 0.391953C44.7928 0.391953 34.5797 1.6737 31.388 1.6737C28.1964 1.6737 19.8982 0.391953 15.4299 0.391953Z" fill="#BBBBB9"/>
<path d="M2.83526 3.92944C2.19693 4.14112 0.792621 4.94524 0.281962 6.46883C-0.228698 7.99241 0.0691869 10.0661 0.281962 10.9126C0.281962 10.9126 14.3249 66.9895 15.6016 68.0475C23.0372 74.2099 54.7636 74.2099 62.1992 68.0475C63.4759 66.9895 77.5188 10.9126 77.5188 10.9126C77.7316 10.0661 78.0296 7.99241 77.5188 6.46883C77.0081 4.94524 75.6038 4.14112 74.9655 3.92944C63.7176 7.65833 50.4381 6.83361 38.9004 7.11155C27.3626 6.83361 14.0831 7.65833 2.83526 3.92944Z" fill="#E3E3E3"/>
</svg>
