<svg viewBox="0 0 90 90" fill="none" xmlns="http://www.w3.org/2000/svg">
<circle cx="45" cy="45" r="45" fill="white" fill-opacity="0.9"/>
<path d="M60.3599 21.28C60.3599 22.07 60.9299 22.6 61.2399 23.28C61.409 23.303 61.5811 23.2823 61.7399 23.22C61.8635 22.5609 61.8971 21.8881 61.8399 21.22C61.6224 19.3871 60.714 17.7062 59.2999 16.52C59.2144 16.4496 59.146 16.3607 59.0999 16.26C59.0199 16.07 58.6299 15.93 59.0299 15.64C59.2599 15.48 59.3499 15.59 59.5399 15.64C60.4513 16.0724 61.1657 16.8332 61.5399 17.77C62.0526 18.8991 62.5066 20.0539 62.8999 21.23C63.1024 22.0198 63.0063 22.8566 62.6299 23.58C61.9699 24.58 62.4999 24.96 63.0199 25.65C63.7126 26.6253 64.0577 27.8051 63.9999 29C63.9999 29.64 63.8499 30.27 63.7899 30.91C63.8129 31.9226 63.4922 32.9131 62.8799 33.72C62.7299 33.88 62.7699 34.22 62.7299 34.48L62.4599 34.57L62.5799 34.7L62.7099 34.46C62.9099 34.6 63.2699 34.75 63.2699 34.87C63.2699 35.58 63.0999 36.29 62.9799 37.1C63.1399 37.1 63.4499 37.17 63.7599 37.19C64.0183 37.2106 64.2608 37.3225 64.4441 37.5058C64.6274 37.689 64.7393 37.9316 64.7599 38.19C64.7599 39.4 65.3699 40.62 64.7599 41.82C64.6918 41.9666 64.6675 42.1298 64.6899 42.29C65.0299 44.59 64.3199 46.82 64.1899 49.08C64.1751 49.5823 64.0381 50.0734 63.7907 50.5108C63.5432 50.9482 63.1928 51.3186 62.7699 51.59C62.585 51.7032 62.4139 51.8374 62.2599 51.99C61.9216 52.3662 61.4578 52.6063 60.9553 52.6652C60.4528 52.7241 59.946 52.5978 59.5299 52.31C58.8499 51.97 58.8099 52 58.4699 52.68C58.3112 52.9935 58.2064 53.3316 58.1599 53.68C57.9089 55.156 57.7419 56.645 57.6599 58.14C57.6747 59.5629 57.6046 60.9854 57.4499 62.4C57.4389 62.5457 57.4701 62.6915 57.5399 62.82C58.4199 62.82 58.6299 63.75 59.2699 64.11C60.9504 65.1708 62.5155 66.4041 63.9399 67.79C64.1043 67.9617 64.3037 68.0961 64.5245 68.184C64.7453 68.272 64.9825 68.3116 65.2199 68.3C67.8999 68.0921 70.5904 68.5382 73.0599 69.6C73.1601 69.6215 73.2511 69.674 73.3199 69.75L74.4899 71.35C74.1599 71.59 73.6599 71.77 73.4899 72.13C73.3147 72.5781 73.2462 73.0608 73.2899 73.54C73.2763 74.0353 73.1536 74.5215 72.9307 74.964C72.7077 75.4065 72.3899 75.7943 71.9999 76.1C71.2688 76.6901 70.6865 77.4437 70.2999 78.3C70.0365 78.86 69.6293 79.3401 69.1199 79.6914C68.6104 80.0428 68.0169 80.2527 67.3999 80.3C65.7563 80.5227 64.1363 80.8942 62.5599 81.41C61.7431 81.645 60.8767 81.645 60.0599 81.41C59.5519 81.3252 59.0717 81.1194 58.6599 80.81C58.4261 80.4705 58.3166 80.0608 58.3499 79.65C58.106 77.5258 58.0025 75.3878 58.0399 73.25C58.1999 71.33 58.1199 69.38 58.1099 67.44C58.1099 67.05 57.7399 66.65 57.4299 66.28C57.1443 67.0258 57.0784 67.8378 57.2399 68.62C57.31 68.8207 57.31 69.0392 57.2399 69.24C56.7599 70.49 56.6399 71.85 55.6599 72.93C54.6778 74.0201 53.6039 75.0238 52.4499 75.93C51.3199 76.82 50.2099 77.75 48.9899 78.74L50.2899 79.46L51.6699 80.16L51.1299 81.02C50.3247 80.4864 49.3619 80.2431 48.3999 80.33C47.5357 80.2871 46.7022 79.9954 45.9999 79.49C45.5588 79.2156 45.0705 79.0258 44.5599 78.93C43.3652 78.7844 42.2103 78.4074 41.1599 77.82C39.4755 76.9775 37.8427 76.0359 36.2699 75C34.4073 73.8234 32.7235 72.3854 31.2699 70.73C30.9021 70.3559 30.4966 70.0208 30.0599 69.73L29.9999 69.52L29.8699 69.62L30.0999 69.75C29.7899 70.94 30.3099 72.02 30.5699 73.12C30.8299 74.22 31.2899 75.28 31.6599 76.36C31.7799 76.71 31.9399 77.04 32.0699 77.36C32.2599 77.86 32.5599 78.45 32.1499 78.85C31.943 79.0597 31.6767 79.2009 31.387 79.2545C31.0974 79.3082 30.7982 79.2717 30.5299 79.15C28.9899 78.42 27.2999 78.59 25.6999 78.27C25.0899 78.15 24.4999 77.92 23.8999 77.74C22.9237 77.3068 21.8764 77.056 20.8099 77C20.3399 77 19.8099 76.57 19.2099 76.89C18.1199 76.4 16.8399 76.51 15.7899 75.89C15.4799 75.7 15.4399 75.5 15.6499 75.26C15.9865 74.8553 16.3471 74.4713 16.7299 74.11C18.4175 72.7426 20.2325 71.5404 22.1499 70.52C22.8199 70.12 23.5399 69.79 24.1999 69.36C24.5319 69.108 24.828 68.812 25.0799 68.48C26.2399 67.19 27.3799 65.89 28.6399 64.48C27.9099 63.34 27.0499 62.03 26.2199 60.71C25.4987 59.5594 25.0221 58.2727 24.8199 56.93C24.6799 56.02 24.7099 55.98 23.8199 55.83C23.38 55.7622 22.9665 55.5768 22.6232 55.2934C22.28 55.01 22.0197 54.6391 21.8699 54.22C21.4138 52.8487 21.0792 51.4399 20.8699 50.01C20.4987 48.8198 20.2868 47.5858 20.2399 46.34C20.2399 45.92 19.8499 45.5 19.7099 45.05C19.3299 43.89 18.6599 42.76 19.5199 41.49C19.8199 41.04 19.6499 40.38 20.0499 39.86C20.2036 39.5533 20.4519 39.3042 20.7579 39.1494C21.064 38.9945 21.4118 38.9422 21.7499 39L21.8399 39.28L21.9899 39.16L21.7299 39C21.5499 38.46 21.3299 37.94 21.1899 37.39C20.9785 36.8072 20.8801 36.1896 20.8999 35.57C21.1045 33.9514 20.7518 32.3113 19.8999 30.92C19.4029 29.799 19.0986 28.6022 18.9999 27.38C18.9778 27.1066 19.0237 26.832 19.1337 26.5807C19.2436 26.3294 19.4141 26.1093 19.6299 25.94C19.6999 26.68 19.7799 27.45 19.8199 28.22C20.0133 29.9788 20.7711 31.6278 21.9799 32.92C22.2143 33.1276 22.3982 33.3859 22.5178 33.6753C22.6373 33.9647 22.6894 34.2775 22.6699 34.59C22.6836 35.0745 22.8402 35.5441 23.1199 35.94L23.4499 33.15H23.7299C23.8501 33.4724 23.9307 33.8082 23.9699 34.15C23.9699 34.79 23.7499 35.43 23.7799 36.06C23.6765 37.5168 23.7133 38.9802 23.8899 40.43C23.948 40.6809 24.0215 40.928 24.1099 41.17C24.6399 42.46 24.3699 43.85 24.5999 45.17C24.5913 45.4278 24.488 45.6734 24.3099 45.86C24.0699 46.15 23.7599 46.2 23.5299 45.86C23.1954 45.3827 23.0494 44.7985 23.1199 44.22C23.2355 43.1856 23.1437 42.1385 22.8499 41.14C22.7799 40.84 22.7599 40.43 22.5599 40.29C22.1229 40.0243 21.652 39.8191 21.1599 39.68C21.0855 39.6784 21.0117 39.6938 20.9441 39.725C20.8765 39.7561 20.817 39.8023 20.7699 39.86C20.5677 40.17 20.4095 40.5065 20.2999 40.86C20.1999 41.21 20.2399 41.61 20.1499 41.97C19.9247 42.8942 20.0682 43.8697 20.5499 44.69C21.0699 45.69 21.5499 46.69 21.9499 47.69C22.0131 48.0766 22.0299 48.4694 21.9999 48.86L22.4599 47.86C22.6799 48.52 22.8799 49.08 23.0399 49.65C23.0399 49.77 22.9499 49.94 22.8999 50.09L22.3899 49.82L22.3099 49.55L22.1699 49.66L22.4099 49.8C22.1895 51.3632 22.4365 52.9568 23.1199 54.38C23.2299 54.68 23.3399 54.88 23.6399 54.7C23.9399 54.52 24.1199 54.32 24.1099 54.15C24.0099 53.15 23.8399 52.21 23.6799 51.25C23.5199 50.29 23.3599 49.63 23.2499 48.81C23.2499 48.68 23.4099 48.52 23.4999 48.37C23.6145 48.5061 23.715 48.6535 23.7999 48.81C23.8501 48.9962 23.8803 49.1873 23.8899 49.38C23.9596 49.215 24.0397 49.0547 24.1299 48.9C24.2299 48.75 24.3599 48.61 24.4699 48.47C24.5699 48.62 24.7199 48.76 24.7399 48.92C24.7527 49.1313 24.7359 49.3433 24.6899 49.55L24.5699 50.55C24.5699 50.92 24.4999 51.29 24.4499 51.67C24.3699 52.3 25.0599 51.59 24.9999 51.95C24.9662 53.0752 25.013 54.2014 25.1399 55.32C25.1399 55.75 25.1399 55.96 25.6199 55.89C25.6799 55.89 25.8399 56.01 25.8399 56.09C25.8999 56.71 25.9499 57.34 25.9599 57.96C25.9699 58.58 26.2199 58.17 26.4399 58.16C26.5269 58.1706 26.6099 58.2027 26.6814 58.2533C26.753 58.3039 26.8109 58.3715 26.8499 58.45C26.9664 58.7955 27.0337 59.1557 27.0499 59.52C27.0499 60.25 26.9399 60.95 27.9399 61.25C28.2099 61.34 28.2699 62.07 28.4799 62.49C28.5399 62.62 28.7599 62.67 28.9099 62.76L29.1599 62.24C29.6614 63.0549 30.1058 63.9036 30.4899 64.78C30.7483 65.4678 31.2263 66.0513 31.8499 66.44C32.8608 67.1612 33.9089 67.8287 34.9899 68.44C35.8838 68.8412 36.8064 69.1755 37.7499 69.44C38.1537 69.6588 38.6057 69.7734 39.0649 69.7734C39.5241 69.7734 39.9761 69.6588 40.3799 69.44C40.6199 69.36 40.8999 69.16 41.1099 69.22C41.5756 69.3114 42.0547 69.3099 42.5198 69.2155C42.9849 69.1212 43.4267 68.9357 43.8199 68.67C43.9899 68.58 43.9999 68.6 44.0399 69.22L43.7699 69.29L43.8799 69.44L44.0199 69.19C44.6899 69.07 44.9599 68.51 45.3399 68.06C45.7199 67.61 45.9299 67.55 46.0999 68.17L45.8499 68.25L45.9499 68.38L46.0899 68.15C48.0134 67.2072 49.632 65.7411 50.7599 63.92L50.6699 65.16L50.4099 65.23L50.5099 65.35L50.6399 65.12C50.94 64.8068 51.2174 64.4727 51.4699 64.12C51.6699 63.77 51.6799 63.29 51.9299 62.99C52.1799 62.69 52.6199 63.21 52.8499 62.75C53.3999 61.65 54.3099 60.75 54.5999 59.49C54.8516 58.544 55.2141 57.631 55.6799 56.77C56.7756 54.8641 57.422 52.7334 57.5699 50.54C57.596 50.0072 57.673 49.4781 57.7999 48.96C57.7999 48.73 58.0699 48.54 58.3599 48.12C58.4699 48.85 58.7199 49.41 58.5699 49.81C58.2399 50.68 58.7099 51.05 59.2799 51.41C60.9699 52.41 62.2799 51.62 62.7799 49.91C63.6799 47.06 63.7799 44.07 64.1899 41.12C64.2109 40.3889 64.031 39.666 63.6699 39.03C63.6177 38.789 63.4938 38.5695 63.3144 38.4004C63.135 38.2313 62.9086 38.1205 62.665 38.0826C62.4214 38.0447 62.1721 38.0815 61.9498 38.1881C61.7275 38.2948 61.5428 38.4663 61.4199 38.68C61.0486 39.1276 60.5553 39.4576 59.9999 39.63C59.9199 39.63 59.7399 39.63 59.7199 39.57C59.6999 39.51 59.5999 39.24 59.6599 39.15C59.9899 38.69 60.3599 38.25 60.7199 37.81L61.0799 37.53C62.4999 37 62.4999 37 62.4799 35.3C62.0599 35.86 61.5699 36.47 61.1199 37.09C61.0399 37.2 61.1199 37.4 61.0499 37.55L60.6899 37.84C60.4797 37.8213 60.2719 37.781 60.0699 37.72C59.7699 37.6 59.6399 37.03 59.8599 36.97C61.0499 36.65 61.1999 35.55 61.4999 34.68C62.0499 33.02 62.8899 31.44 62.9699 29.62C63.1135 28.5489 62.9469 27.4592 62.4899 26.48L62.1499 31.28C61.9227 30.9938 61.7648 30.6589 61.6885 30.3015C61.6121 29.9442 61.6195 29.574 61.7099 29.22C61.812 28.8468 61.8345 28.4563 61.7759 28.0738C61.7173 27.6914 61.579 27.3255 61.3699 27C61.0099 26.51 61.0699 25.72 60.8999 25.07C60.5499 23.74 60.4599 22.27 59.1599 21.37C59.1353 21.3274 59.1224 21.2791 59.1224 21.23C59.1224 21.1808 59.1353 21.1325 59.1599 21.09C59.2723 20.9981 59.415 20.9517 59.5599 20.96C59.8461 21.0764 60.1235 21.2134 60.3899 21.37L60.3599 21.28ZM33.2099 70.47L33.1299 70.21L32.9999 70.32L33.2299 70.45L33.2899 70.73L33.4599 70.61L33.2099 70.47ZM36.6999 71.21L36.4299 71.28L36.5499 71.43L36.6799 71.18L36.9499 71.11L36.8399 71L36.6999 71.21ZM30.1499 66.21L30.0799 66L29.9499 66.1L30.1799 66.23C30.1561 66.3286 30.1561 66.4314 30.1799 66.53C30.2278 66.6299 30.292 66.7211 30.3699 66.8C30.3699 66.71 30.5099 66.59 30.4799 66.53C30.3818 66.4176 30.2711 66.317 30.1499 66.23V66.21ZM38.8699 74.66L38.9399 74.91L39.0799 74.8L38.8499 74.67L39.4099 74.11L39.6399 74.73C40.1899 74.2 40.7499 73.73 41.2299 73.18C41.8499 72.48 42.4299 71.75 42.9799 70.99C43.0724 70.875 43.1383 70.7409 43.1729 70.5974C43.2075 70.4539 43.2099 70.3045 43.1799 70.16C42.9499 69.77 42.5599 69.97 42.1799 70.11C41.9053 70.2144 41.666 70.3947 41.4899 70.63C40.6984 71.7349 39.6999 72.6756 38.5499 73.4C38.3099 73.52 38.2199 73.95 38.0599 74.24L38.8699 74.66ZM40.0199 75.5C41.5494 76.894 43.4685 77.7873 45.5199 78.06C45.7713 78.1157 46.0114 78.2137 46.2299 78.35C47.2299 78.86 47.3999 78.81 48.2299 78.02C48.5765 77.6273 48.9812 77.2901 49.4299 77.02C51.2012 75.9493 52.825 74.6516 54.2599 73.16C55.0857 72.3661 55.7481 71.4183 56.2099 70.37C55.8499 69.37 56.2999 68.37 56.2099 67.37C56.0582 65.4351 56.0816 63.4906 56.2799 61.56C56.4299 60.3 56.5699 59.04 56.7199 57.78C55.5523 59.5564 54.4775 61.3922 53.4999 63.28C53.0925 64.188 52.4715 64.9839 51.6899 65.6C51.2899 65.9 50.9199 66.23 50.5899 66.5C50.6799 66.81 51.3099 66.7 50.8499 67.1C50.7199 67.22 50.3499 67.33 50.3099 67.27C49.9399 66.78 49.6299 66.96 49.2299 67.27C48.6399 67.69 47.9699 68.03 47.3899 68.47C47.1699 68.63 46.9199 69.07 46.9899 69.24C47.0997 69.555 47.1387 69.8904 47.1042 70.2223C47.0696 70.5541 46.9623 70.8743 46.7899 71.16C46.6688 71.8251 46.3987 72.4541 45.9999 73C45.2399 73.74 44.4499 74.43 43.6399 75.12C43.5499 75.2 43.2899 75.12 43.1099 75.06C43.1099 74.92 43.1099 74.71 43.2399 74.64C44.0355 74.0391 44.7135 73.2967 45.2399 72.45C45.9431 71.6138 46.3007 70.5408 46.2399 69.45C45.9725 69.5714 45.6947 69.6684 45.4099 69.74C45.069 69.7876 44.7509 69.9387 44.4987 70.173C44.2465 70.4074 44.0724 70.7135 43.9999 71.05C43.6814 71.8821 43.1462 72.614 42.4499 73.17C41.5345 73.8435 40.7109 74.6335 39.9999 75.52L40.0199 75.5ZM40.7399 70.35C40.4569 70.3299 40.1729 70.3299 39.8899 70.35C38.4299 70.57 37.6499 71.79 36.6099 72.63C36.5399 72.63 36.6099 73.03 36.6999 73.13C36.8929 73.2648 37.1053 73.3693 37.3299 73.44C37.3299 72.81 37.8699 73.28 38.1199 72.99C38.8799 72.1 39.7599 71.33 40.7399 70.37V70.35ZM33.6699 71.28L34.1199 71.53C34.8699 71.97 34.9399 71.96 35.3599 71.39C35.4934 71.2322 35.6107 71.0613 35.7099 70.88C35.9499 70.44 35.8699 69.82 35.5899 69.79C35.0699 69.73 35.3299 70.28 35.1399 70.43C34.6687 70.7506 34.1777 71.0412 33.6699 71.3V71.28ZM32.2499 69.68L32.5599 68.82C32.5599 68.71 32.6199 68.59 32.6499 68.48C32.5099 68.48 32.3399 68.42 32.2399 68.48C31.6899 68.8 31.6899 69 32.2499 69.7V69.68ZM21.7499 35.55C21.4499 36.46 21.4499 36.46 21.9899 37.29L21.7499 35.55ZM34.6299 69.69C34.2099 69.43 34.0699 69.26 33.9399 69.27C33.7328 69.3117 33.5337 69.3859 33.3499 69.49C33.4699 69.62 33.5599 69.83 33.6899 69.85C34.0092 69.8409 34.3256 69.7871 34.6299 69.69V69.69ZM31.2099 67.29C31.0999 67.42 30.9699 67.5 30.9799 67.56C31.0299 67.85 30.3599 67.95 30.7799 68.32L31.0199 68.52C31.2256 68.3111 31.3977 68.0716 31.5299 67.81C31.5699 67.69 31.3299 67.48 31.2099 67.29V67.29ZM22.9999 37.5C22.9999 37.5 23.0999 37.5 23.0999 37.44C23.0999 37.21 23.1499 36.97 23.1699 36.73H23.0899C23.0117 36.9078 22.9482 37.0918 22.8999 37.28C22.9299 37.31 22.9999 37.41 22.9999 37.5ZM35.7999 72.18C35.7999 72.18 35.7399 72.12 35.7099 72.12C35.6672 72.1372 35.6294 72.1647 35.5999 72.2L35.7799 72.28L35.7999 72.18ZM37.2299 70.35L37.1199 70.44H37.3199L37.2299 70.35ZM21.9999 37.84C21.9999 37.84 21.9299 37.91 21.9299 37.94C21.9299 37.97 21.9899 38.02 22.0199 38.07L22.0999 37.85L21.9999 37.84ZM61.7499 25.48L61.6799 25.38L61.5699 25.45L61.6899 25.57L61.7499 25.48ZM61.5399 24.48L61.4699 24.37L61.3699 24.45L61.4899 24.56L61.5399 24.48Z" fill="#171717"/>
<path d="M33.3397 10.9999C34.3542 10.1742 35.519 9.55278 36.7697 9.16995C35.4859 9.08887 34.1998 9.28674 32.9997 9.74995C31.6823 10.1627 30.4985 10.9186 29.5697 11.9399C30.1297 11.7999 30.3997 11.7499 30.6597 11.6599C31.0882 11.4628 31.5378 11.3152 31.9997 11.2199C32.4606 11.2431 32.9155 11.334 33.3497 11.4899C33.3497 12.2299 32.6297 12.0299 32.2597 12.1099C29.5197 12.6999 27.7997 14.5599 26.4097 16.7799C26.1064 17.3462 26.0109 18.0007 26.1397 18.6299C26.2197 19.0599 26.8097 19.3899 27.1397 19.7599C25.9497 20.5399 25.2997 20.0499 25.0197 18.1199C23.3933 19.1933 21.9711 20.5478 20.8197 22.1199C20.1979 22.9044 19.847 23.8693 19.8197 24.8699C19.8197 24.9699 19.6397 25.0699 19.5497 25.1799C19.4397 25.0399 19.2497 24.8999 19.2397 24.7499C19.1397 22.7499 20.2397 21.2699 21.3797 19.8199C22.1283 18.7246 23.2526 17.9418 24.5397 17.6199C24.9397 17.5499 25.1997 17.6199 25.3497 17.0399C25.6524 15.9833 26.1 14.9737 26.6797 14.0399C27.0024 13.5659 27.4633 13.2027 27.9997 12.9999C28.2268 12.912 28.4331 12.7777 28.6052 12.6055C28.7774 12.4333 28.9118 12.227 28.9997 11.9999C29.4193 11.2125 30.0147 10.5323 30.7395 10.012C31.4644 9.49176 32.2994 9.14546 33.1797 8.99995C33.8797 8.81995 34.6097 8.75995 35.2997 8.56995C35.6384 8.43435 36.0043 8.38088 36.3676 8.41391C36.7308 8.44693 37.0811 8.56551 37.3897 8.75995C38.1097 9.25995 38.8997 8.55995 39.6897 8.75995C40.0697 8.83995 40.5097 8.62995 40.9097 8.65995C42.2742 8.7163 43.6409 8.6762 44.9997 8.53995C46.2648 8.51436 47.514 8.82492 48.6197 9.43995C49.3497 9.80995 50.1097 10.1299 50.8697 10.4399C51.0297 10.4999 51.2597 10.3699 51.4597 10.3199C52.4502 10.0848 53.4827 10.092 54.4698 10.341C55.4568 10.5899 56.3693 11.0732 57.1297 11.7499C57.8464 12.1965 58.4793 12.765 58.9997 13.4299C59.1097 13.6099 59.3197 13.7999 59.3097 13.9699C59.3097 14.3099 59.1997 14.8099 58.9797 14.9199C58.7597 15.0299 58.3897 14.8299 58.2397 14.3799C58.0899 13.8502 57.7903 13.3751 57.377 13.0114C56.9637 12.6478 56.4542 12.4112 55.9097 12.3299C54.9097 12.1299 53.9097 11.7599 52.8197 11.4199C52.8997 11.7099 52.9597 11.9299 53.0297 12.1499C53.0997 12.3699 53.1897 12.6399 53.3197 13.0699C53.0742 12.9716 52.845 12.8367 52.6397 12.6699C51.9759 11.8286 51.0444 11.2393 49.9997 10.9999C49.4127 10.8072 48.8438 10.5629 48.2997 10.2699C46.7827 9.64743 45.1595 9.32481 43.5197 9.31995C42.3872 9.36437 41.2584 9.47792 40.1397 9.65995C39.4709 9.66688 38.803 9.71363 38.1397 9.79995C36.7998 9.97404 35.5004 10.3801 34.2997 10.9999C34.1197 11.1099 33.8197 10.9999 33.3397 10.9999Z" fill="#171717"/>
<path d="M39.47 20.4499C39.3 20.3499 39.1 20.1399 38.96 20.1799C38.453 20.2663 37.9675 20.4497 37.53 20.7199C36.13 21.7799 34.66 21.0299 33.22 20.9699C33.1422 20.9513 33.0696 20.9156 33.0074 20.8654C32.9451 20.8153 32.8948 20.7519 32.86 20.6799C32.8109 20.494 32.7873 20.3022 32.79 20.1099C32.9329 20.095 33.077 20.095 33.22 20.1099C33.4782 20.0827 33.7221 19.9781 33.92 19.8099C34.92 18.8799 35.62 17.5499 37.03 16.9599C37.79 16.6399 38.35 15.8499 39.1 15.4599C40.5146 14.6858 42.0336 14.1199 43.61 13.7799C45.3738 13.493 47.1743 13.5167 48.93 13.8499C49.15 13.8499 49.33 14.1499 49.85 14.5699L48 14.3199C44.432 13.9122 40.8455 14.9092 38 17.0999C36.8725 17.7769 35.8401 18.6008 34.93 19.5499C34.8394 19.7167 34.7721 19.895 34.73 20.0799C34.9167 20.1666 35.1157 20.224 35.32 20.2499C36.6427 20.2039 37.9024 19.6736 38.86 18.7599C39.1321 18.5029 39.4304 18.275 39.75 18.0799C39.75 18.0799 40.03 18.1299 40.04 18.1799C40.04 18.6499 40.31 18.6499 40.68 18.4899C41.3 18.2299 41.94 18.0199 42.58 17.7999C44.0926 17.2208 45.7151 16.9852 47.33 17.1099C48.1082 17.0351 48.8918 17.0351 49.67 17.1099C51.41 17.6099 53.28 17.7099 54.89 18.6599C55.415 18.9777 55.9193 19.3284 56.4 19.7099C56.61 19.8699 57.17 19.9199 56.84 20.3399C56.72 20.4899 56.23 20.4599 55.95 20.3399C55.562 20.1954 55.19 20.0111 54.84 19.7899C52.6943 18.7969 50.364 18.2655 48 18.2299C47.4822 18.2098 46.9641 18.2603 46.46 18.3799C46.2039 18.4404 45.9773 18.5891 45.82 18.7999C44.7553 20.1155 43.2917 21.0491 41.65 21.4599C41.32 21.5699 40.79 21.6599 40.65 21.4599C40.09 20.9399 39.76 21.3099 39.28 21.5499C37.9541 22.2911 36.5033 22.7826 35 22.9999C33.96 23.1178 32.9153 22.8234 32.09 22.1799C31.97 22.0999 32 21.8199 31.96 21.6299C32.11 21.6299 32.33 21.5399 32.39 21.6299C33.33 22.6299 34.57 22.3899 35.61 22.2199C37.0581 22.0627 38.4178 21.4459 39.49 20.4599C40.4622 20.3834 41.3938 20.0371 42.18 19.4599L42.76 19.4099C42.76 19.3499 42.63 19.2199 42.62 19.2299L42.2 19.4899C41.7018 19.4313 41.1969 19.4873 40.7237 19.6537C40.2506 19.8201 39.8217 20.0924 39.47 20.4499V20.4499ZM42.74 20.1899C42.47 20.1899 42.16 19.9999 42.06 20.4299C41.8 20.4299 41.49 20.2599 41.39 20.6799L41.13 20.7499L41.23 20.8799L41.36 20.6399C41.61 20.6399 41.96 20.8899 42.04 20.4099C42.3 20.4099 42.62 20.6199 42.72 20.1699L43.08 19.8899C43.98 19.9699 44.46 19.2099 45.14 18.8399L45.41 18.7599L45.29 18.6199L45.16 18.8599C44.7 18.8599 44.23 18.9099 43.77 18.9099C43.05 18.9099 43.13 19.4499 43.09 19.9099L42.74 20.1899Z" fill="#171717"/>
<path d="M47.0001 34.5199C48.4101 35.0199 49.7001 35.2599 50.5201 36.4699C51.0432 37.1252 51.6077 37.7465 52.2101 38.3299C52.4287 38.5585 52.6018 38.8266 52.7201 39.1199C52.7801 39.2699 52.6401 39.5199 52.5301 39.6799C52.4201 39.8399 52.2401 39.6799 52.1201 39.5999C51.5085 39.3092 50.9398 38.9357 50.4301 38.4899C49.1101 37.0499 47.4301 37.1299 45.7601 37.2499C44.7046 37.2859 43.6743 37.5812 42.7601 38.1099C41.7601 38.6799 40.9701 38.1899 40.8301 37.0399C40.8365 36.9504 40.8656 36.864 40.9146 36.7888C40.9635 36.7135 41.0308 36.652 41.1101 36.6099C41.7801 36.3299 42.4801 36.1199 43.1101 35.8599C43.7401 35.5999 44.6401 35.1899 45.4201 34.8599C45.9396 34.7154 46.4672 34.6019 47.0001 34.5199Z" fill="#171717"/>
<path d="M57.76 43.2799C57.95 43.4199 58.32 43.5499 58.32 43.6799C58.3228 44.3348 58.1649 44.9804 57.86 45.5599C57.76 45.1799 57.68 44.7899 57.56 44.4099C57.56 44.3399 57.4 44.2699 57.32 44.2599C57.2697 44.2578 57.2196 44.2665 57.173 44.2855C57.1264 44.3045 57.0844 44.3333 57.05 44.3699C56.76 44.8999 56.48 45.4399 56.05 46.2299C55.9414 45.8843 55.9286 45.5157 56.0132 45.1635C56.0977 44.8112 56.2763 44.4886 56.53 44.2299C56.92 43.5399 57.17 43.0599 56.63 42.3099C56.3634 41.8087 56.2066 41.2565 56.17 40.6899C56.1321 40.426 56.1557 40.157 56.2389 39.9037C56.3222 39.6504 56.4629 39.4198 56.65 39.2299C57.4 38.3399 57.35 37.5199 56.34 37.1199C55.9253 36.9378 55.5986 36.6003 55.43 36.1799C55.1129 35.698 54.8257 35.197 54.57 34.6799C54.2524 33.9119 54.1354 33.0757 54.23 32.2499C54.2636 31.7867 54.1592 31.3239 53.93 30.9199C53.2341 29.6773 52.9903 28.232 53.24 26.8299C53.35 26.3099 53.35 25.7599 53.45 25.2399C53.45 25.0799 53.66 24.9399 53.77 24.7999C53.86 24.9399 54.06 25.0899 54.05 25.2299C54.05 25.9299 53.91 26.6199 53.82 27.2999C53.65 28.4799 54.14 29.5199 54.53 30.9799C54.6082 30.5958 54.7151 30.218 54.85 29.8499C54.92 29.6999 55.1 29.6099 55.23 29.4999C55.3 29.6699 55.44 29.8399 55.43 30.0099C55.2582 31.1016 55.2313 32.2112 55.35 33.3099C55.5581 34.3842 55.9148 35.4242 56.41 36.3999C56.53 36.2899 56.63 36.2499 56.65 36.1799C56.79 35.7399 57.13 35.6499 57.26 36.0599C57.61 37.1299 57.84 38.2399 58.11 39.2999C58.47 39.0599 58.7 38.3899 59.53 38.3699C59.1089 39.0686 58.8175 39.8376 58.67 40.6399C58.67 41.1599 58.09 40.8599 57.74 40.8999C57.15 40.9699 57.48 40.5899 57.47 40.4499C57.4842 40.088 57.521 39.7273 57.58 39.3699C57.08 39.6899 56.83 39.8199 56.95 40.3699C56.9894 41.2549 57.2694 42.1123 57.76 42.8499C57.84 42.9399 57.76 43.1599 57.76 43.3199C57.6381 43.3708 57.5237 43.4381 57.42 43.5199C57.42 43.5199 57.42 43.6899 57.47 43.7899C57.5552 43.7339 57.6326 43.6666 57.7 43.5899C57.7363 43.4904 57.7565 43.3858 57.76 43.2799V43.2799Z" fill="#171717"/>
<path d="M25.5698 40.5199C25.4098 40.1799 25.2098 39.9699 25.2498 39.8199C25.7625 38.1639 26.8196 36.7297 28.2498 35.7499C29.1098 35.8499 29.9598 35.1999 30.8398 35.7499C31.2744 36.0292 31.7502 36.2384 32.2498 36.3699C32.9017 36.5686 33.5979 36.5686 34.2498 36.3699C35.0098 36.0999 35.6598 36.8099 35.7498 37.7699C35.7388 37.9404 35.6916 38.1065 35.6112 38.2572C35.5309 38.4079 35.4193 38.5397 35.2839 38.6438C35.1486 38.7479 34.9926 38.822 34.8263 38.861C34.66 38.9 34.4873 38.903 34.3198 38.8699C32.6809 38.7715 31.0578 38.4931 29.4798 38.0399C28.0598 37.4799 27.3398 37.8599 26.4098 39.1899L25.5698 40.5199Z" fill="#171717"/>
<path d="M33.44 50.8899C32.86 51.6299 32.26 52.3999 31.67 53.1699L31.46 53.0599C31.46 52.8199 31.46 52.5199 31.56 52.3299C31.9583 51.659 32.3992 51.0144 32.88 50.3999C33.1674 50.1005 33.3798 49.7372 33.5 49.3399C33.59 48.9799 33.98 48.6899 34.28 48.3999C34.3429 48.3658 34.4134 48.3479 34.485 48.3479C34.5566 48.3479 34.627 48.3658 34.69 48.3999C34.7405 48.4559 34.7761 48.5237 34.7936 48.5971C34.8111 48.6705 34.8098 48.7471 34.79 48.8199C34.4234 49.3414 34.2501 49.9744 34.3 50.6099C34.3 50.7799 34.52 50.9499 34.64 51.1199C34.7558 50.9963 34.8504 50.8544 34.92 50.6999C35.03 50.2299 35.4 50.2799 35.66 50.3899C36.1177 50.6246 36.5617 50.885 36.99 51.1699C37.2802 51.3371 37.6181 51.4024 37.9498 51.3553C38.2814 51.3082 38.5878 51.1514 38.82 50.9099C39.0068 50.7211 39.2111 50.5504 39.43 50.3999C39.6038 50.3071 39.797 50.2564 39.994 50.2518C40.191 50.2472 40.3863 50.2889 40.5643 50.3735C40.7423 50.4581 40.8979 50.5833 41.0188 50.739C41.1396 50.8947 41.2222 51.0765 41.26 51.2699C41.2605 51.3653 41.2396 51.4595 41.199 51.5458C41.1584 51.6321 41.099 51.7082 41.0252 51.7686C40.9514 51.829 40.8651 51.8721 40.7725 51.8948C40.6799 51.9175 40.5833 51.9193 40.49 51.8999C40.0141 51.8065 39.5224 51.8335 39.0596 51.9784C38.5968 52.1234 38.1775 52.3817 37.84 52.7299C37.75 52.8199 37.55 52.8099 37.41 52.8499C36.623 53.0665 35.7839 52.9866 35.0521 52.6252C34.3202 52.2639 33.7465 51.6464 33.44 50.8899V50.8899Z" fill="#171717"/>
<path d="M37 58.92C35.8181 58.7138 34.6137 58.6701 33.42 58.79C33.06 58.88 32.58 58.48 32.18 58.26C32.12 58.26 32.18 57.89 32.18 57.87C32.51 57.74 33.04 57.48 33.18 57.61C33.82 58.2 34.45 57.89 35.11 57.77C36.575 57.5995 38.058 57.6705 39.5 57.98C40.4823 58.0606 41.471 58.0102 42.44 57.83C42.8575 57.792 43.2615 57.662 43.6229 57.4493C43.9842 57.2366 44.294 56.9466 44.53 56.6C44.84 56.18 45.28 56.24 45.42 56.74C45.56 57.24 46.24 57.4 45.86 57.96C45.48 58.52 45 58.28 44.54 58.22C44.3451 58.1663 44.1386 58.1729 43.9476 58.239C43.7566 58.305 43.5901 58.4274 43.47 58.59C43.27 58.85 42.71 58.86 42.31 58.91C40.5563 59.2469 38.7549 59.2503 37 58.92V58.92Z" fill="#171717"/>
<path d="M56.2998 27.7C55.9898 26.88 55.7498 26.2 55.4798 25.54C54.6498 23.54 52.9498 22.4 51.2198 21.28C51.0914 21.2288 50.9482 21.2288 50.8198 21.28C50.4598 22.06 49.8198 21.67 49.2998 21.62C48.0083 21.641 46.7206 21.7681 45.4498 22C45.1907 22.0297 44.929 22.0297 44.6698 22C44.3998 22 43.9198 22.11 43.9098 21.67C43.8998 21.23 44.3598 21.34 44.6298 21.39C45.1463 21.4352 45.6666 21.3947 46.1698 21.27C47.5498 21.07 48.9398 21 50.4398 20.86C49.4405 20.5134 48.3666 20.4409 47.3298 20.65C47.0744 20.7188 46.8053 20.7188 46.5498 20.65C46.4498 20.65 46.3498 20.46 46.3098 20.34C46.3112 20.2915 46.3248 20.2441 46.3492 20.2021C46.3737 20.1602 46.4083 20.1251 46.4498 20.1C47.6272 19.7311 48.8839 19.6964 50.0798 20C52.3614 20.8187 54.3182 22.3512 55.6598 24.37C56.0334 24.8289 56.2874 25.3733 56.3991 25.9544C56.5108 26.5355 56.4767 27.1353 56.2998 27.7V27.7Z" fill="#171717"/>
<path d="M43.5199 41.08L44.2899 42.36C44.2899 42.36 44.2899 42.45 44.1899 42.6L42.1899 41.3C42.8299 40.13 44.0399 39.86 45.0599 39.37C45.5606 39.2053 46.1038 39.2266 46.5899 39.43C47.4452 39.7943 48.2768 40.2118 49.0799 40.68C49.1361 40.7177 49.1826 40.7682 49.2156 40.8273C49.2487 40.8863 49.2673 40.9524 49.2699 41.02C49.2432 41.0833 49.2007 41.1386 49.1464 41.1806C49.0921 41.2226 49.0279 41.25 48.9599 41.26C48.6123 41.1523 48.2391 41.1603 47.8965 41.2829C47.5538 41.4056 47.2603 41.6362 47.0599 41.94C46.7899 42.33 46.0599 42.3 45.4199 42.16C44.7799 42.02 44.9999 41.6 44.8499 41.31C44.4699 40.59 44.4999 40.57 43.5199 41.08Z" fill="#171717"/>
<path d="M44.1301 59.8899C43.8185 60.1616 43.4839 60.4059 43.1301 60.6199C42.6101 60.8399 42.0401 60.9599 41.5201 61.1799C41.2801 61.2899 40.8601 61.4199 41.2301 61.8399C40.9801 61.9799 40.5901 62.2899 40.4901 62.2099C39.3701 61.3499 38.1401 61.9399 36.9701 61.9299C36.5901 61.9299 36.1801 62.2799 35.8301 61.8699C35.6701 61.6899 34.9301 61.7099 35.5101 61.1799C35.1101 60.9699 34.6901 60.7699 34.3001 60.5399C34.2442 60.498 34.1989 60.4436 34.1676 60.3811C34.1364 60.3187 34.1201 60.2498 34.1201 60.1799C34.1201 60.0799 34.3301 60.0099 34.4601 59.9699C34.5605 59.9348 34.6698 59.9348 34.7701 59.9699C35.9901 60.5699 37.3101 60.1799 38.5701 60.3999C39.384 60.6242 40.2506 60.557 41.0201 60.2099C41.8301 59.8499 42.8601 59.9999 44.1301 59.8899Z" fill="#171717"/>
<path d="M34.3399 41.36C33.9393 41.5145 33.5181 41.6088 33.0899 41.64C32.3299 41.51 32.2899 41.48 31.8099 41.92C31.6499 42.06 31.4799 42.19 31.3099 42.32C31.2037 42.4386 31.0724 42.5322 30.9255 42.5936C30.7786 42.6551 30.6199 42.6831 30.4608 42.6754C30.3017 42.6677 30.1464 42.6247 30.0061 42.5493C29.8658 42.474 29.7441 42.3683 29.6499 42.24C29.4239 41.9566 29.2263 41.6519 29.0599 41.33C28.3699 41.72 27.7999 42.06 27.1999 42.33C27.0899 42.33 26.8699 42.27 26.7399 42.18C26.6099 42.09 26.7399 41.9 26.7999 41.84C27.4698 41.2298 28.1852 40.6716 28.9399 40.17C29.4313 39.8428 30.0019 39.6543 30.5915 39.6243C31.1811 39.5944 31.7679 39.7242 32.2899 40C32.9299 40.32 33.4899 40.79 34.3399 41.36Z" fill="#171717"/>
<path d="M55.6299 22.58C55.9041 22.4373 56.2214 22.4013 56.5205 22.4788C56.8197 22.5564 57.0796 22.7421 57.2499 23C57.7825 23.616 58.1819 24.3356 58.4229 25.1135C58.6638 25.8914 58.7411 26.7107 58.6499 27.52C58.6157 28.6825 58.3893 29.8314 57.9799 30.92C57.7991 31.5717 57.7016 32.2437 57.6899 32.92C57.6899 33.13 58.1699 33.36 57.6899 33.48C57.6099 33.48 57.3699 33.15 57.2899 32.94C56.8359 31.5325 56.8747 30.0124 57.3999 28.63C57.5052 28.2381 57.5656 27.8355 57.5799 27.43C57.5799 27.28 57.4399 27.1 57.4799 26.98C57.9899 25.53 57.1899 24.55 56.3199 23.57C56.0656 23.2575 55.835 22.9266 55.6299 22.58V22.58Z" fill="#171717"/>
<path d="M45.2498 11.72C43.6198 10.33 41.7898 11.06 40.0598 11.24C38.6907 11.4617 37.3497 11.8305 36.0598 12.34C33.6217 13.0608 31.533 14.6514 30.1898 16.81C30.1298 16.91 29.9398 16.93 29.8098 16.99C29.7498 16.81 29.6898 16.64 29.6398 16.46C29.6275 16.4369 29.6211 16.4111 29.6211 16.385C29.6211 16.3588 29.6275 16.3331 29.6398 16.31C30.5877 15.0446 31.7204 13.9288 32.9998 13C35.5198 11.42 38.4298 11 41.2298 10.33C42.3798 10.55 43.6198 10.07 44.7198 10.74C44.9844 10.9426 45.2289 11.1703 45.4498 11.42L45.2498 11.72Z" fill="#171717"/>
<path d="M32.33 17.9999C31.7028 18.4599 30.9827 18.7773 30.22 18.9299C29.9105 18.955 29.5995 18.955 29.29 18.9299C29.2 18.9299 29.1 18.7199 29.07 18.5999C29.04 18.4799 29.15 18.3899 29.22 18.3599C29.56 18.2399 29.92 18.1499 30.22 18.0399C31.0816 17.7599 31.8473 17.2437 32.43 16.5499C33.7831 14.9325 35.657 13.8365 37.73 13.4499C38.7099 13.3564 39.6977 13.3866 40.67 13.5399C39.67 14.5399 38.48 13.5399 37.53 14.2599C36.74 14.8199 35.69 15.0099 34.9 15.5799C34.0834 16.2378 33.324 16.9637 32.63 17.7499V17.7499L32.26 18.0399L32.33 17.9999Z" fill="#171717"/>
<path d="M36.3701 55.9099C36.6398 56.0526 36.9208 56.173 37.2101 56.2699C37.5501 56.3699 38.0801 56.5899 38.2101 56.4399C39.0401 55.6999 39.9301 56.1299 40.8001 56.1799C41.3801 56.1799 41.9701 56.3099 42.5401 56.3999C42.6084 56.4169 42.6715 56.4504 42.7238 56.4975C42.7761 56.5446 42.816 56.6038 42.8401 56.6699C42.8401 56.7699 42.7101 56.9799 42.6101 56.9899C42.1005 57.0959 41.5804 57.1429 41.0601 57.1299C40.0601 57.0699 39.0601 56.7999 38.1301 57.3699C37.962 57.4141 37.7866 57.4236 37.6147 57.3978C37.4427 57.372 37.2779 57.3115 37.1301 57.2199C36.7433 56.938 36.2682 56.8042 35.7912 56.8427C35.3141 56.8812 34.8667 57.0896 34.5301 57.4299C34.3401 57.6199 34.1901 57.5999 34.0201 57.4299C33.8501 57.2599 33.9101 57.0699 34.1201 56.9299C34.7901 56.4299 35.3201 55.5899 36.3701 55.9099Z" fill="#171717"/>
<path d="M21.6198 29.3099C21.6934 29.6026 21.7468 29.8999 21.7798 30.1999C21.7766 30.2711 21.7557 30.3403 21.719 30.4014C21.6823 30.4625 21.6311 30.5135 21.5698 30.5499C21.4964 30.5501 21.424 30.5319 21.3594 30.497C21.2948 30.462 21.2399 30.4115 21.1998 30.3499C20.7232 29.2477 20.5142 28.0484 20.5898 26.8499C20.7498 26.0099 20.8198 25.1599 20.9098 24.2999C20.9398 23.9387 21.0541 23.5895 21.2434 23.2804C21.4326 22.9713 21.6917 22.7108 21.9998 22.5199C22.0314 22.7455 22.0314 22.9743 21.9998 23.1999C21.7654 24.0905 21.6544 25.0091 21.6698 25.9299C21.606 26.762 21.7611 27.5963 22.1198 28.3499C22.3598 28.8399 22.7298 29.3499 22.4598 29.9899L21.6098 29.3299C21.6242 29.2304 21.6242 29.1294 21.6098 29.0299C21.5651 28.9336 21.5042 28.8457 21.4298 28.7699C21.4298 28.8499 21.2998 28.9699 21.3298 29.0199C21.4129 29.1292 21.5105 29.2268 21.6198 29.3099Z" fill="#171717"/>
<path d="M60.3897 21.32C59.5797 20.1 58.7897 18.86 57.9397 17.66C57.5859 17.1045 57.1046 16.6414 56.5359 16.3092C55.9672 15.977 55.3274 15.7853 54.6697 15.75C53.8797 15.7 53.0897 15.57 52.2997 15.45C52.2097 15.45 52.1297 15.22 52.1097 15.09C52.0897 14.96 52.2397 14.87 52.2897 14.88C53.1897 15.04 54.1697 14.35 54.9997 15.15C55.8878 15.2378 56.7335 15.573 57.4406 16.1174C58.1477 16.6619 58.6879 17.3938 58.9997 18.23C59.4959 19.0995 60.0401 19.9408 60.6297 20.75C60.8097 21.04 60.7097 21.25 60.3497 21.28L60.3897 21.32Z" fill="#171717"/>
<path d="M35.9201 43.0799C35.6001 44.5099 35.2801 45.9399 34.9201 47.3599C34.8939 47.4245 34.8517 47.4814 34.7975 47.5251C34.7432 47.5689 34.6787 47.5981 34.6101 47.6099C34.5465 47.5902 34.4888 47.5553 34.4417 47.5083C34.3947 47.4613 34.3598 47.4035 34.3401 47.3399C34.3065 46.9142 34.3575 46.486 34.4901 46.0799C35.3201 44.3999 35.1001 42.5499 35.4001 40.7899C35.3828 40.3832 35.3327 39.9786 35.2501 39.5799C35.2501 39.4099 35.4201 39.2399 35.5201 39.0699C35.6401 39.1999 35.8101 39.3099 35.8601 39.4599C36.0811 40.4477 36.0811 41.4722 35.8601 42.4599C35.8601 42.6699 35.8601 42.8799 35.7801 43.0899L35.9201 43.0799Z" fill="#171717"/>
<path d="M49.8999 34.92C49.7074 34.5833 49.5882 34.2096 49.5503 33.8235C49.5124 33.4375 49.5566 33.0478 49.6799 32.68C49.9099 31.39 50.1899 30.11 50.4799 28.83C50.5159 28.7714 50.5657 28.7225 50.625 28.6876C50.6843 28.6527 50.7512 28.633 50.8199 28.63C50.8806 28.6578 50.9329 28.7011 50.9715 28.7555C51.0101 28.8099 51.0337 28.8736 51.0399 28.94C50.7099 30.9 50.9099 33 49.8999 34.92Z" fill="#171717"/>
<path d="M62.8701 42.15C62.7401 41.61 62.6501 41.28 62.5901 40.95C62.5301 40.62 62.9301 40.13 62.3801 40.02C62.1701 40.02 61.8601 40.42 61.6001 40.64C61.3401 40.86 60.8701 41.27 60.4901 41.55C60.4254 41.5841 60.3533 41.602 60.2801 41.602C60.2069 41.602 60.1348 41.5841 60.0701 41.55C60.0359 41.487 60.0181 41.4166 60.0181 41.345C60.0181 41.2734 60.0359 41.2029 60.0701 41.14C60.4801 40.66 60.9601 40.24 61.3501 39.74C61.5016 39.4675 61.7428 39.2559 62.0326 39.1411C62.3224 39.0262 62.6431 39.0152 62.9401 39.11C63.3501 39.24 63.6101 40.52 63.3901 41.11C63.2301 41.35 63.1001 41.63 62.8701 42.15Z" fill="#171717"/>
<path d="M23.9998 30.1999C24.1767 29.5122 24.4177 28.8426 24.7198 28.1999C25.0225 27.5367 25.2085 26.8263 25.2698 26.0999C25.2698 25.9299 25.4698 25.7999 25.5798 25.6499C25.6798 25.7899 25.8798 25.9399 25.8698 26.0699C25.8469 26.8009 25.6732 27.5192 25.3598 28.1799C24.7192 29.4486 24.4753 30.8807 24.6598 32.2899C24.6569 32.3431 24.6407 32.3948 24.6128 32.4402C24.5848 32.4856 24.546 32.5233 24.4998 32.5499C24.4998 32.5499 24.2998 32.4899 24.2598 32.4199C23.977 31.7162 23.8873 30.9499 23.9998 30.1999V30.1999Z" fill="#171717"/>
<path d="M54.1299 45.88C54.2848 45.9888 54.3973 46.1478 54.4483 46.33C54.4994 46.5123 54.4858 46.7066 54.4099 46.88C53.8655 48.6129 53.0523 50.2495 51.9999 51.73C51.9399 51.81 51.8199 51.84 51.6099 51.97C51.6416 51.6609 51.7053 51.356 51.7999 51.06C52.5699 49.33 53.3599 47.6 54.1299 45.88Z" fill="#171717"/>
<path d="M58.8699 35.3899C58.7299 35.0999 58.4799 34.8299 58.5299 34.6499C58.7399 33.9599 59.0899 33.3199 59.2899 32.6499C59.5207 32.0561 59.5523 31.4033 59.3799 30.7899C59.3209 30.6665 59.2878 30.5323 59.2826 30.3956C59.2775 30.2589 59.3005 30.1225 59.3502 29.9951C59.3999 29.8676 59.4752 29.7517 59.5715 29.6544C59.6677 29.5572 59.7829 29.4808 59.9099 29.4299L60.15 30.4299C60.3274 31.0502 60.2922 31.712 60.0499 32.3099C59.8399 32.8399 59.7099 33.3999 59.5199 33.9399C59.3299 34.4799 59.1199 34.8299 58.8699 35.3899Z" fill="#171717"/>
<path d="M32.67 17.6999C32.77 17.7999 32.97 17.9199 32.96 17.9899C32.8275 18.5667 32.5746 19.109 32.2178 19.5812C31.8611 20.0534 31.4086 20.4448 30.89 20.7299C30.04 21.2399 29.15 20.7799 28.29 20.6599C28.24 20.6599 28.19 20.4799 28.2 20.3899C28.21 20.2999 28.3 20.1599 28.35 20.1599C28.6646 20.139 28.9806 20.1592 29.29 20.2199C29.7193 20.3415 30.177 20.3159 30.5901 20.1474C31.0032 19.9789 31.3482 19.6771 31.57 19.2899C31.86 18.8799 32.08 18.4099 32.33 17.9699L32.7 17.6799L32.67 17.6999Z" fill="#171717"/>
<path d="M41.5501 52C42.7101 50.81 42.4301 49.68 41.5501 48.57C41.4901 48.49 41.5501 48.24 41.5501 48.21C41.6998 48.1286 41.8737 48.1038 42.0401 48.14C42.2976 48.2054 42.5284 48.3494 42.7004 48.5518C42.8724 48.7543 42.9772 49.0053 43.0001 49.27C43.0733 49.9369 43.0463 50.611 42.9201 51.27C42.8201 51.63 42.2801 51.88 41.9201 52.17L41.5501 52Z" fill="#171717"/>
<path d="M44.7499 51.1799C44.8499 51.1799 44.9899 51.1799 45.0499 51.2699C45.8999 52.1999 46.7599 53.1299 47.5899 54.0799C47.6699 54.1799 47.5899 54.4299 47.5899 54.6199C47.4499 54.6199 47.2599 54.6199 47.1799 54.5199C46.3199 53.5899 45.4699 52.6499 44.6399 51.6999C44.5799 51.6199 44.6399 51.4199 44.6399 51.2699C44.6399 51.1199 44.7099 51.2099 44.7499 51.1799Z" fill="#171717"/>
<path d="M45.7001 44.4499C44.8701 44.3499 44.2001 44.2299 43.5301 44.2099C42.8601 44.1899 42.5301 43.4799 42.0201 43.2099C41.9601 43.2099 42.1201 42.7599 42.1801 42.5199C42.3301 42.6099 42.5601 42.6599 42.6201 42.7999C42.9601 43.5299 43.6201 43.5999 44.2901 43.6899C44.7901 43.7199 45.3901 43.5999 45.7001 44.4499Z" fill="#171717"/>
<path d="M29.0001 21.8499C28.8001 22.0399 28.7301 22.1599 28.6501 22.1699C28.1433 22.2394 27.6654 22.4468 27.2686 22.7696C26.8718 23.0923 26.5713 23.5179 26.4001 23.9999C26.3301 24.1399 26.1001 24.1899 25.9501 24.2799C25.9501 24.0899 25.7701 23.8399 25.8501 23.7199C26.22 23.1165 26.6345 22.5415 27.0901 21.9999C27.5901 21.3999 28.2301 21.6899 29.0001 21.8499Z" fill="#171717"/>
<path d="M20.5098 41.1799C21.7898 41.9899 21.8898 43.3099 22.3298 44.4399C22.3413 44.51 22.3345 44.5818 22.31 44.6484C22.2854 44.715 22.244 44.7741 22.1898 44.8199C22.1199 44.8348 22.0475 44.8335 21.9782 44.8161C21.9089 44.7988 21.8445 44.7659 21.7898 44.7199C21.6698 44.6299 21.5198 44.4699 21.5198 44.3399C21.4752 43.5077 21.1511 42.7149 20.5998 42.0899C20.4598 41.8899 20.5398 41.5299 20.5098 41.1799Z" fill="#171717"/>
<path d="M60.8699 48.54C61.2699 48.11 61.6199 47.75 62.0999 47.25C62.1103 47.6999 61.989 48.1431 61.7509 48.5251C61.5129 48.907 61.1684 49.2111 60.7599 49.4C60.6699 49.45 60.3199 49.29 60.2699 49.16C60.1037 48.6803 59.9733 48.189 59.8799 47.69C59.8799 47.69 59.9899 47.52 60.0699 47.5C60.1499 47.48 60.3199 47.5 60.3499 47.57C60.5299 47.87 60.6799 48.18 60.8699 48.54Z" fill="#171717"/>
<path d="M61 45.6499C61 45.6999 61 45.7699 61 45.7899C61 45.8099 60.75 45.8999 60.73 45.8699C60.2294 45.3463 59.7745 44.7809 59.37 44.1799C59.17 43.8399 59.5 43.4599 59.87 43.3199C59.99 43.3199 60.34 43.4899 60.33 43.5099C60.06 44.2999 60.61 44.7999 60.97 45.3599C61.0002 45.4534 61.0105 45.5522 61 45.6499V45.6499Z" fill="#171717"/>
<path d="M33.3501 43.5299C33.0439 44.0645 32.62 44.5224 32.1107 44.8689C31.6013 45.2154 31.0197 45.4414 30.4101 45.5299C30.3201 45.5299 30.1701 45.3799 30.1001 45.2699C30.0301 45.1599 30.1001 45.0399 30.2001 45.0099L33.3501 43.5299Z" fill="#171717"/>
<path d="M25.1398 23.9399C25.0355 24.3899 24.8636 24.8215 24.6298 25.2199C24.2498 25.6699 24.1798 26.5799 23.5098 26.5499C23.0098 26.5499 23.6598 26.1699 23.6598 25.8999C23.6598 25.6299 23.9198 25.3699 24.0298 25.0799C24.2198 24.6099 24.3598 24.0799 24.5598 23.6399C24.6198 23.4899 24.8198 23.3999 24.9498 23.2799C25.0198 23.4499 25.0898 23.6199 25.1498 23.7899C25.2098 23.9599 25.1398 23.8899 25.1398 23.9399Z" fill="#171717"/>
<path d="M27.63 34.22C27.63 33.22 27.55 32.22 27.52 31.33C27.519 31.1722 27.5496 31.0158 27.61 30.87C27.6429 30.8333 27.6829 30.8037 27.7276 30.783C27.7723 30.7624 27.8208 30.7512 27.87 30.75C27.9639 30.769 28.0506 30.814 28.12 30.88C27.85 32 28.66 33.17 27.63 34.22Z" fill="#171717"/>
<path d="M39.92 41C39.04 39.85 39.69 38.91 39.67 37.75C40.58 38.91 39.94 39.85 39.92 41Z" fill="#171717"/>
<path d="M61.3799 42.7499C61.4499 42.3499 61.3799 42.1699 61.5099 42.0499C61.6146 41.9562 61.7494 41.9031 61.8899 41.8999C61.9499 41.8999 62.0799 42.0199 62.0899 42.0899C62.1499 42.6399 62.1999 43.1899 62.2099 43.7499C62.1971 43.8182 62.1676 43.8823 62.124 43.9364C62.0803 43.9905 62.0239 44.033 61.9599 44.0599C61.8915 44.0561 61.8252 44.0348 61.7675 43.998C61.7097 43.9612 61.6623 43.9102 61.6299 43.8499C61.4999 43.4199 61.4299 42.9999 61.3799 42.7499Z" fill="#171717"/>
<path d="M36 47.7599C36 47.2499 36 46.9799 36.5 46.8799C37.2 46.7399 37.19 46.6599 37.9 47.2099L36 47.7599Z" fill="#171717"/>
<path d="M39.0001 54.2699C39.0354 54.1264 39.0822 53.9859 39.1401 53.8499C39.1401 53.7899 39.3201 53.7699 39.4001 53.7799C39.4801 53.7899 39.6201 53.8899 39.6201 53.9499C39.6549 54.1551 39.6549 54.3647 39.6201 54.5699C39.5501 54.8299 39.7101 55.2299 39.2701 55.3099C39.0001 55.3699 38.9101 55.1299 39.0001 54.2699Z" fill="#171717"/>
<path d="M25.7697 21C25.7832 21.3688 25.7054 21.7352 25.5431 22.0667C25.3809 22.3982 25.1393 22.6844 24.8397 22.9C24.7797 22 24.7797 22 25.7697 21Z" fill="#171717"/>
<path d="M37.8901 53.5699C37.6401 53.9799 37.4101 54.3699 37.1601 54.7399C37.1601 54.7399 36.9701 54.7399 36.8701 54.6699C36.7701 54.5999 36.7701 54.5899 36.7801 54.5699C36.9401 54.1399 37.1001 53.7099 37.2801 53.2999C37.3131 53.2656 37.3542 53.2402 37.3997 53.2262C37.4452 53.2123 37.4935 53.2101 37.5401 53.2199C37.6692 53.3234 37.7866 53.4408 37.8901 53.5699V53.5699Z" fill="#171717"/>
<path d="M47.6499 71.8899C47.6499 71.5299 47.6499 71.3299 47.6999 71.2399C47.8959 71.0267 48.1176 70.8386 48.3599 70.6799C48.3599 70.6799 48.5299 70.7699 48.6099 70.8199C48.4719 71.0694 48.3183 71.3099 48.1499 71.5399C47.9991 71.6777 47.831 71.7954 47.6499 71.8899V71.8899Z" fill="#171717"/>
<path d="M42.33 76.12L42 75.8L42.34 75.46C42.42 75.56 42.56 75.66 42.56 75.76C42.56 75.86 42.43 76 42.33 76.12Z" fill="#171717"/>
<path d="M48.91 69.4599C48.78 69.3099 48.61 69.1599 48.63 69.1199C48.7278 68.992 48.8422 68.8777 48.97 68.7799C49.04 68.8899 49.17 68.9899 49.17 69.0999C49.17 69.2099 49 69.2999 48.91 69.4599Z" fill="#171717"/>
</svg>
