<svg width="90" height="90" viewBox="0 0 90 90" fill="none" xmlns="http://www.w3.org/2000/svg">
<path d="M29.9999 72.5C30.8755 73.2174 31.9005 73.73 32.9999 74C33.1299 74 33.3099 74 33.4099 74.08C33.5099 74.16 33.7299 74.38 33.7099 74.48C33.6723 74.5665 33.6161 74.6436 33.5452 74.7059C33.4743 74.7681 33.3905 74.8139 33.2999 74.84C33.0669 74.8416 32.837 74.7867 32.6299 74.68C31.1543 74.0669 29.7123 73.3759 28.3099 72.61C27.7699 72.3049 27.1423 72.1921 26.5299 72.29C25.9071 72.3846 25.2921 72.525 24.6899 72.71C25.9499 73.18 27.0499 73.61 28.1699 73.99C28.4299 74.08 28.6699 74.13 28.5299 74.43C28.4725 74.5124 28.3963 74.5798 28.3076 74.6268C28.2189 74.6738 28.1203 74.6989 28.0199 74.7C26.9499 74.35 25.8999 73.96 24.8399 73.57C24.6699 73.51 24.4099 73.45 24.3499 73.32C23.8799 72.26 22.9499 72.56 22.1399 72.54C21.399 72.5038 20.6565 72.5609 19.9299 72.71L22.4299 74.01C22.6453 74.1023 22.8368 74.2425 22.9899 74.42C22.9899 74.48 22.9199 74.79 22.8199 74.83C22.6355 74.8798 22.4392 74.8584 22.2699 74.77C21.3299 74.32 20.3899 73.88 19.4799 73.37C19.1399 73.19 18.9299 72.71 18.5899 72.61C18.2499 72.51 17.8699 72.74 17.4999 72.82C17.3083 72.8602 17.1147 72.8903 16.9199 72.91C17.4599 73.37 17.9199 73.76 18.3899 74.17C18.3899 74.17 18.3899 74.37 18.3899 74.44C18.3226 74.5044 18.233 74.5402 18.1399 74.54C18.0467 74.5429 17.9553 74.5148 17.8799 74.46C16.8013 73.9092 15.8268 73.1749 14.9999 72.29C14.7198 71.9725 14.5512 71.5722 14.5199 71.15C14.5354 68.7459 14.4252 66.3426 14.1899 63.95C13.8699 61.54 14.0599 59.14 13.9699 56.74C13.914 55.6405 13.998 54.5383 14.2199 53.46C14.4399 52.46 14.2799 51.38 14.4599 50.32C14.6378 49.133 14.6005 47.9237 14.3499 46.75C14.1701 45.454 14.1499 44.1409 14.2899 42.84C14.3599 41.93 15.1799 41.43 16.4199 41.39C17.4199 41.39 18.3599 41.39 19.3399 41.39C19.3399 41.27 19.3399 41.17 19.3399 41.14C18.6461 40.5203 18.1126 39.7418 17.7852 38.8711C17.4578 38.0004 17.3462 37.0633 17.4599 36.14C17.5047 35.4805 17.6428 34.8307 17.8699 34.21C18.3738 32.9194 19.136 31.7454 20.1099 30.76C21.1124 29.7963 22.4397 29.2433 23.8299 29.21C25.3114 29.1143 26.7894 29.4439 28.0899 30.16C29.1999 30.7467 30.1089 31.6523 30.6999 32.76C31.1118 33.5493 31.4467 34.3764 31.6999 35.23C31.9868 36.1661 32.0089 37.1635 31.7635 38.1113C31.5181 39.0592 31.015 39.9206 30.3099 40.6L29.8799 41.1H34.2899C34.2899 39.8 34.2899 38.51 34.2899 37.22C34.2064 36.5971 34.2857 35.9632 34.5199 35.38C34.65 35.0593 34.65 34.7006 34.5199 34.38C34.2298 33.3738 34.2298 32.3062 34.5199 31.3C34.6126 30.3021 34.6126 29.2978 34.5199 28.3C36.0099 27.55 37.5799 28.3 39.1199 28.05C38.6399 27.5 38.1699 27.05 37.7499 26.49C37.3435 25.9571 37.135 25.2996 37.1599 24.63C37.1599 23.42 37.0899 22.2 37.1599 20.99C37.3142 19.4737 37.9933 18.0589 39.0799 16.99C39.3799 16.67 39.6899 16.36 40.0099 16.06C40.7723 15.2411 41.7484 14.6518 42.8281 14.3584C43.9078 14.0651 45.048 14.0795 46.1199 14.4C46.7099 14.58 47.3299 14.65 47.8999 14.86C48.9671 15.2817 49.9356 15.9195 50.7445 16.7335C51.5533 17.5475 52.185 18.5201 52.5999 19.59C52.8206 20.1172 52.8932 20.6946 52.8099 21.26C52.7408 22.5377 52.3936 23.7849 51.7925 24.9145C51.1915 26.0441 50.351 27.0289 49.3299 27.8H51.0999C51.4899 27.8 51.8799 27.8 52.2699 27.8C53.3199 27.88 53.6899 28.28 53.7099 29.33V30.49C53.8099 36.49 53.8999 42.57 54.0299 48.61C54.0299 49.61 54.2599 50.61 54.3799 51.61C55.6144 51.7858 56.8731 51.6624 58.0499 51.25L57.6599 50.81C57.1915 50.3319 56.8284 49.761 56.5942 49.1341C56.36 48.5071 56.2597 47.8381 56.2999 47.17C56.2595 45.885 56.4701 44.6044 56.9199 43.4C57.8199 41.54 59.1099 40.2 61.3099 40.02C61.7699 40.02 62.2299 39.77 62.6899 39.76C64.9799 39.76 67.0599 40.25 68.4999 42.2C68.8819 42.7373 69.1694 43.3359 69.3499 43.97C69.6499 44.9109 69.8576 45.8788 69.9699 46.86C70.0927 47.7011 69.9856 48.5599 69.6599 49.3451C69.3342 50.1303 68.802 50.8127 68.1199 51.32L70.9299 51.67C71.4899 51.74 71.7099 51.92 71.7399 52.46C71.8399 54.52 71.9899 56.58 72.0199 58.64C72.0199 61.84 72.0199 65.04 72.0199 68.24C72.1134 69.1497 72.0354 70.069 71.7899 70.95C71.6699 71.25 71.8799 71.68 71.9199 72.05C71.9199 72.22 71.9199 72.5 71.9199 72.54C71.9199 72.58 71.4099 72.75 71.5399 73.02C71.6699 73.29 71.9799 73.12 72.1699 73.23C72.3599 73.34 72.9099 73.65 72.8799 73.78C72.7599 74.3 72.2299 74.11 71.9399 74.03C71.0592 73.8885 70.2118 73.5869 69.4399 73.14C69.0191 72.8725 68.5431 72.7038 68.0478 72.6467C67.5524 72.5895 67.0506 72.6453 66.5799 72.81C67.0399 72.98 67.5199 73.12 67.9699 73.33C68.1899 73.43 68.5399 73.68 68.5199 73.82C68.5199 74.23 68.0399 74.1 67.8199 74.04C66.9413 73.8794 66.0961 73.5718 65.3199 73.13C64.7347 72.7501 64.0765 72.497 63.3876 72.3868C62.6987 72.2765 61.9944 72.3117 61.3199 72.49C62.1099 72.83 62.8999 73.16 63.6899 73.49C63.7416 73.5277 63.7832 73.5775 63.8111 73.635C63.839 73.6926 63.8523 73.7561 63.8499 73.82C63.8163 73.8742 63.771 73.9203 63.7174 73.9549C63.6638 73.9895 63.6032 74.0117 63.5399 74.02C63.253 74.0804 62.9567 74.0804 62.6699 74.02C61.74 73.6297 60.8465 73.1579 59.9999 72.61C59.7571 72.424 59.4715 72.3018 59.1693 72.2547C58.8671 72.2075 58.5578 72.2368 58.2699 72.34L57.2699 72.65L60.4799 74.15C60.1299 74.69 59.6399 74.65 59.0699 74.38L55.1699 72.59L54.1699 73.32L56.1699 74.2C55.6399 74.36 55.3199 74.56 55.0499 74.51C54.3976 74.4266 53.7649 74.2303 53.1799 73.93C51.9995 73.3652 50.6589 73.2308 49.3899 73.55L50.0099 73.73C50.2837 73.7973 50.5513 73.8876 50.8099 74C51.0012 74.1294 51.1644 74.2961 51.2899 74.49C51.2899 74.49 51.1799 74.7 51.0999 74.8C51.0199 74.9 50.9899 74.8 50.9599 74.8C49.8999 74.16 48.5699 74.33 47.5399 73.56C47.0099 73.17 46.3099 73.32 45.2199 73.82C45.3999 73.9 45.6399 73.94 45.7199 74.06C45.7999 74.18 46.5699 74.15 46.2899 74.67C46.2099 74.82 45.6599 74.84 45.3699 74.76C44.8245 74.6242 44.3022 74.4086 43.8199 74.12C42.9399 73.54 41.9199 73.72 40.9599 73.42C41.2399 73.81 41.8899 73.91 41.7099 74.56C40.9123 74.5297 40.1351 74.2993 39.4499 73.89C38.7573 73.4618 37.9259 73.3185 37.1299 73.49C37.1299 73.55 37.1299 73.65 37.1899 73.66C37.5299 73.75 38.0399 73.66 37.9099 74.26C37.8499 74.55 37.3399 74.73 36.9099 74.53C35.9322 74.0598 34.9868 73.5253 34.0799 72.93C33.7445 72.6728 33.3325 72.5355 32.9099 72.54H29.9999C29.9338 72.4415 29.8566 72.3509 29.7699 72.27C29.7199 72.27 29.5999 72.27 29.5199 72.33C29.4399 72.39 29.6499 72.48 29.7399 72.51C29.8263 72.5254 29.9149 72.522 29.9999 72.5ZM68.6899 46.32C68.6748 46.4094 68.6748 46.5006 68.6899 46.59C68.732 46.6791 68.7935 46.7577 68.8699 46.82C68.8699 46.74 68.9599 46.63 68.9299 46.58C68.852 46.4873 68.761 46.4065 68.6599 46.34C68.6844 46.0071 68.6844 45.6729 68.6599 45.34C68.635 44.6832 68.4714 44.0391 68.1799 43.45C67.5165 42.5025 66.5824 41.7775 65.4999 41.37C64.1169 40.9534 62.6502 40.8984 61.2399 41.21C60.4858 41.3207 59.7758 41.634 59.1858 42.1166C58.5959 42.5991 58.1479 43.2328 57.8899 43.95C57.3599 45.31 57.6599 46.7 57.6099 48.09C57.6099 48.77 58.2399 49.09 58.4699 49.68C58.5542 49.8515 58.6583 50.0126 58.7799 50.16C58.8981 50.4064 59.0682 50.6244 59.2784 50.7991C59.4886 50.9738 59.734 51.1011 59.9979 51.1723C60.2618 51.2435 60.538 51.2569 60.8076 51.2117C61.0771 51.1664 61.3337 51.0635 61.5599 50.91C61.7129 50.8001 61.8965 50.741 62.0849 50.741C62.2733 50.741 62.4569 50.8001 62.6099 50.91C62.6881 50.9466 62.7735 50.9656 62.8599 50.9656C62.9463 50.9656 63.0316 50.9466 63.1099 50.91C63.3622 50.7632 63.5644 50.5436 63.6899 50.28C63.7999 49.88 64.0499 49.81 64.3199 49.93C64.5899 50.05 64.5599 50.3 64.5599 50.51C64.5429 50.7687 64.4925 51.0242 64.4099 51.27C65.8199 51.34 66.0099 51.27 66.2299 50.09C66.2299 49.85 66.0899 49.58 66.0699 49.32C66.0859 49.1355 66.1263 48.9539 66.1899 48.78C66.3654 48.8087 66.5367 48.8591 66.6999 48.93C67.2699 49.26 67.1499 49.93 67.2899 50.5C67.4999 50.31 67.6299 50.17 67.7799 50.04C68.0564 49.8489 68.251 49.5609 68.3251 49.233C68.3992 48.9051 68.3474 48.5614 68.1799 48.27C67.9099 47.65 67.8799 46.91 67.5599 46.27C67.5222 46.2107 67.5073 46.1397 67.518 46.0703C67.5287 46.0009 67.5642 45.9376 67.618 45.8924C67.6717 45.8472 67.7401 45.823 67.8103 45.8244C67.8806 45.8258 67.9479 45.8527 67.9999 45.9C68.2367 46.0285 68.467 46.1686 68.6899 46.32ZM30.5799 36.43L30.6799 36.65L30.7799 36.53L30.5599 36.45C30.6437 35.881 30.5458 35.3 30.2799 34.79C29.9786 33.7836 29.4286 32.8693 28.6805 32.1317C27.9324 31.3941 27.0105 30.857 25.9999 30.57C25.0628 30.3996 24.1124 30.3126 23.1599 30.31C22.6554 30.2754 22.1505 30.3724 21.6947 30.5915C21.239 30.8106 20.8479 31.1443 20.5599 31.56C19.6799 32.75 18.5599 33.89 18.6099 35.56C17.9499 36.9 18.4999 38.06 19.1699 39.18C19.6383 39.891 20.3215 40.434 21.1199 40.73C21.7599 41.02 22.3099 40.59 22.8399 40.27C22.9325 40.2535 23.0273 40.2535 23.1199 40.27C23.4299 41.19 23.6899 41.34 24.4699 40.94C24.8012 40.7804 25.0867 40.5396 25.2999 40.24C25.4799 39.97 25.6199 39.89 25.8499 40.06C26.0799 40.23 26.2399 40.35 25.9899 40.64C25.9718 40.7175 25.9733 40.7983 25.9943 40.8752C26.0152 40.952 26.055 41.0224 26.1099 41.08C26.2508 41.1358 26.4015 41.1627 26.5531 41.159C26.7046 41.1554 26.8539 41.1213 26.9919 41.0588C27.13 40.9963 27.2541 40.9066 27.3569 40.7952C27.4596 40.6837 27.5388 40.5527 27.5899 40.41C27.628 40.2734 27.6449 40.1317 27.6399 39.99C27.6399 39.65 27.9299 39.62 28.1599 39.69C28.3899 39.76 28.4099 39.91 28.4999 40.05C28.5254 40.145 28.5254 40.245 28.4999 40.34C28.4499 40.59 28.3999 40.83 28.3199 41.17C28.9499 40.97 29.2199 40.66 29.0299 40.08C28.8983 39.726 28.7848 39.3655 28.6899 39C28.6474 38.7913 28.683 38.5742 28.7899 38.39C28.9999 38.06 29.1999 38.39 29.3699 38.49C29.511 38.5918 29.63 38.721 29.7199 38.87C29.8999 39.13 30.1099 39.14 30.2599 38.87C30.4059 38.6848 30.4853 38.4558 30.4853 38.22C30.4853 37.9842 30.4059 37.7552 30.2599 37.57C30.0279 37.2607 29.8332 36.925 29.6799 36.57C29.6635 36.5041 29.6651 36.435 29.6844 36.37C29.7038 36.3049 29.7402 36.2462 29.7899 36.2C29.8599 36.14 30.0399 36.2 30.1599 36.2C30.3079 36.2611 30.4487 36.3382 30.5799 36.43ZM35.5099 28.76C35.5099 29.42 35.5099 29.85 35.5099 30.28C35.6599 34.66 35.2599 39.06 35.7699 43.44C35.9399 44.87 35.7699 46.34 35.7699 47.8C35.8799 52.04 35.6099 56.27 35.9899 60.52C36.3299 64.21 36.2399 67.93 36.3399 71.64C36.3507 71.8418 36.3774 72.0424 36.4199 72.24C38.3199 72.24 40.1499 72.24 41.9899 72.24C42.5999 72.24 43.1999 72.48 43.8099 72.48C44.4199 72.48 45.1199 72.27 45.8099 72.23C47.9599 72.11 50.1199 72.03 52.2699 71.93C52.5899 71.93 52.9099 71.87 53.2699 71.83C53.2699 71.35 53.2699 70.97 53.2699 70.58C53.2699 70.19 53.2699 69.75 53.2099 69.14C53.049 69.4001 52.8685 69.6474 52.6699 69.88C52.3651 70.1776 52.0299 70.4423 51.6699 70.67C51.5699 70.74 51.3199 70.67 51.1699 70.57C51.0199 70.47 50.9899 70.33 51.0999 70.11C51.2581 69.7112 51.5191 69.3614 51.8564 69.0962C52.1936 68.831 52.595 68.6598 53.0199 68.6C53.0693 68.5805 53.1132 68.5495 53.148 68.5095C53.1828 68.4694 53.2075 68.4216 53.2199 68.37C53.2199 67.89 53.2199 67.37 53.2199 66.92C53.2199 66.47 53.2199 66.02 53.2199 65.45C52.7099 65.93 52.3399 66.31 51.9199 66.64C51.8384 66.6838 51.7474 66.7067 51.6549 66.7067C51.5624 66.7067 51.4714 66.6838 51.3899 66.64C51.3099 66.64 51.2999 66.28 51.3899 66.16C51.7599 65.58 51.8799 64.84 52.6699 64.53C53.4599 64.22 53.4099 64.05 53.2199 63.34C53.1299 63.02 53.0099 62.72 52.8199 62.15C52.4499 62.61 52.1699 62.99 51.8199 63.34C51.7399 63.43 51.4899 63.52 51.4599 63.48C51.3401 63.3535 51.2631 63.1926 51.2399 63.02C51.2399 62.22 51.8399 61.89 52.3799 61.49C52.5899 61.33 52.9399 61.11 52.9399 60.93C52.9399 59.93 53.1999 58.93 52.5599 58.02L51.6299 58.85C51.2499 57.92 51.9099 57.42 52.3699 56.85C52.5241 56.6988 52.6347 56.5088 52.6899 56.3C52.6899 55.44 52.6899 54.58 52.6899 53.58C52.1999 54.14 51.8599 54.58 51.4799 54.96C51.4261 55.0038 51.3626 55.0339 51.2947 55.0478C51.2268 55.0618 51.1565 55.0591 51.0899 55.04C50.9999 55.04 50.9399 54.82 50.9299 54.69C50.9249 54.4049 50.9772 54.1216 51.0837 53.8571C51.1902 53.5926 51.3487 53.3521 51.5499 53.15C51.9199 52.66 52.3099 52.15 52.6599 51.66C52.721 50.7517 52.6536 49.8394 52.4599 48.95C52.2099 49.37 52.0099 49.74 51.7799 50.09C51.6656 50.2117 51.5342 50.3161 51.3899 50.4C51.3152 50.2893 51.2579 50.1679 51.2199 50.04C51.1732 49.7559 51.2012 49.4646 51.3011 49.1946C51.4011 48.9246 51.5695 48.6852 51.7899 48.5C52.1499 48.16 52.6899 47.92 52.6799 47.26C52.6799 46.31 52.6799 45.35 52.6799 44.09C52.2599 44.8 52.0099 45.24 51.7399 45.66C51.617 45.7919 51.4795 45.9094 51.3299 46.01C51.1999 45.82 50.9899 45.64 50.9499 45.43C50.9103 45.1438 50.9426 44.8522 51.0438 44.5816C51.1451 44.311 51.3121 44.0699 51.5299 43.88C51.9962 43.4681 52.346 42.9408 52.5443 42.3511C52.7426 41.7614 52.7825 41.13 52.6599 40.52C52.6294 40.4275 52.5857 40.3399 52.5299 40.26C52.3899 40.41 52.1899 40.53 52.1399 40.7C52.0499 41.05 51.8599 41.2 51.5299 41.12C51.0199 41 51.1599 40.53 51.2599 40.29C51.5357 39.6937 51.8497 39.1159 52.1999 38.56C52.3399 38.32 52.6399 38.09 52.6399 37.86C52.7271 36.8035 52.7002 35.7407 52.5599 34.69C52.2399 35.2 52.0199 35.62 51.7399 36C51.7124 36.0547 51.6703 36.1007 51.6182 36.1329C51.5661 36.1651 51.5061 36.1821 51.4449 36.1821C51.3837 36.1821 51.3236 36.1651 51.2715 36.1329C51.2194 36.1007 51.1773 36.0547 51.1499 36C51.0942 35.9098 51.0575 35.8091 51.042 35.7043C51.0266 35.5994 51.0326 35.4924 51.0599 35.39C51.2908 34.709 51.6938 34.0992 52.2299 33.62C52.4004 33.4857 52.532 33.3083 52.6111 33.1061C52.6902 32.904 52.714 32.6844 52.6799 32.47C52.6799 32 52.6799 31.53 52.6799 31C52.2199 31.51 51.8499 31.93 51.4599 32.32C51.4111 32.3612 51.3501 32.3852 51.2863 32.3882C51.2225 32.3912 51.1594 32.3731 51.107 32.3366C51.0546 32.3001 51.0156 32.2474 50.9963 32.1865C50.9769 32.1256 50.9782 32.0601 50.9999 32C50.9917 31.7209 51.0358 31.4428 51.1299 31.18C51.3824 30.5507 51.8406 30.0255 52.4299 29.69C52.5135 29.6282 52.5802 29.5463 52.6239 29.4519C52.6676 29.3576 52.6868 29.2537 52.6799 29.15C52.622 29.0643 52.5448 28.9934 52.4544 28.943C52.3641 28.8926 52.2632 28.8642 52.1599 28.86C50.8899 28.96 49.6199 28.86 48.3599 28.86C47.9258 28.8241 47.4888 28.8442 47.0599 28.92C45.5082 29.279 43.9012 29.33 42.3299 29.07C40.8862 28.7948 39.4036 28.7948 37.9599 29.07C37.7718 29.0922 37.5811 29.0752 37.3999 29.02L35.5099 28.76ZM34.6099 60.68C34.1086 61.2088 33.6346 61.7628 33.1899 62.34C32.9699 62.67 32.7299 62.68 32.4899 62.53C32.4099 62.48 32.4899 62.13 32.4899 61.93C32.6399 60.93 33.4899 60.43 33.9299 59.68C34.0799 59.45 34.3099 59.2 34.3099 58.95C34.3841 58.2157 34.3504 57.4745 34.2099 56.75C33.9999 57 33.8199 57.13 33.7599 57.29C33.6999 57.45 33.5499 57.77 33.2699 57.6C32.9899 57.43 32.7299 57.26 32.9399 56.92C33.1587 56.4985 33.4421 56.1138 33.7799 55.78C33.9849 55.6124 34.1426 55.3941 34.2373 55.1468C34.3321 54.8995 34.3605 54.6317 34.3199 54.37C34.3199 53.95 34.3199 53.52 34.3199 52.98C33.8499 53.34 33.4999 53.63 33.1199 53.87C33.0536 53.8945 32.9821 53.9018 32.9122 53.8913C32.8423 53.8808 32.7761 53.8528 32.7199 53.81C32.6762 53.7622 32.6459 53.7038 32.6318 53.6407C32.6178 53.5775 32.6206 53.5117 32.6399 53.45C32.9999 52.94 33.3799 52.45 33.7599 51.97C33.9399 51.75 34.2899 51.54 34.2899 51.32C34.2899 50.16 34.8999 49.01 34.4299 47.68C33.9899 48.17 33.6099 48.62 33.1999 49.02C33.0899 49.13 32.8699 49.13 32.7099 49.18C32.7099 49 32.5499 48.79 32.5999 48.64C32.9048 47.813 33.4743 47.11 34.2199 46.64C34.4099 46.5 34.6199 46.45 34.6199 46.15C34.6199 45.24 34.6199 44.33 34.6199 43.42L34.3399 43.27C33.8299 43.85 33.3399 44.44 32.8099 45.01C32.7567 45.0511 32.694 45.0782 32.6276 45.0887C32.5612 45.0992 32.4932 45.0927 32.4299 45.07C32.3796 45.0215 32.3416 44.9618 32.319 44.8957C32.2964 44.8296 32.2898 44.7591 32.2999 44.69C32.5771 43.7661 33.2005 42.9851 34.0399 42.51C34.189 42.3863 34.3262 42.2491 34.4499 42.1C33.0199 42.24 31.7299 42.44 30.4499 42.48C29.5499 42.48 28.6499 42.22 27.7499 42.24C25.7841 42.1453 23.8139 42.2155 21.8599 42.45C20.6033 42.5803 19.3365 42.5803 18.0799 42.45C17.1686 42.3728 16.2533 42.542 15.4299 42.94C15.4399 43.1265 15.4399 43.3135 15.4299 43.5C15.4196 44.8382 15.5098 46.1753 15.6999 47.5C15.7799 49.18 15.4799 50.86 15.4799 52.5C15.4799 56.98 15.1399 61.5 15.6899 65.96C15.8199 67.01 15.6899 68.09 15.6899 69.15C15.6899 69.94 15.8599 70.73 15.9599 71.52C16.5299 71.6076 17.1099 71.6076 17.6799 71.52C18.3278 71.3255 19.0044 71.2443 19.6799 71.28C21.2599 71.19 22.8299 71.28 24.4199 71.05C27.1899 70.67 29.9799 71.23 32.7699 71.3C32.8646 71.2983 32.9579 71.3225 33.0399 71.37C33.6043 71.6148 34.2343 71.6641 34.8299 71.51V68.1L33.2299 69.62C33.1399 69.4 32.9699 69.17 33.0199 69.03C33.3064 68.2271 33.8294 67.5298 34.5199 67.03C34.6085 66.9728 34.6843 66.898 34.7428 66.8103C34.8013 66.7225 34.8412 66.6237 34.8599 66.52C34.7599 65.73 34.5999 64.95 34.4599 64.13L33.2099 65.71C33.0899 65.29 32.8799 64.98 32.9599 64.82C33.174 64.3393 33.4836 63.9072 33.8699 63.55C34.1523 63.3288 34.37 63.0357 34.5002 62.7014C34.6304 62.3671 34.6683 62.0039 34.6099 61.65C34.6299 61.38 34.6299 61.15 34.6099 60.68ZM70.7199 54.31C70.3399 54.78 70.1699 55.13 69.8799 55.31C69.5899 55.49 69.2999 55.9 68.8799 55.44C68.4599 54.98 68.9499 54.77 69.0799 54.6C69.5992 53.9725 70.1499 53.3718 70.7299 52.8C68.4699 52.67 66.3599 52.47 64.2599 52.47C61.7699 52.47 59.2599 52.65 56.7799 52.72C56.0299 52.72 55.2799 52.64 54.4099 52.58C54.4099 52.83 54.4099 53.16 54.4099 53.48C54.5099 56.7 54.2999 59.92 54.6499 63.15C54.8999 65.55 54.6999 67.99 54.7099 70.41C54.7099 70.73 54.7699 71.04 54.8099 71.47C56.8099 71.34 58.7299 71.11 60.6399 71.1C62.7899 71.1 64.9499 71.24 67.1099 71.36C68.1999 71.42 69.2099 71.41 69.6999 70.18C69.748 70.097 69.8169 70.0281 69.8999 69.98C70.2268 69.7725 70.4813 69.4687 70.6281 69.1105C70.775 68.7522 70.8071 68.3572 70.7199 67.98C70.7199 67.76 70.7199 67.53 70.6399 67.22L69.4199 68.4C68.9499 68.13 68.7899 67.77 69.1099 67.32C69.4961 66.7736 69.9169 66.2525 70.3699 65.76C70.4897 65.6463 70.5832 65.5076 70.6437 65.3538C70.7041 65.2001 70.7302 65.0349 70.7199 64.87C70.7199 64.44 70.7199 64.02 70.7199 63.32C70.5033 63.6721 70.2592 64.0064 69.9899 64.32C69.825 64.4108 69.6307 64.4324 69.4499 64.38C69.3599 64.38 69.2799 64.16 69.2599 64.03C69.2267 63.8646 69.2359 63.6936 69.2866 63.5327C69.3373 63.3719 69.4279 63.2264 69.5499 63.11C69.8415 62.8585 70.1093 62.5807 70.3499 62.28C70.5358 62.0751 70.6605 61.8222 70.7099 61.55C70.7099 60.79 70.7099 60.03 70.7099 59.16L69.7099 60.22C69.5205 59.8759 69.4617 59.4749 69.5444 59.0909C69.6271 58.7069 69.8456 58.3657 70.1599 58.13C70.3285 58.0374 70.4693 57.9014 70.5677 57.7361C70.6662 57.5709 70.7187 57.3823 70.7199 57.19C70.6999 56.28 70.7199 55.42 70.7199 54.31ZM44.5299 15.46C44.8699 16.25 45.1199 16.9 45.4399 17.52C45.501 17.6088 45.5812 17.6827 45.6746 17.7364C45.7681 17.79 45.8724 17.822 45.9799 17.83C46.9799 17.83 47.7399 18.49 48.5999 18.83C48.9899 19 48.9899 19.33 48.5999 19.64C48.2099 19.95 47.6999 20.34 47.2299 20.64C46.5099 21.14 46.5399 21.13 46.7599 21.95C46.9553 22.6183 47.0793 23.3055 47.1299 24C47.1299 24.58 46.6899 24.82 46.1299 24.58C46.0399 24.58 45.9399 24.58 45.8499 24.5C44.9764 23.9225 44.0134 23.4934 42.9999 23.23C41.9198 23.2405 40.8703 23.5903 39.9999 24.23C39.9163 24.2752 39.8206 24.2928 39.7264 24.2802C39.6322 24.2677 39.5445 24.2256 39.4756 24.1601C39.4068 24.0946 39.3605 24.009 39.3433 23.9156C39.3261 23.8222 39.3389 23.7257 39.3799 23.64C39.6399 22.93 39.9499 22.24 40.2399 21.55C40.3108 21.2185 40.3034 20.8751 40.2183 20.5471C40.1333 20.219 39.9729 19.9152 39.7499 19.66C39.6659 19.6185 39.5735 19.597 39.4799 19.597C39.3862 19.597 39.2939 19.6185 39.2099 19.66C38.9299 19.91 38.5299 20.22 38.5099 20.52C38.4299 21.87 38.4399 23.23 38.5099 24.58C38.5099 25.18 38.9499 25.43 39.5099 25.45L40.9499 25.53C40.6799 25.86 40.5699 26.08 40.3899 26.19C40.1407 26.3087 39.8791 26.3993 39.6099 26.46C39.8199 26.57 39.9999 26.6 40.0599 26.7C40.4099 27.21 40.8699 27 41.2799 26.88C41.6899 26.76 42.1299 26.49 42.5799 26.34C42.6679 26.3289 42.7573 26.3406 42.8396 26.3738C42.9219 26.4071 42.9943 26.4608 43.0499 26.53C43.0763 26.6072 43.0855 26.6893 43.0769 26.7705C43.0683 26.8517 43.042 26.93 42.9999 27C42.6577 27.2367 42.3003 27.4505 41.9299 27.64C43.6099 27.77 43.6099 27.77 44.7399 26.57C44.7968 26.5212 44.8651 26.4874 44.9385 26.4716C45.0118 26.4559 45.0879 26.4588 45.1599 26.48C45.2899 26.59 45.4399 26.82 45.3999 26.95C45.2638 27.296 45.0999 27.6304 44.9099 27.95C45.9099 27.95 45.9699 27.95 46.3299 27.34C46.5399 26.97 46.6799 26.57 46.9199 26.22C47.1599 25.87 47.3799 25.73 47.5399 25.77C47.8999 25.86 47.7499 26.2 47.6699 26.48C47.5899 26.76 47.5299 27.07 47.4299 27.54C48.7099 26.43 49.0199 25.78 48.9599 24.41C48.9599 24.09 49.0499 23.98 49.3399 23.97C49.6299 23.96 49.7799 24.08 49.7899 24.39C49.7999 24.7 49.7899 25.23 49.8699 25.88C50.1657 25.4301 50.3429 24.9127 50.3849 24.3759C50.4268 23.8391 50.3322 23.3004 50.1099 22.81C50.3899 22.4 49.4499 22.1 50.0099 21.67L50.9499 22.46C51.0336 22.5856 51.104 22.7197 51.1599 22.86C51.1754 22.673 51.2123 22.4885 51.2699 22.31C51.8599 21.19 51.3499 20.31 50.8399 19.26C49.5399 16.67 47.3499 15.77 44.5299 15.46ZM40.9999 17.83C41.4977 17.7936 41.9697 17.5948 42.3437 17.2642C42.7176 16.9337 42.9727 16.4895 43.0699 16C43.0787 15.9316 43.0706 15.862 43.0462 15.7975C43.0218 15.7329 42.9818 15.6754 42.9299 15.63C42.7799 15.56 42.5099 15.49 42.4099 15.58C41.6999 16.12 41.0099 16.7 40.3299 17.28C40.2838 17.3308 40.25 17.3914 40.2309 17.4573C40.2118 17.5231 40.2081 17.5925 40.2199 17.66C40.2199 17.75 40.4099 17.83 40.5299 17.87C40.6876 17.8752 40.8453 17.8618 40.9999 17.83ZM70.8399 71.27L70.5299 70.84C70.4014 70.9543 70.2932 71.0895 70.2099 71.24C70.2099 71.29 70.3599 71.48 70.4699 71.51C70.5799 71.54 70.6799 71.38 70.8399 71.27ZM56.5199 72.35C56.5773 72.4087 56.6451 72.4562 56.7199 72.49C56.7999 72.49 56.8799 72.49 56.9599 72.41C57.0399 72.33 56.8199 72.27 56.7399 72.25C56.6599 72.23 56.5899 72.32 56.5199 72.35Z" fill="white"/>
<path d="M64.9998 75.06C64.8098 75.2 64.6298 75.41 64.5598 75.37C64.3743 75.2623 64.2086 75.1236 64.0698 74.96C64.2438 74.819 64.4354 74.7013 64.6398 74.61C64.6398 74.61 64.8498 74.85 64.9998 75.06Z" fill="white"/>
<path d="M46.23 75C46.38 75.18 46.55 75.33 46.53 75.35C46.3793 75.5866 46.2014 75.8048 46 76C45.8992 75.9411 45.8081 75.8668 45.73 75.78C45.87 75.52 46 75.31 46.23 75Z" fill="white"/>
<path d="M73.9998 72.4C73.7277 72.463 73.4491 72.4932 73.1698 72.49C73.0398 72.49 72.9398 72.28 72.8198 72.17C72.9698 72.11 73.1298 71.97 73.2498 72C73.5131 72.1067 73.7645 72.2408 73.9998 72.4Z" fill="white"/>
<path d="M69 75.66C68.84 75.26 68.72 75.1 68.74 74.97C68.76 74.84 68.92 74.71 69.02 74.59C69.12 74.72 69.27 74.84 69.29 74.99C69.31 75.14 69.13 75.27 69 75.66Z" fill="white"/>
<path d="M41.6099 74.57H42.7099L41.8699 75.1L41.6399 74.53L41.6099 74.57Z" fill="white"/>
<path d="M57.18 75.6C56.84 75.66 56.66 75.74 56.52 75.7C56.38 75.66 56.31 75.49 56.21 75.38C56.3 75.3 56.42 75.15 56.48 75.17C56.7218 75.299 56.9556 75.4426 57.18 75.6Z" fill="white"/>
<path d="M75.9997 73.6L75.7497 73.94L75.4097 73.67C75.4897 73.59 75.5597 73.46 75.6497 73.44C75.7397 73.42 75.8497 73.53 75.9997 73.6Z" fill="white"/>
<path d="M61.1001 75.48L60.8301 75.16L61.1901 74.87C61.2501 74.97 61.3601 75.08 61.3601 75.18C61.3601 75.28 61.2201 75.35 61.1001 75.48Z" fill="white"/>
<path d="M73.3301 74.92C73.2395 74.9919 73.1383 75.0493 73.0301 75.09C72.9701 75.09 72.8801 75.03 72.8101 74.99L73.2101 74.61L73.3301 74.92Z" fill="white"/>
<path d="M51.8599 75.48C51.9599 75.54 52.0599 75.57 52.0699 75.61C52.0997 75.6906 52.0997 75.7793 52.0699 75.86H51.9099C51.9099 75.86 51.8599 75.63 51.8599 75.48Z" fill="white"/>
<path d="M46.8499 33C46.9811 33.8083 47.0712 34.6226 47.1199 35.44C47.1199 37.37 47.1199 39.31 47.1199 41.24C47.5789 41.3305 48.0166 41.5069 48.4099 41.76C48.6069 42.0022 48.7506 42.2833 48.8316 42.5849C48.9126 42.8864 48.9291 43.2017 48.8799 43.51C48.8799 44.33 48.8799 45.16 48.8799 45.98C48.8799 46.8 48.6899 46.98 47.9599 46.98C45.9553 47.0659 43.947 46.9689 41.9599 46.69C41.5099 46.62 41.3499 46.29 41.3499 45.85C41.3499 44.45 41.3499 43.05 41.3499 41.55L42.6899 41.41C42.7514 41.3018 42.7921 41.1831 42.8099 41.06C42.8099 40.52 42.8099 39.99 42.8099 39.46C42.8099 38.6 42.5199 38.33 41.6099 38.27C41.2299 38.27 40.8299 38.27 40.4499 38.27C40.0699 38.27 39.7999 37.76 39.9799 37.53C40.9299 36.28 41.2799 34.66 42.4399 33.53C42.5579 33.3764 42.7092 33.2517 42.8825 33.165C43.0557 33.0784 43.2463 33.0323 43.4399 33.03C44.5099 33 45.6199 33 46.8499 33ZM42.7799 45.48H46.4599C46.8699 45.48 47.2899 46.1 47.6199 45.62C47.8299 45.32 47.7199 44.79 47.7299 44.37C47.7299 43.79 47.7299 43.22 47.7299 42.63C46.5199 42.95 46.0299 42.63 46.0199 41.49C46.0199 39.42 46.0199 37.34 46.0199 35.26C46.0199 34.89 46.0199 34.52 45.9699 34.12H44.9999C44.4989 34.0657 43.994 34.1798 43.5649 34.4441C43.1358 34.7084 42.8068 35.1081 42.6299 35.58C42.3799 36.16 42.0499 36.69 41.7399 37.28L43.7399 37.39C43.6323 37.9818 43.6323 38.5882 43.7399 39.18C43.9237 39.8714 44.0111 40.5847 43.9999 41.3C44.0587 41.4941 44.0443 41.703 43.9596 41.8872C43.8748 42.0715 43.7255 42.2183 43.5399 42.3C42.7499 42.58 42.8099 43.17 42.8299 43.8C42.8499 44.43 42.7799 44.81 42.7799 45.48Z" fill="white"/>
<path d="M24.3001 53.75C25.3001 53.65 26.1501 53.39 26.9501 53.84C27.0431 53.8513 27.1371 53.8513 27.2301 53.84C27.6901 53.91 28.2301 53.84 28.5901 54.09C29.0801 54.48 28.7901 55.17 28.8201 55.73C28.8501 56.29 28.8201 56.99 28.8201 57.62C28.8201 58.25 28.5501 58.76 27.8901 58.75C26.1201 58.75 24.3401 59.03 22.5701 58.57C21.9972 58.4894 21.4173 58.4693 20.8401 58.51C20.7441 58.5172 20.6477 58.5039 20.5572 58.471C20.4667 58.4382 20.3843 58.3865 20.3153 58.3194C20.2463 58.2522 20.1923 58.1712 20.1569 58.0817C20.1216 57.9922 20.1056 57.8962 20.1101 57.8C20.1101 56.63 20.1101 55.47 20.1101 54.31C20.1101 54.17 20.1101 53.97 20.2201 53.92C21.1401 53.37 20.8601 52.04 21.8401 51.49C22.5273 51.0559 23.1763 50.5641 23.7801 50.02C23.9157 49.9191 24.0236 49.7854 24.0935 49.6315C24.1635 49.4776 24.1933 49.3085 24.1801 49.14C24.1801 48.69 23.9601 48.46 23.5601 48.62C22.9501 48.86 22.3801 49.16 21.7301 49.47C21.4401 49.21 21.1301 48.91 20.8001 48.64C19.8801 47.87 19.8701 46.96 20.8501 46.34C21.8129 45.7503 22.8839 45.3593 24.0001 45.19C24.6675 45.0729 25.3548 45.1741 25.96 45.4785C26.5653 45.7829 27.0563 46.2744 27.3601 46.88C27.7196 47.3871 27.9127 47.9934 27.9127 48.615C27.9127 49.2366 27.7196 49.8429 27.3601 50.35C26.8105 51.356 26.0289 52.2165 25.0801 52.86C24.8301 53 24.6401 53.37 24.3001 53.75ZM28.0601 54.75C26.7301 54.9 25.6301 54.51 24.5601 55.03C24.369 55.1022 24.1572 55.0966 23.9702 55.0143C23.7832 54.932 23.636 54.7797 23.5601 54.59C23.4654 54.1703 23.481 53.7333 23.6054 53.3214C23.7298 52.9096 23.9588 52.537 24.2701 52.24C25.0711 51.7228 25.7529 51.041 26.2701 50.24C26.637 49.7443 26.8301 49.1414 26.8192 48.5248C26.8084 47.9082 26.5942 47.3124 26.2101 46.83C26.0268 46.5775 25.7813 46.3766 25.4974 46.247C25.2136 46.1173 24.901 46.0632 24.5901 46.09C23.4684 46.2311 22.3904 46.6132 21.4301 47.21C21.2684 47.3167 21.1346 47.4608 21.0401 47.63C20.9938 47.749 20.9938 47.881 21.0401 48C21.4101 48.1 21.6501 48.64 22.1801 48.25C22.6459 47.9062 23.2251 47.7524 23.8001 47.82C24.1078 47.8257 24.4027 47.9437 24.6293 48.1519C24.8558 48.3601 24.9984 48.6439 25.0301 48.95C25.0852 49.3952 25.0185 49.847 24.8372 50.2574C24.6558 50.6677 24.3665 51.0211 24.0001 51.28C23.5601 51.63 23.0001 51.88 22.5801 52.21C22.193 52.4853 21.9165 52.8894 21.8001 53.35C21.4811 54.5462 21.2637 55.7672 21.1501 57C21.1501 57.58 21.3001 57.69 21.6701 57.7C23.5101 57.7 25.3501 57.7 27.1901 57.7C27.5801 57.7 27.7001 57.49 27.7401 57.2C27.8501 56.45 27.9401 55.7 28.0601 54.74V54.75Z" fill="white"/>
<path d="M60.34 58.66C59.79 58.74 59.42 58.78 59.06 58.85C58.35 58.98 58.24 58.93 58.22 58.3C58.22 57.48 58.22 56.66 58.22 55.84C58.2057 55.6711 58.2523 55.5027 58.3513 55.3651C58.4503 55.2276 58.5953 55.13 58.76 55.09C59.2509 54.9221 59.7622 54.8212 60.28 54.79C61.82 54.79 63.37 54.79 64.92 54.79C65.0767 54.7849 65.2327 54.8134 65.3775 54.8735C65.5223 54.9337 65.6525 55.0241 65.7596 55.1386C65.8666 55.2532 65.9478 55.3894 65.9979 55.5379C66.048 55.6865 66.0658 55.844 66.05 56C66.05 56.43 66.05 56.87 66.05 57.3C66.17 58.41 66.05 59.3 64.44 59.52C64.8373 59.6531 65.2249 59.8135 65.6 60C66.0026 60.2722 66.3378 60.6324 66.5804 61.0535C66.823 61.4745 66.9665 61.9453 67 62.43C67.24 64.9 65.8 66.08 64 66.89C63.21 67.2129 62.3505 67.3282 61.5032 67.225C60.656 67.1217 59.8494 66.8033 59.16 66.3C58.7471 65.992 58.4093 65.5945 58.172 65.1372C57.9348 64.68 57.8042 64.1749 57.79 63.66C57.801 63.4068 57.8743 63.1603 58.0034 62.9423C58.1325 62.7242 58.3134 62.5414 58.53 62.41C59.0332 62.2766 59.5671 62.3225 60.04 62.54C60.4613 62.7567 60.8515 63.0292 61.2 63.35C61.61 63.66 61.83 63.35 62 63.07C62.17 62.79 62.2 62.51 61.85 62.34L60.21 61.53C59.39 61.14 59.21 60.78 59.65 59.97C59.76 59.55 60 59.17 60.34 58.66ZM60.76 60.42C61.1285 60.5641 61.4861 60.7345 61.83 60.93C62.1813 61.1807 62.5154 61.4547 62.83 61.75C62.964 61.8225 63.0811 61.9226 63.1737 62.0436C63.2662 62.1646 63.3322 62.3038 63.3671 62.452C63.402 62.6003 63.4052 62.7543 63.3764 62.9039C63.3476 63.0535 63.2875 63.1953 63.2 63.32C62.44 64.85 61.09 65.09 59.68 63.95C59.45 63.76 59.26 63.27 58.9 63.63C58.79 63.75 58.95 64.28 59.13 64.51C59.4999 65.0015 60.0032 65.3764 60.58 65.59C61.3472 65.8591 62.1707 65.9259 62.9712 65.7841C63.7717 65.6422 64.5221 65.2964 65.15 64.78C66.26 64.01 65.96 61.78 64.77 61.11C64.2079 60.7435 63.5511 60.5489 62.88 60.55C62.7663 60.5335 62.6588 60.4881 62.5677 60.418C62.4767 60.348 62.4051 60.2557 62.36 60.15C62.3555 60.0393 62.3756 59.929 62.4189 59.827C62.4621 59.7249 62.5274 59.6338 62.61 59.56C62.871 59.2832 63.1928 59.0709 63.55 58.94C64.7 58.67 65 57.88 65 56.85C65 56.8 65.07 56.77 65.07 56.72C65.07 56.15 64.69 55.72 64.18 55.98C63.3301 56.325 62.3875 56.3673 61.51 56.1C60.85 55.9828 60.1803 55.9292 59.51 55.94C59.1 55.94 58.94 56.19 59.07 56.62C59.2 57.05 59.35 57.31 59.49 57.62C60.49 57.35 61.49 56.93 62.2 58.09L60.76 60.42Z" fill="white"/>
<path d="M22.4698 35.33C23.079 34.787 23.6598 34.2129 24.2098 33.61C24.9498 32.72 26.0398 32.71 26.9998 32.39C27.0898 32.39 27.2498 32.48 27.3398 32.57C27.4298 32.66 27.3398 32.78 27.3398 32.83C27.1282 33.0921 26.8788 33.3213 26.5998 33.51C25.3136 34.1756 24.2654 35.2237 23.5998 36.51C23.5363 36.693 23.4101 36.8476 23.2436 36.9464C23.077 37.0453 22.8809 37.082 22.6898 37.05C22.5069 37.0429 22.3313 36.9761 22.1898 36.86C21.6498 36.09 21.1198 35.31 20.6198 34.51C20.5298 34.36 20.6198 34.11 20.5698 33.91C20.7898 33.91 21.0898 33.91 21.2298 34.01C21.6698 34.4 22.0698 34.89 22.4698 35.33Z" fill="white"/>
<path d="M61 45C62 44.21 62.75 43.51 63.58 42.88C64.0462 42.5325 64.5492 42.2374 65.08 42C65.1869 41.9711 65.2993 41.9687 65.4074 41.9931C65.5154 42.0175 65.6159 42.068 65.7 42.14C65.7374 42.2468 65.7506 42.3605 65.7385 42.4729C65.7264 42.5854 65.6893 42.6937 65.63 42.79C65.4422 43.0744 65.1969 43.3162 64.91 43.5C63.8016 44.2469 62.8447 45.197 62.09 46.3C61.44 47.23 60.7 47.13 60.15 46.12C59.86 45.58 59.53 45.06 59.22 44.53C59.22 44.45 59.09 44.35 59.11 44.28C59.1666 44.0177 59.2754 43.7694 59.43 43.55C59.49 43.48 59.88 43.55 60.01 43.73C60.37 44.12 60.67 44.54 61 45Z" fill="white"/>
</svg>
