<svg width="90" height="90" viewBox="0 0 90 90" fill="none" xmlns="http://www.w3.org/2000/svg">
<path d="M40.1201 59.35C40.3017 59.2313 40.517 59.175 40.7334 59.1894C40.9499 59.2039 41.1558 59.2883 41.3201 59.43C42.0401 60.15 42.7501 60.88 43.4801 61.59C43.7117 61.8632 43.9005 62.1701 44.0401 62.5C44.2381 62.8048 44.4695 63.0866 44.7301 63.34C44.7901 63.89 45.2601 64.18 45.5401 64.59C45.6035 64.6772 45.6376 64.7822 45.6376 64.89C45.6376 64.9978 45.6035 65.1028 45.5401 65.19L44.1701 66.6C43.9801 66.79 43.9501 66.86 44.1701 67.11C44.3901 67.36 44.6801 67.97 44.9901 68.36C45.3424 68.7264 45.6761 69.1102 45.9901 69.51C46.1401 69.74 46.1901 70.06 46.4201 70.24C46.8401 70.56 46.8801 71.13 47.2501 71.49C47.6201 71.85 47.9401 72.23 48.3101 72.58C48.6801 72.93 48.7401 73.49 49.0601 73.88C49.0846 73.9463 49.0919 74.0178 49.0814 74.0877C49.0709 74.1576 49.0429 74.2237 49.0001 74.28C48.6701 74.67 48.6401 75.28 48.2201 75.56C47.926 75.8822 47.5639 76.135 47.1601 76.3C46.9659 76.3948 46.7977 76.5355 46.6701 76.71C46.5391 76.8396 46.3825 76.9404 46.2103 77.0058C46.0381 77.0713 45.854 77.0999 45.6701 77.09C45.3846 77.0382 45.0915 77.0461 44.8092 77.1132C44.527 77.1803 44.2617 77.3052 44.0301 77.48C43.3801 77.48 42.7301 77.48 42.0301 77.48C41.9001 77.48 41.7701 77.37 41.6401 77.31C41.2001 77.08 40.7601 76.83 40.3001 76.64C40.1296 76.579 39.9729 76.4849 39.839 76.3631C39.7051 76.2412 39.5967 76.094 39.5201 75.93C39.3879 75.5953 39.1869 75.2921 38.9301 75.04C38.5701 74.68 38.2101 74.33 37.8601 73.96C37.6601 73.75 37.4801 73.52 37.2901 73.3C37.2901 72.67 36.5901 72.41 36.4001 71.85C36.1673 71.2161 35.8934 70.5981 35.5801 70C35.3846 69.3891 35.041 68.836 34.5801 68.39C34.2143 68.0458 33.9336 67.6213 33.7601 67.15C33.4787 66.706 33.2249 66.2451 33.0001 65.77C32.6501 64.77 31.9101 64.09 31.4801 63.19C31.3297 62.9408 31.0958 62.753 30.8201 62.66C30.2826 62.463 29.7666 62.2117 29.2801 61.91C29.0201 61.7988 28.7722 61.6614 28.5401 61.5C28.0595 60.959 27.5118 60.4818 26.9101 60.08H23.6701C23.4181 60.1083 23.1629 60.0866 22.9193 60.0163C22.6756 59.9459 22.4482 59.8283 22.2501 59.67C22.2501 59.67 22.1101 59.67 22.0401 59.67C21.8546 59.678 21.6695 59.6465 21.4971 59.5775C21.3247 59.5085 21.1689 59.4037 21.0401 59.27C20.4701 58.71 19.9001 58.15 19.3101 57.61C19.2308 57.5376 19.1274 57.4975 19.0201 57.4975C18.9128 57.4975 18.8093 57.5376 18.7301 57.61C18.5087 57.7972 18.2299 57.9031 17.9401 57.91C17.6534 57.91 17.3634 57.91 17.0701 57.91C16.4701 57.91 16.0701 57.29 15.4301 57.45C15.3301 57.45 15.1701 57.33 15.0701 57.23C14.4501 56.62 13.8501 55.99 13.2301 55.38C12.9001 55.06 12.8901 54.59 12.6101 54.25C12.3301 53.91 12.4801 53.7 12.4801 53.41C12.4801 52.76 12.4801 52.1 12.4801 51.41C12.4801 50.72 12.8701 50.35 13.0001 49.8C13.4101 49.41 13.7101 48.89 14.3101 48.7C14.6905 48.5045 15.0935 48.3567 15.5101 48.26C15.7576 48.2351 15.987 48.1189 16.1534 47.934C16.3198 47.749 16.4113 47.5087 16.4101 47.26C16.4071 46.757 16.5494 46.2639 16.8201 45.84C17.0501 45.48 17.1101 45.02 17.3401 44.67C17.6465 44.2703 17.9807 43.8927 18.3401 43.54C18.4401 43.43 18.5601 43.34 18.6501 43.23C19.2238 42.5787 19.9532 42.0833 20.7701 41.79C20.9029 41.743 21.0182 41.6565 21.1004 41.5421C21.1827 41.4277 21.2279 41.2909 21.2301 41.15C21.214 40.9314 21.2702 40.7135 21.3901 40.53C21.57 40.2998 21.659 40.0115 21.6401 39.72C21.6377 39.612 21.6578 39.5046 21.6992 39.4048C21.7405 39.3049 21.8021 39.2148 21.8801 39.14C22.1801 38.82 22.4901 38.52 22.8001 38.21C23.0272 38.0408 23.2761 37.9029 23.5401 37.8C24.1501 37.43 24.8301 37.19 25.4501 36.8C26.0701 36.41 27.0001 36 27.7701 35.67C28.7701 35.67 29.7701 35.67 30.8201 35.67C30.9611 35.6909 31.095 35.7458 31.2101 35.83C31.4753 36.0204 31.7936 36.1229 32.1201 36.1229C32.4466 36.1229 32.7649 36.0204 33.0301 35.83C33.4701 35.53 34.0301 35.78 34.4301 35.33C34.9301 35.23 35.2901 34.8 35.8001 34.73C36.1801 34.39 36.7201 34.32 37.1101 34C37.5001 33.68 37.8201 33.95 38.1101 33.73C38.4667 33.4916 38.8451 33.2874 39.2401 33.12L40.2401 32.65C40.9667 32.3641 41.6421 31.9622 42.2401 31.46C42.3589 31.3795 42.4864 31.3124 42.6201 31.26C43.4156 30.9259 44.1363 30.4363 44.7401 29.82C45.0801 29.44 45.6401 29.39 45.9801 28.98C46.2693 28.5574 46.6974 28.2496 47.1901 28.11C47.3101 28.11 47.4101 27.93 47.5201 27.83C48.2445 27.0344 49.0797 26.3473 50.0001 25.79C51.0001 24.87 51.8801 24 52.8001 23C53.1601 22.65 53.2401 22.11 53.6501 21.77C54.0083 21.4232 54.3424 21.0524 54.6501 20.66C54.9741 19.9307 55.4803 19.297 56.1201 18.82C56.5101 18.46 56.5401 17.91 56.9401 17.56C57.3401 17.21 57.5201 16.92 57.8201 16.56C57.8201 16 58.4301 15.75 58.6201 15.3C58.7901 14.9038 59.0345 14.544 59.3401 14.24C59.8501 13.73 60.3401 13.24 60.8801 12.7C60.9523 12.6181 61.0418 12.5532 61.1421 12.51C61.2423 12.4668 61.3509 12.4463 61.4601 12.45C61.6066 12.4599 61.7536 12.4599 61.9001 12.45C62.4053 12.4076 62.9107 12.5304 63.3401 12.8C63.6701 13.02 64.2001 12.8 64.5301 13.2C65.0764 13.3837 65.5518 13.7333 65.8901 14.2C65.8901 14.25 66.0201 14.31 66.0301 14.37C66.1201 14.91 66.5801 15.2 66.8601 15.61C66.9994 15.8587 67.123 16.1158 67.2301 16.38C67.6401 17.21 68.1001 18.01 68.4501 18.87C68.5301 19.07 68.7401 19.26 68.7201 19.44C68.6501 20.07 69.2401 20.44 69.2101 21.07C69.1801 21.7 69.7001 21.93 69.6601 22.49C69.6601 22.84 70.0801 23.07 70.0601 23.49C70.0668 23.7794 70.1571 24.0607 70.3201 24.3C70.6101 24.79 70.4601 25.45 70.9201 25.89C70.8401 26.43 71.2801 26.82 71.3401 27.3C71.4033 27.7243 71.5567 28.13 71.7901 28.49C71.6201 29.13 72.3001 29.55 72.2301 30.12C72.2127 30.6989 72.3847 31.2677 72.7201 31.74C72.9201 32.12 73.1001 32.51 73.2901 32.89C73.3501 33.02 73.5001 33.14 73.5001 33.26C73.5577 33.7774 73.7284 34.2759 74.0001 34.72C74.0604 34.9324 74.0604 35.1575 74.0001 35.37C73.9001 35.86 74.3901 36.12 74.4201 36.57C74.4088 36.9293 74.4596 37.2879 74.5701 37.63C74.7202 37.9487 74.831 38.2845 74.9001 38.63C74.9601 38.97 75.1901 39.28 75.2801 39.63C75.3701 39.98 75.2801 40.22 75.3501 40.5C75.4201 40.78 75.6701 41 75.7101 41.27C75.8001 41.83 75.7101 42.43 76.1301 42.91C76.2001 43 76.1301 43.19 76.1301 43.34C76.1901 43.9 76.0401 44.51 76.4801 44.99C76.4801 45.35 76.5701 45.71 76.5901 46.06C76.566 46.4127 76.6573 46.7637 76.8501 47.06C76.9332 47.1776 76.9817 47.3162 76.9901 47.46C76.9901 47.67 76.9901 47.89 76.9901 48.11C76.9901 48.68 76.9101 49.27 77.3201 49.78C77.3898 49.9046 77.4178 50.0483 77.4001 50.19C77.4001 51.19 77.4001 52.19 77.4001 53.19C77.4106 53.4837 77.3147 53.7713 77.1301 54C77.0172 54.1859 76.9681 54.4036 76.9901 54.62C77.0254 54.9791 77.0254 55.3409 76.9901 55.7C76.845 56.1019 76.6642 56.4902 76.4501 56.86C76.3801 56.99 76.2301 57.09 76.2101 57.22C76.1517 57.5043 76.0087 57.7644 75.7999 57.966C75.5911 58.1676 75.3263 58.3015 75.0401 58.35C74.9101 58.35 74.8001 58.52 74.6701 58.58C74.5818 58.6406 74.4772 58.6731 74.3701 58.6731C74.263 58.6731 74.1584 58.6406 74.0701 58.58C73.9601 58.48 73.8301 58.35 73.7001 58.35C72.9904 58.2406 72.3101 57.9889 71.7001 57.61C71.5053 57.5239 71.3003 57.4634 71.0901 57.43C70.882 57.3867 70.6826 57.3089 70.5001 57.2C70.2601 57.04 70.0801 56.72 69.8301 56.66C69.4315 56.5024 69.0469 56.3117 68.6801 56.09C68.1814 55.8044 67.6146 55.6592 67.0401 55.67C66.6031 55.7025 66.1694 55.5745 65.8201 55.31C65.6601 55.21 65.4001 55.31 65.1801 55.25C64.8922 55.2749 64.6042 55.2046 64.3601 55.05C64.1882 54.9166 63.9776 54.8429 63.7601 54.84C62.8201 54.84 61.8701 54.84 60.9301 54.77C60.7874 54.7636 60.6492 54.7187 60.5301 54.64C60.2921 54.4743 60.01 54.3837 59.7201 54.38H56.4501C55.9451 54.4583 55.4289 54.3479 55.0001 54.07C54.8754 54.0003 54.7318 53.9723 54.5901 53.99C53.2101 53.99 51.8301 53.99 50.4501 53.99C50.308 53.9995 50.1706 54.0442 50.0501 54.12C49.8156 54.2915 49.5304 54.3795 49.2401 54.37C48.3701 54.37 47.5001 54.37 46.6301 54.37C46.05 54.2857 45.4585 54.3984 44.9501 54.69C44.8101 54.8 44.5401 54.76 44.3301 54.77C43.4601 54.77 42.5801 54.77 41.7101 54.83C41.4977 54.8634 41.2997 54.9577 41.1399 55.1015C40.9801 55.2452 40.8656 55.4323 40.8101 55.64C40.8101 56 40.8101 56.37 40.8101 56.73C40.818 56.8747 40.7944 57.0194 40.7409 57.1541C40.6873 57.2888 40.6052 57.4102 40.5001 57.51C40.2167 57.835 39.9811 58.1986 39.8001 58.59C39.5889 58.8783 39.3548 59.1492 39.1001 59.4C39.1001 59.4 38.8101 59.63 38.7601 59.76C38.7101 59.89 38.7601 59.97 38.9201 59.92C39.3349 59.7629 39.7362 59.5722 40.1201 59.35ZM21.3901 57.35C21.5301 57.41 21.6101 57.35 21.5701 57.18C21.4625 56.9062 21.332 56.6419 21.1801 56.39C20.7201 55.74 20.5201 54.96 20.0901 54.3C20.0101 54.18 20.0901 54.07 20.1701 53.93C20.5001 53.58 20.6201 53.57 20.7701 53.93L21.4201 55.28C21.5292 55.54 21.6527 55.7937 21.7901 56.04C22.0601 56.46 22.5101 56.76 22.6301 57.29C22.6301 57.42 22.8001 57.52 22.9001 57.62C23.2701 57.98 23.6401 58.32 24.0101 58.62C24.0101 58.62 24.1301 58.62 24.1701 58.62C24.2255 58.5718 24.2669 58.5096 24.2901 58.44C24.2901 58.16 24.3801 57.85 24.1501 57.62C23.6265 57.0339 23.2162 56.3558 22.9401 55.62C22.7327 55.1635 22.499 54.7194 22.2401 54.29C22.139 54.0997 22.094 53.8848 22.1101 53.67C22.0937 53.4512 22.0059 53.2439 21.8601 53.08C21.7301 52.92 21.7201 52.8 21.9201 52.75C22.0518 52.7206 22.1884 52.7206 22.3201 52.75C22.3553 52.7611 22.3873 52.7805 22.4134 52.8067C22.4395 52.8328 22.4589 52.8648 22.4701 52.9C22.6445 53.3706 22.8586 53.8256 23.1101 54.26C23.3077 54.718 23.5418 55.1594 23.8101 55.58C23.8148 55.6499 23.8148 55.7201 23.8101 55.79C24.0001 56.34 24.6801 56.57 24.7401 57.21C24.7401 57.27 24.8301 57.33 24.8901 57.36C24.9501 57.39 25.0101 57.29 25.0301 57.24C25.0955 57.0781 25.1215 56.903 25.1058 56.7291C25.0902 56.5552 25.0334 56.3876 24.9401 56.24C24.5077 55.5725 24.2752 54.7953 24.2701 54C24.2701 53.77 24.0701 53.62 24.0101 53.42C23.8201 52.81 23.3301 52.31 23.3801 51.62C22.8401 51.15 23.1201 50.36 22.6701 49.84C22.5714 49.6491 22.5298 49.4339 22.5501 49.22C22.5788 48.8639 22.4795 48.5093 22.2701 48.22C21.9701 47.88 22.2701 47.35 21.9101 47.01C21.8187 46.8957 21.7512 46.7643 21.7117 46.6234C21.6722 46.4825 21.6614 46.3351 21.6801 46.19C21.7128 45.8365 21.6209 45.4827 21.4201 45.19C21.3375 45.0765 21.2921 44.9403 21.2901 44.8C21.2901 44.22 21.2901 43.64 21.2301 43.05C21.2164 42.9819 21.1892 42.9173 21.1501 42.86C21.0701 42.72 20.9601 42.74 20.8201 42.86C20.6801 42.98 20.2501 43.33 20.0201 43.6C19.7901 43.87 19.3701 43.9 19.1101 44.16C18.8864 44.345 18.7113 44.5818 18.6001 44.85C18.4456 45.2554 18.2443 45.6414 18.0001 46C17.7999 46.2952 17.692 46.6433 17.6901 47C17.724 47.2143 17.6927 47.4338 17.6001 47.63C17.3269 48.0572 17.2136 48.5673 17.2801 49.07C17.2801 49.51 17.2801 49.95 17.2801 50.38C17.2786 50.5239 17.3243 50.6644 17.4101 50.78C17.8601 51.21 17.5201 51.95 18.0101 52.36C18.4275 53.5052 19.0324 54.5731 19.8001 55.52C19.9301 56.22 20.5001 56.58 20.9801 57.01C21.0701 57 21.2601 57.3 21.3901 57.35ZM31.2501 40.12C31.2501 40.49 31.2501 40.85 31.2501 41.21C31.2471 41.3526 31.2891 41.4925 31.3701 41.61C31.5648 41.9062 31.6627 42.2557 31.6501 42.61C31.6501 42.82 31.6501 43.1 31.7501 43.23C32.2001 43.75 31.9801 44.52 32.4601 45.01C32.4001 45.62 32.9201 46.07 32.9301 46.63C32.9401 47.19 33.5301 47.63 33.4201 48.26C33.5503 48.6813 33.746 49.0795 34.0001 49.44C34.3801 49.87 34.1701 50.44 34.4801 50.85C34.6701 51.0717 34.7668 51.3584 34.7501 51.65C34.7501 52.05 35.1601 52.28 35.1501 52.65C35.1501 53.28 35.5801 53.65 35.7501 54.23C35.8001 54.39 35.9601 54.41 36.1301 54.4C36.343 54.4239 36.5584 54.3857 36.7501 54.29C36.8133 54.2544 36.8626 54.1985 36.8899 54.1312C36.9171 54.064 36.9207 53.9895 36.9001 53.92C36.7727 53.5167 36.5838 53.1356 36.3401 52.79C35.9701 52.36 36.2001 51.79 35.8501 51.38C35.6614 51.0822 35.5738 50.7315 35.6001 50.38C35.4196 50.1515 35.2912 49.8863 35.2238 49.6031C35.1565 49.3198 35.1518 49.0253 35.2101 48.74C35.2101 48.62 35.3401 48.51 35.4101 48.4C35.4701 48.4 35.5601 48.5 35.5601 48.55C35.5601 49.01 36.0801 49.28 36.0401 49.72C36.0001 50.16 36.3501 50.51 36.4801 50.92C36.9901 52.58 36.9901 52.58 37.7601 53.33C37.9136 53.4796 38.1112 53.576 38.3237 53.6048C38.5361 53.6336 38.7522 53.5933 38.9401 53.49C38.9763 53.4784 39.0096 53.4589 39.0375 53.433C39.0654 53.4071 39.0873 53.3754 39.1016 53.3401C39.116 53.3048 39.1223 53.2668 39.1203 53.2287C39.1183 53.1907 39.108 53.1536 39.0901 53.12C38.964 52.7149 38.7786 52.3308 38.5401 51.98C38.1601 51.56 38.3801 50.98 38.0701 50.57C37.9243 50.4061 37.8364 50.1987 37.8201 49.98C37.8201 49.4 37.8201 48.82 37.8201 48.24C37.8191 48.2089 37.8253 48.1781 37.8384 48.1499C37.8514 48.1216 37.8708 48.0968 37.895 48.0774C37.9193 48.058 37.9477 48.0445 37.9781 48.038C38.0085 48.0315 38.04 48.0322 38.0701 48.04C38.1052 48.0541 38.1369 48.0758 38.1628 48.1034C38.1887 48.131 38.2082 48.164 38.2201 48.2C38.2399 48.4863 38.2399 48.7737 38.2201 49.06C38.2201 49.46 38.6001 49.68 38.6301 50.06C38.6266 50.416 38.7312 50.7647 38.9301 51.06C39.1501 51.34 39.1501 51.75 39.4201 52.06C39.5989 52.6116 39.9492 53.0916 40.4201 53.43C40.5915 53.5619 40.804 53.6292 41.0201 53.62C41.164 53.6292 41.3083 53.6072 41.4429 53.5554C41.5776 53.5036 41.6994 53.4233 41.8001 53.32C42.0101 53.12 42.0701 53 41.9501 52.81C41.5201 52.14 41.2501 51.39 40.8701 50.71C40.7101 50.42 40.8701 50 40.5801 49.71C40.2901 49.42 40.3801 49.02 40.1101 48.76C39.8401 48.5 40.0001 48.22 40.0001 48C40.0001 47.78 40.0001 47.56 40.0001 47.35C40.0001 47.14 40.1201 47.08 40.2401 47.11C40.3102 47.1266 40.3733 47.1652 40.4201 47.22C40.6201 47.43 40.8401 47.63 40.8001 47.96C40.7937 48.5362 40.9534 49.1021 41.2601 49.59C41.5601 50.23 41.9301 50.85 42.1801 51.52C42.2801 51.78 42.5201 51.97 42.6101 52.26C42.6921 52.4597 42.8147 52.6401 42.9701 52.79C43.0342 52.8788 43.1183 52.9512 43.2156 53.0016C43.3128 53.052 43.4205 53.0788 43.5301 53.08C43.9601 53.08 44.4001 53.08 44.8301 53.08C44.8974 53.0684 44.9611 53.0417 45.0166 53.0019C45.072 52.962 45.1177 52.9101 45.1501 52.85C45.1797 52.7857 45.195 52.7158 45.195 52.645C45.195 52.5742 45.1797 52.5043 45.1501 52.44C44.9401 52.15 44.6901 51.89 44.4501 51.61C44.4501 51.15 44.0801 50.84 43.9001 50.45C43.6135 49.9517 43.4683 49.3847 43.4801 48.81C43.4801 48.57 43.3301 48.41 43.2101 48.24C43.1454 48.1556 43.1048 48.0552 43.0925 47.9496C43.0801 47.844 43.0966 47.737 43.1401 47.64C43.2101 47.43 43.5601 47.64 43.7501 47.95C43.822 48.0716 43.8759 48.2029 43.9101 48.34C43.9101 48.48 43.9101 48.65 43.9601 48.77C44.4201 49.77 44.8901 50.69 45.3701 51.64C45.4333 51.7728 45.5341 51.8841 45.6601 51.96C45.9805 52.2477 46.3623 52.4585 46.7764 52.5763C47.1906 52.6942 47.6262 52.7159 48.0501 52.64C48.1196 52.6172 48.1787 52.5706 48.2172 52.5083C48.2556 52.4461 48.2708 52.3723 48.2601 52.3C48.2601 52.23 48.2601 52.14 48.2601 52.09C47.9001 51.55 47.2601 51.19 47.0301 50.58C46.8001 49.97 46.4501 49.44 46.1801 48.86C46.0601 48.6 45.9101 48.36 45.7801 48.1C45.6798 47.829 45.6798 47.531 45.7801 47.26C45.8018 47.1897 45.8479 47.1294 45.9101 47.09C45.9101 47.09 46.0301 47.09 46.0801 47.17C46.3094 47.3454 46.4858 47.5807 46.5901 47.85C46.8401 48.52 47.2901 49.09 47.5101 49.78C47.8201 50.1 47.8601 50.57 48.1401 50.89C48.5342 51.3191 48.9515 51.7264 49.3901 52.11C49.5078 52.1916 49.6469 52.2368 49.7901 52.24C50.1501 52.24 50.5101 52.24 50.8701 52.24C51.2301 52.24 51.3801 52.09 51.3801 51.95C51.3801 51.81 51.3801 51.61 51.3001 51.54C50.6301 50.96 50.4401 50.04 49.8101 49.43C49.7243 49.3182 49.6786 49.1809 49.6801 49.04C49.6853 48.7484 49.586 48.4646 49.4001 48.24C49.2468 47.9923 49.1931 47.6957 49.2501 47.41C49.243 47.3595 49.2467 47.3081 49.261 47.2592C49.2752 47.2103 49.2997 47.1649 49.3328 47.1262C49.3659 47.0874 49.4068 47.0561 49.4529 47.0344C49.4989 47.0126 49.5491 47.0009 49.6001 47C49.7601 47 49.9101 47 49.9401 47.2C49.9883 47.6977 50.1602 48.1756 50.4401 48.59C50.4401 49.04 50.9501 49.3 50.9601 49.76C51.3451 50.1911 51.6806 50.664 51.9601 51.17C52.0935 51.4297 52.3232 51.6271 52.6001 51.72C53.0101 51.85 53.2901 52.28 53.7801 52.22H54.0001C54.3001 52.22 54.5601 51.83 54.3901 51.61C54.0301 51.16 53.9001 50.61 53.5801 50.11C53.6801 49.48 53.1701 49.05 53.0601 48.5C52.8804 48.2714 52.7547 48.0052 52.6924 47.7212C52.63 47.4372 52.6327 47.1428 52.7001 46.86C52.7252 46.7914 52.7705 46.7322 52.8301 46.69C52.9301 46.62 53.0201 46.69 53.1001 46.86C53.1712 47.0583 53.2547 47.252 53.3501 47.44C53.5073 47.8429 53.7121 48.2256 53.9601 48.58C53.9445 48.7965 53.9719 49.0139 54.0405 49.2198C54.1092 49.4258 54.2177 49.6161 54.3601 49.78C54.3601 50.25 54.7101 50.56 54.9001 50.94C55.028 51.2384 55.2181 51.5061 55.4579 51.7252C55.6976 51.9442 55.9813 52.1095 56.2901 52.21C56.511 52.3973 56.7718 52.5316 57.0526 52.6026C57.3334 52.6737 57.6267 52.6796 57.9101 52.62C58.0415 52.5784 58.1662 52.5177 58.2801 52.44C58.2459 52.3763 58.2057 52.316 58.1601 52.26C57.3801 51.57 57.1601 50.51 56.6401 49.69C56.6561 49.3338 56.5541 48.9823 56.3501 48.69C56.1201 48.42 56.1401 48.01 55.8801 47.69C55.6201 47.37 55.7601 47.14 55.7401 46.85C55.7401 46.79 55.8001 46.73 55.8401 46.67C55.8801 46.61 56.0301 46.57 56.1701 46.67C56.3101 46.77 56.4101 46.87 56.4501 47C56.5801 47.48 57.0201 47.85 57.0301 48.37C57.0401 48.89 57.6401 49.32 57.8701 49.84C57.9301 49.96 57.8701 50.13 57.8701 50.27C57.8846 50.411 57.9289 50.5474 58.0001 50.67C58.5401 51.26 59.1001 51.83 59.6501 52.4C59.7324 52.4728 59.8296 52.5267 59.935 52.5578C60.0405 52.5889 60.1514 52.5965 60.2601 52.58H60.9101C61.1701 52.58 61.2701 52.41 61.1701 52.2C61.0701 51.99 60.9501 51.68 60.8301 51.42C60.7164 51.2375 60.6161 51.047 60.5301 50.85C60.4301 50.44 60.5301 49.99 60.3101 49.59C60.0911 49.2236 59.8973 48.8427 59.7301 48.45C59.6714 48.3212 59.6407 48.1815 59.6401 48.04C59.6401 47.6 59.6401 47.17 59.6401 46.74C59.6401 46.68 59.7101 46.61 59.7701 46.58C59.8301 46.55 59.9001 46.58 59.9401 46.63C60.0967 46.7227 60.2269 46.8542 60.318 47.0119C60.409 47.1695 60.458 47.3479 60.4601 47.53C60.4358 47.7932 60.4639 48.0587 60.5429 48.311C60.6218 48.5634 60.75 48.7975 60.9201 49C60.9201 49.45 61.4101 49.71 61.3701 50.18C61.6142 51.3306 62.2953 52.3416 63.2701 53C63.3914 53.0712 63.5294 53.1091 63.6701 53.11C64.1783 53.0496 64.6916 53.1699 65.1201 53.45C65.1718 53.404 65.2157 53.35 65.2501 53.29C65.2738 53.2254 65.2738 53.1545 65.2501 53.09C65.0541 52.5548 64.7957 52.0446 64.4801 51.57C64.4801 51.11 64.0001 50.85 63.9901 50.39C64.001 50.1009 63.9088 49.8174 63.7301 49.59C63.4701 49.29 63.6601 48.84 63.4501 48.59C63.1447 48.0941 63.0309 47.5038 63.1301 46.93C63.1301 46.86 63.2101 46.75 63.2401 46.75C63.363 46.7542 63.4817 46.7961 63.5801 46.87C63.7321 47.0188 63.8543 47.1953 63.9401 47.39C64.0001 47.59 63.9401 47.86 64.0201 48.03C64.2525 48.3922 64.3995 48.8026 64.4501 49.23C64.5061 49.5944 64.6541 49.9386 64.8801 50.23C65.1042 50.5951 65.3014 50.9761 65.4701 51.37C65.6949 51.8999 66.0095 52.3871 66.4001 52.81C66.5901 53 66.6301 53.37 66.8401 53.52C67.0501 53.67 67.3601 53.75 67.6001 53.91C67.6601 53.91 67.7301 54.02 67.7901 54.01C68.3301 53.93 68.7301 54.3 69.2001 54.44C69.2706 54.464 69.3476 54.461 69.416 54.4314C69.4843 54.4018 69.5393 54.3478 69.5701 54.28C69.5805 54.2104 69.5805 54.1396 69.5701 54.07C69.5701 54 69.5701 53.91 69.5701 53.86C69.3587 53.5689 69.1903 53.249 69.0701 52.91C68.9101 52.5134 68.709 52.1346 68.4701 51.78C68.2401 51.46 68.3701 51.07 68.2101 50.78C68.0342 50.391 67.8338 50.0136 67.6101 49.65C67.3301 49.27 67.5201 48.8 67.2401 48.42C67.0034 48.0623 66.7993 47.6841 66.6301 47.29C66.5734 47.1574 66.5462 47.0141 66.5501 46.87C66.5396 46.5791 66.4302 46.3004 66.2401 46.08C66.0101 45.77 66.2401 45.36 65.9901 45.08C65.8111 44.8538 65.7063 44.5779 65.6901 44.29C65.6901 43.85 65.6901 43.41 65.6901 42.98C65.6903 42.6893 65.5916 42.4071 65.4101 42.18C65.2601 41.99 65.3101 41.77 65.2901 41.55C65.2701 41.33 65.3501 40.96 65.1601 40.71C64.9331 40.4283 64.8223 40.0706 64.8501 39.71C64.8501 39.57 64.8501 39.42 64.8501 39.28C64.8385 38.8476 64.7032 38.4277 64.4601 38.07C64.3845 37.7865 64.3642 37.4911 64.4001 37.2C64.4001 36.81 63.9701 36.58 64.0101 36.2C64.0701 35.51 63.4001 35.04 63.5201 34.36C63.0101 33.8 63.2001 32.95 62.6901 32.36C62.7701 31.61 62.0901 31.05 62.1701 30.3C61.9212 30.0262 61.7823 29.67 61.7801 29.3C61.7801 28.9 61.4501 28.67 61.3801 28.3C61.3101 27.93 61.3801 27.71 61.1901 27.47C61.0069 27.2444 60.9111 26.9604 60.9201 26.67C60.9493 26.3221 60.8726 25.9735 60.7001 25.67C60.5953 25.4819 60.5306 25.2742 60.5101 25.06C60.4001 24.29 60.6501 23.46 60.0901 22.77C60.0901 22.41 60.0901 22.04 60.0901 21.68C60.0901 21.32 60.0901 21.2 59.9801 21.06C59.7086 20.6283 59.5955 20.1158 59.6601 19.61C59.6601 18.82 59.6601 18.02 59.5901 17.22C59.5901 17.17 59.5101 17.1 59.4601 17.06C59.4101 17.02 59.3501 17.12 59.3201 17.16C59.2901 17.2 59.2301 17.56 59.0601 17.74C58.665 18.0605 58.3758 18.4926 58.2301 18.98C57.5801 19.56 57.3601 20.47 56.6701 21.03C56.3748 21.2453 56.177 21.569 56.1201 21.93L55.0001 23.16C54.7481 23.7621 54.3409 24.2866 53.8201 24.68C52.8201 25.68 51.8801 26.68 50.8901 27.62C50.4301 28.08 49.9501 28.52 49.4801 28.97C48.7301 29.17 48.3501 29.84 47.7601 30.26C47.6501 30.34 47.4801 30.34 47.3701 30.42C46.9201 30.79 46.5201 31.21 46.0401 31.53C45.5601 31.85 44.8501 32.05 44.3601 32.46C43.8512 32.8622 43.2935 33.1982 42.7001 33.46C42.2601 33.68 41.8201 33.92 41.3701 34.14C40.9201 34.36 40.4801 34.57 40.0301 34.8L38.7001 35.47L37.3501 36.12C36.9001 36.34 36.4701 36.59 36.0301 36.82C35.5901 37.05 35.2601 37.21 34.8801 37.39C34.5743 37.5861 34.2355 37.725 33.8801 37.8C33.4592 37.8758 33.0558 38.0283 32.6901 38.25C32.5472 38.2654 32.403 38.2654 32.2601 38.25C32.0052 38.2798 31.7677 38.3947 31.5863 38.5762C31.4048 38.7577 31.2899 38.9951 31.2601 39.25L31.2501 40.12ZM29.5501 40.17C29.5501 39.44 29.5501 38.72 29.5501 37.99C29.5438 37.8501 29.5168 37.712 29.4701 37.58C29.4553 37.5463 29.4334 37.5163 29.4057 37.4921C29.378 37.4679 29.3454 37.4501 29.3101 37.44C29.0382 37.3447 28.742 37.3447 28.4701 37.44C28.2755 37.5341 28.0912 37.648 27.9201 37.78C27.2701 37.62 26.8601 38.2 26.3001 38.29C25.9901 38.61 25.5301 38.66 25.1701 38.89C25.0501 38.97 24.9101 39.09 24.7901 39.08C24.5002 39.0813 24.215 39.1529 23.9589 39.2888C23.7029 39.4246 23.4836 39.6207 23.3201 39.86C23.2127 39.9568 23.1275 40.0758 23.0706 40.2088C23.0136 40.3417 22.9861 40.4854 22.9901 40.63C22.9901 41.57 22.9901 42.52 22.9901 43.46C22.8631 44.1777 23.0017 44.917 23.3801 45.54C23.3801 45.54 23.3801 45.68 23.3801 45.75C23.4301 46.17 23.3101 46.63 23.6401 46.99C23.9701 47.35 23.7201 47.86 24.0001 48.21C24.1823 48.4406 24.281 48.7261 24.2801 49.02C24.2288 49.3056 24.2708 49.6002 24.4001 49.86C24.5857 50.165 24.705 50.5058 24.7501 50.86C24.8821 51.2592 25.0599 51.6417 25.2801 52C25.3501 52.15 25.4901 52.16 25.6501 52.17C26.0101 52.17 26.3601 52.24 26.7101 52.3C26.8901 52.3 26.9101 52.48 26.8901 52.65C26.8701 52.82 26.8401 52.94 26.6801 52.98C26.5201 53.02 26.2501 52.98 26.0401 53.08C25.9114 53.1253 25.7901 53.1893 25.6801 53.27L25.8001 53.45C25.8412 53.511 25.8881 53.5679 25.9401 53.62C26.0508 53.7156 26.1544 53.8192 26.2501 53.93C26.4615 54.1741 26.7469 54.3425 27.0629 54.4093C27.3788 54.4761 27.708 54.4377 28.0001 54.3C28.3301 54.19 28.6201 53.94 29.0001 53.96C29.3801 53.98 29.6001 53.58 30.0001 53.51C30.4001 53.44 30.4901 53.2 30.7601 53.13C31.0301 53.06 31.4901 53.13 31.7601 52.84C32.0301 52.55 32.0301 52.7 32.0901 52.9C32.1173 52.9649 32.1313 53.0346 32.1313 53.105C32.1313 53.1754 32.1173 53.2451 32.0901 53.31C31.904 53.6225 31.6021 53.8489 31.2501 53.94C30.9658 53.9565 30.6873 54.0278 30.4301 54.15C29.8315 54.5553 29.1467 54.8155 28.4301 54.91C28.2336 55.0696 28.0052 55.1852 27.7602 55.2491C27.5153 55.3129 27.2595 55.3234 27.0101 55.28C26.9409 55.2648 26.8692 55.2648 26.8001 55.28C26.7278 55.2926 26.6614 55.3276 26.6101 55.38C26.5101 55.46 26.5401 55.58 26.6801 55.7C26.8201 55.82 27.0101 56.08 27.1901 56.09C27.4344 56.1567 27.6896 56.1734 27.9405 56.139C28.1914 56.1046 28.4327 56.0199 28.6501 55.89C28.7585 55.7931 28.8952 55.7335 29.0401 55.72C29.5101 55.72 29.8401 55.44 30.2401 55.32C30.6651 55.2643 31.0757 55.1286 31.4501 54.92C31.575 54.8496 31.7168 54.815 31.8601 54.82C32.6001 54.82 32.9701 54.22 33.3701 53.71C33.4301 53.63 33.3701 53.43 33.3701 53.31C33.3701 53.19 33.0501 52.92 33.0601 52.75C33.1201 52.12 32.6101 51.75 32.5401 51.13C32.1201 50.76 32.2601 50.13 32.0101 49.76C31.8122 49.2975 31.5816 48.8497 31.3201 48.42C31.2992 48.3515 31.2992 48.2784 31.3201 48.21C31.3201 47.55 30.7201 47.05 30.8201 46.37C30.4301 45.98 30.5501 45.37 30.3201 44.98C30.1096 44.6079 29.9994 44.1875 30.0001 43.76C30.0285 43.5432 29.9789 43.3235 29.8601 43.14C29.6719 42.9172 29.5754 42.6312 29.5901 42.34C29.5601 41.62 29.5501 40.89 29.5501 40.17ZM43.0001 75.77C43.5418 75.8639 44.099 75.7496 44.5601 75.45C44.6192 75.409 44.6861 75.3808 44.7567 75.367C44.8273 75.3532 44.8999 75.3542 44.9701 75.37C45.6801 75.53 46.1901 75.05 46.7701 74.8C46.8263 74.7592 46.8732 74.7068 46.9077 74.6465C46.9422 74.5862 46.9635 74.5192 46.9701 74.45C47.0511 74.201 47.0632 73.9347 47.0051 73.6795C46.947 73.4242 46.8209 73.1894 46.6401 73C46.1701 72.55 45.7501 72 45.3101 71.57C45.1601 70.79 44.4301 70.45 44.0301 69.86C43.9601 69.75 43.9801 69.57 43.9001 69.46C43.5984 69.1588 43.3332 68.8232 43.1101 68.46C42.9153 68.086 42.6583 67.7478 42.3501 67.46C42.0601 67.13 41.7501 66.83 41.4401 66.52L40.5401 65.58C40.4301 64.97 39.7801 64.68 39.6301 64.14C39.4801 63.6 38.8901 63.27 38.6901 62.72C38.3808 62.1481 37.963 61.642 37.4601 61.23C37.3065 61.0803 37.1089 60.984 36.8965 60.9552C36.684 60.9264 36.4679 60.9666 36.2801 61.07C36.0901 61.16 35.9101 61.29 35.7201 61.39C35.5352 61.4933 35.3449 61.5868 35.1501 61.67C34.9465 61.7317 34.749 61.8121 34.5601 61.91C34.5007 61.9461 34.4507 61.9957 34.4142 62.0548C34.3777 62.1139 34.3558 62.1808 34.3501 62.25C34.3728 62.4656 34.3386 62.6834 34.2509 62.8817C34.1631 63.08 34.0249 63.2518 33.8501 63.38C33.7432 63.4769 33.6461 63.5841 33.5601 63.7C33.4967 63.7872 33.4625 63.8922 33.4625 64C33.4625 64.1078 33.4967 64.2128 33.5601 64.3C34.0201 64.91 34.2201 64.98 34.7901 64.66C34.9501 64.56 35.0601 64.51 35.1201 64.66C35.1506 64.7949 35.1506 64.935 35.1201 65.07C35.1201 65.13 35.0401 65.19 34.9901 65.24C34.8555 65.3642 34.7602 65.525 34.7158 65.7027C34.6714 65.8803 34.6798 66.0671 34.7401 66.24C34.7667 66.3447 34.8253 66.4386 34.9078 66.5085C34.9902 66.5784 35.0924 66.6208 35.2001 66.63C35.5548 66.6401 35.9087 66.6701 36.2601 66.72C36.4301 66.72 36.4501 66.9 36.4401 67.07C36.4301 67.24 36.2401 67.44 36.1501 67.63C36.0818 67.7515 36.0538 67.8915 36.0701 68.03C36.1286 68.1997 36.2234 68.3546 36.3477 68.4841C36.472 68.6136 36.6229 68.7145 36.7901 68.78C36.8578 68.8053 36.9324 68.8053 37.0001 68.78C37.1901 68.68 37.3701 68.55 37.5601 68.45C37.7501 68.35 38.1001 68.45 38.1201 68.61C38.165 68.743 38.165 68.887 38.1201 69.02C37.9101 69.31 37.6501 69.57 37.4201 69.84C37.3718 69.9353 37.3518 70.0424 37.3624 70.1487C37.3731 70.2551 37.4139 70.3561 37.4801 70.44C37.5951 70.6239 37.7587 70.7726 37.9528 70.8696C38.1468 70.9666 38.3639 71.0083 38.5801 70.99C38.7957 70.9601 39.0144 70.9601 39.2301 70.99C39.2901 70.99 39.3601 71.06 39.3901 71.12C39.4019 71.1468 39.408 71.1757 39.408 71.205C39.408 71.2343 39.4019 71.2632 39.3901 71.29L38.9501 71.77C38.7101 72.05 38.7101 72.09 38.9501 72.29C39.1901 72.49 39.2401 72.61 39.4001 72.76C39.8601 73.19 40.0101 73.27 40.5201 72.91C40.6363 72.8241 40.7699 72.7644 40.9114 72.735C41.053 72.7057 41.1992 72.7074 41.3401 72.74C41.4639 72.7855 41.5764 72.8571 41.6701 72.95L41.5601 73.13C41.3434 73.4142 41.0305 73.6097 40.6801 73.68C40.5201 73.68 40.5501 73.86 40.6801 74.01C40.7765 74.1612 40.9119 74.2837 41.072 74.3647C41.2321 74.4456 41.4111 74.482 41.5901 74.47C42.0963 74.4399 42.6039 74.4399 43.1101 74.47C43.2101 74.47 43.3101 74.61 43.3901 74.7C43.4701 74.79 43.3201 74.82 43.2701 74.88C43.0392 75.1503 42.7327 75.3454 42.3901 75.44C42.3901 75.44 42.3201 75.55 42.3901 75.58C42.4081 75.6121 42.4324 75.6402 42.4616 75.6625C42.4909 75.6849 42.5244 75.701 42.5601 75.71C42.7056 75.7379 42.8524 75.7579 43.0001 75.77ZM64.1801 29.62C64.1289 29.6702 64.0852 29.7275 64.0501 29.79C64.0135 29.8537 63.9961 29.9266 64.0001 30C64.2589 30.4297 64.4035 30.9186 64.4201 31.42C64.9201 31.97 64.7501 32.82 65.2501 33.37C65.2703 33.8025 65.4011 34.2225 65.6301 34.59C65.8201 34.96 65.7101 35.43 66.0101 35.8C66.102 35.9934 66.1465 36.2059 66.1401 36.42C66.1127 36.7744 66.2081 37.1275 66.4101 37.42C66.6701 37.72 66.4901 38.14 66.6601 38.42C66.7249 38.5916 66.8357 38.7421 66.9803 38.855C67.1249 38.9679 67.2978 39.0388 67.4801 39.06C67.6637 39.0448 67.8484 39.0701 68.0211 39.134C68.1939 39.1979 68.3506 39.299 68.4801 39.43C68.7301 39.7 68.9901 39.95 69.2601 40.2C69.4006 40.3072 69.5655 40.3779 69.7399 40.4058C69.9144 40.4337 70.0931 40.418 70.2601 40.36C70.3201 40.36 70.3801 40.28 70.4201 40.22C70.4601 40.16 70.5301 39.72 70.4201 39.64C70.1101 39.47 69.7401 39.41 69.5201 39.1C69.4364 38.9846 69.3596 38.8644 69.2901 38.74C69.2734 38.6347 69.293 38.5268 69.3457 38.4342C69.3984 38.3415 69.4811 38.2695 69.5801 38.23C69.7542 38.1941 69.934 38.197 70.1068 38.2385C70.2797 38.2799 70.4412 38.359 70.5801 38.47C70.6517 38.5517 70.7476 38.6084 70.8537 38.6317C70.9599 38.6551 71.0707 38.644 71.1701 38.6C71.3378 38.5305 71.4852 38.4198 71.5988 38.2782C71.7124 38.1367 71.7885 37.9687 71.8201 37.79C71.8201 37.62 71.8201 37.47 71.6401 37.43C71.4601 37.39 71.0701 37.36 70.8001 37.28C70.7001 37.28 70.6201 37.08 70.5701 36.96C70.5455 36.8566 70.5621 36.7478 70.6161 36.6564C70.6702 36.565 70.7577 36.4982 70.8601 36.47H71.3001C71.4867 36.4767 71.6714 36.431 71.8334 36.3381C71.9954 36.2452 72.1281 36.1088 72.2166 35.9444C72.305 35.78 72.3457 35.594 72.3339 35.4077C72.3222 35.2213 72.2585 35.042 72.1501 34.89C72.0301 34.64 71.8001 34.4 71.8701 34.1C72.0001 33.46 71.5901 33 71.3901 32.48C71.1901 31.96 70.5601 31.65 70.4701 31.03C70.4701 30.97 70.3901 30.92 70.3401 30.86L70.1901 30.71C69.6715 30.3443 69.0764 30.1015 68.4501 30H65.8401C65.2701 29.91 64.6701 30 64.1801 29.62ZM67.5001 28.62H68.3701C68.4782 28.6228 68.5832 28.5839 68.6633 28.5112C68.7434 28.4386 68.7924 28.3378 68.8001 28.23C68.8547 27.9836 68.858 27.7286 68.8098 27.4809C68.7616 27.2331 68.663 26.998 68.5201 26.79C68.4561 26.7014 68.4108 26.6008 68.3867 26.4943C68.3627 26.3877 68.3604 26.2774 68.3801 26.17C68.3541 25.7542 68.2234 25.3517 68.0001 25C67.8149 24.6998 67.6607 24.3815 67.5401 24.05C67.4849 23.6231 67.3528 23.2097 67.1501 22.83C67.065 22.6349 67.0274 22.4224 67.0401 22.21C67.0401 21.99 67.0401 21.78 67.0401 21.56C66.5101 21.16 66.7301 20.48 66.4501 19.97C65.8901 18.97 65.4501 17.97 64.9201 16.92C64.6501 16.33 64.0601 15.92 63.9201 15.31C63.3301 15.16 62.9801 14.66 62.5101 14.31C62.4201 14.24 61.9501 14.37 61.9501 14.5C61.9501 14.95 61.4801 15.23 61.4701 15.68C61.4601 16.13 61.4701 16.55 61.4701 16.99C61.4935 17.0567 61.535 17.1156 61.5901 17.16C61.635 17.1778 61.6851 17.1778 61.7301 17.16C61.7921 17.1179 61.8407 17.0589 61.8701 16.99C61.9301 16.87 61.9501 16.72 62.0201 16.6C62.0996 16.5323 62.2006 16.4952 62.3051 16.4952C62.4095 16.4952 62.5105 16.5323 62.5901 16.6C62.6519 16.639 62.6985 16.6979 62.7221 16.767C62.7458 16.8362 62.745 16.9113 62.7201 16.98C62.5864 17.3838 62.398 17.7674 62.1601 18.12C61.8401 18.5 61.9901 18.96 61.7801 19.34C61.7398 19.3977 61.7031 19.4578 61.6701 19.52C61.4001 20.11 61.4001 20.13 61.9001 20.62C62.0401 20.76 62.2101 20.78 62.2301 20.62C62.3601 19.87 63.2301 19.54 63.3201 18.8C63.3201 18.69 63.5301 18.73 63.6601 18.85C63.9801 19.14 63.9901 19.2 63.8301 19.54C63.4201 20.37 63.0201 21.21 62.6101 22.03C62.5201 22.22 62.3401 22.37 62.3401 22.61C62.2729 23.1083 62.3069 23.6151 62.4401 24.1C62.4401 24.17 62.5301 24.25 62.5801 24.25C62.7187 24.2586 62.8576 24.2417 62.9901 24.2C63.025 24.1873 63.0562 24.166 63.0807 24.138C63.1052 24.11 63.1222 24.0763 63.1301 24.04C63.3699 23.0729 63.7506 22.1463 64.2601 21.29C64.3201 21.17 64.4601 21.09 64.5701 20.99C64.6298 20.9475 64.6935 20.9107 64.7601 20.88C64.8318 20.9902 64.8921 21.1075 64.9401 21.23C64.9804 21.3705 64.9804 21.5195 64.9401 21.66C64.7935 21.9063 64.6664 22.1638 64.5601 22.43C64.5273 22.775 64.4395 23.1126 64.3001 23.43C63.9701 23.98 63.7301 24.58 63.4201 25.13C63.2683 25.3765 63.1887 25.6605 63.1901 25.95C63.1901 26.31 63.1901 26.67 63.1901 27.03C63.202 27.0632 63.2206 27.0936 63.2447 27.1194C63.2687 27.1452 63.2978 27.1658 63.3301 27.18C63.3301 27.18 63.4601 27.18 63.4801 27.13C63.5168 26.9938 63.5706 26.8627 63.6401 26.74C64.1957 26.0862 64.6354 25.3421 64.9401 24.54C65.0451 24.3526 65.1842 24.1864 65.3501 24.05C65.4001 23.99 65.5101 23.92 65.5301 23.94C65.5501 23.96 65.7501 24.12 65.7601 24.22C65.8102 24.4304 65.8102 24.6496 65.7601 24.86C65.5938 25.2751 65.3607 25.6601 65.0701 26C64.558 26.6837 64.1283 27.4255 63.7901 28.21C63.6601 28.44 63.7901 28.62 63.9701 28.61C64.1501 28.6 64.7301 28.72 64.8601 28.23C64.9901 27.74 65.3301 27.52 65.4301 27.08C65.4301 26.9 65.7101 26.76 65.8701 26.62C65.8949 26.6076 65.9223 26.6012 65.9501 26.6012C65.9778 26.6012 66.0052 26.6076 66.0301 26.62C66.0874 26.6622 66.1295 26.7219 66.1501 26.79C66.1702 26.936 66.1702 27.084 66.1501 27.23C66.1501 27.36 66.0801 27.5 66.0501 27.63C66.0201 27.76 65.6701 27.92 65.9101 28.17C65.9894 28.2902 66.0924 28.393 66.2127 28.4721C66.3331 28.5511 66.4683 28.6049 66.6101 28.63C66.9201 28.64 67.2101 28.63 67.5001 28.63V28.62ZM71.0001 51.28C71.0001 51.34 71.0001 51.48 71.0001 51.63C71.0078 51.7742 71.0467 51.915 71.114 52.0427C71.1813 52.1705 71.2755 52.2821 71.3901 52.37C71.4917 52.4391 71.6029 52.493 71.7201 52.53C71.7801 52.4052 71.827 52.2745 71.8601 52.14C71.8601 51.85 71.8601 51.56 71.8601 51.27C71.8601 51.16 72.9801 49.1 73.0701 49.01C73.1683 48.9065 73.2792 48.8158 73.4001 48.74C73.4001 48.74 73.5501 48.74 73.6201 48.74C73.8701 48.74 74.0401 49.01 73.9501 49.2C73.6801 49.78 73.3601 50.33 73.1501 50.93C72.9657 51.7661 72.5697 52.5408 72.0001 53.18C71.9101 53.3 72.0001 53.39 72.0001 53.54C72.2501 53.89 72.3001 54.35 72.6701 54.63C72.8301 54.76 73.1401 54.89 73.2501 54.8C73.3587 54.7161 73.439 54.6009 73.4801 54.47C73.4953 54.2502 73.4953 54.0297 73.4801 53.81C73.4801 53.6 73.4801 53.36 73.6501 53.2C74.2601 52.67 74.4101 51.81 75.0401 51.29C75.1801 51.17 75.1501 51.07 75.0401 50.92C74.9067 50.7481 74.833 50.5375 74.8301 50.32C74.7601 49.55 74.9901 48.71 74.4301 48.02C74.4301 47.74 74.4301 47.45 74.4301 47.16C74.4574 46.7245 74.3491 46.2913 74.1201 45.92C74.022 45.7289 73.9803 45.5139 74.0001 45.3C74.0326 44.9451 73.9368 44.5903 73.7301 44.3C73.6102 44.1164 73.554 43.8986 73.5701 43.68L73.4501 42.4C73.1967 42.0442 73.0635 41.6167 73.0701 41.18C73.0701 41.09 72.8801 40.99 72.7601 40.94C72.693 40.91 72.6173 40.9057 72.5473 40.9278C72.4772 40.9499 72.4177 40.9969 72.3801 41.06C72.2701 41.24 72.2401 41.48 72.1001 41.63C72.0485 41.6768 72.0073 41.734 71.9791 41.7977C71.9509 41.8614 71.9364 41.9303 71.9364 42C71.9364 42.0697 71.9509 42.1386 71.9791 42.2023C72.0073 42.266 72.0485 42.3231 72.1001 42.37C72.131 42.4339 72.1471 42.504 72.1471 42.575C72.1471 42.646 72.131 42.7161 72.1001 42.78C71.8934 43.1567 71.7065 43.5439 71.5401 43.94C71.3994 44.2665 71.2322 44.5808 71.0401 44.88C70.7601 45.25 70.9501 45.73 70.6501 46.1C70.4656 46.4035 70.2987 46.7174 70.1501 47.04C69.9601 47.34 69.9101 47.7 69.7101 48.04C69.5675 48.254 69.5129 48.5148 69.5576 48.7681C69.6023 49.0213 69.7429 49.2476 69.9501 49.4C70.1301 49.59 70.3001 49.58 70.4101 49.35C70.6201 48.9 70.8101 48.44 71.0301 47.99C71.2607 47.6301 71.455 47.2483 71.6101 46.85C71.7501 46.35 72.1801 46.01 72.2501 45.49C72.2501 45.37 72.4201 45.26 72.5201 45.16C72.5671 45.1053 72.625 45.0611 72.6901 45.03C72.6901 45.03 72.8201 44.94 72.8701 44.96C72.9342 44.9972 72.981 45.0583 73.0001 45.13C73.0824 45.407 73.0944 45.7002 73.0351 45.983C72.9757 46.2658 72.8468 46.5294 72.6601 46.75C72.4906 46.8875 72.3566 47.0638 72.2696 47.2639C72.1826 47.4641 72.145 47.6822 72.1601 47.9C71.9101 48.57 71.4801 49.15 71.2601 49.83C71.1197 50.041 71.0242 50.2786 70.9795 50.528C70.9348 50.7774 70.9418 51.0334 71.0001 51.28ZM17.1901 56.19H17.7001H17.9201C18.0501 56.19 18.2301 55.77 18.1501 55.64C18.1194 55.5765 18.0825 55.5162 18.0401 55.46C17.8601 55.23 17.6701 55.01 17.4801 54.79C17.2901 54.57 17.3901 54.09 17.2101 53.79C17.0301 53.49 16.8401 53.01 16.6201 52.65C16.4001 52.29 16.4901 51.8 16.4101 51.38C16.4038 51.3085 16.3797 51.2398 16.3401 51.18C16.0824 50.8016 15.9624 50.3462 16.0001 49.89C15.9745 49.8237 15.9342 49.764 15.8822 49.7155C15.8303 49.667 15.768 49.6309 15.7001 49.61C15.4918 49.544 15.2683 49.544 15.0601 49.61C14.3901 50.04 13.7401 50.5 13.8001 51.46C13.8501 52.11 13.8001 52.77 13.8501 53.46C13.8569 53.601 13.9057 53.7368 13.9901 53.85C14.2701 54.27 14.7201 54.57 14.8001 55.11C14.9859 55.3316 15.2013 55.5268 15.4401 55.69C15.954 56.0414 16.568 56.2169 17.1901 56.19ZM43.4601 65C43.4455 64.8636 43.4153 64.7294 43.3701 64.6C43.0601 63.96 42.5401 63.44 42.2201 62.82C41.8035 62.1318 41.2764 61.5169 40.6601 61C40.5401 60.88 40.1401 60.94 40.0901 61.1C40.0401 61.26 39.9701 61.42 40.0301 61.5C40.2701 61.85 40.5901 62.15 40.8101 62.5C41.0069 62.8737 41.1838 63.2576 41.3401 63.65C41.3988 63.7799 41.4801 63.8984 41.5801 64L42.8201 65.21C42.8201 65.21 42.9501 65.21 43.0101 65.26C43.0811 65.2813 43.1571 65.2781 43.2261 65.2509C43.295 65.2236 43.3528 65.174 43.3901 65.11C43.4162 65.0752 43.4396 65.0384 43.4601 65ZM28.1201 57.46C28.479 57.5002 28.8412 57.5002 29.2001 57.46C29.5301 57.37 29.8001 57.11 30.1501 57C30.5001 56.89 30.7201 56.59 31.1501 56.63C31.5801 56.67 31.7701 56.21 32.1501 56.23C32.7801 56.23 33.1501 55.77 33.7501 55.67C33.7834 55.6575 33.8134 55.6375 33.8377 55.6115C33.862 55.5854 33.8799 55.5541 33.8901 55.52C33.9252 55.3822 33.9252 55.2378 33.8901 55.1C33.8631 55.0311 33.8108 54.9751 33.7439 54.9434C33.6769 54.9118 33.6004 54.907 33.5301 54.93C33.0713 55.1018 32.6266 55.3091 32.2001 55.55C31.7601 55.77 31.3101 55.97 30.8601 56.18C30.1801 56.09 29.7201 56.83 29.0201 56.65C28.6224 56.9434 28.1441 57.1075 27.6501 57.12C27.5901 57.12 27.5401 57.21 27.4801 57.25C27.4201 57.29 27.6401 57.47 27.7501 57.5C27.8747 57.5055 27.9995 57.492 28.1201 57.46ZM29.4001 58.84C29.8501 59.05 30.4001 58.45 31.0801 58.25C31.3401 57.98 31.7401 57.97 32.0101 57.75C32.3338 57.5736 32.6677 57.4167 33.0101 57.28C33.3001 57.1 33.6601 57.01 33.9401 56.8C34.2201 56.59 34.6201 56.63 34.9401 56.54C35.0101 56.54 35.0501 56.45 35.1101 56.4C35.1701 56.35 34.9601 56.17 34.8801 56.16C34.602 56.0843 34.3095 56.0785 34.0287 56.1431C33.7478 56.2076 33.4872 56.3405 33.2701 56.53C32.8001 56.53 32.5501 56.94 32.1201 57.03C31.6901 57.12 31.4301 57.5 30.9401 57.47C30.4501 57.44 30.2401 57.94 29.7801 57.94C29.6273 58.0894 29.4427 58.2021 29.24 58.2697C29.0373 58.3372 28.8219 58.3579 28.6101 58.33C28.5501 58.33 28.4901 58.39 28.4301 58.43C28.3701 58.47 28.3201 58.54 28.3301 58.57C28.3645 58.631 28.4168 58.6799 28.4801 58.71C28.6501 58.75 28.8501 58.77 29.4001 58.84ZM71.0001 43.44C70.9923 43.3734 70.9719 43.309 70.9401 43.25C70.9401 43.25 70.8301 43.13 70.8001 43.14C70.4193 43.3304 70.0488 43.5407 69.6901 43.77C69.564 43.8428 69.4595 43.9478 69.3874 44.0744C69.3154 44.2009 69.2783 44.3444 69.2801 44.49C69.3382 44.9944 69.2024 45.502 68.9001 45.91C68.7901 46.05 68.8301 46.33 68.9001 46.54C68.9338 46.6745 68.9951 46.8005 69.0801 46.91C69.2014 46.8333 69.3182 46.7499 69.4301 46.66C69.5301 46.56 69.6701 46.45 69.6901 46.32C69.7701 45.81 70.2201 45.47 70.3001 44.96C70.6401 44.58 70.6801 44.03 71.0301 43.65C71.0001 43.61 71.0001 43.51 71.0001 43.44ZM67.3001 40C67.2301 40.12 67.1601 40.23 67.1001 40.35C67.0745 40.4142 67.0745 40.4858 67.1001 40.55C67.2975 40.8383 67.4493 41.1554 67.5501 41.49C67.5501 41.67 67.8201 41.81 67.9701 41.95C68.0719 42.0449 68.2059 42.0976 68.3451 42.0976C68.4843 42.0976 68.6183 42.0449 68.7201 41.95C69.2101 41.55 69.2401 41.45 68.9401 41.17C68.6401 40.89 68.1301 40.38 67.7001 40.01C67.6201 40 67.4401 40 67.3001 40ZM75.3001 53.52L75.1301 53.13L74.9601 53.24C74.8081 53.3315 74.6806 53.4584 74.5883 53.6099C74.496 53.7614 74.4417 53.933 74.4301 54.11C74.4412 54.396 74.3489 54.6765 74.1701 54.9C74.0687 55.0435 74.0038 55.2096 73.9812 55.3839C73.9585 55.5581 73.9788 55.7353 74.0401 55.9C74.0401 56.05 74.2401 56.08 74.3801 56.09C74.4507 56.1063 74.5248 56.0995 74.5913 56.0707C74.6579 56.0419 74.7135 55.9926 74.7501 55.93C74.8856 55.6152 74.934 55.2698 74.8901 54.93C74.8901 54.48 75.3901 54.22 75.3001 53.75C75.3031 53.6817 75.3166 53.6142 75.3401 53.55L75.3001 53.52ZM35.6001 58.68C35.5101 58.57 35.4601 58.43 35.3501 58.37C35.2512 58.3364 35.1436 58.3391 35.0465 58.3775C34.9494 58.416 34.8691 58.4878 34.8201 58.58C34.7546 58.8552 34.6394 59.1162 34.4801 59.35C34.4101 59.46 34.4801 59.56 34.6701 59.6C34.7393 59.6148 34.8109 59.6148 34.8801 59.6C35.0399 59.5325 35.1849 59.4342 35.3068 59.3107C35.4286 59.1871 35.5249 59.0408 35.5901 58.88C35.6084 58.8149 35.6118 58.7466 35.6001 58.68ZM32.7701 60.43C32.9617 60.3581 33.1282 60.2318 33.249 60.0666C33.3698 59.9013 33.4397 59.7044 33.4501 59.5C33.4328 59.4329 33.3942 59.3732 33.3401 59.33C33.3401 59.33 33.2201 59.27 33.2001 59.33C32.8601 59.57 32.5101 59.81 32.6501 60.33C32.6601 60.33 32.7301 60.38 32.7701 60.43ZM37.3701 57.85L37.2101 57.51C37.1468 57.537 37.0865 57.5705 37.0301 57.61L36.7401 57.89C36.6201 58.01 36.5901 58.15 36.6801 58.21C36.7927 58.2724 36.9224 58.297 37.0501 58.28C37.1494 58.2651 37.2388 58.2116 37.2988 58.131C37.3588 58.0504 37.3844 57.9494 37.3701 57.85ZM31.1001 60.51C31.2301 60.51 31.3601 60.51 31.4901 60.43C31.5224 60.4217 31.5521 60.4055 31.5766 60.3828C31.6011 60.3601 31.6194 60.3316 31.6301 60.3C31.6301 60.18 31.3301 60.03 31.1201 60.09C30.9101 60.15 30.9101 60.27 30.9601 60.36C31.0101 60.45 31.0601 60.46 31.1001 60.51ZM33.6901 62.59L33.8301 62.48C33.8301 62.48 33.7501 62.36 33.7001 62.36C33.6501 62.36 33.5201 62.42 33.5701 62.52C33.6201 62.62 33.6501 62.57 33.6901 62.59Z" fill="white"/>
<path d="M62.9302 44.15C62.8602 44.5 62.7402 44.6 62.4402 44.53C62.1402 44.46 62.0202 44.34 62.0602 44.04C62.1002 43.74 62.2402 43.6 62.5502 43.66C62.8602 43.72 63.0002 43.85 62.9302 44.15Z" fill="white"/>
<path d="M19.9999 52.4899C19.9999 52.8399 19.8699 52.9399 19.6699 52.8699C19.4699 52.7999 19.3799 52.6799 19.4099 52.3799C19.4399 52.0799 19.5299 51.9499 19.7399 51.9999C19.9499 52.0499 20.0599 52.1899 19.9999 52.4899Z" fill="white"/>
<path d="M19.5402 51C19.4902 51.35 19.4102 51.45 19.2102 51.38C19.0102 51.31 18.9202 51.19 18.9402 50.89C18.9602 50.59 19.0702 50.45 19.2802 50.51C19.4902 50.57 19.5802 50.68 19.5402 51Z" fill="white"/>
<path d="M28.1502 52.7399C27.8002 52.7999 27.6802 52.7399 27.6802 52.5399C27.6802 52.3399 27.7702 52.2099 28.0702 52.1399C28.3702 52.0699 28.5202 52.1399 28.5402 52.3399C28.5602 52.5399 28.4502 52.6899 28.1502 52.7399Z" fill="white"/>
<path d="M62 42.09C61.83 42.09 61.63 42 61.64 41.85C61.65 41.7 61.84 41.62 62.02 41.63C62.2 41.64 62.39 41.72 62.39 41.87C62.39 42.02 62.15 42.1 62 42.09Z" fill="white"/>
<path d="M59.9001 44.35C59.8101 44.35 59.6901 44.5 59.6301 44.47C59.5701 44.44 59.4401 44.3 59.3501 44.2C59.4501 44.11 59.5401 43.96 59.6401 43.95C59.9001 43.93 60.0001 44.1 59.9001 44.35Z" fill="white"/>
<path d="M55.9999 45.16C55.8999 45.21 55.7799 45.31 55.7199 45.28C55.6599 45.25 55.5299 45.1 55.4399 45.01C55.5399 44.92 55.6299 44.77 55.7399 44.76C55.8499 44.75 56.0599 44.91 55.9999 45.16Z" fill="white"/>
</svg>
