<svg width="90" height="90" viewBox="0 0 90 90" fill="none" xmlns="http://www.w3.org/2000/svg">
<path d="M48.6004 44.1101C48.6004 43.25 48.6004 40.65 48.6004 40.05C48.6248 38.1385 49.2746 36.2874 50.4504 34.78C51.6716 33.1885 53.1728 31.833 54.8804 30.7801C56.2804 29.8701 57.7004 29 59.2004 28C57.8104 26.72 56.3904 25.4301 54.9804 24.1101C54.1215 23.3262 53.3037 22.4984 52.5304 21.63C52.1128 21.0555 51.7763 20.4263 51.5304 19.76C51.5094 19.6411 51.5195 19.5187 51.5598 19.4048C51.6001 19.2909 51.6692 19.1893 51.7604 19.1101C52.1146 18.8871 52.5145 18.7469 52.9304 18.7001C54.5904 18.5801 61.4804 18.33 63.2604 18.16C66.5104 17.83 69.7704 17.91 73.0304 17.9C73.4559 17.9452 73.8849 17.9452 74.3104 17.9C74.802 17.8571 75.2966 17.9361 75.7504 18.13C75.8867 18.6944 75.9704 19.2702 76.0004 19.8501C76.0004 24.1101 76.0004 28.38 76.0004 32.64C76.0004 33.09 76.0004 34.9 76.0004 35.35C76.0004 37.53 75.6104 39.6901 75.7304 41.8801C75.7175 42.226 75.6359 42.5659 75.4904 42.8801C75.4472 43.0186 75.3689 43.1435 75.2631 43.2428C75.1573 43.342 75.0276 43.4122 74.8867 43.4464C74.7457 43.4807 74.5982 43.4778 74.4587 43.4381C74.3192 43.3985 74.1923 43.3233 74.0904 43.2201C73.3804 42.68 67.7904 38.0201 67.0904 36.4701C66.8538 36.0849 66.5898 35.7172 66.3004 35.37C64.4504 37.07 62.3004 38.15 60.4604 39.7701C59.2536 40.9002 58.1493 42.135 57.1604 43.46C56.5753 44.138 56.2245 44.9868 56.1604 45.8801C56.1604 46.76 55.4204 49.4401 56.1604 49.8801C60.0804 52.09 64.1604 59.66 65.2304 60.5401C65.3804 60.41 66.5904 59.26 66.7604 59.09C68.7004 57.26 70.6104 55.41 72.5604 53.6C73.2304 52.97 73.7804 55.44 73.7004 57.23C73.6554 57.7958 73.6554 58.3643 73.7004 58.93C73.7804 59.6701 73.4404 61.82 73.5204 62.09C73.8404 63.16 73.7904 70.2901 73.7604 71.2301C73.7304 72.1701 73.7604 72.9501 73.7604 73.89C73.4004 73.89 73.0704 73.96 72.7604 73.96C71.3804 73.96 71.0004 73.96 69.6204 73.96C66.3304 74.03 63.0104 72.96 59.7404 73.27C57.0404 73.53 54.3504 73.39 51.6604 73.49C51.0304 73.49 50.6604 72.94 51.1104 72.49C52.2104 71.36 58.6104 67.1401 60.0604 65.8001C59.7304 65.1101 55.1304 55.8 52.4604 54.64C51.3704 55.16 49.2504 56.37 48.0604 56.39C46.1804 56.39 44.3004 56.49 42.4404 56.67C41.8151 56.7695 41.2317 57.0473 40.7604 57.4701C39.7746 58.2869 39.0972 59.4158 38.8404 60.67C38.4886 62.3757 37.6437 63.9404 36.4104 65.17C35.3462 66.4045 33.9621 67.3214 32.4104 67.82C31.6805 68.0067 30.9388 68.1437 30.1904 68.2301C28.9304 68.3601 27.6504 68.4101 26.3804 68.5101C25.7079 68.4895 25.0355 68.5567 24.3804 68.71C23.9404 68.85 23.3804 68.56 22.7904 68.46L24.0004 67.71C24.8534 67.1542 25.8273 66.8113 26.8404 66.71C27.9012 66.628 28.9563 66.4845 30.0004 66.28C30.6746 66.2389 31.3438 66.1385 32.0004 65.9801C33.1005 65.5809 34.0983 64.9424 34.9215 64.1105C35.7447 63.2787 36.3728 62.2743 36.7604 61.17C36.9804 60.54 37.1804 59.9001 37.3904 59.2701C37.6117 58.5401 38.0062 57.8745 38.5404 57.3301L39.8704 56C40.5687 55.3024 41.5133 54.9073 42.5004 54.9001C44.4104 54.8101 46.3304 54.75 48.2504 54.6101C48.8748 54.5486 49.4838 54.3795 50.0504 54.1101C51.8804 53.2601 53.5904 52.25 54.1104 50.1101C54.2031 49.7839 54.2601 49.4486 54.2804 49.1101C54.2804 48.2001 54.2804 47.3 54.2804 46.39C54.3446 44.7306 54.9805 43.1443 56.0804 41.9001C56.6636 41.1284 57.3055 40.4029 58.0004 39.73C58.7039 39.0483 59.4486 38.4104 60.2304 37.82C61.9133 36.4064 63.772 35.2165 65.7604 34.28C66.3967 34.0944 67.0799 34.1588 67.6704 34.46C68.0702 34.8982 68.4315 35.3699 68.7504 35.87C69.3149 36.6356 69.9474 37.3485 70.6404 38C71.7059 38.7574 72.688 39.6256 73.5704 40.59C73.6604 40.73 73.9204 40.7701 74.2104 40.9001C74.1204 40.1401 74.3204 29.83 74.4404 29.17C74.4554 28.957 74.4554 28.7431 74.4404 28.5301C74.4404 27.8401 74.6404 21.5301 74.7004 20.5301C74.7004 20.0201 74.7004 19.53 74.7004 18.9L59.1204 19.65L52.4504 20C52.6696 20.2661 52.9033 20.5198 53.1504 20.76C54.2504 21.7 55.3704 22.62 56.4504 23.58C57.9204 24.9418 59.2781 26.4199 60.5104 28C60.4748 28.2689 60.3742 28.525 60.2174 28.7463C60.0606 28.9676 59.8523 29.1474 59.6104 29.2701C58.4604 30.05 57.3004 30.8201 56.1504 31.6101C54.2933 32.8375 52.6851 34.4051 51.4104 36.23C50.7596 37.1741 50.4109 38.2935 50.4104 39.44C50.4104 40.99 50.4104 42.5401 50.4104 44.09C50.4104 44.34 50.4104 47 50.4104 47.59C50.3913 48.4773 50.0623 49.33 49.4804 50C49.0494 50.5228 48.5886 51.0203 48.1004 51.4901C47.0215 52.3083 45.7044 52.7508 44.3504 52.75C43.4587 52.864 42.5537 52.8131 41.6804 52.6C41.2596 52.5389 40.8303 52.5777 40.4273 52.7132C40.0243 52.8487 39.6588 53.0771 39.3604 53.3801C37.8796 54.5916 36.615 56.0456 35.6204 57.68C35.4277 58.0488 35.2768 58.4378 35.1704 58.84C34.764 60.2506 34.1615 61.5971 33.3804 62.84C33.0172 63.4062 32.517 63.8716 31.9262 64.1932C31.3354 64.5149 30.6731 64.6823 30.0004 64.68C29.1091 64.6949 28.2183 64.6246 27.3404 64.4701C26.1913 64.3867 25.0402 64.6038 24.0004 65.1C22.3351 65.7216 20.8017 66.6511 19.4804 67.84C19.2904 68 18.4804 68.5601 18.2204 68.32C18.0018 68.1929 17.7706 68.089 17.5304 68.0101C16.9404 67.6701 16.9404 67.3901 17.5304 66.9101C18.4304 66.1901 19.3104 65.45 20.2304 64.77C21.737 63.8523 23.3575 63.1362 25.0504 62.64C25.3483 62.5897 25.6525 62.5897 25.9504 62.64C27.2504 62.64 28.5404 62.64 29.8304 62.64C30.1063 62.6405 30.3793 62.5839 30.6323 62.4738C30.8853 62.3637 31.1128 62.2024 31.3004 62C32.0673 61.3201 32.5965 60.4125 32.8104 59.41C33.6004 56.16 35.8104 53.93 38.1304 51.8C38.9157 51.0895 39.9415 50.7035 41.0004 50.7201H44.2304C44.4804 50.7201 46.9904 50.3801 46.9504 50.34C46.0904 49.34 42.2904 46.0101 41.2904 44.7401C40.2907 43.4349 39.4389 42.0229 38.7504 40.53C38.1504 39.22 37.7504 34.1 37.6304 33.91C36.9704 34.71 36.1504 37.29 35.2604 38.1C34.0153 38.9165 32.5112 39.2408 31.0404 39.01C29.3504 38.47 27.4504 35.91 26.4804 33.59C25.8627 32.1993 25.523 30.7012 25.4804 29.18C25.348 27.5302 25.0327 25.9002 24.5404 24.32C24.0004 23 22.2904 22.46 21.7004 22C21.2604 21.62 22.9904 21.14 24.3104 21.32C24.6448 21.3345 24.9679 21.4457 25.2404 21.64C25.8117 22.1537 26.3187 22.7346 26.7504 23.3701C27.2883 24.2742 27.766 25.213 28.1804 26.18C28.5863 27.3528 28.8613 28.5669 29.0004 29.8C29.1947 30.6731 29.5327 31.5077 30.0004 32.2701C30.5204 33.14 32.0504 35.65 32.7804 35.19C33.5104 34.73 34.2904 32.19 34.6804 31.25C34.9561 30.5869 35.3157 29.9618 35.7504 29.39C36.14 28.7729 36.6805 28.2653 37.321 27.9153C37.9614 27.5654 38.6806 27.3846 39.4104 27.39C39.8558 27.3505 40.3045 27.4078 40.7256 27.558C41.1468 27.7081 41.5305 27.9476 41.8504 28.26C42.0487 29.1321 42.0994 30.0312 42.0004 30.92C42.0949 32.8078 42.5144 34.665 43.2404 36.41C44.0627 38.1133 45.019 39.7484 46.1004 41.3C46.8252 42.3279 47.6639 43.2705 48.6004 44.1101Z" fill="white"/>
<path d="M72.3804 27.47C72.3804 27.94 72.3804 28.31 72.3804 28.69C72.3804 29.07 72.3804 29.5 71.8504 29.69C71.5404 29.78 71.2704 29.9 71.0504 29.62C70.8787 29.4657 70.7505 29.269 70.6785 29.0497C70.6066 28.8304 70.5934 28.596 70.6404 28.37C70.8804 27.59 71.0804 27.47 72.3804 27.47Z" fill="white"/>
<path d="M72.6503 35.12C72.4403 35.51 72.1303 36.12 71.8003 36.65C71.7515 36.6845 71.6953 36.707 71.6363 36.7157C71.5772 36.7244 71.5169 36.719 71.4603 36.7C71.253 36.601 71.0862 36.4335 70.9879 36.2259C70.8895 36.0183 70.8657 35.7832 70.9203 35.56C71.0528 35.1622 71.2063 34.7716 71.3803 34.39C71.4021 34.3062 71.4407 34.2276 71.4937 34.1591C71.5468 34.0906 71.6132 34.0336 71.6889 33.9916C71.7646 33.9495 71.8481 33.9232 71.9343 33.9144C72.0205 33.9055 72.1076 33.9142 72.1903 33.94C72.3564 33.9933 72.4962 34.1074 72.5816 34.2596C72.6669 34.4117 72.6915 34.5905 72.6503 34.76V35.12Z" fill="white"/>
<path d="M71.6103 22.62C71.6003 22.4501 71.6003 22.2798 71.6103 22.11C71.6103 21.78 71.8403 21.49 72.1503 21.56C72.4603 21.63 72.8603 21.66 72.8703 22.1C72.9707 22.5528 72.9106 23.0265 72.7003 23.44C72.5503 23.66 72.4703 23.92 72.1703 23.81C71.9434 23.7328 71.7517 23.5766 71.6303 23.37C71.5848 23.122 71.5848 22.8679 71.6303 22.62H71.6103Z" fill="white"/>
<path d="M16.0004 69.3299C16.5104 69.3299 16.7904 69.5399 16.8204 69.9199C16.8213 70.0611 16.7923 70.2008 16.7353 70.3299C16.6783 70.459 16.5946 70.5745 16.4898 70.669C16.3849 70.7634 16.2613 70.8346 16.127 70.8779C15.9927 70.9211 15.8507 70.9355 15.7104 70.9199C15.5944 70.9329 15.477 70.9157 15.3695 70.8701C15.262 70.8245 15.1681 70.752 15.0967 70.6596C15.0254 70.5671 14.9791 70.4579 14.9622 70.3424C14.9453 70.2268 14.9585 70.1089 15.0004 69.9999C15.0604 69.5199 15.3404 69.3199 16.0004 69.3299Z" fill="white"/>
<path d="M19.3902 20.07C19.3902 20.54 18.9802 20.76 18.5002 20.73C18.2402 20.73 18.1102 20.6 18.1202 20.34C18.1302 20.08 18.3902 19.66 18.7602 19.72C18.9896 19.7976 19.2031 19.9162 19.3902 20.07Z" fill="white"/>
<path d="M17.4101 16C17.6201 16.11 17.7701 16.13 17.8201 16.22C17.8652 16.3323 17.8652 16.4577 17.8201 16.57C17.7257 16.7216 17.5925 16.8451 17.4342 16.9277C17.2759 17.0104 17.0984 17.0491 16.9201 17.04C16.8124 16.9773 16.7228 16.8877 16.6601 16.78C16.6435 16.7493 16.6348 16.7149 16.6348 16.68C16.6348 16.6451 16.6435 16.6107 16.6601 16.58C16.9301 16.4 17.1801 16.2 17.4101 16Z" fill="white"/>
<path d="M15.2402 72.94C15.2257 73.0172 15.1987 73.0916 15.1602 73.16C15.0515 73.3149 14.8925 73.4275 14.7102 73.4785C14.5279 73.5295 14.3336 73.5159 14.1602 73.44C14.0602 73.44 13.9702 73.07 14.0102 72.91C14.0502 72.75 15.0102 72.59 15.2202 72.83C15.2402 72.85 15.2402 72.9 15.2402 72.94Z" fill="white"/>
<path d="M22.4203 70C22.1203 70.24 21.9103 70.53 21.7003 70.53C21.626 70.5245 21.5537 70.5032 21.4883 70.4674C21.4229 70.4315 21.366 70.3821 21.3215 70.3223C21.2769 70.2626 21.2457 70.1939 21.23 70.1211C21.2142 70.0482 21.2144 69.9728 21.2303 69.9C21.2303 69.42 21.6403 69.52 21.9103 69.56C22.1803 69.6 22.1803 69.82 22.4203 70Z" fill="white"/>
<path d="M19.8602 72.23C19.5802 72.46 19.4502 72.65 19.2902 72.68C19.2175 72.6984 19.1416 72.6999 19.0682 72.6842C18.9949 72.6686 18.9261 72.6364 18.8672 72.59C18.8082 72.5437 18.7607 72.4844 18.7283 72.4168C18.6959 72.3492 18.6794 72.275 18.6802 72.2C18.6802 72.11 18.9702 71.92 19.1302 71.92C19.3866 71.9895 19.6322 72.0938 19.8602 72.23Z" fill="white"/>
<path d="M20.6201 18C20.8801 18.29 21.0501 18.46 21.1801 18.64C21.1056 18.7586 20.9978 18.8525 20.8701 18.91C20.6301 18.98 20.4401 18.91 20.4501 18.59C20.4916 18.3893 20.5484 18.192 20.6201 18Z" fill="white"/>
<path d="M23.1503 20.11C22.9803 20.27 22.8403 20.46 22.7803 20.44C22.604 20.3558 22.4421 20.2444 22.3003 20.11C22.4403 19.98 22.5503 19.79 22.7203 19.74C22.8903 19.69 23.0003 19.94 23.1503 20.11Z" fill="white"/>
</svg>
