<svg width="90" height="91" viewBox="0 0 90 91" fill="none" xmlns="http://www.w3.org/2000/svg">
<path d="M47.69 73.1955C47.7229 73.3315 47.7247 73.4731 47.6952 73.6099C47.6658 73.7467 47.6059 73.8751 47.52 73.9855C47.23 74.2855 46.94 74.5855 46.66 74.8955C46.5114 75.0479 46.4288 75.2526 46.43 75.4655C46.4408 75.6042 46.4204 75.7436 46.3702 75.8734C46.32 76.0032 46.2413 76.1201 46.14 76.2155C45.84 76.5055 45.54 76.7955 45.26 77.1155C44.8875 77.5252 44.4255 77.8434 43.91 78.0455C43.7313 78.1489 43.5344 78.2168 43.33 78.2455C42.71 78.2455 42.08 78.2455 41.45 78.2455C41.3456 78.25 41.2431 78.2173 41.1606 78.1532C41.0782 78.0891 41.0212 77.9977 41 77.8955C40.9 77.4855 40.52 77.2155 40.48 76.7755C40.48 76.6455 40.03 76.5555 39.93 76.6555C39.52 77.0255 39.11 77.4155 38.68 77.7655C38.6 77.8355 38.42 77.7655 38.29 77.7655C38.16 77.7655 38.09 77.6055 38.29 77.4555C38.49 77.3055 38.88 76.8555 39.15 76.5455C39.2351 76.4435 39.2965 76.324 39.33 76.1955C39.3444 76.1628 39.352 76.1275 39.3522 76.0918C39.3524 76.056 39.3453 76.0206 39.3312 75.9878C39.3171 75.955 39.2964 75.9254 39.2704 75.9009C39.2444 75.8764 39.2136 75.8575 39.18 75.8455C38.7132 75.7255 38.228 75.695 37.75 75.7555C37.6143 75.7572 37.4821 75.799 37.37 75.8755C37.0914 76.0909 36.8305 76.3283 36.59 76.5855C36.3295 76.812 36.0271 76.9853 35.7 77.0955C35.58 77.1555 35.47 77.2455 35.35 77.3155C35.29 77.1955 35.22 77.0755 35.17 76.9455C35.1651 76.8789 35.1651 76.812 35.17 76.7455C35.17 76.6055 35.17 76.4355 35.09 76.3455C34.8091 75.9399 34.688 75.4449 34.75 74.9555C34.75 74.6355 34.52 74.4655 34.35 74.2555C34.18 74.0455 34.12 74.0955 34.01 74.1955C33.5548 74.5197 33.2066 74.9723 33.01 75.4955C33.01 75.6155 32.84 75.7155 32.74 75.8055C32.64 75.8955 32.54 76.0555 32.42 76.0755C31.81 76.1355 31.61 76.8155 31.05 76.9555C30.9841 76.9827 30.9107 76.9855 30.8429 76.9636C30.7751 76.9416 30.7173 76.8962 30.68 76.8355C30.639 76.7132 30.622 76.5842 30.63 76.4555C30.633 76.4215 30.6435 76.3886 30.6608 76.3592C30.6781 76.3298 30.7017 76.3046 30.73 76.2855C31.049 76.1527 31.3432 75.9668 31.6 75.7355C32.43 74.8855 33.27 74.0555 34.12 73.2155C34.2095 73.11 34.2761 72.9871 34.3157 72.8546C34.3553 72.7221 34.367 72.5827 34.35 72.4455C34.4079 72.0949 34.3253 71.7355 34.12 71.4455C34.0225 71.3463 33.9655 71.2144 33.96 71.0755C33.9489 70.3863 33.7444 69.7141 33.37 69.1355C33 68.3955 32.63 67.6655 32.27 66.9255C32.2057 66.7294 32.0961 66.5512 31.95 66.4055C31.6054 66.0633 31.3452 65.6456 31.19 65.1855C30.7873 64.3831 30.1889 63.6953 29.45 63.1855C29.245 63.1415 29.0509 63.0569 28.8791 62.9366C28.7074 62.8164 28.5615 62.663 28.45 62.4855C27.98 61.9555 27.25 61.8055 26.79 61.2655C26.359 60.8061 25.9051 60.3689 25.43 59.9555C24.6751 59.5955 24.0143 59.0649 23.5 58.4055C22.94 57.8755 22.42 57.3055 21.87 56.7755C21.6102 56.4701 21.3886 56.1343 21.21 55.7755C21.0036 55.3394 20.7558 54.9241 20.47 54.5355C20.1684 54.1648 19.8975 53.7701 19.66 53.3555C19.58 53.2355 19.44 53.1555 19.4 53.0355C19.0286 52.0645 18.4482 51.1871 17.7 50.4655C17.7 50.4655 17.59 50.3355 17.61 50.2855C17.77 49.6755 17.12 49.2855 17.15 48.7155C17.15 48.5755 17.15 48.4355 17.15 48.2955C17.15 47.7755 16.71 47.4555 16.59 46.9855C16.5756 46.9544 16.5532 46.9278 16.5251 46.9085C16.4969 46.8891 16.4641 46.8777 16.43 46.8755C16.1549 46.8386 15.8775 46.8219 15.6 46.8255C15.182 46.8698 14.7622 46.7595 14.42 46.5155C14.27 46.4055 14.01 46.5155 13.82 46.3955C13.6276 46.3217 13.4486 46.217 13.29 46.0855C12.9 45.7655 12.85 45.2455 12.61 44.8255C12.61 44.7455 12.61 44.5555 12.7 44.4455C12.99 43.9855 13.1 43.4455 13.59 43.0655C13.75 42.9655 13.76 42.8355 13.64 42.7255C13.1708 42.1254 12.5772 41.6341 11.9 41.2855C11.77 41.2855 11.68 41.1155 11.58 41.0155C10.74 40.1755 9.90996 39.3255 9.03996 38.5155C8.60587 38.1128 8.25286 37.6308 7.99996 37.0955C7.77451 36.7522 7.5994 36.3784 7.47996 35.9855C7.40996 35.5055 7.82996 35.1155 7.99996 34.6755C8.16996 34.2355 8.30996 34.0655 8.45996 33.7555C8.55587 33.5779 8.62016 33.385 8.64996 33.1855C8.63528 32.6949 8.77521 32.2121 9.04996 31.8055C9.14996 31.6655 9.04996 31.3655 9.11996 31.1955C9.37689 30.7869 9.52174 30.3178 9.53996 29.8355C9.78958 29.503 9.92939 29.1011 9.93996 28.6855C9.93996 28.3255 10.33 28.1255 10.56 27.8655C10.6736 27.7333 10.8176 27.6307 10.9795 27.5662C11.1415 27.5018 11.3166 27.4775 11.49 27.4955C11.9 27.5455 12.34 27.3955 12.71 27.6355C13.006 27.8298 13.3564 27.9244 13.71 27.9055C13.8498 27.8957 13.9901 27.8957 14.13 27.9055C14.54 27.9655 14.82 28.3555 15.29 28.2955C15.76 28.2355 16.13 28.2955 16.55 28.2955C16.97 28.2955 17.24 28.7455 17.7 28.7055C18.1893 28.6705 18.6806 28.6705 19.17 28.7055C19.5277 28.7359 19.884 28.6326 20.17 28.4155C20.3529 28.3052 20.57 28.266 20.78 28.3055C21.61 28.3055 22.45 28.3055 23.29 28.3055C23.7074 28.2957 24.1147 28.1749 24.47 27.9555C24.82 27.7755 25.3 27.9055 25.6 27.5355C25.9 27.1655 26.35 27.1455 26.6 26.8655C27.15 26.3255 27.92 26.1155 28.46 25.5455C28.7313 25.3367 29.0354 25.1745 29.36 25.0655C29.4795 24.9971 29.6127 24.9561 29.75 24.9455C30.51 24.9455 31.28 24.9455 32.05 24.9455C32.2594 24.9604 32.4588 25.0409 32.62 25.1755C33.1 25.4455 33.74 25.2955 34.14 25.7555H35.19C35.4 25.7555 35.61 25.7555 35.82 25.7555C35.9233 25.7561 36.0257 25.7351 36.1204 25.6937C36.2151 25.6524 36.3001 25.5917 36.37 25.5155C36.84 24.9855 37.57 24.8155 38.03 24.2855C38.6 24.0655 39.03 23.5855 39.74 23.6255C40.1424 23.3542 40.6147 23.2048 41.1 23.1955C41.3241 23.0329 41.5783 22.9164 41.8478 22.8529C42.1173 22.7894 42.3968 22.7801 42.67 22.8255C43.09 22.8255 43.51 22.8255 43.93 22.8255C44.2857 22.8002 44.6391 22.8992 44.93 23.1055C45.0526 23.1644 45.1846 23.2016 45.32 23.2155C45.65 23.2755 46.03 23.1355 46.32 23.3755C46.5499 23.5287 46.8032 23.6435 47.07 23.7155C47.3907 23.8358 47.6961 23.9936 47.98 24.1855C48.1585 24.2819 48.306 24.4271 48.4051 24.6042C48.5043 24.7812 48.5511 24.9828 48.54 25.1855C48.53 25.2551 48.53 25.3258 48.54 25.3955C48.5571 25.604 48.5085 25.8126 48.4008 25.992C48.2932 26.1714 48.132 26.3125 47.94 26.3955C47.6214 26.5289 47.3167 26.693 47.03 26.8855C45.8521 27.3187 44.8291 28.0912 44.09 29.1055C44.0005 29.2098 43.9447 29.3388 43.93 29.4755C43.8936 29.8891 43.7487 30.2858 43.51 30.6255C43.58 31.2155 43.14 31.6255 43 32.1655C43 32.1655 42.9 32.2455 42.86 32.2855C42.82 32.3255 42.67 32.0555 42.67 31.9455C42.67 31.3155 42.67 30.6855 42.67 30.0555C42.6241 29.708 42.6982 29.3552 42.88 29.0555C43.13 28.7255 43.16 28.2755 43.51 27.9955C43.86 27.7155 44.1 27.4055 44.4 27.1155L45.03 26.5555C45.71 26.5555 45.95 25.7055 46.62 25.6355C46.68 25.6355 46.73 25.5455 46.78 25.5055C46.83 25.4655 46.86 24.9955 46.78 24.9455C46.21 24.7455 45.73 24.2655 45.05 24.3855C44.9466 24.4007 44.8412 24.3953 44.7399 24.3696C44.6387 24.3438 44.5435 24.2983 44.46 24.2355C44.3014 24.0979 44.0998 24.0201 43.89 24.0155C43.27 24.0155 42.63 23.8655 42.08 24.3255C41.9594 24.3965 41.816 24.418 41.68 24.3855C40.8487 24.3692 40.0312 24.5988 39.33 25.0455C38.4353 25.4109 37.6227 25.9515 36.94 26.6355C36.61 27.0055 36.08 27.0455 35.67 27.2955C35.6369 27.3101 35.6011 27.3176 35.565 27.3176C35.5288 27.3176 35.493 27.3101 35.46 27.2955C35.1674 27.0833 34.8206 26.9584 34.46 26.9355C34.1845 26.9303 33.91 26.9001 33.64 26.8455C33.2451 26.5489 32.7494 26.4196 32.26 26.4855C31.96 26.4855 31.78 26.1755 31.52 26.1455C31.0358 26.0756 30.5441 26.0756 30.06 26.1455C29.6653 26.2618 29.2934 26.4444 28.96 26.6855C28.7305 26.8413 28.5221 27.0262 28.34 27.2355C28.0372 27.5042 27.7011 27.7327 27.34 27.9155C26.88 28.2055 26.34 28.3155 25.94 28.7955C25.839 28.8908 25.7192 28.964 25.5884 29.0105C25.4575 29.057 25.3184 29.0757 25.18 29.0655C25.0435 29.0719 24.9117 29.117 24.8 29.1955C24.5091 29.4018 24.1557 29.5007 23.8 29.4755C23.318 29.3959 22.8236 29.4955 22.41 29.7555C22.2919 29.8247 22.1568 29.8594 22.02 29.8555C20.76 29.8555 19.5 29.9255 18.24 29.8555C17.5 29.8555 16.69 30.0555 16.03 29.4855C15.75 29.4855 15.48 29.4355 15.2 29.4255C14.7969 29.5207 14.3733 29.4748 14 29.2955C13.71 29.0755 13.33 29.1655 13 29.1655C12.5808 29.1786 12.1692 29.0519 11.83 28.8055C11.7707 28.7712 11.7034 28.7532 11.635 28.7532C11.5665 28.7532 11.4992 28.7712 11.44 28.8055C11.2135 28.9633 11.0199 29.1637 10.87 29.3955C10.71 29.6955 10.87 30.0955 10.63 30.3955C10.4577 30.6181 10.3692 30.8942 10.38 31.1755C10.379 31.3098 10.3409 31.4413 10.27 31.5555C10.0906 31.7683 9.99156 32.0372 9.98996 32.3155C10.0309 33.1495 9.7915 33.9733 9.30996 34.6555C9.10996 35.0155 8.99996 35.4155 8.75996 35.7655C8.7395 35.8297 8.73518 35.898 8.74739 35.9642C8.7596 36.0305 8.78796 36.0928 8.82996 36.1455C9.65996 36.9955 10.5 37.8255 11.34 38.6655C12.2553 39.1635 13.0585 39.8443 13.7 40.6655C14.1081 41.041 14.574 41.3483 15.08 41.5755C15.5906 41.9263 16.1829 42.1398 16.8 42.1955C17.0689 42.4166 17.3884 42.5678 17.73 42.6355C17.885 42.7748 18.0673 42.8804 18.2652 42.9458C18.4631 43.0112 18.6724 43.0349 18.88 43.0155C19.091 42.9843 19.3064 43.0267 19.49 43.1355C19.7784 43.3476 20.1328 43.4504 20.49 43.4255H23.84C24.1973 43.4522 24.5523 43.3492 24.84 43.1355C25.0211 43.0301 25.2333 42.9912 25.44 43.0255C25.648 43.0406 25.8569 43.0139 26.0545 42.947C26.252 42.88 26.4341 42.7741 26.59 42.6355C27.0504 42.4877 27.4905 42.2828 27.9 42.0255C28.33 41.8455 28.58 41.3355 29.11 41.2555C29.52 40.8755 29.94 40.5055 30.34 40.1155C30.6914 39.7762 31.0252 39.419 31.34 39.0455C31.3699 38.9848 31.3855 38.9181 31.3855 38.8505C31.3855 38.7828 31.3699 38.7161 31.34 38.6555C31.3108 38.5958 31.2687 38.5433 31.2169 38.5018C31.165 38.4604 31.1046 38.4309 31.04 38.4155C30.7 38.4155 30.34 38.4155 30.04 38.3355C29.95 38.3355 29.85 38.1555 29.8 38.0455C29.7626 37.9524 29.7626 37.8485 29.7998 37.7554C29.8371 37.6623 29.9087 37.5871 30 37.5455C30.7 37.5455 31.4 37.5455 32.09 37.5455C32.3324 37.5354 32.574 37.5795 32.7971 37.6747C33.0203 37.7698 33.2194 37.9136 33.38 38.0955C33.7118 38.5506 33.9997 39.0361 34.24 39.5455C34.3035 39.7438 34.3035 39.9571 34.24 40.1555C34.2288 40.2204 34.2044 40.2823 34.1682 40.3373C34.1321 40.3924 34.085 40.4394 34.03 40.4755C33.9701 40.5079 33.903 40.5248 33.835 40.5248C33.7669 40.5248 33.6999 40.5079 33.64 40.4755C33.4216 40.3022 33.2145 40.1152 33.02 39.9155C32.81 39.7155 32.73 39.7155 32.53 39.9155L30.32 42.1555C30.07 42.4055 29.81 42.6355 29.56 42.8755C29.5156 42.9305 29.4567 42.9721 29.39 42.9955C28.86 43.0555 28.61 43.5755 28.18 43.7755C27.75 43.9755 27.58 44.1155 27.27 44.2455C26.742 44.5816 26.1256 44.7522 25.5 44.7355C25.4349 44.7148 25.365 44.7148 25.3 44.7355C24.7008 45.0988 23.9894 45.2304 23.3 45.1055C22.39 45.1055 21.48 45.1055 20.57 45.1055C20.2372 45.1333 19.9027 45.1333 19.57 45.1055C19.307 45.0224 19.0576 44.9011 18.83 44.7455C18.3 44.8555 17.94 44.3655 17.47 44.3455C17.0618 44.286 16.6703 44.143 16.32 43.9255C16.07 43.8255 15.74 43.9255 15.52 43.7555C15.3 43.5855 15.04 43.6055 14.81 43.7555C14.7577 43.799 14.6961 43.8298 14.63 43.8455C14.17 43.9355 14.14 44.2655 14.17 44.6355C14.17 44.8355 14.36 45.0855 14.51 45.0855C15.1393 45.1254 15.7706 45.1254 16.4 45.0855C16.7468 45.0459 17.0976 45.1091 17.4088 45.2674C17.7199 45.4256 17.9777 45.6719 18.15 45.9755C18.1924 46.0317 18.2293 46.092 18.26 46.1555C18.2979 46.2117 18.3188 46.2777 18.32 46.3455C18.23 46.8755 18.72 47.2155 18.75 47.7055C18.6944 48.1945 18.815 48.6873 19.09 49.0955C19.1546 49.2183 19.1824 49.3572 19.17 49.4955C19.1349 49.7371 19.1595 49.9837 19.2414 50.2137C19.3233 50.4438 19.4601 50.6503 19.64 50.8155C19.7906 50.9556 19.9098 51.126 19.99 51.3155C20.2834 52.0779 20.7488 52.7623 21.35 53.3155C21.64 53.5555 21.63 53.9455 21.86 54.2055C22.005 54.4372 22.1288 54.6815 22.23 54.9355C22.29 55.0555 22.41 55.0055 22.55 54.9355C22.69 54.8655 22.91 54.3555 23.09 54.0655C23.1102 54.0557 23.1325 54.0507 23.155 54.0507C23.1775 54.0507 23.1997 54.0557 23.22 54.0655C23.2817 54.1035 23.3305 54.1593 23.36 54.2255C23.3703 54.2917 23.3703 54.3592 23.36 54.4255C23.2907 54.9107 23.4087 55.4041 23.69 55.8055C24.07 56.9555 24.06 56.9655 24.54 57.4055C24.74 57.5955 24.95 57.7755 25.17 57.9555C25.1931 57.9677 25.2188 57.9741 25.245 57.9741C25.2711 57.9741 25.2969 57.9677 25.32 57.9555C25.3814 57.9199 25.4277 57.8629 25.45 57.7955C25.45 57.5155 25.45 57.2355 25.45 56.9555C25.4628 56.7829 25.5203 56.6166 25.6167 56.4729C25.7131 56.3291 25.8452 56.2129 26 56.1355C26 56.1355 26.12 56.1355 26.14 56.1355C26.34 56.4555 26.24 56.8155 26.27 57.1355C26.3 57.4555 26.19 57.7055 26.4 57.9355C26.61 58.1655 26.64 58.7355 26.99 59.0155C27.34 59.2955 27.71 59.8755 28.24 60.0955C28.34 60.0955 28.5 60.0955 28.62 59.9955C28.74 59.8955 28.7 59.8955 28.72 59.8355C28.7453 59.7678 28.7453 59.6932 28.72 59.6255C28.4695 59.2138 28.3476 58.7368 28.37 58.2555C28.395 57.8358 28.395 57.4151 28.37 56.9955C28.3644 56.8205 28.4049 56.6471 28.4874 56.4927C28.5699 56.3382 28.6914 56.2082 28.84 56.1155C28.89 56.1155 28.96 56.0155 29.01 56.0255C29.06 56.0355 29.13 56.1255 29.13 56.1855C29.13 57.0155 29.13 57.8555 29.2 58.6855C29.1699 59.0348 29.1699 59.3861 29.2 59.7355C29.26 59.9855 29.47 60.2055 29.56 60.4655C29.65 60.7255 29.56 60.9255 29.62 61.0855C29.8824 61.5797 30.3007 61.9734 30.81 62.2055C30.98 62.2655 31.26 62.0755 31.23 61.8755C31.2348 61.7646 31.2247 61.6536 31.2 61.5455C31.12 61.3555 30.96 61.1755 30.95 60.9855C30.8745 60.3764 30.8913 59.7595 31 59.1555C31 58.9855 31.17 58.9655 31.33 58.9755C31.49 58.9855 31.63 58.9755 31.66 59.1555C31.7274 59.4232 31.751 59.7002 31.73 59.9755C31.6749 60.8097 31.904 61.6381 32.38 62.3255C32.5464 62.7031 32.7473 63.0646 32.98 63.4055C33.1 64.0955 33.64 64.4055 34.15 64.7855C34.23 64.8355 34.41 64.7855 34.53 64.7055C34.65 64.6255 34.58 64.5855 34.53 64.5555C34.3259 64.2631 34.224 63.9116 34.24 63.5555C34.2812 63.3498 34.2567 63.1364 34.17 62.9455C33.67 62.3255 33.89 61.6155 33.88 60.9455C33.88 60.8555 34.03 60.7155 34.14 60.6755C34.25 60.6355 34.48 60.6755 34.5 60.7455C34.67 61.2655 35.11 61.6655 35.06 62.2755C35.0134 62.5506 35.025 62.8324 35.0939 63.1028C35.1628 63.3732 35.2875 63.6262 35.46 63.8455C35.46 64.1855 35.46 64.5655 35.74 64.8455C35.9547 65.0237 36.1225 65.2517 36.2288 65.5097C36.3352 65.7677 36.3767 66.0477 36.35 66.3255C36.35 66.4606 36.3807 66.594 36.44 66.7155C36.5 66.8755 36.62 66.8955 36.79 66.8955C36.96 66.8955 37.08 66.8955 37.1 66.6955C37.1199 66.4258 37.1199 66.1551 37.1 65.8855C36.65 65.4255 36.76 64.8855 36.77 64.2955C36.7906 64.2273 36.8327 64.1677 36.89 64.1255C36.9381 64.106 36.9919 64.106 37.04 64.1255C37.1938 64.2072 37.3237 64.3277 37.4166 64.475C37.5096 64.6224 37.5624 64.7914 37.57 64.9655C37.57 65.3155 37.57 65.6655 37.57 65.9655C37.5764 66.1019 37.6215 66.2337 37.7 66.3455C37.8832 66.6474 37.9833 66.9924 37.99 67.3455C37.99 67.5955 38.32 67.8255 38.34 68.0755C38.3374 68.4964 38.4785 68.9056 38.74 69.2355C38.7511 69.5117 38.817 69.783 38.9337 70.0336C39.0504 70.2842 39.2157 70.5092 39.42 70.6955C39.7 70.9955 39.71 71.4655 40.01 71.7755C40.0086 72.0535 40.07 72.3282 40.1894 72.5792C40.3089 72.8303 40.4834 73.0512 40.7 73.2255C40.7942 73.3278 40.8537 73.4573 40.87 73.5955C40.8688 73.9526 40.977 74.3016 41.18 74.5955C41.26 74.7091 41.2988 74.8467 41.29 74.9855C41.3037 75.5473 41.4886 76.0916 41.82 76.5455C41.93 76.7455 42.01 76.9055 42.24 76.9355C42.3726 76.9742 42.5124 76.9808 42.6481 76.9547C42.7837 76.9286 42.9112 76.8706 43.02 76.7855L44.09 75.7855C44.37 75.5455 44.33 75.1455 44.56 74.8755C44.7209 74.6456 44.7887 74.3634 44.75 74.0855C44.75 73.1755 44.75 72.2755 44.75 71.3655C44.7487 71.0732 44.8359 70.7874 45 70.5455C45.1205 70.3761 45.1853 70.1734 45.1853 69.9655C45.1853 69.7576 45.1205 69.5548 45 69.3855C44.92 69.2755 44.8 69.1455 44.8 69.0255C44.8169 68.6071 44.6779 68.1973 44.41 67.8755C44.3645 67.409 44.225 66.9566 44 66.5455C43.9399 66.3432 43.9399 66.1278 44 65.9255C44 65.7755 44.18 65.7355 44.31 65.7155C44.44 65.6955 44.6 65.7155 44.66 65.8755C44.81 66.2555 44.72 66.7055 45.05 67.0355C45.1142 67.118 45.16 67.2135 45.1841 67.3152C45.2083 67.417 45.2103 67.5228 45.19 67.6255C45.11 68.4455 45.63 68.8955 46.19 69.3355C46.3107 69.3968 46.4446 69.4277 46.58 69.4255C46.72 69.4255 46.86 69.4255 47 69.4255C47.1734 69.4354 47.3467 69.4033 47.5052 69.3319C47.6636 69.2605 47.8024 69.152 47.91 69.0155C48.13 68.7955 48.15 68.6155 47.97 68.2755C47.91 68.1555 47.74 68.0355 47.76 67.9255C47.84 67.3355 47.35 66.9255 47.32 66.3655C47.32 66.3655 47.32 66.2355 47.42 66.1955C47.4412 66.1832 47.4654 66.1767 47.49 66.1767C47.5145 66.1767 47.5387 66.1832 47.56 66.1955C47.72 66.3355 47.94 66.4655 47.99 66.6355C48.1627 67.0825 48.3665 67.5169 48.6 67.9355C48.6742 68.1727 48.8341 68.3738 49.0486 68.4995C49.2631 68.6253 49.5167 68.6666 49.76 68.6155C49.96 68.6155 50.17 68.6155 50.37 68.5455C50.57 68.4755 50.58 68.3955 50.48 68.2455C50.3366 68.0928 50.2516 67.8946 50.24 67.6855C50.24 67.2655 50.24 66.8455 50.24 66.4255C50.2532 66.3591 50.2884 66.2992 50.34 66.2555C50.43 66.1655 50.54 66.1855 50.66 66.3255C50.7709 66.4101 50.8629 66.5169 50.9301 66.6392C50.9972 66.7615 51.0381 66.8965 51.05 67.0355C51.0384 67.1732 51.0555 67.3119 51.1003 67.4427C51.1451 67.5735 51.2164 67.6936 51.31 67.7955C51.4777 68.0621 51.7111 68.2811 51.9877 68.4317C52.2643 68.5823 52.575 68.6593 52.89 68.6555C53 68.6555 53.13 68.7855 53.24 68.8655C53.35 68.9455 53.47 68.9355 53.6 68.8055C53.8119 68.6278 53.9595 68.3853 54.02 68.1155C54.1356 67.5857 54.3312 67.0765 54.6 66.6055C54.6 66.6055 54.7 66.6055 54.74 66.6855C54.78 66.7655 54.84 66.7955 54.84 66.8455C54.84 67.4055 54.84 67.9655 54.84 68.5255C54.84 68.8155 55.04 68.9855 55.38 68.9955H56.22C56.59 68.6655 57.13 68.6355 57.46 68.2555C57.55 68.1455 57.7 68.0555 57.72 67.9355C57.84 67.3955 58.34 66.9955 58.25 66.3855C58.2551 66.3509 58.2687 66.3182 58.2897 66.2903C58.3106 66.2623 58.3382 66.2401 58.37 66.2255C58.4759 66.153 58.6016 66.1146 58.73 66.1155C58.84 66.1155 59 66.2755 59 66.3655C59.0619 66.6395 59.0374 66.9259 58.93 67.1855C58.61 67.7955 58.32 68.4155 57.99 69.0155C57.9 69.1655 57.84 69.2455 57.99 69.3555L58.13 69.5155L58.63 70.1755C58.56 70.6955 58.96 71.0755 59.04 71.5355C59.17 72.2055 58.98 72.9355 59.44 73.5355C59.4575 73.5677 59.4666 73.6038 59.4666 73.6405C59.4666 73.6771 59.4575 73.7132 59.44 73.7455C59.32 74.0555 59.07 74.3155 59.09 74.7455C59.0875 75.0217 59.054 75.2968 58.99 75.5655C58.99 75.6955 58.83 75.8055 58.78 75.9355C58.73 76.0655 58.84 76.1655 59 76.1855C59.2718 76.2433 59.5527 76.2438 59.8247 76.1869C60.0968 76.1301 60.354 76.0172 60.58 75.8555C60.72 75.7355 60.99 75.7955 61.19 75.7455C61.3209 75.7105 61.4434 75.6492 61.55 75.5655C61.9597 75.1072 62.2635 74.5643 62.44 73.9755C62.4558 73.6949 62.3627 73.419 62.18 73.2055C62.06 73.0455 62.04 72.9655 62.23 72.8955C62.2965 72.8899 62.3634 72.8899 62.43 72.8955C62.66 72.8955 62.8 73.0655 62.99 73.1455C63.0381 73.1649 63.0919 73.1649 63.14 73.1455C63.19 73.1455 63.26 73.0355 63.26 72.9755C63.3408 72.2275 63.2091 71.4719 62.88 70.7955C62.8547 70.7278 62.8547 70.6532 62.88 70.5855C62.94 70.3955 63.05 70.3855 63.18 70.5055L63.81 71.0555C63.8348 71.0678 63.8622 71.0742 63.89 71.0742C63.9177 71.0742 63.9451 71.0678 63.97 71.0555C63.97 71.0555 64.09 70.9455 64.09 70.8955C64.09 70.0555 64.09 69.2155 64.09 68.3755C64.0935 68.2366 64.0454 68.1014 63.9548 67.996C63.8643 67.8907 63.7378 67.8228 63.6 67.8055C63.5359 67.7799 63.4755 67.7463 63.42 67.7055C63.363 67.6642 63.3195 67.6072 63.2946 67.5414C63.2697 67.4757 63.2646 67.4041 63.28 67.3355C63.28 67.1955 63.34 67.0555 63.49 67.0355C63.7685 67.0174 64.0289 66.8913 64.2158 66.6839C64.4026 66.4765 64.501 66.2044 64.49 65.9255C64.5378 65.6512 64.6472 65.3913 64.81 65.1655C64.8655 65.0782 64.8907 64.975 64.8817 64.872C64.8727 64.7689 64.8299 64.6717 64.76 64.5955C64.5294 64.3369 64.3125 64.0665 64.11 63.7855C64.05 63.7055 64.11 63.5155 64.11 63.4055C64.11 63.2955 64.3 63.2855 64.43 63.4055C64.56 63.5255 64.84 63.7955 65.05 63.9755C65.1347 64.031 65.2337 64.0605 65.335 64.0605C65.4362 64.0605 65.5353 64.031 65.62 63.9755C65.76 63.8255 65.92 63.6855 66.06 63.5255C66.64 62.9055 66.66 62.6955 66.25 61.8755C66.1461 61.6245 66.0259 61.3806 65.89 61.1455C65.79 60.9855 65.75 60.8755 65.89 60.8155C66.0152 60.7659 66.1547 60.7659 66.28 60.8155C66.4962 60.9912 66.7032 61.1781 66.9 61.3755C67.11 61.5555 67.23 61.5355 67.34 61.2955C67.45 61.0555 67.5 60.9155 67.6 60.7355C67.7474 60.538 67.8167 60.293 67.7945 60.0475C67.7724 59.802 67.6603 59.5734 67.48 59.4055C67.2969 59.2032 67.136 58.9819 67 58.7455C66.9897 58.6795 66.9943 58.6121 67.0133 58.5481C67.0323 58.4841 67.0653 58.4251 67.11 58.3755C67.1485 58.3429 67.1932 58.3183 67.2413 58.3031C67.2895 58.2879 67.3402 58.2825 67.3904 58.2872C67.4407 58.2918 67.4896 58.3065 67.5341 58.3302C67.5787 58.3539 67.6181 58.3863 67.65 58.4255C67.7368 58.6074 67.8336 58.7843 67.94 58.9555C68.0137 59.0229 68.11 59.0603 68.21 59.0603C68.3099 59.0603 68.4062 59.0229 68.48 58.9555C68.5175 58.8274 68.5677 58.7035 68.63 58.5855C68.7728 58.4531 68.8831 58.2894 68.9521 58.1073C69.0211 57.9252 69.0469 57.7295 69.0275 57.5357C69.0081 57.3419 68.9441 57.1553 68.8404 56.9904C68.7367 56.8255 68.5962 56.6869 68.43 56.5855C68.29 56.4655 68.28 56.3455 68.43 56.2655C68.4761 56.2187 68.5354 56.1873 68.6 56.1755C68.74 56.1755 68.88 56.1755 69.02 56.1755C69.1208 56.1786 69.22 56.1492 69.3029 56.0915C69.3857 56.0339 69.4478 55.9511 69.48 55.8555C69.4898 55.7156 69.4898 55.5753 69.48 55.4355C69.4821 55.021 69.5924 54.6142 69.8 54.2555C69.97 53.9055 69.8 53.3955 70 53.0455C70.1961 52.683 70.2992 52.2776 70.3 51.8655C70.3 50.4655 70.3 49.0655 70.3 47.6655C70.3 47.2555 70.3 46.8355 70.3 46.4155C70.01 46.0955 69.97 45.6455 69.72 45.3155C69.5305 45.0186 69.4492 44.6653 69.49 44.3155C69.4965 44.0364 69.4123 43.7626 69.25 43.5355C69.1633 43.4265 69.1111 43.2942 69.1 43.1555C69.0968 42.4665 68.8954 41.7931 68.52 41.2155C68.2916 40.6411 67.9517 40.1177 67.52 39.6755C67.2625 39.4438 67.0666 39.1517 66.95 38.8255C66.83 38.5155 66.44 38.3055 66.33 37.9955C66.1541 37.5405 65.8608 37.1402 65.48 36.8355C65.1432 36.4929 64.8811 36.0843 64.71 35.6355C64.59 35.4055 64.71 35.2355 64.87 35.2255C65.0062 35.1973 65.1469 35.1978 65.2829 35.2271C65.4189 35.2564 65.5474 35.3137 65.66 35.3955C66.31 36.0255 66.97 36.6455 67.66 37.2955C67.95 37.5955 67.96 38.0655 68.3 38.3455C68.64 38.6255 68.78 38.8555 69.02 39.1155C69.0663 39.1634 69.1006 39.2217 69.12 39.2855C69.2 39.8155 69.7 40.0655 69.93 40.4855C70.03 40.6555 70.07 40.8755 70.18 41.0455C70.337 41.2758 70.4239 41.5468 70.43 41.8255C70.4293 41.9601 70.4675 42.092 70.54 42.2055C70.7571 42.4914 70.8604 42.8477 70.83 43.2055C70.8212 43.5593 70.9187 43.9076 71.11 44.2055C71.35 44.6255 71.21 45.2055 71.6 45.5455C71.6 45.8955 71.66 46.2355 71.68 46.5455C71.7 46.8555 71.68 47.2455 71.68 47.5455C71.68 47.6755 71.68 47.8555 71.74 47.9455C72.24 48.5555 72.04 49.2755 72.07 49.9455C72.1 50.6155 72.07 51.3455 72.07 52.0455C72.07 52.1055 72 52.1655 71.98 52.2255C71.96 52.2855 71.66 52.5355 71.89 52.7555C72.12 52.9755 72.26 53.1855 72.58 53.1755C72.9 53.1655 73 53.1755 73.21 53.1755C73.4556 53.1772 73.6934 53.0885 73.8778 52.9262C74.0623 52.7639 74.1805 52.5394 74.21 52.2955C74.2163 51.9489 74.3518 51.6173 74.59 51.3655C74.7934 51.172 74.987 50.9684 75.17 50.7555C75.4458 50.4657 75.7895 50.2492 76.17 50.1255C76.42 50.0155 76.42 49.9855 76.87 50.1255C77.32 50.2655 77.72 50.1255 78.04 50.4855C78.36 50.8455 78.59 50.6255 78.73 50.9055C78.87 51.1855 78.89 51.2855 78.99 51.4655C79.1094 51.6334 79.1818 51.8302 79.2 52.0355C79.2 52.5255 79.2 53.0355 79.2 53.5055C79.2 53.7755 79.26 54.0755 79.05 54.3055C78.84 54.5355 78.78 55.0955 78.44 55.3755C78.1784 55.6103 77.9313 55.8608 77.7 56.1255C77.57 56.2455 77.48 56.6055 77.56 56.6955C77.63 56.7701 77.7155 56.8285 77.8105 56.8665C77.9056 56.9045 78.0078 56.9212 78.11 56.9155H79.37C79.5082 56.9217 79.6463 56.8991 79.7754 56.8492C79.9045 56.7993 80.0218 56.7231 80.12 56.6255C80.72 56.0355 81.31 55.4455 81.93 54.8755C81.9899 54.8431 82.0569 54.8261 82.125 54.8261C82.1931 54.8261 82.2601 54.8431 82.32 54.8755C82.3762 54.909 82.4248 54.9539 82.4627 55.0072C82.5006 55.0606 82.5269 55.1213 82.54 55.1855C82.565 55.4649 82.565 55.746 82.54 56.0255C82.5329 56.1621 82.48 56.2925 82.39 56.3955C81.86 56.9455 81.31 57.4855 80.76 58.0155C80.6547 58.1071 80.5195 58.1569 80.38 58.1555C79.82 58.1555 79.26 58.2055 78.7 58.1555C77.16 58.1555 77.54 58.3655 76.34 57.1555C76.2418 57.0579 76.1245 56.9817 75.9954 56.9318C75.8663 56.8818 75.7282 56.8593 75.59 56.8655C74.82 56.8655 74.05 56.8655 73.29 56.8655C72.935 56.8619 72.5883 56.7579 72.29 56.5655C72.0981 56.4943 71.8945 56.4604 71.69 56.4655C71.5 56.4655 71.24 56.6255 71.24 56.8055C71.2561 57.2255 71.1133 57.6361 70.84 57.9555C70.84 58.3955 70.36 58.6555 70.4 59.0955C70.44 59.5355 70.05 59.8355 69.95 60.2355C69.9661 60.3012 69.9661 60.3698 69.95 60.4355C69.49 61.0455 69.34 61.8355 68.85 62.4355C68.36 63.0355 68.21 63.6755 67.67 64.1455C67.48 64.3055 67.44 64.6455 67.28 64.8555C66.9107 65.1915 66.5758 65.5633 66.28 65.9655C66.1075 66.5699 66.0699 67.2049 66.17 67.8255C66.17 68.5255 66.17 69.2255 66.17 69.9255C66.2023 70.2819 66.1027 70.6377 65.89 70.9255C65.8425 70.975 65.8111 71.0378 65.8 71.1055C65.8 71.4555 65.8 71.8155 65.73 72.1555C65.66 72.4955 65.38 72.5855 65.38 72.8855C65.38 73.1855 65.38 73.1655 65.55 73.2155C65.72 73.2655 65.67 73.1455 65.73 73.1055C65.7878 73.0684 65.8479 73.035 65.91 73.0055C65.9612 72.9844 66.0187 72.9844 66.07 73.0055C66.1288 73.0444 66.1714 73.1035 66.1898 73.1716C66.2082 73.2397 66.2012 73.3122 66.17 73.3755C66.0696 73.5549 65.9451 73.7198 65.8 73.8655C65.17 74.5155 64.51 75.1555 63.89 75.8055C63.46 76.2555 62.89 76.6055 62.73 77.2655C62.67 77.4755 62.36 77.4255 62.21 77.5555C61.78 77.9155 61.38 78.3055 60.95 78.6555C60.87 78.7255 60.68 78.6555 60.56 78.6555C60.44 78.6555 60.38 78.4955 60.56 78.3455C60.74 78.1955 60.82 78.0255 60.97 77.8755C61.12 77.7255 61.13 77.6255 60.97 77.5655C60.81 77.5055 60.65 77.4655 60.58 77.5655C60.2541 77.8304 59.8386 77.9594 59.42 77.9255C58.79 77.9255 58.16 77.9255 57.53 77.9255C57.4258 77.9211 57.3218 77.9375 57.224 77.9735C57.1261 78.0095 57.0364 78.0646 56.96 78.1355C56.82 78.2555 56.7 78.2955 56.64 78.1355C56.58 77.9755 56.54 77.8355 56.64 77.7455C56.8021 77.5205 56.9792 77.3067 57.17 77.1055C57.2466 77.0354 57.3082 76.9505 57.3512 76.856C57.3941 76.7615 57.4175 76.6593 57.42 76.5555C57.42 76.1355 57.42 75.7155 57.42 75.2955C57.42 75.2055 57.26 75.0755 57.15 75.0355C57.0184 75.0005 56.8784 75.0184 56.76 75.0855C56.489 75.3061 56.2318 75.5432 55.99 75.7955L53.63 78.1755C53.49 78.3155 53.37 78.3255 53.31 78.1755C53.25 78.0255 53.23 77.8555 53.31 77.7855C53.96 77.0555 54.63 76.3455 55.31 75.6155C55.3415 75.5571 55.358 75.4918 55.358 75.4255C55.358 75.3591 55.3415 75.2938 55.31 75.2355C55.174 75.0786 55.0711 74.8959 55.0075 74.6983C54.9439 74.5006 54.9209 74.2922 54.94 74.0855C54.94 73.0855 54.94 72.0855 54.94 71.1555C54.94 70.9955 54.73 70.8155 54.5 70.7855C54.364 70.8057 54.2259 70.8057 54.09 70.7855C53.8494 70.6579 53.5985 70.5508 53.34 70.4655C52.9205 70.4353 52.4994 70.4353 52.08 70.4655C52.0101 70.4605 51.9399 70.4605 51.87 70.4655C50.99 70.5555 50.05 70.2155 49.24 70.8355H47.99C47.85 70.8339 47.7116 70.8657 47.5864 70.9283C47.4612 70.9909 47.3527 71.0825 47.27 71.1955C47.1205 71.339 47.0251 71.5298 47 71.7355C47 72.1555 47 72.5755 47 72.9955C47 73.1755 47.17 73.3155 47.43 73.3355H47.84L47.69 73.1955ZM73.69 54.3055C73.07 54.3055 72.45 54.3055 71.84 54.3955C71.7 54.3955 71.66 54.5755 71.64 54.7155C71.623 54.7816 71.6263 54.8513 71.6495 54.9155C71.6727 54.9797 71.7147 55.0354 71.77 55.0755C72.06 55.3055 72.45 55.0755 72.77 55.3155C72.9779 55.4964 73.2443 55.5959 73.52 55.5955C74.0027 55.5604 74.4873 55.5604 74.97 55.5955C75.58 55.6755 75.97 55.2055 76.49 55.0855C76.82 54.7455 77.16 54.4055 77.49 54.0355C77.55 53.9755 77.49 53.7855 77.43 53.6655C77.37 53.5455 77.31 53.5955 77.29 53.6655C76.95 53.9007 76.5431 54.02 76.13 54.0055C75.9416 54.1552 75.7249 54.2651 75.4929 54.3287C75.2608 54.3923 75.0183 54.4082 74.78 54.3755C74.36 54.2955 74 54.3055 73.67 54.3055H73.69ZM37.42 74.4755H37.9C38.1364 74.4479 38.3587 74.3489 38.5374 74.1917C38.7161 74.0344 38.8426 73.8265 38.9 73.5955C38.915 73.3257 38.915 73.0553 38.9 72.7855C38.9 72.5355 38.76 72.4355 38.52 72.4055C38.28 72.3755 38.23 72.4055 38.17 72.5655C38.0898 72.8212 37.9607 73.0589 37.79 73.2655C37.51 73.5555 37.24 73.8655 36.97 74.1755C36.9577 74.1986 36.9513 74.2243 36.9513 74.2505C36.9513 74.2766 36.9577 74.3024 36.97 74.3255C37.0067 74.3838 37.0637 74.4265 37.13 74.4455C37.2254 74.4647 37.3226 74.4748 37.42 74.4755ZM57.35 72.0855C57.3239 71.9527 57.2871 71.8223 57.24 71.6955C57.18 71.5455 57.06 71.5155 56.89 71.5555C56.46 71.6655 56.26 72.0555 55.95 72.3155C55.8226 72.4317 55.7314 72.5821 55.687 72.7488C55.6427 72.9154 55.6472 73.0913 55.7 73.2555C55.7085 73.322 55.7341 73.3852 55.7742 73.4389C55.8143 73.4926 55.8676 73.5351 55.9289 73.5623C55.9902 73.5894 56.0575 73.6003 56.1243 73.5938C56.191 73.5874 56.255 73.5639 56.31 73.5255C56.62 73.2555 56.9 72.9555 57.2 72.6655C57.2625 72.5837 57.3079 72.4903 57.3337 72.3907C57.3594 72.291 57.365 72.1873 57.35 72.0855ZM77.38 51.5455C77.1854 51.4896 76.9976 51.4125 76.82 51.3155C76.59 51.1755 76.4 50.9855 76.14 51.3155C75.88 51.6455 75.74 51.6955 75.55 51.8955C75.4675 52.0041 75.408 52.1284 75.3754 52.2608C75.3427 52.3932 75.3374 52.531 75.36 52.6655C75.36 52.9655 75.49 53.0755 75.69 52.9855C76.3442 52.7792 76.9108 52.3604 77.3 51.7955C77.3 51.7955 77.34 51.6155 77.38 51.5455ZM36.63 73.1055C36.63 73.0455 36.75 72.9955 36.75 72.9355C36.81 72.4755 37.18 72.2455 37.44 71.9355C37.5456 71.7942 37.6176 71.6307 37.6505 71.4574C37.6834 71.2841 37.6764 71.1056 37.63 70.9355C37.6077 70.868 37.5614 70.8111 37.5 70.7755C37.4775 70.7612 37.4515 70.7537 37.425 70.7537C37.3984 70.7537 37.3724 70.7612 37.35 70.7755C37.0426 71.0511 36.7521 71.345 36.48 71.6555C36.3323 71.8877 36.2115 72.136 36.12 72.3955C36.12 72.4555 36.02 72.5455 36.04 72.5655C36.06 72.5855 36.31 72.8655 36.46 73.0155C36.512 73.0535 36.5693 73.0838 36.63 73.1055ZM36.33 69.0455C36.2667 69.0406 36.2032 69.0406 36.14 69.0455C36.0788 69.0738 36.0243 69.1147 35.98 69.1655L35.28 69.9155C35.18 70.0255 35.23 70.1555 35.47 70.3955C35.71 70.6355 35.79 70.6555 35.95 70.4755C36.2292 70.1794 36.4929 69.8689 36.74 69.5455C36.8 69.4755 36.74 69.2855 36.68 69.1755C36.6463 69.1161 36.5927 69.0704 36.5287 69.0467C36.4646 69.0229 36.3943 69.0225 36.33 69.0455ZM34.7 68.2055C34.685 68.335 34.685 68.4659 34.7 68.5955C34.7461 68.7125 34.8065 68.8233 34.88 68.9255L35.05 68.8155C35.1943 68.6796 35.3311 68.5361 35.46 68.3855C35.4933 68.3302 35.513 68.2678 35.5177 68.2034C35.5223 68.1391 35.5117 68.0745 35.4867 68.015C35.4617 67.9555 35.423 67.9028 35.3737 67.861C35.3244 67.8193 35.266 67.7898 35.2032 67.775C35.1404 67.7601 35.075 67.7603 35.0123 67.7754C34.9495 67.7906 34.8913 67.8204 34.8422 67.8624C34.7932 67.9043 34.7547 67.9573 34.73 68.0169C34.7053 68.0765 34.695 68.1411 34.7 68.2055ZM55.9 71.0155L56.03 70.9055C56.03 70.9055 55.95 70.7855 55.91 70.7855C55.87 70.7855 55.74 70.8455 55.79 70.9555C55.84 71.0655 55.86 70.9955 55.9 71.0155Z" fill="white"/>
<path d="M61.52 15.9455C61.52 16.0855 61.52 16.2255 61.52 16.3655C61.5582 16.8497 61.4313 17.3326 61.16 17.7355C61.1404 17.8009 61.1357 17.8698 61.146 17.9373C61.1564 18.0047 61.1817 18.069 61.22 18.1255C61.3107 18.3082 61.4551 18.4589 61.6338 18.5572C61.8126 18.6555 62.0171 18.6968 62.22 18.6755C62.3551 18.6751 62.4884 18.6444 62.61 18.5855C63.0613 18.2701 63.4093 17.8282 63.61 17.3155C63.67 17.1255 63.89 16.9755 63.92 16.7855C64.045 16.3102 64.3358 15.8952 64.74 15.6155C64.93 15.4355 65 15.4355 65.25 15.5655C65.68 15.7655 66.13 15.9555 66.54 16.1955C66.95 16.4355 67.54 16.6555 68 16.9555C68.46 17.2555 68.89 17.3155 69.3 17.5555C69.7457 17.7392 70.1685 17.9741 70.56 18.2555C71.05 18.2555 71.36 18.8255 71.91 18.7055C71.97 18.7055 72.08 18.7055 72.11 18.7055C72.5 19.2055 73.17 18.9755 73.63 19.2955C73.86 19.4455 74.15 19.4855 74.37 19.6455C74.6456 19.8608 74.9031 20.0982 75.14 20.3555C75.2374 20.4517 75.2976 20.5792 75.31 20.7155C75.3601 21.271 75.3601 21.83 75.31 22.3855C75.2263 22.7963 75.0706 23.189 74.85 23.5455C74.61 23.9555 74.17 24.2255 74.04 24.7455C73.9284 25.0026 73.7442 25.2215 73.51 25.3755C72.91 25.8755 72.74 26.6755 72.14 27.1855C71.5759 27.7046 71.0386 28.252 70.53 28.8255C69.91 30.1255 68.68 30.8755 67.79 31.9355C67.4293 32.2502 67.0333 32.522 66.61 32.7455C66.2581 33.0983 65.8875 33.4322 65.5 33.7455C65.2128 33.9316 64.908 34.089 64.59 34.2155C64.32 34.3155 64.11 34.4955 63.86 34.5855C63.5397 34.7132 63.2289 34.8636 62.93 35.0355C62.6722 35.1261 62.4028 35.18 62.13 35.1955C61.99 35.1955 61.9 35.6255 62 35.7455C62.3931 36.1443 62.7295 36.5952 63 37.0855C63.3 37.7555 63.33 37.8655 62.78 38.2955C62.78 38.2955 62.64 38.3755 62.61 38.3555C62.4896 38.2869 62.3786 38.2029 62.28 38.1055L60.36 36.1755C60.01 35.8355 59.65 35.5055 59.29 35.1755C58.77 35.0955 58.5 34.6355 58.09 34.3855C57.68 34.1355 57.36 34.0155 56.99 33.8355C56.62 33.6555 56.13 33.4255 55.71 33.1855C55.3013 33.0343 54.9198 32.8182 54.58 32.5455C54.4399 32.5353 54.3032 32.4973 54.1778 32.4338C54.0525 32.3703 53.9411 32.2825 53.85 32.1755C53.6853 31.9963 53.4813 31.8579 53.2539 31.7711C53.0266 31.6844 52.7822 31.6516 52.54 31.6755C52.3517 31.6804 52.1654 31.6356 52 31.5455C51.65 31.3355 51.28 31.1555 50.91 30.9755C50.54 30.7955 50.07 30.9755 49.74 30.6255C49.6333 30.5375 49.4982 30.4913 49.36 30.4955L47 30.4055C46.8645 30.3922 46.7325 30.355 46.61 30.2955C46.5799 30.2812 46.5535 30.2603 46.5328 30.2343C46.512 30.2083 46.4973 30.1779 46.49 30.1455C46.49 30.0155 46.49 29.8055 46.56 29.7755C47.05 29.5555 47.46 29.1355 48.07 29.1955C48.49 29.1955 48.91 29.1955 49.33 29.1955C49.58 29.1955 50.17 28.6155 50.17 28.3655C50.17 27.7355 50.23 27.1055 50.17 26.4855C50.17 25.0855 50.17 23.6955 50.17 22.2955C50.17 22.1555 50.17 21.9755 50.17 21.8855C49.64 21.2155 49.88 20.4155 49.81 19.6755C49.7792 19.4717 49.7041 19.2771 49.59 19.1055C49.46 18.8655 49.4 18.5855 49.25 18.3655C49.1 18.1455 49.04 17.8455 48.89 17.6255C48.6042 17.0733 48.2695 16.5479 47.89 16.0555C47.8031 15.9284 47.7467 15.783 47.7252 15.6306C47.7038 15.4782 47.7178 15.3228 47.7661 15.1767C47.8145 15.0306 47.896 14.8976 48.0042 14.7881C48.1124 14.6786 48.2444 14.5956 48.39 14.5455C48.73 14.4855 49.09 14.5455 49.39 14.4555C49.6463 14.3684 49.894 14.258 50.13 14.1255C50.2693 14.1054 50.4107 14.1054 50.55 14.1255C51.46 14.1255 52.36 14.0755 53.27 14.1255C53.7572 14.1827 54.2478 14.0502 54.64 13.7555C55.2557 13.7006 55.8458 13.4832 56.35 13.1255C56.8766 12.9454 57.3553 12.6479 57.75 12.2555C57.97 11.9855 58.39 12.0255 58.63 11.7455C58.8685 11.4903 59.1223 11.2499 59.39 11.0255C59.57 10.8455 59.66 10.8855 59.9 11.0255C60.3889 11.4314 60.7673 11.9542 61 12.5455C61 12.6055 61.1 12.6555 61.11 12.7255C61.1149 13.0599 61.1383 13.3937 61.18 13.7255C61.24 13.9855 61.48 14.2155 61.51 14.4655C61.54 14.955 61.54 15.446 61.51 15.9355L61.52 15.9455ZM63.62 32.9455C64.01 33.0055 64.18 32.6055 64.53 32.5155C64.7806 32.4026 65.0053 32.2392 65.19 32.0355C65.4537 31.8101 65.701 31.5661 65.93 31.3055C66.0294 31.1264 66.1131 30.9391 66.18 30.7455C66.2213 30.6521 66.2907 30.574 66.3785 30.522C66.4664 30.47 66.5683 30.4468 66.67 30.4555C66.7719 30.4765 66.8772 30.4758 66.9789 30.4534C67.0805 30.431 67.1763 30.3874 67.26 30.3255L69 28.5455C69.11 27.9355 69.62 27.6455 70 27.2455C70.57 26.6355 71.16 26.0355 71.75 25.4455C72.04 25.1455 72.07 24.6855 72.4 24.3955C72.7686 24.0772 73.1037 23.722 73.4 23.3355C73.647 23.0001 73.8488 22.6336 74 22.2455C74.1432 21.8546 74.1675 21.4302 74.07 21.0255C74.0494 20.9574 74.0073 20.8977 73.95 20.8555C73.8527 20.7113 73.7238 20.5913 73.573 20.5046C73.4222 20.418 73.2535 20.3669 73.08 20.3555C72.51 20.3555 72.08 19.8255 71.51 19.9055C71.4 19.9055 71.27 19.7855 71.15 19.7255C69.68 18.9955 68.15 18.3055 66.76 17.4955C66.3718 17.3833 66.0244 17.161 65.76 16.8555C65.6611 16.7571 65.5415 16.6819 65.41 16.6355C65.3455 16.6225 65.2789 16.6239 65.215 16.6394C65.1511 16.655 65.0913 16.6844 65.04 16.7255C64.65 17.2855 64.48 17.9655 64.04 18.5255C63.9 18.7155 64.19 19.0855 64.46 19.0955C65.02 19.0955 65.57 19.0955 66.13 19.1455C66.2677 19.1608 66.3989 19.2126 66.51 19.2955C66.7802 19.4526 67.0034 19.6792 67.1564 19.9518C67.3094 20.2244 67.3866 20.533 67.38 20.8455C67.32 21.6855 67.38 22.5255 67.38 23.3555C67.3502 23.561 67.3852 23.7707 67.48 23.9555C67.6346 24.1865 67.7393 24.4472 67.7876 24.721C67.8358 24.9948 67.8264 25.2756 67.76 25.5455C67.76 25.7555 67.61 25.7755 67.47 25.6355C67.4183 25.589 67.3568 25.5548 67.29 25.5355C67.24 25.5355 67.16 25.5355 67.13 25.5355C67.0731 25.5784 67.0316 25.6387 67.0117 25.7072C66.9919 25.7757 66.9948 25.8488 67.02 25.9155C67.15 26.2955 67.48 26.6055 67.37 27.0755C67.32 27.3055 67.25 27.4155 66.98 27.4555L66.56 27.5155C66.47 27.1755 66.39 27.0955 66.28 27.2055C66.2677 27.2286 66.2613 27.2543 66.2613 27.2805C66.2613 27.3066 66.2677 27.3324 66.28 27.3555C66.3026 27.4155 66.3474 27.4645 66.405 27.4924C66.4627 27.5203 66.5289 27.525 66.59 27.5055C66.59 27.8455 66.59 28.1855 66.59 28.5055C66.59 28.6355 66.59 28.7655 66.59 28.9055C66.59 29.0455 66.19 29.2155 66.08 29.1455L65.76 28.8855C65.6 28.7655 65.28 28.6955 65.21 28.7855C65.14 28.8755 65.02 29.0055 65.02 29.1255C65.02 29.7355 65.02 30.3555 64.95 30.9655C64.9319 31.0322 64.889 31.0895 64.83 31.1255C64.83 31.1255 64.71 31.1255 64.67 31.0755C64.63 31.0255 64.37 30.7955 64.21 30.6755C64.1066 30.6145 63.9957 30.5674 63.88 30.5355C63.8119 30.646 63.7644 30.768 63.74 30.8955C63.74 31.5855 63.74 32.2655 63.74 32.8955C63.57 32.9259 63.3952 32.9154 63.23 32.865C63.0649 32.8146 62.914 32.7256 62.79 32.6055C62.7474 32.5543 62.6968 32.5103 62.64 32.4755C62.52 32.4155 62.12 32.5855 62.11 32.7055C62.0954 32.9086 62.0954 33.1124 62.11 33.3155C62.11 33.6355 62.46 33.8655 62.68 33.6855C62.9 33.5055 63.42 33.3655 63.68 33.0655C63.61 33.0855 63.6 32.9955 63.62 32.9255V32.9455ZM66.55 22.2055V20.7155C66.55 20.5555 66.31 20.3555 66.11 20.3555H64.65C64.5126 20.3748 64.3727 20.3503 64.25 20.2855C63.7 19.8555 63.05 20.0055 62.44 19.9655C62.23 19.9655 61.95 20.0255 61.83 19.9155C61.3623 19.595 60.7909 19.4628 60.23 19.5455C59.95 19.5455 59.67 19.5455 59.39 19.5455C59.2573 19.5119 59.1319 19.4543 59.02 19.3755C58.8564 19.2481 58.6572 19.1747 58.45 19.1655H58C57 19.1655 56.86 19.0755 56.89 20.1055C56.92 21.1355 56.84 22.1055 56.89 23.0355C56.89 23.5855 56.41 23.8855 56.46 24.3955C56.4636 24.5331 56.4363 24.6698 56.38 24.7955C56.3115 24.919 56.2274 25.0333 56.13 25.1355L55.73 25.6155C55.69 25.6736 55.6596 25.7378 55.64 25.8055C55.39 26.6255 54.44 26.9555 54.22 27.8055C53.9732 27.9276 53.7359 28.068 53.51 28.2255C53.2329 28.4391 52.9782 28.6803 52.75 28.9455C52.51 29.2255 52.11 29.1855 51.86 29.4455C51.7647 29.5441 51.6746 29.6476 51.59 29.7555C51.575 29.8078 51.575 29.8632 51.59 29.9155C52.0155 30.1274 52.4529 30.3143 52.9 30.4755C53.1762 30.4951 53.442 30.5883 53.67 30.7455C55.19 31.5155 56.73 32.2655 58.26 33.0255C58.62 33.2055 58.93 33.5255 59.4 33.4355C59.87 33.3455 60.07 32.9555 60.5 32.9055C61.0667 32.498 61.5461 31.9812 61.91 31.3855C62.0797 31.0856 62.2844 30.807 62.52 30.5555C63.051 30.1087 63.4748 29.5482 63.76 28.9155C64.2655 28.3497 64.6622 27.6954 64.93 26.9855C65.07 26.6755 65.26 26.3955 65.41 26.0755C65.5957 25.7812 65.8065 25.5035 66.04 25.2455C66.24 24.9555 66.04 24.5655 66.3 24.2455C66.4489 24.0966 66.5349 23.8961 66.54 23.6855C66.54 23.1655 66.55 22.6755 66.55 22.1855V22.2055ZM51.43 25.0155C51.43 26.0155 51.43 27.0155 51.43 27.9355C51.43 28.0455 51.56 28.1555 51.64 28.2455C51.72 28.3355 51.76 28.1855 51.81 28.1355C52.8897 27.1681 53.8559 26.0811 54.69 24.8955C55.017 24.539 55.2203 24.0867 55.27 23.6055C55.27 23.3555 55.61 23.1155 55.61 22.8755C55.61 21.6155 55.61 20.3655 55.61 19.1055C55.61 18.9255 55.43 18.7455 55.35 18.5555C55.3302 18.4971 55.3302 18.4339 55.35 18.3755C55.4992 18.1292 55.7288 17.942 56 17.8455C56.9 17.8455 57.81 17.8455 58.72 17.8955C58.8566 17.932 58.981 18.0045 59.08 18.1055C59.2523 18.2171 59.4548 18.273 59.66 18.2655C59.99 18.2655 60.25 18.1055 60.25 17.8355C60.25 17.0055 60.25 16.1655 60.25 15.3255C60.3322 14.7727 60.1959 14.2095 59.87 13.7555C59.8 13.6755 59.87 13.4855 59.87 13.3455C59.8606 13.208 59.8228 13.074 59.7591 12.9518C59.6955 12.8297 59.6072 12.722 59.5 12.6355C59.38 12.5155 59.24 12.4355 59.17 12.5155C58.4827 13.0861 57.7143 13.5512 56.89 13.8955C56.48 14.1355 56.01 14.2755 55.6 14.5155C55.1938 14.7725 54.7297 14.9238 54.25 14.9555C53.79 15.3955 53.25 15.2755 52.66 15.2955L49.95 15.3455C49.8154 15.3574 49.6837 15.3911 49.56 15.4455C49.5 15.4455 49.41 15.5255 49.41 15.5755C49.3556 15.7752 49.3556 15.9858 49.41 16.1855C49.5957 16.7043 49.8735 17.1853 50.23 17.6055C50.5206 17.9065 50.6851 18.3072 50.69 18.7255C50.69 18.9755 50.98 19.2055 51.04 19.4555C51.0791 19.8175 51.0858 20.1823 51.06 20.5455C51.06 20.8155 51.06 21.0955 51.06 21.3755C51.0853 21.4417 51.1226 21.5027 51.17 21.5555C51.331 21.7833 51.4151 22.0566 51.41 22.3355C51.42 23.1955 51.43 24.1055 51.43 25.0155ZM61.43 33.9355C61.43 33.9355 61.33 33.8055 61.27 33.7955C61.0711 33.7849 60.8752 33.847 60.7188 33.9703C60.5623 34.0936 60.4561 34.2696 60.42 34.4655C60.42 34.4655 60.52 34.5755 60.58 34.5855C60.7751 34.603 60.9695 34.5456 61.1237 34.4248C61.2779 34.3041 61.3803 34.1291 61.41 33.9355H61.43Z" fill="white"/>
<path d="M29.4499 35.0155H27.7799C27.6418 35.0177 27.5048 34.9913 27.3774 34.9379C27.2501 34.8846 27.1351 34.8054 27.0399 34.7055C26.4899 34.1755 25.6899 33.9855 25.2499 33.3255C25.1742 33.214 25.1137 33.0929 25.0699 32.9655C25.0418 32.9002 25.0396 32.8266 25.0638 32.7598C25.0879 32.6929 25.1366 32.6378 25.1999 32.6055C25.256 32.5752 25.3169 32.5549 25.3799 32.5455C25.4499 32.5455 25.5399 32.5455 25.5899 32.5455C25.9367 32.7624 26.2975 32.9562 26.6699 33.1255C27.2406 33.4989 27.8853 33.7445 28.5599 33.8455C28.8199 33.8455 28.9899 34.1755 29.2999 34.1755C29.7827 34.2157 30.2666 34.1113 30.6899 33.8755C31.1299 33.5955 31.5499 33.7755 31.9699 34.1955C32.0999 34.3255 32.0999 34.4155 31.9699 34.5455C31.8711 34.6857 31.7411 34.8012 31.5901 34.8827C31.4392 34.9643 31.2714 35.0097 31.0999 35.0155H29.4499Z" fill="white"/>
<path d="M45.42 79.3855C45.36 79.3855 45.3001 79.3255 45.2701 79.2755C45.1996 79.1576 45.1624 79.0228 45.1624 78.8855C45.1624 78.7482 45.1996 78.6134 45.2701 78.4955C45.6101 78.0555 45.7101 77.4955 46.1301 77.0955C47.4301 75.8555 48.69 74.5755 49.98 73.3155C50.06 73.2355 50.24 73.2355 50.37 73.2155C50.5 73.1955 50.61 73.3755 50.43 73.6555C50.2549 74.0141 50.0366 74.3499 49.78 74.6555C48.97 75.4155 48.21 76.2255 47.43 77.0155C47.19 77.2555 46.95 77.5055 46.69 77.7455C46.3304 78.0673 46.0498 78.4677 45.87 78.9155C45.79 79.1255 45.57 79.2455 45.42 79.3855Z" fill="white"/>
<path d="M52.9101 74.5455C52.6637 75.013 52.3578 75.4466 52.0001 75.8355C51.5301 76.2455 51.1101 76.7255 50.6701 77.1755C50.5301 77.3255 50.3001 77.4755 50.2701 77.6455C50.1801 78.3155 49.4001 78.5555 49.3301 79.2255C49.3204 79.2583 49.3037 79.2887 49.2813 79.3146C49.2589 79.3404 49.2312 79.3612 49.2001 79.3755C49.0721 79.423 48.9366 79.4467 48.8001 79.4455C48.6601 79.4455 48.4901 79.0355 48.5801 78.9255C48.8701 78.6155 48.9401 78.1755 49.1901 77.8555C49.4401 77.5355 49.8401 77.1255 50.1901 76.7655C50.3001 76.1655 50.8201 75.8655 51.1901 75.4655C51.5601 75.0655 51.8601 74.7555 52.1901 74.4055C52.5201 74.0555 52.8701 73.7055 53.1901 73.4055C53.2345 73.3505 53.2933 73.3089 53.3601 73.2855C53.4883 73.2553 53.6218 73.2553 53.7501 73.2855C53.9401 73.3455 53.9301 73.4555 53.7501 73.5955C53.5701 73.7355 53.3101 74.0855 52.9101 74.5455Z" fill="white"/>
<path d="M27.5299 72.7155C27.5494 72.7827 27.5494 72.8542 27.5299 72.9214C27.5105 72.9887 27.4723 73.049 27.4199 73.0955L25.3699 75.1855C25.1299 75.4355 24.8999 75.6955 24.6699 75.9555C24.6699 76.6255 23.9599 76.5155 23.6699 76.8355C23.6699 76.8355 23.5399 76.8355 23.5299 76.8355C23.5199 76.8355 23.3999 76.5255 23.4499 76.4555C23.7989 76.1145 24.1168 75.743 24.3999 75.3455C24.8839 74.5918 25.4581 73.9 26.1099 73.2855C26.4499 72.8955 26.9499 72.8255 27.3399 72.5455C27.3899 72.4355 27.4999 72.5455 27.5299 72.7155Z" fill="white"/>
<path d="M64.0999 77.9955C64.0999 77.8655 64.0399 77.6955 64.0999 77.6155C64.3599 77.2955 64.6599 77.0055 64.9399 76.6955C65.2199 76.3855 65.6799 76.0855 65.7899 75.5555C65.7899 75.3755 66.0299 75.2255 66.1799 75.0755C66.8499 74.3855 67.5299 73.6955 68.1799 73.0155C68.2189 72.9653 68.2733 72.9293 68.3347 72.9131C68.3961 72.8968 68.4612 72.9012 68.5199 72.9255C68.6499 72.9855 68.6499 73.3355 68.5199 73.4855C68.1899 73.8355 67.8499 74.1855 67.5199 74.5455C67.1899 74.9055 66.9899 74.9955 66.9499 75.3755C66.1443 76.4058 65.2214 77.3388 64.1999 78.1555C64.1616 78.1054 64.1281 78.0519 64.0999 77.9955Z" fill="white"/>
<path d="M30.32 73.8855C30.05 74.2955 29.65 74.6055 29.56 75.1155L27.78 76.8855C27.78 76.8855 27.65 76.8855 27.59 76.8855C27.5582 76.9018 27.5233 76.9111 27.4876 76.9127C27.452 76.9144 27.4163 76.9084 27.3832 76.8951C27.35 76.8819 27.3201 76.8616 27.2954 76.8358C27.2707 76.81 27.2518 76.7792 27.24 76.7455C27.24 76.6155 27.13 76.4355 27.18 76.3655C27.4441 76.0415 27.7245 75.7311 28.02 75.4355L29.77 73.6355C29.9263 73.4984 30.0436 73.3225 30.11 73.1255C30.23 72.6755 30.61 72.7355 30.96 72.7455C31.0263 72.7549 31.0886 72.7826 31.14 72.8255C31.26 72.9055 31.24 73.0155 31.14 73.1455L30.32 73.8855Z" fill="white"/>
<path d="M24 72.8655C24.05 72.9155 24.14 72.9855 24.14 72.9955C23.84 73.4555 23.52 73.9055 23.21 74.3555C22.8116 74.8389 22.3623 75.278 21.87 75.6655C21.8 75.7255 21.61 75.6655 21.49 75.6655C21.4555 75.6548 21.4236 75.6367 21.3967 75.6124C21.3698 75.5882 21.3484 75.5584 21.3342 75.5251C21.3199 75.4919 21.313 75.4559 21.3141 75.4197C21.3151 75.3835 21.3239 75.3479 21.34 75.3155C21.3479 75.2489 21.3682 75.1845 21.4 75.1255C22.066 74.318 22.8095 73.5778 23.62 72.9155C23.66 72.8055 23.84 72.8655 24 72.8655Z" fill="white"/>
<path d="M75.76 75.2655C75.7272 75.2764 75.6926 75.2805 75.6581 75.2778C75.6237 75.2751 75.5901 75.2656 75.5593 75.2498C75.5286 75.2339 75.5014 75.2122 75.4792 75.1857C75.457 75.1592 75.4403 75.1285 75.43 75.0955C75.43 74.9755 75.36 74.7855 75.43 74.7155C75.7431 74.3625 76.077 74.0285 76.43 73.7155C76.5525 73.6695 76.6876 73.6695 76.81 73.7155C77.01 73.7155 77.01 73.8555 76.89 74.0055C76.61 74.3755 76.56 74.8855 76.13 75.1655C76 75.2155 75.9 75.2955 75.76 75.2655Z" fill="white"/>
<path d="M74.0898 73.9955C74.0898 74.0755 74.0898 74.1755 74.0898 74.2055C73.6798 74.6555 73.2598 75.0955 72.8398 75.5355C72.7098 75.6755 72.5798 75.6755 72.5298 75.5355C72.4798 75.3955 72.4398 75.2255 72.5298 75.1655C72.9298 74.7055 73.3598 74.2655 73.7698 73.8255C73.8998 73.6855 74.0099 73.6755 74.0799 73.8255C74.0907 73.8815 74.0941 73.9386 74.0898 73.9955Z" fill="white"/>
<path d="M19.86 74.3955C19.48 74.7855 19.34 74.8255 19.28 74.7255C19.2078 74.6166 19.1792 74.4845 19.2 74.3555C19.2661 74.1988 19.363 74.057 19.485 73.9385C19.6069 73.8199 19.7515 73.7271 19.91 73.6655C19.9751 73.6454 20.0448 73.6454 20.11 73.6655C20.1739 73.679 20.2328 73.7102 20.28 73.7555C20.2942 73.7779 20.3018 73.8039 20.3018 73.8305C20.3018 73.8571 20.2942 73.8831 20.28 73.9055L19.86 74.3955Z" fill="white"/>
<path d="M33.33 79.4755C33.1941 79.4955 33.056 79.4955 32.92 79.4755C32.76 79.4755 32.69 79.3255 32.73 79.2455C32.7617 79.1847 32.8153 79.1382 32.88 79.1155C33 79.1155 33.15 79.1155 33.26 79.0055C33.76 78.7555 33.76 78.7555 34.07 79.0855C34.07 79.0855 34.19 79.2255 34.17 79.2555C34.15 79.2855 34.03 79.4755 33.94 79.4955C33.7372 79.5157 33.5329 79.5157 33.33 79.4955V79.4755Z" fill="white"/>
<path d="M69.14 75.5455C69.1311 75.4825 69.1311 75.4185 69.14 75.3555C69.1861 75.1333 69.3023 74.9318 69.4715 74.7806C69.6407 74.6294 69.854 74.5365 70.08 74.5155C70.14 74.5155 70.2 74.5155 70.24 74.6055C70.28 74.6955 70.29 74.7255 70.24 74.7455C70.003 75.163 69.6574 75.5085 69.24 75.7455C69.24 75.7455 69.18 75.5455 69.14 75.5455Z" fill="white"/>
<path d="M72 77.6255C72 77.6255 72 77.7955 71.95 77.9955C71.9442 78.0285 71.9301 78.0596 71.9092 78.0858C71.8882 78.1121 71.861 78.1326 71.83 78.1455C71.83 78.1455 71.72 78.1455 71.67 78.0655C71.62 77.9855 71.31 77.7855 71.29 77.6255C71.27 77.4655 71.47 77.2955 71.56 77.1255C71.65 76.9555 71.56 76.9855 71.56 76.9355C71.6311 76.8378 71.7079 76.7443 71.79 76.6555C71.8574 76.7652 71.9111 76.8827 71.95 77.0055C71.9847 77.2103 72.0014 77.4178 72 77.6255Z" fill="white"/>
<path d="M67.47 77.3455C67.4675 77.278 67.4879 77.2117 67.5278 77.1573C67.5678 77.1028 67.6249 77.0635 67.69 77.0455C67.88 76.9755 68.2 77.0455 68.21 77.2355C68.2161 77.3682 68.1957 77.5008 68.15 77.6255C68.08 77.7955 67.83 77.8255 67.6 77.7055C67.5677 77.6905 67.5388 77.6692 67.5148 77.6429C67.4908 77.6167 67.4722 77.586 67.4601 77.5525C67.4481 77.5191 67.4427 77.4835 67.4444 77.448C67.4461 77.4125 67.4548 77.3777 67.47 77.3455Z" fill="white"/>
<path d="M53.1198 79.9455C53.0498 80.0455 52.9898 80.1455 52.9098 80.2455C52.8512 80.2172 52.7973 80.1801 52.7498 80.1355C52.6518 80.0394 52.5616 79.9358 52.4798 79.8255C52.4798 79.8255 52.4098 79.6955 52.4798 79.6655C52.5121 79.6022 52.5673 79.5535 52.6342 79.5294C52.701 79.5052 52.7745 79.5074 52.8398 79.5355C53.0698 79.5955 53.1598 79.7055 53.1198 79.9455Z" fill="white"/>
<path d="M50.2001 64.7655L49.9901 65.1555C49.9219 65.0878 49.8688 65.0065 49.8344 64.9169C49.7999 64.8273 49.7848 64.7313 49.7901 64.6355C49.7901 64.5655 49.7901 64.5055 49.7901 64.4355C49.7796 64.3759 49.7796 64.315 49.7901 64.2555C49.8194 64.1948 49.8642 64.1431 49.9201 64.1055C50.0001 64.1055 50.1101 64.1055 50.1701 64.2655C50.201 64.4302 50.2111 64.5982 50.2001 64.7655Z" fill="white"/>
<path d="M27.08 78.8755C27.01 78.8755 26.96 78.9955 26.9 79.0055C26.5 79.0755 26.34 79.0055 26.34 78.6655C26.3296 78.6007 26.3394 78.5343 26.368 78.4753C26.3966 78.4163 26.4427 78.3675 26.5 78.3355C26.5 78.3355 26.63 78.3355 26.67 78.4255L27.08 78.8755Z" fill="white"/>
<path d="M54.49 64.5455C54.59 64.4829 54.6935 64.4262 54.8 64.3755C54.8292 64.3609 54.8612 64.3527 54.8939 64.3514C54.9266 64.3502 54.9591 64.3559 54.9894 64.3682C55.0197 64.3805 55.047 64.3991 55.0695 64.4228C55.092 64.4464 55.1092 64.4747 55.12 64.5055C55.1297 64.5258 55.1348 64.548 55.1348 64.5705C55.1348 64.593 55.1297 64.6152 55.12 64.6355C55.1074 64.666 55.0884 64.6935 55.0643 64.716C55.0401 64.7385 55.0114 64.7555 54.9801 64.7659C54.9488 64.7764 54.9156 64.78 54.8828 64.7764C54.85 64.7729 54.8184 64.7624 54.79 64.7455C54.6823 64.6912 54.5815 64.6241 54.49 64.5455Z" fill="white"/>
<path d="M38.46 79.4355C38.4709 79.4981 38.4635 79.5626 38.4387 79.6212C38.4139 79.6797 38.3727 79.7298 38.32 79.7655C38.19 79.8455 38.01 79.6255 38.07 79.4255C38.1203 79.3185 38.1879 79.2206 38.27 79.1355L38.46 79.4355Z" fill="white"/>
<path d="M21.2099 77.3855L20.9099 77.1855C20.9999 77.1255 21.0899 77.0155 21.1899 77.0155C21.3104 77.0246 21.4269 77.0623 21.5299 77.1255C21.5299 77.1255 21.5299 77.2155 21.5299 77.2455C21.5035 77.3044 21.4561 77.3514 21.3969 77.3772C21.3378 77.4031 21.2711 77.4061 21.2099 77.3855Z" fill="white"/>
<path d="M66.51 57.4755C66.46 57.4755 66.39 57.6155 66.37 57.6055C66.17 57.5155 66.17 57.4055 66.37 57.3355C66.41 57.3355 66.47 57.4255 66.51 57.4755Z" fill="white"/>
<path d="M31.4801 56.9755C31.5301 56.9755 31.5801 56.9755 31.6101 56.9755C31.6401 56.9755 31.6801 57.1455 31.5401 57.2155C31.4001 57.2855 31.4501 57.1455 31.4301 57.0855C31.4101 57.0255 31.4701 57.0055 31.4801 56.9755Z" fill="white"/>
<path d="M64.3599 59.9355C64.3599 60.0555 64.3599 60.1355 64.2199 60.1255C64.1931 60.1132 64.1694 60.0952 64.1503 60.0728C64.1313 60.0503 64.1175 60.0239 64.1099 59.9955C64.1099 59.9455 64.1799 59.8955 64.2399 59.8655C64.2999 59.8355 64.3199 59.9055 64.3599 59.9355Z" fill="white"/>
<path d="M37.1399 62.5455C37.1399 62.5455 37.0399 62.6655 36.9999 62.6555C36.9599 62.6455 36.8799 62.5655 36.8799 62.5355C36.8799 62.5055 36.9699 62.4355 37.0099 62.3955L37.1399 62.5455Z" fill="white"/>
<path d="M50.12 62.4855C50.12 62.4855 50.1201 62.5855 50.0601 62.5955C50.0001 62.6055 49.8901 62.5955 49.9001 62.4755C49.9101 62.3555 49.97 62.3955 50.01 62.3555L50.12 62.4855Z" fill="white"/>
<path d="M62.18 65.7355L62.31 65.8755C62.26 65.8755 62.19 66.0055 62.17 65.9955C62 65.8955 62 65.7955 62.18 65.7355Z" fill="white"/>
<path d="M47.6999 73.2155C47.6999 73.0655 47.6999 72.9455 47.8399 72.9055C47.9799 72.8655 48.0399 72.9055 47.9999 73.0655C47.9599 73.2255 47.8299 73.2155 47.6899 73.1955L47.6999 73.2155Z" fill="white"/>
<path d="M71.1101 72.9855C71.1101 73.0955 71.0201 73.1455 70.9201 73.0955C70.8201 73.0455 70.8401 73.0055 70.8601 72.9755C70.8801 72.9455 70.9401 72.8555 70.9801 72.8555C71.0201 72.8555 71.0701 72.9355 71.1101 72.9855Z" fill="white"/>
<path d="M56.3799 80.1755C56.3799 80.1755 56.2899 80.2355 56.2499 80.2255C56.2013 80.1994 56.1601 80.1616 56.1299 80.1155C56.2199 79.9755 56.3099 79.9555 56.3699 80.0455C56.4299 80.1355 56.3799 80.1355 56.3799 80.1755Z" fill="white"/>
<path d="M59.2699 25.3655C59.6699 25.3655 59.9499 25.3655 60.2199 25.4255C60.3573 25.4292 60.4887 25.4825 60.5899 25.5755C60.9999 26.0855 61.6899 26.1555 62.1299 26.5755L62.5799 27.0155C62.712 27.2535 62.7887 27.5183 62.8043 27.7902C62.8199 28.062 62.7739 28.3339 62.6699 28.5855C62.6199 28.6455 62.5899 28.7055 62.5399 28.7555C62.2399 29.0455 61.9299 29.3255 61.6499 29.6355C61.3699 29.9455 60.8999 29.9755 60.5699 30.2455C60.2399 30.5155 59.8999 30.3455 59.5699 30.4055C58.8799 30.5155 58.3999 30.0455 57.8499 29.7955C57.6096 29.6491 57.4289 29.4224 57.3399 29.1555C57.1623 28.7136 56.9517 28.2857 56.7099 27.8755C56.6084 27.7346 56.5589 27.563 56.5699 27.3897C56.5808 27.2165 56.6515 27.0524 56.7699 26.9255C56.841 26.8071 56.8949 26.6791 56.9299 26.5455C57.0567 26.2163 57.3082 25.9504 57.6299 25.8055C58.1138 25.4836 58.6898 25.329 59.2699 25.3655ZM57.7199 27.6555C57.6851 27.9304 57.7242 28.2097 57.8332 28.4646C57.9421 28.7194 58.117 28.9406 58.3399 29.1055L58.4899 29.2455C58.603 29.375 58.7457 29.4753 58.9058 29.538C59.066 29.6007 59.2389 29.6238 59.4099 29.6055C59.6799 29.6055 59.9599 29.6055 60.1899 29.4455C60.4199 29.2855 61.1099 29.1155 61.3699 28.6655C61.4484 28.557 61.506 28.435 61.5399 28.3055C61.5649 28.0327 61.5649 27.7582 61.5399 27.4855C61.5336 27.4201 61.5134 27.3568 61.4806 27.2999C61.4479 27.243 61.4033 27.1937 61.3499 27.1555C61.0953 27.0599 60.8507 26.9393 60.6199 26.7955C60.3278 26.6236 60.0237 26.4732 59.7099 26.3455C59.5579 26.2577 59.3854 26.2115 59.2099 26.2115C59.0343 26.2115 58.8619 26.2577 58.7099 26.3455C58.4766 26.4912 58.2286 26.6119 57.9699 26.7055C57.8604 26.7847 57.7852 26.9027 57.7599 27.0355C57.7308 27.2408 57.7174 27.4481 57.7199 27.6555Z" fill="white"/>
<path d="M64.84 21.4755C64.8546 21.5414 64.8546 21.6096 64.84 21.6755C64.805 21.8065 64.7438 21.9289 64.66 22.0355C64.18 22.5755 63.72 22.5355 63.33 21.9255C63.3181 21.8987 63.312 21.8698 63.312 21.8405C63.312 21.8112 63.3181 21.7823 63.33 21.7555C63.389 21.631 63.4731 21.52 63.577 21.4295C63.6809 21.339 63.8024 21.271 63.9339 21.2297C64.0653 21.1883 64.2039 21.1746 64.3409 21.1894C64.4779 21.2042 64.6104 21.2471 64.73 21.3155C64.78 21.3455 64.8 21.4155 64.84 21.4755Z" fill="white"/>
<path d="M59 20.9755C59 21.3555 58.87 21.5255 58.68 21.5655C58.5829 21.5775 58.4844 21.5589 58.3984 21.5123C58.3123 21.4657 58.243 21.3934 58.2 21.3055C58.1 21.062 58.1 20.789 58.2 20.5455C58.2346 20.4863 58.2873 20.4398 58.3503 20.4128C58.4133 20.3858 58.4833 20.3797 58.55 20.3955C58.69 20.3955 58.83 20.3955 58.87 20.5655C58.9289 20.6967 58.9725 20.8343 59 20.9755Z" fill="white"/>
<path d="M52.71 24.4755C52.7311 24.1859 52.7311 23.8951 52.71 23.6055C52.61 23.0555 53.14 22.7655 53.21 22.2755C53.5949 22.004 54.0201 21.7948 54.47 21.6555C54.5339 21.6519 54.5972 21.6694 54.65 21.7055C54.6833 21.7167 54.714 21.7344 54.7402 21.7578C54.7665 21.7811 54.7877 21.8095 54.8027 21.8413C54.8176 21.8731 54.826 21.9076 54.8272 21.9427C54.8285 21.9777 54.8227 22.0127 54.81 22.0455C54.7725 22.1755 54.7115 22.2975 54.63 22.4055C54.35 22.7055 54.05 22.9955 53.77 23.3055C53.6972 23.379 53.6401 23.4665 53.6022 23.5628C53.5644 23.6591 53.5466 23.7621 53.55 23.8655C53.55 24.2855 53.55 24.7055 53.55 25.1155C53.55 25.2055 53.37 25.2955 53.26 25.3455C53.1608 25.3673 53.057 25.3504 52.9697 25.2984C52.8824 25.2464 52.8182 25.1631 52.79 25.0655C52.73 24.7855 52.72 24.5455 52.71 24.4755Z" fill="white"/>
<path d="M52 17.5955C52.16 17.3855 52.06 17.3755 52 17.2255C51.9119 17.1208 51.8184 17.0206 51.72 16.9255C51.6327 16.8239 51.5847 16.6944 51.5847 16.5605C51.5847 16.4265 51.6327 16.2971 51.72 16.1955C52.08 15.7555 52.23 15.7555 52.62 16.1955C52.7073 16.2971 52.7553 16.4265 52.7553 16.5605C52.7553 16.6944 52.7073 16.8239 52.62 16.9255L52 17.5955Z" fill="white"/>
<path d="M57.75 14.8455C57.83 14.6355 57.93 14.5755 58.05 14.6355C58.1752 14.6926 58.286 14.777 58.3743 14.8826C58.4626 14.9881 58.526 15.1122 58.56 15.2455C58.5747 15.3473 58.5497 15.4508 58.4901 15.5346C58.4305 15.6184 58.341 15.676 58.24 15.6955C58.1421 15.7177 58.0394 15.7023 57.9523 15.6523C57.8652 15.6022 57.8002 15.5213 57.77 15.4255C57.7651 15.3556 57.7651 15.2854 57.77 15.2155L57.75 14.8455Z" fill="white"/>
<path d="M65.2598 17.8555C65.3065 17.8468 65.3544 17.8475 65.4007 17.8574C65.4471 17.8673 65.4911 17.8862 65.5301 17.9132C65.5691 17.9401 65.6025 17.9745 65.6282 18.0144C65.6539 18.0543 65.6714 18.0988 65.6798 18.1455C65.7042 18.241 65.6934 18.342 65.6493 18.4302C65.6052 18.5183 65.5309 18.5877 65.4398 18.6255C65.3784 18.6475 65.3123 18.6537 65.2478 18.6435C65.1833 18.6334 65.1224 18.6072 65.0707 18.5674C65.0189 18.5276 64.978 18.4754 64.9516 18.4157C64.9253 18.3559 64.9143 18.2905 64.9198 18.2255C64.9398 17.9655 64.9998 17.8855 65.2598 17.8555Z" fill="white"/>
<path d="M71.56 22.0555C71.6062 22.0454 71.6539 22.0451 71.7002 22.0545C71.7465 22.0639 71.7904 22.0828 71.829 22.1101C71.8675 22.1374 71.9 22.1724 71.9243 22.2129C71.9486 22.2535 71.9641 22.2986 71.97 22.3455C71.9924 22.4384 71.9817 22.5362 71.9397 22.622C71.8977 22.7078 71.8271 22.7762 71.74 22.8155C71.6787 22.8326 71.6142 22.8352 71.5517 22.823C71.4892 22.8109 71.4304 22.7843 71.38 22.7455C71.3295 22.7067 71.2888 22.6567 71.261 22.5994C71.2333 22.5421 71.2192 22.4792 71.22 22.4155C71.24 22.1455 71.31 22.0755 71.56 22.0555Z" fill="white"/>
<path d="M68.49 27.3555C68.41 27.3555 68.3 27.3555 68.27 27.2055C68.2358 27.0914 68.2358 26.9697 68.27 26.8555C68.277 26.8237 68.2929 26.7945 68.3159 26.7714C68.339 26.7484 68.3682 26.7325 68.4 26.7255C68.5 26.7255 68.62 27.0155 68.59 27.2155C68.63 27.2655 68.55 27.3055 68.49 27.3555Z" fill="white"/>
<path d="M68.16 28.5455C68.16 28.5455 68.16 28.6555 68.1 28.6755C68.04 28.6955 67.91 28.6755 67.92 28.5355C67.93 28.3955 68 28.4455 68.04 28.4055L68.16 28.5455Z" fill="white"/>
</svg>
