<svg width="90" height="91" viewBox="0 0 90 91" fill="none" xmlns="http://www.w3.org/2000/svg">
<path d="M26.9999 76.4054C26.8699 76.3054 26.7499 76.1454 26.5999 76.0954C24.4226 75.3914 22.3325 74.442 20.3699 73.2654C19.2733 72.5608 18.3365 71.6343 17.6199 70.5454C17.2399 69.9754 17.1999 69.9854 16.4899 70.4354C16.12 70.7434 15.6729 70.9444 15.197 71.0167C14.7212 71.089 14.2346 71.0297 13.7899 70.8454C13.4256 70.7005 13.1119 70.4516 12.8879 70.1298C12.6639 69.808 12.5394 69.4274 12.5299 69.0354C12.4974 67.6131 12.7738 66.2007 13.3399 64.8954C13.4358 64.6719 13.5461 64.4548 13.6699 64.2454C13.8831 63.9331 14.028 63.5792 14.0952 63.207C14.1624 62.8348 14.1504 62.4527 14.0599 62.0854C13.8199 61.0854 13.6799 60.0854 13.5099 59.0854C13.4798 58.7895 13.4798 58.4913 13.5099 58.1954C13.5099 56.0435 13.9347 53.9128 14.7599 51.9254C15.6761 49.4365 17.0995 47.1652 18.9399 45.2554C20.3934 43.9321 22.022 42.815 23.7799 41.9354C25.1394 41.0864 26.6396 40.487 28.2099 40.1654C28.3499 40.1654 28.4799 40.0354 28.6199 40.0254C30.6199 39.9154 32.6199 39.7154 34.6899 39.7554C36.1071 39.8156 37.5128 40.037 38.8799 40.4154C39.0524 40.4815 39.2378 40.5068 39.4216 40.4894C39.6055 40.4721 39.7828 40.4125 39.9399 40.3154L41.6099 39.2454C41.401 38.9736 41.1738 38.7164 40.9299 38.4754C40.7455 38.3075 40.6156 38.0883 40.5567 37.846C40.4979 37.6036 40.513 37.3492 40.5999 37.1154C40.7133 36.7432 40.7936 36.3618 40.8399 35.9754C40.9599 34.3954 40.9999 32.8054 41.1599 31.2354C41.1944 30.5483 41.4789 29.8974 41.9599 29.4054C43.9327 27.3125 46.0441 25.3548 48.2799 23.5454C49.7261 22.3996 51.0957 21.1603 52.3799 19.8354C53.9714 18.2803 55.6797 16.8495 57.4899 15.5554C58.3299 14.9554 59.0799 14.2154 59.8699 13.5554C60.8699 12.6754 61.8699 11.7954 62.8699 10.8754C63.0784 10.699 63.3314 10.5834 63.6013 10.541C63.8711 10.4987 64.1474 10.5314 64.3999 10.6354C64.688 10.7154 64.9546 10.8589 65.1799 11.0554C66.4164 11.9553 67.5739 12.959 68.6399 14.0554C70.7599 16.5854 72.6999 19.2654 74.7199 21.8754C75.4299 22.7954 76.1699 23.6954 76.8899 24.6054C77.3047 25.0709 77.5203 25.6804 77.4904 26.3031C77.4604 26.9258 77.1874 27.5119 76.7299 27.9354C75.4599 29.1054 74.1299 30.2154 72.8099 31.3454L70.5399 33.2654C69.0699 34.5054 67.5999 35.7754 66.1099 36.9954C64.4658 38.2479 62.9119 39.6146 61.4599 41.0854C60.8312 41.7138 60.1632 42.3017 59.4599 42.8454C59.2933 42.948 59.1049 43.0097 58.9099 43.0254C56.9444 43.4866 54.9281 43.695 52.9099 43.6454C51.9099 44.1654 50.6799 43.7554 49.5799 44.1754C48.6499 44.5354 47.7699 44.1754 46.3499 43.2654L45.4899 44.1254C46.1029 44.9813 46.771 45.7964 47.4899 46.5654C49.6499 48.5654 50.4899 51.2054 51.2699 53.8954C51.1799 55.7354 52.0799 57.4554 51.8999 59.3054C51.8981 59.7946 51.8066 60.2793 51.6299 60.7354C51.3147 61.3924 51.1022 62.094 50.9999 62.8154C50.5899 65.3854 49.0799 67.3754 47.6099 69.3954C46.3618 71.0629 44.824 72.4923 43.0699 73.6154C42.2599 74.1454 41.3799 74.6154 40.5299 75.0554C40.6049 75.1342 40.663 75.2274 40.7007 75.3293C40.7384 75.4312 40.755 75.5398 40.7494 75.6483C40.7438 75.7569 40.7161 75.8632 40.668 75.9607C40.62 76.0582 40.5526 76.1449 40.4699 76.2154C39.5799 77.0854 38.7099 77.9654 37.7299 78.9554C37.3299 78.3054 37.3099 77.8554 37.7799 77.4154L39.4099 75.8954C38.8689 75.8551 38.3261 75.9447 37.8268 76.157C37.3275 76.3692 36.8863 76.6979 36.5399 77.1154C36.1487 77.5731 35.7206 77.9978 35.2599 78.3854C35.2025 78.4198 35.1368 78.438 35.0699 78.438C35.003 78.438 34.9373 78.4198 34.8799 78.3854C34.8302 78.335 34.794 78.2728 34.7748 78.2046C34.7555 78.1364 34.7539 78.0644 34.7699 77.9954C35.0299 77.5454 35.3399 77.1154 35.6299 76.6654L35.8499 76.5754L35.7499 76.4754L35.6599 76.6954C35.4101 76.7104 35.1597 76.7104 34.9099 76.6954C34.6002 76.6557 34.286 76.7169 34.014 76.8701C33.7419 77.0232 33.5266 77.2601 33.3999 77.5454C32.7874 78.2496 32.0924 78.8774 31.3299 79.4154C30.9599 79.1454 30.6899 78.8854 31.1199 78.4154C31.5499 77.9454 32.1199 77.4154 32.7099 76.7754L32.1599 76.7054C31.7604 76.6189 31.344 76.6569 30.9668 76.8142C30.5895 76.9716 30.2695 77.2407 30.0499 77.5854C29.5783 78.4259 28.8012 79.0526 27.8799 79.3354C27.8299 78.0254 29.2099 77.7754 29.5999 76.7254L26.9399 76.3854L26.9999 76.4054ZM76.3399 25.8854C76.0899 25.6154 75.9299 25.4354 75.7499 25.2654C73.7505 23.3356 71.936 21.2231 70.3299 18.9554C69.7499 18.1654 69.2199 17.3254 68.5699 16.5954C67.3299 15.1954 65.9999 13.8554 64.7399 12.5454C64.6633 12.4323 64.5643 12.3361 64.449 12.2627C64.3337 12.1893 64.2046 12.1403 64.0697 12.1188C63.9347 12.0972 63.7968 12.1035 63.6644 12.1374C63.532 12.1712 63.408 12.2318 63.2999 12.3154C62.4299 13.0554 61.5799 13.8154 60.7199 14.5654C59.7942 15.4622 58.8193 16.3068 57.7999 17.0954C56.5138 18.0209 55.3064 19.0511 54.1899 20.1754C53.1899 21.1754 52.0699 22.1754 50.9699 23.0654C49.4999 24.3054 47.9699 25.4754 46.4999 26.7054C45.0299 27.9354 43.7099 29.0854 42.3299 30.2954C42.149 30.4488 42.0285 30.6615 41.9899 30.8954C41.8947 31.542 41.8947 32.1989 41.9899 32.8454C42.3549 34.1776 42.3549 35.5833 41.9899 36.9154C41.9756 36.9841 41.9753 37.0549 41.989 37.1236C42.0028 37.1924 42.0303 37.2576 42.0699 37.3154C42.2498 37.5685 42.5181 37.7449 42.8218 37.8097C43.1254 37.8745 43.4424 37.823 43.7099 37.6654C43.9999 37.4754 44.2499 37.2354 44.5299 37.0354C45.5299 36.3354 46.4399 35.6154 47.7499 35.8554C48.0199 35.8554 48.2199 35.9554 48.2399 36.2754C48.2599 36.5954 48.1699 36.7354 47.8499 36.7754C46.5005 37.0911 45.2691 37.7849 44.2999 38.7754C44.6599 39.1054 44.9399 39.3954 45.2499 39.6454C45.5599 39.8954 45.7499 39.9554 45.9699 40.1454C46.2362 40.3717 46.4837 40.6192 46.7099 40.8854C47.7099 41.9954 48.6199 43.0554 50.2999 42.2254C50.4199 42.1654 50.5999 42.2254 50.7499 42.2254L56.8299 41.9154H57.2799C57.8233 41.9097 58.3577 41.7754 58.8392 41.5233C59.3206 41.2713 59.7355 40.9088 60.0499 40.4654C61.5199 38.3554 63.6099 36.8954 65.5199 35.2654C66.9999 33.9454 68.4399 32.7354 69.8799 31.5454C70.2099 31.2554 70.5699 30.9954 70.8799 30.7154C72.8595 29.2954 74.689 27.677 76.3399 25.8854ZM34.6099 60.6454C33.1499 62.2354 31.7599 63.7954 30.3399 65.3254C29.6199 66.0954 28.8699 66.8354 28.0999 67.5454C28.037 67.6206 27.9521 67.6742 27.8571 67.6988C27.7622 67.7233 27.662 67.7175 27.5705 67.6822C27.479 67.647 27.4008 67.584 27.3469 67.5021C27.293 67.4201 27.2661 67.3234 27.2699 67.2254C27.1719 65.4008 27.3404 63.5715 27.7699 61.7954C28.009 60.5925 28.1461 59.3715 28.1799 58.1454C28.2058 58.0483 28.2092 57.9466 28.1898 57.8479C28.1704 57.7493 28.1287 57.6564 28.0679 57.5764C28.0071 57.4963 27.9289 57.4312 27.8391 57.386C27.7493 57.3407 27.6504 57.3166 27.5499 57.3154C25.9499 57.1054 24.6099 56.0154 22.9699 55.9254C22.5399 55.4554 22.2099 55.7054 21.8599 56.0654C20.5599 57.3954 19.2099 58.6654 17.9599 60.0654C17.1306 60.9817 16.3655 61.954 15.6699 62.9754C15.4561 63.2724 15.3179 63.6171 15.2673 63.9795C15.2168 64.342 15.2554 64.7113 15.3799 65.0554C15.8492 66.4413 16.5233 67.7492 17.3799 68.9354C18.5577 70.9498 20.353 72.5312 22.4999 73.4454C23.4128 73.7625 24.3075 74.1297 25.1799 74.5454C27.1175 75.3553 29.1903 75.793 31.2899 75.8354C32.2885 75.9105 33.2913 75.9105 34.2899 75.8354C35.3181 75.7813 36.341 75.6509 37.3499 75.4454C39.2307 74.9172 41.0019 74.057 42.5799 72.9054C44.52 71.5198 46.2251 69.8317 47.6299 67.9054C48.0866 67.3303 48.4947 66.7182 48.8499 66.0754C49.6132 64.3932 50.1382 62.6127 50.4099 60.7854C50.8 59.3617 50.8 57.8592 50.4099 56.4354C50.2852 56.0149 50.185 55.5876 50.1099 55.1554C49.763 52.164 48.4171 49.3771 46.2899 47.2454C45.9881 46.9212 45.7262 46.562 45.5099 46.1754C44.3755 44.4329 42.7203 43.0926 40.7799 42.3454C40.5636 42.2294 40.3176 42.1808 40.0735 42.2057C39.8293 42.2307 39.5982 42.3281 39.4099 42.4854C37.7499 43.7054 36.0499 44.8754 34.4099 46.0654C34.0499 46.3154 33.5099 46.5354 33.4099 46.8754C33.3099 47.2154 33.7299 47.6254 33.9199 47.9954C34.139 48.3113 34.3297 48.646 34.4899 48.9954C34.5181 49.1167 34.57 49.2311 34.6428 49.332C34.7155 49.433 34.8076 49.5185 34.9136 49.5837C35.0197 49.6488 35.1376 49.6922 35.2606 49.7114C35.3835 49.7306 35.5091 49.7252 35.6299 49.6954C36.5683 49.6937 37.5049 49.6135 38.4299 49.4554C39.9299 49.0654 41.4299 49.6254 42.9999 49.7154C43.1104 49.7388 43.2135 49.7889 43.3001 49.8614C43.3867 49.9339 43.4542 50.0265 43.4966 50.1312C43.5391 50.2358 43.5552 50.3493 43.5436 50.4616C43.5319 50.5739 43.4929 50.6817 43.4299 50.7754C42.5599 51.7754 41.6699 52.7754 40.7399 53.7754C40.2415 54.242 39.7138 54.6763 39.1599 55.0754C39.8899 56.6554 40.5799 58.0754 41.2299 59.5754C41.6599 60.5754 42.0499 61.5754 42.4099 62.5754C42.5003 62.8936 42.6682 63.1844 42.8986 63.4217C43.129 63.6591 43.4146 63.8356 43.7299 63.9354C45.1799 64.4354 45.4399 65.8454 45.9199 67.0654C45.9899 67.2354 45.8199 67.5054 45.7599 67.7354C45.5599 67.6254 45.2799 67.5654 45.1699 67.3954C44.7399 66.7354 44.3999 66.0354 43.9799 65.3954C43.6899 64.9354 43.4999 64.9554 42.8399 65.2554C42.7582 65.2924 42.6696 65.3116 42.5799 65.3116C42.4902 65.3116 42.4016 65.2924 42.3199 65.2554C41.6299 64.8954 40.9499 64.5054 40.3199 64.1054L34.6099 60.6454ZM38.4199 41.3954C36.3447 40.9255 34.2272 40.6675 32.0999 40.6254C30.9143 40.5975 29.7287 40.6846 28.5599 40.8854C27.6002 41.024 26.6624 41.2862 25.7699 41.6654C23.8915 42.4887 22.1215 43.5399 20.4999 44.7954C19.8459 45.238 19.254 45.766 18.7399 46.3654C17.5868 47.8795 16.6042 49.516 15.8099 51.2454C14.8135 53.266 14.3065 55.4927 14.3299 57.7454C14.4299 58.9654 14.5299 60.1954 14.6699 61.4154C14.6699 61.6054 14.9399 61.7654 14.9899 61.8254L20.8799 55.1154C20.3399 54.8854 19.7899 54.6854 19.2699 54.4354C19.0099 54.3154 18.6499 54.1454 18.6199 53.9454C18.6287 53.8035 18.6703 53.6654 18.7414 53.5422C18.8126 53.419 18.9113 53.314 19.0299 53.2354C20.4311 52.3469 21.9946 51.7453 23.6299 51.4654C24.5631 51.4219 25.4468 51.0335 26.1099 50.3754C26.4753 50.0418 26.8666 49.7375 27.2799 49.4654C27.6663 49.1939 27.9792 48.8306 28.1904 48.4082C28.4016 47.9858 28.5045 47.5175 28.4899 47.0454C28.3617 45.9125 28.4499 44.7655 28.7499 43.6654C29.0099 42.9554 29.1399 42.8054 29.6899 43.2454C30.4699 43.8554 31.2099 44.5154 31.9299 45.1854C31.9925 45.2629 32.0703 45.3267 32.1585 45.3729C32.2466 45.4192 32.3433 45.4469 32.4426 45.4544C32.5419 45.4619 32.6417 45.449 32.7358 45.4165C32.8299 45.384 32.9164 45.3326 32.9899 45.2654C34.6899 44.0354 36.3999 42.8254 38.4199 41.3954ZM14.5299 64.8854C14.3299 65.4354 14.1999 65.8854 14.0299 66.2454C13.7335 67.085 13.6276 67.9799 13.7199 68.8654C13.7199 69.7954 14.4199 70.1654 15.3099 69.7754C15.5289 69.6691 15.7609 69.5918 15.9999 69.5454C16.5099 69.4754 16.5799 69.2954 16.2999 68.8654C15.4299 67.6819 14.8261 66.3242 14.5299 64.8854ZM41.3399 41.2554L44.3399 43.0854C44.7999 43.3854 45.0799 43.3054 45.4999 42.7154C45.9199 42.1254 45.4099 42.0954 45.1799 41.8954C44.7699 41.5354 44.3099 41.2354 43.9199 40.8954C42.9199 39.9654 42.6999 39.8954 41.6499 40.8954C41.5368 41.0067 41.4331 41.1271 41.3399 41.2554Z" fill="white" stroke="white" stroke-width="0.5" stroke-miterlimit="10"/>
<path d="M44.72 74.2254C44.6468 74.3648 44.5632 74.4985 44.47 74.6254C43.82 75.4854 43.19 76.3654 42.47 77.1754C42.0902 77.5606 41.6636 77.8966 41.2 78.1754C41.13 78.2254 40.93 78.1754 40.82 78.0654C40.7953 78.0247 40.7822 77.9781 40.7822 77.9304C40.7822 77.8828 40.7953 77.8361 40.82 77.7954C41.73 76.6454 42.65 75.4954 43.6 74.3854C43.8159 74.2004 44.0791 74.0792 44.36 74.0354C44.45 73.9854 44.58 74.1354 44.72 74.2254Z" fill="white"/>
<path d="M46.3699 74.4454C46.5099 74.7954 46.6999 75.0654 46.6399 75.1754C46.1099 76.0554 45.5299 76.9054 44.9499 77.7454C44.8991 77.7943 44.836 77.8284 44.7673 77.8443C44.6986 77.8601 44.627 77.8571 44.5599 77.8354C44.5071 77.792 44.4651 77.7368 44.4373 77.6743C44.4096 77.6118 44.3967 77.5437 44.3999 77.4754C44.4106 77.1846 44.4893 76.9003 44.6299 76.6454C45.1499 75.9354 45.7199 75.2554 46.3699 74.4454Z" fill="white"/>
<path d="M48.39 77.3254C48.29 77.0954 48.08 76.8254 48.15 76.7354C48.58 76.0354 49.07 75.3754 49.56 74.7354C49.6123 74.6925 49.675 74.6643 49.7418 74.6538C49.8086 74.6432 49.877 74.6507 49.94 74.6754C49.9955 74.7187 50.0393 74.7753 50.0673 74.84C50.0952 74.9046 50.1065 74.9753 50.1 75.0454C50.0152 75.3709 49.8874 75.6837 49.72 75.9754C49.4525 76.381 49.1585 76.7685 48.84 77.1354C48.76 77.2154 48.59 77.2354 48.39 77.3254Z" fill="white"/>
<path d="M26.9398 76.3754C26.9683 76.5438 26.9454 76.7169 26.874 76.8721C26.8027 77.0273 26.6862 77.1574 26.5398 77.2454C26.0398 77.6354 25.5398 78.0254 25.0398 78.3954C24.9859 78.4332 24.9204 78.4508 24.8548 78.4451C24.7892 78.4394 24.7277 78.4107 24.6811 78.3641C24.6346 78.3176 24.6059 78.2561 24.6002 78.1905C24.5945 78.1249 24.612 78.0593 24.6498 78.0054C25.2664 77.2609 26.0812 76.7062 26.9998 76.4054L26.9398 76.3754Z" fill="white"/>
<path d="M56.5399 74.6254C56.0499 75.0454 55.6299 75.4054 55.1999 75.7454C55.1999 75.7454 54.9499 75.5855 54.9399 75.4855C54.9372 75.3319 54.9653 75.1794 55.0225 75.0369C55.0797 74.8944 55.1649 74.7648 55.273 74.6557C55.3812 74.5467 55.51 74.4604 55.652 74.4019C55.794 74.3435 55.9463 74.3141 56.0999 74.3154C56.2099 74.3254 56.3099 74.4454 56.5399 74.6254Z" fill="white"/>
<path d="M52.9998 75.3554C52.855 75.5816 52.6838 75.7897 52.4898 75.9754C52.2582 76.1114 52.0176 76.2317 51.7698 76.3354C51.7698 76.1654 51.7098 75.9654 51.7698 75.8354C51.9298 75.5154 51.9998 75.0254 52.5598 75.2054L52.9998 75.3554Z" fill="white"/>
<path d="M22.3698 76.6954C22.4198 76.9154 22.4898 77.0454 22.4498 77.0954C22.2769 77.3611 22.0864 77.615 21.8798 77.8554C21.8798 77.8554 21.6598 77.8554 21.6298 77.7654C21.4298 77.3154 21.8698 77.1854 22.0598 76.9254C22.1563 76.8399 22.2601 76.763 22.3698 76.6954Z" fill="white"/>
<path d="M48.0499 73.7954C47.8527 73.969 47.6343 74.1169 47.3999 74.2354C47.3999 74.2354 47.1299 73.9954 47.1199 73.8654C47.1398 73.6983 47.2219 73.5448 47.3499 73.4354C47.5938 73.5336 47.8281 73.6541 48.0499 73.7954Z" fill="white"/>
<path d="M23.8198 75.8554L23.3198 76.3554C23.2298 76.2154 23.0798 76.0754 23.0798 75.9454C23.0798 75.8154 23.2398 75.6655 23.3298 75.5255L23.8198 75.8554Z" fill="white"/>
<path d="M20.4198 75.9554L20.9198 76.3454C20.7898 76.4554 20.6798 76.6554 20.5498 76.6654C20.4198 76.6754 20.2398 76.5154 20.0898 76.4354L20.4198 75.9554Z" fill="white"/>
<path d="M43.9299 78.7155C44.0099 78.9755 44.0999 79.1055 44.0699 79.2155C44.0041 79.3714 43.9202 79.5191 43.8199 79.6555C43.7199 79.5755 43.5199 79.4555 43.5299 79.4255C43.6502 79.1817 43.7837 78.9446 43.9299 78.7155Z" fill="white"/>
<path d="M20.6898 78.6554L20.5098 79.0354L20.0898 78.6454L20.5298 78.2454L20.6898 78.6554Z" fill="white"/>
<path d="M34.1599 79.5454L33.6999 79.9054C33.6999 79.8154 33.5899 79.6954 33.6199 79.6454C33.6852 79.5352 33.783 79.4478 33.8999 79.3954C33.9999 79.3954 34.0499 79.5454 34.1599 79.5454Z" fill="white"/>
<path d="M37.17 80.0654C37.0984 79.9897 37.0316 79.9095 36.97 79.8254L37.35 79.4454C37.35 79.5254 37.47 79.6354 37.45 79.6854C37.3641 79.8174 37.2706 79.9443 37.17 80.0654Z" fill="white"/>
<path d="M51.2198 73.3754C51.1483 73.2864 51.0878 73.189 51.0398 73.0854C51.0398 73.0254 51.1098 72.9354 51.1398 72.8554L51.5398 73.2654L51.2198 73.3754Z" fill="white"/>
<path d="M53.73 73.7954C53.597 73.8606 53.46 73.9173 53.32 73.9654C53.32 73.9654 53.18 73.8154 53.19 73.8054L53.58 73.4454L53.73 73.7954Z" fill="white"/>
<path d="M50.9998 77.4554C50.9298 77.4554 50.8398 77.5754 50.7798 77.5654C50.7198 77.5554 50.6298 77.4554 50.5498 77.3954C50.6298 77.3954 50.7098 77.3054 50.7898 77.3154C50.8698 77.3254 50.8798 77.4054 50.9998 77.4554Z" fill="white"/>
<path d="M54.2498 77.4454C54.1798 77.4454 54.0998 77.5854 54.0498 77.5654C53.9563 77.5254 53.8714 77.4677 53.7998 77.3954C53.8726 77.347 53.9541 77.313 54.0398 77.2954C54.1198 77.3054 54.1798 77.3954 54.2498 77.4454Z" fill="white"/>
<path d="M23.92 79.1555C23.84 79.2755 23.81 79.3755 23.76 79.3855C23.6726 79.3908 23.5855 79.3699 23.51 79.3255V79.1655L23.92 79.1555Z" fill="white"/>
<path d="M30.5498 80.3454L30.3998 80.5454C30.3998 80.4754 30.2698 80.3954 30.2798 80.3354C30.3313 80.2497 30.3954 80.1722 30.4698 80.1054L30.5498 80.3454Z" fill="white"/>
<path d="M64.2799 29.6754C64.5149 29.9118 64.7353 30.1623 64.9399 30.4254C65.0015 30.4977 65.0473 30.5821 65.0743 30.6732C65.1013 30.7643 65.109 30.8601 65.0967 30.9543C65.0845 31.0485 65.0526 31.1391 65.0032 31.2202C64.9538 31.3014 64.8879 31.3713 64.8099 31.4254C64.4699 31.7054 64.2699 31.4254 64.0599 31.2454C63.8499 31.0654 63.6899 30.8954 63.5199 30.7154C63.423 30.5803 63.28 30.4853 63.1178 30.4484C62.9557 30.4116 62.7856 30.4354 62.6399 30.5154C62.2863 30.7014 61.8864 30.7805 61.4887 30.7432C61.091 30.7059 60.7127 30.5538 60.3999 30.3054C60.2699 30.1854 60.0899 29.9654 60.1199 29.8554C60.1601 29.7671 60.2196 29.689 60.294 29.6267C60.3684 29.5644 60.4559 29.5195 60.5499 29.4954C60.9799 29.4354 61.7999 29.8954 62.1199 29.3354C61.8099 29.0154 60.5399 27.7254 60.2799 27.3354C59.8299 26.6454 59.9399 26.8854 59.0499 27.3354C58.6108 27.452 58.1489 27.452 57.7099 27.3354C57.5235 27.3338 57.3396 27.2931 57.17 27.2158C57.0004 27.1386 56.849 27.0265 56.7255 26.887C56.6019 26.7475 56.5091 26.5835 56.453 26.4058C56.397 26.2281 56.3788 26.0406 56.3999 25.8554C56.3749 25.4058 56.3749 24.9551 56.3999 24.5054C56.3999 24.0854 56.9499 23.6254 56.8099 23.5054C56.4139 23.1131 56.04 22.6991 55.6899 22.2654C55.5899 22.1454 55.6299 21.9254 55.5999 21.7454C55.7785 21.7396 55.957 21.7598 56.1299 21.8054C56.5123 22.051 56.8705 22.3322 57.1999 22.6454C57.4399 22.8554 57.5199 22.5354 57.8699 22.3654C58.2423 22.2091 58.6477 22.1472 59.0499 22.1854C59.1899 22.1854 59.9099 22.3854 59.8999 22.4654C59.8539 22.6751 59.7417 22.8644 59.5799 23.0054C59.4599 23.1054 58.3499 23.0654 58.0999 23.4254C58.3556 23.589 58.6026 23.7659 58.8399 23.9554C59.2399 24.3254 59.5699 24.8654 60.0399 25.0654C60.5099 25.2654 60.9499 24.9854 61.4199 24.9454C61.6199 24.9454 61.8199 24.9454 62.0199 24.9454C62.8799 24.9454 63.6999 24.9454 64.2099 25.8454C64.5267 26.2873 64.729 26.8008 64.7988 27.3401C64.8686 27.8793 64.8037 28.4274 64.6099 28.9354C64.5199 29.2054 64.3999 29.4254 64.2799 29.6754ZM61.7299 26.1954C61.6499 26.1954 61.3799 26.1954 61.3099 26.3554C61.1199 26.6554 61.4399 26.6954 61.6199 26.8554C61.7999 27.0154 62.1599 27.5554 62.4599 27.8554C62.7599 28.1554 63.0599 28.6354 63.1999 28.5054C63.3396 28.1493 63.3743 27.7606 63.2999 27.3854C63.2084 27.0404 63.0042 26.7358 62.7197 26.5201C62.4352 26.3045 62.0868 26.1902 61.7299 26.1954ZM58.3099 26.1954C58.478 26.1313 58.6362 26.0438 58.7799 25.9354C58.7799 25.9354 58.6599 25.6054 58.5499 25.4654C58.2754 25.1038 57.9674 24.769 57.6299 24.4654C57.5399 24.3954 57.3899 24.7654 57.3599 24.8454C57.0899 25.5454 57.4699 26.1654 58.3099 26.2254V26.1954Z" fill="white"/>
<path d="M47.5198 35.1054C47.3398 34.6454 47.0898 34.3054 47.1698 34.1754C47.3768 33.8239 47.6571 33.521 47.9917 33.2875C48.3262 33.054 48.7072 32.8953 49.1086 32.8222C49.51 32.7491 49.9224 32.7634 50.3178 32.864C50.7132 32.9647 51.0822 33.1493 51.3998 33.4054C51.6348 33.5841 51.8009 33.8384 51.8698 34.1254C52.0365 35.3513 51.7977 36.598 51.1898 37.6754C50.8906 38.119 50.5054 38.4979 50.0571 38.7899C49.6088 39.0819 49.1065 39.281 48.5798 39.3754C48.1444 39.3961 47.7117 39.2957 47.3298 39.0854C47.2588 39.0287 47.2032 38.955 47.1682 38.8711C47.1333 38.7872 47.1201 38.6958 47.1298 38.6054C47.1298 38.4654 47.3498 38.2454 47.4798 38.2554C49.1298 38.2554 49.9698 37.2554 50.4798 35.8854C50.5996 35.5173 50.6603 35.1326 50.6598 34.7454C50.6598 34.6054 50.4998 34.4054 50.3498 34.3154C50.1998 34.2254 49.7298 34.0254 49.4398 33.8554C49.3591 33.797 49.2674 33.7555 49.1702 33.7334C49.0731 33.7114 48.9724 33.7091 48.8744 33.7269C48.7763 33.7446 48.6829 33.782 48.5996 33.8367C48.5163 33.8914 48.445 33.9624 48.3898 34.0454L47.5198 35.1054Z" fill="white"/>
<path d="M41.7199 71.8854C41.6399 72.0654 41.5899 72.3554 41.4299 72.4454C41.3625 72.479 41.2891 72.4987 41.2139 72.5033C41.1387 72.5078 41.0634 72.4972 40.9925 72.472C40.9215 72.4468 40.8564 72.4075 40.801 72.3566C40.7456 72.3056 40.701 72.244 40.6699 72.1754C40.4652 71.906 40.3126 71.6008 40.2199 71.2754C40.0177 70.2215 39.5801 69.2267 38.9399 68.3654C38.9399 68.2854 38.7599 68.2154 38.7599 68.1354C38.7599 67.8154 38.6699 67.3754 38.8399 67.1354C39.0099 66.8954 39.4499 67.0754 39.7299 67.3254C40.5113 68.1352 41.0754 69.1293 41.3699 70.2154C41.5155 70.7656 41.6324 71.323 41.7199 71.8854Z" fill="white"/>
<path d="M38.4 73.1754C38.3226 73.4802 38.2292 73.7806 38.12 74.0754C38.0792 74.1325 38.0251 74.1788 37.9624 74.2102C37.8996 74.2415 37.8301 74.2571 37.76 74.2554C37.6983 74.2344 37.6426 74.1989 37.5973 74.1519C37.5521 74.1049 37.5188 74.0479 37.5 73.9855C37.309 72.4878 36.8302 71.0413 36.09 69.7254C36 69.6354 36 69.5455 36 69.4555C36 69.3655 36 69.0154 36.18 68.9354C36.2627 68.8899 36.3556 68.8661 36.45 68.8661C36.5444 68.8661 36.6373 68.8899 36.72 68.9354C37.702 70.1428 38.2885 71.6232 38.4 73.1754Z" fill="white"/>
<path d="M44.2898 61.6555C44.7453 61.7772 45.1849 61.9517 45.5998 62.1755C46.4584 62.9121 47.1417 63.8311 47.5998 64.8655C47.6332 64.9752 47.6379 65.0917 47.6134 65.2037C47.5889 65.3158 47.536 65.4197 47.4598 65.5055C47.3503 65.5423 47.2338 65.5534 47.1193 65.5378C47.0048 65.5221 46.8955 65.4803 46.7998 65.4155C46.5798 65.2355 46.5098 64.8955 46.2998 64.6955C45.5998 64.0255 45.2998 62.9855 44.2998 62.5955C44.1698 62.5955 44.0898 62.2655 44.0798 62.0855C44.0698 61.9055 44.2198 61.7955 44.2898 61.6555Z" fill="white"/>
<path d="M43.4799 69.0954C43.4999 69.2347 43.4999 69.3761 43.4799 69.5154C43.389 69.7075 43.282 69.8915 43.16 70.0654C42.9799 69.9054 42.7099 69.7854 42.6399 69.5854C42.4499 69.1054 42.42 68.5854 42.2 68.0754C41.86 67.3454 41.57 66.5354 40.7 66.1854C40.61 66.1854 40.5 65.8854 40.54 65.8354C40.5906 65.7563 40.6581 65.6893 40.7376 65.6391C40.8171 65.589 40.9067 65.557 41 65.5454C41.2431 65.5224 41.4875 65.5748 41.7 65.6954C42.59 66.3954 43.6899 68.0454 43.4799 69.0954Z" fill="white"/>
<path d="M34.1798 75.1454V73.7054C34.3285 72.7284 34.1491 71.7297 33.6698 70.8654C33.5898 70.7554 33.7698 70.4454 33.8698 70.2454C33.8698 70.2454 34.1298 70.2454 34.1998 70.2454C34.7506 70.8357 35.1191 71.5726 35.2611 72.3673C35.403 73.1621 35.3123 73.981 34.9998 74.7254C34.8859 74.8893 34.7437 75.0315 34.5798 75.1454C34.5498 75.1854 34.4298 75.1454 34.1798 75.1454Z" fill="white"/>
<path d="M48.1899 62.8955C47.5499 62.1555 46.9999 61.4655 46.3899 60.8255C46.0236 60.5043 45.6397 60.2038 45.2399 59.9255C45.2026 59.88 45.176 59.8268 45.1621 59.7696C45.1482 59.7125 45.1475 59.6529 45.1599 59.5955C45.2799 59.4655 45.5099 59.2755 45.6099 59.3155C46.2957 59.494 46.9238 59.8465 47.4335 60.3387C47.9433 60.831 48.3175 61.4464 48.5199 62.1255C48.5699 62.3255 48.3199 62.6055 48.1899 62.8955Z" fill="white"/>
<path d="M46.6599 56.8655C47.2638 56.8279 47.8626 56.995 48.3598 57.3397C48.857 57.6845 49.2234 58.1868 49.3999 58.7655C49.3999 58.8755 49.3999 59.1155 49.3999 59.1455C49.2298 59.2301 49.0371 59.2582 48.8499 59.2255C48.6735 59.1365 48.5273 58.9973 48.4299 58.8255C48.2379 58.4883 47.9578 58.2097 47.6196 58.0194C47.2814 57.8292 46.8978 57.7345 46.5099 57.7455C46.4199 57.7455 46.2799 57.7455 46.2199 57.7455C46.0264 57.5586 45.8428 57.3616 45.6699 57.1555C45.8543 57.0473 46.0485 56.9569 46.2499 56.8855C46.3853 56.8622 46.523 56.8554 46.6599 56.8655Z" fill="white"/>
<path d="M32.4799 72.9954C32.3537 73.4437 32.1932 73.8817 31.9999 74.3054C31.9256 74.3848 31.8358 74.4479 31.736 74.4909C31.6362 74.5339 31.5286 74.5559 31.4199 74.5554C31.3299 74.5554 31.1599 74.2954 31.1499 74.1454C31.1499 73.7154 31.2299 73.2754 31.2299 72.8354C31.2299 72.3954 31.1599 72.0254 31.1599 71.6154C31.1721 71.5509 31.1993 71.4902 31.2392 71.4381C31.2792 71.386 31.3308 71.344 31.3899 71.3154C31.5699 71.3154 31.8799 71.3154 31.9199 71.4154C32.1699 71.9354 32.3199 72.4854 32.4799 72.9954Z" fill="white"/>
<path d="M46.68 54.1454C47.122 54.1032 47.5666 54.1939 47.9567 54.4059C48.3469 54.6179 48.6649 54.9416 48.87 55.3354C48.94 55.4654 48.87 55.7154 48.75 55.8654C48.63 56.0154 48.49 55.8654 48.37 55.8654C47.8 55.6254 47.24 55.3454 46.66 55.1254C46.36 55.0154 46.08 54.8754 46.22 54.5354C46.36 54.1954 46.6 54.2154 46.68 54.1454Z" fill="white"/>
<path d="M48.5998 53.2054C48.3098 53.2054 48.0398 53.2954 47.8698 53.2054C47.3869 52.8795 46.8298 52.6801 46.2498 52.6254C46.1298 52.6254 45.9098 52.2854 45.9398 52.1354C45.98 52.0406 46.0447 51.9582 46.1273 51.8967C46.2099 51.8352 46.3074 51.7968 46.4098 51.7854C46.8333 51.8399 47.2415 51.9793 47.6098 52.1954C47.9758 52.4949 48.3078 52.8335 48.5998 53.2054Z" fill="white"/>
<path d="M45.6599 50.3555C45.7212 50.2743 45.788 50.1974 45.8599 50.1255C46.4045 50.0639 46.9555 50.0943 47.4899 50.2154C47.4899 50.3154 47.5799 50.4954 47.4899 50.5554C47.2367 50.743 46.93 50.8442 46.6149 50.8442C46.2998 50.8442 45.9931 50.743 45.7399 50.5554C45.7099 50.5454 45.6999 50.4355 45.6599 50.3555Z" fill="white"/>
<path d="M29.3699 72.4354C29.3699 72.7954 29.3699 73.0354 29.3199 73.1754C29.1858 73.2987 29.0119 73.3696 28.8299 73.3754C28.7627 73.3717 28.6975 73.3516 28.6399 73.3167C28.5824 73.2818 28.5343 73.2333 28.4999 73.1754C28.4698 72.9833 28.4698 72.7876 28.4999 72.5954C28.4999 72.2154 28.7099 71.9054 29.0899 71.9454C29.2099 71.9554 29.3199 72.3354 29.3699 72.4354Z" fill="white"/>
<path d="M26.3498 73.1355C26.1992 73.044 26.0613 72.933 25.9398 72.8055C25.8947 72.6931 25.8947 72.5678 25.9398 72.4555C25.9398 72.3755 26.0598 72.3055 26.1398 72.2455C26.2198 72.1855 26.5298 71.7255 26.8498 72.0255C26.9081 72.0992 26.9462 72.1869 26.9602 72.2798C26.9742 72.3728 26.9638 72.4678 26.9298 72.5555C26.7649 72.7753 26.5696 72.9706 26.3498 73.1355Z" fill="white"/>
<path d="M21.52 70.2054C21.66 70.4454 21.83 70.6154 21.79 70.7054C21.7514 70.7766 21.6953 70.8369 21.6271 70.8806C21.559 70.9243 21.4808 70.9501 21.4 70.9554C21.26 70.9554 21.13 70.7954 20.99 70.7054L21.52 70.2054Z" fill="white"/>
<path d="M44.1498 46.8854C44.2398 47.0354 44.3498 47.1554 44.3398 47.2454C44.3298 47.3354 44.1898 47.4254 44.0998 47.5054L43.7998 47.1554L44.1498 46.8854Z" fill="white"/>
<path d="M45.5598 48.8955C45.4398 48.8955 45.3298 49.0255 45.2798 48.9955C45.1705 48.9381 45.0828 48.8469 45.0298 48.7355C45.0298 48.7355 45.0898 48.5755 45.1298 48.4955L45.5598 48.8955Z" fill="white"/>
<path d="M23.55 71.8954L23.13 72.0654C23.13 71.9854 23.06 71.8454 23.13 71.8254C23.2586 71.7433 23.3961 71.6762 23.54 71.6254L23.55 71.8954Z" fill="white"/>
<path d="M19.69 68.9354C19.62 69.0554 19.5699 69.1654 19.5499 69.1554C19.4302 69.1209 19.3132 69.0775 19.2 69.0254C19.2 69.0254 19.2599 68.9454 19.2999 68.9454L19.69 68.9354Z" fill="white"/>
</svg>
