<svg width="90" height="90" viewBox="0 0 90 90" fill="none" xmlns="http://www.w3.org/2000/svg">
<path d="M28.9301 45.25L26.5401 45.58C25.8121 45.5948 25.0864 45.6683 24.3701 45.7999C23.5561 46.0299 22.6942 46.0299 21.8801 45.7999C20.7541 45.5532 19.5943 45.4991 18.4501 45.6399C18.0886 45.634 17.73 45.706 17.3987 45.8509C17.0674 45.9958 16.7712 46.2104 16.5301 46.4799C15.5901 47.6199 14.3101 47.2799 13.1801 47.0099C12.6559 46.8364 12.1953 46.5108 11.8569 46.0744C11.5185 45.6381 11.3177 45.1108 11.2801 44.56C11.2495 43.941 11.3867 43.3253 11.6771 42.7779C11.9676 42.2305 12.4005 41.7717 12.9301 41.45C13.4648 41.1814 14.0675 41.0788 14.6609 41.1555C15.2543 41.2321 15.8112 41.4844 16.2601 41.88C16.4601 42.06 16.6201 42.2699 16.8201 42.4399C17.0201 42.6099 17.0701 42.6399 17.1901 42.6199C18.1001 42.4999 19.0101 42.33 19.9301 42.2C20.341 42.1435 20.7554 42.1167 21.1701 42.1199H28.9401V36.1199H22.2701C21.7401 36.1199 21.2201 36.1199 20.6901 36.1199C20.1601 36.1199 19.8601 35.84 19.8201 35.24C19.7001 33.47 19.5901 31.7 19.5001 29.93C19.4643 29.5673 19.5122 29.2012 19.6401 28.86C19.9401 28.18 19.7901 27.8599 19.2001 27.3199C18.6101 26.7799 18.7601 25.7699 19.0401 24.9799C19.241 24.5024 19.5069 24.0548 19.8301 23.6499C20.0616 23.3216 20.3586 23.0447 20.7024 22.8367C21.0461 22.6288 21.4292 22.4943 21.8275 22.4417C22.2258 22.3891 22.6307 22.4195 23.0167 22.5311C23.4027 22.6426 23.7613 22.8329 24.0701 23.0899C25.3901 24.0899 25.5301 25.6799 25.1701 27.28C25.1321 27.4287 25.0481 27.5617 24.9301 27.6599C23.3901 28.8799 23.6301 30.57 23.6101 32.32C25.6101 32.32 27.4801 32.32 29.3701 32.32C29.677 32.2989 29.9717 32.1914 30.2201 32.0099C31.2827 31.2368 32.5924 30.8809 33.9001 31.01C34.2101 31.01 34.5301 31.01 34.9501 31.01C34.9501 30.63 35.0201 30.28 35.0301 29.93V18.19C35.0301 17.54 35.0301 17.46 34.2101 17.43C32.1001 17.37 29.9801 17.34 27.8801 17.43C27.3793 17.5436 26.9044 17.7505 26.4801 18.04C25.9515 18.2377 25.3811 18.2974 24.8229 18.2134C24.2647 18.1294 23.7372 17.9045 23.2901 17.5599C22.8911 17.2972 22.5817 16.9191 22.403 16.476C22.2244 16.033 22.185 15.546 22.2901 15.0799C22.2942 14.5119 22.4761 13.9594 22.8101 13.4999C23.0279 13.1332 23.3213 12.8171 23.6709 12.5727C24.0205 12.3283 24.4181 12.1612 24.8374 12.0827C25.2566 12.0041 25.6878 12.0159 26.1021 12.1172C26.5164 12.2184 26.9044 12.4069 27.2401 12.6699C28.0559 13.3467 29.0907 13.7023 30.1501 13.6699C32.9701 14.0199 35.8001 13.8799 38.6101 13.9599C39.0331 15.744 39.2047 17.5784 39.1201 19.4099C39.1201 20.78 39.1201 22.15 39.1201 23.53C39.1541 24.3593 39.0802 25.1896 38.9001 25.9999C38.8194 26.7691 38.8667 27.5463 39.0401 28.2999C39.0901 29.08 39.1301 29.86 39.1801 30.74C40.4201 30.74 41.6201 30.74 42.8201 30.74C43.7501 30.74 43.7201 30.6199 43.9701 29.4799C44.2321 28.6756 44.2425 27.8104 44.0001 26.9999C43.8401 26.5799 44.3201 25.9299 44.1701 25.5199C43.7601 24.37 44.3201 23.2299 44.0001 22.0499C43.8078 20.8526 43.7809 19.6346 43.9201 18.43C43.9357 18.2446 43.9086 18.0581 43.841 17.8848C43.7734 17.7114 43.6671 17.5559 43.5301 17.43C41.9301 15.84 42.5301 13.72 44.2101 12.43C45.1861 12.2827 46.175 12.2392 47.1601 12.3C47.4923 12.3707 47.8034 12.5178 48.069 12.7296C48.3345 12.9413 48.5472 13.2119 48.6901 13.52C49.0177 14.3204 49.1247 15.1941 49.0001 16.0499C49.0186 16.4429 48.9085 16.8311 48.6865 17.1559C48.4646 17.4807 48.1429 17.7243 47.7701 17.85C47.3801 18.02 47.3501 18.4099 47.4801 18.7999C47.6047 19.121 47.6855 19.4573 47.7201 19.7999C47.8501 23.2099 47.9501 26.62 48.0601 30.03C48.0763 30.1357 48.1031 30.2396 48.1401 30.34C49.3401 30.34 50.5901 30.34 51.8401 30.34C52.8287 30.2083 53.8342 30.304 54.7801 30.62C55.0901 30.78 55.4001 30.57 55.3501 30.1299C55.2501 29.2999 55.2601 28.4799 55.1701 27.6499C55.0268 25.8102 54.9934 23.9636 55.0701 22.12C55.0701 21.9 55.4301 21.6699 55.6501 21.4699C55.7101 21.4199 55.8501 21.4699 55.9601 21.4699C57.6201 21.3699 59.2901 21.2499 60.9601 21.1799C61.3302 21.1777 61.6863 21.0388 61.9601 20.79C62.7097 20.1953 63.6591 19.9115 64.612 19.9971C65.565 20.0827 66.4486 20.5312 67.0801 21.2499C67.5326 21.8231 67.7711 22.5361 67.7547 23.2661C67.7383 23.9962 67.4679 24.6977 66.9901 25.2499C66.4145 25.8559 65.674 26.28 64.8601 26.4699C64.1761 26.4956 63.4981 26.333 62.9001 25.9999C62.4483 25.8649 62.0586 25.5744 61.8001 25.1799C61.4401 24.3099 60.9601 25.1799 60.5401 25.0099C60.0703 24.9292 59.59 24.9292 59.1201 25.0099H58.3401C58.3401 25.5499 58.4601 26.01 58.4601 26.53C58.4601 27.6399 58.4601 28.75 58.4601 29.86C58.4601 30.34 58.4601 30.57 59.1401 30.86C60.4101 31.33 60.7301 32.66 60.9901 33.86C61.0104 34.1229 61.0104 34.387 60.9901 34.65C60.9901 35.74 61.2401 35.87 62.3201 35.65C62.679 35.5777 63.0441 35.5409 63.4101 35.54C64.2001 35.54 64.9901 35.54 65.7801 35.54C67.138 35.5891 68.4975 35.5087 69.8401 35.2999C70.8852 35.008 72.0025 35.1297 72.9601 35.6399C72.9993 35.3948 73.026 35.1478 73.0401 34.9C73.0401 33.06 73.0401 31.21 73.0401 29.36C73.0575 29.0755 73.0168 28.7906 72.9206 28.5224C72.8243 28.2542 72.6744 28.0084 72.4801 27.7999C71.9921 27.2729 71.6748 26.6106 71.5701 25.8999C71.5548 25.4919 71.6202 25.0848 71.7627 24.7021C71.9051 24.3195 72.1217 23.9687 72.4001 23.6699C72.6311 23.3177 72.9501 23.0319 73.3254 22.8408C73.7007 22.6496 74.1194 22.5597 74.5401 22.5799C75.0245 22.5741 75.5031 22.6857 75.935 22.9051C76.3669 23.1246 76.7392 23.4453 77.0201 23.8399C77.1078 23.9726 77.2158 24.0907 77.3401 24.1899C77.596 24.3719 77.8011 24.6162 77.9359 24.8998C78.0707 25.1833 78.1307 25.4967 78.1101 25.8099C78.1521 26.1745 78.1108 26.5439 77.9896 26.8903C77.8684 27.2367 77.6703 27.5511 77.4101 27.8099C76.5301 28.4899 76.5801 29.3599 76.4101 30.3099C76.1887 32.7635 76.0919 35.2266 76.1201 37.6899C76.1201 37.8799 75.8401 38.14 75.9001 38.24C76.2701 38.88 75.7601 39.05 75.4001 39.02C73.7101 38.89 72.0701 39.3199 70.4001 39.3499C67.7601 39.3499 65.1201 39.3499 62.4801 39.3499H61.0901V44.3499C61.9496 44.4797 62.8271 44.4182 63.6601 44.1699C63.7616 44.0921 63.877 44.0344 64.0001 44L69.7801 43.66C69.9398 43.645 70.1005 43.645 70.2601 43.66C70.9075 43.8574 71.5841 43.9419 72.2601 43.91C72.8462 43.6928 73.3615 43.3193 73.7501 42.83C74.0229 42.5233 74.3885 42.3142 74.7911 42.2348C75.1938 42.1553 75.6114 42.2098 75.9801 42.3899C76.6564 42.6128 77.3095 42.9008 77.9301 43.25C78.2476 43.4401 78.508 43.7122 78.684 44.0377C78.86 44.3633 78.945 44.7302 78.9301 45.0999C78.9952 45.6726 78.918 46.2524 78.7051 46.7879C78.4923 47.3235 78.1505 47.7982 77.7101 48.1699C77.3735 48.4763 76.9665 48.6949 76.5252 48.8066C76.084 48.9182 75.622 48.9194 75.1801 48.81C74.2001 48.7334 73.2756 48.3241 72.5601 47.65C72.304 47.4802 71.9937 47.4124 71.6901 47.4599C70.1301 47.54 68.5501 47.2299 67.0001 47.7299C66.6356 47.7854 66.2647 47.7854 65.9001 47.7299H61.1001C61.0301 48.82 60.9601 49.85 60.8801 50.88C60.8001 51.91 60.7101 52.9399 60.6201 54.0299C61.6201 54.0299 62.5001 54.6 63.4401 54.13C63.7386 54.0103 64.0717 54.0103 64.3701 54.13C65.2166 54.3948 66.1063 54.4933 66.9901 54.4199C67.7001 54.4199 67.9101 54.67 67.9901 55.34C68.0901 56.34 68.2401 57.34 68.3001 58.2799C68.3601 59.2199 68.3001 60.18 68.3001 61.13C68.2704 61.3612 68.2998 61.5962 68.3854 61.8131C68.4711 62.0299 68.6104 62.2215 68.7901 62.3699C69.1011 62.6553 69.3584 62.994 69.5501 63.3699C69.8227 63.8778 69.9167 64.4625 69.8169 65.0302C69.7172 65.5978 69.4295 66.1155 69.0001 66.5C68.6361 66.9492 68.1336 67.2654 67.5711 67.3992C67.0085 67.5331 66.4175 67.4771 65.8901 67.2399C65.1445 67.0141 64.4604 66.6207 63.8901 66.0899C63.4695 65.6943 63.2196 65.1503 63.1934 64.5733C63.1673 63.9964 63.367 63.432 63.7501 63C64.9201 61.5999 64.4301 60 64.4801 58.5C64.4801 58.15 64.0501 57.88 63.6301 57.9799C62.6665 58.2032 61.6791 58.3073 60.6901 58.29C60.5965 58.2924 60.5045 58.3153 60.4207 58.3572C60.3369 58.3991 60.2633 58.4589 60.2051 58.5323C60.1469 58.6058 60.1056 58.6911 60.084 58.7822C60.0624 58.8734 60.0611 58.9682 60.0801 59.06C60.2001 60.18 59.5901 60.57 58.6301 60.93C57.8682 61.2515 57.056 61.4376 56.2301 61.4799C55.5916 61.5549 54.9619 61.6923 54.3501 61.8899C54.4701 63.32 54.0901 64.7799 54.6401 66.1999C54.708 66.4045 54.708 66.6254 54.6401 66.83C54.0101 68.68 54.5201 70.5599 54.3201 72.5599H59.6501C60.0201 72.5599 60.4701 72.4299 60.7501 72.5599C61.6101 73.0599 62.0801 72.78 62.6601 72.04C62.7736 71.8452 62.9267 71.6765 63.1094 71.5447C63.2922 71.4129 63.5006 71.3209 63.7212 71.2747C63.9418 71.2285 64.1696 71.2292 64.3899 71.2766C64.6102 71.324 64.8181 71.4171 65.0001 71.55C65.1201 71.63 65.3201 71.5499 65.4601 71.61C67.3401 72.2299 67.9001 73.54 67.0501 75.36C66.7101 76.1 66.4201 76.7999 65.4101 77.0299C63.7901 77.4099 63.3201 77.38 62.3201 76.0299C62.1901 75.8499 62.2001 75.79 61.9301 75.83C60.6065 76.123 59.2301 76.0748 57.9301 75.69C57.7721 75.6546 57.6082 75.6546 57.4501 75.69C56.3901 75.87 55.3301 76.1 54.2701 76.2299C53.4858 76.3049 52.6972 76.325 51.9101 76.2899C51.8165 76.2915 51.7236 76.2737 51.6372 76.2376C51.5508 76.2016 51.4728 76.1481 51.408 76.0805C51.3432 76.0129 51.2931 75.9327 51.2608 75.8449C51.2285 75.757 51.2146 75.6634 51.2201 75.57C51.2201 74.11 50.8101 72.6899 50.8601 71.2099C50.9601 68.68 50.8601 66.1399 50.8601 63.5999C50.8602 63.1854 50.8098 62.7723 50.7101 62.3699C50.6101 61.9399 50.3401 61.5499 49.8201 61.75C48.4501 62.2599 47.0201 61.92 45.5201 62.09C45.5201 62.49 45.4701 62.8999 45.4701 63.2999C45.4701 65.9399 45.4701 68.58 45.4701 71.23C45.4701 71.78 45.3901 72.33 46.2201 72.23C46.582 72.459 46.8933 72.7594 47.135 73.1129C47.3768 73.4663 47.544 73.8653 47.6264 74.2856C47.7087 74.7058 47.7045 75.1384 47.6141 75.557C47.5236 75.9755 47.3487 76.3713 47.1001 76.7199C46.5101 77.4699 45.8501 78.1699 44.7201 77.9199C44.0701 77.7799 43.4001 78.0199 42.7201 77.6299C42.3247 77.4362 41.9882 77.1403 41.7456 76.7728C41.503 76.4054 41.363 75.9797 41.3401 75.54C41.2456 75.0242 41.2821 74.4929 41.4463 73.9949C41.6105 73.497 41.8973 73.0482 42.2801 72.69C42.4901 72.52 42.5201 72.3799 42.4201 72.0599C42.3073 71.5481 42.2702 71.0225 42.3101 70.5V62.1899C41.0651 62.0519 39.8107 62.0184 38.5601 62.09C37.3501 62.09 36.1301 62.09 34.9401 62.09C35.0601 63.9599 35.0201 65.81 34.9401 67.66C34.9401 68.47 34.5701 68.73 33.7601 68.73C32.2301 68.73 30.7001 68.73 29.1701 68.73C28.9633 68.7215 28.7569 68.7543 28.5629 68.8264C28.3689 68.8985 28.1912 69.0085 28.0401 69.15C27.6316 69.4878 27.153 69.7305 26.6389 69.8603C26.1249 69.9901 25.5885 70.0037 25.0685 69.9003C24.5485 69.7969 24.0581 69.579 23.6329 69.2624C23.2077 68.9458 22.8583 68.5384 22.6101 68.07C22.3179 67.592 22.1518 67.0477 22.1273 66.488C22.1028 65.9283 22.2208 65.3716 22.4701 64.87C22.6635 64.4702 22.9563 64.1269 23.3206 63.873C23.6848 63.6191 24.1082 63.4631 24.5501 63.4199C25.1801 63.2294 25.8475 63.1972 26.4929 63.3263C27.1383 63.4553 27.7419 63.7417 28.2501 64.16C28.5569 64.4757 28.935 64.7131 29.3527 64.8523C29.7703 64.9915 30.2153 65.0284 30.6501 64.9599C30.8601 64.9599 31.0701 64.9599 31.3901 64.9599C31.3901 64.5499 31.4801 64.1499 31.5001 63.7599C31.5001 63.0199 31.5001 62.29 31.6101 61.56C31.6101 61.35 31.7901 61.25 31.4701 61.13C31.1501 61.01 30.6801 60.6699 30.2601 60.5C29.956 60.4136 29.6908 60.2255 29.5087 59.967C29.3267 59.7085 29.239 59.3954 29.2601 59.08C29.2601 57.39 29.2601 55.7099 29.2601 53.8699C27.4971 54.6205 25.5822 54.9459 23.6701 54.82C23.2614 54.8593 22.8566 54.9329 22.4601 55.04C22.2074 55.1035 21.9429 55.1035 21.6901 55.04C20.4601 54.53 19.1901 54.8699 17.9501 54.77C16.4901 54.66 15.9001 55.4899 15.9501 56.8499C16.1018 58.1013 16.017 59.37 15.7001 60.59C15.4801 61.16 15.8901 61.59 16.3101 61.93C16.6526 62.1744 16.9251 62.5043 17.1006 62.8867C17.276 63.2692 17.3483 63.6909 17.3101 64.11C17.3274 64.5794 17.2475 65.0473 17.0754 65.4844C16.9033 65.9215 16.6428 66.3183 16.3101 66.65C15.7995 67.129 15.1409 67.4197 14.4428 67.4743C13.7448 67.5288 13.049 67.3439 12.4701 66.9499C10.6301 65.6499 10.9701 63.68 12.0101 62.1199C12.6301 62.0099 12.4801 61.5299 12.4901 61.1199C12.5001 60.7099 12.4901 60.0599 12.4901 59.5299C12.5901 57.07 12.7101 54.6199 12.8001 52.16C12.8001 51.6699 12.9701 51.3299 13.4901 51.2799C14.9401 51.1699 16.4001 51.0999 17.8401 50.9399C18.5601 50.8699 19.2301 51.1899 19.9401 51.02C20.6583 50.8575 21.41 50.9348 22.0801 51.24C22.6501 51.5 23.2401 50.63 23.8301 51.24C25.4601 50.69 27.1601 51.13 28.9001 50.88L28.9301 45.25ZM46.7801 32.8899C44.5601 32.8899 42.3401 32.8899 40.1301 32.8899C37.9848 32.853 35.8396 32.9666 33.7101 33.2299C33.4623 33.2915 33.2185 33.3683 32.9801 33.4599C32.4401 33.6099 31.7001 33.5999 31.4101 33.9599C31.1201 34.32 31.2201 35.04 31.2101 35.61C31.1101 41.71 31.7501 47.7999 31.5301 53.91C31.4851 54.756 31.4851 55.6039 31.5301 56.45C31.5873 57.061 31.6943 57.6663 31.8501 58.2599C31.8749 58.4446 31.9674 58.6134 32.1097 58.7335C32.252 58.8537 32.434 58.9166 32.6201 58.91C34.3401 58.91 36.0201 59.33 37.7701 59.27C41.0401 59.15 44.3201 59.27 47.5901 59.22C47.9601 59.22 48.4101 59.34 48.6801 59.22C49.3401 58.83 50.0201 59.03 50.6801 58.95C51.3411 58.8151 52.0087 58.715 52.6801 58.65C54.1933 58.6782 55.706 58.5711 57.2001 58.33C58.3001 58.11 58.4701 58.01 58.5001 56.88C58.7001 50.67 58.1201 44.45 58.7901 38.25C58.8552 37.1442 58.8552 36.0357 58.7901 34.93C58.8223 34.6596 58.7927 34.3854 58.7036 34.1281C58.6144 33.8708 58.4681 33.6371 58.2755 33.4446C58.083 33.252 57.8493 33.1057 57.592 33.0165C57.3347 32.9274 57.0605 32.8978 56.7901 32.93L46.7801 32.8899ZM37.7801 14.8299H29.0001C28.6601 14.8299 28.3501 14.83 28.3801 15.31C28.4101 15.79 28.2101 16.08 28.8201 16.12C29.4301 16.16 29.8201 16.6399 30.4401 16.2099C30.8273 16.0368 31.2638 16.0084 31.6701 16.1299C32.8454 16.3624 34.0424 16.4664 35.2401 16.44C35.3464 16.4322 35.453 16.4489 35.5518 16.4886C35.6507 16.5283 35.7391 16.5901 35.8105 16.6691C35.8819 16.7482 35.9342 16.8425 35.9636 16.9449C35.993 17.0473 35.9987 17.1551 35.9801 17.26V28.51C35.9801 29.1399 35.9801 29.77 35.9801 30.41C35.9801 31.0499 36.1701 31.11 36.7801 30.93C36.9701 30.87 37.1601 30.7199 37.3501 30.7199C37.7701 30.7199 37.8901 30.5299 37.8901 30.15C37.8901 28.5599 37.8901 26.9799 37.8901 25.3899C37.8901 23.7999 38.1401 22.1699 38.1601 20.5599C38.1601 19.6299 37.9601 18.71 37.8901 17.78C37.8201 16.85 37.8301 15.8899 37.7901 14.8299H37.7801ZM53.4201 73.48C53.4201 69.48 53.4201 65.65 53.4201 61.84H51.5001C51.4136 62.3798 51.4136 62.9301 51.5001 63.47C51.8024 64.6888 51.8937 65.9503 51.7701 67.1999C51.7701 69.2599 51.7701 71.32 51.7701 73.3899C51.7701 75.68 51.7701 75.3899 54.0301 75.3899C54.1852 75.3696 54.3388 75.3396 54.4901 75.3C55.4901 75.13 56.4001 74.9399 57.3601 74.7799C57.5657 74.7503 57.7745 74.7503 57.9801 74.7799C58.4901 74.86 58.9801 74.97 59.5001 75.01C60.1277 74.9425 60.7619 74.9729 61.3801 75.0999C62.1001 75.41 62.0301 74.8699 61.8701 74.6999C61.7101 74.5299 62.1301 73.85 61.5301 73.76C60.247 73.5236 58.9448 73.4064 57.6401 73.41C56.3201 73.52 55.0001 73.48 53.4201 73.48ZM13.7701 52.2299V56.29C13.8618 56.7555 13.8618 57.2344 13.7701 57.7C13.3001 58.7 13.6301 59.78 13.5201 60.81C13.4701 61.28 13.6701 61.45 14.1501 61.4599C14.6301 61.4699 14.8101 61.34 14.8001 60.84C14.8001 59.84 14.7501 58.94 14.8001 57.99C14.8501 57.04 15.0401 56.1399 15.0901 55.22C15.0901 54.75 15.2101 54.31 15.6401 54.22C16.2915 54.0302 16.9626 53.9161 17.6401 53.88C20.1401 53.75 22.6401 54.08 25.1701 53.59C26.1701 53.3899 27.2401 53.68 28.2601 53.27C28.5601 53.15 28.9901 53.3599 29.3701 53.4199C29.391 53.1871 29.391 52.9528 29.3701 52.72C29.2001 51.9 29.0301 51.84 28.1101 51.93C26.8201 52.07 25.5201 52.2199 24.2301 52.2599C22.2301 52.3099 20.2301 52.2599 18.2301 52.2599L13.7701 52.2299ZM61.0001 38.25C61.2901 38.25 61.4901 38.25 61.7001 38.25C62.9082 38.263 64.1154 38.1794 65.3101 38C66.7103 37.9206 68.1149 37.991 69.5001 38.2099C71.1501 38.2799 72.8201 38.04 74.5001 37.95C75.2801 37.95 75.4301 37.75 75.2901 37.02C74.885 35.1449 74.885 33.205 75.2901 31.33C75.4201 30.67 75.5201 30.01 75.6101 29.33C75.6101 28.9799 75.6101 28.7299 75.1201 28.7199C74.6301 28.7099 74.2401 28.6199 73.6901 28.5499C74.2301 30.16 73.9801 31.83 74.0401 33.4799C74.0401 33.85 73.9401 34.3 74.1101 34.56C74.5601 35.24 74.1101 35.5599 73.6901 35.84C73.2752 36.1549 72.771 36.33 72.2501 36.34C70.8446 36.215 69.4281 36.3061 68.0501 36.61C67.6388 36.662 67.2213 36.6348 66.8201 36.5299C66.4194 36.4333 66.0113 36.3698 65.6001 36.34C64.3101 36.41 63.0101 36.5099 61.7201 36.6699C61.5794 36.7146 61.4496 36.7885 61.3393 36.8867C61.2291 36.9849 61.1407 37.1053 61.0801 37.24C60.99 37.5686 60.9628 37.9113 61.0001 38.25ZM21.1301 35.1199H28.8401C28.9501 34.8899 29.0701 34.6699 29.1801 34.4399C29.2342 34.3533 29.2747 34.2589 29.3001 34.16C29.4601 33.45 29.2501 33.16 28.5301 33.24C27.87 33.371 27.2018 33.4579 26.5301 33.5C25.2501 33.44 23.9801 33.26 22.6301 33.11C22.5301 31.84 22.4201 30.61 22.3401 29.37C22.3401 29.01 22.2401 28.8 21.8101 28.76C21.5179 28.6848 21.2306 28.5913 20.9501 28.4799C20.6601 28.41 20.4301 28.48 20.4201 28.86V29.49C20.4936 31.3836 20.7311 33.2673 21.1301 35.1199ZM61.0001 46.72C62.0001 46.66 62.9401 46.57 63.8501 46.56C66.2701 46.56 68.6901 46.56 71.1101 46.56C71.4123 46.5225 71.6873 46.3666 71.8748 46.1267C72.0622 45.8867 72.1469 45.5822 72.1101 45.2799C72.0852 45.2132 72.0451 45.1532 71.9931 45.1046C71.941 45.0561 71.8784 45.0202 71.8101 45C70.5201 44.9 69.2301 44.3699 67.9501 44.7C66.2511 44.9708 64.5289 45.068 62.8101 44.99H61.8601C61.7563 44.975 61.6504 44.9833 61.5502 45.0142C61.4499 45.0451 61.3577 45.0978 61.2803 45.1685C61.2028 45.2393 61.142 45.3264 61.1022 45.4234C61.0624 45.5205 61.0446 45.6252 61.0501 45.7299C61.0001 46.06 61.0001 46.41 61.0001 46.72ZM67.0001 55.4599C64.8801 55.2599 62.8501 55.6499 60.7201 55.1699V56.8899C60.7201 57.3699 61.0901 57.41 61.3701 57.2999C62.6706 56.8273 64.1031 56.8739 65.3701 57.43C65.5401 58.7999 65.7101 60.1199 65.8801 61.43H66.6201C67.4601 61.43 67.4501 61.3699 67.2801 60.5299C67.1119 59.8775 67.0611 59.2002 67.1301 58.5299C67.2237 57.5054 67.18 56.4729 67.0001 55.4599ZM44.8501 18.36C44.7435 19.0592 44.7435 19.7707 44.8501 20.4699C45.1099 21.478 45.1978 22.5227 45.1101 23.5599C45.1101 25.3599 45.1101 27.15 45.1101 28.95V30.33H46.7001C46.7001 29.85 46.7001 29.44 46.7001 29.03C46.6001 26.52 46.4901 24.0299 46.4001 21.5099C46.4001 20.5099 46.4001 19.43 46.4001 18.36H44.8501ZM25.4201 64.61C25.1601 64.61 24.8901 64.61 24.6301 64.61C24.3594 64.6456 24.0992 64.7379 23.8667 64.881C23.6341 65.0241 23.4343 65.2147 23.2805 65.4403C23.1266 65.6659 23.0221 65.9214 22.9738 66.1902C22.9255 66.459 22.9345 66.7349 23.0001 67C23.2615 67.6189 23.7067 68.1426 24.2755 68.5003C24.8442 68.858 25.5091 69.0324 26.1801 69C26.4817 69.0058 26.7765 68.9105 27.0175 68.7292C27.2586 68.548 27.432 68.2912 27.5101 68C27.6722 67.4582 27.7531 66.8954 27.7501 66.33C27.7501 65.2 27.3301 64.73 26.2101 64.62C25.9472 64.6016 25.6834 64.5983 25.4201 64.61ZM55.8801 22.9999C56.0001 25.3899 56.1301 27.82 56.2601 30.25C56.2601 30.36 56.2601 30.5199 56.2601 30.5499C56.4315 30.6484 56.623 30.7066 56.8201 30.7199C56.8909 30.7152 56.9589 30.6913 57.0171 30.6508C57.0752 30.6103 57.1212 30.5547 57.1501 30.49C57.1806 30.2275 57.1806 29.9624 57.1501 29.7C57.1501 28.29 57.1501 26.87 57.1501 25.45C57.11 25.2188 57.1168 24.9819 57.17 24.7535C57.2233 24.525 57.322 24.3095 57.4601 24.12L57.7201 23.8899C58.1801 24.4499 58.7201 23.6899 59.3001 24.0099C59.5745 24.1223 59.8715 24.1682 60.1669 24.1438C60.4624 24.1195 60.7479 24.0257 61.0001 23.87C61.0001 23.28 61.0001 22.74 60.9301 22.29C59.2601 22.68 57.5301 22.0899 55.8801 22.9999ZM32.4801 61.3899C32.4801 62.4799 32.4801 63.4699 32.4801 64.4599C32.4801 65.7 32.3501 65.87 31.1301 66.08C30.8601 66.08 30.5701 65.95 30.2801 65.91C29.3801 65.77 29.0601 66.0399 29.0001 66.9899C29.0001 67.2299 29.0001 67.48 29.0001 67.73H33.7401C33.7401 66.73 33.7401 65.7999 33.7401 64.86C33.7401 63.92 33.9701 62.93 34.0901 61.93L32.4801 61.3899ZM73.2101 45.7C73.3544 46.1731 73.535 46.6345 73.7501 47.08C74.1401 47.79 74.9701 47.54 75.5701 47.7299C76.3501 47.9799 77.4601 46.56 77.5101 45.49C77.4535 44.9577 77.2213 44.4594 76.8501 44.0737C76.4789 43.688 75.9899 43.4369 75.4601 43.36C74.1601 43.32 73.3801 44.17 73.2101 45.7ZM23.9401 25.8499C24.2201 24.7199 23.3001 24.16 22.5501 23.5199C22.326 23.392 22.0632 23.3494 21.8101 23.3999C21.2724 23.634 20.805 24.0044 20.4543 24.4744C20.1035 24.9444 19.8815 25.4978 19.8101 26.0799C19.8226 26.234 19.8669 26.3838 19.9401 26.5199C20.3164 27.0702 20.8765 27.4681 21.5199 27.6423C22.1633 27.8164 22.8478 27.7553 23.4501 27.4699C23.6927 27.2903 23.8658 27.0325 23.9401 26.7399C23.982 26.4448 23.982 26.1451 23.9401 25.8499ZM47.7201 15.4999C47.7659 15.0386 47.6661 14.5746 47.4348 14.1728C47.2034 13.7711 46.8521 13.4519 46.4301 13.26C46.0135 13.124 45.5637 13.1286 45.15 13.2731C44.7363 13.4177 44.3815 13.6941 44.1401 14.06C43.3701 15.33 43.4501 15.74 44.3601 16.78C44.6405 17.0877 45.0098 17.3003 45.4167 17.3882C45.8236 17.476 46.2478 17.4347 46.6301 17.27C47.5401 17 47.7101 16.6599 47.7201 15.4999ZM76.8701 25.6799C76.816 25.5279 76.7491 25.3807 76.6701 25.2399C76.4801 24.9399 76.2701 24.6399 76.0601 24.3499C75.8501 24.0599 75.7301 23.8199 75.5001 23.7299C75.0382 23.5122 74.5304 23.4093 74.0201 23.4299C72.8701 23.6399 72.1501 25.5299 72.7401 26.5799C73.0372 26.996 73.4357 27.3292 73.8977 27.548C74.3598 27.7667 74.87 27.8638 75.3801 27.8299C75.7747 27.6073 76.1138 27.2983 76.3718 26.9259C76.6299 26.5535 76.8002 26.1276 76.8701 25.6799ZM42.1701 75C42.2701 75.54 42.2601 76.0599 42.7401 76.3099C43.2538 76.6313 43.8239 76.8519 44.4201 76.9599C44.9267 76.8921 45.3969 76.6595 45.7583 76.2981C46.1197 75.9367 46.3523 75.4665 46.4201 74.9599C46.4201 74.0799 45.2401 72.8699 44.4201 72.9599C43.8602 73.0041 43.3268 73.2167 42.8901 73.57C42.57 74.0018 42.3264 74.4855 42.1701 75ZM44.3301 71.86C43.9401 68.6 44.9501 65.36 44.4201 62.08L43.0701 62.1399C43.1401 62.95 43.2401 63.66 43.2501 64.36C43.2501 66.83 43.2501 69.2999 43.2501 71.7699C43.2629 71.8979 43.2967 72.023 43.3501 72.1399L44.3301 71.86ZM64.3301 21.4999C62.8301 21.4999 62.3301 21.9099 62.2701 23.1699C62.3345 23.7106 62.5751 24.215 62.9546 24.6054C63.3341 24.9957 63.8315 25.2503 64.3701 25.3299C64.8699 25.2456 65.3311 25.0077 65.6895 24.6493C66.0479 24.2909 66.2858 23.8298 66.3701 23.3299C66.4201 22.1899 65.6201 21.4899 64.3401 21.4799L64.3301 21.4999ZM27.1001 14.8699C27.0237 14.4127 26.786 13.9979 26.4301 13.7007C26.0743 13.4035 25.6237 13.2436 25.1601 13.2499C24.6929 13.3737 24.2703 13.6273 23.9411 13.9812C23.612 14.3351 23.3897 14.775 23.3001 15.2499C23.2501 16.2499 24.4201 17.07 25.7401 17.03C26.6501 17 27.1401 16.2499 27.1001 14.8699ZM12.4901 64.37C12.4492 64.578 12.4492 64.792 12.4901 65C12.6164 65.3816 12.8364 65.7255 13.1301 66C13.5382 66.3025 14.0321 66.4671 14.5401 66.47C15.5401 66.38 16.4501 64.2299 15.8601 63.47C15.5101 63 15.1501 62.41 14.3801 62.47C14.1307 62.4686 13.8835 62.5169 13.653 62.612C13.4224 62.7072 13.2131 62.8472 13.0372 63.0241C12.8613 63.2009 12.7223 63.411 12.6284 63.642C12.5345 63.8731 12.4875 64.1205 12.4901 64.37ZM66.3301 62.7099C65.9199 62.6624 65.5065 62.7677 65.1689 63.0057C64.8314 63.2436 64.5933 63.5976 64.5001 64C64.3001 65 64.6301 65.4999 65.6601 65.8799C65.8501 65.9499 66.1101 65.88 66.2701 65.98C66.6601 66.23 67.0301 66.35 67.4001 65.98C67.7701 65.61 68.3101 65.3199 68.3301 64.6299C68.3701 63.3799 67.7201 62.7099 66.3301 62.7099ZM22.1701 44.32C23.1701 44.32 24.2701 44.32 25.3201 44.32C26.3701 44.32 27.4801 44.1299 28.5501 44.0099C28.6239 44.0076 28.6964 43.9905 28.7634 43.9596C28.8304 43.9287 28.8905 43.8846 28.9401 43.83C28.9912 43.6809 28.9912 43.519 28.9401 43.3699C28.9125 43.2832 28.8645 43.2043 28.8001 43.1399C27.9101 43.6199 26.9101 43.1399 26.0301 43.4199C24.836 43.7751 23.5643 43.7751 22.3701 43.4199C21.7179 43.2237 21.0224 43.2237 20.3701 43.4199C19.72 43.6048 19.046 43.6924 18.3701 43.68C18.1604 43.6949 17.9499 43.6949 17.7401 43.68C17.3001 43.68 17.2101 43.92 17.2501 44.27C17.2505 44.3498 17.2735 44.4278 17.3166 44.495C17.3597 44.5622 17.421 44.6157 17.4934 44.6493C17.5658 44.6828 17.6463 44.6951 17.7254 44.6846C17.8045 44.6741 17.879 44.6413 17.9401 44.59C18.4575 44.3246 19.0457 44.2301 19.6201 44.32C20.4901 44.2999 21.3301 44.32 22.1701 44.32ZM64.4901 76C65.6301 76 66.1001 75.43 66.1001 74C66.1001 72.9399 65.5101 72.44 64.2601 72.44C63.3901 72.44 62.9101 73.12 62.9101 74.33C62.9101 75.54 63.3601 76.0499 64.4901 76ZM14.3301 45.9199C14.7407 45.9424 15.1439 45.805 15.4553 45.5365C15.7667 45.268 15.962 44.8893 16.0001 44.4799C15.9109 43.976 15.6726 43.5104 15.3161 43.1432C14.9596 42.776 14.5012 42.5241 14.0001 42.4199C13.3901 42.4199 12.5201 43.42 12.5401 44.18C12.5718 44.6395 12.772 45.0713 13.1023 45.3924C13.4326 45.7135 13.8698 45.9013 14.3301 45.9199Z" fill="white"/>
<path d="M51.8202 49.71C52.1002 49.77 52.5502 49.65 52.4102 50.17C52.3302 50.47 52.0802 50.71 52.0102 51C52.0102 51.12 52.2402 51.3 52.4402 51.53C51.7102 52.13 50.9702 52.77 50.1902 53.37C50.0802 53.45 49.8402 53.37 49.6602 53.37C49.6594 53.2251 49.6901 53.0818 49.7502 52.95C49.9324 52.6959 50.1365 52.4584 50.3602 52.24C49.1902 52.33 48.9802 54 47.7602 53.4L48.3002 52.69C47.2202 52.12 46.7402 53.32 45.9102 53.43C45.8202 53.16 45.8002 52.76 45.6102 52.63C45.4202 52.5 44.9102 52.63 44.6102 52.93C44.4807 53.0962 44.3293 53.2442 44.1602 53.37C44.0235 53.4309 43.8786 53.4714 43.7302 53.49C43.7302 53.31 43.6702 53.14 43.6502 52.96C43.6403 52.8402 43.6403 52.7198 43.6502 52.6C43.5402 52.6 43.4202 52.6 43.3502 52.6C43.0035 52.81 42.6696 53.0405 42.3502 53.29C42.1402 53.46 41.9702 53.44 41.8602 53.23C41.788 53.0122 41.7378 52.7877 41.7102 52.56L40.9302 53.06C40.9302 53.06 40.8502 53.15 40.8002 53.15H40.2002C40.2802 52.99 40.3702 52.84 40.4402 52.67C40.4699 52.5586 40.49 52.4448 40.5002 52.33C40.4002 52.33 40.2602 52.33 40.2102 52.33C39.7802 52.71 39.3602 53.11 38.9402 53.52C38.8807 53.4229 38.8337 53.3188 38.8002 53.21C38.7102 52.82 39.3202 52.21 38.4902 52.06C38.3902 51.24 38.2002 50.42 38.1802 49.6C38.1802 47.65 38.1802 45.69 38.1802 43.74C38.2303 42.7575 38.3405 41.779 38.5102 40.81C38.5902 40.21 39.0102 39.92 39.7102 39.91C41.9302 39.91 44.1502 39.91 46.3602 39.91C46.9772 39.8835 47.5919 39.8166 48.2002 39.71C49.2346 39.5967 50.2793 39.7952 51.2002 40.28C51.2789 40.3301 51.3451 40.3977 51.3937 40.4774C51.4422 40.5572 51.4718 40.647 51.4802 40.74C51.4802 41.21 51.7902 41.19 52.1102 41.22C52.4302 41.25 52.5302 41.5 52.3402 41.76C52.1502 42.02 51.7502 42.37 51.5202 42.76C51.4402 42.89 51.5202 43.15 51.5802 43.36L52.0502 43.08L52.4802 42.76C52.4299 43.1358 52.3496 43.507 52.2402 43.87C52.0302 44.34 51.7002 44.76 51.5402 45.24C51.4402 45.54 51.2302 46.24 52.0702 45.73C52.3302 45.58 52.6102 46.03 52.4302 46.36C52.2502 46.69 51.8602 47.22 51.5902 47.67C51.5302 47.78 51.5902 47.95 51.5902 48.1C51.7112 48.0586 51.8348 48.0252 51.9602 48C52.1002 48 52.3402 48 52.3702 48C52.4634 48.1781 52.4951 48.382 52.4602 48.58C52.3402 49.01 51.7002 49.2 51.8502 49.78L51.6002 49.9L51.7402 50.04L51.8202 49.71ZM39.5902 51.38C40.2033 51.143 40.853 51.0144 41.5102 51C42.2002 51.16 42.5102 51 42.7502 50.4C42.9053 50.0739 43.1001 49.7683 43.3302 49.49L45.8702 46C46.8702 44.59 47.9502 43.18 48.9702 41.75C49.0902 41.58 49.1702 41.23 49.0902 41.13C49.0061 41.0374 48.9021 40.965 48.7861 40.9183C48.6701 40.8715 48.545 40.8516 48.4202 40.86C48.042 40.9683 47.6978 41.1714 47.4202 41.45C45.8402 43.31 44.6102 45.45 42.8502 47.15C42.3913 47.6427 41.9638 48.1637 41.5702 48.71C41.0002 49.52 40.3602 50.33 39.5902 51.38ZM50.2402 41.82C49.4402 43 48.7202 44.11 47.9502 45.18C47.1802 46.25 46.3902 47.12 45.6702 48.18C44.9502 49.24 44.3202 50.18 43.5802 51.35C43.9132 51.3295 44.2472 51.3295 44.5802 51.35C44.9289 51.414 45.2891 51.3603 45.604 51.1974C45.919 51.0345 46.1709 50.7716 46.3202 50.45C47.6002 48.59 48.7502 46.64 50.0102 44.77C50.1319 44.6052 50.211 44.4128 50.2402 44.21C50.2502 43.39 50.2402 42.62 50.2402 41.82ZM46.5402 41.15C45.8002 41.15 45.2302 41.15 44.6602 41.15C44.5002 41.15 44.3302 41.33 44.2102 41.47C42.8302 43.09 41.4402 44.72 40.1102 46.38C39.7895 46.7772 39.573 47.248 39.4802 47.75C39.4257 48.4155 39.4257 49.0844 39.4802 49.75L46.5402 41.15ZM50.0002 51C49.6702 49.43 50.5102 48.05 50.1702 46.52L47.1702 51.23C48.1202 51.59 48.9402 50.85 50.0002 51ZM43.1302 41.4C42.4002 41.07 41.8802 41.08 41.4502 41.59C41.0607 42.1391 40.6294 42.6573 40.1602 43.14C39.3602 43.84 39.4102 44.66 39.5702 45.75C40.1702 44.91 40.6402 44.17 41.1902 43.51C41.7402 42.85 42.4002 42.12 43.1002 41.38L43.1302 41.4ZM39.5802 42.2L40.4502 41.29C39.5202 41.18 39.5202 41.18 39.5502 42.18L39.5802 42.2Z" fill="white"/>
<path d="M25.3899 66.0499C25.5799 66.2799 25.8199 66.4499 25.8099 66.6099C25.7999 66.7699 25.5799 66.9499 25.4399 67.1199C25.2528 66.9147 25.0791 66.6976 24.9199 66.4699C25.0636 66.316 25.2209 66.1754 25.3899 66.0499Z" fill="white"/>
<path d="M75.3701 44.61C75.5498 44.8678 75.7102 45.1385 75.8501 45.42C75.8688 45.5057 75.8694 45.5945 75.8519 45.6805C75.8343 45.7665 75.799 45.8479 75.7482 45.9194C75.6973 45.991 75.6321 46.0511 75.5567 46.096C75.4812 46.1409 75.3972 46.1695 75.3101 46.18C75.2001 46.18 74.9801 46.01 74.9901 45.94C75.0501 45.62 75.1601 45.3 75.3701 44.61Z" fill="white"/>
<path d="M22.5304 25.36C22.2804 25.63 22.1504 25.87 21.9804 25.92C21.6504 26.01 21.3404 25.87 21.4104 25.46C21.4441 25.3573 21.5015 25.264 21.5779 25.1876C21.6544 25.1112 21.7477 25.0538 21.8504 25.02C22.0004 25 22.2204 25.19 22.5304 25.36Z" fill="white"/>
<path d="M46.1804 15.31C45.9197 15.4989 45.6378 15.6567 45.3404 15.78C45.2204 15.78 45.0304 15.61 44.8804 15.51C45.0604 15.29 45.2104 14.99 45.4504 14.89C45.6904 14.79 45.8604 15.11 46.1804 15.31Z" fill="white"/>
<path d="M74.44 26.57C74.3129 26.5383 74.189 26.4948 74.07 26.44C73.9628 26.3676 73.8749 26.2701 73.8142 26.1559C73.7534 26.0417 73.7217 25.9143 73.7217 25.785C73.7217 25.6556 73.7534 25.5282 73.8142 25.414C73.8749 25.2998 73.9628 25.2023 74.07 25.13C74.1523 25.0674 74.2466 25.0222 74.347 24.9973C74.4473 24.9724 74.5517 24.9683 74.6538 24.9851C74.7558 25.002 74.8534 25.0395 74.9404 25.0953C75.0274 25.1512 75.1022 25.2242 75.16 25.31C75.47 25.65 75.22 25.87 75.01 26.09C74.8 26.31 74.59 26.43 74.44 26.57Z" fill="white"/>
<path d="M45.0001 75.0799C44.6801 75.2399 44.4901 75.4099 44.3701 75.3699C44.1035 75.2578 43.8516 75.1134 43.6201 74.9399C43.8001 74.7899 44.0101 74.4799 44.1601 74.4999C44.3101 74.5199 44.6501 74.7999 45.0001 75.0799Z" fill="white"/>
<path d="M65.0002 23.4099C64.6902 23.6799 64.5102 23.9699 64.3002 23.9999C64.2109 24.0161 64.1191 24.0126 64.0313 23.9894C63.9434 23.9663 63.8618 23.9241 63.7921 23.8659C63.7223 23.8077 63.6663 23.7349 63.6278 23.6527C63.5893 23.5704 63.5693 23.4807 63.5693 23.3899C63.5693 23.2991 63.5893 23.2094 63.6278 23.1271C63.6663 23.0449 63.7223 22.9721 63.7921 22.9139C63.8618 22.8557 63.9434 22.8135 64.0313 22.7904C64.1191 22.7672 64.2109 22.7637 64.3002 22.7799C64.5802 22.8299 64.7402 23.1199 65.0002 23.4099Z" fill="white"/>
<path d="M25.8802 14.9299C25.7003 15.1194 25.499 15.2872 25.2802 15.4299C25.2102 15.4299 25.0402 15.3299 24.9102 15.2599C25.0023 15.0414 25.1234 14.8362 25.2702 14.6499C25.2702 14.6499 25.5902 14.7899 25.8802 14.9299Z" fill="white"/>
<path d="M14.0803 65.19C13.8402 64.8842 13.6418 64.548 13.4903 64.19C13.4003 63.75 13.7703 63.72 14.1003 63.72C14.4303 63.72 14.8003 63.72 14.7003 64.19C14.5394 64.5496 14.3309 64.886 14.0803 65.19Z" fill="white"/>
<path d="M66.9099 64.4699C66.6099 64.6799 66.4599 64.8699 66.2699 64.9099C65.8599 64.9899 65.7399 64.7199 65.7599 64.3599C65.7543 64.2957 65.7655 64.2311 65.7925 64.1725C65.8196 64.1139 65.8614 64.0634 65.914 64.026C65.9665 63.9887 66.0279 63.9656 66.0921 63.9593C66.1563 63.953 66.221 63.9635 66.2799 63.9899C66.4699 64.0499 66.6199 64.2399 66.9099 64.4699Z" fill="white"/>
<path d="M65.0003 74.41C64.6203 74.7 64.4203 74.98 64.1703 75.02C63.9203 75.06 63.7803 74.75 63.5903 74.6C63.8178 74.41 64.0701 74.2518 64.3403 74.13C64.4803 74.09 64.6703 74.25 65.0003 74.41Z" fill="white"/>
<path d="M14.9303 44.39C14.5703 44.53 14.3603 44.69 14.2403 44.64C13.9868 44.4985 13.7488 44.3309 13.5303 44.14C13.7403 44 13.9703 43.71 14.1403 43.74C14.3103 43.77 14.5703 44.08 14.9303 44.39Z" fill="white"/>
</svg>
