<svg width="78" height="130" viewBox="0 0 78 130" fill="none" xmlns="http://www.w3.org/2000/svg">
<g clip-path="url(#clip0_9263_167506)">
<path d="M15.4299 57.392C11.8553 57.392 5.85506 59.9555 3.30176 61.2373C4.57841 67.0053 32.6647 66.8771 40.3246 66.3644C47.9844 65.8517 70.9641 65.7235 74.7941 61.2373C72.8791 60.3827 68.5385 58.6737 66.4959 58.6737C63.9425 58.6737 53.7294 57.392 49.2611 57.392C44.7928 57.392 34.5797 58.6737 31.388 58.6737C28.1964 58.6737 19.8982 57.392 15.4299 57.392Z" fill="#BBBBB9"/>
<path d="M2.83526 60.9294C2.19693 61.1411 0.792621 61.9452 0.281962 63.4688C-0.228698 64.9924 0.0691869 67.0661 0.281962 67.9126C0.281962 67.9126 14.3249 123.989 15.6016 125.047C23.0372 131.21 54.7636 131.21 62.1992 125.047C63.4759 123.989 77.5188 67.9126 77.5188 67.9126C77.7316 67.0661 78.0296 64.9924 77.5188 63.4688C77.0081 61.9452 75.6038 61.1411 74.9655 60.9294C63.7176 64.6583 50.4381 63.8336 38.9004 64.1115C27.3626 63.8336 14.0831 64.6583 2.83526 60.9294Z" fill="#E3E3E3"/>
<path d="M38.4092 32.3973C36.4943 33.7685 32.6643 37.8822 32.6643 43.367C32.6643 48.8517 37.771 57.9931 40.3242 61.8782" stroke="#DC9A43" stroke-linecap="round"/>
<path d="M53.1732 13.7885C53.5967 20.8547 41.7177 32.4996 38.4934 32.6945C35.2689 32.8893 28.1099 22.3947 27.6863 15.3285C27.2628 8.26221 32.6249 2.18912 39.6628 1.76385C46.7008 1.33859 52.7497 6.7222 53.1732 13.7885Z" fill="#95D1D4"/>
<path d="M57.4061 17.0701C56.3187 24.0644 42.2393 32.8975 39.0476 32.3973C35.856 31.8971 31.0913 20.111 32.1786 13.1166C33.2659 6.12227 39.7947 1.33723 46.7611 2.42894C53.7276 3.52065 58.4934 10.0757 57.4061 17.0701Z" fill="#B6E4E2"/>
<path d="M32.3484 45.7976C34.3302 44.0183 32.3862 38.5895 28.0064 33.6722C23.6266 28.7549 18.4695 26.211 16.4878 27.9904C14.506 29.7697 16.4499 35.1985 20.8297 40.1158C25.2095 45.0331 30.3666 47.577 32.3484 45.7976Z" fill="#F5951D"/>
<path d="M38.4092 32.3973C36.4943 33.7685 32.6643 37.8822 32.6643 43.367C32.6643 48.8517 37.771 57.9931 40.3242 61.8782" stroke="#DC9A43" stroke-linecap="round"/>
<path d="M53.1732 13.7885C53.5967 20.8547 41.7177 32.4996 38.4934 32.6945C35.2689 32.8893 28.1099 22.3947 27.6863 15.3285C27.2628 8.26221 32.6249 2.18912 39.6628 1.76385C46.7008 1.33859 52.7497 6.7222 53.1732 13.7885Z" fill="#95D1D4"/>
<path d="M57.4061 17.0701C56.3187 24.0644 42.2393 32.8975 39.0476 32.3973C35.856 31.8971 31.0913 20.111 32.1786 13.1166C33.2659 6.12227 39.7947 1.33723 46.7611 2.42894C53.7276 3.52065 58.4934 10.0757 57.4061 17.0701Z" fill="#B6E4E2"/>
<path d="M32.3484 45.7976C34.3302 44.0183 32.3862 38.5895 28.0064 33.6722C23.6266 28.7549 18.4695 26.211 16.4878 27.9904C14.506 29.7697 16.4499 35.1985 20.8297 40.1158C25.2095 45.0331 30.3666 47.577 32.3484 45.7976Z" fill="#F5951D"/>
</g>
<defs>
<clipPath id="clip0_9263_167506">
<rect width="78" height="130" fill="white"/>
</clipPath>
</defs>
</svg>
