<svg width="78" height="106" viewBox="0 0 78 106" fill="none" xmlns="http://www.w3.org/2000/svg">
<path d="M15.4299 33.392C11.8553 33.392 5.85506 35.9555 3.30176 37.2373C4.57841 43.0053 32.6647 42.8771 40.3246 42.3644C47.9844 41.8517 70.9641 41.7235 74.7941 37.2373C72.8791 36.3827 68.5385 34.6737 66.4959 34.6737C63.9425 34.6737 53.7294 33.392 49.2611 33.392C44.7928 33.392 34.5797 34.6737 31.388 34.6737C28.1964 34.6737 19.8982 33.392 15.4299 33.392Z" fill="#BBBBB9"/>
<path d="M2.83526 36.9294C2.19693 37.1411 0.792621 37.9452 0.281962 39.4688C-0.228698 40.9924 0.0691869 43.0661 0.281962 43.9126C0.281962 43.9126 14.3249 99.9895 15.6016 101.047C23.0372 107.21 54.7636 107.21 62.1992 101.047C63.4759 99.9895 77.5188 43.9126 77.5188 43.9126C77.7316 43.0661 78.0296 40.9924 77.5188 39.4688C77.0081 37.9452 75.6038 37.1411 74.9655 36.9294C63.7176 40.6583 50.4381 39.8336 38.9004 40.1115C27.3626 39.8336 14.0831 40.6583 2.83526 36.9294Z" fill="#E3E3E3"/>
<path d="M38.4092 8.39734C36.4943 9.76853 32.6643 13.8822 32.6643 19.367C32.6643 24.8517 37.771 33.9931 40.3242 37.8782" stroke="#DC9A43" stroke-linecap="round"/>
<path d="M32.3484 21.7976C34.3302 20.0183 32.3862 14.5895 28.0064 9.6722C23.6266 4.75486 18.4695 2.21101 16.4878 3.99036C14.506 5.76971 16.4499 11.1985 20.8297 16.1158C25.2095 21.0331 30.3666 23.577 32.3484 21.7976Z" fill="#F5951D"/>
</svg>
