<svg width="375" height="186" viewBox="0 0 375 186" fill="none" xmlns="http://www.w3.org/2000/svg">
<path d="M11.4272 183.158C13.7715 170.111 10.6941 160.052 24.3044 182.174C27.3419 187.112 30.6174 153.383 33.9721 158.274C37.3268 163.164 39.5653 139.831 49.4708 139.074C59.3763 138.317 61.7559 150.146 67.6508 155.7C73.5457 161.255 79.6826 136.766 87.607 136.16C95.5314 135.555 108.922 123.462 111.876 134.306C122.864 174.644 110.397 52.0644 145.602 149.744C150.02 162.003 169.091 157.386 174.332 147.549C185.632 126.34 195.079 144.195 210.417 136.16C225.755 128.125 226.06 127.764 241.493 134.306C250.098 137.953 256.848 106.539 268.735 105.631C284.584 104.42 286.635 68.4824 294.337 51.5945C302.039 34.7066 303.857 37.2824 318.269 30.1762C332.68 23.0701 329.006 13.9144 337.985 14.0862C346.964 14.258 350.589 29.4224 355.91 27.3001C360.166 25.6023 362.765 10.1911 363.532 2.69763" stroke="#189D39" stroke-width="4" stroke-linecap="round"/>
<path d="M246.491 139.089C253.521 139.089 259.186 133.336 259.186 126.283C259.186 119.23 253.521 113.477 246.491 113.477C239.46 113.477 233.796 119.23 233.796 126.283C233.796 133.336 239.46 139.089 246.491 139.089Z" fill="#FB9502" stroke="#FFFEFA" stroke-width="4"/>
<ellipse cx="246.491" cy="126.283" rx="6.11134" ry="6.17496" fill="#FFFEFA"/>
<g filter="url(#filter0_d_9262_166901)">
<rect x="70.9595" y="7.4151" width="183.001" height="60.3774" rx="8" fill="#FFFEFA"/>
<rect x="71.4595" y="7.9151" width="182.001" height="59.3774" rx="7.5" stroke="#CBCAC9"/>
</g>
<path d="M82.7728 26.3221C81.8728 26.3221 81.1628 26.1121 80.6528 25.6921C80.1328 25.2721 79.8528 24.6721 79.8128 23.8721H80.9928C81.0528 24.8521 81.6528 25.3321 82.7828 25.3321C83.2828 25.3321 83.6728 25.2421 83.9428 25.0521C84.2028 24.8621 84.3428 24.5921 84.3428 24.2421C84.3428 23.9621 84.2328 23.7321 84.0328 23.5721C83.8328 23.4121 83.5028 23.2721 83.0528 23.1721L81.8928 22.9021C80.6428 22.6221 80.0228 21.9821 80.0228 20.9821C80.0228 20.3721 80.2428 19.8621 80.6928 19.4621C81.1428 19.0621 81.7828 18.8521 82.6128 18.8521C83.4328 18.8521 84.0828 19.0521 84.5828 19.4521C85.0728 19.8521 85.3428 20.4021 85.4028 21.1021H84.2328C84.1828 20.7021 84.0128 20.3921 83.7328 20.1721C83.4528 19.9521 83.0728 19.8421 82.6028 19.8421C82.1628 19.8421 81.8228 19.9421 81.5828 20.1221C81.3328 20.3021 81.2128 20.5521 81.2128 20.8621C81.2128 21.3321 81.5528 21.6421 82.2428 21.7921L83.5828 22.1021C84.9028 22.4121 85.5728 23.0921 85.5728 24.1421C85.5728 24.8021 85.3328 25.3221 84.8528 25.7221C84.3728 26.1221 83.6728 26.3221 82.7728 26.3221ZM89.4532 20.8421C89.9932 20.8421 90.4132 21.0021 90.7132 21.3121C91.0132 21.6321 91.1732 22.0621 91.1732 22.6121V26.1321H90.0032V22.8621C90.0032 22.2121 89.7032 21.8821 89.1132 21.8821C88.7532 21.8821 88.4632 22.0121 88.2332 22.2521C87.9932 22.4921 87.8832 22.8521 87.8832 23.3221V26.1321H86.7132V19.0121H87.8832V21.6421C88.2432 21.1121 88.7632 20.8421 89.4532 20.8421ZM97.0126 26.1321H95.8326C95.7926 26.0021 95.7526 25.8021 95.7026 25.5321C95.3126 26.0321 94.7526 26.2721 94.0126 26.2721C93.4726 26.2721 93.0426 26.1421 92.7226 25.8621C92.4026 25.5821 92.2526 25.2121 92.2526 24.7321C92.2526 23.8721 92.8026 23.3421 93.9126 23.1521L95.5226 22.8821C95.5826 22.8721 95.6326 22.8621 95.6626 22.8421V22.3921C95.6626 21.9421 95.3226 21.7121 94.6426 21.7121C94.3126 21.7121 94.0626 21.7821 93.9026 21.9021C93.7326 22.0221 93.6326 22.2321 93.6026 22.5121L92.5026 22.5021C92.6026 21.4021 93.3226 20.8421 94.6726 20.8421C96.0926 20.8421 96.8026 21.4421 96.8026 22.6221V24.9421C96.8026 25.3221 96.8726 25.7221 97.0126 26.1321ZM94.3026 25.3921C94.6826 25.3921 95.0026 25.2821 95.2626 25.0621C95.5226 24.8421 95.6626 24.5521 95.6626 24.2021V23.6621L94.2326 23.9121C93.6726 24.0121 93.4026 24.2721 93.4026 24.6721C93.4026 24.9021 93.4826 25.0821 93.6426 25.2021C93.8026 25.3321 94.0226 25.3921 94.3026 25.3921ZM100.718 20.8121C100.828 20.8121 100.938 20.8221 101.048 20.8421V21.9521C100.898 21.9421 100.798 21.9321 100.738 21.9321C100.328 21.9321 99.9978 22.0721 99.7478 22.3321C99.4878 22.5921 99.3578 22.9721 99.3578 23.4721V26.1321H98.1878V20.9721H99.3078L99.2878 21.9121C99.5578 21.1821 100.038 20.8121 100.718 20.8121ZM106.628 23.5821V23.8721H102.818C102.838 24.3521 102.978 24.7121 103.218 24.9721C103.458 25.2321 103.788 25.3521 104.208 25.3521C104.798 25.3521 105.198 25.0721 105.408 24.5121L106.528 24.6121C106.368 25.1521 106.078 25.5721 105.678 25.8521C105.278 26.1421 104.788 26.2821 104.208 26.2821C103.408 26.2821 102.778 26.0321 102.318 25.5121C101.858 25.0021 101.628 24.3421 101.628 23.5321C101.628 22.7521 101.848 22.1021 102.298 21.6021C102.738 21.1021 103.348 20.8421 104.118 20.8421C104.868 20.8421 105.478 21.0921 105.938 21.5821C106.398 22.0721 106.628 22.7421 106.628 23.5821ZM104.148 21.7421C103.768 21.7421 103.468 21.8621 103.228 22.0921C102.988 22.3221 102.858 22.6421 102.828 23.0621H105.458C105.408 22.6421 105.268 22.3121 105.048 22.0821C104.818 21.8621 104.518 21.7421 104.148 21.7421ZM109.689 26.2921C109.009 26.2921 108.479 26.1521 108.099 25.8521C107.719 25.5521 107.499 25.1221 107.439 24.5521L108.529 24.5221C108.609 25.1321 109.009 25.4321 109.729 25.4321C110.069 25.4321 110.329 25.3721 110.519 25.2521C110.709 25.1321 110.809 24.9621 110.809 24.7421C110.809 24.4221 110.559 24.2121 110.069 24.1121L109.039 23.9021C108.059 23.7021 107.569 23.2121 107.569 22.4421C107.569 21.9621 107.739 21.5721 108.099 21.2821C108.459 20.9921 108.949 20.8421 109.579 20.8421C110.189 20.8421 110.689 20.9921 111.069 21.2721C111.449 21.5521 111.679 21.9621 111.749 22.4821L110.659 22.5121C110.559 21.9721 110.199 21.7021 109.559 21.7021C109.269 21.7021 109.049 21.7621 108.889 21.8621C108.729 21.9721 108.649 22.1221 108.649 22.3221C108.649 22.6221 108.879 22.8221 109.339 22.9221L110.399 23.1421C110.919 23.2621 111.299 23.4321 111.539 23.6721C111.779 23.9121 111.909 24.2321 111.909 24.6121C111.909 25.1421 111.709 25.5521 111.309 25.8521C110.909 26.1521 110.369 26.2921 109.689 26.2921ZM120.001 26.1321H118.821C118.781 26.0021 118.741 25.8021 118.691 25.5321C118.301 26.0321 117.741 26.2721 117.001 26.2721C116.461 26.2721 116.031 26.1421 115.711 25.8621C115.391 25.5821 115.241 25.2121 115.241 24.7321C115.241 23.8721 115.791 23.3421 116.901 23.1521L118.511 22.8821C118.571 22.8721 118.621 22.8621 118.651 22.8421V22.3921C118.651 21.9421 118.311 21.7121 117.631 21.7121C117.301 21.7121 117.051 21.7821 116.891 21.9021C116.721 22.0221 116.621 22.2321 116.591 22.5121L115.491 22.5021C115.591 21.4021 116.311 20.8421 117.661 20.8421C119.081 20.8421 119.791 21.4421 119.791 22.6221V24.9421C119.791 25.3221 119.861 25.7221 120.001 26.1321ZM117.291 25.3921C117.671 25.3921 117.991 25.2821 118.251 25.0621C118.511 24.8421 118.651 24.5521 118.651 24.2021V23.6621L117.221 23.9121C116.661 24.0121 116.391 24.2721 116.391 24.6721C116.391 24.9021 116.471 25.0821 116.631 25.2021C116.791 25.3321 117.011 25.3921 117.291 25.3921ZM123.706 20.8121C123.816 20.8121 123.926 20.8221 124.036 20.8421V21.9521C123.886 21.9421 123.786 21.9321 123.726 21.9321C123.316 21.9321 122.986 22.0721 122.736 22.3321C122.476 22.5921 122.346 22.9721 122.346 23.4721V26.1321H121.176V20.9721H122.296L122.276 21.9121C122.546 21.1821 123.026 20.8121 123.706 20.8121ZM129.617 23.5821V23.8721H125.807C125.827 24.3521 125.967 24.7121 126.207 24.9721C126.447 25.2321 126.777 25.3521 127.197 25.3521C127.787 25.3521 128.187 25.0721 128.397 24.5121L129.517 24.6121C129.357 25.1521 129.067 25.5721 128.667 25.8521C128.267 26.1421 127.777 26.2821 127.197 26.2821C126.397 26.2821 125.767 26.0321 125.307 25.5121C124.847 25.0021 124.617 24.3421 124.617 23.5321C124.617 22.7521 124.837 22.1021 125.287 21.6021C125.727 21.1021 126.337 20.8421 127.107 20.8421C127.857 20.8421 128.467 21.0921 128.927 21.5821C129.387 22.0721 129.617 22.7421 129.617 23.5821ZM127.137 21.7421C126.757 21.7421 126.457 21.8621 126.217 22.0921C125.977 22.3221 125.847 22.6421 125.817 23.0621H128.447C128.397 22.6421 128.257 22.3121 128.037 22.0821C127.807 21.8621 127.507 21.7421 127.137 21.7421ZM134.795 21.8121V24.6821C134.795 24.8721 134.825 25.0021 134.905 25.0721C134.975 25.1521 135.105 25.1821 135.285 25.1821H135.855V26.1321H134.925C134.465 26.1321 134.125 26.0321 133.925 25.8321C133.725 25.6321 133.625 25.2921 133.625 24.8321V21.8221L132.885 21.8521V20.9721L133.625 21.0021V19.3821H134.795V21.0021L135.855 20.9721V21.8521L134.795 21.8121ZM139.331 20.8121C139.441 20.8121 139.551 20.8221 139.661 20.8421V21.9521C139.511 21.9421 139.411 21.9321 139.351 21.9321C138.941 21.9321 138.611 22.0721 138.361 22.3321C138.101 22.5921 137.971 22.9721 137.971 23.4721V26.1321H136.801V20.9721H137.921L137.901 21.9121C138.171 21.1821 138.651 20.8121 139.331 20.8121ZM144.972 26.1321H143.792C143.752 26.0021 143.712 25.8021 143.662 25.5321C143.272 26.0321 142.712 26.2721 141.972 26.2721C141.432 26.2721 141.002 26.1421 140.682 25.8621C140.362 25.5821 140.212 25.2121 140.212 24.7321C140.212 23.8721 140.762 23.3421 141.872 23.1521L143.482 22.8821C143.542 22.8721 143.592 22.8621 143.622 22.8421V22.3921C143.622 21.9421 143.282 21.7121 142.602 21.7121C142.272 21.7121 142.022 21.7821 141.862 21.9021C141.692 22.0221 141.592 22.2321 141.562 22.5121L140.462 22.5021C140.562 21.4021 141.282 20.8421 142.632 20.8421C144.052 20.8421 144.762 21.4421 144.762 22.6221V24.9421C144.762 25.3221 144.832 25.7221 144.972 26.1321ZM142.262 25.3921C142.642 25.3921 142.962 25.2821 143.222 25.0621C143.482 24.8421 143.622 24.5521 143.622 24.2021V23.6621L142.192 23.9121C141.632 24.0121 141.362 24.2721 141.362 24.6721C141.362 24.9021 141.442 25.0821 141.602 25.2021C141.762 25.3321 141.982 25.3921 142.262 25.3921ZM149.557 19.0121H150.727V26.1321H149.697L149.677 25.4021C149.317 25.9821 148.787 26.2721 148.097 26.2721C147.417 26.2721 146.877 26.0221 146.467 25.5021C146.057 24.9921 145.857 24.3221 145.857 23.5021C145.857 22.7021 146.057 22.0621 146.467 21.5821C146.867 21.1021 147.387 20.8521 148.027 20.8521C148.687 20.8521 149.197 21.0821 149.557 21.5421V19.0121ZM148.297 25.2521C148.677 25.2521 148.997 25.1021 149.247 24.7821C149.487 24.4621 149.617 24.0421 149.617 23.5121C149.617 22.9921 149.487 22.5821 149.247 22.2821C149.007 21.9821 148.687 21.8321 148.297 21.8321C147.897 21.8321 147.587 21.9821 147.357 22.2721C147.117 22.5721 147.007 22.9821 147.007 23.5021C147.007 24.0421 147.117 24.4621 147.357 24.7821C147.587 25.1021 147.897 25.2521 148.297 25.2521ZM152.123 20.1521V19.0121H153.293V20.1521H152.123ZM152.123 26.1321V20.9721H153.293V26.1321H152.123ZM157.432 20.8421C157.972 20.8421 158.392 21.0021 158.692 21.3121C158.992 21.6321 159.152 22.0621 159.152 22.6121V26.1321H157.982V22.8621C157.982 22.2121 157.682 21.8821 157.092 21.8821C156.732 21.8821 156.442 22.0121 156.212 22.2521C155.972 22.4921 155.862 22.8521 155.862 23.3221V26.1321H154.692V20.9721H155.812L155.832 21.6921C156.192 21.1321 156.722 20.8421 157.432 20.8421ZM164.101 20.9721H165.161V26.0821C165.161 26.8221 164.941 27.3721 164.511 27.7421C164.081 28.1121 163.481 28.2921 162.721 28.2921C162.041 28.2921 161.511 28.1621 161.121 27.8821C160.721 27.6021 160.501 27.2021 160.441 26.6621H161.541C161.641 27.1621 162.031 27.4021 162.711 27.4021C163.171 27.4021 163.501 27.3021 163.701 27.1021C163.901 26.9021 164.001 26.5721 164.001 26.1321V25.4521C163.641 25.9421 163.131 26.1821 162.491 26.1821C161.821 26.1821 161.281 25.9321 160.871 25.4321C160.461 24.9321 160.261 24.2721 160.261 23.4621C160.261 22.6721 160.461 22.0421 160.881 21.5621C161.291 21.0921 161.821 20.8521 162.481 20.8521C163.201 20.8521 163.741 21.1421 164.081 21.7021L164.101 20.9721ZM162.701 25.1821C163.081 25.1821 163.401 25.0321 163.651 24.7221C163.891 24.4121 164.021 23.9921 164.021 23.4721C164.021 22.9521 163.891 22.5521 163.651 22.2521C163.411 21.9621 163.091 21.8121 162.701 21.8121C162.301 21.8121 161.991 21.9621 161.761 22.2521C161.521 22.5521 161.411 22.9521 161.411 23.4621C161.411 23.9921 161.521 24.4121 161.761 24.7221C161.991 25.0321 162.301 25.1821 162.701 25.1821ZM171.885 20.8421C172.425 20.8421 172.845 21.0021 173.145 21.3121C173.445 21.6321 173.605 22.0621 173.605 22.6121V26.1321H172.435V22.8621C172.435 22.2121 172.135 21.8821 171.545 21.8821C171.185 21.8821 170.895 22.0121 170.665 22.2521C170.425 22.4921 170.315 22.8521 170.315 23.3221V26.1321H169.145V19.0121H170.315V21.6421C170.675 21.1121 171.195 20.8421 171.885 20.8421ZM175.004 20.1521V19.0121H176.174V20.1521H175.004ZM175.004 26.1321V20.9721H176.174V26.1321H175.004ZM181.123 20.9721H182.183V26.0821C182.183 26.8221 181.963 27.3721 181.533 27.7421C181.103 28.1121 180.503 28.2921 179.743 28.2921C179.063 28.2921 178.533 28.1621 178.143 27.8821C177.743 27.6021 177.523 27.2021 177.463 26.6621H178.563C178.663 27.1621 179.053 27.4021 179.733 27.4021C180.193 27.4021 180.523 27.3021 180.723 27.1021C180.923 26.9021 181.023 26.5721 181.023 26.1321V25.4521C180.663 25.9421 180.153 26.1821 179.513 26.1821C178.843 26.1821 178.303 25.9321 177.893 25.4321C177.483 24.9321 177.283 24.2721 177.283 23.4621C177.283 22.6721 177.483 22.0421 177.903 21.5621C178.313 21.0921 178.843 20.8521 179.503 20.8521C180.223 20.8521 180.763 21.1421 181.103 21.7021L181.123 20.9721ZM179.723 25.1821C180.103 25.1821 180.423 25.0321 180.673 24.7221C180.913 24.4121 181.043 23.9921 181.043 23.4721C181.043 22.9521 180.913 22.5521 180.673 22.2521C180.433 21.9621 180.113 21.8121 179.723 21.8121C179.323 21.8121 179.013 21.9621 178.783 22.2521C178.543 22.5521 178.433 22.9521 178.433 23.4621C178.433 23.9921 178.543 24.4121 178.783 24.7221C179.013 25.0321 179.323 25.1821 179.723 25.1821ZM186.309 20.8421C186.849 20.8421 187.269 21.0021 187.569 21.3121C187.869 21.6321 188.029 22.0621 188.029 22.6121V26.1321H186.859V22.8621C186.859 22.2121 186.559 21.8821 185.969 21.8821C185.609 21.8821 185.319 22.0121 185.089 22.2521C184.849 22.4921 184.739 22.8521 184.739 23.3221V26.1321H183.569V19.0121H184.739V21.6421C185.099 21.1121 185.619 20.8421 186.309 20.8421ZM194.138 23.5821V23.8721H190.328C190.348 24.3521 190.488 24.7121 190.728 24.9721C190.968 25.2321 191.298 25.3521 191.718 25.3521C192.308 25.3521 192.708 25.0721 192.918 24.5121L194.038 24.6121C193.878 25.1521 193.588 25.5721 193.188 25.8521C192.788 26.1421 192.298 26.2821 191.718 26.2821C190.918 26.2821 190.288 26.0321 189.828 25.5121C189.368 25.0021 189.138 24.3421 189.138 23.5321C189.138 22.7521 189.358 22.1021 189.808 21.6021C190.248 21.1021 190.858 20.8421 191.628 20.8421C192.378 20.8421 192.988 21.0921 193.448 21.5821C193.908 22.0721 194.138 22.7421 194.138 23.5821ZM191.658 21.7421C191.278 21.7421 190.978 21.8621 190.738 22.0921C190.498 22.3221 190.368 22.6421 190.338 23.0621H192.968C192.918 22.6421 192.778 22.3121 192.558 22.0821C192.328 21.8621 192.028 21.7421 191.658 21.7421ZM197.769 20.8121C197.879 20.8121 197.989 20.8221 198.099 20.8421V21.9521C197.949 21.9421 197.849 21.9321 197.789 21.9321C197.379 21.9321 197.049 22.0721 196.799 22.3321C196.539 22.5921 196.409 22.9721 196.409 23.4721V26.1321H195.239V20.9721H196.359L196.339 21.9121C196.609 21.1821 197.089 20.8121 197.769 20.8121ZM206.007 26.1321H204.827C204.787 26.0021 204.747 25.8021 204.697 25.5321C204.307 26.0321 203.747 26.2721 203.007 26.2721C202.467 26.2721 202.037 26.1421 201.717 25.8621C201.397 25.5821 201.247 25.2121 201.247 24.7321C201.247 23.8721 201.797 23.3421 202.907 23.1521L204.517 22.8821C204.577 22.8721 204.627 22.8621 204.657 22.8421V22.3921C204.657 21.9421 204.317 21.7121 203.637 21.7121C203.307 21.7121 203.057 21.7821 202.897 21.9021C202.727 22.0221 202.627 22.2321 202.597 22.5121L201.497 22.5021C201.597 21.4021 202.317 20.8421 203.667 20.8421C205.087 20.8421 205.797 21.4421 205.797 22.6221V24.9421C205.797 25.3221 205.867 25.7221 206.007 26.1321ZM203.297 25.3921C203.677 25.3921 203.997 25.2821 204.257 25.0621C204.517 24.8421 204.657 24.5521 204.657 24.2021V23.6621L203.227 23.9121C202.667 24.0121 202.397 24.2721 202.397 24.6721C202.397 24.9021 202.477 25.0821 202.637 25.2021C202.797 25.3321 203.017 25.3921 203.297 25.3921ZM209.322 19.9621C209.092 19.9621 208.932 20.0121 208.842 20.1121C208.742 20.2121 208.702 20.3621 208.702 20.5821V21.0021L209.772 20.9721V21.8521L208.702 21.8121V26.1321H207.532V21.8221L206.752 21.8521V20.9721L207.532 21.0021V20.6121C207.532 19.5521 208.062 19.0121 209.132 19.0121H209.772V19.9621H209.322ZM212.129 21.8121V24.6821C212.129 24.8721 212.159 25.0021 212.239 25.0721C212.309 25.1521 212.439 25.1821 212.619 25.1821H213.189V26.1321H212.259C211.799 26.1321 211.459 26.0321 211.259 25.8321C211.059 25.6321 210.959 25.2921 210.959 24.8321V21.8221L210.219 21.8521V20.9721L210.959 21.0021V19.3821H212.129V21.0021L213.189 20.9721V21.8521L212.129 21.8121ZM218.845 23.5821V23.8721H215.035C215.055 24.3521 215.195 24.7121 215.435 24.9721C215.675 25.2321 216.005 25.3521 216.425 25.3521C217.015 25.3521 217.415 25.0721 217.625 24.5121L218.745 24.6121C218.585 25.1521 218.295 25.5721 217.895 25.8521C217.495 26.1421 217.005 26.2821 216.425 26.2821C215.625 26.2821 214.995 26.0321 214.535 25.5121C214.075 25.0021 213.845 24.3421 213.845 23.5321C213.845 22.7521 214.065 22.1021 214.515 21.6021C214.955 21.1021 215.565 20.8421 216.335 20.8421C217.085 20.8421 217.695 21.0921 218.155 21.5821C218.615 22.0721 218.845 22.7421 218.845 23.5821ZM216.365 21.7421C215.985 21.7421 215.685 21.8621 215.445 22.0921C215.205 22.3221 215.075 22.6421 215.045 23.0621H217.675C217.625 22.6421 217.485 22.3121 217.265 22.0821C217.035 21.8621 216.735 21.7421 216.365 21.7421ZM222.476 20.8121C222.586 20.8121 222.696 20.8221 222.806 20.8421V21.9521C222.656 21.9421 222.556 21.9321 222.496 21.9321C222.086 21.9321 221.756 22.0721 221.506 22.3321C221.246 22.5921 221.116 22.9721 221.116 23.4721V26.1321H219.946V20.9721H221.066L221.046 21.9121C221.316 21.1821 221.796 20.8121 222.476 20.8121ZM227.754 21.8121V24.6821C227.754 24.8721 227.784 25.0021 227.864 25.0721C227.934 25.1521 228.064 25.1821 228.244 25.1821H228.814V26.1321H227.884C227.424 26.1321 227.084 26.0321 226.884 25.8321C226.684 25.6321 226.584 25.2921 226.584 24.8321V21.8221L225.844 21.8521V20.9721L226.584 21.0021V19.3821H227.754V21.0021L228.814 20.9721V21.8521L227.754 21.8121ZM232.5 20.8421C233.04 20.8421 233.46 21.0021 233.76 21.3121C234.06 21.6321 234.22 22.0621 234.22 22.6121V26.1321H233.05V22.8621C233.05 22.2121 232.75 21.8821 232.16 21.8821C231.8 21.8821 231.51 22.0121 231.28 22.2521C231.04 22.4921 230.93 22.8521 230.93 23.3221V26.1321H229.76V19.0121H230.93V21.6421C231.29 21.1121 231.81 20.8421 232.5 20.8421ZM240.329 23.5821V23.8721H236.519C236.539 24.3521 236.679 24.7121 236.919 24.9721C237.159 25.2321 237.489 25.3521 237.909 25.3521C238.499 25.3521 238.899 25.0721 239.109 24.5121L240.229 24.6121C240.069 25.1521 239.779 25.5721 239.379 25.8521C238.979 26.1421 238.489 26.2821 237.909 26.2821C237.109 26.2821 236.479 26.0321 236.019 25.5121C235.559 25.0021 235.329 24.3421 235.329 23.5321C235.329 22.7521 235.549 22.1021 235.999 21.6021C236.439 21.1021 237.049 20.8421 237.819 20.8421C238.569 20.8421 239.179 21.0921 239.639 21.5821C240.099 22.0721 240.329 22.7421 240.329 23.5821ZM237.849 21.7421C237.469 21.7421 237.169 21.8621 236.929 22.0921C236.689 22.3221 236.559 22.6421 236.529 23.0621H239.159C239.109 22.6421 238.969 22.3121 238.749 22.0821C238.519 21.8621 238.219 21.7421 237.849 21.7421ZM82.2128 41.2821C81.4528 41.2821 80.8628 41.0521 80.4228 40.5721C79.9828 40.0921 79.7728 39.4321 79.7728 38.5821C79.7728 37.7421 79.9928 37.0721 80.4328 36.5821C80.8728 36.0921 81.4728 35.8421 82.2328 35.8421C82.8628 35.8421 83.3828 36.0121 83.7828 36.3321C84.1828 36.6621 84.4228 37.1221 84.5228 37.7221H83.3928C83.2428 37.1021 82.8628 36.7821 82.2528 36.7821C81.8128 36.7821 81.4828 36.9421 81.2628 37.2421C81.0328 37.5521 80.9228 37.9921 80.9228 38.5621C80.9228 39.1321 81.0328 39.5721 81.2628 39.8821C81.4928 40.1921 81.8228 40.3421 82.2428 40.3421C82.8628 40.3421 83.2428 40.0121 83.3928 39.3421H84.5228C84.4228 39.9621 84.1728 40.4321 83.7728 40.7721C83.3728 41.1121 82.8528 41.2821 82.2128 41.2821ZM87.8504 41.2821C87.0904 41.2821 86.4804 41.0321 86.0004 40.5221C85.5204 40.0221 85.2904 39.3621 85.2904 38.5621C85.2904 37.7621 85.5304 37.1021 86.0104 36.6021C86.4904 36.1021 87.1104 35.8421 87.8704 35.8421C88.6204 35.8421 89.2304 36.0921 89.7104 36.5921C90.1804 37.0921 90.4204 37.7421 90.4204 38.5421C90.4204 39.3421 90.1804 40.0021 89.7004 40.5121C89.2204 41.0321 88.6004 41.2821 87.8504 41.2821ZM87.8504 40.3421C88.2904 40.3421 88.6404 40.1821 88.9004 39.8521C89.1504 39.5321 89.2804 39.0921 89.2804 38.5421C89.2804 38.0021 89.1504 37.5721 88.9004 37.2521C88.6404 36.9421 88.2904 36.7821 87.8504 36.7821C87.4104 36.7821 87.0604 36.9421 86.8104 37.2621C86.5604 37.5821 86.4404 38.0221 86.4404 38.5621C86.4404 39.1021 86.5604 39.5421 86.8204 39.8621C87.0704 40.1821 87.4104 40.3421 87.8504 40.3421ZM97.1579 35.8421C97.6779 35.8421 98.0779 36.0021 98.3579 36.3121C98.6379 36.6321 98.7779 37.0721 98.7779 37.6421V41.1321H97.6079V37.7821C97.6079 37.5121 97.5379 37.2921 97.3979 37.1321C97.2579 36.9721 97.0679 36.8821 96.8179 36.8821C96.4979 36.8821 96.2379 37.0121 96.0379 37.2521C95.8279 37.4921 95.7279 37.8621 95.7279 38.3521V41.1321H94.5579V37.7821C94.5579 37.5121 94.4879 37.2921 94.3479 37.1321C94.2079 36.9721 94.0179 36.8821 93.7679 36.8821C93.4579 36.8821 93.1979 37.0121 92.9979 37.2621C92.7879 37.5121 92.6879 37.8821 92.6879 38.3721V41.1321H91.5179V35.9721H92.6479L92.6379 36.6921C92.9679 36.1321 93.4679 35.8421 94.1279 35.8421C94.8479 35.8421 95.3379 36.1521 95.5779 36.7621C95.8979 36.1521 96.4279 35.8421 97.1579 35.8421ZM102.87 35.8521C103.5 35.8521 104.02 36.0921 104.43 36.5721C104.83 37.0521 105.04 37.6821 105.04 38.4821C105.04 39.3021 104.83 39.9721 104.42 40.4921C104.01 41.0121 103.47 41.2721 102.8 41.2721C102.18 41.2721 101.69 41.0421 101.34 40.5821V43.1721H100.17V35.9721H101.2L101.22 36.7121C101.57 36.1421 102.12 35.8521 102.87 35.8521ZM102.6 40.2521C102.98 40.2521 103.29 40.0921 103.53 39.7721C103.77 39.4521 103.89 39.0221 103.89 38.4821C103.89 37.9621 103.77 37.5621 103.54 37.2721C103.3 36.9821 102.99 36.8321 102.6 36.8321C102.2 36.8321 101.88 36.9821 101.64 37.2821C101.4 37.5821 101.28 37.9921 101.28 38.5121C101.28 39.0421 101.4 39.4621 101.64 39.7821C101.88 40.1021 102.2 40.2521 102.6 40.2521ZM110.577 41.1321H109.397C109.357 41.0021 109.317 40.8021 109.267 40.5321C108.877 41.0321 108.317 41.2721 107.577 41.2721C107.037 41.2721 106.607 41.1421 106.287 40.8621C105.967 40.5821 105.817 40.2121 105.817 39.7321C105.817 38.8721 106.367 38.3421 107.477 38.1521L109.087 37.8821C109.147 37.8721 109.197 37.8621 109.227 37.8421V37.3921C109.227 36.9421 108.887 36.7121 108.207 36.7121C107.877 36.7121 107.627 36.7821 107.467 36.9021C107.297 37.0221 107.197 37.2321 107.167 37.5121L106.067 37.5021C106.167 36.4021 106.887 35.8421 108.237 35.8421C109.657 35.8421 110.367 36.4421 110.367 37.6221V39.9421C110.367 40.3221 110.437 40.7221 110.577 41.1321ZM107.867 40.3921C108.247 40.3921 108.567 40.2821 108.827 40.0621C109.087 39.8421 109.227 39.5521 109.227 39.2021V38.6621L107.797 38.9121C107.237 39.0121 106.967 39.2721 106.967 39.6721C106.967 39.9021 107.047 40.0821 107.207 40.2021C107.367 40.3321 107.587 40.3921 107.867 40.3921ZM114.492 35.8421C115.032 35.8421 115.452 36.0021 115.752 36.3121C116.052 36.6321 116.212 37.0621 116.212 37.6121V41.1321H115.042V37.8621C115.042 37.2121 114.742 36.8821 114.152 36.8821C113.792 36.8821 113.502 37.0121 113.272 37.2521C113.032 37.4921 112.922 37.8521 112.922 38.3221V41.1321H111.752V35.9721H112.872L112.892 36.6921C113.252 36.1321 113.782 35.8421 114.492 35.8421ZM120.962 35.9721H122.192L119.962 42.0921C119.812 42.5121 119.632 42.7921 119.412 42.9421C119.192 43.1021 118.902 43.1721 118.522 43.1721H117.632V42.1821H118.222C118.442 42.1821 118.602 42.1421 118.722 42.0621C118.832 41.9821 118.932 41.8421 119.012 41.6221L119.152 41.2421L117.112 35.9721H118.392L119.532 39.1921L119.672 39.8921L120.962 35.9721ZM130.128 41.1321H128.948C128.908 41.0021 128.868 40.8021 128.818 40.5321C128.428 41.0321 127.868 41.2721 127.128 41.2721C126.588 41.2721 126.158 41.1421 125.838 40.8621C125.518 40.5821 125.368 40.2121 125.368 39.7321C125.368 38.8721 125.918 38.3421 127.028 38.1521L128.638 37.8821C128.698 37.8721 128.748 37.8621 128.778 37.8421V37.3921C128.778 36.9421 128.438 36.7121 127.758 36.7121C127.428 36.7121 127.178 36.7821 127.018 36.9021C126.848 37.0221 126.748 37.2321 126.718 37.5121L125.618 37.5021C125.718 36.4021 126.438 35.8421 127.788 35.8421C129.208 35.8421 129.918 36.4421 129.918 37.6221V39.9421C129.918 40.3221 129.988 40.7221 130.128 41.1321ZM127.418 40.3921C127.798 40.3921 128.118 40.2821 128.378 40.0621C128.638 39.8421 128.778 39.5521 128.778 39.2021V38.6621L127.348 38.9121C126.788 39.0121 126.518 39.2721 126.518 39.6721C126.518 39.9021 126.598 40.0821 126.758 40.2021C126.918 40.3321 127.138 40.3921 127.418 40.3921ZM134.043 35.8421C134.583 35.8421 135.003 36.0021 135.303 36.3121C135.603 36.6321 135.763 37.0621 135.763 37.6121V41.1321H134.593V37.8621C134.593 37.2121 134.293 36.8821 133.703 36.8821C133.343 36.8821 133.053 37.0121 132.823 37.2521C132.583 37.4921 132.473 37.8521 132.473 38.3221V41.1321H131.303V35.9721H132.423L132.443 36.6921C132.803 36.1321 133.333 35.8421 134.043 35.8421ZM139.902 35.8421C140.442 35.8421 140.862 36.0021 141.162 36.3121C141.462 36.6321 141.622 37.0621 141.622 37.6121V41.1321H140.452V37.8621C140.452 37.2121 140.152 36.8821 139.562 36.8821C139.202 36.8821 138.912 37.0121 138.682 37.2521C138.442 37.4921 138.332 37.8521 138.332 38.3221V41.1321H137.162V35.9721H138.282L138.302 36.6921C138.662 36.1321 139.192 35.8421 139.902 35.8421ZM145.292 41.2821C144.532 41.2821 143.922 41.0321 143.442 40.5221C142.962 40.0221 142.732 39.3621 142.732 38.5621C142.732 37.7621 142.972 37.1021 143.452 36.6021C143.932 36.1021 144.552 35.8421 145.312 35.8421C146.062 35.8421 146.672 36.0921 147.152 36.5921C147.622 37.0921 147.862 37.7421 147.862 38.5421C147.862 39.3421 147.622 40.0021 147.142 40.5121C146.662 41.0321 146.042 41.2821 145.292 41.2821ZM145.292 40.3421C145.732 40.3421 146.082 40.1821 146.342 39.8521C146.592 39.5321 146.722 39.0921 146.722 38.5421C146.722 38.0021 146.592 37.5721 146.342 37.2521C146.082 36.9421 145.732 36.7821 145.292 36.7821C144.852 36.7821 144.502 36.9421 144.252 37.2621C144.002 37.5821 143.882 38.0221 143.882 38.5621C143.882 39.1021 144.002 39.5421 144.262 39.8621C144.512 40.1821 144.852 40.3421 145.292 40.3421ZM152.249 35.9721H153.419V41.1321H152.299L152.279 40.4121C151.919 40.9821 151.379 41.2621 150.679 41.2621C150.139 41.2621 149.709 41.1121 149.409 40.7921C149.109 40.4821 148.959 40.0521 148.959 39.4921V35.9721H150.129V39.2421C150.129 39.9021 150.419 40.2221 151.019 40.2221C151.369 40.2221 151.659 40.1021 151.899 39.8621C152.129 39.6221 152.249 39.2621 152.249 38.7821V35.9721ZM157.559 35.8421C158.099 35.8421 158.519 36.0021 158.819 36.3121C159.119 36.6321 159.279 37.0621 159.279 37.6121V41.1321H158.109V37.8621C158.109 37.2121 157.809 36.8821 157.219 36.8821C156.859 36.8821 156.569 37.0121 156.339 37.2521C156.099 37.4921 155.989 37.8521 155.989 38.3221V41.1321H154.819V35.9721H155.939L155.959 36.6921C156.319 36.1321 156.849 35.8421 157.559 35.8421ZM162.828 41.2821C162.068 41.2821 161.478 41.0521 161.038 40.5721C160.598 40.0921 160.388 39.4321 160.388 38.5821C160.388 37.7421 160.608 37.0721 161.048 36.5821C161.488 36.0921 162.088 35.8421 162.848 35.8421C163.478 35.8421 163.998 36.0121 164.398 36.3321C164.798 36.6621 165.038 37.1221 165.138 37.7221H164.008C163.858 37.1021 163.478 36.7821 162.868 36.7821C162.428 36.7821 162.098 36.9421 161.878 37.2421C161.648 37.5521 161.538 37.9921 161.538 38.5621C161.538 39.1321 161.648 39.5721 161.878 39.8821C162.108 40.1921 162.438 40.3421 162.858 40.3421C163.478 40.3421 163.858 40.0121 164.008 39.3421H165.138C165.038 39.9621 164.788 40.4321 164.388 40.7721C163.988 41.1121 163.468 41.2821 162.828 41.2821ZM170.906 38.5821V38.8721H167.096C167.116 39.3521 167.256 39.7121 167.496 39.9721C167.736 40.2321 168.066 40.3521 168.486 40.3521C169.076 40.3521 169.476 40.0721 169.686 39.5121L170.806 39.6121C170.646 40.1521 170.356 40.5721 169.956 40.8521C169.556 41.1421 169.066 41.2821 168.486 41.2821C167.686 41.2821 167.056 41.0321 166.596 40.5121C166.136 40.0021 165.906 39.3421 165.906 38.5321C165.906 37.7521 166.126 37.1021 166.576 36.6021C167.016 36.1021 167.626 35.8421 168.396 35.8421C169.146 35.8421 169.756 36.0921 170.216 36.5821C170.676 37.0721 170.906 37.7421 170.906 38.5821ZM168.426 36.7421C168.046 36.7421 167.746 36.8621 167.506 37.0921C167.266 37.3221 167.136 37.6421 167.106 38.0621H169.736C169.686 37.6421 169.546 37.3121 169.326 37.0821C169.096 36.8621 168.796 36.7421 168.426 36.7421ZM175.416 34.0121H176.586V41.1321H175.556L175.536 40.4021C175.176 40.9821 174.646 41.2721 173.956 41.2721C173.276 41.2721 172.736 41.0221 172.326 40.5021C171.916 39.9921 171.716 39.3221 171.716 38.5021C171.716 37.7021 171.916 37.0621 172.326 36.5821C172.726 36.1021 173.246 35.8521 173.886 35.8521C174.546 35.8521 175.056 36.0821 175.416 36.5421V34.0121ZM174.156 40.2521C174.536 40.2521 174.856 40.1021 175.106 39.7821C175.346 39.4621 175.476 39.0421 175.476 38.5121C175.476 37.9921 175.346 37.5821 175.106 37.2821C174.866 36.9821 174.546 36.8321 174.156 36.8321C173.756 36.8321 173.446 36.9821 173.216 37.2721C172.976 37.5721 172.866 37.9821 172.866 38.5021C172.866 39.0421 172.976 39.4621 173.216 39.7821C173.446 40.1021 173.756 40.2521 174.156 40.2521ZM183.28 35.8521C183.91 35.8521 184.43 36.0921 184.84 36.5721C185.24 37.0521 185.45 37.6821 185.45 38.4821C185.45 39.3021 185.24 39.9721 184.83 40.4921C184.42 41.0121 183.88 41.2721 183.21 41.2721C182.51 41.2721 181.99 40.9921 181.63 40.4121L181.61 41.1321H180.58V34.0121H181.75V36.5421C182.1 36.0821 182.61 35.8521 183.28 35.8521ZM183.01 40.2521C183.39 40.2521 183.7 40.0921 183.94 39.7721C184.18 39.4521 184.3 39.0221 184.3 38.4821C184.3 37.9621 184.18 37.5621 183.95 37.2721C183.71 36.9821 183.4 36.8321 183.01 36.8321C182.61 36.8321 182.29 36.9821 182.05 37.2821C181.81 37.5821 181.69 37.9921 181.69 38.5121C181.69 39.0421 181.81 39.4621 182.05 39.7821C182.29 40.1021 182.61 40.2521 183.01 40.2521ZM191.257 38.5821V38.8721H187.447C187.467 39.3521 187.607 39.7121 187.847 39.9721C188.087 40.2321 188.417 40.3521 188.837 40.3521C189.427 40.3521 189.827 40.0721 190.037 39.5121L191.157 39.6121C190.997 40.1521 190.707 40.5721 190.307 40.8521C189.907 41.1421 189.417 41.2821 188.837 41.2821C188.037 41.2821 187.407 41.0321 186.947 40.5121C186.487 40.0021 186.257 39.3421 186.257 38.5321C186.257 37.7521 186.477 37.1021 186.927 36.6021C187.367 36.1021 187.977 35.8421 188.747 35.8421C189.497 35.8421 190.107 36.0921 190.567 36.5821C191.027 37.0721 191.257 37.7421 191.257 38.5821ZM188.777 36.7421C188.397 36.7421 188.097 36.8621 187.857 37.0921C187.617 37.3221 187.487 37.6421 187.457 38.0621H190.087C190.037 37.6421 189.897 37.3121 189.677 37.0821C189.447 36.8621 189.147 36.7421 188.777 36.7421ZM193.838 36.8121V39.6821C193.838 39.8721 193.868 40.0021 193.948 40.0721C194.018 40.1521 194.148 40.1821 194.328 40.1821H194.898V41.1321H193.968C193.508 41.1321 193.168 41.0321 192.968 40.8321C192.768 40.6321 192.668 40.2921 192.668 39.8321V36.8221L191.928 36.8521V35.9721L192.668 36.0021V34.3821H193.838V36.0021L194.898 35.9721V36.8521L193.838 36.8121ZM197.324 36.8121V39.6821C197.324 39.8721 197.354 40.0021 197.434 40.0721C197.504 40.1521 197.634 40.1821 197.814 40.1821H198.384V41.1321H197.454C196.994 41.1321 196.654 41.0321 196.454 40.8321C196.254 40.6321 196.154 40.2921 196.154 39.8321V36.8221L195.414 36.8521V35.9721L196.154 36.0021V34.3821H197.324V36.0021L198.384 35.9721V36.8521L197.324 36.8121ZM204.04 38.5821V38.8721H200.23C200.25 39.3521 200.39 39.7121 200.63 39.9721C200.87 40.2321 201.2 40.3521 201.62 40.3521C202.21 40.3521 202.61 40.0721 202.82 39.5121L203.94 39.6121C203.78 40.1521 203.49 40.5721 203.09 40.8521C202.69 41.1421 202.2 41.2821 201.62 41.2821C200.82 41.2821 200.19 41.0321 199.73 40.5121C199.27 40.0021 199.04 39.3421 199.04 38.5321C199.04 37.7521 199.26 37.1021 199.71 36.6021C200.15 36.1021 200.76 35.8421 201.53 35.8421C202.28 35.8421 202.89 36.0921 203.35 36.5821C203.81 37.0721 204.04 37.7421 204.04 38.5821ZM201.56 36.7421C201.18 36.7421 200.88 36.8621 200.64 37.0921C200.4 37.3221 200.27 37.6421 200.24 38.0621H202.87C202.82 37.6421 202.68 37.3121 202.46 37.0821C202.23 36.8621 201.93 36.7421 201.56 36.7421ZM207.671 35.8121C207.781 35.8121 207.891 35.8221 208.001 35.8421V36.9521C207.851 36.9421 207.751 36.9321 207.691 36.9321C207.281 36.9321 206.951 37.0721 206.701 37.3321C206.441 37.5921 206.311 37.9721 206.311 38.4721V41.1321H205.141V35.9721H206.261L206.241 36.9121C206.511 36.1821 206.991 35.8121 207.671 35.8121ZM212.949 36.8121V39.6821C212.949 39.8721 212.979 40.0021 213.059 40.0721C213.129 40.1521 213.259 40.1821 213.439 40.1821H214.009V41.1321H213.079C212.619 41.1321 212.279 41.0321 212.079 40.8321C211.879 40.6321 211.779 40.2921 211.779 39.8321V36.8221L211.039 36.8521V35.9721L211.779 36.0021V34.3821H212.949V36.0021L214.009 35.9721V36.8521L212.949 36.8121ZM217.695 35.8421C218.235 35.8421 218.655 36.0021 218.955 36.3121C219.255 36.6321 219.415 37.0621 219.415 37.6121V41.1321H218.245V37.8621C218.245 37.2121 217.945 36.8821 217.355 36.8821C216.995 36.8821 216.705 37.0121 216.475 37.2521C216.235 37.4921 216.125 37.8521 216.125 38.3221V41.1321H214.955V34.0121H216.125V36.6421C216.485 36.1121 217.005 35.8421 217.695 35.8421ZM225.255 41.1321H224.075C224.035 41.0021 223.995 40.8021 223.945 40.5321C223.555 41.0321 222.995 41.2721 222.255 41.2721C221.715 41.2721 221.285 41.1421 220.965 40.8621C220.645 40.5821 220.495 40.2121 220.495 39.7321C220.495 38.8721 221.045 38.3421 222.155 38.1521L223.765 37.8821C223.825 37.8721 223.875 37.8621 223.905 37.8421V37.3921C223.905 36.9421 223.565 36.7121 222.885 36.7121C222.555 36.7121 222.305 36.7821 222.145 36.9021C221.975 37.0221 221.875 37.2321 221.845 37.5121L220.745 37.5021C220.845 36.4021 221.565 35.8421 222.915 35.8421C224.335 35.8421 225.045 36.4421 225.045 37.6221V39.9421C225.045 40.3221 225.115 40.7221 225.255 41.1321ZM222.545 40.3921C222.925 40.3921 223.245 40.2821 223.505 40.0621C223.765 39.8421 223.905 39.5521 223.905 39.2021V38.6621L222.475 38.9121C221.915 39.0121 221.645 39.2721 221.645 39.6721C221.645 39.9021 221.725 40.0821 221.885 40.2021C222.045 40.3321 222.265 40.3921 222.545 40.3921ZM229.17 35.8421C229.71 35.8421 230.13 36.0021 230.43 36.3121C230.73 36.6321 230.89 37.0621 230.89 37.6121V41.1321H229.72V37.8621C229.72 37.2121 229.42 36.8821 228.83 36.8821C228.47 36.8821 228.18 37.0121 227.95 37.2521C227.71 37.4921 227.6 37.8521 227.6 38.3221V41.1321H226.43V35.9721H227.55L227.57 36.6921C227.93 36.1321 228.46 35.8421 229.17 35.8421ZM84.7728 53.5821V53.8721H80.9628C80.9828 54.3521 81.1228 54.7121 81.3628 54.9721C81.6028 55.2321 81.9328 55.3521 82.3528 55.3521C82.9428 55.3521 83.3428 55.0721 83.5528 54.5121L84.6728 54.6121C84.5128 55.1521 84.2228 55.5721 83.8228 55.8521C83.4228 56.1421 82.9328 56.2821 82.3528 56.2821C81.5528 56.2821 80.9228 56.0321 80.4628 55.5121C80.0028 55.0021 79.7728 54.3421 79.7728 53.5321C79.7728 52.7521 79.9928 52.1021 80.4428 51.6021C80.8828 51.1021 81.4928 50.8421 82.2628 50.8421C83.0128 50.8421 83.6228 51.0921 84.0828 51.5821C84.5428 52.0721 84.7728 52.7421 84.7728 53.5821ZM82.2928 51.7421C81.9128 51.7421 81.6128 51.8621 81.3728 52.0921C81.1328 52.3221 81.0028 52.6421 80.9728 53.0621H83.6028C83.5528 52.6421 83.4128 52.3121 83.1928 52.0821C82.9628 51.8621 82.6628 51.7421 82.2928 51.7421ZM90.5333 56.1321H89.1433L87.9733 54.2321L86.7233 56.1321H85.3733L87.3833 53.4021L85.6233 50.9721H86.9933L87.9933 52.5821L89.0233 50.9721H90.3333L88.5833 53.3921L90.5333 56.1321ZM94.13 50.8521C94.76 50.8521 95.28 51.0921 95.69 51.5721C96.09 52.0521 96.3 52.6821 96.3 53.4821C96.3 54.3021 96.09 54.9721 95.68 55.4921C95.27 56.0121 94.73 56.2721 94.06 56.2721C93.44 56.2721 92.95 56.0421 92.6 55.5821V58.1721H91.43V50.9721H92.46L92.48 51.7121C92.83 51.1421 93.38 50.8521 94.13 50.8521ZM93.86 55.2521C94.24 55.2521 94.55 55.0921 94.79 54.7721C95.03 54.4521 95.15 54.0221 95.15 53.4821C95.15 52.9621 95.03 52.5621 94.8 52.2721C94.56 51.9821 94.25 51.8321 93.86 51.8321C93.46 51.8321 93.14 51.9821 92.9 52.2821C92.66 52.5821 92.54 52.9921 92.54 53.5121C92.54 54.0421 92.66 54.4621 92.9 54.7821C93.14 55.1021 93.46 55.2521 93.86 55.2521ZM102.107 53.5821V53.8721H98.2968C98.3168 54.3521 98.4568 54.7121 98.6968 54.9721C98.9368 55.2321 99.2668 55.3521 99.6868 55.3521C100.277 55.3521 100.677 55.0721 100.887 54.5121L102.007 54.6121C101.847 55.1521 101.557 55.5721 101.157 55.8521C100.757 56.1421 100.267 56.2821 99.6868 56.2821C98.8868 56.2821 98.2568 56.0321 97.7968 55.5121C97.3368 55.0021 97.1068 54.3421 97.1068 53.5321C97.1068 52.7521 97.3268 52.1021 97.7768 51.6021C98.2168 51.1021 98.8268 50.8421 99.5968 50.8421C100.347 50.8421 100.957 51.0921 101.417 51.5821C101.877 52.0721 102.107 52.7421 102.107 53.5821ZM99.6268 51.7421C99.2468 51.7421 98.9468 51.8621 98.7068 52.0921C98.4668 52.3221 98.3368 52.6421 98.3068 53.0621H100.937C100.887 52.6421 100.747 52.3121 100.527 52.0821C100.297 51.8621 99.9968 51.7421 99.6268 51.7421ZM105.357 56.2821C104.597 56.2821 104.007 56.0521 103.567 55.5721C103.127 55.0921 102.917 54.4321 102.917 53.5821C102.917 52.7421 103.137 52.0721 103.577 51.5821C104.017 51.0921 104.617 50.8421 105.377 50.8421C106.007 50.8421 106.527 51.0121 106.927 51.3321C107.327 51.6621 107.567 52.1221 107.667 52.7221H106.537C106.387 52.1021 106.007 51.7821 105.397 51.7821C104.957 51.7821 104.627 51.9421 104.407 52.2421C104.177 52.5521 104.067 52.9921 104.067 53.5621C104.067 54.1321 104.177 54.5721 104.407 54.8821C104.637 55.1921 104.967 55.3421 105.387 55.3421C106.007 55.3421 106.387 55.0121 106.537 54.3421H107.667C107.567 54.9621 107.317 55.4321 106.917 55.7721C106.517 56.1121 105.997 56.2821 105.357 56.2821ZM110.205 51.8121V54.6821C110.205 54.8721 110.235 55.0021 110.315 55.0721C110.385 55.1521 110.515 55.1821 110.695 55.1821H111.265V56.1321H110.335C109.875 56.1321 109.535 56.0321 109.335 55.8321C109.135 55.6321 109.035 55.2921 109.035 54.8321V51.8221L108.295 51.8521V50.9721L109.035 51.0021V49.3821H110.205V51.0021L111.265 50.9721V51.8521L110.205 51.8121ZM116.921 53.5821V53.8721H113.111C113.131 54.3521 113.271 54.7121 113.511 54.9721C113.751 55.2321 114.081 55.3521 114.501 55.3521C115.091 55.3521 115.491 55.0721 115.701 54.5121L116.821 54.6121C116.661 55.1521 116.371 55.5721 115.971 55.8521C115.571 56.1421 115.081 56.2821 114.501 56.2821C113.701 56.2821 113.071 56.0321 112.611 55.5121C112.151 55.0021 111.921 54.3421 111.921 53.5321C111.921 52.7521 112.141 52.1021 112.591 51.6021C113.031 51.1021 113.641 50.8421 114.411 50.8421C115.161 50.8421 115.771 51.0921 116.231 51.5821C116.691 52.0721 116.921 52.7421 116.921 53.5821ZM114.441 51.7421C114.061 51.7421 113.761 51.8621 113.521 52.0921C113.281 52.3221 113.151 52.6421 113.121 53.0621H115.751C115.701 52.6421 115.561 52.3121 115.341 52.0821C115.111 51.8621 114.811 51.7421 114.441 51.7421ZM121.432 49.0121H122.602V56.1321H121.572L121.552 55.4021C121.192 55.9821 120.662 56.2721 119.972 56.2721C119.292 56.2721 118.752 56.0221 118.342 55.5021C117.932 54.9921 117.732 54.3221 117.732 53.5021C117.732 52.7021 117.932 52.0621 118.342 51.5821C118.742 51.1021 119.262 50.8521 119.902 50.8521C120.562 50.8521 121.072 51.0821 121.432 51.5421V49.0121ZM120.172 55.2521C120.552 55.2521 120.872 55.1021 121.122 54.7821C121.362 54.4621 121.492 54.0421 121.492 53.5121C121.492 52.9921 121.362 52.5821 121.122 52.2821C120.882 51.9821 120.562 51.8321 120.172 51.8321C119.772 51.8321 119.462 51.9821 119.232 52.2721C118.992 52.5721 118.882 52.9821 118.882 53.5021C118.882 54.0421 118.992 54.4621 119.232 54.7821C119.462 55.1021 119.772 55.2521 120.172 55.2521ZM133.136 52.5721C133.136 53.6721 132.826 54.5621 132.216 55.2421L133.126 55.9621L132.486 56.7121L131.536 55.8221C131.006 56.1621 130.406 56.3321 129.746 56.3321C128.766 56.3321 127.956 55.9921 127.326 55.2921C126.696 54.5921 126.386 53.6921 126.386 52.5721C126.386 51.4721 126.696 50.5721 127.326 49.8921C127.956 49.2121 128.766 48.8621 129.746 48.8621C130.726 48.8621 131.536 49.2121 132.176 49.8921C132.816 50.5721 133.136 51.4721 133.136 52.5721ZM127.606 52.5721C127.606 53.3921 127.796 54.0421 128.196 54.5321C128.586 55.0321 129.106 55.2721 129.756 55.2721C130.066 55.2721 130.366 55.2121 130.646 55.0721L129.916 54.5121L130.566 53.7521L131.346 54.5021C131.726 54.0121 131.916 53.3721 131.916 52.5721C131.916 51.7821 131.716 51.1421 131.316 50.6521C130.916 50.1721 130.396 49.9221 129.756 49.9221C129.106 49.9221 128.586 50.1721 128.196 50.6521C127.796 51.1321 127.606 51.7721 127.606 52.5721ZM138.521 53.5421H139.631V54.5421H138.521V56.1321H137.321V54.5421H134.061V53.3421L137.381 49.0121H138.521V53.5421ZM137.321 53.5421V50.7521H137.301L135.161 53.5421H137.321ZM148.103 53.5821V53.8721H144.293C144.313 54.3521 144.453 54.7121 144.693 54.9721C144.933 55.2321 145.263 55.3521 145.683 55.3521C146.273 55.3521 146.673 55.0721 146.883 54.5121L148.003 54.6121C147.843 55.1521 147.553 55.5721 147.153 55.8521C146.753 56.1421 146.263 56.2821 145.683 56.2821C144.883 56.2821 144.253 56.0321 143.793 55.5121C143.333 55.0021 143.103 54.3421 143.103 53.5321C143.103 52.7521 143.323 52.1021 143.773 51.6021C144.213 51.1021 144.823 50.8421 145.593 50.8421C146.343 50.8421 146.953 51.0921 147.413 51.5821C147.873 52.0721 148.103 52.7421 148.103 53.5821ZM145.623 51.7421C145.243 51.7421 144.943 51.8621 144.703 52.0921C144.463 52.3221 144.333 52.6421 144.303 53.0621H146.933C146.883 52.6421 146.743 52.3121 146.523 52.0821C146.293 51.8621 145.993 51.7421 145.623 51.7421ZM153.643 56.1321H152.463C152.423 56.0021 152.383 55.8021 152.333 55.5321C151.943 56.0321 151.383 56.2721 150.643 56.2721C150.103 56.2721 149.673 56.1421 149.353 55.8621C149.033 55.5821 148.883 55.2121 148.883 54.7321C148.883 53.8721 149.433 53.3421 150.543 53.1521L152.153 52.8821C152.213 52.8721 152.263 52.8621 152.293 52.8421V52.3921C152.293 51.9421 151.953 51.7121 151.273 51.7121C150.943 51.7121 150.693 51.7821 150.533 51.9021C150.363 52.0221 150.263 52.2321 150.233 52.5121L149.133 52.5021C149.233 51.4021 149.953 50.8421 151.303 50.8421C152.723 50.8421 153.433 51.4421 153.433 52.6221V54.9421C153.433 55.3221 153.503 55.7221 153.643 56.1321ZM150.933 55.3921C151.313 55.3921 151.633 55.2821 151.893 55.0621C152.153 54.8421 152.293 54.5521 152.293 54.2021V53.6621L150.863 53.9121C150.303 54.0121 150.033 54.2721 150.033 54.6721C150.033 54.9021 150.113 55.0821 150.273 55.2021C150.433 55.3321 150.653 55.3921 150.933 55.3921ZM157.349 50.8121C157.459 50.8121 157.569 50.8221 157.679 50.8421V51.9521C157.529 51.9421 157.429 51.9321 157.369 51.9321C156.959 51.9321 156.629 52.0721 156.379 52.3321C156.119 52.5921 155.989 52.9721 155.989 53.4721V56.1321H154.819V50.9721H155.939L155.919 51.9121C156.189 51.1821 156.669 50.8121 157.349 50.8121ZM161.289 50.8421C161.829 50.8421 162.249 51.0021 162.549 51.3121C162.849 51.6321 163.009 52.0621 163.009 52.6121V56.1321H161.839V52.8621C161.839 52.2121 161.539 51.8821 160.949 51.8821C160.589 51.8821 160.299 52.0121 160.069 52.2521C159.829 52.4921 159.719 52.8521 159.719 53.3221V56.1321H158.549V50.9721H159.669L159.689 51.6921C160.049 51.1321 160.579 50.8421 161.289 50.8421ZM164.408 50.1521V49.0121H165.578V50.1521H164.408ZM164.408 56.1321V50.9721H165.578V56.1321H164.408ZM169.717 50.8421C170.257 50.8421 170.677 51.0021 170.977 51.3121C171.277 51.6321 171.437 52.0621 171.437 52.6121V56.1321H170.267V52.8621C170.267 52.2121 169.967 51.8821 169.377 51.8821C169.017 51.8821 168.727 52.0121 168.497 52.2521C168.257 52.4921 168.147 52.8521 168.147 53.3221V56.1321H166.977V50.9721H168.097L168.117 51.6921C168.477 51.1321 169.007 50.8421 169.717 50.8421ZM176.386 50.9721H177.446V56.0821C177.446 56.8221 177.226 57.3721 176.796 57.7421C176.366 58.1121 175.766 58.2921 175.006 58.2921C174.326 58.2921 173.796 58.1621 173.406 57.8821C173.006 57.6021 172.786 57.2021 172.726 56.6621H173.826C173.926 57.1621 174.316 57.4021 174.996 57.4021C175.456 57.4021 175.786 57.3021 175.986 57.1021C176.186 56.9021 176.286 56.5721 176.286 56.1321V55.4521C175.926 55.9421 175.416 56.1821 174.776 56.1821C174.106 56.1821 173.566 55.9321 173.156 55.4321C172.746 54.9321 172.546 54.2721 172.546 53.4621C172.546 52.6721 172.746 52.0421 173.166 51.5621C173.576 51.0921 174.106 50.8521 174.766 50.8521C175.486 50.8521 176.026 51.1421 176.366 51.7021L176.386 50.9721ZM174.986 55.1821C175.366 55.1821 175.686 55.0321 175.936 54.7221C176.176 54.4121 176.306 53.9921 176.306 53.4721C176.306 52.9521 176.176 52.5521 175.936 52.2521C175.696 51.9621 175.376 51.8121 174.986 51.8121C174.586 51.8121 174.276 51.9621 174.046 52.2521C173.806 52.5521 173.696 52.9521 173.696 53.4621C173.696 53.9921 173.806 54.4121 174.046 54.7221C174.276 55.0321 174.586 55.1821 174.986 55.1821ZM180.792 56.2921C180.112 56.2921 179.582 56.1521 179.202 55.8521C178.822 55.5521 178.602 55.1221 178.542 54.5521L179.632 54.5221C179.712 55.1321 180.112 55.4321 180.832 55.4321C181.172 55.4321 181.432 55.3721 181.622 55.2521C181.812 55.1321 181.912 54.9621 181.912 54.7421C181.912 54.4221 181.662 54.2121 181.172 54.1121L180.142 53.9021C179.162 53.7021 178.672 53.2121 178.672 52.4421C178.672 51.9621 178.842 51.5721 179.202 51.2821C179.562 50.9921 180.052 50.8421 180.682 50.8421C181.292 50.8421 181.792 50.9921 182.172 51.2721C182.552 51.5521 182.782 51.9621 182.852 52.4821L181.762 52.5121C181.662 51.9721 181.302 51.7021 180.662 51.7021C180.372 51.7021 180.152 51.7621 179.992 51.8621C179.832 51.9721 179.752 52.1221 179.752 52.3221C179.752 52.6221 179.982 52.8221 180.442 52.9221L181.502 53.1421C182.022 53.2621 182.402 53.4321 182.642 53.6721C182.882 53.9121 183.012 54.2321 183.012 54.6121C183.012 55.1421 182.812 55.5521 182.412 55.8521C182.012 56.1521 181.472 56.2921 180.792 56.2921ZM184.087 56.1321V54.8721H185.487V56.1321H184.087Z" fill="black"/>
<line x1="245.491" y1="115.906" x2="245.491" y2="67.7924" stroke="#CBCAC9" stroke-width="2"/>
<defs>
<filter id="filter0_d_9262_166901" x="67.9595" y="6.4151" width="189" height="66.3773" filterUnits="userSpaceOnUse" color-interpolation-filters="sRGB">
<feFlood flood-opacity="0" result="BackgroundImageFix"/>
<feColorMatrix in="SourceAlpha" type="matrix" values="0 0 0 0 0 0 0 0 0 0 0 0 0 0 0 0 0 0 127 0" result="hardAlpha"/>
<feOffset dy="2"/>
<feGaussianBlur stdDeviation="1.5"/>
<feColorMatrix type="matrix" values="0 0 0 0 0.796078 0 0 0 0 0.792157 0 0 0 0 0.788235 0 0 0 0.5 0"/>
<feBlend mode="normal" in2="BackgroundImageFix" result="effect1_dropShadow_9262_166901"/>
<feBlend mode="normal" in="SourceGraphic" in2="effect1_dropShadow_9262_166901" result="shape"/>
</filter>
</defs>
</svg>
