<svg viewBox="0 0 90 90" fill="none" xmlns="http://www.w3.org/2000/svg">
<circle cx="45" cy="45" r="45" fill="white" fill-opacity="0.9"/>
<path d="M52.8602 57C53.0024 56.9743 53.148 56.9743 53.2902 57C53.393 57.0852 53.4722 57.1954 53.5202 57.32C53.5377 57.3522 53.5469 57.3883 53.5469 57.425C53.5469 57.4616 53.5377 57.4977 53.5202 57.53C53.4341 57.638 53.3291 57.7295 53.2102 57.8C52.7484 57.9857 52.3063 58.2168 51.8902 58.49C51.3121 58.9331 50.7855 59.4396 50.3202 60C50.0528 60.4182 49.8315 60.8641 49.6602 61.33C49.6694 61.589 49.6138 61.8463 49.4986 62.0785C49.3834 62.3107 49.2121 62.5106 49.0002 62.66L48.6602 62.94C48.6088 62.96 48.5517 62.96 48.5002 62.94C48.4402 62.94 48.3702 62.83 48.3702 62.77C48.3193 62.5597 48.3193 62.3403 48.3702 62.13C48.5902 61.75 48.7302 61.34 48.9502 60.98C49.126 60.751 49.2177 60.4685 49.2102 60.18C49.2102 59.77 49.5502 59.55 49.6402 59.18C49.6653 59.0414 49.7236 58.911 49.8102 58.8C50.2202 58.38 50.6402 57.98 51.0502 57.57C51.6702 57.42 52.1502 56.88 52.8602 57Z" fill="#171717"/>
<path d="M52.2598 48.0599C52.2181 47.557 52.3681 47.0569 52.6798 46.6599C52.5598 45.9699 53.1198 45.4699 53.1798 44.8199C53.2547 44.4629 53.3973 44.1234 53.5998 43.8199C53.6891 43.6236 53.807 43.4416 53.9498 43.2799C54.5098 42.7099 55.0798 42.1599 55.6498 41.5999C55.7598 41.4999 55.8698 41.3599 55.9898 41.3399C56.6098 41.2499 56.8798 40.6199 57.4298 40.4299C57.5017 40.4099 57.5778 40.4099 57.6498 40.4299C57.8398 40.4899 57.8798 40.5999 57.7798 40.7299C57.1145 41.4968 56.3888 42.2091 55.6098 42.8599C55.5098 42.9499 55.3398 42.9599 55.2198 43.0299C55.0518 43.0986 54.9 43.2018 54.7743 43.3327C54.6486 43.4636 54.5516 43.6193 54.4898 43.7899C54.3698 44.2099 53.9498 44.4899 53.9598 44.9499C53.8126 45.1104 53.7016 45.3005 53.6344 45.5076C53.5671 45.7146 53.545 45.9337 53.5698 46.15C53.5975 46.4408 53.5115 46.7311 53.3298 46.9599C53.1638 47.1996 53.086 47.4894 53.1098 47.7799C53.0993 47.8871 53.0674 47.991 53.0158 48.0855C52.9643 48.18 52.8942 48.2632 52.8098 48.33C52.7149 48.4411 52.5995 48.5328 52.4698 48.5999C52.3798 48.6699 52.2498 48.3499 52.2598 48.0599Z" fill="#171717"/>
<path d="M54.36 60.76C54.5717 60.3979 54.7396 60.0118 54.86 59.61C54.9397 59.19 55.0848 58.7851 55.29 58.41C55.3675 58.1335 55.3845 57.8436 55.34 57.56C55.3423 57.4158 55.3778 57.274 55.4437 57.1457C55.5096 57.0174 55.6041 56.9059 55.72 56.82C55.85 56.7 55.97 56.66 56.06 56.73C56.1158 56.7744 56.1517 56.8391 56.16 56.91C56.16 57.3433 56.16 57.7733 56.16 58.2C56.1666 58.3431 56.1243 58.4842 56.04 58.6C55.63 58.99 55.87 59.6 55.58 60.01C55.3076 60.4198 55.0828 60.8593 54.91 61.32C54.7811 61.6581 54.5549 61.9504 54.26 62.16C54.1381 62.2277 53.9948 62.2456 53.86 62.21C53.68 62.16 53.67 62.03 53.75 61.89C53.95 61.52 54.14 61.13 54.33 60.75L54.36 60.76Z" fill="#171717"/>
<path d="M36.5998 54.7799C36.3806 54.7549 36.1591 54.7549 35.9398 54.7799C35.3098 54.9299 34.8398 54.5499 34.3098 54.3499L34.1198 54.2599C34.0863 54.245 34.0562 54.2233 34.0314 54.1963C34.0065 54.1693 33.9874 54.1375 33.9752 54.1029C33.9631 54.0683 33.9581 54.0315 33.9606 53.9949C33.9631 53.9583 33.9731 53.9226 33.9898 53.8899C33.9898 53.7699 34.1298 53.5799 34.2198 53.5699C34.6528 53.5449 35.0869 53.5449 35.5198 53.5699C35.6615 53.5536 35.8047 53.5816 35.9298 53.6499C36.4274 53.9512 37.0149 54.068 37.5898 53.9799L37.9998 53.9999C38.263 54.12 38.4754 54.3288 38.5998 54.5899C38.5998 54.5899 38.5498 54.7099 38.4998 54.7299C37.8738 54.853 37.2315 54.8699 36.5998 54.7799V54.7799Z" fill="#171717"/>
<path d="M36.4799 43.7101C36.3399 43.7101 35.7799 43.7101 35.7199 43.5601C35.6986 43.4568 35.7179 43.3494 35.7737 43.26C35.8296 43.1706 35.9178 43.1062 36.0199 43.0801C36.1628 43.0651 36.3069 43.0651 36.4499 43.0801C36.9463 43.0638 37.4281 42.9078 37.8399 42.6301C38.082 42.5513 38.3005 42.4129 38.4752 42.2277C38.6499 42.0425 38.7753 41.8164 38.8399 41.5701C38.8399 41.4701 39.0499 41.4101 39.1699 41.3501C39.2384 41.3298 39.3113 41.3298 39.3799 41.3501C39.5799 41.4101 39.5899 41.5101 39.4799 41.6601C39.1699 42.0501 39.0999 42.5601 38.7199 42.9301C38.0367 43.3453 37.2732 43.6112 36.4799 43.7101Z" fill="#171717"/>
<path d="M46.3102 68.23C46.3102 68.23 46.1702 68.12 46.1802 68.07C46.3089 67.38 46.6601 66.7513 47.1802 66.28C47.3034 66.2164 47.442 66.1887 47.5802 66.2C47.8202 66.2 47.7902 66.2 47.5802 66.68C47.3582 67.2825 46.9612 67.8048 46.4402 68.18C46.4004 68.2047 46.3563 68.2217 46.3102 68.23V68.23Z" fill="#171717"/>
<path d="M49.5399 69.05L49.0799 69.5C49.0551 69.5124 49.0277 69.5188 48.9999 69.5188C48.9722 69.5188 48.9448 69.5124 48.9199 69.5C48.8873 69.4841 48.8582 69.4618 48.8343 69.4344C48.8105 69.407 48.7924 69.3751 48.7812 69.3406C48.77 69.306 48.7659 69.2696 48.7691 69.2334C48.7723 69.1972 48.7828 69.1621 48.7999 69.13C48.9099 68.78 49.1199 68.69 49.4299 68.87C49.4799 68.91 49.4999 69 49.5399 69.05Z" fill="#171717"/>
<path d="M50 67.27C50 67.27 49.89 67.39 49.85 67.38C49.81 67.37 49.76 67.3 49.71 67.25L49.87 67.11L50 67.27Z" fill="#171717"/>
<path d="M51.1202 69.33C51.2402 69.33 51.3202 69.33 51.3102 69.47C51.3002 69.61 51.2302 69.56 51.1802 69.61C51.1302 69.66 51.0802 69.52 51.0602 69.46C51.0402 69.4 51.1002 69.37 51.1202 69.33Z" fill="#171717"/>
<path d="M64.9999 34.83C65.0799 34.98 65.1799 35.17 65.2699 35.36C65.27 35.3896 65.2627 35.4188 65.2488 35.445C65.2348 35.4712 65.2146 35.4935 65.1899 35.51C65.0499 35.51 64.8699 35.62 64.7899 35.56C64.5664 35.3782 64.3589 35.1775 64.1699 34.96C64.1699 34.5 63.7399 34.23 63.6299 33.8C63.5199 33.37 62.9199 33.09 62.7899 32.58C62.6599 32.07 62.2799 31.88 62.0299 31.58C61.7799 31.28 61.9499 31.02 61.8799 30.75C61.8099 30.48 61.7099 30.51 61.6199 30.58C61.5299 30.65 61.4899 30.69 61.4899 30.75C61.4899 30.96 61.4899 31.18 61.4899 31.4C61.4684 31.468 61.4307 31.5298 61.3799 31.58C61.2999 31.67 61.1799 31.64 61.0499 31.5C60.9121 31.3847 60.8033 31.2387 60.7321 31.0737C60.6609 30.9087 60.6293 30.7294 60.6399 30.55C60.6801 30.3352 60.6801 30.1148 60.6399 29.9C60.6223 29.8337 60.5909 29.7718 60.5478 29.7184C60.5048 29.665 60.451 29.6213 60.3899 29.59C59.4499 29.3 58.9999 28.6 58.5099 28C58.4422 27.8766 58.4013 27.7403 58.3899 27.6C58.3781 27.3859 58.3273 27.1758 58.2399 26.98C57.9902 26.3936 57.6995 25.8255 57.3699 25.28C56.9799 24.77 56.6699 24.2 56.2799 23.69C56.0599 23.41 55.7699 23.18 55.7399 22.78C55.4104 22.3128 55.1353 21.8096 54.9199 21.28C54.8199 21.12 54.9199 20.86 54.9199 20.64C54.9489 20.5734 54.9978 20.5175 55.0599 20.48C55.0599 20.48 55.1899 20.48 55.1999 20.48C55.3399 20.72 55.4499 20.99 55.6099 21.21C55.7699 21.43 55.9999 21.64 56.1899 21.86C56.52 22.1506 56.8063 22.4874 57.0399 22.86C57.1893 23.1818 57.3922 23.476 57.6399 23.73L58.5399 24.68C58.6776 24.8435 58.7858 25.0295 58.8599 25.23C59.269 25.8936 59.5663 26.62 59.7399 27.38C59.7643 27.5197 59.8306 27.6487 59.9299 27.75C60.1799 28.01 60.4499 28.25 60.7199 28.5C60.7448 28.5123 60.7722 28.5187 60.7999 28.5187C60.8277 28.5187 60.8551 28.5123 60.8799 28.5C60.9395 28.4578 60.9848 28.3985 61.0099 28.33C61.1699 27.79 60.8099 27.38 60.6499 26.92C60.6358 26.8853 60.629 26.8481 60.63 26.8107C60.631 26.7732 60.6397 26.7364 60.6557 26.7026C60.6717 26.6687 60.6946 26.6386 60.7228 26.614C60.7511 26.5895 60.7842 26.5711 60.8199 26.56C60.9551 26.5317 61.0947 26.5317 61.2299 26.56C61.2653 26.5676 61.2978 26.5846 61.3243 26.6093C61.3507 26.6339 61.3699 26.6653 61.3799 26.7C61.3799 27.15 61.9199 27.42 61.8799 27.87C61.8399 28.32 62.2099 28.65 62.3199 29.06C62.5677 30.0944 63.0236 31.0676 63.6599 31.92C64.1179 32.641 64.532 33.3891 64.8999 34.16C64.9999 34.3 64.9299 34.57 64.9999 34.83Z" fill="#171717"/>
<path d="M61.0001 34.51C60.985 34.2936 60.985 34.0764 61.0001 33.86C61.0452 33.7281 61.1092 33.6035 61.1901 33.49C61.1901 33.49 61.3301 33.57 61.3401 33.62C61.4701 34.17 61.9401 34.62 61.8901 35.21C61.8901 35.38 62.0801 35.58 62.2201 35.74C62.3219 35.8324 62.4364 35.9098 62.5601 35.97C62.6083 35.8365 62.665 35.7062 62.7301 35.58C62.7976 35.463 62.871 35.3495 62.9501 35.24C63.0201 35.36 63.1501 35.48 63.1501 35.61C63.1308 35.9696 63.2408 36.3243 63.4601 36.61C63.508 36.6633 63.5443 36.7259 63.5669 36.7939C63.5894 36.862 63.5977 36.9339 63.5911 37.0053C63.5845 37.0766 63.5633 37.1459 63.5287 37.2086C63.4941 37.2714 63.4469 37.3263 63.3901 37.37C63.0701 37.7 63.1801 38.01 63.3901 38.31C63.5001 38.46 63.4901 38.56 63.3001 38.64C63.2315 38.6603 63.1586 38.6603 63.0901 38.64C63.025 38.6607 62.9551 38.6607 62.8901 38.64C62.3524 38.2726 61.9405 37.749 61.7101 37.14C61.6201 36.88 61.3701 36.68 61.3501 36.37C61.1889 36.1775 61.0692 35.9538 60.9987 35.7129C60.9281 35.4719 60.9081 35.219 60.9401 34.97C60.9401 34.83 60.9401 34.68 60.9401 34.54L61.0001 34.51Z" fill="#171717"/>
<path d="M54.39 25.19C54.4225 25.1736 54.4581 25.1643 54.4945 25.1625C54.5309 25.1608 54.5672 25.1667 54.6011 25.1799C54.6351 25.1931 54.6659 25.2133 54.6915 25.2391C54.7171 25.265 54.7371 25.296 54.75 25.33C54.8844 25.8111 54.9251 26.3135 54.87 26.81C54.8624 27.0603 54.9115 27.309 55.0137 27.5376C55.1159 27.7662 55.2685 27.9687 55.46 28.13C55.5313 28.1823 55.5906 28.2492 55.6339 28.3263C55.6772 28.4033 55.7035 28.4888 55.7111 28.5768C55.7186 28.6649 55.7073 28.7536 55.6778 28.8369C55.6483 28.9203 55.6013 28.9963 55.54 29.06C55.4487 29.2495 55.3751 29.447 55.32 29.65C55.24 29.87 55.02 29.9 54.86 29.7C54.7 29.5 54.46 29.29 54.47 28.96C54.48 28.63 54.47 28.24 54.47 27.89C54.4734 27.7488 54.4351 27.6097 54.36 27.49C54.2313 27.3169 54.1384 27.1198 54.0869 26.9103C54.0354 26.7008 54.0262 26.4831 54.06 26.27C54.0401 25.987 54.0401 25.703 54.06 25.42C54.1 25.32 54.28 25.26 54.39 25.19Z" fill="#171717"/>
<path d="M60.11 33.3501C60.05 33.8601 60.11 34.2201 59.99 34.5501C59.92 34.7001 59.81 34.7301 59.64 34.7101C59.47 34.6901 59.36 34.6601 59.32 34.5101C59.2158 34.0136 59.1955 33.5032 59.26 33.0001C59.26 32.6801 59.48 32.5001 59.67 32.3001C59.719 32.2499 59.7815 32.2152 59.85 32.2001C59.8813 32.1957 59.9132 32.1982 59.9434 32.2073C59.9737 32.2164 60.0016 32.232 60.0253 32.2528C60.0491 32.2737 60.068 32.2995 60.0809 32.3283C60.0938 32.3572 60.1003 32.3885 60.1 32.4201C60.13 32.8101 60.11 33.1701 60.11 33.3501Z" fill="#171717"/>
<path d="M48.6 33.88C48.8167 33.8799 49.0262 33.958 49.19 34.1C50.1862 34.4925 51.0791 35.1083 51.8 35.9C51.88 36.01 51.71 36.43 51.58 36.45C51.22 36.45 50.82 36.55 50.58 36.25C50.1499 35.8715 49.6642 35.5612 49.14 35.33C49.02 35.25 48.92 35.27 48.78 35.39C48.64 35.51 48.35 36.8 46.44 35.96C46.34 35.96 46.26 35.29 46.2 35.17C45.97 34.68 45.82 35.06 45.43 35.29C45.25 35.4 45.11 35.57 44.88 35.59C44.65 35.61 44.57 35.59 44.52 35.42C44.4936 35.3566 44.48 35.2886 44.48 35.22C44.48 35.1513 44.4936 35.0834 44.52 35.02C44.6205 34.8266 44.7642 34.6589 44.94 34.53C45.2717 34.2884 45.6268 34.0806 46 33.91C46.2816 33.8442 46.5719 33.824 46.86 33.85C47.08 33.84 48.24 33.88 48.6 33.88Z" fill="#171717"/>
<path d="M32.2 33C32.845 33.032 33.4609 33.2783 33.95 33.7C34.3973 34.0606 34.8031 34.4698 35.16 34.92C35.1917 34.9826 35.2121 35.0503 35.22 35.12C35.2478 35.1879 35.2489 35.2639 35.2229 35.3326C35.1969 35.4012 35.1458 35.4575 35.08 35.49C34.9573 35.5548 34.8174 35.5793 34.68 35.56C34.4872 35.463 34.3142 35.3307 34.17 35.17C33.9035 34.9418 33.6033 34.7563 33.28 34.62C32.74 34.31 32.65 34.62 32.56 35.13C32.4942 35.3237 32.3871 35.5008 32.2459 35.649C32.1048 35.7972 31.9332 35.9128 31.7429 35.988C31.5526 36.0632 31.3482 36.096 31.144 36.0843C30.9397 36.0725 30.7404 36.0165 30.56 35.92C30.45 35.83 30.26 35.07 30.17 34.92C29.8 34.43 29.46 35.01 28.97 35.45C28.89 35.52 28.71 35.45 28.69 35.25C28.645 35.0757 28.6443 34.8929 28.688 34.7183C28.7317 34.5436 28.8183 34.3826 28.94 34.25C29.14 34.05 29.35 33.84 29.56 33.65C29.7128 33.4935 29.9213 33.4036 30.14 33.4C30.6449 33.4435 31.1495 33.3129 31.57 33.03C31.72 33 32 33 32.2 33Z" fill="#171717"/>
<path d="M47.38 31.92C47.38 31.92 43.38 32.12 42.6 33.07C42.3594 33.5084 42.2322 34 42.23 34.5C42.2288 34.6792 42.2688 34.8562 42.3468 35.0174C42.4248 35.1786 42.5388 35.3198 42.68 35.43C42.82 35.57 43.23 33.54 43.56 33.37C45.2088 32.5063 47.0998 32.221 48.93 32.56C49 32.39 47.74 32 47.38 31.92Z" fill="#171717"/>
<path d="M80.2002 79.46C79.9902 79.25 79.7902 79.04 79.5802 78.84L78.3102 77.65C77.7102 77.5 77.3902 76.93 76.8802 76.65C76.3702 76.37 75.8802 76.13 75.3502 75.89C75.08 75.7964 74.8023 75.7261 74.5202 75.68C74.1711 75.5765 73.8354 75.4321 73.5202 75.25C73.1063 74.9646 72.6127 74.8175 72.1102 74.83C71.9674 74.8583 71.8193 74.8371 71.6902 74.77C71.2002 74.34 69.5902 74.42 69.4002 74.27C69.2102 74.12 67.1302 73.77 66.5402 73.51C66.2202 73.36 65.9302 73.16 65.5902 73.02C65.2273 72.8003 64.8916 72.5385 64.5902 72.24C63.9102 72.14 63.6602 71.32 62.9502 71.24C62.6202 70.95 60.9502 69.35 60.4302 68.82C60.0902 68.46 59.3202 67.23 59.1402 67.12C58.742 66.956 58.3763 66.7224 58.0602 66.43C57.7502 66.04 57.2702 66.15 56.8802 66.01C56.8222 65.9713 56.7728 65.9212 56.735 65.8627C56.6971 65.8043 56.6717 65.7387 56.6602 65.67C56.6602 65.46 56.5902 65.17 56.6602 65.04C56.9504 64.6187 57.0848 64.1095 57.0402 63.6C57.0336 63.4584 57.0721 63.3183 57.1502 63.2C57.3956 62.8488 57.5218 62.4282 57.5102 62C57.5253 61.786 57.5867 61.5779 57.6902 61.39C58.0802 60.64 58.4602 59.87 58.8102 59.09C58.9413 58.8313 59.1252 58.603 59.3502 58.42C59.3715 58.3998 59.3966 58.3841 59.4241 58.3738C59.4516 58.3635 59.4809 58.3588 59.5102 58.36C59.5802 58.36 59.6302 58.45 59.6902 58.49C60.0702 58.75 60.0802 59.24 60.3502 59.58C60.4936 59.7422 60.6773 59.8637 60.8828 59.9322C61.0882 60.0007 61.3081 60.0137 61.5202 59.97C62.1733 59.7537 62.7694 59.3933 63.2644 58.9156C63.7595 58.4378 64.1408 57.8549 64.3802 57.21C64.5492 56.8175 64.7824 56.4559 65.0702 56.14C65.1707 56.0352 65.2491 55.9113 65.3007 55.7755C65.3522 55.6398 65.3758 55.4951 65.3702 55.35C65.3702 55.27 65.3702 55.18 65.3702 55.13C65.663 54.6392 65.9268 54.1317 66.1602 53.61C66.519 53.0661 66.691 52.4202 66.6502 51.77C66.5502 51.14 67.0302 50.71 67.1802 50.17C67.1802 49.98 67.4602 49.84 67.5902 49.67C67.7202 49.5 67.9102 49.31 67.9102 49.12C67.9621 48.709 68.1284 48.3209 68.3902 48C68.4442 47.3578 68.6572 46.7392 69.0102 46.2C69.1457 45.9517 69.2339 45.6805 69.2702 45.4C69.2702 44.96 69.2702 44.52 69.2702 44.09C69.273 43.8725 69.3468 43.6618 69.4802 43.49C69.7002 43.21 69.7102 42.81 70.0102 42.56C70.2102 42.402 70.3679 42.1969 70.4691 41.9631C70.5703 41.7292 70.6119 41.4739 70.5902 41.22C70.9326 40.7312 71.079 40.1316 71.0002 39.54C71.0002 38.38 71.0002 37.22 71.0002 36.05C71.0343 35.7008 71.0343 35.3491 71.0002 35C70.8963 34.7341 70.7656 34.4794 70.6102 34.24C70.3102 33.59 69.9402 32.98 69.6102 32.32C68.9995 31.5114 68.2348 30.8317 67.3602 30.32C67.1102 30.22 66.9402 29.93 66.7302 29.73C66.6502 29.18 66.1602 28.91 65.9202 28.48C65.6802 28.05 65.4302 27.48 65.1802 26.94C64.9237 26.3499 64.6263 25.7785 64.2902 25.23C63.8742 24.7254 63.4231 24.2509 62.9402 23.81C62.8402 23.7 62.7402 23.6 62.6302 23.5L61.6302 22.61C61.1702 22.61 60.9202 22.14 60.4802 22.05C60.3602 22.05 60.1802 21.93 60.1502 21.82C59.8402 20.95 59.0702 20.47 58.4802 19.82C58.0902 19.4 57.6302 19.03 57.2302 18.61C56.8302 18.19 56.0702 18.02 55.6802 17.46C55.3322 17.0941 54.9044 16.8134 54.4302 16.64C54.1202 16.47 53.8002 16.32 53.4802 16.16C52.8086 15.8982 52.233 15.4377 51.8302 14.84C51.7034 14.3547 51.4095 13.9298 51.0002 13.64C50.6102 13.28 50.5102 12.76 50.1702 12.38C49.5302 11.68 48.5802 11.38 47.9902 10.62C47.9 10.5066 47.7832 10.4173 47.6502 10.36C47.5302 10.29 47.3702 10.29 47.2402 10.23C46.8602 10.03 46.4802 9.83997 46.1202 9.60997C45.7785 9.47921 45.4446 9.32896 45.1202 9.15997C44.7502 8.87997 44.2802 9.04997 43.8502 9.02997C43.4202 9.00997 43.0002 8.99997 42.5702 8.99997C42.3602 8.99997 42.1402 8.99997 41.9202 8.99997C41.485 8.95536 41.0484 9.06896 40.6902 9.31997C40.4102 9.51997 39.9702 9.31997 39.6902 9.56997C39.4102 9.81997 39.0202 9.78997 38.6902 9.86997C38.3602 9.94997 38.1102 10.3 37.6902 10.28C37.402 10.2864 37.1241 10.3884 36.9002 10.57C36.7202 10.68 36.4902 10.72 36.3102 10.83C35.8902 11.09 35.6202 11.54 35.0702 11.68C34.8016 11.7963 34.5749 11.9916 34.4202 12.24C33.9602 12.82 33.2102 13 32.6702 13.49C32.2668 13.7805 31.8304 14.0222 31.3702 14.21C31.0502 14.37 30.7102 14.49 30.3702 14.66C30.0302 14.83 29.5802 15.01 29.2302 15.23C28.9247 15.4094 28.5831 15.5187 28.2302 15.55C28.0895 15.5777 27.9605 15.6475 27.8602 15.75C27.5902 15.99 27.3502 16.27 27.0602 16.49C26.7702 16.71 26.5702 17.36 26.2602 17.76C26.0892 18.0816 26.0294 18.4508 26.0902 18.81C26.0902 19.24 26.0902 19.68 26.0902 20.12C26.1109 20.2606 26.0864 20.4042 26.0202 20.53C25.5602 21.1 25.7302 21.77 25.6702 22.41C25.6702 22.48 25.6702 22.59 25.6702 22.62C25.1602 23.04 25.4202 23.74 25.0802 24.21C24.9171 24.4498 24.8236 24.7302 24.8102 25.02C24.8066 25.1616 24.7575 25.2984 24.6702 25.41C24.1343 26.0814 23.6904 26.8212 23.3502 27.61C23.1869 27.846 23.0934 28.1233 23.0802 28.41C23.0802 29.41 23.0802 30.41 23.0802 31.41C23.0763 31.5543 23.0412 31.696 22.9773 31.8255C22.9135 31.955 22.8223 32.0691 22.7102 32.16L22.5602 32.32C22.0402 32.93 22.0502 33.37 22.6302 34.01C22.7672 34.1329 22.8724 34.2871 22.9368 34.4595C23.0013 34.6319 23.023 34.8173 23.0002 35C22.9902 35.1465 22.9902 35.2935 23.0002 35.44C22.97 35.8027 22.97 36.1673 23.0002 36.53C23.1259 37.0809 23.3172 37.6147 23.5702 38.12C23.7508 38.391 23.8471 38.7093 23.8471 39.035C23.8471 39.3606 23.7508 39.679 23.5702 39.95C23.4804 40.0616 23.4156 40.1912 23.3802 40.33C23.3802 40.64 22.9302 41.81 22.9302 42.17C22.9302 43.77 22.9302 45.37 22.9302 46.97C22.9302 47.26 22.9302 49.03 22.9302 49.16C22.9302 50.16 22.9302 51.06 22.9302 52C22.8295 52.577 22.9433 53.171 23.2502 53.67C23.3186 53.7953 23.3498 53.9375 23.3402 54.08C23.3402 54.59 23.3402 55.08 23.4002 55.6C23.405 55.7429 23.4501 55.8815 23.5302 56C23.7307 56.2932 23.8259 56.6457 23.8002 57C23.7698 57.2882 23.8405 57.5781 24.0002 57.82C24.1474 57.9813 24.2294 58.1916 24.2302 58.41C24.1968 58.663 24.2151 58.9201 24.2839 59.1659C24.3526 59.4117 24.4704 59.641 24.6302 59.84C24.6055 60.2747 24.7446 60.7029 25.0202 61.04C25.1287 61.4621 25.3664 61.8397 25.7002 62.12C26.0102 62.44 25.9902 62.95 26.3702 63.22C26.7502 63.49 26.8502 64.1 27.1802 64.48C27.2462 64.7977 27.4019 65.0899 27.6287 65.3221C27.8555 65.5542 28.144 65.7166 28.4602 65.79C28.5202 65.79 28.5702 65.88 28.6302 65.93C29.0502 66.29 29.2002 66.57 28.8002 67.01C28.5602 67.27 28.2502 67.48 28.1702 67.87C28.0402 68.46 27.3002 68.65 27.2402 69.29C27.2402 69.42 27.0902 69.54 26.9902 69.64C26.2246 70.5993 25.289 71.4094 24.2302 72.03C23.8763 72.3911 23.4456 72.6679 22.9702 72.84C22.5358 73.0871 22.0885 73.3107 21.6302 73.51C21.1802 73.7 20.7902 74.09 20.2302 73.99C19.7515 74.316 19.1783 74.4743 18.6002 74.44C18.1344 74.6015 17.6604 74.7384 17.1802 74.85C16.9602 74.85 15.7602 75.25 15.3202 75.27C14.5402 75.32 13.7202 75.09 13.0202 75.67C12.9302 75.74 12.7402 75.67 12.5902 75.67C12.374 75.6467 12.1553 75.6675 11.9473 75.7311C11.7393 75.7947 11.5464 75.8998 11.3802 76.04C10.9202 76.04 10.6402 76.46 10.2202 76.58C10.0576 76.6955 9.91566 76.8374 9.80017 77C9.61888 77.1759 9.51089 77.4139 9.49791 77.6662C9.48492 77.9185 9.5679 78.1664 9.73017 78.36C9.92124 78.5827 10.182 78.7343 10.4702 78.79C10.684 78.796 10.8945 78.8436 11.0902 78.93C11.327 79.0893 11.5973 79.1919 11.8802 79.23C12.1011 79.2198 12.3191 79.2831 12.5002 79.41C12.6654 79.5521 12.8726 79.6364 13.0902 79.65C13.9602 79.65 14.8302 79.65 15.7002 79.65C18.3902 79.65 21.0802 79.65 23.7702 79.65C24.4802 79.65 25.2302 79.47 25.8802 79.97C25.9702 80.05 26.1502 80.03 26.2902 80.03H29.7802C29.922 80.0255 30.0628 80.0053 30.2002 79.97C30.2702 79.97 30.3502 79.87 30.3502 79.82C30.3502 79.46 30.4202 79.11 30.4402 78.75C30.4622 78.5723 30.4478 78.3921 30.3979 78.2202C30.3481 78.0483 30.2638 77.8883 30.1502 77.75C29.9902 77.56 30.0402 77.34 30.0102 77.13C29.9802 76.92 30.0102 76.54 29.8802 76.28C29.6772 75.9861 29.569 75.6371 29.5702 75.28C29.5702 73.54 29.5702 71.79 29.5702 70.05C29.5702 69.93 29.6902 69.81 29.7602 69.68C29.7602 69.68 29.8902 69.76 29.9002 69.81C29.9902 70.5 30.7402 70.81 30.9002 71.44C30.9702 71.69 31.2402 71.9 31.4302 72.11C31.6202 72.32 32.0602 72.72 32.3202 73.11C32.5802 73.5 32.7802 74.22 33.3902 74.4C34.0002 74.58 34.2402 75.18 34.8302 75.33C35.0369 75.3983 35.2204 75.523 35.3602 75.69C35.9622 76.3103 36.6974 76.7857 37.5102 77.08C37.8275 77.2687 38.1624 77.4261 38.5102 77.55C38.7002 77.55 38.8502 77.81 39.0102 77.95C39.1702 78.09 39.2402 78.6 39.0102 78.69C38.402 78.927 37.8793 79.3417 37.5102 79.88C37.4202 79.99 37.5102 80.42 37.6602 80.45C37.7948 80.4861 37.9318 80.5129 38.0702 80.53C38.5071 80.4904 38.9453 80.592 39.3202 80.82C39.4395 80.897 39.5782 80.9386 39.7202 80.94H44.7202C44.8615 80.9262 44.9988 80.8846 45.124 80.8177C45.2493 80.7508 45.3601 80.6598 45.4502 80.55C45.5902 80.43 45.6502 80.31 45.5602 80.2L43.5602 78.12C43.8018 77.8581 44.0589 77.611 44.3302 77.38C44.6702 77.12 45.0702 76.94 45.4102 76.69C45.7502 76.44 46.0602 76.1 46.4102 75.81C47.0402 75.73 47.3102 75.11 47.8402 74.88C48.3702 74.65 48.8402 74.32 49.3802 74.13C49.9202 73.94 50.3802 73.32 51.0102 73.13C51.6402 72.94 51.8302 72.32 52.4502 72.19C52.7002 72.19 52.9102 71.85 53.1202 71.66C53.4674 71.2946 53.8816 70.9993 54.3402 70.79C54.5901 70.6443 54.7838 70.4189 54.8902 70.15C55.1904 69.424 55.6021 68.7492 56.1102 68.15C56.2002 68.06 56.1902 67.88 56.2502 67.75C56.2834 67.6889 56.3315 67.6373 56.3902 67.6C56.4902 67.67 56.6302 67.74 56.6502 67.83C56.6538 68.1821 56.7504 68.5271 56.9302 68.83C57.0304 68.9748 57.0906 69.1436 57.1046 69.3192C57.1187 69.4948 57.0861 69.671 57.0102 69.83C56.9002 70.09 56.6902 70.3 56.6802 70.61C56.6702 70.92 56.7802 71.37 56.5102 71.61C56.2402 71.85 56.3002 72.44 56.1302 72.82C55.9602 73.2 55.7202 73.58 55.5302 73.96C55.3195 74.3346 55.1325 74.722 54.9702 75.12C54.8102 75.58 54.3702 75.96 54.4602 76.51C54.3223 76.9132 54.1448 77.3018 53.9302 77.67C53.5816 78.308 53.4819 79.0526 53.6502 79.76C53.6731 79.8326 53.7144 79.8981 53.7702 79.95C53.8672 80.0997 53.9985 80.2241 54.1534 80.3129C54.3082 80.4016 54.4819 80.452 54.6602 80.46H62.7402C63.0942 80.4374 63.4457 80.5323 63.7402 80.73C63.8596 80.8056 63.9989 80.8439 64.1402 80.84C64.9402 80.84 65.7402 80.84 66.5402 80.84H76.1402H79.1902C79.4095 80.8346 79.6193 80.7492 79.7802 80.6C79.8902 80.51 79.9902 80.4 80.1002 80.3C80.6302 80 80.6302 79.89 80.2002 79.46ZM53.7202 17.46C53.7202 17.46 53.8502 17.46 53.8602 17.46C53.8995 17.5442 53.9329 17.6311 53.9602 17.72C53.6702 17.58 53.6002 17.51 53.7202 17.42V17.46ZM23.9402 28.55C24.1262 28.0889 24.368 27.6523 24.6602 27.25C25.3402 26.57 25.4802 25.58 26.0502 24.84C26.0502 24.04 26.7002 23.39 26.5402 22.56C26.5139 22.4924 26.5139 22.4175 26.5402 22.35C27.0102 21.88 26.8902 21.28 26.9002 20.7C26.9102 20.12 26.9002 19.7 26.9002 19.18C26.9002 18.66 26.9002 18.64 27.3202 17.76C27.4774 17.3595 27.7813 17.0341 28.1702 16.85C29.3202 16.27 30.4802 15.72 31.6202 15.14C32.4178 14.8181 33.1423 14.3385 33.7502 13.73C34.0502 13.38 34.5402 13.38 34.8402 13.05C35.0822 12.778 35.3502 12.5301 35.6402 12.31C35.8002 12.18 36.0302 12.14 36.2002 12.01C36.8902 11.49 37.7702 11.32 38.4702 10.81C38.9733 10.7878 39.4593 10.6212 39.8702 10.33C40.1602 10.33 40.4502 10.33 40.7402 10.33C41.7402 10.33 42.7402 10.33 43.7902 10.33C44.3646 10.2409 44.9522 10.2959 45.5002 10.49C45.9681 10.6705 46.4116 10.9091 46.8202 11.2C47.1084 11.2423 47.3715 11.388 47.5602 11.61C48.3902 12.43 49.2002 13.26 50.0502 14.06C50.4402 14.42 50.4402 14.99 50.8602 15.31C51.2091 15.6739 51.4722 16.1112 51.6302 16.59C51.8309 17.0518 52.1157 17.4723 52.4702 17.83C52.6932 18.0163 52.8975 18.224 53.0802 18.45C53.4402 18.96 54.0802 19.05 54.5302 19.36C54.6502 19.44 54.7602 19.36 54.8002 19.18C54.8402 19 54.8002 19.01 54.8002 18.97C54.5802 18.69 54.3602 18.41 54.1202 18.15C54.0314 18.0549 53.9814 17.93 53.9802 17.8C54.1522 17.7366 54.3383 17.7218 54.5182 17.757C54.6981 17.7923 54.8648 17.8763 55.0002 18C55.4502 18.48 55.9302 18.93 56.4002 19.38C56.8702 19.83 57.1502 20.27 57.7702 20.38C58.3133 20.7712 58.7387 21.3038 59.0002 21.92C59.1956 22.3822 59.4298 22.8272 59.7002 23.25C59.7154 23.3191 59.7154 23.3908 59.7002 23.46C59.6871 23.6469 59.7173 23.8344 59.7884 24.0078C59.8595 24.1813 59.9696 24.336 60.1102 24.46L61.0402 25.38C61.1802 25.52 61.2902 25.53 61.3702 25.38C61.4069 25.3214 61.434 25.2572 61.4502 25.19C61.4773 25.0115 61.4644 24.8292 61.4125 24.6563C61.3607 24.4833 61.2711 24.3241 61.1502 24.19C61.0845 24.1057 61.0488 24.0018 61.0488 23.895C61.0488 23.7881 61.0845 23.6843 61.1502 23.6C61.1502 23.6 61.2802 23.51 61.3002 23.53C61.6202 23.82 61.9402 24.11 62.2502 24.42C62.4102 24.57 62.6302 24.71 62.6802 24.9C62.8916 25.3558 63.1753 25.7745 63.5202 26.14C63.6667 26.3863 63.7938 26.6438 63.9002 26.91L64.1002 27.28C64.3202 27.73 64.5502 28.18 64.7402 28.64C64.9302 29.1 65.2602 29.64 65.5202 30.16C65.7964 30.5806 66.1334 30.958 66.5202 31.28L67.6102 32.34C67.7202 32.44 67.8202 32.55 67.9202 32.65C68.2373 32.9587 68.5283 33.2931 68.7902 33.65C69.0202 34 69.1402 34.42 69.3502 34.79C69.6555 35.2812 69.8086 35.8519 69.7902 36.43C69.7902 37.37 69.7902 38.31 69.7902 39.26C69.8336 39.768 69.7031 40.2758 69.4202 40.7C69.3102 40.85 69.3702 41.12 69.3202 41.33C69.2702 41.54 69.1302 41.74 68.9402 41.57C68.7502 41.4 68.5002 41.18 68.3002 40.97C68.1387 40.8229 68.0417 40.6181 68.0302 40.4C68.0302 39.09 68.0302 37.79 68.0302 36.48C67.9323 35.773 67.6378 35.1077 67.1802 34.56C67.1084 34.4793 67.0182 34.4171 66.9172 34.3788C66.8162 34.3405 66.7074 34.3272 66.6002 34.34C66.3802 34.34 66.3202 34.4 66.6002 34.82C66.8802 35.24 66.6702 35.82 67.0802 36.24C67.161 36.3571 67.1997 36.498 67.1902 36.64C67.1902 37.8 67.1902 38.96 67.1902 40.12C67.1718 40.1869 67.1364 40.248 67.0873 40.297C67.0382 40.3461 66.9771 40.3816 66.9102 40.4C65.9102 40.4 64.9102 40.4 63.8602 40.46C63.7144 40.4626 63.5725 40.4129 63.4602 40.32C62.8402 39.71 62.2302 39.09 61.6202 38.47C61.4902 37.76 60.8902 37.41 60.4502 36.95C59.6502 36.1 58.8002 35.31 58.0002 34.47C57.4214 34.031 56.9581 33.4578 56.6502 32.8C56.5802 32.57 56.2702 32.62 56.0902 32.51C55.6702 32.25 53.4302 31 52.7702 30.58C51.9375 30.2573 51.061 30.0618 50.1702 30C48.5702 30 46.9802 30 45.3802 30C44.5982 30.0543 43.8358 30.2687 43.1402 30.63C42.7702 30.98 41.4302 31.82 41.3702 32.13C41.3144 32.338 41.1998 32.5254 41.0402 32.67C40.9133 32.8488 40.728 32.9777 40.5161 33.0343C40.3043 33.0909 40.0793 33.0717 39.8802 32.98C39.7526 32.9141 39.629 32.8406 39.5102 32.76C39.3204 32.6588 39.1067 32.6109 38.8919 32.6215C38.6771 32.6321 38.4691 32.7006 38.2902 32.82C38.0602 32.95 37.8702 32.82 37.8602 32.64C37.8276 32.4991 37.8259 32.3529 37.8552 32.2113C37.8846 32.0698 37.9442 31.9362 38.0302 31.82C38.0749 31.7619 38.1251 31.7084 38.1802 31.66C38.4007 31.4704 38.5689 31.2274 38.6687 30.9543C38.7684 30.6812 38.7965 30.387 38.7502 30.1C38.7502 29.94 38.7502 29.76 38.5902 29.72C38.4302 29.68 38.3502 29.93 38.2802 30.09C38.2102 30.25 38.0102 30.59 37.8802 30.85C37.7502 31.11 37.7802 31.12 37.7002 31.23C37.5653 31.4019 37.4031 31.5505 37.2202 31.67C37.2202 31.67 37.0002 31.52 36.8902 31.42C36.6402 31.1693 36.3494 30.963 36.0302 30.81C35.4729 30.4936 34.891 30.2227 34.2902 30C32.7402 29.61 30.6502 29.16 30.5902 29.16C29.9302 29.16 29.2802 29.16 28.5902 29.16C27.4073 29.3745 26.2553 29.7339 25.1602 30.23C25.1128 30.2822 25.0496 30.3174 24.9802 30.33C24.9302 30.33 24.8602 30.33 24.8202 30.25C24.774 30.1976 24.749 30.1298 24.7502 30.06C24.8999 29.5888 25.1154 29.141 25.3902 28.73C25.4729 28.6115 25.5704 28.504 25.6802 28.41L26.8602 27.13C26.9402 26.58 27.4202 26.3 27.6702 25.87C27.8023 25.5385 27.9881 25.2311 28.2202 24.96C28.4634 24.6729 28.6592 24.3488 28.8002 24C29.0002 23.69 29.0802 23.33 29.2802 23C29.5247 22.4791 29.8448 21.9972 30.2302 21.57C30.6624 21.1828 31.073 20.7722 31.4602 20.34L32.2602 19.6C32.3102 19.55 32.3702 19.48 32.4302 19.47C32.9902 19.41 33.2602 18.9 33.6902 18.66C33.9302 18.52 34.2002 18.42 34.4602 18.28C35.7202 17.62 36.9902 16.99 38.2802 16.38C38.5502 16.26 38.7702 16.07 39.0402 15.98C39.3102 15.89 39.6302 15.98 39.8702 15.81C40.1745 15.6294 40.5171 15.5232 40.8702 15.5C42.4002 15.5 43.8702 15.5 45.4502 15.5C45.9572 15.4475 46.4651 15.5906 46.8702 15.9C47.2988 15.9102 47.7181 16.027 48.0902 16.24C48.5102 16.48 49.0902 16.39 49.4802 16.75C49.8923 16.8652 50.3281 16.8652 50.7402 16.75C50.7851 16.7104 50.8224 16.663 50.8502 16.61C50.5202 16.34 50.0702 16.27 49.7902 15.91C49.6716 15.7628 49.5178 15.6481 49.3429 15.5764C49.1681 15.5047 48.9779 15.4784 48.7902 15.5C48.6469 15.4958 48.5093 15.4429 48.4002 15.35C47.8202 14.81 47.2502 14.25 46.6802 13.69L45.2802 12.32C45.1743 12.2217 45.0499 12.1454 44.9143 12.0957C44.7787 12.0459 44.6345 12.0235 44.4902 12.03C44.3475 12.0146 44.2086 11.974 44.0802 11.91C43.8802 11.83 43.7002 11.66 43.5002 11.65C42.2718 11.56 41.0385 11.56 39.8102 11.65C39.7502 11.65 39.7002 11.73 39.6402 11.78C39.7302 11.86 39.8102 12 39.9102 12.01C40.2002 12.01 40.4902 12.01 40.7802 12.01C40.9211 12.0177 41.0582 12.0588 41.1802 12.13C41.4141 12.3003 41.6915 12.4009 41.9802 12.42C42.3275 12.378 42.679 12.4519 42.9802 12.63C43.2208 12.7932 43.5107 12.8675 43.8002 12.84C43.9431 12.8245 44.0873 12.8245 44.2302 12.84C44.3734 12.8512 44.5112 12.8995 44.6302 12.98C45.1002 13.43 45.5702 13.89 46.0102 14.37C46.0802 14.45 46.0102 14.64 46.0102 14.78C46.0102 14.92 45.5502 15.07 45.4402 14.98C45.1055 14.6999 44.6755 14.5602 44.2402 14.59C43.7302 14.59 43.2402 14.59 42.7102 14.59C42.135 14.6929 41.5422 14.5751 41.0502 14.26C40.9264 14.1875 40.7829 14.156 40.6402 14.17H36.5002C36.1702 14.17 35.9902 14.41 35.8002 14.62C35.7522 14.6723 35.7149 14.7334 35.6902 14.8C35.7805 14.8926 35.8947 14.9583 36.0202 14.99C36.2322 15.0356 36.4533 15.011 36.6502 14.92C36.847 14.7898 37.0675 14.6998 37.2992 14.6552C37.5309 14.6106 37.7691 14.6122 38.0002 14.66C38.2902 14.66 38.5902 14.66 38.8702 14.66C38.9976 14.71 39.1012 14.8065 39.1602 14.93C39.2502 15.09 39.0902 15.45 38.9302 15.46C38.413 15.5054 37.9183 15.6922 37.5002 16C37.3802 16.07 37.2302 16.09 37.1102 16.16C36.1702 16.67 35.1902 17.1 34.2502 17.61C33.8517 17.7703 33.4831 17.9968 33.1602 18.28C33.0602 18.39 32.9502 18.53 32.8202 18.55C32.3202 18.66 31.9702 19.08 31.4802 19.2C31.4102 19.2 31.3602 19.28 31.3102 19.33C30.7902 19.84 30.3102 20.33 29.7502 20.85C29.4082 21.2194 29.128 21.6415 28.9202 22.1C28.7284 22.5638 28.4615 22.9929 28.1302 23.37C27.9922 23.5315 27.8869 23.7183 27.8202 23.92C27.4847 24.7105 26.9834 25.4198 26.3502 26L25.7502 26.63C25.6702 27.27 25.0202 27.52 24.8002 28.04C24.7209 28.3136 24.5769 28.564 24.3802 28.77C24.2902 28.85 24.1402 28.95 24.0602 28.92C24.0265 28.9052 23.9963 28.8836 23.9716 28.8563C23.947 28.8291 23.9283 28.7969 23.917 28.7619C23.9057 28.727 23.9019 28.69 23.9059 28.6535C23.9098 28.6169 23.9215 28.5817 23.9402 28.55V28.55ZM54.7502 36.34C54.3752 37.1046 53.9544 37.846 53.4902 38.56C52.7722 39.2584 52.0071 39.9066 51.2002 40.5C50.7795 40.7651 50.338 40.9959 49.8802 41.19C49.2585 41.2867 48.6289 41.3236 48.0002 41.3C47.4402 41.2 46.8402 41.46 46.3002 41.12C45.5802 40.66 44.6802 40.54 44.0902 39.85C43.9002 39.62 42.1502 38.24 41.8202 36.96C41.7502 36.66 41.4702 36.46 41.4502 36.2C41.2795 35.3461 41.3 34.465 41.5102 33.62C42.4002 31.2 45.9302 31.31 45.9002 31.28C46.2729 31.2501 46.6474 31.2501 47.0202 31.28C47.4502 31.28 47.8902 31.28 48.3202 31.21C48.4637 31.2001 48.6019 31.1517 48.7202 31.07C48.9834 30.9 49.2875 30.8038 49.6006 30.7915C49.9137 30.7792 50.2244 30.8512 50.5002 31C50.6826 31.1109 50.8877 31.1793 51.1002 31.2C51.5402 31.2 51.9702 31.25 52.4002 31.27C52.9802 31.7 53.7002 31.87 54.3002 32.27C54.4931 32.3721 54.6513 32.5294 54.7546 32.7217C54.8579 32.914 54.9016 33.1327 54.8802 33.35C54.8802 33.78 54.8802 34.22 54.8802 34.65C54.8802 35.08 55.0002 35.81 54.7502 36.34ZM23.8902 35.28C23.9253 34.7038 23.9253 34.1261 23.8902 33.55C23.8302 32.99 24.7302 31.72 24.8902 31.48C24.9975 31.2471 25.1771 31.0551 25.4023 30.9325C25.6276 30.81 25.8864 30.7635 26.1402 30.8C26.2802 30.8 26.5802 30.55 26.7102 30.49L28.5002 30C29.1892 29.89 29.8912 29.89 30.5802 30C32.138 30.2634 33.6544 30.7307 35.0902 31.39C35.2102 31.46 36.7302 32.96 36.4502 33.72C36.4359 33.7482 36.4162 33.7734 36.3922 33.794C36.3681 33.8145 36.3403 33.8302 36.3102 33.84C36.1947 34.1262 36.1337 34.4314 36.1302 34.74C36.1302 35.11 35.2102 36.74 35.2402 37.33C34.854 38.0897 34.3845 38.8041 33.8402 39.46C33.4417 39.7561 33.0203 40.0203 32.5802 40.25C32.3302 40.45 31.0502 40.5 30.7402 40.73C29.6922 40.6926 28.6472 40.5958 27.6102 40.44C27.3223 40.4175 27.0507 40.2975 26.8402 40.1C26.3802 39.64 25.9002 39.2 25.4502 38.73C24.6558 37.7249 24.1201 36.5403 23.8902 35.28V35.28ZM30.8902 68.53C30.8995 68.6665 30.8995 68.8035 30.8902 68.94C30.8829 68.9737 30.8683 69.0055 30.8476 69.0331C30.8269 69.0607 30.8005 69.0835 30.7702 69.1C30.7702 69.1 30.6602 69.1 30.6202 69.1C30.4154 69.0036 30.2458 68.846 30.1347 68.6489C30.0236 68.4518 29.9766 68.225 30.0002 68C30.0002 67.73 29.9302 67.44 30.1002 67.19C30.1002 67.19 30.2002 67.1 30.2302 67.11C30.4316 67.1847 30.6035 67.3224 30.7206 67.5025C30.8376 67.6826 30.8936 67.8956 30.8802 68.11C30.9102 68.25 30.9002 68.39 30.8902 68.53ZM34.3702 73.22C34.3551 73.2884 34.3203 73.351 34.2702 73.4C34.1802 73.51 34.0702 73.48 33.9402 73.35C33.7219 73.1585 33.5181 72.9513 33.3302 72.73C33.1349 72.4345 32.9644 72.1234 32.8202 71.8C32.7218 71.5354 32.6048 71.2781 32.4702 71.03C32.3002 70.79 32.2602 70.48 32.0902 70.27C31.9234 70.0351 31.8094 69.7669 31.7559 69.4839C31.7024 69.2008 31.7107 68.9095 31.7802 68.63C31.7802 68.53 31.9702 68.45 32.0702 68.37C32.2087 68.3771 32.3446 68.411 32.4702 68.47C32.6402 68.59 32.8602 68.74 32.9202 68.92C33.1138 69.3845 33.4114 69.7985 33.7902 70.13C33.8846 70.2361 33.944 70.3688 33.9602 70.51C33.9802 70.8697 33.9802 71.2302 33.9602 71.59C33.9465 71.8811 34.0429 72.1667 34.2302 72.39C34.3714 72.6421 34.4209 72.9354 34.3702 73.22ZM34.6402 68.63C34.5898 68.6764 34.5288 68.7097 34.4626 68.7271C34.3964 68.7446 34.3269 68.7456 34.2602 68.73C34.0975 68.6617 33.9506 68.5608 33.8285 68.4336C33.7064 68.3063 33.6116 68.1553 33.5502 67.99C33.5327 67.9577 33.5235 67.9216 33.5235 67.885C33.5235 67.8483 33.5327 67.8122 33.5502 67.78C33.7702 67.5 34.0002 67.23 34.2402 66.97C34.7161 66.5366 35.1062 66.0176 35.3902 65.44C35.579 65.1344 35.8192 64.8638 36.1002 64.64C36.2802 64.44 36.4502 64.55 36.6302 64.64C37.0893 64.6698 37.5503 64.6362 38.0002 64.54C38.0215 64.5277 38.0456 64.5212 38.0702 64.5212C38.0948 64.5212 38.1189 64.5277 38.1402 64.54C38.2602 64.64 37.7802 65.1 37.7102 65.21C37.4219 65.5177 37.1641 65.8526 36.9402 66.21C36.5689 66.8267 36.0755 67.3609 35.4902 67.78C35.0002 67.88 34.8502 68.26 34.6402 68.63ZM35.4602 68.79C35.7602 68.48 36.0802 68.19 36.3902 67.88C36.7002 67.57 37.1802 67.02 37.6202 66.64C38.0233 66.2311 38.3606 65.7622 38.6202 65.25C38.7011 65.1282 38.8111 65.0286 38.9402 64.96C39.0602 64.9 39.2702 64.83 39.3402 64.88C39.7902 65.25 40.4202 65.29 40.8002 65.78C40.9002 65.91 40.9902 66.25 40.8902 66.37C40.4942 66.7886 40.1577 67.2596 39.8902 67.77C39.6992 68.0801 39.4516 68.3515 39.1602 68.57C38.8608 68.8878 38.5437 69.1882 38.2102 69.47C37.8802 69.73 37.4302 69.82 37.1402 70.17C36.8502 70.52 36.6202 70.67 36.3302 70.94C36.0102 70.61 35.7002 70.3 35.4102 69.94C35.2899 69.7699 35.2295 69.5646 35.2386 69.3564C35.2476 69.1483 35.3256 68.949 35.4602 68.79V68.79ZM36.5502 74.87C36.4833 74.878 36.4154 74.8694 36.3527 74.845C36.2899 74.8206 36.2341 74.7811 36.1902 74.73C36.0602 74.57 35.8302 74.43 35.7902 74.25C35.7102 73.82 35.3302 73.54 35.2702 73.12C35.2453 72.9811 35.2453 72.8389 35.2702 72.7C35.3155 72.5713 35.3795 72.45 35.4602 72.34C35.4602 72.34 35.5702 72.41 35.6002 72.46C35.7202 72.7 35.7402 73 35.9802 73.18C36.2224 73.3812 36.404 73.6458 36.5046 73.9442C36.6052 74.2426 36.621 74.5631 36.5502 74.87V74.87ZM36.7202 75.22C36.5902 75.22 36.5602 75.04 36.5702 74.9C36.6312 74.8769 36.6989 74.8787 36.7587 74.9048C36.8185 74.931 36.8657 74.9795 36.8902 75.04C36.9402 75.19 36.8602 75.27 36.7202 75.22V75.22ZM37.4702 73.74C37.2441 73.132 36.9559 72.5489 36.6102 72C36.5302 71.88 36.6102 71.48 36.7902 71.44C37.0641 71.3547 37.3165 71.2114 37.5302 71.02C37.9602 70.65 38.2802 70.13 38.9002 70.02C39.5102 69.43 40.2802 68.97 40.5602 68.09C41.3202 67.33 41.6502 66.23 42.5602 65.59C42.7703 65.396 43.0442 65.2857 43.3302 65.28C43.7602 65.28 44.1902 65.28 44.6202 65.28C44.7702 65.28 44.8302 65.47 44.8202 65.62C44.8384 65.6915 44.8348 65.7669 44.8099 65.8364C44.7849 65.9059 44.7398 65.9664 44.6802 66.01C44.0502 66.61 43.8002 67.48 43.1702 68.08C43.0953 68.4341 42.9012 68.7518 42.6202 68.98C42.5683 69.0285 42.5214 69.0821 42.4802 69.14C41.6173 69.8975 40.8695 70.7768 40.2602 71.75L39.0002 73C38.5302 73.1761 38.1062 73.4564 37.7602 73.82C37.6402 74 37.5502 73.94 37.4702 73.74V73.74ZM56.2402 63C56.2402 63.22 56.2402 63.44 56.2402 63.65C56.2683 63.9424 56.1862 64.2348 56.0102 64.47C55.6702 64.81 55.9502 65.33 55.6402 65.68C55.5274 65.8183 55.4451 65.9789 55.3986 66.1512C55.3521 66.3235 55.3424 66.5037 55.3702 66.68C55.4302 67.16 55.0202 67.47 54.9602 67.88C54.9242 68.305 54.736 68.7027 54.4302 69C53.7902 69.6 53.1802 70.22 52.5802 70.85C52.2494 71.1179 51.8907 71.3492 51.5102 71.54C51.2002 71.76 51.0402 71.68 50.7902 71.54C50.7536 71.4993 50.7089 71.4668 50.6589 71.4445C50.609 71.4222 50.5549 71.4107 50.5002 71.4107C50.4455 71.4107 50.3914 71.4222 50.3414 71.4445C50.2915 71.4668 50.2467 71.4993 50.2102 71.54C50.0052 71.7382 49.8331 71.9677 49.7002 72.22C49.6 72.4892 49.4352 72.7296 49.2202 72.92C49.2202 72.98 49.1102 73.05 49.0502 73.06C48.4302 73.16 48.1202 73.73 47.6102 73.99C47.474 74.0186 47.332 73.9973 47.2102 73.93C47.1749 73.917 47.1428 73.8967 47.1158 73.8706C47.0888 73.8444 47.0676 73.8129 47.0534 73.7781C47.0393 73.7433 47.0326 73.7059 47.0338 73.6683C47.0349 73.6308 47.0439 73.5939 47.0602 73.56C47.0602 73.5 47.0602 73.41 47.0602 73.36C47.4502 72.85 47.6102 72.18 48.1202 71.75C48.1722 71.6968 48.216 71.6361 48.2502 71.57C48.3302 71.46 48.2502 71.01 48.0602 71.01C47.9177 71.0053 47.7756 71.0256 47.6402 71.07C47.6057 71.0824 47.5744 71.1024 47.5485 71.1283C47.5226 71.1542 47.5027 71.1855 47.4902 71.22C47.4202 71.85 46.7502 72.1 46.5802 72.66C46.4102 73.22 45.6802 73.66 45.5802 74.3C45.0802 74.83 44.5802 75.36 44.0702 75.88C43.721 76.2357 43.3503 76.5697 42.9602 76.88C42.7255 77.0375 42.4739 77.1683 42.2102 77.27C42.0802 77.3709 41.9298 77.4423 41.7694 77.4791C41.609 77.5158 41.4424 77.5171 41.2815 77.4828C41.1205 77.4485 40.969 77.3795 40.8375 77.2806C40.706 77.1816 40.5977 77.0551 40.5202 76.91C40.4664 76.8191 40.4441 76.713 40.4568 76.6081C40.4694 76.5032 40.5163 76.4055 40.5902 76.33C41.6894 75.6351 42.6604 74.7555 43.4602 73.73C43.5302 73.17 44.0002 72.89 44.3202 72.52C44.555 72.2471 44.7471 71.9403 44.8902 71.61C45.0874 71.307 45.3117 71.0225 45.5602 70.76C45.632 70.6336 45.677 70.4938 45.6925 70.3493C45.708 70.2048 45.6936 70.0587 45.6502 69.92C45.6502 69.86 45.5802 69.79 45.5202 69.76C45.4949 69.749 45.4677 69.7433 45.4402 69.7433C45.4126 69.7433 45.3854 69.749 45.3602 69.76C45.2435 69.8487 45.1332 69.9456 45.0302 70.05C44.7802 70.31 44.8002 70.72 44.5002 70.98C44.23 71.2234 43.9793 71.4876 43.7502 71.77C43.5202 72.04 43.2002 72.24 43.0802 72.61C42.8476 73.1596 42.4753 73.6388 42.0002 74C41.4587 74.6838 40.8063 75.272 40.0702 75.74C39.7567 75.9141 39.4703 76.133 39.2202 76.39C38.9202 76.67 38.7402 76.39 38.5002 76.32C37.9902 76.18 37.7602 75.92 37.8202 75.4C37.8202 75.26 37.8202 75.11 37.8202 74.96C37.805 74.8908 37.805 74.8191 37.8202 74.75C37.8472 74.6822 37.8966 74.6258 37.9602 74.59C38.5567 74.3283 39.084 73.9311 39.5002 73.43C40.5002 72.43 41.5002 71.43 42.4202 70.49C42.9339 70.0882 43.3309 69.5566 43.5702 68.95C44.0175 68.4832 44.3796 67.9417 44.6402 67.35C44.8349 66.9687 45.0554 66.6012 45.3002 66.25C45.7957 65.5448 46.2179 64.7909 46.5602 64C46.5747 63.9652 46.582 63.928 46.5818 63.8903C46.5815 63.8527 46.5737 63.8155 46.5588 63.781C46.5438 63.7464 46.5221 63.7153 46.4949 63.6893C46.4676 63.6634 46.4354 63.6432 46.4002 63.63C46.2728 63.5608 46.1301 63.5246 45.9852 63.5246C45.8402 63.5246 45.6976 63.5608 45.5702 63.63C45.149 63.9128 44.6467 64.0498 44.1402 64.02C43.7024 63.9602 43.2583 64.0712 42.9002 64.33C42.779 64.4005 42.6403 64.4352 42.5002 64.43H41.1902C40.9026 64.4133 40.6254 64.3163 40.3902 64.15C39.9002 63.87 39.3902 63.69 38.8702 63.39C38.5602 63.2 38.3902 63.3 38.1202 63.39C37.5645 63.5532 36.9773 63.5773 36.4102 63.46C36.2202 63.46 36.0502 63.16 35.8502 63.14C35.3474 63.105 34.8429 63.105 34.3402 63.14C34.1968 63.1598 34.0653 63.2308 33.9702 63.34C33.4402 63.83 32.9702 64.34 32.4002 64.85C32.2602 64.98 32.2402 65.12 32.4002 65.18C32.5602 65.24 32.7202 65.29 32.8002 65.24C33.3202 64.87 34.0002 64.73 34.4202 64.24C34.5246 64.1471 34.6526 64.0848 34.7902 64.06C34.8596 64.0316 34.937 64.0303 35.0074 64.0562C35.0777 64.0821 35.1358 64.1334 35.1702 64.2C35.2302 64.32 35.3002 64.53 35.2402 64.6C34.6624 65.513 33.9922 66.3641 33.2402 67.14C33.1202 67.24 33.0202 67.38 32.8902 67.4C32.7602 67.42 32.6602 67.27 32.5402 67.21C32.4202 67.15 31.9602 67.02 31.7902 66.82C31.3796 66.4161 30.8843 66.1086 30.3402 65.92C29.3417 65.487 28.5496 64.6842 28.1302 63.68C27.8002 63.37 27.8402 62.85 27.4602 62.58C27.0802 62.31 27.0202 61.86 26.7802 61.5C26.5402 61.14 26.0602 60.79 25.9802 60.24C25.7157 59.8816 25.5785 59.4452 25.5902 59C25.0402 58.54 25.3902 57.72 24.8902 57.23C24.8002 57.15 24.8102 56.96 24.8002 56.82C24.7801 56.4569 24.7801 56.093 24.8002 55.73C24.787 55.2979 24.6518 54.8784 24.4102 54.52C24.3339 54.24 24.3135 53.9478 24.3502 53.66C24.3502 53.09 24.4502 52.5 24.0302 52C23.9605 51.8753 23.9325 51.7317 23.9502 51.59C23.9502 49.59 23.9502 47.52 23.9502 45.48C23.9502 45.34 24.6302 41.29 24.8702 40.7C24.9867 40.5548 25.1482 40.4525 25.3292 40.409C25.5102 40.3656 25.7005 40.3835 25.8702 40.46C26.1079 40.6292 26.335 40.8129 26.5502 41.01C26.6561 41.1082 26.7804 41.1845 26.9161 41.2343C27.0517 41.2841 27.1958 41.3064 27.3402 41.3C27.4818 41.2934 27.6218 41.3319 27.7402 41.41C28.0347 41.6095 28.3846 41.711 28.7402 41.7C29.7402 41.7 30.7402 41.7 31.7902 41.7C31.8961 41.703 31.9977 41.7424 32.0778 41.8116C32.158 41.8809 32.2118 41.9757 32.2302 42.08C32.2302 42.29 32.2302 42.51 32.2302 42.73C31.7202 43.27 31.8602 43.94 31.8402 44.58C31.8466 44.8682 31.9486 45.1461 32.1302 45.37C32.2001 45.4543 32.2384 45.5604 32.2384 45.67C32.2384 45.7795 32.2001 45.8856 32.1302 45.97C31.7302 46.39 31.3102 46.8 30.9102 47.22C30.3699 47.6109 29.9226 48.1162 29.6002 48.7C29.4102 49.27 28.7302 49.5 28.6802 50.13C28.3722 50.4205 28.1123 50.758 27.9102 51.13C27.739 51.5104 27.4904 51.851 27.1802 52.13C26.8802 52.45 26.5702 52.75 26.2702 53.07C26.2349 53.1209 26.211 53.1789 26.2002 53.24C26.3218 53.3119 26.4531 53.3658 26.5902 53.4C26.7314 53.4293 26.8776 53.4247 27.0167 53.3864C27.1558 53.3482 27.2838 53.2774 27.3902 53.18L28.0102 52.57C28.3669 52.2141 28.652 51.7932 28.8502 51.33C29.0843 50.8356 29.4023 50.3856 29.7902 50C30.3527 49.639 30.7785 49.1005 31.0002 48.47C31.6202 47.85 32.2302 47.23 32.8502 46.63C32.9645 46.5434 33.1077 46.5041 33.2502 46.52C33.62 46.5168 33.9759 46.3781 34.2502 46.13C34.3139 46.0983 34.384 46.0818 34.4552 46.0818C34.5263 46.0818 34.5965 46.0983 34.6602 46.13C34.8394 46.2541 35.0038 46.3984 35.1502 46.56C36.1502 47.5 35.8502 47.36 37.2502 47.39C37.5386 47.3693 37.8155 47.2689 38.0502 47.1C38.4066 46.8649 38.7935 46.6799 39.2002 46.55C39.5502 46.46 39.9202 46.49 40.2002 46.23C40.3102 46.13 40.4102 46.23 40.5602 46.3C40.9515 46.4787 41.3292 46.6859 41.6902 46.92C42.3502 46.92 43.0002 46.92 43.6902 46.92C43.8333 46.8927 43.9634 46.8189 44.0602 46.71C44.2002 46.58 44.3102 46.53 44.4202 46.65L45.3102 47.59C45.3802 48.15 45.8702 48.42 46.1202 48.85C46.2583 49.1806 46.4473 49.4877 46.6802 49.76C47.2877 50.4502 47.7685 51.2424 48.1002 52.1C48.3202 52.52 48.7702 52.93 48.1002 53.54C47.5202 53.54 46.6902 53.93 46.1002 53.96C45.739 53.9667 45.3863 53.8504 45.1002 53.63C44.5376 53.3308 43.9234 53.1408 43.2902 53.07C42.5229 52.9139 41.7843 52.6407 41.1002 52.26C40.821 52.1984 40.5646 52.0598 40.3602 51.86C39.1902 51.49 39.2302 51.04 38.6202 51.08C38.0102 51.12 37.3502 51.31 36.6202 51.34C36.3702 51.34 36.2202 51.19 36.0302 51.09C35.9177 51.0037 35.7882 50.9424 35.6502 50.91C35.1402 50.91 34.6502 50.91 34.1302 50.91C33.9144 50.9224 33.7049 50.9876 33.5202 51.1C32.9202 51.5 32.2102 51.66 31.6302 52.1C31.3402 52.32 31.0902 52.19 30.8602 51.99C30.8083 51.9407 30.7513 51.8971 30.6902 51.86C30.4202 51.71 30.1802 51.22 30.1602 51.5C30.1402 51.78 30.4302 52.66 30.4502 52.95C30.4702 53.24 29.8902 53.43 29.7602 53.6C29.6594 53.7028 29.603 53.841 29.603 53.985C29.603 54.1289 29.6594 54.2672 29.7602 54.37C29.7602 54.37 30.4102 54.03 30.4502 54.1C30.5902 54.39 30.0402 55.37 29.8502 55.57C29.3519 56.1762 28.9412 56.8495 28.6302 57.57C28.295 58.1246 28.1807 58.785 28.3102 59.42C28.3179 59.4548 28.3325 59.4878 28.3531 59.517C28.3737 59.5462 28.3999 59.571 28.4302 59.59C28.4302 59.59 28.5502 59.53 28.6102 59.49C28.8402 59.31 29.1002 59.11 29.1002 58.81C29.1451 58.1444 29.4008 57.5104 29.8302 57C30.3384 56.3158 30.7055 55.5373 30.9102 54.71C31.0202 54.37 31.2502 54.09 31.3502 53.71C31.4502 53.33 31.7102 53.27 31.9102 53.06C32.1102 52.85 32.4402 52.56 32.7102 52.33C32.8186 52.233 32.9553 52.1735 33.1002 52.16C33.9668 52.16 34.8368 52.16 35.7102 52.16C35.8495 52.1884 35.9799 52.2501 36.0902 52.34C36.2649 52.468 36.4738 52.5411 36.6902 52.55C36.9802 52.55 37.2802 52.55 37.5702 52.55C37.8606 52.5283 38.1479 52.6217 38.3702 52.81C38.5454 52.9404 38.7628 53.001 38.9802 52.98C39.4102 52.98 41.0602 53.4 41.4902 53.43C41.9202 53.46 44.6002 54.31 44.9702 54.3C45.3162 54.3768 45.6518 54.4942 45.9702 54.65C46.7961 54.7075 47.6207 54.5196 48.3402 54.11C48.4402 54.05 48.3402 54.49 48.3402 54.66C48.3779 54.8008 48.3868 54.9479 48.3661 55.0922C48.3455 55.2366 48.2959 55.3753 48.2202 55.5C47.9802 55.77 47.7502 56.05 47.5202 56.33C47.5202 56.9 47.2102 56.85 46.8602 56.57C46.8602 56.57 46.7402 56.57 46.7302 56.64C46.6723 56.7694 46.6384 56.9084 46.6302 57.05C46.6302 58.64 46.6302 60.24 46.6302 61.84C46.6297 61.8725 46.6372 61.9046 46.652 61.9336C46.6668 61.9626 46.6885 61.9875 46.7151 62.0062C46.7417 62.0249 46.7724 62.0369 46.8047 62.041C46.8369 62.0451 46.8697 62.0414 46.9002 62.03C46.9616 61.9944 47.0079 61.9374 47.0302 61.87C47.0401 61.5851 47.0872 61.3027 47.1702 61.03C47.3675 60.7321 47.4815 60.3868 47.5002 60.03C47.5002 59.67 47.5002 59.3 47.5002 58.94C47.4574 58.6892 47.4702 58.432 47.5376 58.1867C47.6049 57.9413 47.7253 57.7138 47.8902 57.52C47.8402 56.89 48.2402 56.52 48.5702 56C48.9805 55.3716 49.3225 54.7011 49.5902 54C49.6502 53.86 49.5902 53.73 49.4802 53.6C49.4002 53.5272 49.3379 53.4371 49.298 53.3366C49.2582 53.2361 49.2418 53.1278 49.2502 53.02C49.2559 52.9497 49.2839 52.8831 49.3302 52.83C49.3302 52.83 49.4502 52.76 49.4802 52.78C49.7147 52.9493 49.9384 53.133 50.1502 53.33C50.61 53.5272 51.1119 53.6063 51.6102 53.56L52.6702 53C52.7702 52.51 50.7902 52.71 50.4402 52.41C50.0902 52.11 49.7702 52.18 49.5202 51.87C49.3296 51.6543 49.1259 51.4506 48.9102 51.26C48.1775 50.4681 47.5367 49.5959 47.0002 48.66C46.5828 47.9159 46.101 47.2098 45.5602 46.55C45.2702 46.22 43.6702 42.92 43.2602 42.55C42.8502 42.18 42.5302 41.84 42.1702 41.49C42.0202 41.35 41.9202 41.38 41.8502 41.58C41.8257 41.6478 41.8257 41.7221 41.8502 41.79C42.0619 42.4021 42.4029 42.9615 42.8502 43.43C42.9558 43.5277 43.039 43.6471 43.0943 43.78C43.1495 43.9129 43.1754 44.0562 43.1702 44.2C43.2071 44.4847 43.3136 44.7561 43.4802 44.99C43.5393 45.195 43.5729 45.4067 43.5802 45.62C43.5831 45.726 43.5515 45.8301 43.4902 45.9167C43.4289 46.0032 43.3412 46.0675 43.2402 46.1C42.9563 46.1695 42.6566 46.1303 42.4002 45.99C41.9902 45.7 41.7102 45.24 41.1602 45.15L40.0402 44.15C39.8202 43.95 39.6002 43.95 39.2602 44.15C39.1487 44.2393 39.028 44.3164 38.9002 44.38C38.5902 44.46 38.4902 44.68 38.3302 44.94C38.0302 45.42 37.9502 46.04 37.4502 46.4C37.3102 46.51 36.9702 46.63 36.8502 46.55C36.7302 46.47 36.6202 46.37 36.4902 46.31C36.2205 46.2188 35.9718 46.0745 35.7588 45.8855C35.5458 45.6966 35.3729 45.4669 35.2502 45.21C34.926 44.6452 34.4945 44.1493 33.9802 43.75C33.7502 43.52 33.6002 43.75 33.4402 43.83C33.2802 43.91 33.1802 43.89 33.1502 43.69C33.0698 43.4117 33.0911 43.114 33.2102 42.85C33.4002 42.47 33.6102 42.1 33.8102 41.72C33.9531 41.3152 34.1778 40.9442 34.4702 40.63C34.8302 40.35 34.8302 39.85 35.1502 39.55C35.8602 38.89 36.0002 37.9 36.5502 37.15C36.5502 36.35 37.2102 35.71 37.0702 34.87C37.0702 34.62 37.2102 34.49 37.4102 34.4C37.7271 34.2186 38.0623 34.0711 38.4102 33.96C38.8457 33.9149 39.2847 33.9149 39.7202 33.96C39.9288 34.0107 40.1183 34.1208 40.2656 34.277C40.4129 34.4332 40.5118 34.6287 40.5502 34.84C40.5502 35.06 40.5502 35.28 40.5502 35.5C40.543 36.076 40.5865 36.6516 40.6802 37.22C40.8849 37.7527 41.1393 38.265 41.4402 38.75C41.4818 38.8814 41.5424 39.0061 41.6202 39.12C42.2393 39.9319 43.0145 40.6119 43.9002 41.12C44.0303 41.1865 44.1459 41.2783 44.2402 41.39C44.388 41.5469 44.5661 41.6722 44.7638 41.7581C44.9615 41.8441 45.1746 41.8889 45.3902 41.89C45.6602 41.89 45.8902 42.2 46.1602 42.25C46.593 42.2801 47.0274 42.2801 47.4602 42.25C48.1902 42.25 48.9102 42.25 49.6402 42.25C50.0718 42.2637 50.4963 42.1375 50.8502 41.89C51.0702 41.75 51.4102 41.79 51.6802 41.71C51.818 41.6611 51.9392 41.5745 52.0302 41.46C52.4002 40.99 53.0302 40.94 53.4402 40.46C53.8502 39.98 54.1502 39.73 54.5202 39.38C54.7656 39.1206 54.9501 38.8097 55.0602 38.47C55.2311 38.0779 55.4387 37.7029 55.6802 37.35C55.9002 37.02 55.7702 36.64 55.9302 36.35C56.0902 36.06 56.1702 35.84 56.2902 35.57C56.4102 35.3 56.4802 35.34 56.5902 35.45L59.5902 38.34C59.6872 38.4473 59.7599 38.5744 59.803 38.7125C59.8462 38.8506 59.8589 38.9965 59.8402 39.14C59.8493 39.2807 59.8904 39.4175 59.9602 39.54C60.3067 40.3977 60.7933 41.1918 61.4002 41.89C61.5802 42.04 61.5602 42.28 61.6002 42.49C61.6191 42.7014 61.684 42.9062 61.7902 43.09C61.9606 43.3945 62.0404 43.7415 62.0202 44.09C62.0196 44.1213 62.0268 44.1522 62.0411 44.18C62.0553 44.2079 62.0763 44.2318 62.102 44.2496C62.1277 44.2674 62.1574 44.2786 62.1885 44.2821C62.2196 44.2857 62.2511 44.2815 62.2802 44.27C62.3302 44.27 62.4102 44.16 62.4102 44.1C62.4102 43.52 62.4102 42.94 62.4102 42.37C62.4129 42.2613 62.3939 42.1532 62.3544 42.0519C62.3149 41.9506 62.2557 41.8582 62.1802 41.78C61.9302 41.51 61.6802 41.25 61.4202 41.01C61.1602 40.77 60.7102 39.85 60.8302 39.74C60.8724 39.7262 60.9179 39.7262 60.9602 39.74C61.0672 39.8722 61.1879 39.9929 61.3202 40.1L62.7602 41.43C62.9961 41.6516 63.2989 41.7886 63.6211 41.8193C63.9433 41.8501 64.2666 41.7729 64.5402 41.6C64.6702 41.53 64.7802 41.38 64.9102 41.37C65.5602 41.37 66.2102 41.37 66.9102 41.37C67.2889 41.5522 67.6533 41.7628 68.0002 42C68.3349 42.4606 68.6041 42.9654 68.8002 43.5C68.8353 43.6411 68.8353 43.7888 68.8002 43.93C68.7302 44.13 68.5602 44.29 68.5002 44.49C68.3813 44.8381 68.2272 45.1732 68.0402 45.49C67.9486 45.7588 67.8882 46.0373 67.8602 46.32C67.8602 46.32 67.7802 46.41 67.7302 46.45C67.6802 46.49 67.6102 46.34 67.6002 46.28C67.5533 46.0697 67.5265 45.8554 67.5202 45.64C67.5385 45.2835 67.4363 44.9313 67.2302 44.64C67.0602 44.42 67.0202 44.11 66.8502 43.88C66.7207 43.6223 66.6523 43.3383 66.6502 43.05C66.6437 42.944 66.6001 42.8438 66.5269 42.7669C66.4537 42.6901 66.3557 42.6416 66.2502 42.63H65.6002C65.3798 42.6105 65.1605 42.6788 64.9902 42.82C64.6202 43.17 64.2402 43.5 63.8902 43.87C63.5761 44.2629 63.3448 44.7153 63.2102 45.2C63.1556 45.5543 63.1222 45.9116 63.1102 46.27C63.0502 46.54 62.7602 46.73 62.7702 47.05C62.7883 47.3398 62.7033 47.6268 62.5302 47.86C62.3847 48.0263 62.3031 48.239 62.3002 48.46C62.3002 48.89 62.3002 49.33 62.3002 49.76C62.3365 50.011 62.3225 50.2667 62.259 50.5122C62.1955 50.7577 62.0837 50.9881 61.9302 51.19C62.0002 51.89 61.4302 52.35 61.2802 52.97C61.2802 53.11 61.1102 53.21 61.0502 53.34C60.968 53.6181 60.9884 53.9164 61.1077 54.1807C61.227 54.445 61.4373 54.6577 61.7002 54.78C61.7679 54.8053 61.8425 54.8053 61.9102 54.78C62.1538 54.713 62.368 54.5662 62.5185 54.3632C62.6689 54.1602 62.747 53.9126 62.7402 53.66C62.7402 53.25 62.6002 53.14 62.2702 53.35C61.9402 53.56 62.0002 53.48 61.9402 53.29C61.9166 53.222 61.9166 53.148 61.9402 53.08C61.9696 52.9428 62.0275 52.8133 62.1102 52.7C62.4002 52.38 62.7102 52.07 63.0102 51.7C63.1464 51.5303 63.2174 51.3174 63.2102 51.1C63.2102 50.96 63.2102 50.77 63.2102 50.68C63.3615 50.4771 63.4712 50.2463 63.5329 50.0009C63.5947 49.7555 63.6074 49.5003 63.5702 49.25C63.5235 48.9633 63.5376 48.67 63.6117 48.3892C63.6858 48.1084 63.8182 47.8463 64.0002 47.62C64.0649 47.2671 64.095 46.9087 64.0902 46.55C64.0102 45.92 64.5002 45.55 64.6402 44.96C64.9502 44.78 65.2602 44.6 65.5702 44.44C65.5702 44.44 65.7002 44.44 65.7402 44.5C66.0102 44.75 66.2602 45.01 66.5202 45.27C66.6028 45.3414 66.658 45.4393 66.6762 45.547C66.6945 45.6547 66.6746 45.7653 66.6202 45.86C66.3034 46.3476 66.1886 46.9393 66.3002 47.51C66.3061 47.5455 66.32 47.5792 66.3408 47.6087C66.3616 47.6381 66.3887 47.6625 66.4202 47.68C66.446 47.6949 66.4753 47.7027 66.5052 47.7027C66.535 47.7027 66.5643 47.6949 66.5902 47.68L67.4302 47.08C67.4302 47.14 67.5402 47.2 67.5402 47.26C67.5402 47.32 67.5402 47.58 67.4602 47.67C67.1602 47.99 67.1902 48.5 66.8402 48.79C66.4902 49.08 66.3302 49.65 66.0402 50.06C65.9175 50.2355 65.8544 50.4459 65.8602 50.66C65.8873 51.169 65.7351 51.6715 65.4302 52.08C65.4302 52.77 65.0202 53.29 64.8002 53.88C64.7302 54.08 64.5102 54.22 64.5502 54.47C64.6402 55.03 64.0702 55.35 64.0502 55.87C63.4921 56.5238 63.043 57.2633 62.7202 58.06C62.5882 58.3205 62.3785 58.5337 62.1202 58.67C61.922 58.7588 61.7073 58.8047 61.4902 58.8047C61.273 58.8047 61.0583 58.7588 60.8602 58.67C60.6502 58.59 60.6002 58.34 60.6002 58.12C60.6012 57.9003 60.541 57.6847 60.4261 57.4974C60.3113 57.3101 60.1465 57.1586 59.9502 57.06C59.8882 57.0284 59.8197 57.0119 59.7502 57.0119C59.6806 57.0119 59.6121 57.0284 59.5502 57.06C59.0729 57.3889 58.6819 57.828 58.4102 58.34C57.9202 59.34 57.4102 60.34 56.8902 61.4C56.5802 61.89 56.7402 62.55 56.2402 63Z" fill="#171717"/>
<path d="M26.9 31.76C27.0721 31.631 27.2761 31.5515 27.49 31.53H31.18C31.6117 31.5052 32.0397 31.621 32.4 31.86C32.68 32.08 33.12 31.86 33.4 32.12C33.68 32.38 33.93 32.35 34.17 32.5C34.4608 32.7119 34.7319 32.9495 34.98 33.21C35.3103 33.3767 35.6708 33.4754 36.04 33.5C36.0021 33.3778 35.9332 33.2676 35.84 33.18C35.7649 33.0976 35.6948 33.0108 35.63 32.92C35.1989 32.3341 34.5986 31.8944 33.91 31.66C32.9014 31.2963 31.869 31.0022 30.82 30.78C30.2931 30.7016 29.7623 30.6515 29.23 30.63C28.3067 30.8536 27.4009 31.1443 26.52 31.5C26.58 31.93 26.58 31.93 26.9 31.76Z" fill="#171717"/>
</svg>
