<svg width="90" height="90" viewBox="0 0 90 90" fill="none" xmlns="http://www.w3.org/2000/svg">
<path d="M22.9998 47.7C22.9998 47.95 22.7598 48.27 22.9998 48.6L24.9998 51.66C25.0598 51.77 27.1998 55.66 27.3198 55.81C27.5598 56.12 28.6798 56.2 29.0598 56.52C30.1358 56.8323 31.194 57.2029 32.2298 57.63C32.3298 57.71 33.9598 57.88 34.2898 58.21C35.4078 58.5558 36.5622 58.7706 37.7298 58.85C37.8498 58.85 41.5398 58.94 42.0998 58.85L46.0998 58.7C46.7798 58.7 47.2198 58.49 47.8998 58.48C47.9498 58.48 53.8198 57.28 54.3698 57.25C54.7996 57.2201 55.2314 57.2573 55.6498 57.36C56.2098 57.78 56.5698 57.36 57.2398 58.31C57.5698 58.65 57.9098 58.98 58.2398 59.31C58.9098 60.07 71.8698 75.31 71.9998 75.87L73.2398 77.22C73.3261 77.3207 73.3916 77.4375 73.4323 77.5637C73.4731 77.6899 73.4883 77.823 73.4771 77.9551C73.466 78.0872 73.4286 78.2159 73.3673 78.3334C73.3059 78.451 73.2218 78.5552 73.1198 78.64C72.9998 78.76 72.8798 78.81 72.7898 78.72C71.9998 78 63.3698 67.8 62.9998 67.46C62.6298 67.12 57.8398 61.4 57.5798 60.71C57.4673 60.3943 57.2863 60.1074 57.0498 59.87C56.5298 59.34 55.9998 58.81 55.4598 58.3C55.1798 58.04 53.7698 58.3 53.4598 58.45C52.2998 58.95 48.4598 59.22 47.0298 59.58C46.7598 59.58 44.0298 59.74 43.7898 59.74H39.3998C38.7198 59.74 38.0398 59.74 37.3998 59.74C36.9898 59.74 35.7298 59.35 35.4598 59.35C34.5478 59.2066 33.6617 58.9303 32.8298 58.53C32.2998 58.22 30.4598 58 30.1598 57.81C29.8598 57.62 28.3098 57.09 27.9598 56.9C27.6098 56.71 26.7098 56.31 26.6298 56.11C26.5498 55.91 26.3498 55.5 26.1998 55.21C25.9574 54.7343 25.6869 54.2735 25.3898 53.83C25.0454 53.123 24.6299 52.4529 24.1498 51.83C23.6322 51.2261 23.2014 50.5529 22.8698 49.83C22.6687 49.4703 22.4271 49.1348 22.1498 48.83C22.1498 48.36 22.1498 47.88 22.1498 47.41C22.1395 47.3437 22.1395 47.2762 22.1498 47.21C22.6641 46.5411 23.2899 45.9659 23.9998 45.51C24.1594 45.4511 24.3324 45.4386 24.4988 45.474C24.6651 45.5094 24.8181 45.5912 24.9398 45.71C25.3561 46.0608 25.6964 46.493 25.9398 46.98C25.9998 47.11 26.2098 47.56 26.3098 47.44C26.7784 46.6842 27.2857 45.9533 27.8298 45.25C27.9962 45.136 28.1932 45.0751 28.3948 45.0751C28.5965 45.0751 28.7934 45.136 28.9598 45.25C29.489 45.6701 29.9306 46.1899 30.2598 46.78C30.3898 47.08 30.4798 47.1 30.6598 46.9C31.1242 46.5179 31.6433 46.2077 32.1998 45.98C32.2898 45.98 33.4698 46.68 33.5598 47.29C33.5598 47.41 33.7198 47.51 33.7998 47.61C34.161 47.7848 34.5587 47.8706 34.9598 47.86C35.1298 47.86 35.7598 47.86 35.8198 47.86C36.5241 48.0553 37.2385 48.2122 37.9598 48.33C38.2498 48.33 41.0298 49.55 41.5098 49.55C41.6416 49.5385 41.7738 49.5664 41.8898 49.63C42.2866 49.9039 42.7735 50.0149 43.2498 49.94C43.5898 49.94 45.8398 49.65 46.6298 49.54C46.9605 49.5059 47.2805 49.4037 47.5698 49.24C47.7498 49.1521 47.9501 49.1141 48.1498 49.13C48.3261 49.1542 48.5054 49.1427 48.6772 49.0963C48.849 49.05 49.0097 48.9696 49.1498 48.86C49.3198 48.71 49.5298 48.75 49.7298 48.73C49.9298 48.71 50.3198 48.73 50.5098 48.61C50.9665 48.3666 51.4845 48.2624 51.9998 48.31C52.2798 48.31 54.8598 48.31 55.2698 48.31C55.6798 48.31 55.9498 48.31 56.2698 48.31C56.5898 48.31 56.8198 48.25 57.0498 48.45C57.2798 48.65 57.8098 48.71 58.0498 49.05C58.2898 49.39 59.0498 49.81 59.1798 50.45C59.1798 50.51 60.3898 51.39 60.8598 51.86C61.167 52.1144 61.5026 52.3325 61.8598 52.51C62.6273 52.9132 63.3687 53.3641 64.0798 53.86C64.599 54.2788 65.179 54.616 65.7998 54.86C66.3398 55.14 78.4298 62.51 79.7198 63.05C79.7852 63.0768 79.8386 63.1266 79.8698 63.19C79.8698 63.24 79.8698 63.32 79.8698 63.38C79.8839 63.4126 79.8906 63.4479 79.8894 63.4834C79.8882 63.5189 79.8792 63.5536 79.8629 63.5852C79.8467 63.6168 79.8236 63.6443 79.7954 63.6659C79.7672 63.6875 79.7345 63.7025 79.6998 63.71C79.4451 63.8008 79.1722 63.8291 78.9043 63.7925C78.6363 63.756 78.381 63.6557 78.1598 63.5C77.9298 63.31 77.6098 63.5 77.3898 63.34C76.2998 62.69 63.5898 54.82 63.1198 54.56C62.8707 54.4664 62.6326 54.3456 62.4098 54.2C62.0498 53.88 60.8398 53.06 60.6498 52.87C60.2669 52.3984 59.7718 52.0305 59.2098 51.8L57.8798 50.4C57.6298 50.17 57.3898 49.93 57.1298 49.71C56.5826 49.4804 56.0173 49.2964 55.4398 49.16H51.5698C51.3685 49.1835 51.178 49.2632 51.0198 49.39C50.3578 49.4638 49.7125 49.6462 49.1098 49.93C48.9798 50.04 48.7098 49.98 48.5098 49.98C48.0625 50.0838 47.6217 50.214 47.1898 50.37C46.7798 50.37 45.7798 50.76 45.6498 50.76H41.7698C40.7455 50.5047 39.7425 50.1704 38.7698 49.76C38.1787 49.4496 37.5399 49.2401 36.8798 49.14C36.4513 48.9738 36.0098 48.8434 35.5598 48.75C35.3598 48.75 34.6598 48.4 34.4498 48.45C34.2398 48.5 34.1098 48.68 33.9198 48.73C33.7298 48.78 33.5098 49.04 33.4898 49.32C33.4698 49.6 33.4898 49.73 33.4898 49.93C33.4795 49.9962 33.4795 50.0637 33.4898 50.13C33.5205 50.1903 33.5695 50.2393 33.6298 50.27C33.9398 50.39 34.2198 50.59 34.5198 50.74C34.7144 50.781 34.9153 50.781 35.1098 50.74C35.2108 50.7304 35.3049 50.6846 35.3747 50.6111C35.4446 50.5376 35.4855 50.4413 35.4898 50.34C35.4898 50.01 35.4898 49.67 35.4898 49.34C35.4956 49.3069 35.5097 49.2758 35.5306 49.2496C35.5516 49.2234 35.5788 49.2029 35.6098 49.19C35.6098 49.19 35.7298 49.19 35.7798 49.26C35.9272 49.3425 36.0512 49.461 36.1404 49.6043C36.2295 49.7477 36.281 49.9114 36.2898 50.08C36.2898 50.42 36.2898 50.76 36.2898 51.08C36.2753 51.1806 36.3007 51.2828 36.3604 51.365C36.4202 51.4472 36.5097 51.5028 36.6098 51.52C37.0598 51.63 38.9298 52.52 39.3598 52.68C39.7898 52.84 40.1798 52.68 40.4798 53.05C40.9598 53.13 41.2998 53.49 41.7598 53.62C41.9228 53.6719 42.0686 53.7673 42.1814 53.896C42.2941 54.0246 42.3697 54.1816 42.3998 54.35C42.4084 54.3983 42.4066 54.4478 42.3948 54.4954C42.383 54.543 42.3612 54.5875 42.3311 54.6262C42.3009 54.6649 42.2629 54.6967 42.2197 54.7198C42.1764 54.7428 42.1287 54.7565 42.0798 54.76C42.0198 54.76 41.9198 54.76 41.8798 54.76C41.5098 54.43 40.9798 54.49 40.5798 54.29C40.2512 54.1097 39.8845 54.0103 39.5098 54C39.0798 53.56 36.4498 53.53 36.0498 53.26H33.3998C33.3299 53.271 33.2662 53.3065 33.2198 53.36C32.9477 53.5641 32.608 53.6571 32.2698 53.62C32.2035 53.6098 32.1361 53.6098 32.0698 53.62C31.4698 53.79 31.0698 53.35 30.5498 53.19C29.8698 52.62 27.0198 50.28 26.6698 49.82C26.3198 49.36 25.8298 49.13 25.6698 48.55C25.3398 48.21 25.3498 47.93 25.0198 47.6C25.0198 47.6 24.8398 47.21 24.7698 47.21C24.6698 46.87 24.4098 46.65 24.2598 46.65C23.7598 46.68 22.9998 47.22 22.9998 47.7ZM27.4798 47.28C27.4203 47.5388 27.3042 47.7813 27.1398 47.99C27.0398 48.1 27.1398 48.19 27.1898 48.33C27.7754 49.0189 28.414 49.6608 29.0998 50.25C29.3998 50.52 30.8998 52.42 32.2998 52.76C32.3295 52.7742 32.3619 52.7816 32.3948 52.7816C32.4277 52.7816 32.4602 52.7742 32.4898 52.76C32.7474 52.545 33.0745 52.4313 33.4098 52.44C33.8898 52.44 34.4098 52.44 34.8298 52.44C34.8898 52.44 34.9498 52.38 34.9898 52.33C35.0298 52.28 34.9898 52.23 34.9898 52.2C34.9512 52.1434 34.895 52.1012 34.8298 52.08C34.4798 52.0904 34.1338 52.0039 33.8298 51.83C33.5098 51.59 33.0898 51.54 32.8298 51.2C32.5698 50.86 31.2098 50.02 31.1298 49.85C31.0013 49.5446 30.8259 49.2612 30.6098 49.01C30.3098 48.73 30.0698 48.4 29.7598 48.14C29.4498 47.88 29.4098 47.41 29.1298 47.14C28.8498 46.87 28.6498 46.48 28.3998 46.26C28.3998 46.26 28.2998 46.26 28.2698 46.26C28.2398 46.26 27.4998 47.23 27.4798 47.28ZM32.9798 48.13C32.8498 47.82 32.7598 47.58 32.6498 47.34C32.6163 47.2846 32.5711 47.2374 32.5172 47.2015C32.4634 47.1657 32.4023 47.1421 32.3383 47.1326C32.2743 47.123 32.2091 47.1277 32.1471 47.1463C32.0851 47.1648 32.028 47.1968 31.9798 47.24L31.6798 47.49C31.5586 47.6038 31.4753 47.7522 31.4413 47.915C31.4073 48.0778 31.4242 48.2471 31.4898 48.4C31.5809 48.7197 31.7877 48.9941 32.0698 49.17C32.1598 49.17 32.5198 49.49 32.5298 49.4C32.6126 48.9748 32.7719 48.5683 32.9998 48.2C32.9998 48.15 32.9998 48.09 32.9998 48.13H32.9798Z" fill="white"/>
<path d="M34.4798 41.4H34.6898C35.0853 41.4011 35.4716 41.5194 35.7998 41.74C36.1077 41.8554 36.3849 42.0402 36.6098 42.28C36.6998 42.39 36.6098 42.48 36.6098 42.62C36.4885 42.7808 36.3214 42.9012 36.1305 42.9655C35.9395 43.0297 35.7337 43.0348 35.5398 42.98C35.2198 42.92 34.9998 42.6 34.6298 42.62C34.2598 42.64 33.9598 42.62 33.6298 42.62H33.4198C33.3098 42.62 33.1298 42.21 33.1998 42.11C33.4198 41.77 33.6598 41.44 34.1298 41.46L34.4798 41.4Z" fill="white"/>
<path d="M53.8301 36.21C53.7568 36.3533 53.6624 36.4847 53.5501 36.6C53.2401 36.84 52.8801 37.01 52.5501 37.25C52.2201 37.49 52.0601 37.7 51.8101 37.92C51.6765 38.0178 51.5206 38.0809 51.3565 38.1036C51.1925 38.1263 51.0253 38.1079 50.8701 38.05C50.7601 38.05 50.5901 37.61 50.6701 37.53C51.1301 37.05 51.6001 36.53 52.0501 36.09C52.2558 35.8718 52.5252 35.7243 52.8198 35.6686C53.1144 35.6129 53.419 35.6519 53.6901 35.78C53.8501 35.82 53.8901 36 53.8301 36.21Z" fill="white"/>
<path d="M53.1903 44.26C53.4259 44.2037 53.6721 44.2091 53.9051 44.2757C54.138 44.3422 54.3499 44.4677 54.5203 44.64C54.6903 44.84 54.9003 45.02 55.0503 45.23C55.0963 45.3525 55.0963 45.4875 55.0503 45.61C55.0503 45.74 54.6703 45.88 54.5403 45.82L54.3703 45.71C54.168 45.5352 53.9075 45.4424 53.6403 45.45C53.1803 45.45 52.9303 45.15 52.6403 44.84C52.5603 44.74 52.6403 44.34 52.8003 44.32L53.1903 44.26Z" fill="white"/>
<path d="M37.3299 38.5201C37.102 38.5332 36.8734 38.5164 36.6499 38.4701C36.3045 38.3059 35.9704 38.1188 35.6499 37.9101C35.6499 37.9101 35.6499 37.7901 35.6499 37.7201C35.6501 37.6264 35.6776 37.5349 35.7291 37.4567C35.7806 37.3785 35.8539 37.3171 35.9399 37.2801C36.2984 37.2475 36.6597 37.2864 37.0031 37.3946C37.3464 37.5027 37.6648 37.6779 37.9399 37.9101C38.0099 37.9101 37.9999 38.1501 37.9999 38.2701C37.9916 38.3024 37.9754 38.3321 37.9527 38.3566C37.93 38.381 37.9015 38.3994 37.8699 38.4101L37.3299 38.5201Z" fill="white"/>
<path d="M38.3598 45.77C38.3598 45.89 38.3598 46.09 38.2598 46.12C37.9427 46.3228 37.608 46.4968 37.2598 46.64C37.1959 46.6639 37.1254 46.6628 37.0623 46.6368C36.9992 46.6108 36.9483 46.562 36.9198 46.5C36.8598 46.38 36.7898 46.21 36.8398 46.13C36.951 45.8869 37.1442 45.6906 37.3855 45.5754C37.6268 45.4602 37.9008 45.4336 38.1598 45.5C38.2198 45.52 38.2798 45.68 38.3598 45.77Z" fill="white"/>
<path d="M49 34.21C49.0274 34.4398 48.9847 34.6725 48.8776 34.8776C48.7706 35.0828 48.6041 35.2509 48.4 35.36C48.2809 35.4053 48.1492 35.4053 48.03 35.36C47.85 35.36 47.84 35.2 47.93 35.07C48.19 34.71 48.21 34.19 48.66 33.95L48.83 33.85L49 34.21Z" fill="white"/>
<path d="M38.7903 34.0801C38.8066 34.145 38.7983 34.2137 38.7669 34.2728C38.7355 34.3319 38.6832 34.3773 38.6203 34.4001C38.4403 34.4801 38.1103 34.4001 38.0903 34.2401C38.0398 34.0474 38.0129 33.8492 38.0103 33.6501C38.0103 33.5301 38.1203 33.4201 38.1903 33.3101C38.2459 33.3468 38.2994 33.3869 38.3503 33.4301C38.5303 33.6201 38.8003 33.7501 38.7903 34.0801Z" fill="white"/>
<path d="M39.6702 39.3C39.6063 39.3276 39.5343 39.3295 39.4691 39.3053C39.4039 39.2811 39.3506 39.2326 39.3202 39.17C39.2202 38.97 39.2602 38.7 39.4002 38.64C39.5257 38.6158 39.6547 38.6158 39.7802 38.64C39.9202 38.64 40.0702 39.01 39.9802 39.14C39.887 39.2111 39.7821 39.2653 39.6702 39.3Z" fill="white"/>
<path d="M51 43.8901C51.25 43.8901 51.32 43.8901 51.38 44.2001C51.3918 44.2441 51.3943 44.2902 51.3874 44.3353C51.3805 44.3804 51.3643 44.4235 51.3399 44.4621C51.3154 44.5006 51.2833 44.5336 51.2454 44.5591C51.2076 44.5846 51.1649 44.6019 51.12 44.6101C50.92 44.6101 50.67 44.5501 50.65 44.4101C50.6199 44.2919 50.6199 44.1682 50.65 44.0501C50.6622 44.0164 50.681 43.9855 50.7053 43.9592C50.7296 43.9329 50.7589 43.9116 50.7915 43.8968C50.824 43.8819 50.8593 43.8736 50.8951 43.8725C50.9308 43.8713 50.9665 43.8773 51 43.8901Z" fill="white"/>
<path d="M54.94 40.73C54.94 40.97 54.94 41.09 54.61 41.13C54.28 41.17 54.25 41.13 54.22 40.82C54.19 40.51 54.22 40.47 54.54 40.42C54.86 40.37 54.89 40.46 54.94 40.73Z" fill="white"/>
<path d="M51.7802 41.39C51.5402 41.39 51.4402 41.29 51.4202 41.06C51.4142 40.9977 51.4236 40.9349 51.4477 40.8771C51.4717 40.8193 51.5097 40.7684 51.5582 40.7288C51.6066 40.6892 51.6641 40.6622 51.7256 40.6502C51.787 40.6382 51.8504 40.6416 51.9102 40.66C51.9557 40.6695 51.9989 40.6879 52.0372 40.7143C52.0755 40.7406 52.1082 40.7743 52.1333 40.8134C52.1584 40.8525 52.1755 40.8962 52.1836 40.942C52.1917 40.9877 52.1905 41.0347 52.1802 41.08C52.1768 41.1276 52.1634 41.174 52.1408 41.2161C52.1183 41.2581 52.0871 41.295 52.0494 41.3242C52.0117 41.3535 51.9682 41.3745 51.9218 41.3858C51.8755 41.3971 51.8272 41.3986 51.7802 41.39Z" fill="white"/>
<path d="M50.2302 47.46C50.252 47.5214 50.2509 47.5887 50.227 47.6493C50.2031 47.71 50.158 47.76 50.1002 47.79C50.0521 47.8095 49.9983 47.8095 49.9502 47.79C49.8377 47.7271 49.7363 47.646 49.6502 47.55C49.5829 47.4613 49.5508 47.3509 49.5602 47.24C49.5602 47.11 49.7402 47.09 49.8902 47.12C50.0402 47.15 50.1902 47.18 50.2302 47.46Z" fill="white"/>
<path d="M38.1498 42.3101C38.2069 42.3284 38.2609 42.3554 38.3098 42.3901C38.3465 42.4418 38.3692 42.5021 38.3758 42.5652C38.3824 42.6283 38.3727 42.692 38.3476 42.7502C38.3225 42.8084 38.2828 42.8592 38.2324 42.8977C38.1821 42.9362 38.1226 42.9611 38.0598 42.9701C38.0001 42.9974 37.932 43.0002 37.8702 42.9777C37.8085 42.9553 37.758 42.9094 37.7298 42.8501C37.7184 42.8267 37.7124 42.8011 37.7124 42.7751C37.7124 42.7491 37.7184 42.7234 37.7298 42.7001C37.8619 42.5618 38.0022 42.4315 38.1498 42.3101Z" fill="white"/>
<path d="M40.42 31C40.42 31.26 40.42 31.57 40.55 31.78C40.7281 32.1384 40.8463 32.5235 40.9 32.92C41.0676 33.2802 41.2015 33.6551 41.3 34.04C41.325 34.1717 41.3761 34.297 41.4505 34.4085C41.5248 34.5201 41.6208 34.6155 41.7327 34.6892C41.8446 34.7629 41.9703 34.8133 42.1021 34.8375C42.2339 34.8617 42.3692 34.8592 42.5 34.83C42.6276 34.787 42.7513 34.7335 42.87 34.67C43.18 34.54 43.28 34.56 43.29 34.76C43.29 35.18 43.29 35.6 43.29 36.01C43.77 35.78 44.91 35.19 44.92 34.92C44.905 34.6502 44.905 34.3798 44.92 34.11C45 33.52 44.59 33.11 44.43 32.61C44.43 32.52 44.22 32.43 44.11 32.42C43.7 32.42 43.29 32.42 42.89 32.42C42.75 32.42 42.59 32.42 42.55 32.24C42.42 31.73 41.98 31.33 42.06 30.74C42.0935 30.4075 42.0935 30.0725 42.06 29.74C42.0673 29.6073 42.036 29.4754 41.97 29.36C41.7455 28.9456 41.3954 28.613 40.97 28.41C40.8412 28.3614 40.7023 28.346 40.566 28.3652C40.4296 28.3844 40.3004 28.4377 40.19 28.52C39.83 28.83 39.49 29.15 39.13 29.52C39.0786 29.5401 39.0215 29.5401 38.97 29.52C38.68 29.23 38.39 28.95 38.13 28.64C38.057 28.5276 38.0252 28.3933 38.04 28.26C38.0051 27.6505 38.0051 27.0395 38.04 26.43C38.0024 25.8942 37.8342 25.3758 37.55 24.92C37.4935 24.7969 37.4126 24.6866 37.3122 24.5957C37.2117 24.5049 37.0939 24.4354 36.9658 24.3914C36.8377 24.3475 36.702 24.33 36.5669 24.3401C36.4318 24.3501 36.3002 24.3875 36.18 24.45C36 24.53 35.84 24.72 35.66 24.72C35.2515 24.717 34.8537 24.8508 34.53 25.1C34.4709 25.1291 34.4059 25.1443 34.34 25.1443C34.2742 25.1443 34.2091 25.1291 34.15 25.1C33.9566 24.9165 33.773 24.7229 33.6 24.52C33.5742 24.0498 33.4334 23.5932 33.19 23.19C33.154 22.9916 33.154 22.7884 33.19 22.59C33.216 22.3186 33.1957 22.0447 33.13 21.78C32.9195 21.4369 32.7896 21.0506 32.75 20.65C32.7335 20.5157 32.6697 20.3916 32.57 20.3C32.19 19.91 31.79 19.54 31.4 19.17C31.3174 19.1141 31.2198 19.0843 31.12 19.0843C31.0202 19.0843 30.9227 19.1141 30.84 19.17C30.3647 19.4546 30.0092 19.9025 29.84 20.43C29.6511 20.7031 29.4903 20.9946 29.36 21.3C29.169 21.5831 28.9403 21.8388 28.68 22.06C28.4419 22.2982 28.2637 22.5896 28.16 22.91C28.16 23.05 27.99 23.03 27.85 22.91C27.5844 22.7372 27.367 22.4997 27.2183 22.2198C27.0696 21.94 26.9945 21.6269 27 21.31C26.7605 20.9828 26.6183 20.5945 26.59 20.19C26.5857 20.0557 26.5323 19.9277 26.44 19.83C26.2128 19.5744 25.9724 19.3308 25.72 19.1C25.6182 19.0143 25.4926 18.962 25.36 18.95C24.7598 18.8216 24.1332 18.929 23.61 19.25C23.52 19.31 23.39 19.25 23.35 19.06C23.22 18.55 22.78 18.13 22.92 17.53C22.9394 17.4298 22.936 17.3266 22.91 17.2279C22.884 17.1292 22.8362 17.0377 22.77 16.96C22.5 16.66 22.52 16.18 22.16 15.96C22.04 15.88 21.94 15.74 21.82 15.74C21.347 15.715 20.873 15.715 20.4 15.74C20.28 15.74 20.17 15.87 20.06 15.95C19.4616 16.4594 18.9002 17.0108 18.38 17.6C18.09 17.9 18.09 18.35 17.77 18.6C17.467 18.8704 17.2395 19.2151 17.11 19.6C17.06 19.74 16.7 19.78 16.58 19.68C16.4063 19.5764 16.2619 19.4301 16.1605 19.2552C16.059 19.0802 16.0038 18.8823 16 18.68C16.0198 18.2768 15.9112 17.8777 15.69 17.54C15.5156 17.2544 15.3683 16.9531 15.25 16.64C15.1806 16.3115 15.157 15.975 15.18 15.64L15.09 14.64C14.69 14.18 14.83 13.64 14.8 13.08C14.79 13.0137 14.79 12.9463 14.8 12.88C14.8151 12.6437 14.7708 12.4074 14.6713 12.1926C14.5717 11.9778 14.4201 11.7913 14.23 11.65C14.0977 11.4952 13.9313 11.3732 13.744 11.2934C13.5566 11.2135 13.3533 11.1782 13.15 11.19C12.814 11.1669 12.4765 11.1972 12.15 11.28C11.5951 11.5083 11.0571 11.7756 10.54 12.08C10.2621 12.345 10.0853 12.6986 10.04 13.08C10.04 13.08 10.14 13.19 10.2 13.19C10.4631 13.2405 10.7354 13.2091 10.98 13.1C11.3816 12.8586 11.7955 12.6383 12.22 12.44C12.3658 12.3887 12.5214 12.3719 12.6748 12.3909C12.8281 12.4098 12.975 12.4641 13.1038 12.5493C13.2327 12.6346 13.3401 12.7485 13.4175 12.8823C13.4949 13.016 13.5403 13.1658 13.55 13.32C13.55 13.93 13.6 14.54 13.55 15.15C13.5557 15.3549 13.6296 15.5519 13.76 15.71C13.8992 15.9415 13.9621 16.2108 13.94 16.48C13.94 16.83 14.34 17.03 14.33 17.39C14.3122 17.6644 14.3978 17.9356 14.57 18.15C14.81 18.43 14.64 18.84 14.82 19.1C15.12 19.55 15.2 20.1 15.65 20.47C15.92 20.68 16.14 20.94 16.39 21.17C16.5823 21.3049 16.816 21.3679 17.05 21.3478C17.2841 21.3276 17.5036 21.2258 17.67 21.06C17.8144 20.9226 17.927 20.7554 18 20.57C18.31 19.67 19 19.02 19.41 18.16C19.8 17.78 20.18 17.39 20.57 17.02C20.76 16.83 21.05 16.88 21.29 17.1C21.4195 17.2086 21.5228 17.345 21.5921 17.4992C21.6613 17.6533 21.6948 17.8211 21.69 17.99C21.6256 18.2578 21.6649 18.54 21.8 18.78C22.0397 19.1089 22.1467 19.5158 22.1 19.92C22.0979 20.0557 22.1234 20.1904 22.175 20.3159C22.2266 20.4414 22.3031 20.5551 22.4 20.65L22.98 21.22C23.0583 21.2816 23.1524 21.3199 23.2514 21.3306C23.3505 21.3412 23.4505 21.3237 23.54 21.28L24.59 20.28C24.72 20.16 24.88 20.28 25.08 20.43C25.42 20.78 25.4 21.31 25.73 21.66C25.7135 22.012 25.8041 22.3607 25.99 22.66C26.2016 22.9998 26.3824 23.3579 26.53 23.73C26.6684 24.034 26.854 24.3141 27.08 24.56C27.69 25.21 27.9 25.21 28.55 24.56C28.98 24.12 29.38 23.66 29.8 23.21C29.96 22.49 30.6 22.14 31.03 21.64C31.13 21.51 31.26 21.48 31.35 21.54C31.3774 21.5601 31.4003 21.5855 31.4175 21.6147C31.4347 21.644 31.4458 21.6764 31.45 21.71C31.45 21.91 31.45 22.17 31.51 22.31C31.8271 22.7564 31.9564 23.3093 31.87 23.85C31.8 24.49 32.41 24.94 32.31 25.58C32.5489 25.9794 32.8734 26.321 33.26 26.58C33.3139 26.6188 33.3752 26.6461 33.44 26.66C33.9073 26.7629 34.3962 26.6766 34.8 26.42C34.9037 26.3374 35.0284 26.2854 35.16 26.27C35.4326 26.24 35.7075 26.24 35.98 26.27C36.09 26.27 36.28 26.37 36.3 26.45C36.41 26.97 36.78 27.38 36.78 27.96C36.78 29.52 36.61 29.14 37.7 30.27C37.94 30.51 38.18 30.75 38.43 30.98C38.5289 31.0735 38.655 31.1331 38.79 31.15C39.0206 31.2056 39.2604 31.2112 39.4932 31.1663C39.7261 31.1215 39.9466 31.0273 40.14 30.89C40.26 30.79 40.38 30.82 40.42 31Z" fill="white"/>
<path d="M48.9998 41.0001C48.669 40.2603 48.2122 39.5835 47.6498 39.0001C47.1788 38.5117 46.6188 38.118 45.9998 37.8401C45.0785 37.5338 44.0948 37.465 43.1398 37.6401C43.0638 37.6979 42.9744 37.7358 42.8798 37.7501C42.494 37.8637 42.1293 38.0393 41.7998 38.2701C41.4798 38.5101 41.2198 38.8401 40.9198 39.1101C40.7626 39.2403 40.6388 39.4063 40.5587 39.5942C40.4787 39.7821 40.4448 39.9864 40.4598 40.1901C40.1413 40.6289 39.9986 41.1712 40.0598 41.7101C40.0598 41.9401 39.9298 42.0901 39.8298 42.2601C39.7322 42.4085 39.6802 42.5823 39.6802 42.7601C39.6802 42.9378 39.7322 43.1116 39.8298 43.2601C40.0401 43.6058 40.1444 44.0056 40.1298 44.4101C40.102 44.6141 40.152 44.8212 40.2698 44.9901C40.8812 45.7098 41.5501 46.3787 42.2698 46.9901C42.3761 47.0707 42.5065 47.113 42.6398 47.1101C43.1127 47.0605 43.5878 47.181 43.9798 47.4501C44.4337 47.5907 44.9242 47.5513 45.3498 47.3401C45.5779 47.1965 45.8405 47.1171 46.1098 47.1101C46.2451 47.1056 46.3765 47.064 46.4898 46.9901C47.0498 46.6201 47.3998 45.9901 48.0798 45.7801C48.111 45.7658 48.1387 45.745 48.1611 45.7191C48.1835 45.6933 48.2001 45.6629 48.2098 45.6301C48.2898 45.1201 48.7898 44.8801 48.9798 44.4501C49.0898 44.2201 48.9798 43.8901 49.1498 43.6801C49.382 43.347 49.4948 42.9453 49.4698 42.5401C49.4919 41.9883 49.3263 41.4454 48.9998 41.0001ZM47.5998 43.4101C47.233 44.2058 46.6684 44.8944 45.9598 45.4101C45.4798 45.4101 45.1998 45.9601 44.6598 45.8801C44.2539 45.845 43.8458 45.845 43.4398 45.8801C43.2392 45.8841 43.0451 45.8086 42.8998 45.6701C42.5998 45.4001 42.2998 45.1201 42.0098 44.8301C41.1498 43.9601 41.2798 44.0901 41.2498 43.0801C41.2498 42.8701 41.2498 42.6701 41.2498 42.4701C41.2399 42.3336 41.2399 42.1965 41.2498 42.0601C41.2498 41.7301 41.1698 41.3801 41.3898 41.0601C41.6098 40.7401 41.7598 40.0601 42.2598 39.7301C42.5398 39.5401 42.7698 39.3001 43.1498 39.3301C43.5298 39.3601 43.8298 39.3301 44.1498 39.3801C44.4698 39.4301 45.5598 39.3801 45.7498 39.5501C46.1298 39.9301 46.5098 40.3201 46.9098 40.6801C47.1655 40.9804 47.3745 41.3175 47.5298 41.6801C47.6851 41.9396 47.7729 42.2339 47.7851 42.5361C47.7973 42.8383 47.7337 43.1388 47.5998 43.4101Z" fill="white"/>
</svg>
