<svg width="90" height="90" viewBox="0 0 90 90" fill="none" xmlns="http://www.w3.org/2000/svg">
<path d="M75.9999 62.7C75.6526 62.9182 75.2798 63.0929 74.8899 63.22C73.7699 63.4 72.8899 62.86 72.3199 61.54C72.0399 60.96 71.9099 60.31 71.6599 59.71C71.5599 59.5 71.4599 59.23 70.9899 59.42C70.5778 59.5641 70.1313 59.5781 69.711 59.46C69.2907 59.342 68.9168 59.0976 68.6399 58.76C68.1428 58.3616 67.7442 57.8539 67.4754 57.2763C67.2066 56.6987 67.0746 56.0669 67.0899 55.43C67.0899 55.06 66.9499 54.95 66.5799 54.86C66.1517 54.8162 65.7388 54.6766 65.3718 54.4515C65.0048 54.2265 64.6932 53.9218 64.4599 53.56C63.8179 55.9763 62.5762 58.1915 60.8499 60C59.9766 60.8492 59.0406 61.6314 58.0499 62.34C57.4899 62.78 56.9299 63.22 56.3399 63.61C54.6118 64.7367 52.6544 65.4643 50.6099 65.74C49.6099 65.87 48.7099 65.96 47.7499 66.04C45.8846 66.0594 44.025 65.8307 42.2199 65.36C41.2199 65.18 40.3299 64.73 39.3599 64.54C37.974 64.2894 36.6518 63.766 35.4699 63C33.7458 61.9211 32.2313 60.5388 30.9999 58.92C29.7305 57.2892 28.7805 55.4334 28.1999 53.45C28.1785 53.2741 28.1007 53.1098 27.9781 52.9818C27.8555 52.8538 27.6948 52.769 27.5199 52.74C27.3409 52.7113 27.1574 52.7467 27.0019 52.84C26.8464 52.9333 26.7289 53.0785 26.6699 53.25C26.3299 53.93 26.0499 54.63 25.6699 55.25C25.5017 55.5504 25.2931 55.8263 25.0499 56.07C24.5807 56.6317 24.1433 57.2193 23.7399 57.83C23.6399 58.16 23.5399 58.5 23.4099 58.83C22.8999 60.06 22.4999 60.23 21.1499 59.83C20.9099 60.48 20.6599 61.13 20.4399 61.83C20.122 62.9358 19.4855 63.9235 18.6099 64.67C18.3731 64.8992 18.072 65.0507 17.7468 65.1043C17.4216 65.1579 17.0878 65.1111 16.7899 64.97C16.4699 64.82 16.3099 64.73 16.0899 65.14C15.2861 66.4175 14.1847 67.4812 12.8799 68.24C12.4599 68.54 12.1499 68.98 11.7499 69.24C11.0399 69.8 10.7499 69.77 9.89991 69.24C9.72991 69.13 9.52991 69.08 9.35991 68.97C9.19911 68.8738 9.07954 68.7215 9.02417 68.5425C8.96879 68.3634 8.98152 68.1702 9.05991 68C9.11991 67.81 9.23991 67.64 9.29991 67.44C9.82322 65.5511 10.1582 63.615 10.2999 61.66C10.3403 61.4156 10.4109 61.1771 10.5099 60.95C10.77 60.131 10.9114 59.2791 10.9299 58.42C10.9364 57.4118 11.0436 56.4068 11.2499 55.42C11.5662 54.1074 11.7604 52.7684 11.8299 51.42C11.8899 50.6685 11.99 49.9208 12.1299 49.18C12.157 48.422 12.2372 47.6668 12.3699 46.92C12.7699 45.43 12.7899 43.85 13.0799 42.32C13.2599 41.4 13.6499 40.52 13.9099 39.62C14.3599 38.09 14.9099 36.57 15.1899 35.01C15.6267 33.2134 16.6905 31.6318 18.1899 30.55C18.603 30.1696 19.0556 29.8343 19.5399 29.55C20.1568 29.2054 20.8359 28.9865 21.5379 28.9058C22.2399 28.8252 22.9509 28.8844 23.6299 29.08C23.6799 29.08 23.7199 29.16 23.7599 29.16C25.5699 29.16 26.5799 30.33 27.4499 31.69C27.5299 31.81 27.5399 31.99 27.6399 32.09C28.1299 32.62 27.7499 33.51 28.4999 33.97C29.0454 34.4001 29.5508 34.8787 30.0099 35.4C30.6499 34.59 31.3099 33.79 31.9299 32.95C32.7276 31.8726 33.7833 31.013 34.9999 30.45C36.0131 29.8949 36.9946 29.284 37.9399 28.62C38.7359 28.0811 39.6608 27.7636 40.6199 27.7C41.3099 27.7 42.0099 27.48 42.6999 27.42C43.3899 27.36 43.9999 27.24 44.6399 27.17C45.6934 26.9589 46.783 27.0139 47.8099 27.33C48.5266 27.5652 49.2757 27.6867 50.0299 27.69C52.2751 27.9507 54.4431 28.6688 56.3999 29.8C58.1199 30.63 59.2199 32.09 60.5299 33.35C61.5299 34.35 61.5299 34.35 62.8399 33.69C63.8207 33.1434 64.6518 32.3638 65.2599 31.42C65.6717 30.7238 66.1652 30.0792 66.7299 29.5C67.3474 28.9584 68.0785 28.5622 68.8695 28.3407C69.6604 28.1191 70.4909 28.0779 71.2999 28.22C73.6199 28.55 74.7499 30 75.7899 31.8C76.803 33.7649 77.4245 35.908 77.6199 38.11C77.8199 39.64 78.1799 41.11 78.4499 42.68C78.633 43.4118 78.7535 44.1578 78.8099 44.91C78.9361 46.7212 79.1631 48.524 79.4899 50.31C79.7099 52.22 79.9599 54.12 80.1299 56.03C80.2599 57.4 80.3299 58.76 80.4099 60.13C80.4099 60.97 80.7199 61.8 80.8499 62.64C81.1588 64.1383 81.1004 65.6891 80.6799 67.16C80.6198 67.459 80.4524 67.7258 80.2093 67.9099C79.9661 68.0941 79.6641 68.1831 79.3599 68.16C79.0348 68.2121 78.7016 68.1512 78.4159 67.9874C78.1302 67.8237 77.9092 67.5669 77.7899 67.26C77.4199 66.33 77.0599 65.4 76.6999 64.47L75.9999 62.7ZM63.7799 46.41C63.7074 44.9924 63.5538 43.5801 63.3199 42.18C63.1013 40.8511 62.7184 39.5545 62.1799 38.32C61.4996 36.9068 60.5945 35.6133 59.4999 34.49C59.1399 34.12 58.4999 33.77 58.4999 33.36C58.3999 32.5 57.7599 32.36 57.2199 32.03C56.6799 31.7 56.4399 31.56 56.0399 31.36C54.9699 30.81 53.9099 30.26 52.7899 29.8C51.3794 29.2962 49.927 28.9181 48.4499 28.67C47.4736 28.4041 46.4591 28.306 45.4499 28.38C44.3399 28.5 43.2399 28.61 42.1199 28.67C41.3736 28.7306 40.636 28.8714 39.9199 29.09C38.0511 29.695 36.3305 30.6865 34.8699 32C32.8009 33.7422 31.1386 35.9165 29.9999 38.37C29.1557 40.2004 28.7255 42.1944 28.7399 44.21C28.6798 46.7472 28.8808 49.2839 29.3399 51.78C29.6006 53.2103 30.1009 54.5863 30.8199 55.85C31.7055 57.626 33.0096 59.1601 34.6199 60.32C34.7049 60.3767 34.7793 60.4478 34.8399 60.53C35.7411 61.4998 36.878 62.2198 38.1399 62.62C38.3699 62.72 38.5999 62.8 38.8199 62.92C40.4842 63.7348 42.2841 64.2364 44.1299 64.4C46.3123 64.7017 48.5312 64.6069 50.6799 64.12C51.5499 63.93 52.4299 63.71 53.2799 63.45C54.1754 63.0953 55.0116 62.6064 55.7599 62C56.8299 61.24 57.8299 60.37 58.8899 59.58C59.8129 58.8791 60.5879 58.0022 61.1699 57C61.9819 55.7905 62.543 54.4303 62.8199 53C62.8643 52.4039 62.9546 51.8122 63.0899 51.23C63.55 49.6648 63.7824 48.0415 63.7799 46.41ZM27.6799 51.54C27.6199 50.91 27.5499 50.42 27.5299 49.94C27.5299 48.94 27.5299 47.94 27.5299 47C27.5299 46.51 27.1799 45.94 27.3299 45.55C27.5295 44.6546 27.6069 43.7362 27.5599 42.82C27.631 41.9147 27.7478 41.0135 27.9099 40.12C28.1199 39.26 28.4999 38.43 28.7899 37.59C28.9829 37.2207 29.0262 36.7912 28.9107 36.3908C28.7953 35.9904 28.53 35.6498 28.1699 35.44C28.0999 35.38 27.9799 35.36 27.9099 35.29C27.6414 35.1049 27.414 34.8663 27.242 34.5893C27.0699 34.3123 26.9569 34.0027 26.9099 33.68C26.8499 32.61 25.7899 32.17 25.3899 31.3C25.3899 31.2 25.1399 31.16 25.0099 31.12C24.3899 30.93 23.7799 30.7 23.1499 30.57C21.7699 30.31 20.3099 30.28 19.2799 31.33C18.1194 32.3889 17.2632 33.7389 16.7999 35.24C16.2899 37.24 15.5299 39.15 15.5499 41.24C15.5755 41.3923 15.5755 41.5477 15.5499 41.7C14.8027 43.8235 14.2766 46.0185 13.9799 48.25C13.8299 49.34 13.5699 50.41 13.4299 51.5C13.3532 52.7136 13.2096 53.9221 12.9999 55.12C12.6174 57.1405 12.3437 59.1801 12.1799 61.23C11.9599 62.78 11.6199 64.28 11.2999 65.8C11.1896 66.5944 10.9569 67.3669 10.6099 68.09C10.5199 68.24 10.6999 68.54 10.7599 68.77C10.9478 68.7222 11.1267 68.6446 11.2899 68.54C12.2141 67.8153 13.0894 67.0303 13.9099 66.19C14.7599 65.19 15.8499 64.36 15.8399 62.89C15.8399 62.39 16.0699 62.29 16.4999 62.29C16.9299 62.29 17.0899 62.55 17.0699 62.98C17.0499 63.41 17.0199 63.9 17.5799 64.08C18.5384 63.3087 19.2366 62.2614 19.5799 61.08C19.7999 60.42 19.9899 59.75 20.2099 59.08C20.4299 58.41 20.6799 58.16 21.4099 58.3C21.7008 58.3886 21.9822 58.5058 22.2499 58.65C22.5099 57.37 22.7399 56.19 22.9999 55.03C23.1499 54.34 23.4699 54.08 24.0599 54.38C24.6499 54.68 24.6899 54.52 24.9299 54.07C25.2336 53.1618 25.7242 52.3272 26.3699 51.62C26.5467 51.4598 26.7728 51.3647 27.0109 51.3501C27.249 51.3356 27.4849 51.4025 27.6799 51.54ZM62.1299 35.11C62.6496 35.7983 63.1016 36.535 63.4799 37.31C64.4122 39.3754 64.8995 41.6139 64.9099 43.88C64.8593 44.2884 64.8593 44.7016 64.9099 45.11C65.28 46.8977 65.28 48.7423 64.9099 50.53C64.8464 50.7265 64.838 50.9367 64.8856 51.1377C64.9332 51.3387 65.035 51.5228 65.1799 51.67C65.3799 51.85 65.3999 52.21 65.5299 52.47C65.7699 52.96 65.9799 53.38 66.7099 53.39C67.7999 53.39 67.9299 53.73 68.3299 54.95C68.4312 55.8432 68.7773 56.691 69.3299 57.4C70.1299 58.13 70.2299 58.18 71.0799 57.46C71.9299 56.74 72.2999 56.95 72.5799 58.05C72.7547 58.9844 73.0505 59.8921 73.4599 60.75C74.1299 61.92 74.0899 61.95 75.1499 61.11C75.7499 60.63 76.1499 60.64 76.5399 61.26C76.9659 61.8923 77.3341 62.5616 77.6399 63.26C78.0599 64.26 78.3699 65.26 78.7399 66.2C78.8249 66.3557 78.9291 66.5001 79.0499 66.63C79.1499 66.5 79.3299 66.36 79.3399 66.22C79.4661 64.844 79.351 63.4565 78.9999 62.12C78.9017 61.8375 78.8314 61.5462 78.7899 61.25C78.6599 59.68 78.5599 58.11 78.4599 56.53C78.4749 56.377 78.4749 56.223 78.4599 56.07C78.1455 54.6989 77.9448 53.3041 77.8599 51.9C77.8557 51.5947 77.8256 51.2902 77.7699 50.99C77.3099 49.18 77.2399 47.31 76.9499 45.48C76.8823 44.4739 76.7588 43.4724 76.5799 42.48C76.2092 40.7159 75.9321 38.9334 75.7499 37.14C75.5066 35.1424 74.8639 33.2141 73.8599 31.47C73.3226 30.5467 72.465 29.8528 71.4499 29.52C70.4898 29.2352 69.4589 29.3099 68.5499 29.73C68.2072 29.7983 67.8865 29.9499 67.6162 30.1713C67.3459 30.3928 67.1343 30.6774 66.9999 31C66.8041 31.4093 66.5479 31.7868 66.2399 32.12C65.9331 32.6446 65.5411 33.1143 65.0799 33.51C64.1499 34.09 63.1499 34.55 62.1299 35.11Z" fill="white"/>
<path d="M43.8401 21.52C41.3201 21.52 38.8401 21.52 36.2801 21.52C34.6501 21.52 33.0501 21.09 31.4101 21.2C30.9301 21.2 30.0501 20.2 30.0101 19.69V19.53C30.0901 18.63 29.6701 17.53 30.3701 16.87C31.2883 16.0987 32.3908 15.5784 33.5701 15.36C34.8613 15.0855 36.1804 14.9647 37.5001 15C38.5001 15 39.4101 14.78 40.3601 14.71C41.2729 14.7818 42.1912 14.6869 43.0701 14.43C43.4237 14.3641 43.7864 14.3641 44.1401 14.43C46.9701 14.43 49.8001 14.48 52.6201 14.43C54.3802 14.5199 56.1297 14.7574 57.8501 15.14C58.3358 15.1776 58.7979 15.3653 59.1723 15.677C59.5468 15.9887 59.815 16.4091 59.9401 16.88C59.9764 17.4066 59.8885 17.9342 59.6835 18.4206C59.4786 18.9069 59.1623 19.3383 58.7601 19.68C57.7591 20.2462 56.6812 20.6639 55.5601 20.92C55.0301 21.05 54.4701 21.08 53.9401 21.24C52.9622 21.4983 51.9496 21.5995 50.9401 21.54L43.8401 21.52ZM57.1301 16.14C55.4101 15.52 53.6801 15.52 52.0401 15.08C51.7434 14.9902 51.4267 14.9902 51.1301 15.08C49.9901 15.55 48.8101 15.27 47.6501 15.35C46.0236 15.3407 44.3978 15.4208 42.7801 15.59C40.7625 15.8674 38.7261 15.9845 36.6901 15.94C35.4965 16.0211 34.3158 16.2358 33.1701 16.58C32.8301 16.65 32.7201 16.82 32.7901 17.1C32.8601 17.38 32.9801 17.47 33.1101 17.5C33.6845 17.6798 34.2791 17.7873 34.8801 17.82C36.7595 17.8479 38.6391 17.7711 40.5101 17.59C42.6704 17.4475 44.8368 17.4208 47.0001 17.51C48.8804 17.6016 50.7652 17.5179 52.6301 17.26C54.1585 17.0123 55.6637 16.6376 57.1301 16.14ZM31.4101 17.3C31.2183 17.8827 31.081 18.482 31.0001 19.09C31.0001 19.48 30.9501 20.15 31.7401 19.74C33.154 20.1095 34.6086 20.301 36.0701 20.31C41.0101 20.31 45.9501 20.31 50.8901 20.31C52.7469 20.2533 54.5888 19.9575 56.3701 19.43C57.2485 19.153 58.0156 18.603 58.5601 17.86C58.6386 17.7401 58.6877 17.6033 58.7033 17.4608C58.7189 17.3183 58.7007 17.1742 58.6501 17.04C58.5639 16.9258 58.4558 16.8299 58.3322 16.7578C58.2086 16.6857 58.0719 16.6389 57.9301 16.62C57.6497 16.6007 57.3687 16.6477 57.1098 16.7571C56.851 16.8666 56.6215 17.0354 56.4401 17.25C55.8063 17.8347 54.9721 18.1533 54.1101 18.14C53.9045 18.1095 53.6956 18.1095 53.4901 18.14C51.6901 18.85 49.8001 18.68 47.9301 18.75C46.6901 18.75 45.4801 18.51 44.2001 18.66C42.0401 18.93 39.8301 18.66 37.6401 19.01C36.665 19.0902 35.6851 19.0902 34.7101 19.01C34.1443 19.112 33.5646 19.1086 33.0001 19C32.6001 18.84 32.3701 18.27 32.0001 17.89C31.9101 17.72 31.7501 17.61 31.4101 17.3Z" fill="white"/>
<path d="M43.9999 76.75C43.8199 77.08 43.7799 77.3 43.6399 77.4C43.2699 77.66 42.8499 77.83 42.4799 78.09C41.9599 78.46 41.2699 78.63 41.0299 79.36C41.0299 79.54 40.6399 79.63 40.4499 79.77C40.0999 80.04 39.8399 79.77 39.6999 79.55C39.6513 79.335 39.6871 79.1094 39.7999 78.92C39.9071 78.7412 40.0587 78.593 40.2399 78.49C41.2399 77.86 42.2399 77.23 43.3299 76.64C43.4999 76.56 43.7499 76.7 43.9999 76.75Z" fill="white"/>
<path d="M52.29 76.44C52.2141 76.6169 52.1131 76.782 51.99 76.93C50.5967 78.11 49.1967 79.2767 47.79 80.43C47.7326 80.4644 47.6669 80.4825 47.6 80.4825C47.5331 80.4825 47.4674 80.4644 47.41 80.43C47.3758 80.3689 47.3579 80.3 47.3579 80.23C47.3579 80.16 47.3758 80.0911 47.41 80.03C48.3827 78.9247 49.5032 77.9589 50.74 77.16L52.11 76.27L52.29 76.44Z" fill="white"/>
<path d="M54.6398 76.48C54.8098 76.78 54.9898 76.95 54.9798 77.11C54.9579 77.3607 54.8522 77.5967 54.6798 77.78C53.5098 78.78 52.3098 79.78 51.1198 80.78C51.1198 80.78 50.9098 80.78 50.8398 80.78C50.7698 80.78 50.6998 80.58 50.7298 80.53C50.8586 80.2112 51.0413 79.9169 51.2698 79.66C51.9898 79.04 52.7698 78.49 53.4998 77.87C53.8259 77.5581 54.1299 77.2239 54.4098 76.87C54.4698 76.76 54.5198 76.66 54.6398 76.48Z" fill="white"/>
<path d="M43.8799 80C44.1099 78.48 45.2899 77.91 46.2799 77.15C46.6443 76.8984 47.037 76.6903 47.4499 76.53C47.5191 76.5163 47.5906 76.521 47.6574 76.5439C47.7241 76.5667 47.7836 76.6068 47.8299 76.66C47.8586 76.7228 47.8735 76.791 47.8735 76.86C47.8735 76.9291 47.8586 76.9973 47.8299 77.06C47.7492 77.1919 47.6308 77.2964 47.4899 77.36C46.4721 77.9236 45.5533 78.6499 44.7699 79.51C44.4942 79.7089 44.1954 79.8735 43.8799 80Z" fill="white"/>
<path d="M37.0498 79.31C36.9121 79.2374 36.7871 79.1428 36.6798 79.03C36.6524 78.9739 36.6382 78.9124 36.6382 78.85C36.6382 78.7876 36.6524 78.726 36.6798 78.67C36.7916 78.4982 36.9381 78.3518 37.1098 78.24C38.2098 77.56 39.3098 76.9 40.4198 76.24C40.5167 76.2048 40.6229 76.2048 40.7198 76.24C40.8498 76.24 41.0298 76.34 41.0698 76.44C41.0755 76.5086 41.0638 76.5775 41.0359 76.6405C41.0079 76.7034 40.9646 76.7582 40.9098 76.8C40.1998 77.25 39.4598 77.66 38.7498 78.12C38.2898 78.41 37.8798 78.78 37.4398 79.12C37.3198 79.18 37.1798 79.24 37.0498 79.31Z" fill="white"/>
<path d="M36.4498 77.15C36.4498 77.15 36.4498 77.27 36.4498 77.29C35.6398 77.85 34.8298 78.42 33.9998 78.96C33.8998 79.02 33.6398 78.87 33.4898 78.78C33.4794 78.6396 33.5222 78.5003 33.6098 78.39C34.3798 77.86 35.1598 77.33 35.9498 76.83C36.0498 76.77 36.2398 76.83 36.3698 76.9C36.4998 76.97 36.4098 77.06 36.4498 77.15Z" fill="white"/>
<path d="M31.7599 11.61C31.6199 11.67 31.3899 11.86 31.3199 11.81C30.6532 11.3833 30.0232 10.9233 29.4299 10.43C29.3499 10.37 29.4299 10.07 29.5199 9.89001C29.6099 9.71001 29.7299 9.79001 29.7799 9.83001C30.4399 10.35 31.0899 10.89 31.7799 11.43C31.7599 11.45 31.7499 11.51 31.7599 11.61Z" fill="white"/>
<path d="M58.3599 79.36C58.9099 78.64 59.2899 78.12 59.6999 77.62C59.7459 77.5668 59.8058 77.5274 59.8729 77.5062C59.94 77.485 60.0116 77.4828 60.0799 77.5C60.1339 77.5429 60.1774 77.5977 60.2068 77.6601C60.2363 77.7226 60.251 77.7909 60.2499 77.86C60.2339 78.0533 60.1685 78.2393 60.0599 78.4C59.8379 78.7695 59.5653 79.1061 59.2499 79.4C59.1199 79.55 58.7699 79.41 58.3599 79.36Z" fill="white"/>
<path d="M66.3098 16.93C65.9298 16.86 65.5598 16.78 65.1898 16.73C64.9142 16.6597 64.6254 16.6597 64.3498 16.73C64.0098 16.89 63.9298 16.64 63.7598 16.5C63.9098 16.33 64.0398 16.03 64.2098 16.01C64.6107 15.9531 65.0196 16.0091 65.3905 16.1716C65.7614 16.3341 66.0797 16.5967 66.3098 16.93Z" fill="white"/>
<path d="M24.1399 18.6299C23.5199 18.7499 23.0399 18.86 22.5499 18.93C22.339 18.9474 22.1294 18.8836 21.964 18.7516C21.7986 18.6196 21.6898 18.4295 21.6599 18.2199C21.6538 18.1217 21.6861 18.0249 21.7499 17.95C21.7499 17.95 21.9399 17.95 21.9599 18C22.2399 18.48 22.5799 18.28 22.9599 18.17C23.3399 18.06 23.4099 18.1399 24.1399 18.6299Z" fill="white"/>
<path d="M65.4697 24.34C64.8697 23.92 64.5897 23.27 63.8597 23.34C63.7688 23.2383 63.7189 23.1064 63.7197 22.97C63.7565 22.9143 63.8051 22.8674 63.8622 22.8328C63.9193 22.7982 63.9833 22.7768 64.0497 22.77C64.9997 22.72 65.3497 23.12 65.4697 24.34Z" fill="white"/>
<path d="M24.5997 24.88C24.5997 24.88 24.4897 24.82 24.4897 24.79C24.4897 24.76 24.4897 24.54 24.4897 24.51C25.0197 24.16 25.5497 23.81 26.0997 23.51C26.1597 23.51 26.3597 23.59 26.4297 23.68C26.4997 23.77 26.4297 23.99 26.4297 24.02C25.8797 24.33 25.3197 24.62 24.7597 24.91C24.7048 24.9124 24.6501 24.9021 24.5997 24.88Z" fill="white"/>
<path d="M57.14 77.91C57.26 79.13 56.54 79.46 55.96 79.91C55.96 79.91 55.77 79.91 55.72 79.81C55.67 79.71 55.63 79.58 55.72 79.54C56.1 79 56.54 78.55 57.14 77.91Z" fill="white"/>
<path d="M31.2197 78.7501C31.2259 78.3842 31.3543 78.0309 31.5844 77.7464C31.8146 77.4619 32.1332 77.2626 32.4897 77.1801C32.6097 77.1801 32.8097 77.3601 33.0997 77.5301L31.2197 78.7501Z" fill="white"/>
<path d="M50 8C50.18 8.87 49.5 9.41 49.27 10.08C49.27 10.08 49.06 10.08 48.99 10.08C48.92 10.08 48.81 9.9 48.83 9.85C49.16 9.19 49.18 8.37 50 8Z" fill="white"/>
<path d="M39.8899 10.38C38.8899 9.89998 38.8899 9.16998 39.0599 8.22998C39.5867 8.82313 39.8815 9.58668 39.8899 10.38Z" fill="white"/>
<path d="M56.6699 11.06C56.6699 9.94998 56.6699 9.94998 58.2399 9.47998L56.6699 11.06Z" fill="white"/>
<path d="M42.6598 80.9999C42.4498 80.9999 42.2398 81.1099 42.0298 81.1299C41.8198 81.1499 41.8898 81.0299 41.8198 80.9799C42.0017 80.8231 42.1994 80.6857 42.4098 80.5699C42.5098 80.5699 42.6798 80.6399 42.8198 80.6799L42.6598 80.9999Z" fill="white"/>
<path d="M37.2298 80.56C36.9998 80.69 36.8198 80.82 36.7898 80.79C36.6606 80.6735 36.5641 80.5253 36.5098 80.36C36.5098 80.26 36.6098 80.12 36.6598 80.01L37.2298 80.56Z" fill="white"/>
<path d="M58.7699 76.44L58.5099 76.79L58.1499 76.5C58.2299 76.41 58.3099 76.27 58.4099 76.26C58.5099 76.25 58.6199 76.36 58.7699 76.44Z" fill="white"/>
<path d="M54.3799 80.79C54.5099 80.92 54.6799 81.06 54.6599 81.09C54.5665 81.2152 54.4592 81.3293 54.3399 81.43C54.2699 81.33 54.1399 81.24 54.1299 81.14C54.1199 81.04 54.2599 80.94 54.3799 80.79Z" fill="white"/>
<path d="M49.1002 81.67L48.6602 82.02C48.6602 81.94 48.5302 81.82 48.5602 81.79C48.6697 81.674 48.7941 81.5732 48.9302 81.49C48.9302 81.49 49.0002 81.59 49.1002 81.67Z" fill="white"/>
<path d="M45.1498 81.13L44.9598 81.39L44.5898 81C44.6798 81 44.7898 80.89 44.8598 80.92C44.9653 80.977 45.0628 81.0476 45.1498 81.13Z" fill="white"/>
<path d="M33.26 80C32.94 80.12 32.81 80.2 32.78 80.17C32.6721 80.0497 32.5719 79.9228 32.48 79.79C32.55 79.79 32.64 79.67 32.68 79.69C32.72 79.71 33 79.88 33.26 80Z" fill="white"/>
<path d="M39.8398 40.9401C38.7798 40.5301 37.7498 40.1801 36.7498 39.7401C35.6567 39.3542 34.658 38.7406 33.8198 37.9401C33.2798 37.3401 33.1898 36.9401 33.8198 36.6301C35.1398 36.0301 36.4598 35.4301 37.8198 34.9301C38.3681 34.812 38.9307 34.7749 39.4898 34.8201C39.8498 34.8201 40.2098 34.8201 40.5698 34.8201C41.1197 34.8811 41.6764 34.8196 42.1998 34.6401C42.5398 34.4301 42.5998 33.7701 42.7898 33.3101C43.0798 32.6201 43.3098 31.9001 43.6598 31.2401C43.9571 30.7069 44.3199 30.2131 44.7398 29.7701C45.0411 29.4624 45.4422 29.2723 45.8711 29.2338C46.2999 29.1953 46.7285 29.311 47.0798 29.5601C48.3251 30.2647 49.3104 31.3517 49.8898 32.6601C50.0298 32.9801 50.2098 33.2901 50.3498 33.6601C50.4245 33.8477 50.5543 34.0084 50.7221 34.1208C50.8899 34.2333 51.0878 34.2923 51.2898 34.2901C52.6867 34.421 54.0754 34.628 55.4498 34.9101C56.5921 35.2 57.6309 35.8025 58.4498 36.6501C58.5764 36.7899 58.6692 36.957 58.721 37.1384C58.7727 37.3199 58.782 37.5108 58.7482 37.6964C58.7144 37.882 58.6383 38.0573 58.5258 38.2088C58.4134 38.3603 58.2676 38.4839 58.0998 38.5701C57.0198 39.1901 55.9498 39.8701 54.8198 40.3801C54.7358 40.4021 54.6576 40.4418 54.5902 40.4965C54.5229 40.5512 54.4679 40.6196 54.4291 40.6972C54.3903 40.7749 54.3685 40.8599 54.3652 40.9466C54.3619 41.0333 54.3771 41.1197 54.4098 41.2001C54.5098 41.5801 54.7398 41.9301 54.8798 42.3101C55.4917 43.781 56.0257 45.283 56.4798 46.8101C56.6287 47.7763 56.6522 48.7578 56.5498 49.7301C56.5498 50.2401 56.2498 50.4501 55.7598 50.3301C55.5753 50.2678 55.4003 50.1803 55.2398 50.0701C53.5398 48.9901 51.8598 47.8901 50.1598 46.8201C49.5198 46.4201 48.8298 46.1001 48.2198 45.6501C47.9716 45.4752 47.673 45.3865 47.3697 45.3973C47.0663 45.4081 46.7748 45.518 46.5398 45.7101C44.1598 46.9899 42.0266 48.6829 40.2398 50.7101C40.0042 50.9806 39.7503 51.2345 39.4798 51.4701C39.2898 51.6301 39.0098 51.8501 38.8498 51.8001C38.6783 51.7432 38.5323 51.628 38.4373 51.4744C38.3422 51.3209 38.3042 51.1388 38.3298 50.9601C38.3298 49.7301 38.3898 48.4901 38.3298 47.2601C38.2698 46.0301 38.8998 45.0401 39.0998 43.9101C39.2998 42.7801 39.6098 41.8401 39.8398 40.9401Z" fill="white"/>
<path d="M50.7098 59.1699C50.3098 60.6599 50.2898 62.1699 49.0398 63.1699C48.8898 63.2899 48.7398 63.4699 48.5598 63.5099C48.367 63.5306 48.1729 63.4847 48.0098 63.3799C48.0098 63.3799 48.0098 63.1199 48.0098 62.9799C48.0463 62.8846 48.1045 62.799 48.1798 62.7299C48.9492 61.7062 49.4913 60.53 49.7698 59.2799C49.7698 59.1199 50.0998 58.9699 50.2898 58.9299C50.4798 58.8899 50.5998 59.0999 50.7098 59.1699Z" fill="white"/>
<path d="M51.4102 62.84C51.8052 62.3198 52.1723 61.7791 52.5102 61.22C52.7636 60.7896 52.8982 60.2996 52.9002 59.8C52.9299 59.3524 53.0347 58.9129 53.2102 58.5C53.2102 58.42 53.4402 58.36 53.5702 58.35C53.7002 58.34 53.7402 58.47 53.7502 58.55C53.879 59.3504 53.8185 60.1697 53.5737 60.9425C53.3288 61.7153 52.9064 62.4199 52.3402 63C51.9202 63.41 51.6402 63.2 51.4102 62.84Z" fill="white"/>
<path d="M44.6801 63.48C44.5801 63.39 44.4001 63.32 44.3701 63.2C44.3401 63.08 44.3101 62.73 44.3701 62.7C45.4901 62.19 45.7901 61.06 46.3701 60.14C46.5501 59.84 46.6701 59.5 46.8401 59.21C46.9101 59.1 47.1401 58.98 47.1801 59.01C47.2201 59.04 47.5401 59.3 47.5401 59.46C47.5055 59.7034 47.424 59.9377 47.3001 60.15C46.9355 61.2345 46.3106 62.2131 45.4801 63C45.2274 63.1822 44.9598 63.3428 44.6801 63.48Z" fill="white"/>
<path d="M41.3797 62.63C41.2089 62.514 41.0571 62.3724 40.9297 62.21C40.9297 62.16 40.9997 61.96 41.0897 61.87C41.2729 61.6917 41.4779 61.5371 41.6997 61.41C42.325 61.0611 42.8226 60.5215 43.1197 59.87C43.2881 59.5641 43.4821 59.273 43.6997 59C43.7441 58.9703 43.7963 58.9545 43.8497 58.9545C43.9031 58.9545 43.9553 58.9703 43.9997 59C44.0997 59.08 44.2397 59.25 44.2097 59.33C44.0397 59.8 43.8397 60.25 43.6297 60.7C43.2481 61.4797 42.6136 62.1071 41.8297 62.48L41.3797 62.63Z" fill="white"/>
<path d="M37.8697 60.7601C37.7203 60.7801 37.569 60.7801 37.4197 60.7601C37.3015 60.6987 37.2067 60.6004 37.1497 60.4801C37.143 60.4333 37.1487 60.3856 37.1663 60.3417C37.1838 60.2978 37.2126 60.2593 37.2497 60.2301C37.405 60.1031 37.5857 60.0111 37.7797 59.9601C38.6703 59.7928 39.4757 59.323 40.0597 58.6301C40.2414 58.4694 40.4621 58.359 40.6997 58.3101C40.7997 58.3101 40.9697 58.3901 41.0797 58.4801C41.1016 58.5235 41.1131 58.5714 41.1131 58.6201C41.1131 58.6687 41.1016 58.7167 41.0797 58.7601C40.1897 59.7201 39.3297 60.7301 37.8697 60.7601Z" fill="white"/>
<path d="M35.3897 58.28C35.0366 58.3001 34.6827 58.3001 34.3297 58.28C34.2656 58.2646 34.2068 58.2324 34.1593 58.1867C34.1119 58.141 34.0775 58.0834 34.0597 58.02C34.058 57.9498 34.0736 57.8804 34.105 57.8176C34.1363 57.7549 34.1826 57.7008 34.2397 57.66C34.5043 57.5318 34.788 57.4474 35.0797 57.41C35.7697 57.33 36.4597 57.27 37.1597 57.23C37.2102 57.2379 37.2578 57.2586 37.2981 57.2901C37.3383 57.3216 37.3699 57.3629 37.3897 57.41C37.413 57.5092 37.4147 57.6122 37.3947 57.7122C37.3747 57.8121 37.3334 57.9065 37.2736 57.989C37.2139 58.0716 37.137 58.1403 37.0483 58.1905C36.9597 58.2407 36.8612 58.2712 36.7597 58.28C36.3035 58.31 35.8459 58.31 35.3897 58.28Z" fill="white"/>
<path d="M56.3499 59.0001C56.3775 59.3153 56.3196 59.6321 56.1824 59.9172C56.0451 60.2023 55.8335 60.4451 55.5699 60.6201C55.437 60.6658 55.2927 60.6658 55.1599 60.6201C55.0999 60.6201 55.0299 60.4201 55.0499 60.3701C55.5699 59.5101 55.2399 58.5701 55.3499 57.6801C55.3499 57.5601 55.4799 57.3801 55.5699 57.3701C55.6369 57.3688 55.7031 57.3859 55.7612 57.4193C55.8193 57.4528 55.8673 57.5015 55.8999 57.5601C56.0699 58.0901 56.1999 58.5601 56.3499 59.0001Z" fill="white"/>
<path d="M57.8099 57.34C57.7899 56.9869 57.7899 56.633 57.8099 56.28C57.8099 56.12 58.0199 55.86 58.0899 55.88C58.1599 55.9 58.5299 56.05 58.5499 56.18C58.633 56.7191 58.6664 57.2647 58.6499 57.81C58.6135 58.1045 58.5219 58.3895 58.3799 58.65C58.3453 58.7064 58.2987 58.7544 58.2434 58.7907C58.1881 58.827 58.1254 58.8507 58.0599 58.86C57.9987 58.8358 57.9446 58.7966 57.9026 58.7459C57.8607 58.6952 57.8322 58.6347 57.8199 58.57C57.8199 58.16 57.8199 57.75 57.8199 57.34H57.8099Z" fill="white"/>
<path d="M62.2599 53.29C61.9799 53.56 61.8099 53.84 61.5799 53.92C61.3499 54 60.9999 53.64 61.0199 53.58C61.1382 53.2905 61.2892 53.0154 61.4699 52.76L62.2599 53.29Z" fill="white"/>
<path d="M62.7001 51.45C62.475 51.373 62.2601 51.2689 62.0601 51.14C61.9501 51.04 61.8501 50.75 61.9101 50.68C62.0802 50.5231 62.2722 50.3918 62.4801 50.29C62.5787 50.4346 62.6625 50.5887 62.7301 50.75C62.7429 50.9838 62.7328 51.2182 62.7001 51.45Z" fill="white"/>
<path d="M60.64 56.57L60.04 55.94C60.24 55.8 60.52 55.51 60.62 55.56C60.72 55.61 60.98 55.96 61.15 56.18L60.64 56.57Z" fill="white"/>
<path d="M33.66 55.63C33.6217 55.7022 33.5747 55.7693 33.52 55.83C33.24 56.06 33.11 56.59 32.59 56.31C32.5549 56.2777 32.5289 56.2365 32.5149 56.1909C32.5008 56.1452 32.4991 56.0966 32.51 56.05C32.71 55.53 33.09 55.42 33.66 55.63Z" fill="white"/>
<path d="M60.0001 55.5499C59.752 55.4538 59.5142 55.3332 59.2901 55.1899C59.1578 55.0713 59.0756 54.9069 59.0601 54.7299C59.0774 54.6576 59.1133 54.591 59.1641 54.5367C59.215 54.4823 59.279 54.4421 59.3501 54.4199C59.4353 54.4168 59.5202 54.4332 59.5982 54.4678C59.6762 54.5025 59.7452 54.5545 59.8001 54.6199C59.8993 54.922 59.9664 55.2338 60.0001 55.5499Z" fill="white"/>
<path d="M62.8997 48.1099C62.9551 48.3201 62.9952 48.534 63.0197 48.7499C63.0197 48.7499 62.9197 48.8699 62.8697 48.9399C62.7152 48.7621 62.581 48.5676 62.4697 48.3599C62.4697 48.2499 62.5497 48.0799 62.5897 47.9399L62.8997 48.1099Z" fill="white"/>
<path d="M31.8798 54.78L31.7398 55.13C31.5976 55.0276 31.4638 54.9139 31.3398 54.79C31.3398 54.79 31.4198 54.61 31.4398 54.61C31.5903 54.6562 31.7374 54.713 31.8798 54.78Z" fill="white"/>
<path d="M18.3998 43.7099C18.2209 43.6231 18.0819 43.4712 18.0113 43.2854C17.9407 43.0995 17.9437 42.8937 18.0198 42.7099C18.2998 41.9599 18.5998 41.2299 18.8698 40.4799C19.2898 39.2599 19.7498 38.0499 20.0798 36.7999C20.384 35.7779 20.9992 34.8761 21.8398 34.2199C22.1058 33.9861 22.4103 33.8 22.7398 33.6699C23.3798 33.4199 23.7398 33.6699 24.1698 34.3499C24.4769 35.1544 24.9664 35.8766 25.5998 36.4599C25.8498 36.6299 26.1298 36.7599 26.3598 36.9399C26.5898 37.1199 26.5898 37.2499 26.5498 37.2999C26.5098 37.3499 26.2598 37.6099 26.1298 37.5899C24.8198 37.3899 23.5598 37.0499 22.8998 35.7099C22.8292 35.5784 22.7455 35.4544 22.6498 35.3399C22.5966 35.2862 22.5398 35.236 22.4798 35.1899C21.7601 35.7051 21.2548 36.4667 21.0598 37.33C20.4398 38.85 19.9398 40.4099 19.3498 41.9399C19.1098 42.5499 19.2498 43.3899 18.3998 43.7099Z" fill="white"/>
<path d="M16.8199 52.0001C17.5499 53.5401 16.8199 54.8101 16.6899 56.3101C17.3599 55.5501 17.8499 54.9501 18.3899 54.3901C18.5499 54.2023 18.7623 54.0665 18.9999 54.0001C19.7599 53.8701 19.7599 53.8901 19.9499 53.3501C20.2099 52.6001 20.4499 51.8401 20.7299 51.1001C20.8164 50.8222 20.9671 50.5687 21.1699 50.3601C21.2699 50.2601 21.5499 50.3601 21.7399 50.3101C21.7399 50.4601 21.6699 50.6201 21.6499 50.7801C21.4699 52.1119 21.0924 53.4095 20.5299 54.6301C20.1999 55.3401 19.9699 55.4201 19.0299 55.2601C18.6099 55.1801 18.4499 55.4401 18.3099 55.6801C17.9499 56.3301 17.6699 57.0301 17.3099 57.6801C17.0973 58.0239 16.8344 58.334 16.5299 58.6001C16.3437 58.7638 16.1148 58.8713 15.8699 58.9101C15.3099 59.0101 15.0599 58.8001 15.1699 58.2601C15.4899 56.7601 15.8399 55.2601 16.1699 53.7601C16.2399 53.4701 16.3099 53.1801 16.3999 52.9001C16.4899 52.6201 16.6099 52.4501 16.8199 52.0001Z" fill="white"/>
<path d="M72.9101 42.5099C72.9101 43.3899 72.9101 43.9099 72.9101 44.4199C72.8833 44.4774 72.8428 44.5275 72.7923 44.5659C72.7418 44.6042 72.6827 44.6296 72.6201 44.6399C72.5565 44.6202 72.4988 44.5853 72.4517 44.5383C72.4047 44.4913 72.3698 44.4335 72.3501 44.3699C72.2101 42.6199 71.6601 40.9399 71.6501 39.1399C71.6963 37.9265 71.2819 36.7405 70.4901 35.8199C70.2901 35.6199 70.0501 35.4499 69.8301 35.2699C69.792 35.2183 69.7422 35.1762 69.6849 35.1473C69.6276 35.1183 69.5643 35.1033 69.5001 35.1033C69.4359 35.1033 69.3725 35.1183 69.3152 35.1473C69.2579 35.1762 69.2082 35.2183 69.1701 35.2699C68.8301 35.7099 68.5101 36.1599 68.1701 36.5999C67.8301 37.0399 67.4501 37.5999 67.0401 38.0099C66.6301 38.4199 66.4901 38.0099 66.2801 37.8199C66.2306 37.7782 66.1929 37.7243 66.1707 37.6635C66.1486 37.6026 66.1428 37.5371 66.154 37.4733C66.1651 37.4096 66.1928 37.3498 66.2342 37.3001C66.2756 37.2504 66.3294 37.2124 66.3901 37.1899C67.055 36.7439 67.5679 36.1055 67.8601 35.3599C68.0066 35.0246 68.2455 34.7377 68.5488 34.533C68.8522 34.3282 69.2075 34.2139 69.5734 34.2034C69.9392 34.1929 70.3005 34.2867 70.6151 34.4738C70.9297 34.6608 71.1846 34.9335 71.3501 35.2599C72.0018 36.2706 72.4282 37.4097 72.6001 38.5999C72.7801 40.0499 72.8301 41.4699 72.9101 42.5099Z" fill="white"/>
<path d="M68.1798 49.36C68.3298 49.36 68.4598 49.36 68.5098 49.45C68.7867 49.7419 69.0345 50.0601 69.2498 50.4C69.6098 51.01 69.8698 51.63 70.8098 51.57C71.0898 51.57 71.4398 52.15 71.7098 52.5C72.067 52.9264 72.3786 53.3889 72.6398 53.88C72.7889 54.1984 73.0029 54.4821 73.2681 54.7129C73.5333 54.9437 73.8439 55.1164 74.1798 55.22C74.3747 55.2739 74.5423 55.3987 74.6498 55.57C74.7091 55.8051 74.7327 56.0478 74.7198 56.29C74.5433 56.2998 74.3664 56.2998 74.1898 56.29C74.0998 56.29 73.9998 56.13 73.9298 56.14C72.6498 56.34 72.1198 55.53 71.6798 54.53C71.4242 53.9931 71.1196 53.4809 70.7698 53C70.6098 52.77 70.3598 52.48 70.1198 52.45C69.8189 52.4076 69.5373 52.2765 69.3111 52.0735C69.0849 51.8705 68.9243 51.6047 68.8498 51.31C68.6198 50.75 68.2898 50.25 68.0298 49.7C67.9998 49.63 68.1298 49.47 68.1798 49.36Z" fill="white"/>
</svg>
