<svg width="90" height="91" viewBox="0 0 90 91" fill="none" xmlns="http://www.w3.org/2000/svg">
<path d="M24.9198 74.6954C24.8428 74.6837 24.7692 74.6551 24.7045 74.6116C24.6397 74.5682 24.5854 74.511 24.5453 74.4442C24.5051 74.3773 24.4803 74.3024 24.4724 74.2249C24.4646 74.1473 24.4739 74.069 24.4998 73.9954C24.5498 73.8254 24.8898 73.7054 25.1298 73.7454C25.2419 73.7821 25.3351 73.8614 25.3893 73.9661C25.4436 74.0709 25.4545 74.1927 25.4198 74.3054C25.4166 74.3655 25.4006 74.4241 25.3728 74.4774C25.345 74.5307 25.3061 74.5774 25.2587 74.6144C25.2113 74.6514 25.1565 74.6777 25.0981 74.6917C25.0396 74.7057 24.9788 74.707 24.9198 74.6954Z" fill="white"/>
<path d="M44.3398 40.8154C44.3398 40.9754 44.2798 41.1954 44.1198 41.1954C43.9598 41.1954 43.8998 40.9854 43.8998 40.8054C43.8977 40.7227 43.918 40.641 43.9585 40.5688C43.9989 40.4967 44.0581 40.4368 44.1298 40.3954C44.2175 40.5258 44.2881 40.667 44.3398 40.8154Z" fill="white"/>
<path d="M55.74 42.3054C55.74 42.4654 55.68 42.6854 55.51 42.6854C55.34 42.6854 55.29 42.4754 55.29 42.2954C55.2875 42.214 55.3077 42.1335 55.3484 42.0629C55.389 41.9923 55.4484 41.9343 55.52 41.8954C55.6127 42.0208 55.6868 42.1589 55.74 42.3054Z" fill="white"/>
<path d="M50.0498 41.6054C50.1638 41.5227 50.2842 41.4492 50.4098 41.3854C50.4449 41.3674 50.4834 41.357 50.5228 41.3548C50.5622 41.3527 50.6016 41.3589 50.6384 41.3731C50.6752 41.3873 50.7086 41.409 50.7365 41.437C50.7643 41.465 50.7859 41.4985 50.7998 41.5354C50.8123 41.562 50.8188 41.5911 50.8188 41.6204C50.8188 41.6498 50.8123 41.6788 50.7998 41.7054C50.7848 41.7427 50.7621 41.7764 50.7334 41.8044C50.7046 41.8325 50.6704 41.8542 50.6328 41.8683C50.5952 41.8824 50.555 41.8886 50.5149 41.8863C50.4748 41.8841 50.4356 41.8736 50.3998 41.8554C50.2731 41.7871 50.1556 41.7031 50.0498 41.6054Z" fill="white"/>
<path d="M47.4499 40.7055C47.3599 40.8155 47.2299 41.0355 47.1899 41.0155C46.7899 40.8155 46.7899 40.5755 47.1899 40.4055C47.2499 40.3855 47.3699 40.6055 47.4499 40.7055Z" fill="white"/>
<path d="M44.8299 39.3854C44.7499 39.4654 44.6299 39.6354 44.5899 39.6154C44.2399 39.4654 44.2399 39.2854 44.5899 39.1554C44.6499 39.1454 44.7499 39.3054 44.8299 39.3854Z" fill="white"/>
<path d="M55.9999 40.8954C55.9499 40.9554 55.86 41.0754 55.84 41.0554C55.58 40.9554 55.59 40.8254 55.84 40.7354C55.91 40.7254 55.9999 40.8354 55.9999 40.8954Z" fill="white"/>
<path d="M55.1398 69.3854C55.1507 69.2824 55.1507 69.1785 55.1398 69.0754C54.9898 68.3254 55.5598 67.8154 55.7798 67.1854C55.7798 67.0754 56.0498 66.9854 56.2098 66.9554C56.3698 66.9254 56.7198 66.9554 56.9798 66.9554C57.8318 66.9683 58.6538 67.2717 59.3098 67.8154C59.5133 67.9723 59.6776 68.1743 59.7898 68.4054C59.9198 68.6154 59.9998 68.8654 60.1198 69.0854C60.3898 69.6154 60.3598 69.8054 59.9498 70.2054C59.5398 70.6054 59.4498 70.5354 59.3798 70.2654C59.3098 69.9954 59.0498 69.6654 58.9398 69.3554C58.8637 69.1218 58.7334 68.9094 58.5596 68.7356C58.3859 68.5618 58.1735 68.4316 57.9398 68.3554C57.6598 68.1524 57.3391 68.0125 56.9998 67.9454C56.5998 67.9454 56.2598 68.1254 56.2398 68.4454L56.1498 70.2454C56.1498 70.4154 55.6798 70.5954 55.4998 70.4954C55.4283 70.4524 55.3669 70.3944 55.3198 70.3254C55.1683 70.0368 55.1056 69.7097 55.1398 69.3854Z" fill="white"/>
<path d="M61.3598 65.3754C61.3186 65.5262 61.2651 65.6734 61.1998 65.8154C61.1594 65.8891 61.0925 65.9447 61.0126 65.9707C60.9326 65.9967 60.8458 65.9912 60.7698 65.9554C60.6298 65.9554 60.4398 65.8354 60.3798 65.7154C60.311 65.5683 60.2754 65.4078 60.2754 65.2454C60.2754 65.083 60.311 64.9226 60.3798 64.7754C60.4786 64.6552 60.6168 64.5737 60.7698 64.5454C60.8277 64.5307 60.8879 64.5279 60.9469 64.5372C61.0058 64.5465 61.0623 64.5677 61.1128 64.5995C61.1633 64.6313 61.2068 64.673 61.2407 64.7222C61.2746 64.7714 61.2981 64.8269 61.3098 64.8854C61.3498 65.0554 61.3498 65.2154 61.3598 65.3754Z" fill="white"/>
<path d="M62.2 68.8755C62.49 68.8755 62.87 69.0055 62.81 69.1155C62.7142 69.2315 62.5902 69.321 62.45 69.3755C62.4135 69.3934 62.3737 69.4034 62.3332 69.405C62.2926 69.4065 62.2521 69.3995 62.2144 69.3844C62.1767 69.3694 62.1426 69.3465 62.1143 69.3174C62.0859 69.2883 62.064 69.2536 62.05 69.2155C62 69.0855 62 68.9855 62.2 68.8755Z" fill="white"/>
<path d="M31 49.1554H30.74C30.4 49.1554 30.3 49.0554 30.24 48.7154C30.2316 48.6534 30.236 48.5904 30.2528 48.5301C30.2697 48.4699 30.2987 48.4137 30.338 48.365C30.3773 48.3163 30.4261 48.2762 30.4815 48.247C30.5369 48.2179 30.5976 48.2003 30.66 48.1954C30.9121 48.1604 31.1678 48.1604 31.42 48.1954C31.61 48.1954 31.65 48.4154 31.68 48.5854C31.71 48.7554 31.68 48.9454 31.48 49.0154C31.3233 49.0729 31.1629 49.1196 31 49.1554Z" fill="white"/>
<path d="M25.4299 62.7855C25.4518 62.8673 25.4472 62.9541 25.4166 63.0332C25.3861 63.1123 25.3312 63.1796 25.2599 63.2255C25.0402 63.3554 24.7821 63.4049 24.5299 63.3655C24.2399 63.3655 24.0099 63.1955 23.9999 62.9455C23.9815 62.7853 24.0167 62.6235 24.0999 62.4855C24.5799 61.8055 24.9199 61.8355 25.3799 62.5555C25.4081 62.6291 25.4249 62.7067 25.4299 62.7855Z" fill="white"/>
<path d="M19.9198 72.5455C19.9349 72.6017 19.9313 72.6613 19.9097 72.7154C19.888 72.7695 19.8495 72.8151 19.7998 72.8455C19.6496 72.9352 19.4719 72.9672 19.2998 72.9355C19.0998 72.9355 18.9398 72.8255 18.9298 72.6555C18.9208 72.5442 18.9451 72.4328 18.9998 72.3355C19.3298 71.8655 19.5698 71.8855 19.8798 72.3355C19.913 72.4002 19.9269 72.4731 19.9198 72.5455Z" fill="white"/>
<path d="M33.1899 67.6354C33.2467 67.6224 33.3057 67.6216 33.3628 67.6331C33.42 67.6446 33.474 67.6682 33.5213 67.7023C33.5687 67.7363 33.6082 67.7801 33.6372 67.8307C33.6663 67.8812 33.6842 67.9374 33.6899 67.9954C33.7129 68.1104 33.693 68.2298 33.6341 68.3311C33.5751 68.4324 33.4812 68.5086 33.3699 68.5454C33.0099 68.6454 32.7099 68.4254 32.7599 68.0754C32.8099 67.7254 32.8799 67.6654 33.1899 67.6354Z" fill="white"/>
<path d="M15.7198 70.2354C15.6067 70.3302 15.4824 70.4108 15.3498 70.4754C15.3124 70.492 15.272 70.501 15.2311 70.5019C15.1902 70.5029 15.1496 70.4957 15.1114 70.4808C15.0733 70.4659 15.0385 70.4437 15.0091 70.4153C14.9796 70.3869 14.9561 70.353 14.9398 70.3154C14.9248 70.2896 14.917 70.2603 14.917 70.2304C14.917 70.2006 14.9248 70.1713 14.9398 70.1454C14.9539 70.1061 14.9761 70.0702 15.0049 70.0399C15.0338 70.0097 15.0686 69.9858 15.1072 69.9698C15.1458 69.9538 15.1873 69.946 15.2291 69.947C15.2708 69.948 15.312 69.9576 15.3498 69.9754C15.4812 70.0499 15.6052 70.137 15.7198 70.2354Z" fill="white"/>
<path d="M22.2 61.9655C22.1253 61.997 22.0415 61.9991 21.9654 61.9712C21.8893 61.9434 21.8266 61.8877 21.79 61.8155C21.7775 61.7889 21.771 61.7598 21.771 61.7305C21.771 61.7011 21.7775 61.6721 21.79 61.6455C21.8027 61.6051 21.8241 61.5681 21.8527 61.5369C21.8813 61.5058 21.9163 61.4812 21.9554 61.465C21.9944 61.4488 22.0366 61.4414 22.0788 61.4432C22.1211 61.445 22.1624 61.456 22.2 61.4755C22.33 61.5455 22.34 61.9155 22.2 61.9655Z" fill="white"/>
<path d="M37.2798 65.1954C37.4198 65.1954 37.5098 65.1954 37.4998 65.3654C37.4898 65.5354 37.3998 65.4754 37.3498 65.5254C37.2998 65.5754 37.2298 65.4154 37.2098 65.3554C37.1898 65.2954 37.2498 65.2454 37.2798 65.1954Z" fill="white"/>
<path d="M41.36 77.2355C41.29 77.2355 41.25 77.1155 41.2 77.0655C41.3202 76.9697 41.4472 76.8829 41.58 76.8055C41.6181 76.7861 41.6601 76.7755 41.7029 76.7743C41.7457 76.7732 41.7882 76.7815 41.8274 76.7987C41.8666 76.8159 41.9015 76.8416 41.9296 76.8739C41.9577 76.9062 41.9783 76.9443 41.99 76.9855" fill="white"/>
<path d="M44.1698 74.2955C44.1098 74.2955 44.0298 74.2955 44.0198 74.2055C44.0098 74.1155 44.0198 73.9854 44.1798 73.9954C44.3398 74.0054 44.2798 74.0954 44.3298 74.1454L44.1698 74.2955Z" fill="white"/>
<path d="M71 76.2954C71 76.2954 70.93 76.4254 70.87 76.4554C70.56 76.5954 70.43 76.5754 70.25 76.3854C70.2376 76.3606 70.2312 76.3332 70.2312 76.3054C70.2312 76.2777 70.2376 76.2503 70.25 76.2254C70.283 76.1496 70.3442 76.0895 70.4207 76.0578C70.4971 76.0261 70.5829 76.0252 70.66 76.0554C70.7811 76.1237 70.8951 76.2041 71 76.2954Z" fill="white"/>
<path d="M71.36 72.4154C71.2941 72.3728 71.2365 72.3186 71.19 72.2554C71.13 72.1454 71.19 71.9954 71.37 71.9454C71.55 71.8954 72.01 72.0554 71.97 72.1854C71.9568 72.2239 71.9344 72.2586 71.9048 72.2865C71.8752 72.3144 71.8392 72.3346 71.8 72.3454C71.6552 72.3793 71.5081 72.4027 71.36 72.4154Z" fill="white"/>
<path d="M36.8399 65.8554C36.754 65.8712 36.6659 65.8712 36.5799 65.8554C36.4429 65.7771 36.3264 65.6674 36.2399 65.5354C36.2003 65.4146 36.2083 65.2832 36.2622 65.168C36.3161 65.0529 36.4118 64.9625 36.5299 64.9154C36.7857 64.8855 37.0441 64.8855 37.2999 64.9154C37.4477 64.9731 37.5689 65.0835 37.6399 65.2254C37.67 65.3492 37.6578 65.4794 37.6052 65.5954C37.5527 65.7114 37.4628 65.8065 37.3499 65.8654L36.8399 65.8554Z" fill="white"/>
<path d="M41.9299 70.5454C42.0003 70.5565 42.068 70.5802 42.1299 70.6154C42.7799 71.1054 42.7899 71.1754 42.2399 71.7254C42.0399 71.9254 41.9299 71.9054 41.6399 71.6354C41.3499 71.3654 41.2699 71.1954 41.3899 71.0454L41.7299 70.6854L41.9299 70.5454Z" fill="white"/>
<path d="M55.1999 78.4355C55.1999 78.1855 55.1999 77.9355 55.1999 77.6955C55.1999 77.4555 55.5399 77.3454 55.7999 77.4254C55.939 77.4839 56.0526 77.5903 56.1199 77.7255C56.2199 77.9455 56.0399 78.3055 55.8599 78.3255C55.6101 78.3403 55.3596 78.3403 55.1099 78.3255L55.1999 78.4355Z" fill="white"/>
<path d="M57.1699 73.5454C57.1099 73.6054 57.0399 73.6954 56.9799 73.6954C56.9199 73.6954 56.8599 73.5855 56.7999 73.5255C56.7399 73.4655 56.9399 73.3654 56.9999 73.3654C57.0599 73.3654 57.1099 73.4354 57.1699 73.5454Z" fill="white"/>
<path d="M39.5299 69.7755C39.5297 69.9439 39.5096 70.1117 39.4699 70.2755C39.4099 70.4555 39.2399 70.5055 39.0699 70.5355C38.8999 70.5655 38.7299 70.5355 38.6399 70.3555C38.5499 70.1755 38.5199 70.2055 38.5299 70.1455C38.5567 69.8898 38.5296 69.6313 38.4504 69.3867C38.3712 69.1421 38.2416 68.9169 38.0699 68.7255C37.9199 68.5455 38.0699 68.1055 38.2499 68.0655C38.4299 68.0255 38.6299 67.9755 38.7499 68.0655C38.9842 68.1695 39.1835 68.3391 39.3236 68.5538C39.4638 68.7685 39.5389 69.0191 39.5399 69.2755C39.5274 69.4418 39.524 69.6087 39.5299 69.7755Z" fill="white"/>
<path d="M44.1499 68.5454C44.0899 68.9054 43.9799 68.9954 43.6499 68.9454C43.3199 68.8954 43.1899 68.7854 43.2399 68.4454C43.2899 68.1054 43.4099 67.9954 43.7399 68.0454C44.0699 68.0954 44.2099 68.2354 44.1499 68.5454Z" fill="white"/>
<path d="M27.0498 56.2654C27.159 56.314 27.2467 56.4007 27.2964 56.5094C27.3462 56.618 27.3545 56.7411 27.3198 56.8554C27.2525 56.9906 27.1389 57.097 26.9998 57.1554C26.944 57.1758 26.8848 57.1846 26.8255 57.1814C26.7663 57.1783 26.7083 57.1631 26.6551 57.137C26.6018 57.1108 26.5544 57.0742 26.5157 57.0292C26.477 56.9843 26.4478 56.932 26.4298 56.8755C26.3998 56.6355 26.8098 56.2254 27.0498 56.2654Z" fill="white"/>
<path d="M52.0698 63.8854C51.8998 63.7754 51.8398 63.6554 51.9098 63.5454C51.9246 63.5069 51.9476 63.4719 51.9771 63.4429C52.0066 63.4139 52.0419 63.3916 52.0807 63.3774C52.1196 63.3632 52.161 63.3575 52.2022 63.3606C52.2434 63.3637 52.2835 63.3756 52.3198 63.3954C52.4648 63.4462 52.5929 63.5362 52.6898 63.6554C52.7398 63.7454 52.3298 63.9154 52.0698 63.8854Z" fill="white"/>
<path d="M77.4699 71.9854V67.9854C77.4495 67.7518 77.3425 67.5342 77.1699 67.3754C76.9745 67.0857 76.7034 66.855 76.386 66.7087C76.0686 66.5623 75.7171 66.5059 75.3699 66.5454C74.7474 66.5903 74.1224 66.5903 73.4999 66.5454C73.2928 66.5435 73.0896 66.4884 72.9099 66.3854C72.4299 66.1154 71.9099 65.8854 71.4199 65.6254C71.164 65.457 70.8928 65.313 70.6099 65.1954C70.3023 65.1465 69.9913 65.1231 69.6799 65.1254C69.0799 65.0354 68.5899 64.5254 67.9199 64.7054C67.6872 64.7305 67.4525 64.7305 67.2199 64.7054H66.0599C65.6399 65.1154 65.0599 65.0254 64.5599 65.2154C64.0599 65.4054 64.0199 65.4254 63.7999 65.2154C63.4394 64.8067 63.0555 64.4194 62.6499 64.0554C62.2199 63.6854 62.1199 63.1154 61.7599 62.7154L61.5999 62.5454C61.4976 62.4298 61.3558 62.3565 61.2023 62.3398C61.0488 62.3232 60.8946 62.3644 60.7699 62.4554C60.3499 62.7854 60.0099 63.2454 59.4399 63.3454C58.9676 63.7479 58.4428 64.0843 57.8799 64.3454C57.6346 64.4614 57.3642 64.514 57.0934 64.4982C56.8226 64.4825 56.56 64.399 56.3299 64.2554C56.1485 64.1806 55.9558 64.1367 55.7599 64.1254C55.2205 64.0947 54.6852 64.2346 54.2299 64.5254C54.1299 64.5754 53.9399 64.5254 53.7999 64.4354C53.7788 64.3842 53.7788 64.3267 53.7999 64.2754C53.9714 64.0663 54.0757 63.8101 54.0989 63.5406C54.1221 63.2711 54.0632 63.0008 53.9299 62.7654C53.6228 62.2363 53.3489 61.6886 53.1099 61.1254C53.1099 61.0154 52.8799 60.9354 52.7399 60.8854C52.5869 60.8702 52.4328 60.8702 52.2799 60.8854C52.088 60.8568 51.892 60.8756 51.7089 60.9401C51.5259 61.0046 51.3615 61.1128 51.2299 61.2554C51.1782 61.3138 51.1213 61.3674 51.0599 61.4154L49.8199 62.6254C49.4883 62.9159 49.1222 63.1645 48.7299 63.3654C48.299 63.7261 47.8978 64.1207 47.5299 64.5454C47.2103 64.7556 46.8761 64.9428 46.5299 65.1054C46.3999 65.1754 46.2799 65.1054 46.1499 64.9954L45.8199 64.6654L45.6499 64.5054C45.5371 64.4007 45.3888 64.3425 45.2349 64.3425C45.0809 64.3425 44.9327 64.4007 44.8199 64.5054C44.3541 64.9105 43.9822 65.4121 43.7299 65.9754C43.6402 66.1948 43.4838 66.3805 43.2828 66.5061C43.0818 66.6317 42.8464 66.691 42.6099 66.6754C41.7599 66.6754 40.8999 66.6754 40.0499 66.6754C39.8599 66.6754 39.6799 66.4254 39.6699 66.1854C39.692 65.7209 39.6685 65.2554 39.5999 64.7954C39.4699 64.2454 38.9499 63.9354 38.5999 63.5454C38.3384 63.254 38.0613 62.9769 37.7699 62.7154C37.2499 62.2454 37.1699 61.4554 36.5899 61.0254C36.5293 60.9758 36.4842 60.9099 36.4599 60.8354C36.4599 60.6854 35.4599 57.4454 35.4599 57.1154C35.4599 56.5854 35.4599 56.0454 35.4599 55.5154C35.4679 55.3968 35.5141 55.284 35.5916 55.1939C35.6691 55.1037 35.7738 55.0411 35.8899 55.0154C36.3999 54.8754 36.8099 54.4254 37.3999 54.5154C37.6999 54.2854 38.0099 54.0554 38.2999 53.8054C38.5899 53.5554 38.9299 53.0554 38.4699 52.2454C38.2526 51.8368 38.1449 51.3789 38.1571 50.9162C38.1694 50.4536 38.3013 50.002 38.5399 49.6054C38.6675 49.4276 38.7275 49.2101 38.7092 48.992C38.6909 48.7739 38.5954 48.5695 38.4399 48.4154C38.3237 48.257 38.2326 48.0816 38.1699 47.8954C38.0419 47.5806 37.8134 47.3169 37.5199 47.1454C36.8199 46.7354 35.5999 45.9954 35.5199 45.9554C35.4734 45.9038 35.4392 45.8422 35.4199 45.7754C35.4199 45.5454 35.4199 45.3254 35.4199 45.0954C35.4514 45.0278 35.4955 44.9667 35.5499 44.9154C35.5738 44.9003 35.6016 44.8923 35.6299 44.8923C35.6582 44.8923 35.6859 44.9003 35.7099 44.9154C36.6287 45.9243 37.7497 46.7284 38.9999 47.2754C40.337 47.5633 41.6891 47.777 43.0499 47.9154C43.4363 47.9355 43.8235 47.9355 44.2099 47.9154C44.4699 47.9154 45.4799 47.6854 45.6599 47.8354C45.8399 47.9854 46.3999 49.2354 46.7799 49.3554C47.1599 49.4754 47.5599 49.8354 48.0699 49.7754C48.221 49.7992 48.3647 49.8574 48.4899 49.9454C48.6744 50.0842 48.8912 50.1737 49.1199 50.2054H54.7199C54.9515 50.242 55.1887 50.196 55.3899 50.0754C55.7999 49.7354 56.3899 49.6354 56.7599 49.2354C57.1299 48.8354 57.2999 48.2354 57.6699 47.9154C58.0989 47.4672 58.4383 46.9411 58.6699 46.3654C59.0812 45.8059 59.321 45.1388 59.3599 44.4454C59.6901 44.0116 59.8405 43.4673 59.7799 42.9254C59.7799 41.2154 59.7799 39.4954 59.7799 37.7854C59.8384 37.4382 59.8278 37.0828 59.7489 36.7397C59.67 36.3965 59.5242 36.0722 59.3199 35.7854C59.3266 35.5563 59.2866 35.3283 59.2023 35.1151C59.1181 34.9019 58.9914 34.7081 58.8299 34.5454C58.8299 34.0354 58.3199 33.7754 58.2799 33.2854C57.987 32.9335 57.6731 32.5995 57.3399 32.2854C57.0169 32.0808 56.6831 31.8939 56.3399 31.7254C55.993 31.5546 55.6028 31.4919 55.2199 31.5454C53.3499 31.5454 51.4799 31.5454 49.6099 31.5454C49.5336 31.5353 49.4562 31.5353 49.3799 31.5454C49.2355 31.5966 49.1004 31.6709 48.9799 31.7654C48.4499 32.2354 47.8799 32.6754 47.9799 33.5154C47.9799 33.5154 47.9099 33.6554 47.8399 33.6954C47.8137 33.7094 47.7845 33.7168 47.7549 33.7168C47.7252 33.7168 47.696 33.7094 47.6699 33.6954C47.4856 33.5571 47.3266 33.3879 47.1999 33.1954C46.9699 32.7254 47.0899 32.1154 46.6599 31.7054C46.6599 31.7054 46.6599 31.5554 46.6599 31.4854C46.6599 31.0954 46.6599 30.7654 47.1299 30.5754C47.8306 30.2329 48.42 29.699 48.8299 29.0354C48.9334 28.8923 48.9925 28.7219 48.9999 28.5454C49.0636 28.2809 49.0632 28.005 48.9989 27.7407C48.9345 27.4763 48.808 27.2311 48.6299 27.0254C48.5134 26.6576 48.3153 26.3208 48.0504 26.0402C47.7854 25.7597 47.4605 25.5427 47.0999 25.4054C46.6316 25.1454 46.12 24.9725 45.5899 24.8954C45.1899 24.8954 44.8099 24.2654 44.7999 23.8954C44.7899 23.5254 44.7999 23.1154 44.7999 22.7254C44.7996 22.5725 44.7544 22.4229 44.6699 22.2954C44.452 21.972 44.3498 21.5843 44.3799 21.1954C44.3799 21.1154 44.3799 21.0454 44.3799 20.9654C44.3799 20.4154 44.2899 19.8254 45.0799 19.7454C45.3699 19.4654 45.3699 19.0354 45.6499 18.7454C45.9299 18.4554 45.7599 18.3054 45.7699 18.0754C45.7695 17.8441 45.7896 17.6132 45.8299 17.3854C45.8299 17.2654 46.0199 17.0854 46.1299 17.0854C47.1299 17.0854 48.1299 17.0854 49.1299 17.0254C49.3611 17.0325 49.5908 16.9845 49.7999 16.8854C50.1028 16.6954 50.4446 16.5758 50.7999 16.5354C50.9682 16.5171 51.1277 16.4512 51.2599 16.3454C51.8498 15.8371 52.4044 15.2892 52.9199 14.7054C53.2176 14.264 53.4657 13.7912 53.6599 13.2954C53.6599 12.5454 53.6599 11.7954 53.6599 11.0454C53.6502 10.8678 53.5875 10.6971 53.4799 10.5554C53.2663 10.2252 52.9681 9.95827 52.6164 9.7824C52.2647 9.60653 51.8722 9.52816 51.4799 9.55544C50.6299 9.62544 49.7699 9.55544 48.9099 9.55544C48.6823 9.54793 48.4553 9.58182 48.2399 9.65544C47.8848 9.77902 47.5484 9.95062 47.2399 10.1654C46.9299 10.4154 46.4899 10.4154 46.2399 10.6954C45.6599 11.3454 44.7699 11.5454 44.2399 12.2054C44.1998 12.2472 44.1516 12.2804 44.0983 12.3031C44.0451 12.3258 43.9878 12.3374 43.9299 12.3374C43.872 12.3374 43.8147 12.3258 43.7614 12.3031C43.7081 12.2804 43.66 12.2472 43.6199 12.2054C43.3199 11.9254 42.9099 11.9054 42.6199 11.6854C42.3593 11.5044 42.0469 11.4131 41.7299 11.4254C41.4299 11.4254 41.1299 11.4254 40.8199 11.4254C38.0399 11.4254 38.9399 11.0754 36.8199 13.1454C36.7615 13.1972 36.708 13.2541 36.6599 13.3154C36.4099 13.6154 36.4399 14.0554 36.1499 14.3154C36.0775 14.4075 36.0266 14.5144 36.0006 14.6286C35.9747 14.7427 35.9744 14.8612 35.9999 14.9754C35.9989 15.1703 35.9443 15.3611 35.842 15.527C35.7397 15.6928 35.5936 15.8272 35.4199 15.9154C35.1699 16.0854 34.8499 16.1454 34.5999 16.3054C34.3499 16.4654 34.3299 16.4754 34.2099 16.3054C33.8936 16.0726 33.499 15.9722 33.1099 16.0254H30.6499C30.3388 16.0119 30.0334 16.1114 29.7899 16.3054C29.5243 16.5891 29.2047 16.8169 28.8499 16.9754C28.6291 17.0586 28.4308 17.1924 28.271 17.3661C28.1113 17.5398 27.9944 17.7485 27.9299 17.9754C27.7261 18.4695 27.4855 18.9475 27.2099 19.4054C27.0933 19.5704 27.0258 19.765 27.0151 19.9668C27.0045 20.1685 27.0512 20.3691 27.1499 20.5454C27.4999 21.1354 27.6699 21.8454 28.2899 22.2654C28.5172 22.4707 28.8049 22.597 29.1099 22.6254H31.9099C32.1456 22.6425 32.3787 22.5672 32.5599 22.4154C32.8767 22.0881 33.2105 21.7777 33.5599 21.4854C33.9899 21.1654 34.5599 21.0154 34.8599 20.5454C35.2699 19.9254 36.0199 19.8154 36.5799 19.4154C36.6482 19.3788 36.7245 19.3597 36.802 19.3597C36.8795 19.3597 36.9558 19.3788 37.0241 19.4155C37.0924 19.4521 37.1506 19.505 37.1934 19.5696C37.2363 19.6341 37.2626 19.7083 37.2699 19.7854C37.2699 20.9554 37.2699 22.1154 37.2699 23.2854C37.3012 23.5933 37.2809 23.9043 37.2099 24.2054C37.0599 24.5954 36.5199 24.4854 36.2099 24.7754C36.0232 24.916 35.7933 24.9868 35.5599 24.9754C35.4075 24.9748 35.257 25.009 35.1199 25.0754C34.6313 25.4593 34.1763 25.8842 33.7599 26.3454C33.4908 26.7148 33.2722 27.1183 33.1099 27.5454C33.0596 27.6912 33.0596 27.8497 33.1099 27.9954C33.1861 28.1299 33.2695 28.2601 33.3599 28.3854C33.6199 28.8554 33.6399 28.8654 34.2599 29.2954C34.4464 29.4369 34.6174 29.5978 34.7699 29.7754C34.8388 29.866 34.8761 29.9766 34.8761 30.0904C34.8761 30.2042 34.8388 30.3149 34.7699 30.4054C34.3399 30.8554 33.9099 31.3054 33.4599 31.7454L33.3599 31.8154C32.9199 32.0354 32.4699 32.2354 32.0299 32.4454C31.6095 32.624 31.2019 32.8312 30.8099 33.0654C30.4665 33.2284 30.1035 33.346 29.7299 33.4154C29.0705 33.6074 28.4646 33.9497 27.9599 34.4154C27.5025 34.9892 26.9347 35.4653 26.2899 35.8154C26.0431 35.9169 25.836 36.0959 25.6999 36.3254C25.5583 36.6973 25.3441 37.0372 25.0699 37.3254C24.3922 37.957 23.8951 38.7578 23.6299 39.6454C23.4788 39.8205 23.3639 40.0237 23.2918 40.2434C23.2197 40.4631 23.1919 40.6949 23.2099 40.9254C23.2099 42.0954 23.2099 43.2654 23.2099 44.4354C23.205 44.6281 23.1486 44.816 23.0466 44.9795C22.9446 45.143 22.8007 45.2763 22.6299 45.3654C22.2868 45.5194 21.9529 45.693 21.6299 45.8854C21.4599 46.0254 21.1799 46.0354 21.0099 46.1754C20.5499 46.5854 20.1099 47.0254 19.6799 47.4754C19.578 47.5838 19.5209 47.7267 19.5199 47.8754C19.5199 49.0454 19.5199 50.2254 19.5199 51.3954C19.5533 51.7033 19.6749 51.9949 19.8699 52.2354C19.9489 52.3655 19.9936 52.5134 19.9999 52.6654C19.9918 52.9369 20.071 53.2038 20.2257 53.427C20.3805 53.6502 20.6028 53.8179 20.8599 53.9054C21.0049 53.9455 21.1408 54.0135 21.2599 54.1054C21.3084 54.1608 21.3436 54.2265 21.3627 54.2976C21.3817 54.3687 21.3842 54.4432 21.3699 54.5154C21.061 55.0543 20.6025 55.492 20.0499 55.7754L18.8199 56.3754C18.736 56.4522 18.6791 56.554 18.6575 56.6656C18.6358 56.7773 18.6507 56.8929 18.6999 56.9954C18.7925 57.1647 18.9226 57.3104 19.0804 57.4213C19.2382 57.5323 19.4193 57.6055 19.6099 57.6354C19.8425 57.6259 20.0735 57.6777 20.2799 57.7854C20.6638 58.0476 21.127 58.1678 21.5899 58.1254C21.8235 58.0955 22.0598 58.1564 22.2499 58.2954C22.4899 58.5054 24.0699 58.4754 24.4699 58.7254C25.4495 58.9747 26.4597 59.0825 27.4699 59.0454C27.5837 59.0494 27.6933 59.0893 27.7832 59.1593C27.873 59.2294 27.9383 59.326 27.9699 59.4354C28.1798 60.246 28.3467 61.0672 28.4699 61.8954C28.4699 62.1154 28.9099 63.7354 28.9199 64.3454C29.3008 65.4929 29.6147 66.6615 29.8599 67.8454C30.1595 68.7163 30.5412 69.5568 30.9999 70.3554C31.0899 70.5254 31.1299 70.5954 30.9999 70.7554C30.8367 70.9243 30.7469 71.1507 30.7499 71.3854C30.7809 71.6966 30.7606 72.0108 30.6899 72.3154C30.4973 72.6368 30.3269 72.9709 30.1799 73.3154C30.1799 73.4154 29.9499 73.5154 29.8099 73.5354C29.5809 73.5655 29.3489 73.5655 29.1199 73.5354C28.5599 73.5354 28.2899 73.8754 28.0199 74.2554C27.9199 74.3854 28.0699 74.8354 28.2099 74.8654C28.3499 74.8954 28.6699 74.8654 28.8899 74.9554C29.017 75.0048 29.1327 75.0797 29.2299 75.1754C29.0999 75.2454 28.9699 75.3654 28.8399 75.3754C27.4399 75.3754 26.0399 75.3754 24.6399 75.3754C24.4158 75.3298 24.2103 75.2184 24.0499 75.0554C23.7199 74.7854 23.6499 74.5354 23.7999 74.2554C24.0971 73.8102 24.3452 73.3341 24.5399 72.8354C24.6322 72.2233 24.669 71.6042 24.6499 70.9854C24.6499 70.7554 24.6499 70.5254 24.6499 70.2954C24.6907 70.0651 24.811 69.8563 24.9899 69.7054L25.3599 69.3654C25.6471 69.6212 25.9177 69.8951 26.1699 70.1854C26.5199 70.6554 27.1099 70.6954 27.5299 71.0254C27.6599 71.1354 27.7699 71.0954 27.9199 70.9754C28.0456 70.8859 28.1837 70.8152 28.3299 70.7654C28.3999 70.7654 28.4899 70.7654 28.5599 70.7654C29.2499 70.6254 29.3299 70.5254 29.3099 69.8754C29.3039 69.8 29.2813 69.7268 29.2436 69.6612C29.2058 69.5956 29.154 69.5392 29.0917 69.4961C29.0295 69.453 28.9585 69.4243 28.8838 69.4121C28.8091 69.3999 28.7326 69.4044 28.6599 69.4254C28.5927 69.4629 28.5291 69.5065 28.4699 69.5554C27.8499 69.9054 27.7199 69.8954 27.2599 69.4554C27.0999 69.2954 26.9499 69.1154 26.7799 68.9454C26.6099 68.7754 26.6699 68.5854 26.7799 68.3754C27.0399 67.9354 26.9599 67.7454 26.4599 67.5254C26.1099 67.3654 26.0599 67.3154 26.2599 67.0754C26.8175 65.7463 27.2331 64.3619 27.4999 62.9454C27.4999 62.6854 27.4999 61.3554 27.4999 61.0454C27.471 60.7764 27.3457 60.527 27.1472 60.3431C26.9487 60.1593 26.6903 60.0536 26.4199 60.0454H26.1899C25.8005 60.0154 25.4093 60.0154 25.0199 60.0454C24.4899 60.1254 24.2099 59.6154 23.7399 59.5854C23.4311 59.5937 23.1272 59.5064 22.8699 59.3354C22.64 59.191 22.3817 59.0975 22.1126 59.0613C21.8435 59.0251 21.5698 59.0469 21.3099 59.1254C21.1899 59.1254 21.0599 59.3154 21.0099 59.4354C20.8599 59.8454 19.2099 63.3454 19.0899 63.8054C18.9699 64.2654 18.1799 64.6654 18.0899 65.3554C18.0899 65.4154 17.9999 65.4854 17.9499 65.5354C17.7399 65.7654 17.5199 65.9854 17.2999 66.2154C16.9199 66.5954 16.5399 66.9954 16.1499 67.3654C15.9457 67.5968 15.7019 67.7898 15.4299 67.9354C15.1389 68.0432 14.8733 68.2101 14.6499 68.4254C14.3659 68.6912 14.0233 68.8865 13.6499 68.9954C13.3627 69.1108 13.088 69.2548 12.8299 69.4254C12.7443 69.4781 12.6719 69.5497 12.6182 69.6346C12.5645 69.7195 12.5308 69.8156 12.5199 69.9154C12.4538 70.1962 12.4635 70.4895 12.5478 70.7653C12.6321 71.0411 12.7881 71.2896 12.9999 71.4854C13.3069 71.7294 13.5914 72.0005 13.8499 72.2954C14.3999 72.9754 15.2999 73.1754 15.8499 73.8354C16.3499 74.0354 16.7899 74.3554 17.2899 74.5354C17.7167 74.6989 18.1283 74.8997 18.5199 75.1354C18.7706 75.3197 19.0693 75.4274 19.3799 75.4454C19.613 75.4306 19.8468 75.4306 20.0799 75.4454C20.2659 75.4583 20.4524 75.4289 20.6256 75.3597C20.7987 75.2904 20.954 75.183 21.0799 75.0454C21.2411 74.8789 21.415 74.7252 21.5999 74.5854C21.6627 74.5459 21.7356 74.525 21.8099 74.5254C21.8853 74.5055 21.9645 74.5055 22.0399 74.5254C22.2499 74.6054 22.2699 74.7154 22.1299 74.8754C22.0038 75.0237 21.916 75.2005 21.8742 75.3906C21.8323 75.5806 21.8377 75.778 21.8899 75.9654C21.9699 76.3254 22.3699 76.2854 22.5899 76.4654C22.9669 76.7402 23.4234 76.8841 23.8899 76.8754C24.3247 77.2031 24.8693 77.35 25.4099 77.2854C26.4999 77.2854 27.5899 77.2854 28.6799 77.2854C29.2154 77.252 29.7357 77.0945 30.1999 76.8254C30.3369 76.765 30.46 76.677 30.5615 76.5669C30.663 76.4568 30.7408 76.3269 30.7899 76.1854C30.8214 76.117 30.8684 76.0568 30.927 76.0095C30.9856 75.9622 31.0543 75.929 31.1278 75.9125C31.2014 75.8961 31.2777 75.8968 31.3509 75.9147C31.4241 75.9325 31.4922 75.967 31.5499 76.0154C31.8652 76.3663 32.199 76.7001 32.5499 77.0154C32.8981 77.3102 33.2983 77.5374 33.7299 77.6854C34.1999 77.8054 34.5199 78.1554 34.9799 78.2854C35.425 78.4005 35.8408 78.6084 36.1999 78.8954C36.5999 79.2354 37.0999 79.0854 37.4999 79.3054C37.7079 79.505 37.9804 79.6238 38.2683 79.6403C38.5561 79.6568 38.8404 79.5699 39.0699 79.3954C39.5697 79.1044 40.1411 78.9595 40.7192 78.9772C41.2973 78.9949 41.8588 79.1744 42.3399 79.4954C42.8899 79.8354 43.0999 79.4954 43.3999 79.3754C43.7332 79.2817 44.0373 79.105 44.2838 78.862C44.5304 78.6189 44.7114 78.3174 44.8099 77.9854C44.8799 77.7054 45.1299 77.4754 45.2299 77.1654C45.3299 76.8554 45.6499 76.7954 46.0099 76.8554C46.0899 76.8554 46.1999 76.8554 46.2399 76.8554C46.7499 77.4154 47.5799 77.1654 48.1399 77.6254C48.2669 77.7092 48.4183 77.7479 48.5699 77.7354C48.8399 77.7354 49.1099 77.7354 49.3799 77.7354C49.729 77.7215 50.0751 77.8046 50.3799 77.9754C50.8748 78.1877 51.3284 78.4856 51.7199 78.8554C52.0699 79.2754 52.5199 79.6054 52.8599 80.0254C53.1999 80.4454 53.8599 80.5554 54.3099 81.0254C54.4214 81.1622 54.557 81.2774 54.7099 81.3654C55.3152 81.5336 55.95 81.5678 56.5699 81.4654C56.6399 81.4654 56.7099 81.3954 56.7599 81.3454C57.2699 80.8754 57.8499 80.4554 57.8299 79.6354C57.8299 79.4354 58.0299 79.2354 58.1299 79.0254C58.5055 78.3578 58.7179 77.6108 58.7499 76.8454C58.7847 76.6151 58.8899 76.4011 59.051 76.2329C59.2121 76.0646 59.4213 75.9502 59.6499 75.9054C60.4999 75.9054 61.3699 75.9054 62.2099 75.8254C62.8278 75.8266 63.431 76.0149 63.9399 76.3654C64.1375 76.4512 64.3173 76.5733 64.4699 76.7254C64.6224 76.911 64.8151 77.0596 65.0333 77.1601C65.2515 77.2605 65.4897 77.3102 65.7299 77.3054L67.9999 78.3954C68.1838 78.537 68.4005 78.6299 68.6299 78.6654C70.0299 78.6654 71.4199 78.6654 72.8199 78.6654C72.894 78.6503 72.9631 78.6167 73.0208 78.5677C73.0784 78.5188 73.1228 78.4561 73.1499 78.3854C73.2163 78.0025 73.2331 77.6126 73.1999 77.2254C73.1399 76.7554 73.4499 76.4554 73.5899 76.0754C73.6356 75.9507 73.656 75.8181 73.6499 75.6854C73.6499 75.1454 73.6499 74.6054 73.6499 74.0754C73.6499 73.7454 73.7999 73.6354 74.0399 73.7554C74.6271 73.9344 75.1488 74.2822 75.5399 74.7554C75.6346 74.8768 75.7457 74.9845 75.8699 75.0754C76.1999 75.3754 76.4399 75.3154 76.7599 74.8254C76.8333 74.695 76.8841 74.5529 76.9099 74.4054C76.9099 74.2554 76.9099 74.0754 76.9099 73.9454C77.0602 73.6788 77.1906 73.4014 77.2999 73.1154C77.39 72.7446 77.4469 72.3664 77.4699 71.9854ZM35.8899 18.6854C35.7771 18.787 35.6388 18.8561 35.4899 18.8854C35.2584 18.8689 35.0262 18.9073 34.8124 18.9977C34.5986 19.0881 34.4093 19.2278 34.2599 19.4054C34.1026 19.573 33.9091 19.7024 33.6942 19.7838C33.4793 19.8653 33.2487 19.8966 33.0199 19.8754C32.949 19.8919 32.883 19.925 32.8274 19.9719C32.7717 20.0189 32.7281 20.0783 32.6999 20.1454C32.6099 20.3554 32.6299 20.6354 32.3799 20.7154C32.1663 20.8005 31.9332 20.8241 31.707 20.7834C31.4808 20.7428 31.2704 20.6396 31.0999 20.4854C30.9699 20.3854 30.8499 20.4854 30.7799 20.6454C30.7099 20.8054 30.7799 20.7954 30.7199 20.8654C30.5799 21.1754 30.4299 21.2754 30.2199 21.1854C30.0851 21.1412 29.9667 21.0576 29.8799 20.9454C29.7899 20.7354 29.7599 20.4754 29.5299 20.3954C29.418 20.3723 29.3024 20.3747 29.1916 20.4024C29.0808 20.4301 28.9777 20.4824 28.8899 20.5554C28.6299 20.7154 28.4499 20.6454 28.4399 20.4154C28.4299 20.1854 28.4399 20.1054 28.4399 19.9554C28.4299 19.8023 28.4299 19.6486 28.4399 19.4954C28.4434 19.343 28.4883 19.1943 28.5699 19.0654C28.9799 18.6154 29.4199 18.1754 29.8499 17.7354C30.4799 17.5254 30.9899 16.9554 31.7399 17.0554C32.0499 17.0554 32.3599 17.0554 32.6699 17.0554C32.8156 17.0922 32.9542 17.153 33.0799 17.2354C33.3672 17.4268 33.7047 17.5289 34.0499 17.5289C34.3951 17.5289 34.7326 17.4268 35.0199 17.2354C35.2754 17.0644 35.5875 16.9998 35.8899 17.0554C35.9674 17.0526 36.0441 17.073 36.11 17.114C36.1759 17.1549 36.2281 17.2146 36.2599 17.2854C36.3308 17.4008 36.3776 17.5293 36.3973 17.6633C36.4171 17.7972 36.4094 17.9338 36.3748 18.0647C36.3402 18.1956 36.2794 18.3181 36.196 18.4248C36.1127 18.5315 36.0085 18.6202 35.8899 18.6854ZM22.9999 66.1454H23.0499L22.3799 65.5054C22.2649 65.4036 22.1299 65.3269 21.9835 65.2804C21.8371 65.2339 21.6826 65.2186 21.5299 65.2354C21.2601 65.1875 20.9822 65.2176 20.7289 65.3221C20.4756 65.4266 20.2574 65.6012 20.0999 65.8254C19.9899 65.9354 19.8899 66.0554 19.7899 66.1754C19.7354 66.2304 19.6914 66.2948 19.6599 66.3654C19.5494 66.7348 19.5188 67.1234 19.5699 67.5054C19.5779 67.6189 19.6086 67.7295 19.6601 67.8308C19.7116 67.9322 19.783 68.0222 19.8699 68.0954C19.9699 68.2154 20.0899 68.3154 20.1999 68.4354C20.3401 68.6197 20.5244 68.7658 20.7358 68.8602C20.9473 68.9545 21.1791 68.9942 21.4099 68.9754C21.7199 68.9754 22.0299 68.9754 22.3399 68.9754C22.6499 68.9754 22.9199 69.3854 22.7599 69.6154C22.3899 70.1154 22.2199 70.7054 21.8899 71.2254C21.7999 71.3454 21.7999 71.5454 21.6899 71.6254C21.1199 72.0754 21.0199 72.8354 20.5199 73.3254C20.3499 73.4854 20.1799 73.6454 20.0299 73.8154C19.8799 73.9854 19.7799 73.9954 19.6499 73.9354C19.0499 73.6154 18.4099 73.3554 17.8099 73.0354C17.5575 72.8567 17.2769 72.7215 16.9799 72.6354C16.9428 72.6267 16.9078 72.6107 16.8769 72.5884C16.8461 72.566 16.8199 72.5379 16.7999 72.5054C16.3199 71.8554 15.4399 71.7854 14.9399 71.1654C14.722 70.9489 14.4487 70.7967 14.1499 70.7254C13.9799 70.6654 13.9599 70.5154 13.9599 70.3354C13.9599 70.1554 13.9599 69.9954 14.1499 69.9554C14.9399 69.7954 15.3399 68.9554 16.1499 68.7954C16.4199 68.7154 16.6199 68.4054 16.8399 68.1854C17.5499 67.4754 18.2599 66.7554 18.9599 66.0354C19.1299 65.8654 19.3599 65.7054 19.4099 65.5054C19.5699 64.8654 20.1199 64.5054 20.4099 63.9954C20.5299 63.8054 20.5699 63.5654 20.6699 63.3654C20.8022 63.1783 20.8879 62.9623 20.9199 62.7354C20.9199 62.5054 20.9199 62.2554 21.0799 62.0754C21.2399 61.8954 21.3599 61.3654 21.5899 61.0754C21.8199 60.7854 22.0599 60.6754 22.4899 60.8954C22.9199 61.1154 23.1599 60.8954 23.3799 61.0654C23.8977 61.4027 24.5147 61.5543 25.1299 61.4954C26.0699 61.4954 26.1299 61.6354 26.0699 62.6354C26.055 62.8621 25.9937 63.0834 25.8899 63.2854C25.3299 64.4554 24.6699 65.5654 24.1799 66.7654C24.0699 67.0254 23.9099 67.0354 23.6899 66.8354L22.9999 66.1454ZM22.2099 67.2154C22.2799 67.3254 21.8099 67.9154 21.6799 67.8654C21.3599 67.7454 21.0399 67.5854 20.6799 67.4354C20.3199 67.2854 20.5199 67.2554 20.6799 67.0754C20.7952 66.8829 20.889 66.6784 20.9599 66.4654C20.9964 66.4032 21.0365 66.3431 21.0799 66.2854C21.1599 66.1454 21.5999 66.1154 21.6799 66.2854C21.8799 66.5454 22.0599 66.8854 22.2299 67.2154H22.2099ZM45.9099 68.4854C46.111 68.1564 46.1856 67.7654 46.1199 67.3854C46.1199 66.7254 46.5099 66.3854 46.9699 66.1354C47.2795 66.1572 47.5893 66.0942 47.8659 65.9532C48.1424 65.8123 48.3754 65.5987 48.5399 65.3354C49.0599 64.7554 49.8599 64.5954 50.3799 63.9854C50.8969 63.4153 51.4551 62.8839 52.0499 62.3954C52.1199 62.3354 52.3399 62.3954 52.4799 62.4554C52.7364 62.9105 52.9635 63.3814 53.1599 63.8654C53.2399 64.2154 53.1599 64.6254 52.8899 64.6554C52.1399 64.7354 51.8899 65.6554 51.1299 65.6554C50.7899 65.9654 50.4399 66.2554 50.1299 66.5854C49.8199 66.9154 49.3899 67.3654 49.0399 67.7754C48.9499 67.8754 48.9799 68.0854 48.8999 68.1954C48.7949 68.4025 48.6347 68.5765 48.4371 68.6982C48.2394 68.82 48.012 68.8848 47.7799 68.8854C47.5499 68.8854 47.3199 68.8854 47.4699 68.8854H46.1699C46.1227 68.886 46.0762 68.8742 46.035 68.8512C45.9937 68.8283 45.9593 68.7949 45.935 68.7544C45.9107 68.7139 45.8975 68.6678 45.8966 68.6206C45.8957 68.5734 45.9072 68.5268 45.9299 68.4854H45.9099ZM38.9999 67.1454C39.1722 67.2967 39.3741 67.4104 39.5927 67.4792C39.8114 67.5481 40.042 67.5707 40.2699 67.5454C40.8399 68.0954 41.5599 67.9654 42.2699 67.9654C42.4969 67.9639 42.7188 67.898 42.9099 67.7754C43.3699 67.5154 43.8499 67.2954 44.3199 67.0654C44.4999 66.9654 44.7699 67.2054 44.7799 67.4354C44.8045 67.5864 44.7686 67.7409 44.6799 67.8654C44.4843 68.1068 44.3721 68.405 44.3599 68.7154C44.3592 68.9425 44.2856 69.1634 44.1499 69.3454C43.7399 69.7654 44.0599 70.4154 43.6099 70.8254C43.2377 71.1074 42.9759 71.5107 42.8699 71.9654C42.8699 72.0254 42.7699 72.0854 42.6999 72.1154C42.637 72.155 42.5642 72.1758 42.4899 72.1754H40.5899C40.2049 72.1871 39.8264 72.0749 39.5099 71.8554C39.1999 71.6454 38.8199 71.5554 38.5099 71.3454C38.1999 71.1354 37.7899 71.0754 37.7599 70.5954C37.2999 70.0854 37.2399 69.3154 36.6299 68.8954C36.4199 68.7354 36.5099 68.5654 36.6899 68.3554C36.8699 68.1454 37.3799 68.0154 37.6899 67.7854C37.9999 67.5554 38.2699 67.2754 38.5799 67.0654C38.6512 67.0446 38.7265 67.041 38.7995 67.0549C38.8725 67.0688 38.9412 67.0998 38.9999 67.1454ZM36.0599 53.0654C35.955 53.1756 35.8376 53.2729 35.7099 53.3554C35.6599 53.3554 35.5699 53.3554 35.5599 53.2854C35.5076 53.1484 35.4838 53.002 35.4899 52.8554C35.4899 52.6554 35.7299 52.5654 36.0299 52.5954C36.0999 52.5954 36.2099 52.6854 36.2099 52.7154C36.1828 52.8406 36.1318 52.9595 36.0599 53.0654ZM49.2399 33.0654C49.6099 33.0054 49.9999 32.9854 50.3799 32.9554C50.6099 32.9554 50.8999 32.9554 51.0599 32.8654C51.5224 32.5788 52.0716 32.4654 52.6099 32.5454H54.2399C54.3165 32.5601 54.3865 32.5986 54.4399 32.6554C54.7646 32.8678 55.142 32.9855 55.5299 32.9954C55.6731 33.0355 55.8038 33.1112 55.9099 33.2154C55.9599 33.2154 55.9699 33.3554 55.9799 33.4254C56.1199 33.9854 56.6999 34.2254 56.9099 34.7354C56.9999 34.9454 57.0899 35.1654 57.1999 35.3654C57.4999 35.8954 57.3399 36.6054 57.8399 37.0554C57.8399 37.3654 57.8399 37.6854 57.8399 37.9954C57.8399 38.7654 57.8399 39.5454 57.8399 40.3254C57.8399 41.1054 57.9999 41.8454 57.4899 42.5454C57.4099 42.6454 57.4399 42.8354 57.4299 42.9854C57.4299 43.4554 57.3499 43.9154 57.3199 44.3754C56.9099 44.9454 56.7299 45.6254 56.3899 46.2054C55.9707 46.8645 55.4232 47.4325 54.7799 47.8754C54.7052 47.8999 54.6246 47.8999 54.5499 47.8754C54.0912 47.8869 53.6446 48.0253 53.2599 48.2754C53.1845 48.2954 53.1052 48.2954 53.0299 48.2754C52.9599 48.2754 52.8599 48.2154 52.8399 48.1554C52.8199 48.0954 52.7099 47.8354 52.7699 47.7454C52.9296 47.4832 53.1247 47.2442 53.3499 47.0354C54.1474 46.3079 54.7521 45.394 55.1099 44.3754C55.1999 44.0954 55.5299 43.9054 55.4699 43.5554C55.4574 43.4803 55.4225 43.4106 55.3699 43.3554C55.3433 43.343 55.3143 43.3365 55.2849 43.3365C55.2555 43.3365 55.2265 43.343 55.1999 43.3554C54.7682 43.5732 54.4176 43.9237 54.1999 44.3554C53.7691 45.1726 53.1691 45.8885 52.4399 46.4554C52.4399 46.4554 51.2499 47.6754 50.7499 48.1454C50.6004 48.262 50.4234 48.3381 50.2359 48.3661C50.0484 48.3941 49.8569 48.3732 49.6799 48.3054C49.6063 48.2795 49.5431 48.2304 49.4999 48.1654C49.4999 48.1654 49.4999 48.0454 49.5599 48.0054C49.6199 47.9654 49.8699 47.5954 50.0599 47.5454C50.5622 47.3697 51.0101 47.0665 51.3599 46.6654C51.5399 46.5054 52.3599 45.6654 52.4099 45.6054C52.6599 45.3154 52.8799 44.9954 53.1199 44.6854C53.0099 43.9654 53.6699 43.4454 53.6299 42.6854C53.5599 41.3654 53.6299 40.0454 53.6299 38.6854C53.6015 38.3801 53.4947 38.0873 53.3199 37.8354C53.0699 37.3654 53.2199 36.7454 52.7499 36.3554C52.7499 35.8654 52.3099 35.5654 52.1799 35.1154C52.1215 34.9304 52.0206 34.7616 51.8851 34.6226C51.7496 34.4837 51.5834 34.3785 51.3999 34.3154C50.8399 34.0854 50.3299 33.6554 49.6599 33.8154C49.5043 33.8295 49.3481 33.7982 49.2099 33.7254C49.142 33.6904 49.087 33.6348 49.0528 33.5665C49.0187 33.4981 49.0071 33.4207 49.0199 33.3454C48.9999 33.2354 49.0599 33.0654 49.2399 33.0354V33.0654ZM37.3199 14.5954C37.7199 14.1254 37.7499 13.4254 38.3199 13.0554C38.4352 12.9576 38.5724 12.889 38.7199 12.8554C39.4999 12.8554 40.2699 12.8054 41.0399 12.7854L42.9199 12.8654C43.0342 12.8725 43.1421 12.9212 43.2231 13.0022C43.3042 13.0832 43.3528 13.1911 43.3599 13.3054C43.3599 13.5354 43.3599 13.7654 43.4499 13.9954C43.5399 14.2254 43.9499 14.2954 44.0499 14.2054L44.9199 13.4254C45.0899 13.2654 45.2399 13.0254 45.4399 12.9654C46.0099 12.8254 46.3299 12.3754 46.7699 12.0654C47.0199 11.8954 47.3199 11.8154 47.5799 11.6554C48.0099 11.4913 48.4221 11.2835 48.8099 11.0354C49.2799 11.0354 49.7399 11.0354 50.1999 10.9654C50.7414 10.9508 51.2736 11.1084 51.7199 11.4154C51.9299 11.5254 52.1699 11.5954 52.2099 11.8254C52.2607 11.9729 52.2762 12.1301 52.2554 12.2847C52.2346 12.4392 52.1779 12.5867 52.0899 12.7154C51.8899 12.9554 51.6899 13.1854 51.4699 13.4154C51.0699 13.8354 51.0099 13.8454 50.2699 13.4854C50.1299 13.4154 49.9999 13.4854 49.9599 13.6654C49.9199 13.8454 49.9599 14.1254 49.9599 14.3654C49.9599 14.6054 49.6499 14.7154 49.4399 14.7254C49.1304 14.7496 48.8216 14.6723 48.5599 14.5054C48.3099 14.3454 48.1399 14.4254 48.1099 14.6854C48.0799 14.9454 48.1099 14.9954 48.1099 15.1454C48.1003 15.2187 48.0759 15.2892 48.038 15.3526C48.0001 15.4161 47.9496 15.471 47.8896 15.5141C47.8296 15.5573 47.7614 15.5876 47.6892 15.6033C47.617 15.619 47.5424 15.6197 47.4699 15.6054C47.4006 15.5715 47.3366 15.5277 47.2799 15.4754C47.0747 15.2927 46.8096 15.1917 46.5349 15.1917C46.2602 15.1917 45.995 15.2927 45.7899 15.4754C45.7208 15.5397 45.6391 15.589 45.55 15.62C45.4609 15.651 45.3663 15.6631 45.2723 15.6556C45.1782 15.6481 45.0868 15.6211 45.0037 15.5763C44.9207 15.5315 44.8478 15.4699 44.7899 15.3954C44.706 15.3133 44.596 15.2633 44.479 15.2542C44.362 15.245 44.2455 15.2773 44.1499 15.3454C43.8458 15.5857 43.5553 15.8428 43.2799 16.1154C43.0699 16.3054 43.0799 16.4154 43.2799 16.6654C43.4799 16.9154 43.5899 17.0154 43.7499 17.1854C43.9099 17.3554 43.8499 17.4954 43.6399 17.5154C43.2299 17.5754 42.9799 17.9054 42.6399 18.0354L42.2199 18.1954C42.2699 18.3254 42.3299 18.4554 42.3799 18.5754C42.4299 18.6954 42.5499 18.8554 42.5399 18.9954C42.5399 19.6754 42.7399 20.3954 42.1899 20.9954C42.175 21.0231 42.1672 21.054 42.1672 21.0854C42.1672 21.1169 42.175 21.1478 42.1899 21.1754C42.3399 21.3554 42.5099 21.5154 42.6699 21.6854C42.9699 22.0254 42.9699 22.0254 42.6099 22.4054C42.4599 22.5754 42.2999 22.7454 42.1499 22.9254C41.9999 23.1054 42.2099 23.0454 42.2499 23.1154C42.2899 23.1854 42.4799 23.4254 42.4499 23.4554C42.2451 23.6902 42.0246 23.9107 41.7899 24.1154C41.7899 24.1154 41.6499 24.1154 41.5699 24.1154C40.6399 24.1154 39.6999 24.1154 38.7699 24.1154C38.6499 24.1154 38.5199 23.9754 38.4099 23.8854C38.4395 23.8151 38.4764 23.7481 38.5199 23.6854C38.5669 23.6268 38.6071 23.5631 38.6399 23.4954C38.6649 23.4346 38.6649 23.3663 38.6399 23.3054C38.2099 21.8654 38.2099 21.8654 39.4699 21.2154C39.5299 21.2154 39.5699 21.1054 39.6099 21.0554C39.6499 21.0054 39.4999 20.9254 39.4399 20.9054L38.5499 20.7154C38.4963 20.714 38.4443 20.6972 38.4 20.6671C38.3556 20.637 38.3209 20.5947 38.2999 20.5454C38.2868 20.3969 38.3038 20.2473 38.3499 20.1054C38.4099 19.9554 38.5399 20.0054 38.7099 20.1054C38.8799 20.2054 38.9999 20.2754 39.4299 19.8454C39.5799 19.6854 39.5699 19.6054 39.4299 19.4554C39.2899 19.3054 38.8799 18.9054 38.6099 18.6254L38.1199 18.1254C37.8984 17.9039 37.7666 17.6083 37.7499 17.2954C37.7353 17.0692 37.6667 16.8498 37.5499 16.6554C37.1299 15.9854 37.3499 15.2754 37.3199 14.5954ZM34.5099 27.9454C34.4455 27.7218 34.4482 27.4842 34.5175 27.262C34.5868 27.0398 34.7198 26.8428 34.8999 26.6954C35.0637 26.5328 35.267 26.4157 35.4899 26.3554C35.8599 26.2954 36.0899 25.8854 36.4899 25.9154C36.6499 25.9154 36.8499 25.9154 36.9499 25.9154C37.3918 25.6026 37.9306 25.4573 38.4699 25.5054C39.4699 25.5054 40.4699 25.5054 41.4699 25.5054C41.8556 25.4879 42.236 25.6006 42.5499 25.8254C42.8256 25.9724 43.1439 26.0183 43.4499 25.9554C43.758 25.9397 44.062 26.0316 44.3099 26.2154C44.4214 26.3214 44.5664 26.3851 44.7199 26.3954C45.3199 26.3154 45.7199 26.7954 46.2099 26.9354C46.3178 26.9757 46.4128 27.0443 46.485 27.1341C46.5571 27.2238 46.6037 27.3314 46.6199 27.4454C46.7399 27.7954 47.1399 28.0354 47.0099 28.4454C47.0099 28.4954 46.8999 28.6154 46.8799 28.6154C46.1899 28.2954 45.4899 28.0154 44.8799 27.6154C44.5518 27.4239 44.1797 27.3205 43.7999 27.3154C43.5698 27.3357 43.3386 27.2942 43.1299 27.1954C42.7364 26.9465 42.2746 26.8275 41.8099 26.8554H38.0899C37.7103 26.7787 37.3159 26.8315 36.9699 27.0054C36.5399 27.3354 35.9699 27.3754 35.5999 27.8354C35.4445 28.0018 35.2619 28.1405 35.0599 28.2454C34.9399 28.3254 34.5499 28.1254 34.5099 27.9454ZM24.6499 40.5454C24.6296 40.2741 24.6775 40.0021 24.7893 39.7541C24.9011 39.506 25.0732 39.2899 25.2899 39.1254C25.6399 38.8054 25.6599 38.2954 26.0099 37.9554C27.0099 37.0454 27.8799 36.0954 28.8199 35.1654C29.2099 34.7754 29.8199 34.7154 30.2199 34.3954C30.4521 34.4149 30.6858 34.3858 30.9061 34.3101C31.1265 34.2343 31.3287 34.1135 31.4999 33.9554C32.0599 33.8954 32.4299 33.4554 32.9599 33.2954C33.3819 33.1235 33.787 32.9126 34.1699 32.6654C34.4999 32.4754 34.8899 32.4054 35.1699 32.0754C35.4692 31.6315 35.7175 31.1551 35.9099 30.6554C35.9099 30.5254 35.9099 30.3454 35.9099 30.1954C35.9459 29.9654 36.0547 29.7529 36.2202 29.5891C36.3858 29.4254 36.5994 29.319 36.8299 29.2854C37.1954 29.2536 37.5433 29.1145 37.8299 28.8854C38.0999 28.6554 38.4299 28.7954 38.7299 28.7454C39.0299 28.6954 39.1599 28.2354 39.5199 28.4954C39.6999 28.6354 39.8599 28.8154 40.0299 28.9654C40.0824 29.0266 40.143 29.0804 40.2099 29.1254C40.3011 29.1928 40.4115 29.2292 40.5249 29.2292C40.6383 29.2292 40.7487 29.1928 40.8399 29.1254C41.0008 28.963 41.2126 28.8607 41.4399 28.8354C41.6099 28.8354 41.7799 28.8354 41.8199 29.0454C41.9499 29.5454 41.8899 30.1154 42.3999 30.4854C42.5699 30.6054 42.6399 30.6454 42.7799 30.4854C42.9199 30.3254 43.1299 30.1254 43.3799 30.2254C43.6026 30.2976 43.812 30.4057 43.9999 30.5454C44.4099 30.8954 44.3099 31.5954 44.8799 31.8454C45.0399 31.9154 45.1399 31.8954 45.2099 31.6954C45.2799 31.4954 45.2099 31.5354 45.2099 31.4654C45.2808 31.3491 45.3611 31.2388 45.4499 31.1354C45.5154 31.1793 45.5701 31.2374 45.6099 31.3054C45.6999 31.5154 45.7599 31.7354 45.8599 31.9354C46.0899 32.4154 46.1599 32.4154 46.1099 32.7954C46.0727 33.1056 46.1233 33.4199 46.2559 33.7028C46.3885 33.9856 46.5977 34.2256 46.8599 34.3954C47.449 34.925 48.208 35.2265 48.9999 35.2454C49.3899 35.2454 49.7799 35.2454 50.1699 35.2454C50.3739 35.225 50.5792 35.2678 50.7581 35.368C50.9369 35.4681 51.0807 35.6209 51.1699 35.8054C51.5377 36.2941 51.7844 36.863 51.8899 37.4654C51.8962 37.6175 51.9409 37.7654 52.0199 37.8954C52.2003 38.1452 52.3108 38.4387 52.3399 38.7454C52.3399 39.5254 52.3399 40.3054 52.3399 41.0754C52.317 41.3836 52.2059 41.6787 52.0199 41.9254C51.9507 42.0614 51.9002 42.206 51.8699 42.3554C51.8607 42.5839 51.8063 42.8082 51.7099 43.0154C51.3399 43.5054 51.0299 44.0154 50.7099 44.5454C50.3209 45.0277 49.878 45.4638 49.3899 45.8454C49.3629 45.8623 49.3317 45.8712 49.2999 45.8712C49.2681 45.8712 49.2369 45.8623 49.2099 45.8454C49.1757 45.8258 49.1458 45.7995 49.1218 45.7683C49.0977 45.737 49.0801 45.7013 49.0699 45.6632C49.0597 45.6252 49.0571 45.5854 49.0622 45.5464C49.0674 45.5073 49.0802 45.4696 49.0999 45.4354C49.3192 44.9502 49.5629 44.4762 49.8299 44.0154C49.9608 43.7383 50.0061 43.4284 49.9599 43.1254C49.9599 42.9454 49.8399 42.8354 49.7099 42.8554C49.6342 42.878 49.5654 42.9193 49.5099 42.9754C49.1043 43.4346 48.7979 43.9724 48.6099 44.5554C48.4703 44.8263 48.288 45.0728 48.0699 45.2854C47.9199 45.4554 47.8099 45.4654 47.7299 45.2854C47.7201 45.2124 47.7201 45.1385 47.7299 45.0654C47.7299 44.7254 48.0399 44.5454 48.1199 44.2554C48.1999 43.9654 47.9999 43.7254 47.8199 43.6954C47.6399 43.6654 47.3499 43.6954 47.1199 43.6354C47.0096 43.607 46.9147 43.537 46.855 43.44C46.7953 43.343 46.7756 43.2267 46.7999 43.1154C46.9099 42.8454 47.0599 42.5754 47.1699 42.3054C47.2799 42.0354 47.0799 41.8754 46.8099 41.8254C46.5399 41.7754 46.4499 41.8254 46.4199 41.9954C46.3199 42.5354 45.8199 42.8954 45.7599 43.4454C45.3399 43.9954 45.1699 44.7054 44.6199 45.1754C44.517 45.2888 44.4447 45.4264 44.4099 45.5754C44.2399 46.0754 43.8299 45.9954 43.4099 45.9754C43.3334 45.9808 43.2569 45.9656 43.1883 45.9314C43.1196 45.8972 43.0614 45.8453 43.0196 45.781C42.9778 45.7168 42.9539 45.6425 42.9504 45.5659C42.947 45.4893 42.964 45.4132 42.9999 45.3454C43.2985 44.9833 43.455 44.5246 43.4399 44.0554C43.6503 43.7723 43.7968 43.4468 43.8694 43.1015C43.9419 42.7563 43.9386 42.3994 43.8599 42.0554C43.8599 41.9954 43.7699 41.9254 43.7099 41.8854C43.6499 41.8454 43.5699 41.8854 43.5599 41.8854C43.3499 42.2954 43.1399 42.6954 42.9599 43.1154C42.7854 43.618 42.5395 44.0929 42.2299 44.5254C41.8254 44.9965 41.384 45.4346 40.9099 45.8354C40.8175 45.9 40.7076 45.9346 40.5949 45.9346C40.4822 45.9346 40.3722 45.9 40.2799 45.8354C40.0948 45.6954 39.93 45.5305 39.7899 45.3454C39.7443 45.2867 39.7133 45.2181 39.6994 45.1451C39.6854 45.0721 39.6891 44.9968 39.7099 44.9254C39.9404 44.4429 40.2009 43.9753 40.4899 43.5254C40.622 43.2448 40.6572 42.9282 40.5899 42.6254C40.5718 42.5506 40.5297 42.4839 40.4699 42.4354C40.3699 42.3654 40.2299 42.4354 40.1099 42.5454C39.9377 42.7011 39.8013 42.8921 39.7099 43.1054C39.5902 43.4729 39.3597 43.7943 39.0499 44.0254C38.9555 44.0895 38.844 44.1237 38.7299 44.1237C38.6158 44.1237 38.5043 44.0895 38.4099 44.0254C38.0299 43.7354 38.0499 43.7254 38.1999 42.9354C38.2564 42.5549 38.2732 42.1695 38.2499 41.7854C38.2355 41.714 38.2057 41.6465 38.1625 41.5878C38.1193 41.529 38.0638 41.4805 37.9999 41.4454C37.3135 41.3223 36.613 41.2988 35.9199 41.3754C35.7702 41.4027 35.6315 41.4721 35.5199 41.5754C35.1599 41.8754 34.8499 41.7854 34.5199 41.5754C34.1899 41.3654 33.8599 41.3454 33.3699 41.8954C33.2199 42.0754 33.2299 42.1754 33.4599 42.2254C33.9699 42.3454 34.5599 42.2754 34.8599 42.8654C34.8599 42.9154 34.9299 43.0254 34.9099 43.0454C34.6899 43.2654 34.4599 43.4654 34.2399 43.6754C33.5399 43.6754 32.8399 43.6754 32.1399 43.6754C32.0499 43.6754 31.9699 43.8454 31.8999 43.9454C31.9421 44.0098 32.0008 44.0616 32.0699 44.0954C32.2886 44.1547 32.5 44.2386 32.6999 44.3454C33.0368 44.5287 33.4166 44.6184 33.7999 44.6054C33.9799 44.6054 34.1099 44.9554 34.0699 45.1754C34.0299 45.3954 33.7399 45.5854 33.5499 45.4754C33.0741 45.2196 32.5399 45.0921 31.9999 45.1054C31.0699 45.1054 30.1299 45.1054 29.1999 45.1054C28.9699 45.1054 28.7299 45.1054 28.4999 45.1054C28.0399 45.1054 27.7499 44.5754 27.2199 44.6654C26.8307 44.7005 26.4391 44.7005 26.0499 44.6654H24.6099C24.4399 44.6654 24.2299 44.3854 24.2299 44.1554V42.7554C24.2449 42.5257 24.2449 42.2952 24.2299 42.0654C24.1801 41.5245 24.3294 40.984 24.6499 40.5454ZM27.9199 57.2954C27.9077 57.4095 27.8542 57.5152 27.7694 57.5926C27.6847 57.67 27.5746 57.7136 27.4599 57.7154C26.6899 57.7154 25.9199 57.7154 25.1499 57.7154C24.7642 57.733 24.3838 57.6203 24.0699 57.3954C23.7999 57.1954 23.4699 57.2954 23.1699 57.2654C22.8699 57.2354 22.6899 57.2654 22.5099 57.1254C22.1399 56.7654 21.6499 56.8554 21.2199 56.7454C21.1698 56.7324 21.1236 56.7074 21.0852 56.6725C21.0469 56.6377 21.0176 56.5941 20.9999 56.5454C20.9999 56.5454 20.9999 56.4154 21.0899 56.3654C21.1799 56.3154 21.3999 55.9654 21.5899 55.9154C22.2284 55.6116 22.7765 55.1462 23.1799 54.5654C23.2834 54.2803 23.414 54.0057 23.5699 53.7454C23.6644 53.538 23.7155 53.3134 23.7199 53.0854C23.7212 52.9715 23.756 52.8605 23.8201 52.7662C23.8841 52.672 23.9744 52.5987 24.0799 52.5554C24.2799 52.4554 24.4999 52.3754 24.6999 52.2654C24.8999 52.1554 25.0399 52.1554 25.1199 52.5354C25.1096 52.6886 25.1096 52.8423 25.1199 52.9954C25.1769 53.2583 25.322 53.4938 25.5311 53.663C25.7402 53.8321 26.0009 53.9247 26.2699 53.9254C26.5028 53.9455 26.737 53.9455 26.9699 53.9254C27.1061 53.8787 27.2343 53.8113 27.3499 53.7254C27.3358 53.6647 27.3192 53.6047 27.2999 53.5454L26.6499 52.8854C26.601 52.8265 26.5687 52.7556 26.5564 52.68C26.5441 52.6044 26.5522 52.5269 26.5799 52.4554C26.6122 52.3463 26.6822 52.2522 26.7775 52.19C26.8727 52.1277 26.987 52.1013 27.0999 52.1154C27.326 52.0752 27.559 52.1141 27.7599 52.2254C27.8227 52.2683 27.877 52.3226 27.9199 52.3854C27.9352 52.4613 27.9352 52.5395 27.9199 52.6154V57.2954ZM28.2099 51.1854C27.2699 51.1854 26.3399 51.1854 25.4099 51.1854C24.791 51.1513 24.1703 51.1882 23.5599 51.2954C23.0566 51.4799 22.5794 51.7286 22.1399 52.0354C21.8632 52.1709 21.5463 52.1993 21.2499 52.1154C21.2113 52.1038 21.1756 52.0845 21.1446 52.0587C21.1137 52.033 21.0883 52.0012 21.0699 51.9654C21.0638 51.9336 21.0651 51.9008 21.0738 51.8696C21.0824 51.8384 21.0982 51.8096 21.1199 51.7854C21.3799 51.5054 21.6499 51.2154 21.9299 50.9554C22.0353 50.845 22.1777 50.7774 22.3299 50.7654C22.7926 50.7346 23.2384 50.5791 23.6199 50.3154C23.8799 50.1754 24.2399 50.3154 24.5099 50.1354C24.523 50.1126 24.53 50.0868 24.53 50.0604C24.53 50.0341 24.523 50.0082 24.5099 49.9854C24.4711 49.8776 24.411 49.7788 24.3331 49.6948C24.2552 49.6108 24.1611 49.5434 24.0565 49.4967C23.9518 49.45 23.8389 49.4249 23.7243 49.423C23.6098 49.4211 23.496 49.4423 23.3899 49.4854C23.1799 49.5754 22.9799 49.7754 22.7699 49.7654C22.4997 49.7785 22.2353 49.8485 21.994 49.9708C21.7527 50.0932 21.54 50.2652 21.3699 50.4754C21.2299 50.6254 21.0899 50.6554 21.0199 50.5354C20.944 50.4077 20.8994 50.2638 20.8899 50.1154C20.8899 49.8854 20.8899 49.5654 21.0999 49.4954C21.6799 49.3154 22.0999 48.7554 22.7899 48.8454C23.2404 48.5529 23.7629 48.3902 24.2999 48.3754C24.3333 48.3769 24.3666 48.3702 24.397 48.3562C24.4273 48.3421 24.4539 48.321 24.4745 48.2946C24.495 48.2681 24.5089 48.2372 24.5151 48.2043C24.5213 48.1714 24.5195 48.1375 24.5099 48.1054C24.4936 48.07 24.47 48.0383 24.4407 48.0125C24.4115 47.9866 24.3771 47.9672 24.3399 47.9554C23.9599 47.9554 23.5699 47.9554 23.1899 47.9554C22.5736 47.9122 21.9606 48.0778 21.4499 48.4254C21.3947 48.434 21.3383 48.4307 21.2846 48.4156C21.2308 48.4005 21.1809 48.3741 21.1382 48.3381C21.0956 48.302 21.0611 48.2573 21.0373 48.2068C21.0134 48.1563 21.0006 48.1013 20.9999 48.0454C20.9999 47.8954 20.9999 47.6754 21.0999 47.6254C21.7599 47.2354 22.4299 46.8854 23.0999 46.5454C23.2435 46.4915 23.3967 46.4677 23.5499 46.4754C24.0161 46.5202 24.4833 46.3998 24.8699 46.1354C24.9224 46.0791 24.9934 46.0436 25.0699 46.0354H28.0699C28.1456 46.058 28.2144 46.0993 28.2699 46.1554C28.5215 46.3339 28.8214 46.4315 29.1299 46.4354C30.1299 46.4354 31.1299 46.4854 32.1299 46.4854C32.5151 46.4592 32.8972 46.5689 33.2099 46.7954C33.4799 46.9954 33.8099 46.9054 34.1099 46.9454C34.4099 46.9854 34.5799 46.9454 34.7699 47.0954C35.0915 47.312 35.4722 47.4237 35.8599 47.4154C36.0492 47.4544 36.2259 47.5396 36.3742 47.6635C36.5225 47.7874 36.6379 47.9461 36.7099 48.1254C36.7099 48.1254 36.6299 48.2554 36.5699 48.2754C36.2781 48.3618 35.9719 48.3886 35.6696 48.3542C35.3672 48.3198 35.0749 48.225 34.8099 48.0754C34.5037 47.9147 34.1566 47.8489 33.8129 47.8863C33.4691 47.9237 33.1443 48.0626 32.8799 48.2854C32.8076 48.3959 32.7662 48.5236 32.7599 48.6554C32.7599 48.6554 32.8699 48.7654 32.9399 48.7654C33.5499 48.8154 34.1999 48.7054 34.6999 49.1854L36.3199 49.2954C36.5483 49.3415 36.7555 49.4609 36.9099 49.6354C37.0497 49.7698 37.1526 49.9379 37.2086 50.1236C37.2647 50.3092 37.272 50.5062 37.2299 50.6954C37.2315 50.7734 37.2123 50.8505 37.1743 50.9186C37.1364 50.9867 37.081 51.0436 37.0138 51.0833C36.9466 51.1229 36.8701 51.1441 36.7921 51.1444C36.7141 51.1448 36.6374 51.1245 36.5699 51.0854C36.1951 50.8052 35.7378 50.6574 35.2699 50.6654C34.4199 50.6654 33.5599 50.6654 32.7099 50.6654L29.9099 50.7454C29.7589 50.7391 29.6093 50.7774 29.4799 50.8554C29.1026 51.0956 28.654 51.198 28.2099 51.1454V51.1854ZM29.9999 59.3754C29.9491 59.319 29.9145 59.2499 29.8999 59.1754C29.8999 58.7954 29.8999 58.4054 29.8999 58.0154C29.8999 57.7854 29.8999 57.5554 29.8999 57.3254C29.8799 57.1773 29.8395 57.0326 29.7799 56.8954C29.6899 56.6854 29.5099 56.4854 29.5099 56.2754C29.5099 55.0354 29.5099 53.7954 29.5099 52.5654C29.517 52.4511 29.5656 52.3432 29.6466 52.2622C29.7277 52.1812 29.8355 52.1325 29.9499 52.1254L32.0299 52.0454C32.6499 52.0454 33.2699 52.0454 33.8899 52.0454C33.9799 52.0454 34.1199 52.2554 34.1399 52.3954C34.1649 52.6248 34.1649 52.8561 34.1399 53.0854C33.9539 53.3327 33.8213 53.616 33.7508 53.9173C33.6802 54.2186 33.6731 54.5313 33.7299 54.8354C33.7299 55.3754 33.7299 55.9154 33.7299 56.4554C33.651 57.0039 33.7454 57.5632 33.9999 58.0554C34.0599 58.1454 33.9999 58.3354 33.9199 58.4754C33.8946 58.4865 33.8674 58.4921 33.8399 58.4921C33.8123 58.4921 33.7851 58.4865 33.7599 58.4754L32.5399 57.8454C32.4099 57.7654 32.2899 57.8454 32.1399 57.9254C31.9899 58.0054 31.4099 58.1254 31.1399 58.4454C30.8699 58.7654 30.5999 58.9954 30.3299 59.2654C30.0599 59.5354 29.9999 59.4754 29.9999 59.3754ZM32.9999 59.2854C32.6599 59.7654 32.7199 60.4754 32.0899 60.7854L31.8999 60.8654C31.8399 60.8654 31.7699 60.7854 31.7199 60.7354C31.5487 60.5854 31.3974 60.414 31.2699 60.2254C31.2384 60.1564 31.2221 60.0814 31.2221 60.0054C31.2221 59.9295 31.2384 59.8545 31.2699 59.7854C31.3895 59.5014 31.6155 59.2754 31.8995 59.1558C32.1836 59.0362 32.5031 59.0325 32.7899 59.1454C32.8899 59.1754 32.9999 59.2754 32.9999 59.2854ZM31.2299 66.0654C31.2501 65.9094 31.2501 65.7515 31.2299 65.5954C31.1499 65.2254 30.7899 64.9754 30.8099 64.5954C30.8198 64.2842 30.7997 63.9728 30.7499 63.6654C30.7499 63.5254 30.5999 63.4054 30.5199 63.2654C30.3977 63.0261 30.325 62.7647 30.3061 62.4966C30.2872 62.2286 30.3225 61.9595 30.4099 61.7054C30.4099 61.7054 30.4999 61.6054 30.5499 61.5554C30.682 61.646 30.8189 61.7295 30.9599 61.8054C31.5484 61.9884 32.1713 62.0329 32.7799 61.9354C32.8564 61.9272 32.9274 61.8917 32.9799 61.8354C33.4299 61.4254 33.9799 61.1054 34.1099 60.4254C34.1304 60.3517 34.1721 60.2856 34.2299 60.2354C34.3299 60.1654 34.4799 60.2354 34.4999 60.4254C34.5199 60.6154 34.8199 60.9554 34.9099 61.2354C35.0593 61.5771 35.2262 61.9109 35.4099 62.2354C35.5101 62.5242 35.6627 62.792 35.8599 63.0254L36.6699 63.8554L37.3399 64.5054C37.6099 64.7854 37.8799 65.0654 38.1399 65.3554C38.1399 65.3554 38.1399 65.4954 38.1399 65.5354C37.6862 66.1632 37.0987 66.6824 36.4199 67.0554C35.9969 67.2244 35.5888 67.4285 35.1999 67.6654C34.7763 68.002 34.3755 68.3661 33.9999 68.7554L33.4899 69.2354C33.368 69.3333 33.2222 69.397 33.0675 69.4198C32.9128 69.4427 32.7549 69.4239 32.6099 69.3654C32.4956 69.3435 32.3942 69.2781 32.3271 69.183C32.2599 69.0879 32.2323 68.9705 32.2499 68.8554C32.2999 68.2254 31.1699 66.5454 31.2199 66.0654H31.2299ZM36.5299 75.3954C36.4228 75.4156 36.3122 75.4046 36.2112 75.3639C36.1102 75.3231 36.023 75.2542 35.9599 75.1654C35.9454 75.0971 35.9449 75.0264 35.9583 74.9578C35.9718 74.8892 35.9989 74.8241 36.0381 74.7662C36.0773 74.7083 36.1278 74.6589 36.1865 74.621C36.2452 74.5831 36.311 74.5574 36.3799 74.5454C36.432 74.5294 36.4872 74.526 36.5408 74.5357C36.5944 74.5455 36.645 74.5679 36.6881 74.6013C36.7312 74.6346 36.7657 74.6778 36.7887 74.7273C36.8116 74.7767 36.8223 74.831 36.8199 74.8854C36.84 74.9923 36.8206 75.1029 36.7655 75.1967C36.7103 75.2904 36.6231 75.361 36.5199 75.3954H36.5299ZM45.1199 73.9554C44.6706 74.926 44.1066 75.8392 43.4399 76.6754C43.4224 76.8283 43.3745 76.9761 43.2989 77.11C43.2233 77.244 43.1217 77.3615 42.9999 77.4554C42.8525 77.635 42.6408 77.7499 42.4099 77.7754H40.7699C40.5399 77.7754 40.3099 77.7754 40.0799 77.7754C39.4641 77.8363 38.8454 77.6922 38.3199 77.3654C38.0899 77.2054 37.6899 77.3654 37.4599 77.1354C37.4089 77.085 37.3699 77.0238 37.3456 76.9563C37.3214 76.8888 37.3126 76.8168 37.3199 76.7454C37.3978 76.5353 37.5246 76.3468 37.6899 76.1954C37.8906 76.0152 38.0453 75.7895 38.141 75.5373C38.2367 75.285 38.2706 75.0135 38.2399 74.7454C38.2525 74.5483 38.2118 74.3514 38.122 74.1755C38.0323 73.9995 37.8968 73.851 37.7299 73.7454C37.4079 73.554 37.0739 73.3837 36.7299 73.2354C36.5999 73.1754 36.4799 73.2354 36.3299 73.3354C36.1799 73.4354 35.8799 73.4754 35.6999 73.6054C35.4945 73.7134 35.3214 73.874 35.1984 74.0708C35.0754 74.2676 35.0069 74.4935 34.9999 74.7254C35.0145 74.9585 35.0145 75.1923 34.9999 75.4254C34.9999 75.7154 34.5499 75.9554 34.3399 75.8054C33.8915 75.3957 33.3821 75.0584 32.8299 74.8054C32.5599 74.7154 32.3599 74.4154 32.1299 74.2054C31.8999 73.9954 31.8599 73.9154 32.0699 73.4454C32.1734 73.0783 32.2139 72.6962 32.1899 72.3154C32.1833 72.1621 32.2339 72.0117 32.3318 71.8935C32.4297 71.7753 32.568 71.6976 32.7199 71.6754C32.9368 71.6096 33.1331 71.4891 33.2899 71.3254C33.9099 70.7354 34.4999 70.1254 35.1099 69.5254C35.2299 69.4054 35.3599 69.4354 35.4799 69.5954L35.9099 70.1454C35.7899 70.9554 36.3599 71.4154 36.8399 71.9154C37.1548 72.2667 37.4886 72.6005 37.8399 72.9154C38.0346 73.0289 38.2479 73.1067 38.4699 73.1454C38.6199 73.1454 38.8199 73.1454 38.9199 73.2154C39.3542 73.5434 39.9003 73.6871 40.4399 73.6154C41.6099 73.6154 42.7699 73.6154 43.9299 73.6154C44.316 73.6043 44.6894 73.4752 44.9999 73.2454C44.9999 73.2454 45.1199 73.2454 45.1499 73.3254C45.1956 73.3839 45.2264 73.4525 45.2399 73.5254C45.2541 73.6023 45.2497 73.6814 45.2271 73.7562C45.2044 73.831 45.1643 73.8993 45.1099 73.9554H45.1199ZM49.5099 75.8854C48.9799 75.8854 48.4199 76.0154 47.9499 75.6154C47.8272 75.5276 47.6808 75.4788 47.5299 75.4754C47.2199 75.4754 46.9099 75.4754 46.5999 75.4254C46.2899 75.3754 46.2799 75.2354 46.4499 74.9754C46.5995 74.6339 46.7664 74.3001 46.9499 73.9754C47.1695 73.6683 47.3446 73.3316 47.4699 72.9754C47.5331 72.7576 47.5667 72.5323 47.5699 72.3054C47.5699 72.0854 47.3699 71.7854 47.2099 71.7854H45.7999C45.4599 71.7854 45.2599 72.0654 44.9799 72.1754C44.8373 72.2242 44.6825 72.2242 44.5399 72.1754C44.3699 72.1154 44.4099 72.0054 44.5399 71.8254C44.6699 71.6454 44.7699 71.2554 44.9399 71.0054C45.0283 70.8336 45.1593 70.6873 45.3203 70.5805C45.4814 70.4737 45.6672 70.41 45.8599 70.3954H47.7199H49.5799C50.2399 70.7954 50.9299 71.1054 51.5799 71.4554C51.6899 71.5154 51.6499 71.6654 51.5099 71.8054C51.3699 71.9454 51.3999 71.9254 51.3399 71.9754C50.9399 72.3154 50.8499 72.3254 50.3399 71.9754C50.2799 71.9754 50.1699 71.8354 50.1599 71.8554C49.8099 72.1554 49.4599 72.4654 49.1599 72.7854C49.1599 72.7854 49.0399 72.9154 49.0399 72.9754C48.9311 73.585 48.9654 74.2114 49.1399 74.8054C49.3116 75.0646 49.513 75.3029 49.7399 75.5154C49.7916 75.5667 49.8324 75.628 49.8599 75.6954C49.7199 75.7454 49.6099 75.8854 49.4999 75.8854H49.5099ZM50.5899 74.4654C50.4839 74.4826 50.3759 74.4826 50.2699 74.4654C50.1061 74.3587 49.9491 74.2418 49.7999 74.1154C49.5499 73.8854 49.5599 73.8354 49.6999 73.5554C49.7699 73.4254 49.8499 73.2854 49.9099 73.1454C50.1999 72.5654 50.4899 72.5054 50.9099 72.9354C51.3299 73.3654 51.2199 73.2354 50.9999 73.6854C50.8999 73.8854 50.8299 74.1054 50.7299 74.3054C50.701 74.3753 50.6477 74.4322 50.5799 74.4654H50.5899ZM57.8099 73.3154C57.5156 73.6795 57.3629 74.1376 57.3799 74.6054C57.3799 75.1454 57.3799 75.6954 57.3799 76.2354C57.4069 76.4681 57.3872 76.7038 57.3219 76.9287C57.2567 77.1537 57.1472 77.3634 56.9999 77.5454C56.9116 78.2295 56.6798 78.8871 56.3199 79.4754C56.2428 79.5591 56.1404 79.6151 56.0284 79.635C55.9164 79.6548 55.801 79.6374 55.6999 79.5854C55.4199 79.3554 55.0899 79.1554 55.0299 78.7454C54.8134 78.7111 54.6192 78.5924 54.4899 78.4154C53.8648 77.733 53.0917 77.2028 52.2299 76.8654C51.8099 76.6754 51.4099 76.4554 51.0099 76.2354C50.9392 76.1495 50.9005 76.0417 50.9005 75.9304C50.9005 75.8192 50.9392 75.7114 51.0099 75.6254C51.0649 75.5756 51.1252 75.532 51.1899 75.4954C51.4572 75.4393 51.7029 75.3078 51.8979 75.1164C52.0928 74.925 52.2288 74.6817 52.2899 74.4154C52.3452 74.2709 52.4228 74.1359 52.5199 74.0154C52.6741 73.7917 52.7499 73.5232 52.7355 73.2518C52.721 72.9804 52.617 72.7215 52.4399 72.5154C52.4278 72.487 52.4215 72.4564 52.4215 72.4254C52.4215 72.3945 52.4278 72.3639 52.4399 72.3354C52.4845 72.269 52.5505 72.2199 52.6269 72.1963C52.7033 72.1726 52.7856 72.1759 52.8599 72.2054C53.2199 72.3054 53.4699 72.6854 53.8599 72.6554C54.1675 72.6724 54.4648 72.7726 54.7199 72.9454C54.9994 73.0761 55.3065 73.137 55.6147 73.1231C55.923 73.1092 56.2233 73.0208 56.4899 72.8654C56.7537 72.7055 57.0636 72.6386 57.3699 72.6754C57.6499 72.6954 57.9999 73.0954 57.7999 73.3154H57.8099ZM58.4099 71.5454C58.3525 71.4708 58.2805 71.4087 58.1982 71.3629C58.1159 71.3172 58.0252 71.2888 57.9315 71.2794C57.8378 71.27 57.7432 71.2799 57.6535 71.3085C57.5638 71.337 57.4809 71.3836 57.4099 71.4454C57.234 71.596 57.0113 71.6808 56.7799 71.6854C56.3169 71.6603 55.8529 71.6603 55.3899 71.6854C54.7764 71.6816 54.1752 71.5123 53.6499 71.1954C53.1999 71.0054 52.9699 70.5254 52.5399 70.3854C52.1099 70.2454 51.7499 69.9254 51.3199 69.7654C50.899 69.5958 50.4912 69.3953 50.0999 69.1654C49.9399 69.0854 49.9099 68.6854 50.0299 68.5454C50.1499 68.4054 50.1199 68.4154 50.1699 68.3654L52.1699 66.3654C52.2724 66.2517 52.3972 66.1601 52.5365 66.0965C52.6758 66.0328 52.8267 65.9985 52.9799 65.9954C53.5999 65.9954 54.0399 65.3954 54.7299 65.5154C55.2721 65.5656 55.8177 65.5656 56.3599 65.5154C56.7399 65.5154 57.1299 65.5154 57.5199 65.5154C57.9099 65.5154 58.3199 65.6154 58.6399 65.3654C58.9599 65.1154 59.6399 64.9754 60.0099 64.5454C60.2744 64.2621 60.5621 64.0012 60.8699 63.7654C60.8699 63.7654 61.0099 63.7654 61.0499 63.8254C61.0899 63.8854 61.4499 64.1254 61.5299 64.3254C61.6486 64.7013 61.8541 65.0438 62.1299 65.3254C62.3999 65.5954 62.6399 65.8954 62.8999 66.1854C63.0299 66.8354 63.5899 67.1854 63.8999 67.7054C63.8999 68.1854 64.5499 68.4654 64.3599 68.9554C64.1735 69.2918 63.922 69.5876 63.6199 69.8254C63.0809 70.2439 62.4503 70.5283 61.7799 70.6554C61.3935 70.6756 61.0063 70.6756 60.6199 70.6554C60.3885 70.6406 60.1571 70.683 59.946 70.7789C59.735 70.8749 59.5508 71.0214 59.4099 71.2054C59.3091 71.3238 59.187 71.4222 59.0499 71.4954C58.9642 71.5742 58.8545 71.6219 58.7385 71.631C58.6225 71.6401 58.5068 71.6099 58.4099 71.5454ZM65.2099 72.9754C65.4199 72.7554 65.6499 72.5654 65.8599 72.3554C66.0699 72.1454 66.0799 72.2254 66.2299 72.3554C66.7199 72.8554 66.7299 72.8554 66.3899 73.2254L65.9199 73.7054C65.5999 74.0154 65.5399 74.0154 65.2199 73.7054C64.8999 73.3954 64.9099 73.2954 65.2099 72.9854V72.9754ZM72.2099 72.8854C71.9679 73.2812 71.856 73.7428 71.8899 74.2054V76.2954C71.853 76.5629 71.7239 76.8092 71.525 76.9917C71.326 77.1743 71.0696 77.2817 70.7999 77.2954C70.5333 77.3363 70.2612 77.3228 70 77.2557C69.7388 77.1887 69.4939 77.0696 69.2799 76.9054C68.5915 76.8577 67.9285 76.6264 67.3599 76.2354C67.0209 76.0639 66.656 75.9491 66.2799 75.8954C66.129 75.8603 65.9866 75.7953 65.8612 75.7043C65.7359 75.6133 65.63 75.4981 65.5499 75.3654C65.5499 75.3054 65.4199 75.2254 65.4299 75.1754C65.4742 75.1093 65.5422 75.0628 65.6199 75.0454C66.7599 74.7754 66.7699 74.7754 67.3899 74.1254C67.4803 74.0531 67.554 73.962 67.6058 73.8584C67.6576 73.7548 67.6863 73.6412 67.6899 73.5254C67.6899 73.0554 67.6899 72.5954 67.6899 72.1254C67.6899 71.9454 67.4199 71.7354 67.2099 71.7254H66.2799C65.9599 71.7254 65.6499 71.7254 65.3399 71.7254C65.1202 71.8035 64.9241 71.9363 64.7702 72.1113C64.6162 72.2863 64.5094 72.4977 64.4599 72.7254C64.4599 73.2654 64.4599 73.8054 64.3699 74.3354C64.3699 74.5154 64.1699 74.5354 63.9899 74.5254C63.6599 74.5254 63.4699 74.1454 63.1799 74.1254C62.4799 74.1254 61.7799 74.1254 61.0799 74.1254C61.0033 74.1401 60.9333 74.1786 60.8799 74.2354C60.6574 74.3884 60.4063 74.4947 60.1416 74.548C59.8769 74.6012 59.6042 74.6004 59.3399 74.5454C59.2251 74.5366 59.1172 74.4877 59.0349 74.4072C58.9526 74.3268 58.9013 74.2199 58.8899 74.1054C58.8495 73.9169 58.8547 73.7214 58.9051 73.5353C58.9556 73.3492 59.0498 73.1778 59.1799 73.0354C59.5199 72.7154 59.8399 72.3854 60.1799 72.0354C60.2891 71.9254 60.4205 71.84 60.5654 71.7848C60.7102 71.7296 60.8652 71.706 61.0199 71.7154C61.173 71.7254 61.3267 71.7254 61.4799 71.7154C62.0999 71.7154 62.7599 71.8854 63.3099 71.5954C63.7545 71.2986 64.1727 70.964 64.5599 70.5954C64.8827 70.3875 65.2165 70.1972 65.5599 70.0254C65.649 69.9532 65.7602 69.9137 65.8749 69.9137C65.9896 69.9137 66.1008 69.9532 66.1899 70.0254C66.8471 70.545 67.5659 70.9816 68.3299 71.3254C69.0825 71.7195 69.9498 71.8363 70.7799 71.6554C70.9286 71.6044 71.0649 71.5226 71.1799 71.4154C71.4549 71.2655 71.7768 71.2262 72.0799 71.3054C72.1999 71.3054 72.3999 71.4754 72.4099 71.5754C72.4796 72.0255 72.4098 72.4862 72.2099 72.8954V72.8854ZM75.7399 72.7454C75.4899 72.9754 75.4499 72.9954 74.9899 72.7454C74.8599 72.6854 74.6999 72.6654 74.5599 72.5954C74.4199 72.5254 74.1699 72.3754 74.1899 72.0854C74.2348 71.6967 74.2348 71.3042 74.1899 70.9154C74.141 70.6076 74.1831 70.2922 74.311 70.008C74.4389 69.7237 74.6471 69.483 74.9099 69.3154C75.0799 69.1854 75.0599 69.0454 74.9099 68.9554C74.8438 68.9237 74.7728 68.9035 74.6999 68.8954C74.6299 68.8954 74.5199 68.8954 74.4799 68.8954C74.3161 69.0582 74.1206 69.1856 73.9056 69.2699C73.6906 69.3542 73.4607 69.3935 73.2299 69.3854C72.8499 69.3854 72.5999 69.8054 72.2299 69.8154C72.0776 69.8423 71.9211 69.8307 71.7744 69.7818C71.6277 69.7329 71.4956 69.6483 71.3899 69.5354C71.2259 69.3751 71.0995 69.1805 71.0199 68.9654C70.8767 68.5231 70.5921 68.1401 70.2099 67.8754C70.0927 67.7448 69.9478 67.6419 69.7858 67.5743C69.6238 67.5067 69.4488 67.4761 69.2734 67.4847C69.0981 67.4933 68.9269 67.541 68.7724 67.6241C68.6178 67.7073 68.4837 67.8239 68.3799 67.9654C68.2199 68.1054 68.1999 68.2554 68.3799 68.3154C68.7399 68.4454 69.0699 68.6454 69.3799 68.7754C69.5649 68.8154 69.7337 68.9102 69.8639 69.0476C69.9942 69.185 70.0799 69.3585 70.1099 69.5454C70.169 69.6872 70.25 69.8188 70.3499 69.9354C70.3727 69.9658 70.3865 70.0021 70.3895 70.04C70.3924 70.078 70.3845 70.1159 70.3667 70.1495C70.3489 70.1831 70.3218 70.2109 70.2887 70.2297C70.2556 70.2485 70.2179 70.2574 70.1799 70.2554C69.8807 70.3401 69.5655 70.3515 69.261 70.2889C68.9564 70.2262 68.6714 70.0913 68.4299 69.8954C68.0847 69.7575 67.7504 69.5937 67.4299 69.4054C67.0499 69.2754 66.7799 68.9754 66.4299 68.8854C66.0799 68.7954 65.9699 68.5754 65.8299 68.2754C65.6318 67.9439 65.3933 67.6382 65.1199 67.3654C64.9828 67.1803 64.9092 66.9558 64.9099 66.7254C64.9099 66.3554 65.0899 66.0854 65.3999 66.0754L67.4999 66.0054C67.8899 66.0054 68.2799 66.0054 68.6699 66.0054C69.3741 65.9382 70.0801 66.1147 70.6699 66.5054C70.8099 66.5754 70.9299 66.6554 71.0599 66.7354C71.4857 66.914 71.8941 67.1316 72.2799 67.3854C72.7426 67.4202 73.2072 67.4202 73.6699 67.3854C74.4799 67.3054 75.1099 67.9254 75.8899 67.8954C76.0199 67.8954 76.2199 68.3654 76.1199 68.4954C75.9054 68.8601 75.7704 69.266 75.7239 69.6866C75.6773 70.1071 75.7203 70.5327 75.8499 70.9354C75.8499 71.1454 76.0899 71.3354 76.1299 71.5554C76.1944 71.7714 76.1916 72.0019 76.122 72.2163C76.0523 72.4306 75.919 72.6187 75.7399 72.7554V72.7454Z" fill="white"/>
</svg>
