<svg width="90" height="90" viewBox="0 0 90 90" fill="none" xmlns="http://www.w3.org/2000/svg">
<path d="M49.68 70.07C48.5501 70.1825 47.4921 70.6762 46.68 71.47C46.5977 71.5924 46.4925 71.6977 46.37 71.78C46.25 71.85 46.07 71.91 45.98 71.86C45.89 71.81 45.83 71.61 45.85 71.49C45.98 70.71 45.99 70.73 45.34 70.71C45.0007 70.6949 44.6683 70.8093 44.41 71.03C44.2345 71.2548 43.9973 71.4237 43.7274 71.516C43.4575 71.6083 43.1665 71.6202 42.89 71.55L43.7 70.55C43.3213 70.299 42.8628 70.1979 42.4137 70.2663C41.9645 70.3347 41.5569 70.5677 41.27 70.92C40.8767 71.2735 40.4477 71.5851 39.99 71.85C39.902 71.71 39.85 71.5503 39.8389 71.3852C39.8277 71.2202 39.8576 71.055 39.926 70.9043C39.9944 70.7537 40.0991 70.6224 40.2307 70.5222C40.3623 70.4219 40.5167 70.3559 40.68 70.33C40.68 70.26 40.62 70.16 40.57 70.14L39.47 69.85C39.36 70.4 38.73 70.12 38.47 70.46C38.36 70.62 38.18 70.74 38.06 70.89C37.9328 71.0836 37.8159 71.2839 37.71 71.49C37.2 70.44 38.03 70.18 38.32 69.66C36.2688 68.9447 34.3743 67.8413 32.74 66.41C29.4409 63.5695 27.0514 59.8202 25.87 55.63C25.2912 54.1527 24.9731 52.5861 24.93 51C23.26 50.48 22.13 49.64 20.46 49C19.11 48.53 17.79 47.93 16.46 47.4C15.79 47.13 15.11 46.9 14.46 46.66C14.38 46.66 14.26 46.66 14.17 46.66C13.9331 46.6166 13.7113 46.5127 13.5262 46.3585C13.3412 46.2043 13.199 46.0049 13.1135 45.7796C13.0281 45.5544 13.0022 45.3109 13.0383 45.0727C13.0745 44.8345 13.1715 44.6097 13.32 44.42C13.8927 43.5411 14.5207 42.6994 15.2 41.9C16.37 40.46 17.59 39.06 18.78 37.64C19.6 36.64 20.41 35.7 21.2 34.7C22.83 32.61 35.48 18.91 36 17.54C36.3733 16.7512 36.8436 16.0122 37.4 15.34C37.4663 15.2517 37.5524 15.1803 37.6515 15.1316C37.7505 15.083 37.8597 15.0584 37.97 15.06C38.6792 15.1829 39.3709 15.3911 40.03 15.68C41.66 16.51 42.25 16.41 43.84 17.33C45.84 18.51 47.89 19.75 49.94 20.93C51.48 21.82 53.05 22.65 54.61 23.52C55.7 24.13 58.79 25.74 59.86 26.38C60.13 26.54 60.3 26.65 60.63 26.44C61.0566 26.112 61.5923 25.9594 62.1276 26.0133C62.6629 26.0672 63.1575 26.3236 63.51 26.73C64.017 27.123 64.3536 27.6958 64.45 28.33C64.45 28.7 64.67 29.06 64.73 29.44C64.79 29.82 68.34 31.24 70.26 32.14C71.8161 32.7964 73.3175 33.5755 74.75 34.47C75.3682 34.8454 75.9596 35.263 76.52 35.72C76.6654 35.8336 76.7845 35.9772 76.8691 36.141C76.9538 36.3049 77.0021 36.4851 77.0106 36.6693C77.0192 36.8536 76.9878 37.0375 76.9187 37.2085C76.8495 37.3795 76.7442 37.5335 76.61 37.66C74.75 39.92 74.98 40.25 72.9 42.34C70.62 44.64 69.52 46.11 67.3 48.56C67.97 49.91 67.73 52.29 68.69 53.56C69.65 54.83 69.3 55.56 68.42 56.22C68.2352 56.373 68.0088 56.467 67.77 56.49C67.04 56.49 66.32 56.4 65.59 56.35C65.42 56.35 65.17 56.28 65.08 56.35C64.7913 56.6164 64.4249 56.7834 64.0345 56.8266C63.644 56.8698 63.25 56.7869 62.91 56.59C62.5 56.43 62.44 56.59 62.32 56.93C61.95 57.93 61.55 58.93 61.15 59.86C60.5394 61.2389 59.6934 62.5011 58.65 63.59C57.5135 64.8499 56.2941 66.0325 55 67.13C53.52 68.41 51.81 69.35 50.41 70.71C50.3 70.81 50.2 70.95 50.07 70.99C49.77 71.1 49.28 71.31 49.19 71.2C48.85 70.82 49.4 70.67 49.53 70.39C49.52 70.34 49.55 70.31 49.68 70.07ZM44.54 32.84C43.008 32.9734 41.4916 33.2479 40.01 33.66C38.1817 34.4608 36.4505 35.4673 34.85 36.66C33.475 37.7332 32.169 38.8922 30.94 40.13C30.62 40.42 29.7 41.6 29.43 41.93C28.5372 43.2255 27.8147 44.6303 27.28 46.11C26.5989 47.6492 26.3004 49.3304 26.41 51.01C26.41 51.25 26.76 53.88 27.06 55.23C27.4396 56.4688 27.9386 57.6678 28.55 58.81C29.1674 60.3378 30.0324 61.7534 31.11 63C32.813 65.0824 34.9859 66.7309 37.45 67.81C38.5593 68.2728 39.7329 68.5629 40.93 68.67C42.1429 68.6574 43.3535 68.7782 44.54 69.03C45.8141 69.3095 47.1397 69.2439 48.38 68.84C48.56 68.84 48.74 68.7 48.93 68.68C50.4207 68.499 51.8184 67.8595 52.93 66.85C54.35 65.61 55.85 64.45 57.19 63.09C59.0854 61.0767 60.3687 58.5655 60.89 55.85C61.05 55.14 60.95 54.99 60.32 55.17C59.97 55.27 59.86 55.12 59.78 54.94C59.7592 54.861 59.7593 54.778 59.7804 54.6991C59.8014 54.6202 59.8427 54.5481 59.9 54.49C60.17 54.38 60.32 54.28 60.2 53.97C59.9732 53.329 59.8888 52.6462 59.9527 51.9692C60.0166 51.2922 60.2273 50.6373 60.57 50.05C61.1618 48.9165 61.3589 47.6181 61.13 46.36C60.94 45.3 61.06 42.98 60.13 42.16C59.26 40.62 58.98 39.55 57.71 38.48C56.5888 37.4155 55.3392 36.4951 53.99 35.74C52.28 34.95 51.99 34.32 50.16 33.88C48.3224 33.3626 46.4412 33.0144 44.54 32.84ZM64 50.92C63.3306 50.1989 62.9715 49.2435 63 48.26C63.0401 47.9647 63.0401 47.6653 63 47.37C63 47.24 62.77 47.15 62.65 47.03C62.57 47.14 62.42 47.25 62.44 47.34C62.5525 48.77 62.1401 50.192 61.28 51.34C61.2052 51.4663 61.1543 51.6053 61.13 51.75C60.9864 52.1512 60.912 52.5739 60.91 53C61.0164 53.5461 61.2541 54.0582 61.6026 54.492C61.951 54.9258 62.3997 55.2683 62.91 55.49C63.1799 55.661 63.495 55.7467 63.8143 55.736C64.1336 55.7253 64.4422 55.6187 64.7 55.43C64.76 55.355 64.8361 55.2944 64.9226 55.2528C65.0092 55.2111 65.104 55.1895 65.2 55.1895C65.2961 55.1895 65.3909 55.2111 65.4775 55.2528C65.564 55.2944 65.6401 55.355 65.7 55.43C66.52 56 67.17 55.57 67.81 55.12C67.8641 55.0896 67.9092 55.0453 67.9405 54.9917C67.9718 54.9381 67.9884 54.8771 67.9884 54.815C67.9884 54.7529 67.9718 54.692 67.9405 54.6384C67.9092 54.5848 67.8641 54.5405 67.81 54.51C67.05 53.93 67.67 53.07 67.18 52.29C66.3685 50.7761 65.7695 49.1575 65.4 47.48C65.4 47.15 64.19 47.09 63.91 47.09C63.63 47.09 63.53 47.29 63.49 47.56C63.4812 48.2726 63.6569 48.9754 64 49.6C64.1713 50.0233 64.1713 50.4967 64 50.92ZM63.27 41.92C63.33 41.92 64.4 41.87 64.47 41.85C64.59 40.35 63.78 38.85 63.8 37.36C63.9354 34.9039 63.8484 32.4405 63.54 30C63.5109 29.4736 63.403 28.9545 63.22 28.46C63.011 28.0216 62.6945 27.6432 62.3 27.36C62.04 27.18 61.6 27.25 60.95 27.17C62.37 28.4 61.73 27.75 61.66 29.28C61.538 30.2778 61.5582 31.2879 61.72 32.28C62.29 34.1 61.43 34.64 62.11 36.41C61.74 36.91 62.02 37.48 62.11 38C62.1695 38.6653 62.1695 39.3347 62.11 40C62.06 40.5322 62.06 41.0678 62.11 41.6C62.13 41.88 63.17 41.7 63.29 42L63.27 41.92ZM65.89 44.72C65.514 43.9332 64.9206 43.2705 64.18 42.81C63.5639 42.6113 62.897 42.6396 62.3 42.89C62.02 43.19 61.53 43.49 61.92 44.09C62.06 44.3 62 44.64 62.04 44.93C62.0376 45.1389 62.0897 45.3449 62.1913 45.5274C62.2929 45.71 62.4404 45.8629 62.6192 45.971C62.798 46.0791 63.0019 46.1386 63.2107 46.1437C63.4196 46.1488 63.6262 46.0993 63.81 46C64.01 45.93 65.18 45.78 65.35 45.67L64.64 45.14C64.32 44.88 64.06 44.55 64.38 44.14C64.45 44.05 64.87 44.24 65.11 44.32C65.35 44.4 65.45 44.53 65.91 44.75L65.89 44.72Z" fill="white"/>
<path d="M56.8301 68.71C55.9601 69.57 55.1101 70.43 54.2201 71.27C54.0291 71.3856 53.8192 71.4669 53.6001 71.51C53.6001 71.24 53.5001 70.86 53.6001 70.7C54.3101 69.91 55.0701 69.16 55.8301 68.41C56.3201 68 56.5701 68.32 56.8301 68.71Z" fill="white"/>
<path d="M62.1099 69.08C62.1099 69.34 62.1099 69.47 62.1099 69.54C61.5136 70.3692 60.7376 71.0528 59.8399 71.54C59.7724 71.5526 59.7029 71.5492 59.6369 71.5301C59.5709 71.511 59.5103 71.4768 59.4599 71.43C59.4176 71.3678 59.3901 71.2966 59.3797 71.222C59.3693 71.1475 59.3762 71.0715 59.3999 71C60.0899 70.27 60.7899 69.54 61.5299 68.86C61.5599 68.77 61.9199 69 62.1099 69.08Z" fill="white"/>
<path d="M56.4402 71.3C56.4402 71.15 56.2403 70.9 56.2903 70.85C57.1003 70.09 57.9302 69.34 58.7802 68.61C58.8414 68.5758 58.9102 68.5579 58.9802 68.5579C59.0503 68.5579 59.1191 68.5758 59.1803 68.61C59.2231 68.6642 59.2512 68.7287 59.2617 68.797C59.2722 68.8654 59.2648 68.9353 59.2403 69C58.9496 69.4707 58.6148 69.9128 58.2403 70.32C57.8615 70.6531 57.4531 70.951 57.0203 71.21C56.8332 71.2718 56.6372 71.3023 56.4402 71.3Z" fill="white"/>
<path d="M65.1501 69.31C64.7201 69.72 64.3101 70.17 63.8401 70.55C63.6901 70.66 63.3801 70.55 63.1401 70.55C63.1401 70.37 63.1401 70.16 63.1401 70.03C63.3273 69.6666 63.5628 69.3302 63.8401 69.03C64.3501 68.6 64.7801 68.73 65.1501 69.31Z" fill="white"/>
<path d="M35.2701 70.58C35.2201 70.73 35.2201 70.86 35.1601 70.91C34.9235 71.085 34.6764 71.2453 34.4201 71.39C34.1401 71.55 34.0101 72.05 33.5501 71.81C33.3001 71.67 33.5501 71.22 34.0301 70.87C34.3157 70.6778 34.6249 70.5231 34.9501 70.41C35.0001 70.38 35.1701 70.52 35.2701 70.58Z" fill="white"/>
<path d="M66.9199 70.36C66.7155 70.4753 66.5013 70.5723 66.2799 70.65C65.9799 70.65 65.7699 70.54 65.8199 70.23C65.8699 69.92 65.9899 69.93 66.0899 69.78L66.9199 70.36Z" fill="white"/>
<path d="M32.0599 73.9C31.9876 73.685 31.934 73.4642 31.8999 73.24C31.8999 72.82 32.1899 72.75 32.4899 72.84C32.6199 72.84 32.7999 73.19 32.7699 73.23C32.5516 73.472 32.3142 73.6961 32.0599 73.9Z" fill="white"/>
<path d="M53.5399 72.24C53.2599 72.54 53.0799 72.71 52.9199 72.9C52.7599 73.09 52.6499 73.07 52.4699 72.9C52.2899 72.73 52.4699 72.43 52.5999 72.36C52.9068 72.2801 53.2227 72.2398 53.5399 72.24Z" fill="white"/>
<path d="M31.4099 71C31.1099 71.24 30.9099 71.43 30.6799 71.58C30.6799 71.58 30.4799 71.42 30.3799 71.34C30.5748 71.1156 30.7818 70.9019 30.9999 70.7C31.1473 70.7844 31.2848 70.8851 31.4099 71Z" fill="white"/>
<path d="M45.9099 74.43L45.4099 74.95C45.3299 74.81 45.1699 74.66 45.1699 74.52C45.1699 74.38 45.3299 74.24 45.4199 74.1L45.9099 74.43Z" fill="white"/>
<path d="M36.7399 73.2601C36.7399 73.2601 36.7399 73.3601 36.6799 73.3701C36.4799 73.4901 36.2699 73.6001 36.0599 73.7101L35.9199 73.3101C36.1499 73.3101 36.3799 73.2101 36.6199 73.1801C36.6499 73.1701 36.6999 73.2301 36.7399 73.2601Z" fill="white"/>
<path d="M28.1699 70.88C28.3099 71.08 28.4599 71.25 28.4399 71.28C28.338 71.4162 28.1991 71.5203 28.0399 71.58C27.9199 71.58 27.7699 71.5 27.6299 71.45L28.1699 70.88Z" fill="white"/>
<path d="M56.6203 72.87L56.2603 72.61L56.5603 72.24C56.6503 72.33 56.7903 72.4 56.8103 72.5C56.8303 72.6 56.7103 72.72 56.6203 72.87Z" fill="white"/>
<path d="M37.2099 57.07C37.3399 56.64 38.2999 52.7 38.8999 50.39C38.9075 50.2755 38.8869 50.1609 38.8398 50.0563C38.7927 49.9517 38.7207 49.8602 38.6299 49.79C36.9575 48.3869 35.1446 47.1603 33.2199 46.13C32.4399 45.34 31.8099 44.37 32.8799 44.13C33.9499 43.89 40.4599 43.32 40.5299 43.13C41.0599 42.01 41.1399 40.86 41.6899 39.75C42.0499 39.04 43.4699 37.15 43.9699 37.67C44.9271 38.5749 45.8068 39.5584 46.5999 40.61C47.5999 41.9 47.0099 42.73 48.1899 42.46C50.0999 42.46 52.9399 42.46 55.6699 42.27C56.2599 42.47 56.2799 43.14 55.7399 43.63C55.1999 44.12 54.3699 44.69 53.7399 45.29C52.7399 46.29 51.7399 47.39 50.7399 48.48C50.6833 48.6097 50.6592 48.7513 50.6696 48.8924C50.6801 49.0336 50.7248 49.1701 50.7999 49.29C52.1499 51.02 53.6899 54.81 53.6399 55.86C53.6536 56.0644 53.6168 56.2691 53.5328 56.456C53.4487 56.6428 53.3201 56.8062 53.1581 56.9316C52.9961 57.0571 52.8057 57.1408 52.6038 57.1754C52.4018 57.21 52.1945 57.1944 51.9999 57.13C49.7651 56.2428 47.5875 55.2175 45.4799 54.06C45.2299 53.91 45.0699 53.84 44.8099 54.06C42.7503 55.5896 40.6106 57.0082 38.3999 58.31C37.7999 58.54 37.1999 58 37.2099 57.07Z" fill="white"/>
<path d="M45.7398 65.36C45.7398 65.48 45.7398 65.54 45.7398 65.58C45.2976 66.6798 44.6683 67.6948 43.8798 68.58C43.7856 68.6344 43.6787 68.663 43.5698 68.663C43.461 68.663 43.3541 68.6344 43.2598 68.58C43.1198 68.47 43.1098 68.17 43.0798 67.95C43.0498 67.73 43.1898 67.79 43.2498 67.71C43.7998 66.88 44.3398 66.05 44.9198 65.24C45.0098 65.12 45.2798 65.1 45.4698 65.1C45.6598 65.1 45.6798 65.3 45.7398 65.36Z" fill="white"/>
<path d="M53.1798 64.08C53.1008 64.7545 52.8822 65.4052 52.5379 65.9906C52.1935 66.576 51.731 67.0832 51.1798 67.48C51.1215 67.5115 51.0562 67.528 50.9898 67.528C50.9235 67.528 50.8582 67.5115 50.7998 67.48C50.7674 67.4183 50.7505 67.3497 50.7505 67.28C50.7505 67.2103 50.7674 67.1417 50.7998 67.08C51.4991 66.2324 51.989 65.2321 52.2298 64.16C52.2898 63.8 52.3998 63.52 52.7598 63.64C52.9998 63.66 53.0898 64 53.1798 64.08Z" fill="white"/>
<path d="M49.1902 65.7C48.9744 66.7442 48.4763 67.7092 47.7502 68.49C47.6102 68.64 47.3302 68.65 47.1202 68.73C47.1202 68.54 46.9702 68.34 47.0102 68.17C47.0973 67.8914 47.2147 67.6231 47.3602 67.37C47.6702 66.75 47.9702 66.12 48.3602 65.53C48.4702 65.35 48.7402 65.27 48.9302 65.14L49.1902 65.7Z" fill="white"/>
<path d="M40.1699 68.51C40.1718 68.2267 40.2225 67.9459 40.3199 67.68C40.7599 67.08 41.2499 66.5 41.7299 65.93C41.7803 65.8783 41.8412 65.8382 41.9085 65.8123C41.9758 65.7864 42.0479 65.7753 42.1199 65.78C42.2199 65.78 42.3299 65.98 42.3399 66.1C42.3985 66.4489 42.346 66.8075 42.1899 67.125C42.0338 67.4426 41.782 67.7031 41.4699 67.87C41.0899 68.08 40.6999 68.25 40.1699 68.51Z" fill="white"/>
<path d="M54.4902 65L55.7202 61.85C55.9278 62.2631 56.0266 62.7223 56.0073 63.1842C55.9881 63.6462 55.8514 64.0955 55.6102 64.49C55.5794 64.6033 55.5239 64.7085 55.4478 64.798C55.3717 64.8875 55.2768 64.9591 55.1699 65.0078C55.063 65.0564 54.9467 65.081 54.8292 65.0796C54.7117 65.0783 54.596 65.0511 54.4902 65Z" fill="white"/>
<path d="M37.6403 67.6C37.5803 67.45 37.4303 67.23 37.4803 67.15C37.9703 66.51 38.4803 65.89 39.0003 65.28C39.0003 65.28 39.2403 65.28 39.3403 65.34C39.4403 65.4 39.5503 65.53 39.5303 65.56C39.2735 66.336 38.8103 67.0274 38.1903 67.56C38.0803 67.59 37.9003 67.56 37.6403 67.6Z" fill="white"/>
<path d="M58.2601 62.57C58.1201 62.34 57.8701 62.1 57.8701 61.87C57.8943 61.4306 57.9784 60.9966 58.1201 60.58C58.1201 60.44 58.3601 60.21 58.4501 60.23C58.6341 60.2895 58.7926 60.4093 58.9001 60.57C58.8772 61.2315 58.71 61.8799 58.4101 62.47L58.2601 62.57Z" fill="white"/>
<path d="M36.18 66C36.18 66.17 36.18 66.31 36.18 66.37C35.9927 66.5823 35.7923 66.7827 35.58 66.97C35.48 66.83 35.29 66.69 35.29 66.54C35.2804 66.4517 35.2887 66.3624 35.3144 66.2773C35.3401 66.1923 35.3827 66.1134 35.4397 66.0452C35.4966 65.977 35.5668 65.9211 35.6459 65.8807C35.725 65.8402 35.8114 65.8162 35.9 65.81C36 65.76 36.11 65.91 36.18 66Z" fill="white"/>
<path d="M32.0598 63.62C31.8499 63.5334 31.6543 63.4154 31.4798 63.27C31.4301 63.1997 31.3955 63.1199 31.3782 63.0355C31.361 62.9511 31.3616 62.8641 31.3798 62.78C31.3798 62.72 31.6498 62.64 31.7598 62.67C31.9856 62.7396 32.196 62.8516 32.3798 63C32.4239 63.0536 32.455 63.1168 32.4706 63.1844C32.4862 63.2521 32.4859 63.3224 32.4698 63.39C32.4198 63.49 32.2398 63.53 32.0598 63.62Z" fill="white"/>
<path d="M60.7202 58.2C60.4502 58.39 60.2902 58.57 60.1102 58.61C59.9302 58.65 59.8102 58.45 59.6602 58.36C59.8407 58.1512 60.0344 57.9541 60.2402 57.77C60.4146 57.8963 60.5755 58.0405 60.7202 58.2Z" fill="white"/>
<path d="M30.9401 61.21C30.8101 61.36 30.7401 61.52 30.6301 61.57C30.2301 61.73 30.1601 61.37 30.0801 61.13C30.0801 61.06 30.2701 60.83 30.3001 60.84C30.5227 60.9466 30.7367 61.0703 30.9401 61.21Z" fill="white"/>
<path d="M33.8599 64.84C33.715 64.9326 33.5609 65.0097 33.3999 65.07C33.2752 64.9438 33.1826 64.7895 33.1299 64.62C33.1299 64.52 33.2299 64.39 33.2899 64.27L33.8599 64.84Z" fill="white"/>
<path d="M65.2801 55.0001C65.0801 55.1101 64.9501 55.2501 64.8601 55.2301C64.3217 54.9787 63.8663 54.5788 63.5474 54.0775C63.2286 53.5762 63.0595 52.9942 63.0601 52.4001C63.0601 52.2301 63.3201 52.0901 63.4501 51.9401C63.5901 52.0701 63.7801 52.1801 63.8601 52.3401C63.9238 52.5332 63.9477 52.7374 63.9301 52.9401C63.8953 53.2658 63.9647 53.5942 64.1282 53.878C64.2917 54.1619 64.5409 54.3867 64.8401 54.5201C65.0001 54.5701 65.1001 54.7701 65.2801 55.0001Z" fill="white"/>
</svg>
