<svg width="90" height="90" viewBox="0 0 90 90" fill="none" xmlns="http://www.w3.org/2000/svg">
<path d="M26.5899 21.2C26.5899 20.78 26.5899 20.35 26.5899 19.93C26.5959 19.6713 26.6795 19.4205 26.8299 19.21C27.1999 18.85 27.7399 18.64 28.0299 18.21C28.2479 17.7548 28.4091 17.2745 28.5099 16.78C28.548 16.6944 28.6031 16.6174 28.6719 16.5538C28.7406 16.4902 28.8216 16.4413 28.9099 16.41C29.401 16.2999 29.9114 16.3107 30.3973 16.4413C30.8833 16.572 31.3303 16.8186 31.6999 17.16C32.376 17.7514 32.9268 18.4723 33.3199 19.28C33.4599 19.66 33.8099 19.67 34.0299 19.35C34.24 19.0354 34.4175 18.7004 34.5599 18.35C35.5599 15.72 36.4699 15.08 39.1599 15.05H39.8599C40.0124 15.4104 40.0641 15.8054 40.0095 16.1929C39.9549 16.5804 39.796 16.9457 39.5499 17.25C38.3342 19.1804 37.4992 21.3257 37.0899 23.57C36.9549 24.371 36.9549 25.189 37.0899 25.99C37.3397 28.2374 36.9114 30.5081 35.8599 32.51C35.7459 32.6801 35.6488 32.8609 35.5699 33.05C35.2321 35.4073 35.1282 37.7922 35.2599 40.17C35.5999 42.02 35.7099 43.9 35.9099 45.77C36.0739 46.8589 36.3009 47.9374 36.5899 49C37.0199 49 37.3899 49 37.7499 49C38.0334 48.9964 38.3127 49.0687 38.5589 49.2093C38.805 49.35 39.0091 49.5539 39.1499 49.8C39.3101 50.0109 39.3801 50.2768 39.3445 50.5393C39.3089 50.8017 39.1706 51.0394 38.9599 51.2C38.5999 51.59 38.7299 51.93 39.0399 52.32C39.2792 52.5459 39.4658 52.8218 39.5863 53.128C39.7069 53.4342 39.7585 53.7632 39.7375 54.0916C39.7165 54.42 39.6234 54.7398 39.4648 55.0281C39.3062 55.3165 39.086 55.5664 38.8199 55.76C38.4905 56.02 38.2581 56.3833 38.1601 56.7914C38.0622 57.1995 38.1044 57.6287 38.2799 58.01C38.5425 58.7981 38.6906 59.6198 38.7199 60.45C38.8099 61.6 38.8399 62.74 39.0099 63.9C39.2899 65.82 39.0999 67.82 39.4599 69.72C39.5384 70.9297 39.719 72.1307 39.9999 73.31C40.1363 74.1579 40.1363 75.0221 39.9999 75.87C40.6599 75.7 40.6399 75.29 40.6899 74.87C40.7926 73.0444 40.9895 71.2253 41.2799 69.42C41.3404 68.6779 41.3404 67.9321 41.2799 67.19C41.2799 66.78 41.4199 66.37 41.4399 65.95C41.4619 65.7196 41.4094 65.4882 41.2899 65.29C41.1799 65.14 40.9299 65.09 40.7599 64.98C39.0099 63.85 39.5899 62.36 40.9899 61.36C41.3599 61.1 41.5999 60.96 41.6099 60.44C41.6976 58.9743 41.4408 57.5085 40.8599 56.16C40.7023 55.7763 40.6241 55.3647 40.6299 54.95C40.6299 53.56 40.6299 52.18 40.6299 50.79C40.627 48.9667 40.3125 47.1573 39.6999 45.44C39.3309 44.6367 38.8926 43.8671 38.3899 43.14C38.1999 42.77 37.9199 42.44 37.7699 42.06C37.719 41.938 37.6928 41.8071 37.6928 41.675C37.6928 41.5428 37.719 41.412 37.7699 41.29C37.8799 41.13 38.2199 41.1 38.4599 41.05C38.942 40.8665 39.4542 40.7749 39.9699 40.78C40.405 40.8486 40.818 41.0183 41.1757 41.2753C41.5335 41.5323 41.826 41.8695 42.0299 42.26C42.6599 43.42 43.1399 44.76 44.4399 45.61L45.4399 44.23C45.8487 43.6267 46.426 43.1572 47.0999 42.88C47.6699 42.64 47.9799 42.93 48.3999 42.96L48.3499 41C48.3457 39.9954 48.2654 38.9925 48.1099 38C47.9355 37.364 47.9304 36.6934 48.0953 36.0548C48.2602 35.4163 48.5893 34.832 49.0499 34.36C49.3499 34.08 49.2299 33.88 49.1199 33.54C48.9224 32.8448 48.7753 32.1363 48.6799 31.42C48.6799 31.26 48.6799 31.06 48.6799 30.95C47.7499 29.63 47.6799 27.95 46.5299 26.66C46.1261 26.0553 45.5846 25.5549 44.9499 25.2C44.6992 25.0788 44.479 24.9025 44.3058 24.6844C44.1327 24.4662 44.011 24.2117 43.9499 23.94C43.8772 23.6421 43.7369 23.365 43.5399 23.13C43.1681 22.7518 42.9492 22.2496 42.9252 21.7199C42.9012 21.1901 43.0738 20.6702 43.4099 20.26C43.5599 20.05 43.5099 19.96 43.4099 19.74C43.3248 19.5216 43.293 19.2861 43.3174 19.053C43.3417 18.8199 43.4215 18.596 43.5499 18.4C43.7999 17.94 44.0199 17.62 44.5499 17.59C44.9499 17.59 44.6599 17.34 44.6299 17.18C44.4743 16.73 44.4778 16.2403 44.6398 15.7925C44.8018 15.3448 45.1124 14.9662 45.5199 14.72C45.6899 14.62 45.7699 14.33 45.8299 14.11C45.9784 13.6687 46.0789 13.2127 46.1299 12.75C46.1299 12.17 46.5799 12.01 46.9899 11.75C47.3999 11.49 47.6499 11.75 47.9899 11.82C48.723 11.9376 49.3899 12.3136 49.8699 12.88C50.3499 13.38 50.8099 13.88 51.4199 14.54C51.6399 14.12 51.7799 13.83 51.9199 13.54C52.2074 12.6288 52.5686 11.7425 52.9999 10.89C53.454 10.1889 54.0587 9.59794 54.7699 9.15997C55.1782 8.87698 55.6632 8.72534 56.1599 8.72534C56.6567 8.72534 57.1416 8.87698 57.5499 9.15997C57.6468 9.20608 57.7325 9.27271 57.8011 9.35523C57.8697 9.43776 57.9195 9.53421 57.947 9.6379C57.9746 9.74159 57.9793 9.85003 57.9608 9.95572C57.9423 10.0614 57.9011 10.1618 57.8399 10.25C57.5199 10.78 57.2099 11.32 56.8999 11.87C56.3736 12.7038 56.0642 13.656 55.9999 14.64C56.0199 15.2149 55.9455 15.7891 55.7799 16.34C55.6557 16.9605 55.6557 17.5995 55.7799 18.22C55.8718 18.5726 55.9453 18.9297 55.9999 19.29C56.0738 20.3796 56.2445 21.4606 56.5099 22.52C56.6093 23.089 56.6093 23.6709 56.5099 24.24C56.116 25.8116 55.9444 27.4307 55.9999 29.05C56.0125 29.4148 56.0662 29.7771 56.1599 30.13C56.5099 31.21 56.8999 32.28 57.2899 33.34C57.4099 33.66 57.4799 34.14 58.0299 33.77C58.4099 34.17 59.1099 34.57 59.1199 34.97C59.1199 35.83 59.7099 36.41 59.8799 37.17C60.2099 38.57 60.6999 39.92 61.0999 41.31C61.6451 42.8112 62.0993 44.344 62.4599 45.9C62.6401 46.4562 62.903 46.9821 63.2399 47.46C63.4099 47.18 63.6999 46.85 63.6399 46.76C63.4556 46.4135 63.391 46.0158 63.4561 45.6288C63.5212 45.2417 63.7124 44.8871 63.9999 44.62C64.2532 44.345 64.5633 44.1283 64.9086 43.985C65.254 43.8417 65.6263 43.7751 65.9999 43.79C65.9637 43.4532 65.8557 43.1281 65.6832 42.8365C65.5107 42.545 65.2777 42.2938 64.9999 42.1C64.033 41.1484 63.3419 39.9528 62.9999 38.64C62.7967 37.7756 62.7192 36.8865 62.7699 36C62.7799 35.8982 62.818 35.8013 62.8799 35.72C63.1799 35.15 63.8799 35.18 64.2499 34.8C64.6199 34.42 64.2499 33.8 64.8299 33.42C65.0399 33.29 65.2899 33.21 65.5099 33.08C65.7299 32.95 65.9199 32.86 65.9299 32.75C65.9093 32.4518 65.9504 32.1526 66.0508 31.871C66.1512 31.5895 66.3087 31.3318 66.5133 31.114C66.718 30.8961 66.9655 30.723 67.2402 30.6053C67.515 30.4876 67.8111 30.4279 68.1099 30.43C68.3199 29.84 67.8999 29.08 68.5499 28.78C68.9049 28.6042 69.2978 28.5186 69.6937 28.5308C70.0896 28.543 70.4765 28.6526 70.8199 28.85C71.2684 29.1122 71.6677 29.4506 71.9999 29.85C72.3383 30.3155 72.6392 30.807 72.8999 31.32C73.2899 31.98 73.5099 32 73.9599 31.43C74.5499 30.68 75.1499 29.95 75.7499 29.22C76.8399 27.91 78.8599 28.13 80.2699 28.77C80.4453 28.8381 80.6014 28.9478 80.725 29.0896C80.8485 29.2315 80.9356 29.4012 80.9789 29.5843C81.0222 29.7673 81.0204 29.9582 80.9735 30.1403C80.9267 30.3225 80.8362 30.4905 80.7099 30.63C80.1597 31.4489 79.569 32.2399 78.9399 33C77.6094 34.6117 76.751 36.5604 76.4599 38.63C76.208 40.1548 75.7151 41.6299 74.9999 43L74.1599 44.66L74.8499 44.87C75.0584 44.9179 75.2415 45.0418 75.3635 45.2174C75.4855 45.3931 75.5378 45.6079 75.5099 45.82C75.5099 47.82 75.5099 49.87 75.5099 51.9C75.5099 52.69 75.3299 52.77 73.9799 52.9C73.8499 54.32 73.7299 55.77 73.5899 57.22C73.5899 57.74 73.4299 58.22 73.3499 58.76C73.2199 59.63 73.0299 60.5 72.9699 61.38C72.9132 62.2061 72.6557 63.0059 72.2199 63.71C70.7799 66.14 69.0999 68.39 67.4699 70.71C67.3199 70.92 67.1999 71.16 66.9999 71.48C66.4199 68.68 65.8399 65.97 65.2899 63.25C64.8599 61.12 64.3599 59.02 63.8399 56.91C63.4799 55.47 63.2199 53.97 62.9699 52.48C62.4761 50.1159 61.8585 47.7794 61.1199 45.48C60.6599 43.84 60.1199 42.21 59.8099 40.54C59.4999 38.87 58.8099 37.3 58.2999 35.65C57.9157 35.7769 57.584 36.0269 57.3563 36.3613C57.1285 36.6958 57.0173 37.096 57.0399 37.5C56.9799 38.4 56.4099 39.04 56.2699 39.88C56.1699 40.45 55.6099 40.53 55.1899 40.1C54.7906 39.6811 54.4229 39.2332 54.0899 38.76C53.2299 37.55 53.2399 37.5 51.8499 37.55C50.914 37.5668 49.9858 37.3791 49.1299 37C49.1299 37.06 48.9899 37.16 49.0099 37.22C49.4499 39.05 49.0099 41 49.8299 42.77C49.9223 43.0156 49.9598 43.2784 49.9399 43.54C49.9013 43.9123 49.9529 44.2884 50.0904 44.6366C50.2279 44.9847 50.4473 45.2946 50.7299 45.54C51.0374 45.826 51.2325 46.2127 51.2799 46.63C51.3618 47.0312 51.5899 47.3876 51.9199 47.63C52.2207 47.7845 52.4671 48.0273 52.6262 48.3257C52.7853 48.6242 52.8494 48.9641 52.8099 49.3C52.7874 49.4878 52.8132 49.6782 52.885 49.8532C52.9568 50.0283 53.072 50.182 53.2199 50.3C53.3952 50.4165 53.5395 50.5739 53.6406 50.7585C53.7416 50.9431 53.7963 51.1495 53.7999 51.36C53.8291 51.6467 53.7959 51.9363 53.7027 52.209C53.6095 52.4817 53.4585 52.7311 53.2599 52.94C52.2599 53.78 52.4099 54.76 52.6799 55.81C52.7419 56.0095 52.7887 56.2134 52.8199 56.42C52.9299 58.2 52.9299 60.01 53.1799 61.77C53.2707 63.0709 53.4512 64.3639 53.7199 65.64C53.9799 66.57 53.7899 67.64 54.0599 68.64C54.2879 69.7456 54.4051 70.8711 54.4099 72C54.4699 73.12 54.4099 74.25 54.4599 75.36C54.4599 76.09 54.1499 76.36 53.4599 76.48C53.3399 74.63 53.2599 72.8 53.0999 70.96C52.9999 69.83 52.7699 68.7 52.5999 67.57C52.5437 67.3165 52.5069 67.0591 52.4899 66.8C52.4724 65.0217 52.2577 63.2509 51.8499 61.52C51.8499 61.26 51.8499 60.99 51.8499 60.72C51.7299 59.1 51.5899 57.48 51.4599 55.86C50.5699 56.15 50.5899 57.32 49.6799 57.54C49.5599 58.15 49.4099 58.75 49.3099 59.36C49.3099 59.68 49.3099 60 49.3099 60.36C49.3099 61.15 49.3099 61.84 50.3099 62.09C50.4999 62.14 50.6299 62.36 50.7999 62.49C51.6499 63.15 51.7999 63.76 51.2499 64.61C51.0917 64.8887 50.8688 65.1254 50.5999 65.3C49.5999 65.72 49.6499 66.51 49.6599 67.37C49.6599 71.31 49.6599 75.26 49.6599 79.21C49.6951 79.7394 49.6951 80.2706 49.6599 80.8C49.6599 81.01 49.3599 81.18 49.1899 81.36C49.0184 81.1728 48.8767 80.9603 48.7699 80.73C48.6999 80.43 48.7699 80.09 48.7699 79.73C48.6068 79.1306 48.5294 78.5111 48.5399 77.89C48.6904 77.3571 48.6904 76.7929 48.5399 76.26C48.4099 75.88 48.7699 75.36 48.7699 74.91C48.7699 72.14 48.7699 69.36 48.7699 66.59C48.7699 66.59 48.7099 66.51 48.5799 66.35C46.6458 66.5095 44.6992 66.2887 42.8499 65.7C42.6099 67.31 42.5599 68.85 42.2999 70.32C42.0399 71.79 42.2999 73.24 41.8199 74.68C41.5399 75.59 41.7499 76.68 41.4399 77.62C41.1299 78.56 40.9799 79.41 40.7199 80.3C40.7106 80.3799 40.6762 80.4549 40.6216 80.514C40.5669 80.5731 40.495 80.6133 40.416 80.6289C40.337 80.6445 40.2551 80.6346 40.1822 80.6006C40.1092 80.5667 40.0489 80.5104 40.0099 80.44C39.1752 79.5732 38.6604 78.4482 38.5499 77.25C38.4882 76.6845 38.3913 76.1234 38.2599 75.57C38.0299 74.18 37.8299 72.8 37.5999 71.41C37.4099 70.24 37.1599 69.07 36.9999 67.89C36.9599 67.304 36.9599 66.716 36.9999 66.13C36.9999 64.8 36.9999 63.47 36.9999 62.13C37.0309 61.5988 36.8792 61.073 36.5699 60.64C36.2606 60.207 35.8125 59.8929 35.2999 59.75C34.6199 59.54 33.8699 58.94 33.0999 59.61C31.7521 59.717 30.3961 59.5746 29.0999 59.19C28.3299 58.96 27.9999 59.19 28.0999 59.99C28.1798 60.3924 28.2833 60.7897 28.4099 61.18C28.7997 63.1314 29.0305 65.1112 29.0999 67.1C29.1739 68.7755 29.3476 70.4451 29.6199 72.1C29.7625 73.5658 29.7792 75.0412 29.6699 76.51H27.7099C27.5599 75.58 27.4199 74.51 27.2399 73.51C26.9608 71.9277 26.4872 70.386 25.8299 68.92C25.4699 68.12 24.8299 67.92 24.2399 68.55C23.6499 69.18 23.1199 69.55 22.3199 68.98C22.2199 68.91 22.0299 68.98 21.8799 68.98C21.3209 69.0834 20.7568 69.1568 20.1899 69.2C19.6135 69.1575 19.037 69.2826 18.5299 69.56C18.2052 69.7599 17.8313 69.8658 17.4499 69.8658C17.0686 69.8658 16.6947 69.7599 16.3699 69.56V71.88C15.5886 71.1895 15.0988 70.228 14.9999 69.19C14.8543 67.9032 14.6103 66.6294 14.2699 65.38C14.0299 64.28 13.7199 63.18 13.4699 62.08C13.4191 61.8786 13.4323 61.6665 13.5076 61.4729C13.5828 61.2794 13.7165 61.1141 13.8899 61C14.2299 60.74 14.1599 60.47 13.8899 60.2C13.6199 59.93 13.5399 59.77 13.3199 59.65C11.8199 58.84 11.0299 57.35 9.88993 56.19C8.74993 55.03 8.76993 54.63 9.45993 53.28C9.62993 52.95 9.95993 52.61 9.92993 52.28C9.89281 51.861 9.96551 51.4397 10.1409 51.0574C10.3162 50.6751 10.5882 50.3451 10.9299 50.1C11.0855 49.9013 11.1793 49.6614 11.1999 49.41C11.1795 49.147 11.1795 48.8829 11.1999 48.62C11.4099 47.97 12.0999 47.62 12.3799 47.07C12.6599 46.52 12.3799 45.73 12.7699 45.07C12.8591 44.8642 12.9978 44.6837 13.1736 44.5445C13.3494 44.4053 13.5569 44.3117 13.7777 44.2721C13.9984 44.2325 14.2255 44.2481 14.4388 44.3175C14.652 44.3869 14.8448 44.508 14.9999 44.67C15.8417 45.41 16.6334 46.2051 17.3699 47.05C17.7899 47.58 18.0299 47.53 18.3099 46.85C18.6609 45.6599 19.151 44.5153 19.7699 43.44C20.0741 42.9541 20.4368 42.5074 20.8499 42.11C21.2184 41.8492 21.6435 41.6796 22.0903 41.6153C22.5372 41.551 22.9929 41.5937 23.4199 41.74C23.6675 41.8406 23.8923 41.9897 24.0813 42.1786C24.2702 42.3676 24.4194 42.5924 24.5199 42.84C24.57 43.0371 24.5772 43.2427 24.541 43.4428C24.5048 43.6429 24.426 43.8329 24.3099 44C23.7188 44.9753 23.2772 46.0337 22.9999 47.14C22.8114 47.6282 22.7131 48.1466 22.7099 48.67C22.7943 49.1979 22.703 49.739 22.4499 50.21C22.4075 50.3078 22.3857 50.4133 22.3857 50.52C22.3857 50.6266 22.4075 50.7321 22.4499 50.83C22.8999 51.89 22.8199 53.06 23.1899 54.16C23.5349 55.6008 23.5554 57.1003 23.2499 58.55C23.5151 58.6077 23.7758 58.6846 24.0299 58.78C24.226 58.837 24.3979 58.9571 24.519 59.1215C24.6401 59.286 24.7037 59.4858 24.6999 59.69C24.8399 60.7026 25.0471 61.7048 25.3199 62.69C25.3414 62.8424 25.4075 62.985 25.5099 63.1C26.4599 63.81 26.2899 64.99 26.7099 65.91C26.7099 66 26.8199 66.1 26.7999 66.18C26.6599 66.78 26.5099 67.37 26.3599 67.97C26.3446 68.012 26.3446 68.058 26.3599 68.1C26.8099 68.85 27.2699 69.6 27.7699 70.41C27.9899 69.4524 27.9899 68.4575 27.7699 67.5C27.5299 66.22 27.3599 64.94 27.1899 63.65C27.1255 63.2419 27.0251 62.8403 26.8899 62.45C26.5742 61.2267 26.466 59.9591 26.5699 58.7C26.5937 58.4217 26.5549 58.1416 26.4562 57.8803C26.3576 57.619 26.2017 57.3831 25.9999 57.19C25.077 56.1918 24.5017 54.922 24.3599 53.57C24.1705 52.8854 24.1465 52.1656 24.2899 51.47C24.8099 49.39 25.6599 48.47 27.8499 48.31C27.9605 47.3331 27.8961 46.3443 27.6599 45.39C27.5068 44.9908 27.4823 44.5537 27.5899 44.14C27.931 42.4254 28.0186 40.67 27.8499 38.93C27.923 37.0356 27.799 35.1387 27.4799 33.27C27.1699 31.84 26.9199 30.22 25.3599 29.27C24.7861 28.8103 24.3672 28.1854 24.1599 27.48C24.0262 26.8773 23.7966 26.2999 23.4799 25.77C23.1199 25.31 23.8699 23.66 24.4799 23.45C24.8899 23.32 24.9199 23.14 24.9499 22.8C25.0799 21.52 25.2799 21.33 26.5599 21.17C26.451 21.4496 26.3275 21.7233 26.1899 21.99C25.7399 22.73 25.7699 23.23 26.4299 23.75C26.9362 24.1093 27.4602 24.4431 27.9999 24.75C28.1199 24.24 28.2099 23.85 28.2999 23.45C28.2999 23.33 28.3799 23.14 28.2999 23.07C27.7799 22.46 27.1799 21.84 26.5899 21.2ZM45.4899 24.38C45.4899 24.81 45.8599 24.69 46.1199 24.7L47.1199 25.81C48.2499 27.15 48.6599 28.81 49.3399 30.4C49.8499 31.56 49.8699 32.83 50.3399 33.98C50.5292 34.4645 50.6276 34.9798 50.6299 35.5C50.6473 35.855 50.684 36.2089 50.7399 36.56C51.5899 36.56 52.3299 36.56 53.0799 36.56C53.6199 36.56 54.0799 36.56 54.3599 37.17C54.6451 37.6815 55.0631 38.1065 55.5699 38.4L56.1699 35.71C57.0299 35.39 56.6599 34.87 56.4099 34.35C55.2581 32.2883 54.6942 29.95 54.7799 27.59L55.0199 27.48L54.8999 27.36L54.7999 27.6C54.7471 27.6105 54.6927 27.6105 54.6399 27.6C54.3699 27.53 53.8999 27.8 53.8899 27.31C53.8899 27.1 54.2399 26.85 54.4699 26.68C54.6999 26.51 55.0299 26.45 55.2799 26.28C55.3699 26.22 55.3599 26.01 55.3899 25.86C55.267 25.8748 55.1428 25.8748 55.0199 25.86C54.7894 25.8517 54.5652 25.7827 54.3699 25.66C54.0599 25.36 54.4899 25.27 54.6099 25.09C54.7299 24.91 54.7099 25.09 54.7499 25.03C55.4799 24.53 55.4599 24.53 55.2499 23.69C55.2051 23.4017 55.2051 23.1082 55.2499 22.82C55.3165 22.5317 55.3401 22.2352 55.3199 21.94C54.9456 20.6915 54.7635 19.3933 54.7799 18.09C54.7799 17.24 54.7799 16.39 54.7799 15.53C54.7948 15.1693 54.8451 14.8109 54.9299 14.46C55.1806 12.9177 55.8402 11.4708 56.8399 10.27C57.1399 9.90997 56.9399 9.74997 56.5499 9.61997C56.4423 9.57487 56.3267 9.55164 56.2099 9.55164C56.0932 9.55164 55.9776 9.57487 55.8699 9.61997C55.0984 9.94387 54.4135 10.4439 53.8699 11.08C53.4999 11.46 53.2899 11.83 53.6899 12.33C53.8899 12.58 53.8299 12.75 53.4899 12.91C53.1499 13.07 52.9199 13.31 52.8899 13.56C52.7599 14.56 51.9899 15.34 52.1899 16.41C52.2247 16.5281 52.231 16.6527 52.2084 16.7737C52.1858 16.8947 52.1348 17.0086 52.0597 17.1062C51.9846 17.2037 51.8875 17.2821 51.7763 17.3349C51.6651 17.3877 51.543 17.4134 51.4199 17.41C51.0199 17.46 50.8199 17.61 51.0899 18.01C51.5099 18.61 51.1499 19.01 50.7199 19.36C50.3057 19.6388 49.8711 19.8861 49.4199 20.1C49.5999 20.4 49.9399 20.71 49.9399 21.02C49.9115 21.9626 50.1286 22.8965 50.5699 23.73C50.5921 23.8481 50.5836 23.9699 50.545 24.0838C50.5065 24.1976 50.4393 24.2996 50.3499 24.38C50.0799 24.52 49.7699 24.48 49.6299 24.04C49.4099 23.34 49.0899 22.66 48.8199 21.98C48.4799 23.98 47.8199 24.68 46.1299 24.78C46.1299 24.31 45.7299 24.5 45.4799 24.46C45.4241 24.3427 45.346 24.2374 45.2499 24.15C45.2499 24.15 45.0699 24.15 44.9799 24.22C45.05 24.3006 45.1307 24.3713 45.2199 24.43C45.3118 24.4258 45.4027 24.409 45.4899 24.38ZM12.1799 57.38L12.0799 57.14L11.9799 57.25L12.2099 57.35C12.3599 57.82 12.6299 58.1 13.1599 58L13.4899 58.31C13.7399 58.54 14.0099 58.75 14.2499 58.99C14.8999 59.65 15.6399 58.48 16.3199 59.15L15.1999 60C15.3299 61.33 16.7199 60.26 17.0999 61.15C17.225 61.0815 17.3452 61.0046 17.4599 60.92C17.6999 60.69 17.9299 60.46 18.2699 60.74C18.7699 61.16 19.2199 60.86 19.5499 60.56C19.9522 60.1829 20.4564 59.9325 20.9999 59.84C21.9299 59.65 22.1299 59.26 22.1399 58.24C22.1499 57.22 22.1399 56.24 22.1399 55.24C22.1597 54.9239 22.1294 54.6066 22.0499 54.3C21.3857 52.7224 21.1778 50.9899 21.4499 49.3C21.5794 48.4327 21.7631 47.5743 21.9999 46.73C22.3234 45.5903 22.8012 44.5002 23.4199 43.49C23.6999 43.07 23.5399 42.71 23.0799 42.63C21.8999 42.41 21.2299 42.8 20.5099 43.96C20.1899 44.45 20.1599 44.78 20.6199 45.16C20.7399 45.25 20.7299 45.51 20.7799 45.69C20.5899 45.69 20.3699 45.75 20.2299 45.69C19.8699 45.49 19.6599 45.5 19.5699 45.95C19.4799 46.4 19.3499 46.85 19.2499 47.3C19.1099 47.93 18.6099 48.17 18.1399 48.52C17.6699 48.87 18.2599 49.79 17.5999 50.23C17.3604 50.3904 17.1749 50.6194 17.0678 50.8871C16.9607 51.1548 16.9371 51.4486 16.9999 51.73C17.0434 51.9109 17.0355 52.1003 16.9772 52.2769C16.9189 52.4536 16.8125 52.6105 16.6699 52.73C16.1499 53.13 16.3299 53.73 16.3899 54.21C16.4926 54.6589 16.6683 55.0879 16.9099 55.48C17.0399 55.73 17.4799 55.95 16.9999 56.18C16.8099 56.27 16.4499 56.11 16.2199 55.98C15.9899 55.85 16.0399 55.6 15.8899 55.46C15.7399 55.32 15.5799 55.34 15.4199 55.28C15.3501 55.4375 15.2965 55.6016 15.2599 55.77C15.1199 56.62 15.0099 57.48 13.8099 57.52C14.2199 57.64 14.5799 57.68 14.9299 57.75C14.9899 57.75 15.0499 57.92 15.0399 58C15.0299 58.08 14.9599 58.25 14.8999 58.25C14.4299 58.25 13.8999 58.3 13.4799 58.32L13.1499 58C13.2399 57.15 12.6399 57.38 12.1799 57.37V57.38ZM31.4099 21.18L31.5099 21.43L31.6299 21.31L31.3799 21.21C31.4399 20.28 31.4399 20.28 32.3799 20.21C32.4332 20.4447 32.5034 20.6753 32.5899 20.9C32.5899 20.99 32.8099 21.02 32.9299 21.08C32.9299 20.94 32.9899 20.75 32.9299 20.67C32.7599 20.5045 32.5759 20.3539 32.3799 20.22C32.0599 19.7 31.7199 19.22 31.4499 18.64C31.0799 17.92 30.3599 17.71 29.7399 17.36C29.6655 17.3402 29.5874 17.3389 29.5125 17.3563C29.4375 17.3738 29.3679 17.4094 29.3099 17.46C29.2818 17.5229 29.2673 17.591 29.2673 17.66C29.2673 17.7289 29.2818 17.7971 29.3099 17.86C29.7073 19.1314 30.4314 20.2762 31.4099 21.18ZM73.9999 45.85C73.4972 45.5527 72.9079 45.4363 72.3299 45.52C70.1299 45.52 67.9999 44.95 65.8199 44.81C65.7299 44.81 65.6399 44.63 65.5599 44.64C65.4799 44.65 65.1499 44.7 65.0699 44.82C64.8706 45.0599 64.7424 45.3509 64.6999 45.66C64.6999 46.66 64.6999 47.57 64.6999 48.53C64.6909 48.7165 64.7482 48.9002 64.8617 49.0485C64.9752 49.1967 65.1375 49.3 65.3199 49.34C66.1099 49.58 66.9099 49.76 67.6999 50C69.0099 50.39 70.4799 50.3 71.6299 51.24C71.7599 51.35 72.0399 51.24 72.2499 51.24C72.4599 51.24 72.9699 51.31 73.3299 51.38C73.9899 51.53 74.3899 51.31 74.3299 50.66C74.1699 49.73 74.4799 48.84 74.3299 47.93C74.2299 47.21 74.0999 46.5 73.9899 45.78L74.2299 45.68L74.1199 45.57L73.9999 45.85ZM37.4899 16.41C37.2391 16.4471 36.9959 16.5248 36.7699 16.64C36.0238 17.3008 35.4825 18.1613 35.2099 19.12C35.0871 19.613 34.8311 20.0627 34.4699 20.42C34.3 20.5238 34.1612 20.6714 34.0679 20.8474C33.9747 21.0233 33.9305 21.2211 33.9399 21.42C33.8599 22.2 33.7299 23 32.6999 23.13C32.5799 23.13 32.4499 23.28 32.3699 23.39C31.0573 24.9328 30.0708 26.7255 29.4699 28.66C29.429 28.8612 29.3618 29.0563 29.2699 29.24C29.1299 29.5 28.8399 29.47 28.6899 29.17C28.6299 29.04 28.5199 28.83 28.5799 28.75C28.8499 28.37 28.7999 28.19 28.3099 28.24C27.3678 28.3409 26.4193 28.1188 25.6199 27.61C25.5399 27.56 25.4099 27.61 25.3099 27.61L25.1999 27.35L25.0599 27.48L25.3199 27.59C25.5881 27.969 25.8929 28.3207 26.2299 28.64C27.0491 29.2726 27.6419 30.153 27.9199 31.15C28.4274 32.9456 28.7194 34.7953 28.7899 36.66C28.9299 39.11 28.7899 41.56 28.7899 44.01C28.7899 45.72 28.7899 47.42 28.7899 49.12C28.7718 49.2601 28.7819 49.4024 28.8196 49.5386C28.8573 49.6748 28.9218 49.802 29.0094 49.9129C29.097 50.0237 29.2058 50.116 29.3296 50.1842C29.4533 50.2524 29.5894 50.2951 29.7299 50.31C29.8896 50.3251 30.0503 50.3251 30.2099 50.31C31.8958 50.4521 33.5933 50.2687 35.2099 49.77C35.2218 49.3542 35.1882 48.9384 35.1099 48.53C34.4399 46.42 34.5299 44.2 34.2399 42.04C34.0899 40.96 34.4399 39.82 33.9399 38.76C33.8955 38.6609 33.8725 38.5535 33.8725 38.445C33.8725 38.3364 33.8955 38.229 33.9399 38.13C34.3799 37.39 34.1499 36.58 34.2199 35.8C34.2199 35.44 34.2899 35.07 34.3299 34.71C34.3699 34.35 34.4899 33.71 34.5399 33.17C34.5899 32.63 34.4399 32.75 34.0899 32.92C33.9199 33 33.6199 32.82 33.3899 32.72C33.2483 32.6283 33.1175 32.521 32.9999 32.4C33.1499 32.29 33.2799 32.12 33.4399 32.1C33.7727 32.0729 34.1071 32.0729 34.4399 32.1C34.8799 32.1 34.9599 31.82 34.9299 31.47C34.8965 31.2456 34.9162 31.0166 34.9874 30.8012C35.0586 30.5858 35.1794 30.3902 35.3399 30.23C35.5399 30.02 35.6999 29.7 35.3399 29.59C34.7199 29.37 35.0699 29.11 35.3399 29.01C35.8099 28.8 36.0799 28.62 35.6599 28.12C35.5999 28.05 35.5399 27.88 35.5799 27.83C36.1999 26.97 35.6799 26.13 35.5799 25.28C35.5091 24.9504 35.5091 24.6095 35.5799 24.28C36.0999 22.56 36.3199 20.74 37.3099 19.17C37.4048 19.0235 37.4657 18.8577 37.4882 18.6847C37.5107 18.5117 37.4942 18.3358 37.4399 18.17C36.9599 17.53 37.5299 16.98 37.4399 16.4L37.6799 16.3L37.5699 16.19L37.4899 16.41ZM44.3199 57.85C44.0261 58.0327 43.7103 58.1772 43.3799 58.28C43.1053 58.2716 42.8343 58.214 42.5799 58.11C42.5799 59.19 42.5799 60.11 42.5799 61.11C42.5079 62.0397 42.528 62.9742 42.6399 63.9C43.5679 64.0572 44.4861 64.2675 45.3899 64.53C46.093 64.7488 46.8411 64.7798 47.5599 64.62C47.8205 64.5955 48.061 64.4698 48.2299 64.27C48.3199 64.12 48.0999 63.82 48.0899 63.58C47.9841 63.1734 47.9841 62.7465 48.0899 62.34C48.2951 61.7948 48.3704 61.2093 48.3099 60.63C48.3099 59.78 48.3099 58.93 48.3099 58.08C48.3185 57.7706 48.4273 57.4723 48.6199 57.23C49.155 56.5724 49.7736 55.9875 50.4599 55.49C50.9348 55.1341 51.2849 54.637 51.4599 54.07L50.4599 54.37C50.1284 54.4727 49.779 54.5045 49.4344 54.4631C49.0897 54.4218 48.7577 54.3083 48.4599 54.13C47.9499 53.88 47.9199 53.42 47.9099 52.92C47.9099 52.8 47.6599 52.69 47.5299 52.58C47.4499 52.69 47.2999 52.81 47.2999 52.92C47.2999 53.66 47.2999 54.38 46.2999 54.74C46.3899 54.26 46.4599 53.86 46.5299 53.47C46.7499 52.26 46.8899 51.09 45.9599 50.05C45.5599 49.6 45.1799 49.05 45.6999 48.41C45.6099 48.34 45.4899 48.21 45.4499 48.23C44.6499 48.62 44.2499 47.95 44.1799 47.49C44.0562 46.9816 43.7636 46.5303 43.3499 46.21C42.4599 45.29 42.5299 45.21 41.7499 43.42C41.632 43.0732 41.4455 42.7538 41.2015 42.4806C40.9576 42.2075 40.6612 41.9862 40.3299 41.83C39.6299 41.55 39.2399 41.92 38.7499 42.11C39.2699 43.18 40.2299 43.94 40.6299 45.11C41.2002 46.7824 41.5072 48.5333 41.5399 50.3C41.5399 51.95 41.5399 53.6 41.5399 55.3C41.5399 56.13 41.7199 56.97 42.8699 57.11C43.3999 57.14 43.7799 57.53 44.3199 57.85ZM64.5099 40C65.6399 41.46 67.0899 42.38 66.9399 44.32C68.7799 44.41 70.5099 44.49 72.2299 44.59C72.4638 44.6221 72.7016 44.5705 72.9011 44.4442C73.1006 44.318 73.2489 44.1252 73.3199 43.9C73.6199 43.02 73.9699 42.16 74.3199 41.27C74.7099 40.09 74.7999 38.83 75.1099 37.64C75.6162 35.3265 76.7957 33.2145 78.4999 31.57C79.0904 31.0178 79.5396 30.3319 79.8099 29.57C79.5025 29.5729 79.1952 29.5562 78.8899 29.52C78.318 29.2989 77.6841 29.2994 77.1125 29.5214C76.5409 29.7434 76.0728 30.1708 75.7999 30.72C75.6199 30.98 75.4299 31.23 75.2599 31.49C74.7499 32.27 74.2599 32.97 73.0799 32.73C73.0799 33.06 73.0799 33.26 73.0799 33.46C72.9899 34.51 72.7899 34.75 71.6799 34.96C71.3799 35.02 71.2499 35.08 71.1299 35.38C70.8321 35.9298 70.6132 36.519 70.4799 37.13C70.3899 38.04 70.0599 38.93 69.8899 39.83C69.8199 40.2 69.7599 40.44 69.3299 40.41C68.8999 40.38 68.9499 40.01 68.9399 39.71C68.9299 39.41 68.9399 39.28 68.9399 39.07C68.9399 38.86 68.3099 38.71 68.1399 38.9C68.0853 38.9821 68.0384 39.0692 67.9999 39.16C67.3899 40.43 67.2599 40.52 65.9999 40.39C65.4929 40.3034 64.9944 40.1729 64.5099 40ZM36.6999 50.07C36.5625 50.3113 36.3708 50.5174 36.1399 50.6719C35.9091 50.8264 35.6455 50.925 35.3699 50.96C34.4999 51.12 33.5799 51.14 32.7499 51.34C31.3204 51.6824 29.8276 51.6583 28.4099 51.27C27.5799 51.05 27.4999 50.91 27.7599 49.95C27.7599 49.78 27.7599 49.47 27.6999 49.41C27.6086 49.3634 27.5075 49.3392 27.4049 49.3392C27.3024 49.3392 27.2013 49.3634 27.1099 49.41C26.5899 49.87 25.9199 50.3 25.6999 50.89C25.4799 51.48 24.8899 52.35 25.6099 53.11C25.4699 53.9 25.9999 54.49 26.2499 55.17C26.6699 56.27 27.2499 57.11 28.6099 57.07C28.8096 57.112 29.0041 57.1757 29.1899 57.26C30.2381 57.6003 31.339 57.7494 32.4399 57.7C33.373 57.6361 34.3014 57.5159 35.2199 57.34C35.8209 57.2182 36.3634 56.8976 36.7599 56.43C37.1335 55.7489 37.3712 55.0017 37.4599 54.23C37.6299 53.23 37.2599 52.87 36.2699 52.89C35.955 52.9001 35.6411 52.9302 35.3299 52.98C34.7099 53.06 34.0999 53.17 33.4699 53.21C33.3399 53.21 33.1799 53.01 33.0399 52.91C33.1299 52.8 33.2099 52.64 33.3199 52.6C34.0997 52.3389 34.8944 52.1252 35.6999 51.96C37.2199 51.69 37.3499 51.49 36.6999 50.07ZM49.0099 45.07C49.0099 44.39 48.4199 44.17 48.0799 43.79C48.0163 43.7209 47.9389 43.6657 47.8529 43.628C47.7668 43.5903 47.6739 43.5708 47.5799 43.5708C47.486 43.5708 47.393 43.5903 47.307 43.628C47.2209 43.6657 47.1436 43.7209 47.0799 43.79C46.1182 44.6074 45.3555 45.6334 44.8499 46.79C44.7799 46.94 44.8499 47.33 44.9499 47.36C45.4099 47.51 46.0599 47.83 46.3499 47.64C47.2421 46.9905 48.0845 46.2752 48.8699 45.5C48.9999 45.37 48.9999 45.18 48.9999 45.08L49.0099 45.07ZM15.6799 62.15C15.5799 62.22 15.3799 62.28 15.3399 62.39C15.1771 62.6982 15.0913 63.0413 15.0899 63.39C15.3599 64.74 15.6899 66.09 16.0399 67.39C16.1372 67.6832 16.3055 67.9477 16.5299 68.16C17.0799 68.73 17.2799 68.57 17.6999 67.83C17.8147 67.6354 17.8701 67.4116 17.8594 67.186C17.8488 66.9604 17.7725 66.7428 17.6399 66.56C17.1714 65.7018 16.8343 64.7782 16.6399 63.82C16.4967 63.2929 16.2813 62.7881 15.9999 62.32C15.9999 62.24 15.8099 62.22 15.6799 62.15ZM18.2399 62.15L17.6899 62.33C17.8899 62.54 17.8399 62.72 17.6899 62.99C17.5399 63.26 17.7899 63.49 17.9299 63.69C18.2997 64.3095 18.5665 64.985 18.7199 65.69C18.9831 66.5969 19.5519 67.3848 20.3299 67.92C20.4058 67.9688 20.4931 67.997 20.5832 68.0019C20.6733 68.0068 20.7631 67.9881 20.8438 67.9478C20.9245 67.9074 20.9933 67.8467 21.0435 67.7717C21.0937 67.6967 21.1235 67.61 21.1299 67.52C21.1299 67.32 21.1999 67.03 21.1299 66.91C20.1899 65.8 20.1299 64.34 19.5999 63.08C19.2199 62.21 19.2699 62.18 18.2399 62.14V62.15ZM47.5699 49.68C47.9808 49.5019 48.3785 49.2947 48.7599 49.06C49.1499 48.81 49.4399 48.4 49.8199 48.12C50.7299 47.45 50.8199 47.19 50.2999 46.27C50.0399 45.79 49.7199 45.67 49.3499 45.97C48.5399 46.64 47.7599 47.32 46.9799 47.97C46.7707 48.133 46.5971 48.3372 46.4699 48.57C46.1599 49.23 46.4999 49.7 47.5699 49.68ZM23.4099 67.1C23.4153 67.0602 23.4153 67.0198 23.4099 66.98C22.9999 65.2 22.2999 63.47 21.9999 61.64C21.8999 61.03 20.9999 60.87 20.3699 61.27C20.2799 61.33 20.1899 61.59 20.2399 61.66C20.4699 62.03 20.7599 62.38 21.0299 62.73C20.4799 63.24 21.1299 63.58 21.2499 63.96C21.5521 64.7401 21.7798 65.547 21.9299 66.37C22.0416 66.8538 22.2307 67.3164 22.4899 67.74C22.5647 67.804 22.6532 67.85 22.7486 67.8743C22.844 67.8986 22.9437 67.9005 23.0399 67.88C23.1899 67.88 23.2899 67.62 23.3799 67.45C23.4699 67.28 23.3999 67.25 23.4099 67.1ZM51.8799 49.45C51.8799 48.39 51.3899 48.04 50.6299 48.55C49.6299 49.26 48.6299 50.05 47.6299 50.86C47.5564 50.9386 47.5053 51.0357 47.4822 51.1409C47.459 51.2461 47.4646 51.3556 47.4984 51.4578C47.5321 51.5601 47.5928 51.6514 47.674 51.7222C47.7552 51.793 47.854 51.8405 47.9599 51.86C48.1655 51.8998 48.3771 51.8973 48.5817 51.8526C48.7863 51.8079 48.9797 51.722 49.1499 51.6C49.7321 51.2494 50.3529 50.9675 50.9999 50.76C51.6499 50.5 52.0599 50.12 51.8799 49.45ZM46.2399 15.18C45.1799 16.28 45.2399 16.85 46.2399 17.62C46.5491 17.889 46.8841 18.1268 47.2399 18.33C47.8391 18.5987 48.4663 18.7999 49.1099 18.93C49.3399 18.93 49.6799 18.69 49.8499 18.47C50.0199 18.25 49.7399 17.99 49.5799 17.83C49.1299 17.41 48.5799 17.02 48.1399 16.64C47.6999 16.26 46.9299 15.7 46.2399 15.18ZM68.3199 30.89C68.1299 31.04 67.8999 31.23 67.6499 31.4C66.7699 32 66.6499 32.23 67.1699 33.16C67.6472 34.0967 68.3967 34.8671 69.3199 35.37C69.7799 35.62 69.9299 35.37 70.0199 35.11C70.1305 34.753 70.1527 34.3745 70.0848 34.0069C70.0169 33.6394 69.8608 33.2939 69.6299 33L68.3199 30.89ZM11.9999 49.05C12.1359 49.4525 12.317 49.8383 12.5399 50.2C13.2538 51.0278 14.137 51.6927 15.1299 52.15C15.2403 52.2046 15.3618 52.2331 15.4849 52.2331C15.6081 52.2331 15.7296 52.2046 15.8399 52.15C15.9122 52.0519 15.9575 51.9366 15.9716 51.8156C15.9856 51.6946 15.9678 51.572 15.9199 51.46C15.2857 50.3096 14.4371 49.2912 13.4199 48.46C13.2199 48.28 12.7799 48.13 12.6099 48.23C12.4399 48.33 12.2599 48.71 11.9999 49.05ZM10.3999 53.23C9.74993 54.67 9.82993 55.23 10.9599 55.89C11.6361 56.2481 12.3601 56.5074 13.1099 56.66C13.2619 56.6774 13.4158 56.6571 13.5581 56.6008C13.7003 56.5445 13.8265 56.454 13.9254 56.3373C14.0243 56.2206 14.0929 56.0813 14.125 55.9318C14.1572 55.7822 14.152 55.627 14.1099 55.48C14.0283 55.3276 13.9159 55.1939 13.7799 55.0872C13.644 54.9804 13.4873 54.9031 13.3199 54.86C12.5542 54.7126 11.8544 54.3277 11.3199 53.76C11.0317 53.5531 10.7235 53.3755 10.3999 53.23ZM13.7599 45.15C13.6401 45.5264 13.5465 45.9106 13.4799 46.3C13.432 46.5531 13.4745 46.815 13.5999 47.04C14.3516 48.0912 15.3244 48.965 16.4499 49.6C16.8199 49.76 17.0499 49.6 16.9999 49.17C16.9205 48.5747 16.7208 48.0018 16.4131 47.4861C16.1054 46.9704 15.6961 46.5226 15.2099 46.17C14.7999 45.86 14.3699 45.58 13.7599 45.15ZM11.4399 50.61C11.2799 50.82 10.9699 51.05 10.9499 51.3C10.9299 51.55 10.4299 52.08 11.0099 52.53C12.059 53.369 13.2565 54.0033 14.5399 54.4C14.6057 54.4304 14.6774 54.4462 14.7499 54.4462C14.8225 54.4462 14.8941 54.4304 14.9599 54.4C14.995 54.3392 15.0135 54.2702 15.0135 54.2C15.0135 54.1298 14.995 54.0608 14.9599 54C14.746 53.5795 14.4769 53.1894 14.1599 52.84C13.3999 52.12 12.5799 51.45 11.7799 50.78C11.7399 50.68 11.6299 50.68 11.4399 50.61ZM68.1199 37.75C68.2741 37.3029 68.2868 36.8192 68.1562 36.3647C68.0255 35.9101 67.758 35.5069 67.3899 35.21C67.0319 34.8435 66.7165 34.4375 66.4499 34C66.3099 33.82 66.1099 33.46 66.0699 33.48C65.7851 33.571 65.532 33.7409 65.3399 33.97C65.154 34.1851 65.0443 34.4557 65.028 34.7397C65.0118 35.0236 65.0898 35.305 65.2499 35.54C65.9236 36.5851 66.9374 37.3657 68.1199 37.75ZM43.9999 20.42C43.9999 20.84 43.9499 21.09 43.9099 21.33C43.8283 21.6335 43.867 21.9568 44.0179 22.2326C44.1688 22.5083 44.4203 22.7151 44.7199 22.81C45.2966 23.0127 45.8553 23.2636 46.3899 23.56C46.456 23.6243 46.5366 23.6716 46.6249 23.6979C46.7133 23.7243 46.8066 23.7288 46.8971 23.7111C46.9876 23.6934 47.0724 23.654 47.1443 23.5963C47.2162 23.5387 47.273 23.4644 47.3099 23.38C47.5199 23.03 47.8399 22.66 47.3099 22.2C46.3699 21.32 45.1099 21.15 43.9999 20.42ZM47.1999 12.69C47.2899 13.36 46.4499 13.63 47.0099 14.22C48.007 15.13 49.1539 15.8608 50.3999 16.38C50.5099 16.43 50.7699 16.38 50.8199 16.3C50.8783 16.2204 50.9191 16.1293 50.9398 16.0328C50.9605 15.9363 50.9605 15.8365 50.9399 15.74C50.7962 15.4611 50.5991 15.2131 50.3599 15.01C49.8099 14.53 49.2499 14.07 48.6699 13.63C48.2199 13.33 47.7699 13.08 47.1499 12.69H47.1999ZM23.4099 59.78C23.0973 59.909 22.8096 60.0918 22.5599 60.32C22.5277 60.4289 22.5246 60.5444 22.5509 60.655C22.5772 60.7655 22.632 60.8672 22.7099 60.95C23.5699 61.45 22.9899 62.59 23.7099 63.13C23.7261 63.1821 23.7261 63.2379 23.7099 63.29C23.4399 64.67 24.5399 65.7 24.7099 66.98C24.7099 67.34 25.0499 67.33 25.2899 67.13C25.5299 66.93 25.7699 66.68 25.4999 66.33C25.2299 65.98 25.0599 65.93 25.0299 65.71C24.7899 63.87 23.7399 62.23 23.6999 60.33C23.6999 60.17 23.5399 60 23.4099 59.78ZM25.0699 23.78C24.9499 23.96 24.7799 24.16 24.6599 24.38C24.2099 25.29 24.3099 25.7 25.1199 26.21C25.5505 26.3867 25.9598 26.6114 26.3399 26.88C26.9999 27.54 27.1599 26.46 27.6299 26.58C27.6266 26.3156 27.5862 26.0531 27.5099 25.8C27.3694 25.5762 27.1858 25.3824 26.9699 25.23C26.3599 24.78 25.7299 24.32 25.0699 23.82V23.78ZM64.1999 35.62C63.4099 36.23 63.7299 36.98 63.7299 37.62C63.7903 37.9772 63.9831 38.2986 64.2699 38.52C64.4895 38.744 64.7587 38.9132 65.0557 39.0139C65.3528 39.1147 65.6694 39.1442 65.9799 39.1C66.3254 39.0078 66.6605 38.8805 66.9799 38.72C65.9999 37.57 64.8299 36.86 64.1999 35.62ZM71.7099 34.11C71.7099 33.26 71.7099 32.64 71.7099 32.02C71.7001 31.5803 71.5771 31.1506 71.3529 30.7723C71.1287 30.3939 70.8108 30.0797 70.4299 29.86C70.1299 29.64 69.7099 29.26 69.3099 29.58C68.9099 29.9 69.2199 30.32 69.4299 30.67C69.6399 31.02 69.8999 31.58 70.1799 32C70.6199 32.64 71.0899 33.26 71.7099 34.11ZM49.9399 53.54C50.8882 53.5065 51.7871 53.1089 52.4499 52.43C52.6884 52.1513 52.8196 51.7967 52.8199 51.43C52.826 51.3433 52.8079 51.2566 52.7677 51.1796C52.7274 51.1026 52.6667 51.0383 52.5921 50.9937C52.5175 50.9492 52.432 50.9262 52.3451 50.9273C52.2582 50.9284 52.1734 50.9535 52.0999 51C51.2799 51.45 50.4699 51.92 49.6799 52.42C49.4161 52.5987 49.1887 52.8261 49.0099 53.09C49.0099 53.16 49.0699 53.45 49.1599 53.48C49.4173 53.5254 49.6786 53.5455 49.9399 53.54ZM45.3099 18.08C45.1055 18.152 44.9081 18.2424 44.7199 18.35C44.1499 18.8 44.1799 19.3 44.8099 19.6C45.6299 20 46.4999 20.32 47.3299 20.72C47.6899 20.89 48.0899 21.05 48.3299 20.72C48.4099 20.57 48.0599 20.08 47.7999 19.88C47.0899 19.29 46.3099 18.78 45.5599 18.24C45.4856 18.1737 45.4012 18.1197 45.3099 18.08ZM29.1999 22.61C29.5599 22.03 29.9899 21.61 29.9699 21.27C29.9499 20.93 29.4799 20.5 29.2399 20.1C28.9999 19.7 28.8099 19.32 28.5799 18.89C28.4123 18.9885 28.2519 19.0988 28.0999 19.22C27.3299 20 27.3299 20.42 28.0399 21.22C28.4399 21.66 28.7999 22.12 29.1999 22.61ZM29.4199 24.18L28.9999 23.8C28.9999 23.89 28.8699 24.02 28.8999 24.06C29.0105 24.1816 29.1386 24.286 29.2799 24.37C29.2799 24.37 29.3399 24.26 29.4199 24.18ZM41.3599 62.82C41.3599 63.01 41.3599 63.15 41.3599 63.28C41.3599 63.41 41.4199 63.36 41.4599 63.4C41.5155 63.2665 41.5623 63.1296 41.5999 62.99C41.5999 62.99 41.4899 62.91 41.3599 62.82ZM30.6899 22.3C30.6899 22.3 30.6299 22.21 30.5999 22.21C30.5699 22.21 30.5299 22.26 30.4999 22.29L30.6399 22.39L30.6899 22.3ZM49.8999 63.57L49.7899 63.45L49.6799 63.57L49.8399 63.69L49.8999 63.57ZM17.7999 64.45L17.6899 64.55H17.8999L17.7999 64.45ZM28.6799 24.76L28.5699 24.86H28.7799L28.6799 24.76ZM69.5799 36.64C69.5799 36.64 69.5799 36.71 69.5799 36.73C69.5799 36.75 69.5799 36.8 69.6599 36.83L69.7199 36.64H69.5799Z" fill="white"/>
<path d="M53.14 25.74C52.47 26.8 51.41 26.95 50.43 27.24C50 27.37 49.49 27.17 49.1 27.56C49.1 27.56 48.75 27.49 48.73 27.4C48.6805 27.2031 48.6805 26.9969 48.73 26.8C48.73 26.74 48.88 26.68 48.97 26.66C50.1207 26.4267 51.2484 26.0921 52.34 25.66C52.55 25.61 52.85 25.72 53.14 25.74Z" fill="white"/>
<path d="M32.4997 55.76C30.9797 55.39 29.2697 55.42 27.8497 54.43C27.7688 54.3469 27.7058 54.2482 27.6646 54.1398C27.6233 54.0315 27.6046 53.9158 27.6097 53.8C27.6097 53.71 27.8997 53.56 28.0797 53.54C28.2857 53.5135 28.4951 53.5375 28.6897 53.61C30.9438 54.4699 33.4356 54.4699 35.6897 53.61C35.7562 53.5864 35.8274 53.5796 35.8972 53.59C35.967 53.6005 36.0331 53.628 36.0897 53.67C36.1347 53.7309 36.1654 53.8013 36.1792 53.8758C36.1931 53.9503 36.1898 54.027 36.1697 54.1C36.0786 54.4024 35.9066 54.674 35.6721 54.8856C35.4377 55.0971 35.1498 55.2404 34.8397 55.3C34.1097 55.5 33.3297 55.6 32.4997 55.76Z" fill="white"/>
<path d="M66.7898 47.65C66.5688 47.9086 66.3244 48.1463 66.0598 48.36C65.8298 48.51 64.9898 47.81 65.0598 47.55C65.1298 47.29 65.1598 46.81 65.6998 46.78C65.8299 46.7554 65.9638 46.7593 66.0923 46.7912C66.2208 46.8231 66.3409 46.8824 66.4443 46.965C66.5478 47.0476 66.6323 47.1516 66.6919 47.2698C66.7515 47.388 66.7849 47.5177 66.7898 47.65Z" fill="white"/>
</svg>
