<svg width="90" height="90" viewBox="0 0 90 90" fill="none" xmlns="http://www.w3.org/2000/svg">
<path d="M45.4199 11.77C45.0999 12.09 44.7899 12.42 44.4199 12.77C44.1196 13.1055 43.8641 13.4786 43.6599 13.88C43.4099 14.26 43.3699 14.75 43.0099 15.07C42.8082 15.2447 42.6498 15.4639 42.5474 15.7104C42.445 15.9568 42.4014 16.2237 42.4199 16.49C42.1808 16.8518 42.0364 17.2678 41.9999 17.7C41.9001 18.1376 41.7167 18.5518 41.4599 18.92C41.2348 19.2353 41.1125 19.6125 41.1099 20C41.1099 20.76 41.1099 21.53 41.1099 22.29C41.1099 22.52 41.1099 22.8 41.0299 22.96C40.5099 23.65 40.7199 24.43 40.6999 25.17C40.6999 26.24 40.6999 27.31 40.6999 28.39C40.6919 28.6925 40.7793 28.9899 40.9499 29.24C41.0378 29.3634 41.0897 29.5088 41.0999 29.66C41.0999 30.27 41.1599 30.88 41.1599 31.49C41.1741 31.868 41.2842 32.2362 41.4799 32.56C41.7099 33.02 41.5499 33.63 41.9899 34.03C42.0829 34.7782 42.3575 35.4923 42.7899 36.11C42.916 36.3425 42.991 36.5993 43.01 36.8631C43.029 37.1269 42.9914 37.3918 42.8999 37.64C42.8673 37.6988 42.8188 37.7473 42.7599 37.78C42.3999 37.49 41.8999 37.47 41.5699 37.13L40.7499 36.33C40.6199 36.2 40.4599 36.12 40.3799 36.21C40.0099 36.56 39.5099 36.43 39.0999 36.6C38.6899 36.77 38.5699 36.89 38.2999 37.02C37.7291 37.2699 37.2676 37.7173 36.9999 38.28C36.7299 38.8302 36.3194 39.2993 35.8099 39.64C35.7299 39.71 35.5299 39.64 35.3899 39.64C35.3526 39.6278 35.3186 39.6069 35.2908 39.5791C35.263 39.5513 35.2421 39.5173 35.2299 39.48C35.1349 38.7999 35.1349 38.11 35.2299 37.43C35.2533 37.2811 35.3193 37.1421 35.4199 37.03C35.6799 36.7 35.5999 36.3 35.6999 35.94C35.7999 35.58 36.1499 35.32 36.1199 34.94C36.1212 34.6334 36.2351 34.338 36.4399 34.11C36.6799 33.78 36.4399 33.34 36.7199 33.03L37.4499 32.14C37.4499 32.08 37.4499 31.98 37.4499 31.92C37.543 31.7074 37.6803 31.5172 37.8527 31.362C38.0252 31.2068 38.2288 31.0902 38.4499 31.02C38.6625 30.9371 38.8514 30.8031 38.9999 30.63C39.0928 30.5637 39.1691 30.4769 39.2229 30.3763C39.2767 30.2757 39.3065 30.164 39.3099 30.05C39.3099 27.83 39.3099 25.6133 39.3099 23.4C39.2036 22.7927 39.3208 22.1674 39.6399 21.64C39.7599 21.49 39.7299 21.21 39.7399 20.98C39.7399 20.37 39.7399 19.76 39.7999 19.15C39.8049 19.0008 39.8575 18.8571 39.9499 18.74C40.3299 18.38 40.1299 17.85 40.3499 17.45C40.5699 17.05 40.7799 16.66 40.9899 16.26C41.1999 15.86 41.4099 15.46 41.5699 15.04C41.8699 14.27 42.3599 13.59 42.6599 12.82C43.1899 12.27 43.7099 11.71 44.2499 11.17C44.4599 10.95 44.6899 10.75 44.9199 10.54C45.0089 10.4716 45.1157 10.4305 45.2275 10.4216C45.3393 10.4127 45.4513 10.4365 45.5499 10.49C46.3099 11.24 47.0699 11.99 47.8199 12.76C47.9231 12.8693 47.9865 13.0102 47.9999 13.16C48.0599 14.16 48.8099 14.77 48.9999 15.65C49.1472 15.8247 49.2583 16.027 49.327 16.2449C49.3957 16.4629 49.4204 16.6923 49.3999 16.92C49.3633 17.184 49.3798 17.4528 49.4485 17.7104C49.5171 17.968 49.6366 18.2092 49.7999 18.42C49.7999 18.73 49.8499 19.03 49.8699 19.33C49.873 19.5567 49.9388 19.7782 50.0599 19.97C50.2144 20.1395 50.3 20.3606 50.2999 20.59C50.2748 20.8193 50.2748 21.0506 50.2999 21.28C50.4399 22.17 50.0499 23.13 50.6799 23.95V26.22C50.3457 26.7342 50.2138 27.3542 50.3099 27.96C50.3099 28.57 50.3099 29.19 50.3099 29.8C50.2947 29.9504 50.3137 30.1024 50.3657 30.2444C50.4177 30.3865 50.5012 30.5149 50.6099 30.62C51.1599 31.16 51.6999 31.7 52.2299 32.25C52.4999 32.52 52.7499 32.82 52.9999 33.1C52.9999 33.58 53.4399 33.87 53.5799 34.32C53.7199 34.77 54.0899 35.24 54.0099 35.81C53.9686 36.0748 53.9838 36.3453 54.0544 36.6038C54.1251 36.8623 54.2497 37.103 54.4199 37.31C54.4834 37.7201 54.461 38.1389 54.3543 38.54C54.2476 38.941 54.0588 39.3156 53.7999 39.64C53.7999 39.64 53.6699 39.7 53.5999 39.71C53.5299 39.72 53.4199 39.76 53.3799 39.71C53.0899 39.47 52.8299 39.19 52.5299 38.96C52.2299 38.73 52.2399 37.86 51.5299 37.86C51.1598 37.4749 50.762 37.1173 50.3399 36.79C49.9239 36.4695 49.4425 36.2442 48.9299 36.13C48.8536 36.1177 48.7753 36.1318 48.708 36.1699C48.6408 36.2081 48.5885 36.2681 48.5599 36.34C48.5335 36.4854 48.5335 36.6345 48.5599 36.78C48.7999 37.16 49.2799 37.38 49.3799 37.85C49.5047 38.2099 49.7219 38.5306 50.0099 38.78C50.2162 39.0064 50.3273 39.3037 50.3199 39.61C50.3199 39.95 50.5699 40.16 50.6599 40.44C50.753 40.6504 50.7809 40.8839 50.7399 41.1103C50.6989 41.3367 50.5909 41.5456 50.4299 41.71C50.1599 41.98 49.8799 42.23 49.5899 42.49C49.4999 42.58 49.0099 42.41 48.9899 42.28C48.972 42.0579 48.9386 41.8374 48.8899 41.62C48.8899 41.48 48.7899 41.27 48.6999 41.24C48.3299 41.12 48.0399 40.83 47.6999 40.73C47.3241 40.65 46.9357 40.65 46.5599 40.73C46.3457 40.8006 46.1459 40.9089 45.9699 41.05C45.6269 40.8849 45.293 40.7013 44.9699 40.5C44.9203 40.4475 44.885 40.3831 44.8675 40.3131C44.8499 40.243 44.8508 40.1696 44.8699 40.1C44.9317 39.8803 45.062 39.6862 45.2419 39.5458C45.4218 39.4055 45.6419 39.3264 45.8699 39.32C46.0634 39.3298 46.2563 39.2911 46.431 39.2072C46.6057 39.1234 46.7566 38.9971 46.8699 38.84C46.9199 38.84 46.9899 38.73 46.9999 38.66C47.0014 38.6267 46.9959 38.5936 46.9838 38.5626C46.9718 38.5316 46.9534 38.5035 46.9299 38.48C46.6699 38.2 46.4199 37.91 46.1399 37.65C45.8599 37.39 45.3999 37.54 45.0599 37.38C44.9199 37.32 44.7699 36.91 44.8599 36.79C44.8984 36.724 44.9455 36.6635 44.9999 36.61C45.1958 36.3776 45.442 36.1929 45.7199 36.07C46.2299 35.87 46.2399 35.73 45.9899 35.23C45.8099 34.89 45.8399 34.85 45.9899 34.67C46.1399 34.49 46.6499 34.31 46.9399 34.08C47.0299 34.01 47.0399 33.81 47.0599 33.67C47.0799 33.53 47.0099 33.54 46.9799 33.47C46.9499 33.4 46.5699 33.12 46.8699 32.91C47.4899 32.5 47.5699 31.76 47.9699 31.21C48.0599 31.09 47.8899 30.69 47.7399 30.62C47.5233 30.5464 47.3126 30.4561 47.1099 30.35C46.6599 30.06 46.6299 29.77 47.0299 29.51C47.2699 29.35 47.5599 29.23 47.8199 29.09C47.879 29.0425 47.9255 28.9811 47.9551 28.9113C47.9848 28.8415 47.9968 28.7655 47.9899 28.69C48.016 28.5074 47.9979 28.3213 47.9369 28.1473C47.876 27.9732 47.7742 27.8164 47.6399 27.69C47.5677 27.6034 47.4775 27.5336 47.3756 27.4852C47.2738 27.4369 47.1627 27.4112 47.0499 27.41C46.744 27.44 46.4359 27.44 46.1299 27.41C46.0199 27.41 45.9099 27.27 45.8199 27.17C45.7299 27.07 45.8799 27.04 45.9199 26.98C46.0351 26.8248 46.1863 26.7 46.3606 26.6163C46.5348 26.5327 46.7268 26.4928 46.9199 26.5C47.2158 26.488 47.5102 26.4512 47.7999 26.39C47.8367 26.3787 47.87 26.3581 47.8963 26.33C47.9226 26.3019 47.9411 26.2674 47.9499 26.23C48.0499 25.3227 48.0499 24.4072 47.9499 23.5C47.3799 22.84 47.6299 22.05 47.5899 21.3C47.6253 21.0941 47.6055 20.8826 47.5324 20.687C47.4593 20.4914 47.3356 20.3186 47.1739 20.1864C47.0122 20.0543 46.8184 19.9673 46.6121 19.9346C46.4059 19.9018 46.1946 19.9244 45.9999 20C45.8199 20 45.6199 20.41 45.7099 20.55L46.0999 21.09C46.2869 21.328 46.4574 21.5785 46.6099 21.84C46.9448 22.3483 47.103 22.9528 47.0599 23.56C47.0599 23.82 47.1999 23.98 47.3199 24.17C47.4399 24.36 47.4399 24.33 47.4299 24.34C47.1199 24.67 46.7999 25 46.4299 25.34C46.4299 25.34 46.2699 25.39 46.2499 25.34C45.9999 25 45.4499 25.1 44.9999 25C44.8299 24.95 44.7999 24.79 44.7799 24.64C44.7599 24.49 44.7799 24.31 44.9599 24.25C45.1721 24.1865 45.3897 24.143 45.6099 24.12C46.0699 24.04 46.2299 23.74 45.9399 23.32C45.6499 22.9 45.6099 22.32 45.1199 21.99C44.8799 21.84 44.4099 21.86 44.3499 22.13C44.2899 22.4 43.9299 22.78 43.8399 23.13C43.64 23.6351 43.2912 24.0675 42.8399 24.37C42.7755 24.4136 42.7087 24.4537 42.6399 24.49C42.5699 24.36 42.4599 24.25 42.4499 24.12C42.4275 23.8942 42.4513 23.6662 42.5199 23.45C42.6899 23.04 42.9399 22.65 43.1299 22.24C43.2728 21.7987 43.516 21.3966 43.8404 21.0652C44.1649 20.7338 44.5618 20.4821 44.9999 20.33C45.1599 20.33 45.1799 20.12 45.2099 19.95C45.2399 19.78 45.3299 19.61 45.4199 19.59C45.9999 19.44 46.4199 18.97 47.1199 19.03C47.3999 19.03 47.5799 18.56 47.3999 18.33C47.2905 18.1274 47.1268 17.9593 46.9272 17.8445C46.7277 17.7297 46.5001 17.6727 46.2699 17.68C45.9725 17.7395 45.6636 17.6898 45.3999 17.54C45.3399 17.54 45.2699 17.43 45.2699 17.37C45.266 17.2258 45.2933 17.0826 45.3499 16.95C45.4199 16.8 45.5699 16.77 45.7399 16.77C45.9263 16.7866 46.114 16.7591 46.2878 16.6896C46.4615 16.6201 46.6164 16.5106 46.7399 16.37C46.9299 16.15 46.9499 16.01 46.7399 15.8C46.5585 15.5567 46.296 15.3864 45.9999 15.32C45.7901 15.2452 45.5991 15.1257 45.4399 14.97C45.2299 14.81 45.2599 14.56 45.5299 14.51C45.7154 14.4663 45.89 14.3852 46.043 14.2718C46.196 14.1583 46.3243 14.0147 46.4199 13.85C46.4899 13.74 46.5599 13.52 46.4999 13.43C46.2199 12.87 46.1099 12.13 45.4199 11.77ZM40.1599 34.31C40.1599 34.24 40.1599 34.14 40.1599 34.09C39.8578 33.654 39.71 33.1296 39.7399 32.6C39.7352 32.3013 39.7051 32.0035 39.6499 31.71C39.6394 31.6721 39.6204 31.6372 39.5944 31.6077C39.5685 31.5783 39.5361 31.5551 39.4999 31.54C39.3599 31.54 39.1499 31.43 39.0799 31.49C38.5699 31.95 38.0799 32.43 37.6099 32.92C37.5099 33.01 37.4999 33.19 37.4199 33.31C37.0702 33.8013 36.9007 34.3982 36.9399 35C36.9399 35.42 36.5299 35.62 36.5299 36C36.5299 36.17 36.5299 36.32 36.7099 36.38C36.8899 36.44 37.0499 36.47 37.1399 36.38C37.5069 36.1196 37.8425 35.8176 38.1399 35.48C38.5299 35 39.1399 35.19 39.5699 34.91C39.7545 34.7771 39.9195 34.6189 40.0599 34.44C40.1299 34.47 40.1399 34.38 40.1599 34.31Z" fill="white"/>
<path d="M68.21 73.2599C68.1904 73.1867 68.1966 73.1089 68.2275 73.0397C68.2585 72.9705 68.3123 72.9141 68.38 72.8799C69.21 72.5399 70 72.1299 70.8 71.7199C70.89 71.7199 70.94 71.4299 70.9 71.3199C70.6816 70.8394 70.3358 70.4278 69.9 70.1299C69.63 69.9399 69.3 70.1299 69.01 70.0399C68.72 69.9499 68.76 69.8499 68.82 69.7299C68.8998 69.5987 68.9866 69.4718 69.08 69.3499L68.45 68.6999C68.0865 68.5922 67.7048 68.5597 67.3282 68.6044C66.9517 68.6491 66.5882 68.77 66.26 68.9599C65.9866 69.1027 65.6751 69.1552 65.37 69.1099C65.31 69.1099 65.24 69.0499 65.18 69.0099C65.12 68.9699 65.09 68.8199 65.18 68.6699C65.4556 68.395 65.8016 68.2012 66.18 68.1099C66.35 68.0499 66.34 67.9099 66.18 67.7599C66.0005 67.5119 65.7315 67.3433 65.43 67.2899C65.0587 67.219 64.6751 67.2501 64.32 67.3799C64.01 67.5299 64.08 67.9099 63.9 68.1599C63.7088 68.4837 63.5353 68.8175 63.38 69.1599C63.1835 69.6501 62.8949 70.0982 62.53 70.4799C62.334 70.5994 62.1646 70.7577 62.0321 70.9452C61.8997 71.1327 61.8071 71.3453 61.76 71.5699C61.39 71.9499 61.04 72.3499 60.65 72.7099C60.5113 72.7612 60.3588 72.7612 60.22 72.7099C60 72.7099 60.02 72.5499 60.15 72.3699C60.59 71.7599 60.73 70.9799 61.15 70.3699C61.2824 70.1843 61.3428 69.9568 61.32 69.7299C61.3078 69.6168 61.3193 69.5023 61.3537 69.3939C61.3882 69.2854 61.4448 69.1853 61.52 69.0999C61.78 68.8299 62.06 68.5599 62.34 68.2999C62.5059 68.1409 62.6189 67.9347 62.6636 67.7093C62.7083 67.4839 62.6826 67.2502 62.59 67.0399C62.5622 66.9784 62.5213 66.9238 62.47 66.8799C62.3446 66.9671 62.2144 67.0472 62.08 67.1199C61.4813 67.4336 60.8418 67.6624 60.18 67.7999C59.91 67.7999 59.72 68.1999 59.37 68.1399C59.2993 68.1289 59.2333 68.0977 59.18 68.0499C59.18 68.0499 59.1 67.9299 59.12 67.8999C59.6436 67.1485 60.4215 66.6121 61.31 66.3899C61.6794 66.3193 62.054 66.2792 62.43 66.2699C62.4679 66.2599 62.5033 66.242 62.5338 66.2174C62.5644 66.1928 62.5894 66.1621 62.6073 66.1272C62.6252 66.0923 62.6356 66.054 62.6378 66.0149C62.64 65.9758 62.6339 65.9366 62.62 65.8999C62.4719 65.4095 62.2636 64.9392 62 64.4999C61.9695 64.4373 61.9264 64.3817 61.8736 64.3363C61.8207 64.291 61.7591 64.257 61.6926 64.2364C61.6261 64.2158 61.556 64.209 61.4868 64.2165C61.4176 64.224 61.3506 64.2456 61.29 64.2799C60.8739 64.459 60.4755 64.6766 60.1 64.9299C59.99 65.0299 59.53 64.8699 59.5 64.7299C59.4685 64.62 59.4648 64.504 59.4892 64.3923C59.5136 64.2805 59.5655 64.1766 59.64 64.0899C59.9043 63.7984 60.2545 63.5988 60.64 63.5199C60.91 63.4599 60.95 62.9799 60.74 62.7599L60.59 62.5899C60.4179 62.3833 60.175 62.2483 59.9087 62.2113C59.6424 62.1744 59.3719 62.238 59.15 62.3899C58.75 62.5899 58.35 62.7999 57.96 63.0199C57.6809 63.1441 57.372 63.1857 57.07 63.1399C57.01 63.1399 56.94 63.0599 56.9 62.9899C56.8851 62.9641 56.8772 62.9348 56.8772 62.9049C56.8772 62.8751 56.8851 62.8458 56.9 62.8199C57.25 62.4199 57.62 62.0399 57.97 61.6399C57.986 61.6145 57.9945 61.585 57.9945 61.5549C57.9945 61.5249 57.986 61.4954 57.97 61.4699C57.9499 61.4386 57.9235 61.4118 57.8926 61.3911C57.8616 61.3705 57.8267 61.3564 57.79 61.3499C57.26 61.3499 56.72 61.3499 56.19 61.3499C56.0801 61.3698 55.98 61.4259 55.9057 61.5093C55.8314 61.5926 55.7872 61.6985 55.78 61.8099C55.78 62.1799 55.78 62.5599 55.7 62.9399C55.19 63.4499 55.49 64.2899 54.95 64.7999C54.9 65.0899 54.84 65.3899 54.78 65.6799C54.7586 65.7558 54.713 65.8225 54.65 65.8699C54.04 66.2699 54.03 67.0699 53.51 67.5399C53.36 67.6699 53.24 67.6999 53.15 67.6099C53.0989 67.5562 53.0612 67.4911 53.04 67.4199C52.9978 67.0425 53.0748 66.6614 53.26 66.3299C53.4193 66.0713 53.5036 65.7736 53.5036 65.4699C53.5036 65.1662 53.4193 64.8685 53.26 64.6099C53.14 64.4099 53.04 64.2499 53.26 64.0599C53.4356 63.9093 53.5994 63.7455 53.75 63.5699C53.8353 63.4507 53.8934 63.3141 53.92 63.1699C53.92 62.8599 53.92 62.5599 53.92 62.2499C53.9189 62.1382 53.878 62.0306 53.8047 61.9463C53.7314 61.862 53.6305 61.8066 53.52 61.7899H51.46C51.33 61.7899 51.11 61.3299 51.19 61.2099C51.45 60.8299 51.73 60.4599 52.26 60.4699H52.71C53.41 60.4699 53.63 60.1299 53.45 59.4699C53.422 59.4002 53.3774 59.3384 53.32 59.2899C53.32 59.2299 53.21 59.1499 53.15 59.1499C52.15 59.1499 51.15 59.1499 50.15 59.0899C50.1153 59.092 50.0806 59.0861 50.0484 59.0728C50.0163 59.0595 49.9876 59.0391 49.9645 59.0131C49.9414 58.9871 49.9245 58.9563 49.9151 58.9228C49.9056 58.8893 49.9039 58.8542 49.91 58.8199C49.9341 58.7478 49.9752 58.6826 50.03 58.6299C50.1205 58.5085 50.2361 58.4082 50.3691 58.3357C50.502 58.2632 50.649 58.2203 50.8 58.2099C51.26 58.2099 51.72 58.2099 52.18 58.2099C52.29 58.2099 52.43 58.0499 52.49 57.9299C52.55 57.8099 52.37 57.3599 52.24 57.3499L51.1 57.2799C50.86 57.2799 50.8 57.0899 50.93 56.8399C50.9767 56.779 51.0201 56.7155 51.06 56.6499C51.1167 56.5517 51.1368 56.4365 51.1167 56.3248C51.0965 56.2131 51.0375 56.1122 50.95 56.0399C50.8592 55.9762 50.7509 55.9421 50.64 55.9421C50.5291 55.9421 50.4208 55.9762 50.33 56.0399L49.25 56.9999C48.92 57.3199 48.6 57.6499 48.25 57.9499C48.1185 58.0205 47.9671 58.0451 47.82 58.0199C47.65 58.0199 47.51 57.7399 47.54 57.4799C47.5165 57.2539 47.5655 57.0262 47.68 56.8299C47.7891 56.7202 47.8713 56.5867 47.92 56.4399C48.05 55.8599 48.59 55.4399 48.47 54.7499C48.47 54.6599 48.64 54.4799 48.76 54.4499C49.0574 54.3853 49.3248 54.2234 49.52 53.9899C49.73 53.7599 49.75 53.6499 49.52 53.4399C49.29 53.2299 49.1 52.9899 48.9 52.7599C48.7 52.5299 48.9 52.1999 49.09 52.1699L49.98 52.0299C50.11 52.0299 50.27 51.5399 50.2 51.4299C49.9062 50.9789 49.5084 50.6051 49.04 50.3399C48.7543 50.2413 48.4488 50.2139 48.15 50.2599C47.958 50.2698 47.7672 50.2241 47.6005 50.1283C47.4338 50.0326 47.2982 49.8908 47.21 49.7199C47.21 49.6599 47.11 49.5799 47.13 49.5299C47.1486 49.4963 47.1743 49.4672 47.2054 49.4447C47.2366 49.4223 47.2723 49.407 47.31 49.3999C47.92 49.3999 48.52 49.3999 49.13 49.3399C49.37 49.3399 49.63 49.3399 49.71 49.0899C49.7602 48.8694 49.7602 48.6404 49.71 48.4199C49.7042 48.3064 49.6591 48.1985 49.5825 48.1146C49.5059 48.0307 49.4025 47.976 49.29 47.9599C49.0011 47.8564 48.7479 47.6725 48.56 47.4299C48.4828 47.3465 48.4329 47.2415 48.4168 47.129C48.4007 47.0164 48.4193 46.9017 48.47 46.7999C48.54 46.6699 48.65 46.5599 48.73 46.4199C48.8033 46.3333 48.8435 46.2234 48.8435 46.1099C48.8435 45.9964 48.8033 45.8866 48.73 45.7999C48.07 45.1599 47.73 44.2599 47.1 43.6299C47.02 43.5499 47.1 43.3399 47.1 43.1999C47.1 43.0599 47.31 42.9199 47.62 43.2599C47.93 43.5999 48.54 43.7599 48.94 44.1099C49.34 44.4599 49.59 44.7499 49.94 45.1099C50.3061 45.5837 50.5777 46.1235 50.74 46.6999C50.69 47.2899 51.25 47.6299 51.26 48.1799C51.4179 48.3468 51.5381 48.5457 51.6123 48.7631C51.6865 48.9805 51.713 49.2113 51.69 49.4399C51.6537 49.744 51.7322 50.0506 51.91 50.2999C52.26 50.7799 52.09 51.2999 52.08 51.8399C51.53 52.2799 51.85 53.0299 51.46 53.5199C51.2831 53.7696 51.2047 54.0759 51.24 54.3799C51.24 54.5499 51.24 54.6899 51.42 54.7599C51.6216 54.8182 51.8161 54.8987 52 54.9999C52.4698 55.362 52.9607 55.6959 53.47 55.9999C53.9647 56.3562 54.3437 56.85 54.56 57.4199C54.82 58.0299 55.15 58.6299 55.44 59.2299C55.4787 59.2985 55.5295 59.3595 55.59 59.4099C55.687 59.5255 55.806 59.6207 55.94 59.6899C56.0751 59.6943 56.2081 59.6558 56.32 59.5799C56.74 59.3299 57.21 59.4799 57.66 59.4299C58.0421 59.3871 58.4259 59.4947 58.73 59.7299C59.04 59.9699 59.49 59.7299 59.81 60.0099C60.0438 60.2053 60.3356 60.3178 60.64 60.3299C60.8612 60.353 61.0738 60.4284 61.26 60.5499C61.52 60.7099 61.71 61.0299 61.98 61.1099C62.73 61.3299 62.98 61.8999 63.32 62.5299C63.4782 62.784 63.5741 63.0718 63.6 63.3699C63.6 63.6699 63.52 64.0199 63.73 64.2499C64.13 64.7099 64 65.2499 64.08 65.7799C64.08 66.0199 64.29 66.2399 64.49 66.2399H65.86C66.3921 66.2071 66.9262 66.2407 67.45 66.3399C68.0021 66.5743 68.5398 66.8414 69.06 67.1399C69.2743 67.213 69.4716 67.3287 69.64 67.4799C70.13 67.9599 70.64 68.4799 71.09 68.9499C71.2 69.0599 71.34 69.1799 71.36 69.3099C71.46 69.8899 72 70.1499 72.23 70.6299C72.2974 70.7662 72.3252 70.9187 72.31 71.0699C72.31 71.6199 72.85 71.9699 72.78 72.5599C72.71 73.1499 72.78 73.7799 72.78 74.3899C72.7863 74.5409 72.7481 74.6905 72.67 74.8199C72.5316 74.9805 72.4296 75.169 72.3709 75.3727C72.3122 75.5764 72.2983 75.7904 72.33 75.9999C72.43 76.5999 71.94 76.9999 71.82 77.4799C71.797 77.55 71.7579 77.6136 71.7058 77.6657C71.6537 77.7178 71.59 77.7569 71.52 77.7799C70.95 77.8899 70.71 78.4599 70.24 78.6999C70.0959 78.739 69.9441 78.739 69.8 78.6999C69.64 78.6999 69.56 78.2399 69.66 78.0999L69.8 77.9099C70.1115 77.5796 70.3681 77.2015 70.56 76.7899C70.7848 76.3942 70.934 75.9602 71 75.5099C71 75.1399 71.44 74.8999 71.42 74.5099C71.4 74.1199 71.42 73.5899 71.37 73.1399C71.37 73.0299 71.18 72.8899 71.06 72.8599C70.94 72.8299 70.54 72.7399 70.39 72.8599C69.7373 73.2666 68.958 73.4196 68.2 73.2899L68.21 73.2599Z" fill="white"/>
<path d="M30.7702 23.61C30.4102 23.61 29.7702 23.61 29.1902 23.67C29.0419 23.6869 28.9006 23.742 28.7802 23.83C28.1602 24.29 27.4502 24.08 26.7802 24.08C26.6502 24.08 26.5102 23.95 26.4002 23.85C26.1657 23.6521 25.9451 23.4383 25.7402 23.21C25.5889 23.0373 25.4006 22.901 25.1894 22.8109C24.9782 22.7209 24.7495 22.6796 24.5202 22.69C24.3694 22.6731 24.2286 22.6062 24.1202 22.5C23.9702 22.38 23.8602 22.34 23.7302 22.45C23.4847 22.6308 23.1848 22.7226 22.8802 22.71C22.2717 22.6158 21.6502 22.7551 21.1402 23.1C20.8532 23.1994 20.5474 23.2321 20.2459 23.1957C19.9445 23.1594 19.6552 23.0548 19.4002 22.89C19.3422 22.8676 19.2781 22.8676 19.2202 22.89C19.1602 22.89 19.0802 23 19.0802 23.07C19.0802 23.6 19.0802 24.13 19.0802 24.66C19.0403 24.805 18.9521 24.932 18.8302 25.02C18.7202 25.11 18.3302 25.02 18.2102 24.86C17.9902 24.65 17.8194 24.3938 17.7102 24.11C17.5959 23.8337 17.4553 23.5692 17.2902 23.32C16.8202 22.4 16.5902 22.2 15.3402 21.55C15.1802 21.46 15.0402 21.45 15.0002 21.65C14.9272 22.0258 14.7168 22.3609 14.4102 22.59C14.2802 22.69 14.1902 22.59 14.0302 22.52C13.6102 22.24 13.5402 21.76 13.3702 21.36C12.9402 20.4673 12.2811 19.7047 11.4602 19.15C11.389 19.1248 11.3113 19.1248 11.2402 19.15C10.7402 19.22 10.4002 18.85 9.99017 18.68L8.99017 18.21C8.87795 18.1643 8.7771 18.0946 8.6947 18.0058C8.61229 17.917 8.55033 17.8112 8.51317 17.6959C8.476 17.5806 8.46453 17.4585 8.47956 17.3383C8.49459 17.2181 8.53575 17.1026 8.60017 17C8.63744 16.9327 8.69288 16.8773 8.76017 16.84C9.43585 16.7101 10.128 16.6898 10.8102 16.78C10.8837 16.7846 10.9553 16.8051 11.0202 16.84C11.8902 17.42 13.0202 17.64 13.6802 18.52C13.9257 18.8138 14.2004 19.0818 14.5002 19.32C14.6266 19.3987 14.7651 19.4562 14.9102 19.49C14.9867 19.4952 15.0636 19.4952 15.1402 19.49L16.0502 19.57C16.5002 19.98 17.1702 20.03 17.5602 20.57C17.6515 20.6929 17.7734 20.7898 17.9137 20.8512C18.054 20.9126 18.2079 20.9363 18.3602 20.92C18.5902 20.92 18.8202 20.92 19.0502 20.92C19.2799 20.935 19.5104 20.935 19.7402 20.92C20.1402 20.86 20.4302 21.35 20.7402 21.21C21.0753 21.0373 21.4436 20.9384 21.8202 20.92H25.0402C25.1895 20.8998 25.3408 20.8998 25.4902 20.92C25.6359 20.9662 25.774 21.0336 25.9002 21.12C25.9602 21.12 26.0102 21.22 26.0702 21.27C26.5102 21.57 26.7602 22.15 27.3102 22.27C27.8421 22.3251 28.3783 22.3251 28.9102 22.27C29.2102 22.27 29.5202 22.27 29.8202 22.21C30.7102 21.53 31.7402 21.94 32.7002 21.86C32.8502 21.8468 32.9998 21.8895 33.1202 21.98C33.5027 22.2428 33.9724 22.3468 34.4302 22.27C34.6281 22.2665 34.8236 22.3133 34.9985 22.406C35.1734 22.4987 35.3219 22.6343 35.4302 22.8C35.533 22.917 35.6028 23.0592 35.6327 23.212C35.6626 23.3649 35.6513 23.5229 35.6002 23.67C35.4765 24.1469 35.2566 24.5934 34.9539 24.982C34.6512 25.3707 34.2722 25.6933 33.8402 25.93C33.5041 26.101 33.1971 26.3237 32.9302 26.59C32.6902 26.81 32.3502 26.81 32.1302 27C31.9102 27.19 31.4202 27.27 31.1302 27.51C30.8034 27.7454 30.3999 27.849 30.0002 27.8C29.4961 28.1533 28.8831 28.3163 28.2702 28.26C28.1991 28.234 28.1212 28.234 28.0502 28.26C27.4702 28.77 26.7602 28.63 26.0502 28.64C25.2102 28.64 24.3702 28.64 23.5202 28.64C21.1102 28.71 21.9202 28.3 20.1302 30C19.9702 30.16 19.8002 30.39 19.6102 30.43C18.8902 30.55 18.6102 31.43 17.8602 31.43C17.6909 31.5842 17.4916 31.702 17.2749 31.776C17.0581 31.85 16.8284 31.8786 16.6002 31.86C16.3718 31.8258 16.1386 31.8717 15.9402 31.99C15.6397 32.2271 15.2621 32.3446 14.8802 32.32C14.5002 32.32 14.1202 32.32 13.7402 32.38C13.1702 32.92 12.4402 32.68 11.7402 32.76C11.2101 32.7485 10.6925 32.5966 10.2402 32.32C10.1002 32.26 9.93017 32.25 9.87017 32.09C9.84026 31.9449 9.84026 31.7951 9.87017 31.65C9.88139 31.6132 9.90207 31.58 9.93014 31.5536C9.95822 31.5273 9.99271 31.5088 10.0302 31.5C10.5602 31.5 11.0802 31.4 11.6102 31.4C11.9895 31.4147 12.3638 31.3097 12.6802 31.1C12.8371 31.0086 13.0205 30.9733 13.2002 31C13.5802 31 13.9602 31 14.3502 31C14.9586 31.0942 15.5801 30.9549 16.0902 30.61L16.9902 30.52C17.2186 30.5184 17.4414 30.4488 17.6302 30.32C18.1802 29.94 18.5102 29.25 19.2502 29.1C19.6902 28.68 20.1502 28.27 20.5802 27.84C20.7299 27.6674 20.9162 27.5303 21.1255 27.4387C21.3347 27.347 21.5618 27.303 21.7902 27.31C22.5502 27.31 23.3202 27.31 24.0902 27.31C24.3102 27.31 24.6102 27.36 24.7502 27.24C25.4402 26.69 26.2202 26.94 26.9602 26.89C27.4202 26.89 27.8902 26.89 28.3402 26.83C28.6202 26.83 28.8702 26.47 29.1502 26.46C29.5981 26.411 30.0273 26.2531 30.4002 26C30.8002 25.78 31.2302 25.64 31.6302 25.45C31.7686 25.3831 31.8913 25.2877 31.9902 25.17C32.3802 24.8 32.7602 24.42 33.1302 24.04C33.1794 23.983 33.2198 23.9189 33.2502 23.85C33.1279 23.7664 32.9972 23.696 32.8602 23.64C32.7075 23.6201 32.5529 23.6201 32.4002 23.64L30.7702 23.61Z" fill="white"/>
<path d="M17.6901 74.8C17.6901 74.27 17.6901 73.73 17.6901 73.2C17.6859 72.8324 17.8177 72.4762 18.0601 72.2C18.1101 71.65 18.5901 71.3 18.7001 70.76C18.8017 70.3959 18.9751 70.0559 19.2101 69.76C19.4409 69.4542 19.7022 69.1727 19.9901 68.92C20.3424 68.5168 20.7419 68.1575 21.1801 67.85C21.7601 67.51 22.4101 67.31 22.9801 66.93C23.5048 66.889 24.0137 66.7318 24.4701 66.47C24.7662 66.3869 25.0768 66.3698 25.3801 66.42H26.3001C26.5544 66.3885 26.7909 66.273 26.972 66.0919C27.1532 65.9107 27.2687 65.6742 27.3001 65.42C27.3501 64.83 27.1701 64.21 27.5501 63.64C27.9301 63.07 27.9701 62.64 28.4101 62.33C28.8501 62.02 28.6401 61.55 29.0501 61.44C29.7401 61.27 30.0501 60.52 30.7701 60.38C31.1933 60.2215 31.5961 60.0134 31.9701 59.76C32.1646 59.6517 32.3789 59.5837 32.6001 59.56C33.1401 59.56 33.6701 59.56 34.2101 59.56C34.3236 59.5553 34.4314 59.5087 34.5126 59.4293C34.5938 59.35 34.6428 59.2433 34.6501 59.13C34.665 58.9803 34.665 58.8296 34.6501 58.68C34.5701 58.18 34.9201 57.83 35.0501 57.41C35.1139 57.0335 35.1373 56.6514 35.1201 56.27C35.1348 56.1955 35.1693 56.1264 35.2201 56.07C35.7007 55.2206 36.1282 54.3422 36.5001 53.44C36.6201 53.17 36.8401 52.95 36.9601 52.66C37.1511 52.3377 37.3794 52.039 37.6401 51.77C37.7351 51.6525 37.7869 51.506 37.7869 51.355C37.7869 51.2039 37.7351 51.0574 37.6401 50.94C37.4818 50.6831 37.3866 50.3925 37.3623 50.0918C37.3379 49.7911 37.3852 49.4889 37.5001 49.21C37.7583 48.8598 37.8952 48.435 37.8901 48C37.8804 47.9236 37.8804 47.8463 37.8901 47.77C37.8941 47.5447 37.9561 47.3243 38.0701 47.13C38.5101 46.43 38.7201 45.61 39.2201 44.93C39.3901 44.2 39.9801 43.83 40.5201 43.41C41.0101 43.34 41.2601 42.91 41.6401 42.66C41.7572 42.5707 41.8947 42.5123 42.0401 42.49C42.5661 42.4148 43.1014 42.4352 43.6201 42.55C43.6801 42.55 43.7601 42.67 43.7501 42.69C43.5086 43.1726 43.1051 43.5549 42.6101 43.77C42.2501 43.91 41.9601 44.15 41.6101 44.29C40.9701 44.5434 40.4562 45.0394 40.1801 45.67C39.9601 46.14 39.5601 46.56 39.6701 47.15C39.0201 48.2 39.2401 49.34 39.3101 50.47C39.5388 50.7577 39.681 51.1045 39.7201 51.47C39.7201 52.07 39.5501 52.73 39.8601 53.27C40.1701 53.81 40.6101 54.04 40.8601 54.49C41.1254 54.9456 41.4299 55.3772 41.7701 55.78C41.8106 55.8445 41.8473 55.9113 41.8801 55.98C41.7501 56.05 41.6301 56.16 41.5001 56.16C41.3701 56.16 40.9901 56.16 40.8501 56.08C39.9028 55.4353 39.1298 54.5661 38.6001 53.55C38.5201 53.35 38.3001 53.21 38.1301 53.06C38.1301 53.06 38.0001 53.06 37.9601 53.06C37.9201 53.06 37.5701 53.38 37.5201 53.58C37.4101 54.04 37.0301 54.35 36.9501 54.8C36.9675 55.2231 36.8559 55.6416 36.6301 56C36.5832 56.0589 36.5492 56.1271 36.5301 56.2V59.2C36.9144 59.791 37.0641 60.5043 36.9501 61.2C36.9501 61.43 36.9501 61.66 36.9501 61.89C36.9102 62.1946 36.9812 62.5034 37.1501 62.76C37.4301 63.11 37.4401 63.6 37.8301 63.91C38.2415 64.2247 38.6323 64.5654 39.0001 64.93C39.1043 65.0378 39.1829 65.1677 39.2301 65.31C39.2412 65.4569 39.2063 65.6037 39.1301 65.73C39.0892 65.7951 39.0273 65.8445 38.9546 65.8699C38.882 65.8953 38.8028 65.8954 38.7301 65.87C38.657 65.8573 38.5862 65.8337 38.5201 65.8C38.0801 65.52 37.8201 64.97 37.2301 64.91C36.8708 64.6037 36.5364 64.2693 36.2301 63.91C35.9855 63.5309 35.7715 63.133 35.5901 62.72C35.6801 62 35.0201 61.49 35.0701 60.78C35.0676 60.7235 35.0539 60.668 35.0299 60.6169C35.0059 60.5657 34.972 60.5197 34.9302 60.4816C34.8884 60.4435 34.8395 60.4141 34.7863 60.3949C34.7331 60.3758 34.6766 60.3673 34.6201 60.37C34.0982 60.2503 33.5527 60.285 33.0501 60.47C32.6001 60.74 32.0501 60.8 31.6801 61.26C31.3101 61.72 30.6801 61.7 30.3601 62.11C30.0401 62.52 29.8201 62.66 29.5501 62.93C29.1515 63.3844 28.8639 63.9253 28.7101 64.51C28.6266 64.8567 28.5024 65.1924 28.3401 65.51C28.1566 65.9329 28.1248 66.4063 28.2501 66.85C28.2501 66.96 28.4201 67.09 28.5401 67.16C29.4655 67.6862 30.2723 68.3977 30.9101 69.25C30.9101 69.25 30.9101 69.39 30.9101 69.47C30.9256 69.5466 30.9142 69.6263 30.8777 69.6955C30.8413 69.7648 30.7821 69.8193 30.7101 69.85C30.641 69.8651 30.5693 69.8651 30.5001 69.85C30.4276 69.8657 30.3526 69.8657 30.2801 69.85C29.8101 69.61 29.3601 69.33 28.8801 69.11C28.4001 68.89 27.9701 69.11 27.6001 68.71C27.4784 68.6213 27.3307 68.5756 27.1801 68.58C26.4901 68.58 25.8001 68.51 25.1201 68.53C24.5179 68.4247 23.8989 68.4729 23.3201 68.67C22.8302 68.8688 22.3667 69.1274 21.9401 69.44C21.4239 69.6694 20.9718 70.0218 20.6231 70.4663C20.2745 70.9108 20.04 71.4339 19.9401 71.99C19.93 72.0663 19.93 72.1436 19.9401 72.22C19.9401 72.61 19.5001 72.84 19.5101 73.22C19.5201 73.6 19.5101 73.99 19.5101 74.37C19.5133 74.4841 19.4937 74.5977 19.4525 74.7041C19.4113 74.8105 19.3493 74.9077 19.2701 74.99C19.1401 75.14 19.1301 75.23 19.2701 75.38C19.3827 75.4876 19.4595 75.6272 19.4901 75.78C19.5102 76.163 19.5102 76.5469 19.4901 76.93C19.4357 77.4623 19.5702 77.9968 19.8701 78.44C19.9357 78.5756 19.9697 78.7243 19.9697 78.875C19.9697 79.0256 19.9357 79.1743 19.8701 79.31C19.841 79.3845 19.7841 79.4449 19.7114 79.4785C19.6387 79.512 19.5558 79.5161 19.4801 79.49C19.4101 79.49 19.3201 79.49 19.2701 79.43C19.0285 79.2464 18.8161 79.0272 18.6401 78.78C18.3001 78.2 18.1201 77.53 17.7501 76.96L17.6401 74.68L17.6901 74.8Z" fill="white"/>
<path d="M79.7502 44.7599H78.3702C78.1202 44.7599 77.9502 44.5999 77.7602 44.4899C77.5702 44.3799 77.6302 44.3899 77.5602 44.3699C75.8202 43.8499 75.8202 43.8499 75.1602 43.2399C75.0533 43.1325 74.9252 43.0486 74.784 42.9935C74.6428 42.9384 74.4917 42.9133 74.3402 42.9199H71.5902C71.0402 42.9199 70.9902 42.8699 70.1002 42.4599C69.8902 42.3599 69.6702 42.2899 69.6102 42.0499C69.4702 41.5799 69.0802 41.3199 68.8002 40.9599C68.5202 40.5999 67.9602 40.6299 67.6302 40.2999C67.3002 39.9699 67.0602 40.1299 66.7602 40.1199C66.4958 40.0707 66.224 40.0773 65.9622 40.1393C65.7004 40.2013 65.4545 40.3173 65.2402 40.4799C65.1137 40.5561 64.9679 40.5943 64.8202 40.5899C64.3602 40.5899 63.9002 40.5899 63.4402 40.5899C63.142 40.5575 62.855 40.4584 62.6002 40.2999C61.9902 40.0299 61.4602 39.5399 60.7202 39.6299C60.1402 39.1099 59.2502 39.2999 58.7202 38.7699C58.4586 38.713 58.2184 38.5833 58.0273 38.3958C57.8362 38.2082 57.702 37.9705 57.6402 37.7099C57.5802 37.4999 57.3402 37.3399 57.3002 37.1299C57.2202 36.8386 57.2202 36.5312 57.3002 36.2399C57.4658 35.8225 57.6806 35.4263 57.9402 35.0599C58.0945 34.8938 58.2733 34.7522 58.4702 34.6399C59.3002 34.7799 59.7402 34.2099 60.1702 33.6399C60.6002 33.0699 60.9802 33.2299 61.3302 32.9699C61.6802 32.7099 61.7402 32.8899 61.9202 33.0299C62.1868 33.183 62.5025 33.226 62.8002 33.1499C62.9202 33.1499 63.1302 33.0099 63.1402 32.9099C63.1402 32.4599 63.1402 31.9999 63.1402 31.5399C63.1115 31.2395 63.1597 30.9366 63.2802 30.6599C63.5802 30.2199 63.6202 29.6599 64.0702 29.2899C64.5202 28.9199 64.6902 28.5799 65.0702 28.3599C65.5485 27.9896 66.1192 27.7578 66.7202 27.6899C67.2602 27.6899 67.7902 27.6899 68.3302 27.6899C68.7078 27.6487 69.0897 27.7038 69.4402 27.8499C70.0645 28.1236 70.6286 28.5178 71.1002 29.0099C71.6066 29.8376 72.0096 30.7242 72.3002 31.6499C72.3002 31.7199 72.3002 31.7999 72.3002 31.8699C72.3147 31.9822 72.3692 32.0855 72.4537 32.1608C72.5382 32.2361 72.647 32.2784 72.7602 32.2799H74.3702C74.9302 32.2799 74.9302 32.2799 75.8502 31.8399C76.1647 31.6537 76.5005 31.506 76.8502 31.3999C77.2479 31.4213 77.6443 31.3386 78.0002 31.1599C78.1246 31.0767 78.2706 31.0315 78.4202 31.0299C79.0302 31.0299 79.6402 31.0299 80.2502 31.0299C80.4402 31.0299 80.6202 31.3099 80.6002 31.5199C80.5802 31.7299 80.5202 31.8399 80.3602 31.8599C79.9826 31.9117 79.601 31.9284 79.2202 31.9099C78.8403 31.8888 78.465 32.0021 78.1602 32.2299C77.9002 32.4199 77.5602 32.2899 77.2802 32.3899C77.0002 32.4899 76.7502 32.6999 76.4702 32.7899C75.6552 32.9373 74.9009 33.3196 74.3002 33.8899C73.8602 34.3199 73.4402 34.7599 73.0002 35.1799C72.8602 35.3199 72.7302 35.5399 72.4802 35.4299C72.2302 35.3199 72.3602 34.8999 72.6102 34.6199C72.8602 34.3399 73.2402 33.9599 73.5502 33.6199C73.5634 33.5935 73.5703 33.5644 73.5703 33.5349C73.5703 33.5054 73.5634 33.4763 73.5502 33.4499C73.5502 33.3899 73.4402 33.3099 73.3702 33.3099C72.9202 33.3099 72.4602 33.3099 72.0002 33.2499C71.5436 33.2343 71.0955 33.3754 70.7302 33.6499C70.4502 33.7751 70.1346 33.7964 69.8402 33.7099C69.5664 33.5033 69.2522 33.3564 68.918 33.2789C68.5838 33.2014 68.2371 33.1949 67.9002 33.2599C67.6726 33.2869 67.455 33.3695 67.2667 33.5002C67.0784 33.631 66.9251 33.806 66.8202 34.0099C66.7843 34.0741 66.7655 34.1464 66.7655 34.2199C66.7655 34.2935 66.7843 34.3658 66.8202 34.4299C67.1702 34.8399 67.5402 35.2199 67.9202 35.5999C68.0602 35.7599 68.0702 35.8699 67.9202 35.9499C67.8611 35.9944 67.7928 36.0251 67.7202 36.0399C67.4918 36.0616 67.2613 36.0412 67.0402 35.9799C66.5702 35.7599 66.1402 35.4299 65.6602 35.2199C65.1802 35.0099 64.9902 34.8799 64.6602 34.7499C64.2899 34.6654 63.9082 34.6418 63.5302 34.6799C63.3771 34.6698 63.2234 34.6698 63.0702 34.6799C62.6916 34.6618 62.3266 34.5332 62.0202 34.3099C61.9277 34.247 61.8232 34.2039 61.7131 34.1834C61.6031 34.1629 61.4901 34.1654 61.3811 34.1908C61.2721 34.2161 61.1696 34.2638 61.0799 34.3308C60.9903 34.3978 60.9155 34.4826 60.8602 34.5799C60.7683 34.823 60.6197 35.0406 60.4266 35.2146C60.2335 35.3885 60.0016 35.5138 59.7502 35.5799C59.4889 35.6987 59.2381 35.8392 59.0002 35.9999C58.8857 36.0587 58.7863 36.143 58.7096 36.2463C58.6328 36.3496 58.5808 36.4692 58.5576 36.5958C58.5344 36.7224 58.5407 36.8526 58.5758 36.9765C58.6109 37.1003 58.674 37.2144 58.7602 37.3099C58.9098 37.4809 59.0774 37.6351 59.2602 37.7699C59.2863 37.7963 59.3175 37.817 59.3519 37.8307C59.3863 37.8445 59.4232 37.851 59.4602 37.8499C60.0402 37.7399 60.4602 38.2999 60.9502 38.2999C61.555 38.2811 62.1522 38.4373 62.6702 38.7499C62.8762 38.8413 63.0765 38.9448 63.2702 39.0599C63.4278 39.1665 63.6109 39.2292 63.8007 39.2415C63.9906 39.2538 64.1803 39.2153 64.3502 39.1299C64.7015 39.0018 65.037 38.834 65.3502 38.6299C65.6622 38.4107 66.0398 38.3048 66.4202 38.3299C67.0281 38.2798 67.6348 38.4386 68.1402 38.7799C68.7143 39.1534 69.3989 39.3193 70.0802 39.2499C70.3102 39.2499 70.5302 39.2499 70.7602 39.2499C71.0664 39.2316 71.3595 39.1199 71.6002 38.9299C71.8769 38.7945 72.1939 38.766 72.4902 38.8499C72.5584 38.8772 72.6197 38.919 72.6698 38.9726C72.7199 39.0262 72.7576 39.0901 72.7802 39.1599C72.8676 39.3365 72.882 39.5404 72.8203 39.7276C72.7585 39.9147 72.6256 40.07 72.4502 40.1599C71.9448 40.4884 71.3694 40.6938 70.7702 40.7599C70.6002 40.7599 70.5602 40.9399 70.5702 41.1099C70.5802 41.2799 70.5702 41.4399 70.7702 41.4799C71.2994 41.5332 71.8075 41.7152 72.2502 42.0099C72.5402 42.0099 72.8502 42.0999 73.1302 41.9099C73.4418 41.6853 73.8162 41.5645 74.2002 41.5645C74.5843 41.5645 74.9587 41.6853 75.2702 41.9099C75.679 42.0996 76.0593 42.3453 76.4002 42.6399C76.4701 42.7308 76.5573 42.8068 76.6569 42.8635C76.7565 42.9201 76.8665 42.9563 76.9802 42.9699C77.3574 42.9878 77.7231 43.1051 78.0402 43.3099C78.2455 43.4091 78.4727 43.4539 78.7002 43.4399C79.3902 43.4399 80.0702 43.4399 80.7602 43.4399C81.4502 43.4399 81.5502 43.6199 81.5302 44.2499C81.5302 44.4799 81.3202 44.7399 81.1502 44.7499L80.7002 44.7999H79.7802L79.7502 44.7599ZM64.0502 32.1699C64.0502 32.2999 64.0502 32.4499 64.0502 32.5999C64.0553 32.8297 64.1257 33.0534 64.2532 33.2446C64.3807 33.4359 64.56 33.5869 64.7702 33.6799C64.9059 33.7455 65.0546 33.7795 65.2052 33.7795C65.3559 33.7795 65.5046 33.7455 65.6402 33.6799C65.7736 33.6051 65.8949 33.5107 66.0002 33.3999C66.2911 33.159 66.5682 32.9019 66.8302 32.6299C67.1902 32.2499 67.7402 32.5199 68.0902 32.2199C68.4402 31.9199 68.6002 32.1199 68.8702 32.2699C69.1402 32.4199 69.4502 32.4199 69.6602 32.6499C69.7108 32.7069 69.7747 32.7505 69.8463 32.7767C69.9179 32.8028 69.9948 32.8108 70.0702 32.7999C70.145 32.8071 70.2203 32.7931 70.2876 32.7595C70.3548 32.7259 70.4111 32.6741 70.4502 32.6099C70.5402 32.4399 70.4502 32.0499 70.2802 32.0199C70.1102 31.9899 69.8302 31.9699 69.6202 31.9199C69.482 31.8751 69.3508 31.8111 69.2302 31.7299C69.3102 31.6099 69.3802 31.4799 69.4702 31.3699C69.671 31.1456 69.9429 30.9973 70.2402 30.9499C70.3102 30.9499 70.3502 30.8499 70.4102 30.7999C70.3102 30.7099 70.2202 30.5499 70.1102 30.5399C69.5902 30.5399 69.0502 30.5399 68.5202 30.4799C68.3702 30.4799 68.1702 30.0999 68.2302 29.9299C68.2556 29.8627 68.2892 29.7989 68.3302 29.7399C68.5602 29.3399 68.5402 29.2699 68.3302 29.0199C68.1827 28.8434 67.9788 28.7231 67.7529 28.6794C67.527 28.6357 67.293 28.6712 67.0902 28.7799C66.7888 28.9784 66.4474 29.1081 66.0902 29.1599C65.9421 29.1501 65.7957 29.1965 65.6802 29.2899C65.1926 29.6451 64.8008 30.1158 64.5402 30.6599C64.2511 31.1134 64.0824 31.6331 64.0502 32.1699Z" fill="white"/>
<path d="M40.6201 40.2699C40.4101 39.5899 41.0301 39.1699 41.1801 38.5999C41.2501 38.3499 41.7501 38.3199 41.9601 38.5099C42.3401 38.8499 42.3401 38.9399 42.1201 39.4199C42.0319 39.789 41.8571 40.1318 41.6101 40.4199C41.4301 40.5699 41.2801 40.7399 41.1201 40.8999C40.9601 41.0599 40.8501 41.0499 40.7601 40.8999C40.7047 40.8517 40.6633 40.7896 40.6401 40.7199C40.6201 40.5799 40.6301 40.4299 40.6201 40.2699Z" fill="white"/>
<path d="M46.9203 52.57C46.8103 52.57 46.5903 52.57 46.3803 52.45C46.1703 52.33 46.1803 52.25 46.2003 52.07C46.2203 51.89 46.2603 51.76 46.4203 51.71C46.6306 51.6226 46.8632 51.6046 47.0844 51.6585C47.3057 51.7125 47.5039 51.8356 47.6503 52.01C47.7403 52.13 47.8103 52.26 47.8903 52.39C47.7593 52.4593 47.622 52.5162 47.4803 52.56C47.2943 52.5798 47.1069 52.5831 46.9203 52.57Z" fill="white"/>
<path d="M51.35 64.4899C51.2056 64.4621 51.0648 64.4185 50.93 64.3599C50.8652 64.3188 50.8167 64.2563 50.793 64.1833C50.7693 64.1103 50.7718 64.0313 50.8 63.9599C50.85 63.8299 50.95 63.6499 51.05 63.6299C51.3452 63.5477 51.6608 63.5836 51.93 63.7299C51.998 63.7679 52.0486 63.8309 52.071 63.9056C52.0934 63.9803 52.0859 64.0607 52.05 64.1299C52.0018 64.2626 51.9147 64.3776 51.8 64.4599C51.6536 64.5003 51.5005 64.5105 51.35 64.4899Z" fill="white"/>
<path d="M45.0501 29.64C45.2401 29.64 45.3401 29.64 45.3801 29.64C45.4827 29.734 45.5674 29.8458 45.6301 29.97C45.6568 30.0411 45.6574 30.1193 45.6317 30.1907C45.6061 30.2622 45.5559 30.3222 45.4901 30.36C45.3626 30.4384 45.2192 30.4872 45.0703 30.5028C44.9215 30.5184 44.771 30.5003 44.6301 30.45C44.5301 30.45 44.4401 30.24 44.3901 30.12C44.3715 30.0862 44.3601 30.0489 44.3566 30.0104C44.3531 29.972 44.3576 29.9332 44.3698 29.8966C44.382 29.86 44.4017 29.8263 44.4276 29.7976C44.4534 29.7689 44.4849 29.7459 44.5201 29.73C44.6943 29.6869 44.8714 29.6568 45.0501 29.64Z" fill="white"/>
<path d="M58.4704 65.6599C58.3819 65.8531 58.2416 66.0179 58.065 66.1362C57.8885 66.2545 57.6827 66.3215 57.4704 66.3299C57.4104 66.3299 57.3404 66.2599 57.3104 66.2099C57.2955 66.1841 57.2876 66.1547 57.2876 66.1249C57.2876 66.0951 57.2955 66.0657 57.3104 66.0399C57.4909 65.821 57.6955 65.623 57.9204 65.4499C57.9904 65.3899 58.1804 65.4499 58.3104 65.5099C58.4404 65.5699 58.4204 65.6099 58.4704 65.6599Z" fill="white"/>
<path d="M66.3503 71.4C66.1103 72.04 65.8403 72.28 65.3503 72.3C65.2803 72.2889 65.2166 72.2535 65.1703 72.2C65.1588 72.1766 65.1528 72.151 65.1528 72.125C65.1528 72.099 65.1588 72.0733 65.1703 72.05C65.2801 71.815 65.4668 71.6245 65.6995 71.51C65.9323 71.3955 66.1971 71.3637 66.4503 71.42L66.3503 71.4Z" fill="white"/>
<path d="M45.6104 49.5999C45.5704 49.6633 45.5139 49.7145 45.4469 49.748C45.3799 49.7815 45.305 49.796 45.2304 49.7899C45.1554 49.7921 45.0812 49.7737 45.016 49.7367C44.9507 49.6996 44.8969 49.6454 44.8604 49.5799C44.983 49.5118 45.1099 49.4517 45.2404 49.3999C45.2769 49.3939 45.3143 49.3953 45.3504 49.4039C45.3864 49.4124 45.4204 49.4281 45.4504 49.4499C45.5131 49.4889 45.5674 49.5398 45.6104 49.5999Z" fill="white"/>
<path d="M45.66 32.7C45.66 32.93 45.55 33.26 45.46 33.2C45.3604 33.116 45.2874 33.0048 45.25 32.88C45.2356 32.848 45.2281 32.8134 45.228 32.7783C45.2279 32.7433 45.2352 32.7086 45.2493 32.6766C45.2634 32.6445 45.2842 32.6158 45.3101 32.5922C45.3361 32.5687 45.3667 32.5509 45.4 32.54C45.5 32.49 45.59 32.54 45.66 32.7Z" fill="white"/>
<path d="M66.6102 73.7999C66.6864 73.9074 66.7533 74.0211 66.8102 74.1399C66.8262 74.1737 66.8347 74.2106 66.8351 74.248C66.8356 74.2854 66.8279 74.3224 66.8127 74.3566C66.7975 74.3908 66.7752 74.4213 66.7471 74.446C66.7191 74.4707 66.686 74.4891 66.6502 74.4999C66.6281 74.5093 66.6043 74.5141 66.5802 74.5141C66.5562 74.5141 66.5324 74.5093 66.5102 74.4999C66.474 74.4901 66.4405 74.4719 66.4126 74.4468C66.3846 74.4216 66.3629 74.3903 66.3493 74.3553C66.3357 74.3202 66.3305 74.2825 66.3341 74.2451C66.3378 74.2077 66.3501 74.1717 66.3702 74.1399C66.4376 74.0182 66.5181 73.9042 66.6102 73.7999Z" fill="white"/>
<path d="M68.0003 70.66C68.0003 70.66 68.0003 70.79 68.0003 70.81C67.885 70.8783 67.7543 70.9162 67.6203 70.92C67.5203 70.92 67.4203 70.79 67.3203 70.71C67.4325 70.6359 67.5495 70.5691 67.6703 70.51C67.7341 70.4896 67.8032 70.4937 67.8642 70.5214C67.9252 70.5491 67.9737 70.5985 68.0003 70.66Z" fill="white"/>
<path d="M66.3701 71.4199C66.3499 71.3535 66.355 71.2819 66.3846 71.2191C66.4142 71.1563 66.466 71.1067 66.5301 71.0799C66.5817 71.0608 66.6385 71.0608 66.6901 71.0799C66.8001 71.1899 66.6901 71.2699 66.3501 71.3699L66.3701 71.4199Z" fill="white"/>
<path d="M68.1801 73.24C68.1801 73.4 68.1801 73.53 68.0401 73.58C67.9001 73.63 67.8101 73.58 67.8601 73.41C67.8906 73.347 67.9428 73.2971 68.0071 73.2695C68.0714 73.2419 68.1435 73.2386 68.2101 73.26L68.1801 73.24Z" fill="white"/>
<path d="M69.4003 75.23C69.4003 75.23 69.4703 75.33 69.4603 75.36C69.428 75.4098 69.3874 75.4538 69.3403 75.49C69.1903 75.4 69.1703 75.3 69.2703 75.23C69.3703 75.16 69.3603 75.23 69.4003 75.23Z" fill="white"/>
<path d="M44.6601 27.05C44.6601 27.16 44.6601 27.24 44.5001 27.23C44.3401 27.22 44.4101 27.14 44.3701 27.1C44.4102 27.0489 44.4615 27.0079 44.5201 26.98C44.5201 26.98 44.6101 27 44.6601 27.05Z" fill="white"/>
</svg>
