<svg width="90" height="91" viewBox="0 0 90 91" fill="none" xmlns="http://www.w3.org/2000/svg">
<path d="M52.1001 61.0655C53.2509 61.3561 54.355 61.8071 55.3801 62.4055C55.4701 62.1855 55.5801 61.9655 55.6601 61.7455C55.8727 61.0746 56.1683 60.433 56.5401 59.8355C57.4101 58.6255 57.9101 58.2855 59.2601 58.6655C60.4001 58.9855 61.6701 58.8655 62.7001 59.6655C63.5683 59.7292 64.4233 59.9143 65.2401 60.2155C65.5593 60.3016 65.8607 60.4439 66.1301 60.6355C67.0701 61.3055 67.9601 62.0655 68.9501 62.6355C70.3474 63.595 71.8507 64.3902 73.4301 65.0055C73.6326 65.0617 73.8249 65.1494 74.0001 65.2655C75.7101 66.4355 77.4301 67.6055 79.1301 68.7955C79.3741 69.0006 79.6014 69.2246 79.8101 69.4655C77.8101 72.3655 76.6201 75.7155 74.5401 78.5755C74.3539 78.8545 74.206 79.1572 74.1001 79.4755C73.9055 79.886 73.6269 80.2513 73.2824 80.5475C72.938 80.8438 72.5352 81.0645 72.1001 81.1955C71.9044 81.2549 71.6985 81.2732 71.4954 81.2491C71.2923 81.225 71.0964 81.1591 70.9201 81.0555C69.4101 80.0555 67.6601 79.6055 66.2401 78.4955C64.9901 77.4955 63.7101 76.6055 62.4301 75.6655C61.4301 74.8955 60.3501 74.1455 59.3101 73.3855C58.4701 72.7655 57.6001 72.1755 56.8001 71.5255C55.3995 70.4436 54.3972 68.9278 53.9501 67.2155C53.8801 66.9355 53.8201 66.7855 53.4901 66.7555C52.8301 66.7555 52.1801 66.5955 51.4901 66.4955C51.3001 66.4955 51.1101 66.3855 50.9501 66.3455C50.6801 66.8555 50.4201 67.3455 50.1301 67.8855C50.0605 68.1104 49.9089 68.301 49.7055 68.4196C49.502 68.5382 49.2615 68.5761 49.0314 68.5258C48.8014 68.4755 48.5986 68.3407 48.4631 68.1481C48.3277 67.9554 48.2695 67.719 48.3001 67.4855C48.3001 67.1955 48.3001 66.9055 48.3001 66.6455C47.7624 66.5079 47.2398 66.3169 46.7401 66.0755C46.3124 65.7506 46.0177 65.2812 45.9109 64.7548C45.8042 64.2285 45.8928 63.6813 46.1601 63.2155C46.3675 62.715 46.6508 62.2496 47.0001 61.8355C47.1344 61.711 47.2261 61.5474 47.262 61.3679C47.2979 61.1883 47.2762 61.002 47.2001 60.8355C46.9903 60.2401 46.6485 59.6999 46.2001 59.2555C45.1401 58.4555 44.0701 57.6655 43.0501 56.8055C42.4056 56.1632 41.6365 55.6595 40.7901 55.3255C40.2634 56.3588 39.7068 57.4321 39.1201 58.5455C40.2424 59.1553 41.124 60.1285 41.6201 61.3055C41.7231 61.6473 41.8501 61.9815 42.0001 62.3055C42.1396 62.5859 42.1994 62.8993 42.173 63.2115C42.1465 63.5236 42.0348 63.8225 41.8501 64.0755C41.7801 64.2155 41.5901 64.4155 41.4801 64.3955C40.6601 64.2755 39.8801 64.7355 39.0401 64.5355C38.5539 64.3913 38.0363 64.3913 37.5501 64.5355C37.0309 64.7025 36.4834 64.7637 35.9401 64.7155C34.6923 64.7552 33.449 64.8856 32.2201 65.1055C31.3651 65.1431 30.5138 64.9714 29.7401 64.6055C29.6589 64.5424 29.5927 64.4622 29.546 64.3706C29.4993 64.279 29.4734 64.1782 29.4701 64.0755C29.4701 62.3055 29.5501 60.5855 30.8101 59.1555C30.9301 59.0255 31.0401 58.6955 30.9601 58.5955C30.2901 57.6955 30.1801 56.5055 29.3901 55.5955C28.1001 56.3055 26.6301 56.5955 25.4401 57.5955C23.5928 58.921 22.1966 60.7814 21.4401 62.9255C21.2265 63.5486 21.0986 64.1979 21.0601 64.8555C21.0276 65.6819 20.8552 66.4968 20.5501 67.2655C20.4401 67.5455 20.4301 67.9455 20.1401 67.9655C19.8501 67.9855 19.2301 67.8955 19.1401 67.6855C18.7601 66.8655 17.7601 66.4955 17.6301 65.5155C17.558 65.1862 17.5112 64.8519 17.4901 64.5155C17.4901 62.7755 17.4201 61.0355 17.4901 59.3055C17.5683 57.8568 17.907 56.434 18.4901 55.1055C19.3463 53.1709 20.402 51.3309 21.6401 49.6155C22.1634 48.8539 22.8656 48.2323 23.685 47.8052C24.5044 47.378 25.4161 47.1584 26.3401 47.1655H26.9201C26.8301 46.5055 26.7301 45.9055 26.6701 45.3055C26.6101 44.7055 26.6001 44.0455 26.5501 43.4255C26.5501 43.0955 26.4301 42.7655 26.4201 42.4255C26.4201 41.2855 26.4201 40.1355 26.4201 38.9955C26.4201 38.3355 26.5701 37.6755 26.6501 36.9955C26.7301 36.3155 26.5001 35.6455 26.8701 34.9955C26.9801 34.8055 26.8701 34.4955 26.8701 34.2455C26.9401 32.8871 27.182 31.543 27.5901 30.2455C28.4719 27.1663 29.5235 24.1384 30.7401 21.1755C31.5171 19.3849 32.4932 17.6876 33.6501 16.1155C33.7901 15.9055 33.9101 15.6855 34.0501 15.4855C34.5801 14.7055 35.1701 14.5955 35.8001 15.2655C37.0001 16.5455 38.1001 17.7255 39.1201 19.0255C40.2838 20.7387 41.1431 22.64 41.6601 24.6455C42.3019 26.4771 42.7509 28.3707 43.0001 30.2955C43.1301 31.5655 43.4801 32.8055 43.6501 34.0655C43.7201 34.5355 43.4501 35.0655 43.5001 35.5155C43.7165 37.6917 43.7933 39.8795 43.7301 42.0655C43.8255 43.2319 43.7377 44.4061 43.4701 45.5455C43.3801 45.8055 43.4001 46.1355 43.8801 46.1255C44.5457 46.1732 45.1775 46.4365 45.6801 46.8755C46.4701 47.4755 47.3601 47.9655 48.0901 48.6355C50.0686 50.4646 51.3929 52.8919 51.8601 55.5455C52.0341 56.6198 52.1144 57.7072 52.1001 58.7955C52.1201 59.5455 52.1001 60.2855 52.1001 61.0655ZM42.9401 49.7155C43.7602 49.568 44.4953 49.1184 45.0001 48.4555L43.1701 47.6855L42.9101 49.6855L42.7201 49.7755L42.8201 49.8755L42.9401 49.7155ZM41.6601 33.4455C41.6851 33.0659 41.6851 32.6851 41.6601 32.3055C41.6339 32.0181 41.5263 31.744 41.3501 31.5155C41.2901 31.4355 40.9401 31.6355 40.7101 31.6455C40.2901 31.6455 39.8701 31.6455 39.4401 31.6455C39.1901 31.6455 38.9301 31.6455 38.6801 31.6455C38.4301 31.6455 38.1801 31.9255 38.3501 32.2955C38.5201 32.6655 38.7001 33.1355 38.9201 33.5355C39.0201 33.7255 39.1301 33.8755 39.4901 33.7655C40.2142 33.5945 40.9493 33.4742 41.6901 33.4055C41.6901 34.2155 41.0301 34.2655 40.5001 34.4055C40.1545 34.4742 39.8023 34.5044 39.4501 34.4955V37.6355C40.3401 37.1155 41.0901 37.9955 41.9201 37.6355V33.9155C41.9101 33.7255 42.0001 33.4755 41.6601 33.4455ZM39.1101 54.8155C39.3093 54.5706 39.4773 54.3019 39.6101 54.0155C40.0701 52.6455 40.4901 51.2755 40.9201 49.8955C41.0101 49.6355 41.2001 49.2755 41.1001 49.0955C40.8801 48.6855 40.6301 49.1955 40.3601 49.2055C39.7757 49.1443 39.1851 49.2126 38.6301 49.4055C38.4301 49.4955 38.0601 49.3155 37.8201 49.1755C37.7499 49.1115 37.6954 49.0322 37.6607 48.9438C37.626 48.8553 37.6121 48.7601 37.6201 48.6655C37.6701 48.3755 37.8401 48.6655 37.9601 48.6655C38.8301 48.6655 39.7001 48.5655 40.5601 48.4755C40.8219 48.4393 41.0665 48.3243 41.2612 48.1456C41.4559 47.967 41.5916 47.7332 41.6501 47.4755C41.7601 46.7355 41.8401 45.9855 41.9101 45.2455C41.909 44.9644 41.8889 44.6838 41.8501 44.4055C40.4417 44.9094 38.9365 45.0839 37.4501 44.9155C37.2893 44.8858 37.1382 44.8171 37.0101 44.7155C36.8201 44.5855 36.8901 44.4255 37.0101 44.3255C37.1515 44.2461 37.3084 44.1983 37.4701 44.1855C38.5999 44.244 39.7326 44.1566 40.8401 43.9255C41.2701 43.8055 41.7001 43.7155 42.0601 43.6255V41.3555C41.0347 41.787 39.915 41.9454 38.8101 41.8155C38.3716 41.7726 37.939 41.6821 37.5201 41.5455C37.4473 41.528 37.3788 41.4961 37.3186 41.4517C37.2584 41.4074 37.2077 41.3513 37.1694 41.287C37.1312 41.2227 37.1063 41.1514 37.0961 41.0773C37.0859 41.0031 37.0907 40.9277 37.1101 40.8555C37.1901 40.4855 37.4801 40.5855 37.7101 40.5855C37.8723 40.6207 38.03 40.6744 38.1801 40.7455C39.3628 41.1019 40.6311 41.049 41.7801 40.5955C42.0801 40.4755 42.2101 40.3755 42.1601 40.0955C42.0501 39.4855 41.9201 38.8855 41.8001 38.2855C41.1901 38.2855 40.6001 38.2855 40.0101 38.2855C39.8101 38.2855 39.5201 38.2855 39.4401 38.4255C39.3686 38.5643 39.2682 38.6862 39.1455 38.7828C39.0228 38.8795 38.8808 38.9486 38.7291 38.9856C38.5774 39.0226 38.4195 39.0265 38.2661 38.9972C38.1127 38.9678 37.9674 38.9059 37.8401 38.8155C37.5927 38.7648 37.3375 38.7648 37.0901 38.8155C36.3701 38.8155 35.6501 38.8155 34.9301 38.8155C34.7801 38.8155 34.6501 38.5855 34.5101 38.4555C34.3701 38.3255 34.3501 38.1155 34.5101 37.9355C34.7981 37.6484 35.1373 37.4178 35.5101 37.2555C36.1701 36.9755 36.8401 37.1855 37.5101 36.9655C37.6271 36.0149 37.4491 35.0514 37.0001 34.2055C36.4901 33.2055 36.2801 32.0655 35.2301 31.4055C34.3085 32.4482 33.6834 33.719 33.4201 35.0855C33.2674 35.6853 33.0247 36.2585 32.7001 36.7855C32.7001 36.8855 32.5201 37.0255 32.4701 37.0055C32.4201 36.9855 32.1201 36.8655 32.0901 36.7455C32.0105 36.473 31.98 36.1886 32.0001 35.9055C32.082 35.5456 32.1454 35.1818 32.1901 34.8155C32.2274 33.2491 32.799 31.7424 33.8101 30.5455C34.5601 29.4655 35.2501 29.4055 36.3801 30.0955L36.4801 30.1755C36.8701 30.4855 37.2201 30.9455 37.6701 31.0655C38.1906 31.0863 38.7117 31.0392 39.2201 30.9255C39.9301 30.9255 40.6401 30.9255 41.4401 30.9255L41.0701 28.4555C39.9101 28.6855 38.7901 28.9255 37.6601 29.1155C37.3888 29.1061 37.1213 29.0485 36.8701 28.9455C37.0468 28.6804 37.2441 28.4296 37.4601 28.1955C37.5601 28.1055 37.7801 28.1355 37.9401 28.1155C38.5601 28.0355 39.1801 27.9555 39.7901 27.8555C40.6101 27.7255 40.8401 27.3755 40.6501 26.5555C40.556 26.242 40.4424 25.9348 40.3101 25.6355C39.2001 25.9655 38.1901 26.2855 37.1601 26.5655C36.9601 26.6255 36.6001 26.6755 36.6101 26.2855C36.6177 26.1936 36.647 26.1049 36.6957 26.0266C36.7444 25.9484 36.811 25.8828 36.8901 25.8355C37.4901 25.5755 38.1101 25.3655 38.7201 25.1355C39.1701 24.9655 39.9101 25.3055 40.0501 24.6955C40.1501 24.2955 39.7901 23.7855 39.6301 23.3255C39.6203 23.2439 39.593 23.1655 39.5501 23.0955C39.4001 22.8955 39.2801 22.7355 38.9401 22.8455C38.1845 23.1945 37.3446 23.3195 36.5201 23.2055L37.2201 22.4955C37.5201 22.1755 37.9201 22.2955 38.2901 22.2755C38.8501 22.2755 39.0701 21.9855 38.8501 21.4755C38.5601 20.7955 38.1901 20.1555 37.8501 19.5455C37.4401 19.7155 37.1001 19.8355 36.7801 19.9755C36.4601 20.1155 36.1701 20.2655 35.7801 20.4455C35.7801 19.3055 36.6401 19.2455 37.2601 18.8655C36.7516 17.8149 36.0052 16.8973 35.0801 16.1855C34.902 16.4757 34.7084 16.7561 34.5001 17.0255C33.2333 18.5722 32.2207 20.3106 31.5001 22.1755C30.5627 24.4096 29.7677 26.7008 29.1201 29.0355C28.9401 29.7555 28.6701 30.4455 28.5101 31.1655C28.3501 31.8855 28.3001 32.7255 28.1001 33.4755C27.9001 34.2255 28.4001 34.9055 28.0001 35.5455C27.9401 35.6255 28.1101 35.8455 28.1301 36.0055C28.155 36.2883 28.155 36.5727 28.1301 36.8555C28.1301 37.2655 27.9601 37.6655 27.9601 38.0755C27.8738 40.5674 27.9439 43.0623 28.1701 45.5455C28.3101 46.6655 28.3301 47.8055 28.4701 48.9155C28.5729 49.6496 28.7165 50.3773 28.9001 51.0955C29.2165 52.3739 29.6936 53.607 30.3201 54.7655C30.7576 55.567 31.1515 56.3915 31.5001 57.2355C31.6305 57.624 31.798 57.999 32.0001 58.3555C32.0562 58.4667 32.1525 58.5524 32.2696 58.5951C32.3866 58.6379 32.5155 58.6344 32.6301 58.5855C33.7856 58.2463 34.986 58.0844 36.1901 58.1055C36.6029 58.0768 37.0137 58.0234 37.4201 57.9455C38.0601 57.8855 38.2701 57.4855 38.4201 56.8855C37.5565 57.1393 36.6455 57.1873 35.7601 57.0255C35.7601 57.0255 35.6601 56.8955 35.6601 56.8255C35.6601 56.7555 35.6601 56.6355 35.7501 56.6355C36.0901 56.6355 36.4301 56.6355 36.7501 56.5655C37.3204 56.5166 37.8801 56.3817 38.4101 56.1655C38.6412 56.0156 38.8321 55.8115 38.9663 55.571C39.1005 55.3305 39.1739 55.0608 39.1801 54.7855L39.1101 54.8155ZM72.1101 79.8155C73.9901 76.4855 76.1101 73.2755 78.1901 70.0655L76.6701 68.9955C75.8101 68.4055 74.9201 67.8655 74.1101 67.2255C73.4466 66.7306 72.7405 66.2956 72.0001 65.9255C70.2073 65.0495 68.5557 63.9103 67.1001 62.5455C66.7134 62.1634 66.2024 61.9327 65.6601 61.8955C64.5468 61.8199 63.4461 61.6152 62.3801 61.2855C61.2284 60.8383 60.0362 60.5034 58.8201 60.2855C58.4601 60.2155 58.0801 59.9755 57.7601 60.1955C57.431 60.4526 57.1558 60.772 56.9501 61.1355C56.6101 61.6855 56.3501 62.2855 56.0301 62.9155C56.4059 63.3233 56.8067 63.7073 57.2301 64.0655C57.4463 64.2682 57.6019 64.5271 57.6796 64.8131C57.7573 65.0992 57.754 65.4012 57.6701 65.6855C57.655 65.8357 57.5839 65.9748 57.4708 66.0749C57.3577 66.175 57.2111 66.2287 57.0601 66.2255C56.874 66.2599 56.6817 66.229 56.5159 66.1379C56.35 66.0467 56.2208 65.901 56.1501 65.7255C55.7823 65.1303 55.3076 64.6082 54.7501 64.1855C54.4001 65.0155 54.4101 65.0055 54.6901 65.6355C55.3197 66.9143 55.8157 68.2548 56.1701 69.6355C56.2456 69.8062 56.3757 69.947 56.5401 70.0355L60.8101 72.8155C61.5801 73.3055 62.3701 73.8155 63.1101 74.2955C65.1686 75.9407 67.3941 77.3651 69.7501 78.5455C70.5627 78.9363 71.3538 79.3703 72.1201 79.8455L72.1101 79.8155ZM29.0001 54.7055C29.0001 54.5555 29.0001 54.4755 29.0001 54.3955C28.4361 53.2505 27.9905 52.0509 27.6701 50.8155C27.4582 50.0627 27.311 49.2933 27.2301 48.5155C27.2443 48.4321 27.2356 48.3464 27.2051 48.2674C27.1746 48.1885 27.1234 48.1193 27.0568 48.0671C26.9903 48.0148 26.9109 47.9816 26.8269 47.9707C26.743 47.9599 26.6577 47.9719 26.5801 48.0055C25.6559 48.2381 24.789 48.657 24.0324 49.2365C23.2758 49.816 22.6455 50.5438 22.1801 51.3755C22.0901 51.5655 21.9801 51.7355 21.8801 51.9155C21.0131 53.2313 20.289 54.636 19.7201 56.1055C19.4012 57.2613 19.1607 58.4373 19.0001 59.6255C18.8029 61.3222 18.8366 63.0378 19.1001 64.7255C19.1001 64.8655 19.2601 65.0155 19.3601 65.1355C19.3853 65.1657 19.4179 65.1889 19.4547 65.2029C19.4914 65.2169 19.5312 65.2212 19.5701 65.2155C19.6758 65.1764 19.762 65.0974 19.8101 64.9955C19.8344 64.87 19.8344 64.741 19.8101 64.6155C19.8228 63.2467 20.2365 61.9116 21.0001 60.7755C21.4211 60.078 21.8889 59.4098 22.4001 58.7755C23.7801 57.1955 25.2601 55.7755 27.4701 55.3255C28.0004 55.1729 28.5132 54.9651 29.0001 54.7055ZM30.8201 63.6455C30.954 63.6809 31.0916 63.7011 31.2301 63.7055C32.5701 63.6255 33.9001 63.5355 35.2301 63.4355C35.3946 63.4143 35.5502 63.3486 35.6801 63.2455C35.8801 63.0955 36.0301 62.8455 36.2401 62.7355C36.6801 62.5255 36.5301 63.1755 36.8401 63.1955H40.5201C40.8401 63.1955 40.9901 63.0855 40.9501 62.7555C40.9101 62.4255 40.6501 62.3655 40.4101 62.4355C40.1701 62.5055 39.6501 62.7255 39.2701 62.8555C39.2701 62.8555 39.1001 62.7755 39.0701 62.7155C39.0401 62.6555 39.0201 62.4555 39.0701 62.4255C39.3441 62.2434 39.6278 62.0765 39.9201 61.9255C40.5401 61.5855 40.6101 61.4755 40.1701 60.9255C39.7301 60.3755 39.1701 59.8755 38.7301 59.3355C38.6016 59.1692 38.4308 59.0406 38.2355 58.9632C38.0401 58.8858 37.8276 58.8624 37.6201 58.8955L35.2601 59.1455C34.2601 59.2355 33.3601 59.2955 32.4101 59.4155C32.1694 59.4743 31.9592 59.6204 31.8201 59.8255C31.3958 60.3579 31.0847 60.9713 30.9059 61.6282C30.7271 62.285 30.6843 62.9715 30.7801 63.6455H30.8201ZM47.2701 50.3755L42.0801 54.3755C42.6301 54.7155 43.0801 55.1855 43.5401 55.2155C44.0001 55.2455 44.3701 54.7755 44.7701 54.4955C46.0201 53.6255 47.2601 52.7355 48.4901 51.8655C48.3201 51.6155 48.1801 51.3555 48.0001 51.1355C47.8201 50.9155 47.5601 50.6855 47.2701 50.3755ZM49.0001 52.5455L44.4701 55.8455L45.3401 56.4955C45.5226 56.6558 45.7572 56.7442 46.0001 56.7442C46.243 56.7442 46.4776 56.6558 46.6601 56.4955C47.2701 55.9955 47.8801 55.4955 48.4801 54.9755C48.8501 54.6655 49.4801 54.3655 49.4801 53.9755C49.4801 53.5855 49.1801 53.0255 49.0001 52.5455ZM48.1901 58.7955L49.8501 57.6555C50.0529 57.5345 50.2063 57.3456 50.2832 57.1223C50.3601 56.899 50.3554 56.6557 50.2701 56.4355C50.1001 55.8055 49.9001 55.1855 49.6901 54.4355C49.0501 55.8155 47.6901 56.3655 46.8001 57.3755L48.1901 58.7955ZM45.7101 48.9955L42.7801 50.9355C42.5801 51.0755 42.2901 51.1955 42.2101 51.3855C41.9201 52.1355 41.6901 52.9055 41.4001 53.8155C42.5701 52.8655 43.6001 51.9655 44.6901 51.1555C45.3401 50.6655 46.0801 50.3055 46.8601 49.8255L45.7101 48.9955ZM51.2801 65.1955H52.6901C53.4901 65.1955 53.7601 64.9055 54.0501 63.8855C54.1501 63.5055 53.9701 63.2355 53.3201 62.8855C53.0575 62.7746 52.7867 62.6844 52.5101 62.6155C51.9801 62.4355 51.7701 62.5055 51.6701 62.9855C51.5201 63.7155 51.4201 64.4055 51.2801 65.2255V65.1955ZM48.5401 59.6455C48.7292 59.9258 48.8836 60.228 49.0001 60.5455C49.1101 60.9755 49.4101 60.8855 49.6901 60.8755C49.773 60.8814 49.8563 60.8695 49.9342 60.8404C50.0121 60.8114 50.0829 60.7659 50.1417 60.7071C50.2005 60.6483 50.246 60.5775 50.275 60.4996C50.3041 60.4217 50.316 60.3384 50.3101 60.2555C50.3101 59.6355 50.3101 59.0255 50.3101 58.2555L48.5401 59.6455ZM49.6101 63.8755C49.6101 63.4055 50.3201 62.8755 49.6101 62.3855V63.8755ZM48.0501 64.7255L48.0001 63.2455C47.7601 63.8955 47.1901 64.2655 48.0501 64.7555V64.7255Z" fill="white"/>
<path d="M33.2502 66.2555C33.2502 66.4955 33.3202 66.7455 33.2502 66.8055C31.6996 68.2618 29.9729 69.5182 28.1102 70.5455C28.0402 70.5455 27.9202 70.6255 27.8802 70.5455C27.8363 70.514 27.7994 70.4738 27.7719 70.4273C27.7443 70.3808 27.7267 70.3291 27.7202 70.2755C27.7536 70.1542 27.8324 70.0503 27.9402 69.9855C29.6802 68.7455 31.4302 67.5455 33.2502 66.2555Z" fill="white"/>
<path d="M29.2001 66.6655C27.8731 67.9558 26.3072 68.9748 24.5901 69.6655C24.4788 69.7233 24.3555 69.7541 24.2301 69.7555C24.172 69.7583 24.114 69.7481 24.0603 69.7256C24.0067 69.7031 23.9588 69.6689 23.9201 69.6255C23.9086 69.568 23.9118 69.5086 23.9293 69.4527C23.9467 69.3968 23.978 69.3462 24.0201 69.3055C24.2433 69.1217 24.4845 68.9609 24.7401 68.8255C25.9373 68.2522 27.0732 67.5586 28.1301 66.7555C28.3701 66.6055 28.7401 66.2655 29.2001 66.6655Z" fill="white"/>
<path d="M38.38 66.4755L35.38 68.7555C35.06 69.0055 34.74 69.2755 34.38 69.5155C34.2186 69.6387 34.0354 69.7303 33.84 69.7855C33.75 69.7855 33.61 69.7255 33.52 69.6555C33.43 69.5855 33.52 69.4755 33.52 69.4255C33.9293 68.9427 34.3811 68.4976 34.87 68.0955C35.77 67.4355 36.73 66.8655 37.69 66.2855C37.8 66.2155 38.01 66.2855 38.17 66.2855L38.38 66.4755Z" fill="white"/>
<path d="M42.5001 65.5955C42.3801 66.0655 42.4001 66.3455 42.2701 66.5055C41.2889 67.5413 40.1917 68.4607 39.0001 69.2455C38.9401 69.2455 38.8001 69.3055 38.7701 69.2455C38.7401 69.1855 38.6001 69.0255 38.6201 68.9355C38.6571 68.7355 38.7468 68.5491 38.8801 68.3955C39.2801 68.0355 39.7201 67.7055 40.1401 67.3955L42.5001 65.5955Z" fill="white"/>
<path d="M25.1101 66.4755C24.0001 67.2455 22.9001 68.0155 21.7801 68.7655C21.7001 68.8255 21.54 68.7655 21.3 68.7655C22.3444 67.6962 23.5615 66.8105 24.9 66.1455L25.1101 66.4755Z" fill="white"/>
<path d="M45.08 67.0455C44.9924 67.3256 44.8786 67.5968 44.74 67.8555C44.494 68.2049 44.2269 68.5388 43.94 68.8555C43.823 68.9317 43.6948 68.9891 43.56 69.0255C43.56 68.8755 43.41 68.6655 43.47 68.5755C43.86 67.9755 44.09 67.2555 45.08 67.0455Z" fill="white"/>
<path d="M48.0801 67.7655C48.0072 68.0296 47.8809 68.276 47.7089 68.4893C47.5368 68.7026 47.3228 68.8783 47.0801 69.0055C47.0801 69.0055 46.8301 68.8155 46.8301 68.7155C46.8999 68.4599 47.0259 68.2231 47.1989 68.0224C47.3719 67.8217 47.5876 67.6622 47.8301 67.5555C47.8401 67.5455 48.0001 67.6955 48.0801 67.7655Z" fill="white"/>
<path d="M33.41 70.7255C33.15 70.9255 32.99 71.0755 32.81 71.1855C32.63 71.2955 32.62 71.1855 32.53 71.1855C32.6519 70.9852 32.7889 70.7947 32.94 70.6155C32.94 70.6155 33.16 70.6455 33.41 70.7255Z" fill="white"/>
<path d="M41.2502 70.8155C41.0802 70.9255 40.9402 71.0555 40.9202 71.0355C40.8041 70.9546 40.7166 70.8391 40.6702 70.7055C40.6702 70.6055 40.7302 70.4755 40.7702 70.3655L41.2502 70.8155Z" fill="white"/>
<path d="M43.36 65.0455L43 64.7055C43.07 64.6355 43.18 64.4955 43.21 64.5055C43.3716 64.596 43.5254 64.6997 43.67 64.8154L43.36 65.0455Z" fill="white"/>
<path d="M27.0002 71.3255C26.8802 71.4255 26.8102 71.5455 26.7302 71.5455C26.6502 71.5455 26.5502 71.4655 26.4602 71.4155C26.5334 71.3045 26.6208 71.2037 26.7202 71.1155C26.7202 71.1155 26.8402 71.2255 27.0002 71.3255Z" fill="white"/>
<path d="M44.7402 70.6455C44.6102 70.7155 44.5102 70.7955 44.4302 70.7855C44.3502 70.7755 44.2902 70.6555 44.2202 70.5855L44.5302 70.3555L44.7402 70.6455Z" fill="white"/>
<path d="M26.0902 65.5455L25.6902 65.3555C25.7994 65.2378 25.9163 65.1276 26.0402 65.0255C26.0402 65.0255 26.2802 65.1755 26.2802 65.2655C26.2802 65.3555 26.1502 65.4655 26.0902 65.5455Z" fill="white"/>
<path d="M45.28 65.2855C45.13 65.3655 45.03 65.4555 44.95 65.4455C44.9034 65.4249 44.8626 65.3931 44.8312 65.353C44.7998 65.3129 44.7788 65.2657 44.77 65.2155C44.7885 65.1665 44.8194 65.1232 44.8597 65.0899C44.9001 65.0565 44.9484 65.0343 45 65.0255C45.08 65.0255 45.15 65.1555 45.28 65.2855Z" fill="white"/>
<path d="M37.9001 70.5455L37.6801 70.8355L37.3801 70.5955C37.4501 70.5255 37.5101 70.4055 37.5901 70.3955C37.6701 70.3855 37.7701 70.4355 37.9001 70.5455Z" fill="white"/>
<path d="M30.4 65.7755C30.4427 65.9116 30.4662 66.0529 30.47 66.1955C30.47 66.2755 30.38 66.3455 30.33 66.4155C30.2819 66.3585 30.2508 66.2892 30.24 66.2155C30.2473 66.0679 30.264 65.9209 30.29 65.7755H30.4Z" fill="white"/>
<path d="M21.74 71.0455C21.68 70.9555 21.6 70.8855 21.61 70.8455C21.6539 70.749 21.723 70.666 21.81 70.6055C21.81 70.6055 21.95 70.6055 22.02 70.6055L21.74 71.0455Z" fill="white"/>
<path d="M38.2301 52.3055C37.6201 52.2055 36.9301 52.1055 36.2301 51.9655C36.1888 51.9085 36.1603 51.8432 36.1465 51.7742C36.1327 51.7052 36.1339 51.634 36.1501 51.5655C36.2186 51.4341 36.3319 51.3316 36.4695 51.2766C36.6071 51.2215 36.7598 51.2176 36.9001 51.2655C37.6201 51.4055 38.3301 51.5755 39.0501 51.7155C39.1501 51.7155 39.2701 51.6055 39.3901 51.6055C39.5101 51.6055 40.0101 51.5555 40.0501 51.6055C40.2301 52.0455 39.7301 52.0555 39.5401 52.1155C39.1114 52.2251 38.6722 52.2888 38.2301 52.3055Z" fill="white"/>
<path d="M39.1402 54.7855C38.8941 54.8003 38.6498 54.8371 38.4102 54.8955C37.4702 55.2655 36.6902 54.8155 35.7202 54.4955C36.4903 54.101 37.3625 53.951 38.2202 54.0655C38.6102 54.0655 39.2202 54.0655 39.1102 54.8155L39.1402 54.7855Z" fill="white"/>
<path d="M36.5401 48.8455C36.2901 48.9755 36.1001 49.1655 35.9401 49.1355C35.8524 49.0959 35.7762 49.0348 35.7185 48.9579C35.6608 48.881 35.6235 48.7907 35.6101 48.6955C35.6101 48.5355 35.8301 48.3855 35.9501 48.2355L36.5401 48.8455Z" fill="white"/>
<path d="M35.1302 40.3255C35.2226 40.3843 35.3096 40.4513 35.3902 40.5255C35.4468 40.5724 35.4923 40.6312 35.5236 40.6978C35.5549 40.7643 35.5711 40.837 35.5711 40.9105C35.5711 40.984 35.5549 41.0567 35.5236 41.1232C35.4923 41.1898 35.4468 41.2486 35.3902 41.2955C35.3902 41.2955 35.3102 41.2955 35.2702 41.2955C34.9102 41.1955 35.0801 40.8955 35.0501 40.6755C35.0604 40.5557 35.0873 40.4379 35.1302 40.3255Z" fill="white"/>
<path d="M35 54.6155C34.92 54.4055 34.84 54.2955 34.86 54.2055C34.907 54.0681 34.9708 53.9371 35.05 53.8155C35.14 53.8755 35.31 53.9655 35.3 53.9955C35.2152 54.2091 35.1149 54.4164 35 54.6155Z" fill="white"/>
<path d="M35.1 57.5455C34.94 57.3155 34.81 57.2055 34.84 57.1555C34.9268 56.9885 35.0307 56.831 35.15 56.6855C35.2 56.7755 35.3 56.8555 35.29 56.9355C35.2454 57.1442 35.1818 57.3484 35.1 57.5455Z" fill="white"/>
<path d="M35 23.9855C35.16 23.8955 35.26 23.7955 35.34 23.8155C35.3884 23.8362 35.4306 23.8693 35.4622 23.9114C35.4938 23.9535 35.5137 24.0032 35.52 24.0555C35.4994 24.1021 35.4676 24.1429 35.4275 24.1743C35.3874 24.2057 35.3402 24.2267 35.29 24.2355C35.21 24.2355 35.13 24.1055 35 23.9855Z" fill="white"/>
<path d="M35.8701 44.5455L35.6401 44.8255C35.5601 44.7455 35.3901 44.6255 35.4101 44.5755C35.4301 44.5255 35.5801 44.3455 35.6701 44.2255L35.8701 44.5455Z" fill="white"/>
<path d="M35.2301 28.3255C35.1601 28.2355 35.0701 28.1655 35.0801 28.1355C35.119 28.0334 35.1846 27.9436 35.2701 27.8755C35.2701 27.8755 35.4201 27.8755 35.4901 27.9255L35.2301 28.3255Z" fill="white"/>
<path d="M35.2901 21.2055C35.2574 21.2765 35.2307 21.3501 35.2101 21.4255C35.1601 21.3755 35.0801 21.3255 35.0801 21.2755C35.0949 21.1984 35.1219 21.1241 35.1601 21.0555L35.2901 21.2055Z" fill="white"/>
<path d="M35.1001 51.2755C35.2001 51.3355 35.2901 51.3655 35.3001 51.4055C35.3231 51.477 35.3231 51.5539 35.3001 51.6255H35.1601C35.1601 51.6255 35.1001 51.4155 35.1001 51.2755Z" fill="white"/>
<path d="M62.11 66.7755L63.82 67.7755C64.73 66.5455 65 66.4755 66 67.1055C65.6563 67.2877 65.3225 67.4879 65 67.7055C64.64 67.9855 64.72 68.3055 65.15 68.5555C65.58 68.8055 66.09 69.0855 66.52 69.3955C66.6475 69.5063 66.8138 69.5622 66.9824 69.551C67.151 69.5397 67.3083 69.4623 67.42 69.3355C67.8574 69.0244 68.3114 68.7373 68.78 68.4755C68.913 68.3795 69.0675 68.3177 69.23 68.2955C69.4841 68.2415 69.747 68.2435 70.0002 68.3013C70.2535 68.3592 70.4912 68.4714 70.6967 68.6303C70.9022 68.7892 71.0707 68.991 71.1904 69.2215C71.3101 69.4521 71.3782 69.7059 71.39 69.9655C71.4299 70.2608 71.4299 70.5602 71.39 70.8555C71.2837 71.2358 71.3099 71.641 71.4644 72.0045C71.6188 72.3679 71.8924 72.6681 72.24 72.8555C72.359 72.9075 72.4525 73.0046 72.5 73.1255C72.5864 73.3447 72.6106 73.5834 72.57 73.8155C72.544 73.886 72.5035 73.9503 72.4512 74.0043C72.3989 74.0583 72.3359 74.1007 72.2663 74.129C72.1966 74.1572 72.1218 74.1706 72.0467 74.1683C71.9716 74.1659 71.8978 74.148 71.83 74.1155C71.34 73.9155 70.83 73.4555 70.41 73.4355C69.99 73.4155 69.56 73.9055 69.11 74.1155C68.8132 74.2502 68.495 74.3314 68.17 74.3555C68.0719 74.3424 67.9777 74.3089 67.8933 74.2573C67.8089 74.2056 67.7363 74.1369 67.68 74.0555C67.6507 73.9867 67.6409 73.9111 67.6514 73.8371C67.662 73.7631 67.6926 73.6934 67.74 73.6355C68.0945 73.3536 68.4725 73.1027 68.87 72.8855C69.19 72.6955 69.19 72.5655 68.87 72.3555C68.31 71.9955 67.76 71.6155 67.14 71.1855C66.94 71.2855 66.67 71.4455 66.38 71.5855C66.1442 71.6947 65.8889 71.7554 65.6293 71.764C65.3696 71.7726 65.1108 71.729 64.8683 71.6358C64.6258 71.5425 64.4046 71.4015 64.2176 71.2211C64.0306 71.0406 63.8818 70.8245 63.78 70.5855C63.6138 70.3002 63.5275 69.9756 63.53 69.6455C63.65 68.8455 63.18 68.4555 62.65 68.0255C62.12 67.5955 62.09 67.5455 62.11 66.7755ZM70.32 71.6455C70.3698 71.3515 70.3932 71.0536 70.39 70.7555C70.24 69.3155 69.77 69.0855 68.53 69.8155C68.4624 69.8599 68.3988 69.91 68.34 69.9655C68.04 70.1955 68.07 70.3755 68.43 70.5855L70.32 71.6455ZM66.08 70.4355C65.75 70.1855 65.43 69.9355 65.08 69.7155C64.9418 69.6591 64.7975 69.6188 64.65 69.5955C64.619 69.7708 64.619 69.9502 64.65 70.1255C65.14 70.9755 65.31 71.0155 66.08 70.4355Z" fill="white"/>
<path d="M37.1201 60.8755C37.5301 59.9655 38.2801 60.1555 38.9601 60.1655C38.9601 60.1655 39.0901 60.2655 39.1001 60.3355C39.1026 60.3761 39.0948 60.4167 39.0773 60.4534C39.0598 60.4901 39.0332 60.5218 39.0001 60.5455C38.4359 60.8843 37.766 61.0018 37.1201 60.8755Z" fill="white"/>
<path d="M35.7201 60.3755L35.4301 60.6055C35.4301 60.4955 35.3201 60.3555 35.3601 60.2855C35.4001 60.2155 35.5701 60.2155 35.6801 60.1755L35.7201 60.3755Z" fill="white"/>
<path d="M34.6701 62.4555C34.6701 62.5555 34.7901 62.6455 34.7701 62.6955C34.7175 62.7845 34.6414 62.8571 34.5501 62.9055C34.5501 62.9055 34.4101 62.9055 34.3401 62.8255L34.6701 62.4555Z" fill="white"/>
</svg>
