<svg width="90" height="90" viewBox="0 0 90 90" fill="none" xmlns="http://www.w3.org/2000/svg">
<path d="M17.0799 66.74C17.0799 65.36 17.0799 63.99 17.0799 62.61C17.0862 62.3344 17.1731 62.0667 17.3299 61.84C17.3963 61.7239 17.434 61.5936 17.4399 61.46C17.4399 60.85 17.5799 60.23 17.1499 59.67C17.0499 59.53 17.0899 59.28 17.0899 59.07C17.0899 58.38 17.0899 57.69 17.0899 57.01C17.0899 56.8 17.0899 56.54 17.0299 56.41C16.4699 55.66 16.7499 54.8 16.6899 54C16.6299 53.2 16.6899 52.21 16.6899 51.32C16.6877 51.1132 16.6174 50.9128 16.4899 50.75C16.3747 50.5789 16.3154 50.3763 16.3199 50.17C16.3199 49.55 16.3199 48.93 16.3199 48.31C16.3495 47.9539 16.2501 47.599 16.0399 47.31C15.9924 47.2605 15.961 47.1977 15.9499 47.13C15.9499 46.92 15.9499 46.71 15.9499 46.51C15.8699 45.78 16.1399 44.98 15.5899 44.32C15.5899 43.92 15.5299 43.51 15.5099 43.1C15.5059 42.6985 15.3648 42.3103 15.1099 42C15.0393 41.8862 15.0045 41.7538 15.0099 41.62C15.0099 41.35 15.0099 41.07 15.0099 40.8C14.9499 40.06 15.1899 39.28 14.6799 38.6C14.5799 38.46 14.6199 38.2 14.6199 38C14.6199 37.17 14.6199 36.35 14.6199 35.52C14.6199 35.32 14.6199 35.06 14.5499 34.92C14.0399 34.24 14.2599 33.46 14.2199 32.72C14.2298 32.312 14.1146 31.9107 13.8899 31.57C13.837 31.4437 13.8197 31.3054 13.8399 31.17C13.8399 29.58 13.8399 28 13.8399 26.41C13.8508 26.2063 13.816 26.0027 13.7382 25.8141C13.6603 25.6255 13.5413 25.4567 13.3899 25.32C13.2623 25.2054 13.1633 25.0625 13.1008 24.9027C13.0383 24.743 13.014 24.5708 13.0299 24.4C13.0541 24.2238 13.0426 24.0444 12.9962 23.8727C12.9499 23.7009 12.8695 23.5402 12.7599 23.4C12.6775 23.2903 12.632 23.1572 12.6299 23.02C12.6299 22.33 12.6299 21.65 12.6299 20.96C12.6299 20.85 12.7499 20.65 12.8399 20.64C13.3799 20.56 13.7599 20.05 14.3799 20.16C14.8617 20.215 15.3481 20.215 15.8299 20.16C15.9645 20.1607 16.0964 20.1225 16.2099 20.05C16.5006 19.8441 16.8551 19.7484 17.2099 19.78H19.4899C19.8998 19.8372 20.3165 19.7411 20.6599 19.51C20.8299 19.37 21.0499 19.42 21.2499 19.42C22.3599 19.42 23.4599 19.37 24.5599 19.37C24.6979 19.366 24.8329 19.3283 24.9531 19.2604C25.0733 19.1924 25.1752 19.0962 25.2499 18.98C25.4399 18.7 25.5299 18.36 25.7299 18.09C25.9299 17.82 25.8499 17.51 26.1199 17.39C26.3746 17.2935 26.6164 17.1658 26.8399 17.01C26.8899 17.01 26.9499 16.91 27.0099 16.91C27.6299 16.91 28.2499 16.91 28.8699 16.91C29.0055 16.9349 29.1269 17.0099 29.2099 17.12C29.5499 17.45 29.9599 17.72 30.0799 18.24C30.1118 18.3385 30.1774 18.4226 30.2652 18.4775C30.353 18.5323 30.4574 18.5545 30.5599 18.54H35.9999C36.1367 18.5441 36.2719 18.5085 36.389 18.4375C36.5061 18.3666 36.6002 18.2632 36.6599 18.14C36.9099 17.66 37.1999 17.2 37.4099 16.69C37.4433 16.6335 37.4898 16.5858 37.5455 16.551C37.6012 16.5162 37.6644 16.4953 37.7299 16.49C38.2799 16.49 38.8399 16.49 39.3799 16.49C39.9199 16.49 40.3799 16.82 40.8899 17.04C41.0467 17.1128 41.1834 17.2228 41.288 17.3605C41.3926 17.4982 41.4619 17.6594 41.4899 17.83C41.5247 17.9622 41.5937 18.0829 41.6899 18.18C41.7665 18.2929 41.8672 18.3874 41.9848 18.4566C42.1024 18.5258 42.234 18.5679 42.3699 18.58C44.0299 18.58 45.6799 18.58 47.3699 18.58C47.4899 18.58 47.6799 18.46 47.6899 18.37C47.7781 18.0391 47.92 17.725 48.1099 17.44C48.0099 16.8 48.4299 16.44 48.8299 16.05C48.9193 15.9452 49.0294 15.8601 49.1533 15.7998C49.2772 15.7396 49.4122 15.7056 49.5499 15.7C49.8257 15.7302 50.104 15.7302 50.3799 15.7C50.9799 15.58 51.3799 15.96 51.9099 16.16C52.2239 16.3013 52.4811 16.5444 52.6399 16.85C52.8235 17.1355 52.9745 17.4408 53.0899 17.76C53.1138 17.8924 53.1846 18.0117 53.2892 18.0961C53.3939 18.1806 53.5255 18.2246 53.6599 18.22C53.7997 18.2298 53.9401 18.2298 54.0799 18.22C55.0799 18.22 56.1399 18.22 57.1799 18.22C57.2804 18.2216 57.3789 18.1915 57.4614 18.1341C57.544 18.0767 57.6064 17.9948 57.6399 17.9C57.8009 17.6014 57.938 17.2904 58.0499 16.97C58.1152 16.7767 58.2209 16.5994 58.3599 16.45L59.6799 15.15C59.7812 15.0568 59.9019 14.987 60.0332 14.9455C60.1645 14.904 60.3034 14.8919 60.4399 14.91C60.6463 14.925 60.8535 14.925 61.0599 14.91C61.6499 14.91 62.0599 15.29 62.5599 15.49C63.0799 16.03 63.5599 16.57 64.1299 17.12C64.2899 17.28 64.2499 17.5 64.2699 17.71C64.2699 18.18 64.6599 18.39 65.0299 18.59C65.0956 18.6057 65.1641 18.6057 65.2299 18.59C65.4682 18.5595 65.7102 18.5765 65.9419 18.64C66.1736 18.7035 66.3904 18.8123 66.5799 18.96C67.2399 18.91 67.7299 19.34 68.2799 19.57C68.4699 19.65 68.6399 19.77 68.8299 19.84C69.0567 19.8932 69.2594 20.0203 69.406 20.2014C69.5527 20.3824 69.6349 20.6071 69.6399 20.84C69.6399 20.91 69.6399 20.98 69.6399 21.04C69.6899 21.38 70.0299 21.6 70.0099 21.98C69.9816 22.3128 69.9816 22.6473 70.0099 22.98C70.0799 23.65 69.8199 24.38 70.3499 24.98C70.3499 25.25 70.4099 25.52 70.4199 25.8C70.363 26.2096 70.4669 26.6254 70.7099 26.96C70.7574 27.0096 70.7887 27.0723 70.7999 27.14C70.8099 27.2097 70.8099 27.2804 70.7999 27.35C70.8699 28.08 70.6199 28.87 71.1599 29.53C71.1599 30.08 71.2299 30.63 71.2499 31.17C71.2158 31.5818 71.3102 31.994 71.5199 32.35C71.7599 32.7 71.6099 33.15 71.6499 33.56C71.6283 33.7643 71.6702 33.9704 71.7699 34.15C71.9508 34.358 72.0503 34.6244 72.0499 34.9C72.0499 35.45 72.0499 36 72.0499 36.56C72.0118 36.9702 72.1102 37.3815 72.3299 37.73C72.3983 37.848 72.4297 37.9839 72.4199 38.12C72.4199 38.6 72.4199 39.12 72.4899 39.56C72.4863 39.6951 72.5326 39.8269 72.6199 39.93C73.0299 40.3 72.7199 40.93 73.0599 41.27C73.3999 41.61 73.2399 42.05 73.2999 42.45C73.2999 42.52 73.2999 42.61 73.2999 42.66C73.9099 43.45 73.6199 44.38 73.6899 45.25C73.6588 45.6544 73.7683 46.0571 73.9999 46.39C74.0423 46.4455 74.0698 46.5109 74.0799 46.58C74.0848 46.6466 74.0848 46.7134 74.0799 46.78C74.2099 47.65 73.8399 48.58 74.4399 49.39C74.5099 49.48 74.4399 49.65 74.4399 49.79C74.4399 50.48 74.4399 51.17 74.4399 51.85C74.4199 52.2645 74.5244 52.6754 74.7399 53.03C74.8326 53.2826 74.8734 53.5513 74.8599 53.82C74.8599 54.02 74.8599 54.24 74.9999 54.41C75.2152 54.6965 75.3152 55.0534 75.2799 55.41C75.2799 55.75 75.3399 56.09 75.3699 56.41C75.8099 56.81 75.5399 57.49 75.9399 57.91C75.9882 57.9582 76.0256 58.0161 76.0498 58.0799C76.0739 58.1437 76.0842 58.2119 76.0799 58.28C76.0905 58.9633 76.2876 59.6306 76.6499 60.21C76.8199 60.57 77.0499 60.91 77.2299 61.28C77.3482 61.4889 77.4104 61.7249 77.4104 61.965C77.4104 62.2051 77.3482 62.4411 77.2299 62.65C77.0099 63 76.9599 63.43 76.6399 63.71C76.3617 64.0011 76.1382 64.3398 75.9799 64.71C75.7999 65.07 75.3899 65.27 75.2699 65.71C75.1499 66.15 74.6999 66.32 74.5599 66.71C74.4034 67.0861 74.1721 67.4263 73.8799 67.71C73.2999 68.3 72.7099 68.88 72.1599 69.5C71.8999 69.8 71.8099 70.23 71.4899 70.5C71.1733 70.7663 70.8851 71.0645 70.6299 71.39C70.4815 71.5789 70.286 71.7255 70.0631 71.815C69.8402 71.9045 69.5977 71.9338 69.3599 71.9C69.2199 71.9 69.0399 71.9 68.9599 71.9C68.498 72.208 67.9407 72.3393 67.3899 72.27C66.9105 72.2119 66.4253 72.3139 66.0099 72.56C65.8799 72.67 65.6199 72.65 65.4199 72.66C63.9799 72.66 62.5299 72.66 61.0799 72.66C60.8047 72.6488 60.5347 72.7376 60.3199 72.91C60.1469 73.0269 59.9359 73.0734 59.7299 73.04L50.8399 73.09C50.3644 73.0155 49.878 73.1149 49.4699 73.37C49.3504 73.4339 49.2149 73.4617 49.0799 73.45H45.9799C45.8461 73.4311 45.7172 73.387 45.5999 73.32C45.4099 73.24 45.2699 73.09 45.0399 73.09H41.9999C41.8647 73.0738 41.7278 73.1019 41.6099 73.17C41.199 73.4276 40.7086 73.5271 40.2299 73.45H36.2999C36.0275 73.4375 35.7603 73.5266 35.5499 73.7C35.3734 73.8081 35.1645 73.8506 34.9599 73.82C33.9599 73.82 33.0299 73.82 32.0599 73.82C31.6516 73.826 31.2507 73.9289 30.8899 74.12C30.4799 74.32 29.9499 74.25 29.5799 74.61C29.2399 74.61 28.8899 74.61 28.5799 74.66C28.3769 74.6433 28.1732 74.6813 27.9899 74.77C27.6379 74.9812 27.2294 75.079 26.8199 75.05C26.6085 75.0916 26.3892 75.0532 26.2045 74.9424C26.0197 74.8315 25.8827 74.6561 25.8199 74.45C25.6899 74.05 25.3799 73.76 25.2899 73.35C25.2704 73.2484 25.2132 73.1579 25.1297 73.0967C25.0462 73.0354 24.9427 73.0081 24.8399 73.02H21.7399C21.4942 73.0218 21.2565 72.9331 21.072 72.7708C20.8876 72.6085 20.7694 72.3839 20.7399 72.14C20.7399 71.94 20.7399 71.7 20.6099 71.56C20.4799 71.42 20.2799 71.65 20.1099 71.69C19.9798 71.731 19.8457 71.7579 19.7099 71.77C19.1599 71.77 18.6099 71.77 18.0599 71.77C17.7892 71.766 17.5297 71.6614 17.3319 71.4765C17.1341 71.2917 17.0122 71.0398 16.9899 70.77C16.9899 69.39 16.9899 68.01 16.9899 66.63L17.0799 66.74ZM17.8599 24.33C17.7799 24 17.6999 23.9 17.5899 24.02C17.5776 24.0413 17.5711 24.0654 17.5711 24.09C17.5711 24.1146 17.5776 24.1387 17.5899 24.16C17.618 24.2175 17.6656 24.2631 17.7242 24.2887C17.7828 24.3144 17.8486 24.3184 17.9099 24.3C17.8999 24.4932 17.8999 24.6868 17.9099 24.88C17.916 24.9051 17.9271 24.9286 17.9425 24.9493C17.958 24.9699 17.9775 24.9872 17.9999 25C18.0899 25 18.1799 25 18.2099 24.81C18.2399 24.62 18.2399 24.46 17.8599 24.33ZM17.8599 45.39C17.9093 45.3989 17.96 45.3967 18.0085 45.3836C18.0569 45.3706 18.1019 45.3469 18.1401 45.3144C18.1784 45.2819 18.2089 45.2414 18.2296 45.1956C18.2503 45.1499 18.2607 45.1002 18.2599 45.05C18.2599 44.16 18.2599 43.26 18.2599 42.37C18.2615 41.8282 18.1164 41.296 17.8399 40.83C17.7393 40.6541 17.6291 40.4839 17.5099 40.32C17.4556 40.2349 17.4267 40.136 17.4267 40.035C17.4267 39.934 17.4556 39.8352 17.5099 39.75C17.7099 39.36 17.7099 39.31 17.5099 39.08C17.4163 38.9823 17.3124 38.8952 17.1999 38.82C17.0799 38.74 16.6699 38.89 16.6699 39.01C16.6699 39.62 16.6699 40.23 16.6699 40.85C16.6898 40.9819 16.7375 41.108 16.8099 41.22C16.9418 41.5278 17.1025 41.8224 17.2899 42.1C17.5499 42.46 17.4099 42.73 17.1799 43.01C17.1218 43.0937 17.0907 43.1932 17.0907 43.295C17.0907 43.3969 17.1218 43.4963 17.1799 43.58C17.2599 43.76 17.4699 43.94 17.4499 44.11C17.4499 44.64 17.7999 44.98 17.9299 45.43C17.6099 45.5 17.5299 45.58 17.6199 45.68C17.7112 45.7411 17.8129 45.7852 17.9199 45.81C17.9199 46.63 17.9199 47.45 17.9199 48.27C17.9199 48.51 18.0699 48.62 18.2599 48.72C18.7199 48.96 18.7899 49.13 18.5599 49.45C18.3849 49.6575 18.2861 49.9186 18.2799 50.19C18.246 50.6008 18.3633 51.0098 18.6099 51.34C18.67 51.421 18.7024 51.5192 18.7024 51.62C18.7024 51.7209 18.67 51.819 18.6099 51.9C18.4792 52.0528 18.3867 52.2345 18.3399 52.43C18.3399 53.18 18.3399 53.93 18.3999 54.68C18.3999 54.76 18.5899 54.87 18.6999 54.9C18.7998 54.9088 18.8946 54.948 18.9715 55.0124C19.0484 55.0768 19.1037 55.1632 19.1299 55.26C19.1534 55.3229 19.1584 55.3912 19.1442 55.4568C19.13 55.5224 19.0973 55.5825 19.0499 55.63C18.7899 55.85 18.7899 56.05 19.0499 56.3C19.1277 56.411 19.1664 56.5447 19.1599 56.68C19.1599 58.04 19.1599 59.41 19.1599 60.78C19.1599 60.98 19.3499 61.05 19.5499 60.93C19.7499 60.81 19.9999 60.82 19.9899 61.01C20.0092 61.3431 20.0092 61.677 19.9899 62.01C19.9774 62.1119 19.9252 62.2047 19.8447 62.2683C19.7642 62.332 19.6619 62.3613 19.5599 62.35C19.4912 62.3375 19.4203 62.351 19.3611 62.388C19.3019 62.425 19.2587 62.4828 19.2399 62.55C19.1399 63.3569 19.1399 64.1731 19.2399 64.98C19.2399 65.04 19.3099 65.1 19.3599 65.15C19.6499 65.4 19.6199 65.75 19.6399 66.09C19.5897 66.0815 19.5384 66.0835 19.489 66.0958C19.4396 66.108 19.3933 66.1304 19.353 66.1613C19.3126 66.1923 19.2791 66.2313 19.2545 66.2758C19.2298 66.3203 19.2147 66.3694 19.2099 66.42C19.2099 67.24 19.2099 68.07 19.2099 68.9C19.1871 69.0303 19.1502 69.1577 19.0999 69.28C19.0462 69.5787 19.0882 69.8867 19.2199 70.16C19.3599 70.6 19.6499 70.62 20.0099 70.61C20.2099 70.61 20.4599 70.43 20.4699 70.28C20.4799 70.13 20.4699 69.73 20.4699 69.46C20.4879 69.2522 20.4545 69.0431 20.3725 68.8512C20.2905 68.6594 20.1625 68.4907 19.9999 68.36C19.9732 68.3038 19.9594 68.2423 19.9594 68.18C19.9594 68.1178 19.9732 68.0563 19.9999 68C20.1699 67.63 20.3799 67.28 20.5799 66.93C20.6415 66.8139 20.695 66.6936 20.7399 66.57C20.7599 66.5049 20.7599 66.4352 20.7399 66.37C20.6799 66.17 20.5999 66.19 20.4399 66.28C19.8199 66.63 19.7699 66.62 19.5299 66.1C19.5964 66.1056 19.6633 66.1056 19.7299 66.1C20.0199 65.96 19.9099 65.61 20.0999 65.41C20.2899 65.21 20.4699 65 20.6499 64.79C20.7149 64.7112 20.7505 64.6122 20.7505 64.51C20.7505 64.4078 20.7149 64.3088 20.6499 64.23C20.422 63.9488 20.311 63.5908 20.3399 63.23C20.3399 62.89 20.3399 62.54 20.3399 62.23C20.3399 61.68 20.3399 61.13 20.3399 60.58C20.3423 60.3045 20.2506 60.0364 20.0799 59.82C20.0062 59.7103 19.9647 59.5821 19.9599 59.45C19.9599 58.14 19.9599 56.83 19.9099 55.52C19.9017 55.3484 19.8518 55.1814 19.7647 55.0333C19.6776 54.8853 19.5559 54.7606 19.4099 54.67C19.2366 54.5713 19.0519 54.494 18.8599 54.44C18.8271 54.427 18.7974 54.4074 18.7724 54.3825C18.7475 54.3575 18.7279 54.3278 18.7148 54.2951C18.7017 54.2623 18.6954 54.2273 18.6962 54.192C18.6971 54.1568 18.7052 54.1221 18.7199 54.09C18.9699 53.61 19.1599 53.09 19.4499 52.65C19.4927 52.5562 19.5042 52.451 19.4826 52.3502C19.4609 52.2493 19.4074 52.1581 19.3299 52.09C19.1499 51.9 19.2199 51.73 19.3299 51.57C19.3955 51.4915 19.4355 51.3948 19.4445 51.2929C19.4534 51.191 19.4309 51.0887 19.3799 51C19.2308 50.7736 19.1319 50.5178 19.0899 50.25C19.0299 49.39 19.3299 48.47 18.7399 47.68C19.2399 47.2 18.7399 47.01 18.4799 46.73C18.4279 46.6828 18.387 46.6248 18.3599 46.56C18.3376 46.4992 18.3364 46.4327 18.3563 46.3711C18.3762 46.3094 18.4162 46.2563 18.4699 46.22C18.6199 46.08 18.6099 45.96 18.4199 45.91C18.2175 45.883 18.0139 45.8663 17.8099 45.86L17.8599 45.39ZM41.7099 44.12C42.1499 43.68 42.5799 43.24 43.0299 42.81C43.1266 42.7105 43.2379 42.6262 43.3599 42.56C43.425 42.54 43.4947 42.54 43.5599 42.56C43.7576 42.6136 43.9356 42.7234 44.0722 42.876C44.2089 43.0286 44.2984 43.2176 44.3299 43.42C44.3348 43.4899 44.3348 43.5601 44.3299 43.63C44.3299 44.01 44.6899 44.21 44.7199 44.55C44.7499 44.89 45.1199 45.1 45.1399 45.47C45.1073 45.8097 45.1552 46.1523 45.2799 46.47C45.4775 46.8315 45.5774 47.2382 45.5699 47.65C45.5699 47.99 45.5699 48.33 45.5699 48.65C45.5708 48.7176 45.5859 48.7842 45.6143 48.8455C45.6427 48.9069 45.6837 48.9615 45.7347 49.0059C45.7857 49.0502 45.8455 49.0833 45.9101 49.103C45.9748 49.1227 46.0428 49.1285 46.1099 49.12H47.5499C47.7206 49.1443 47.8821 49.2123 48.0188 49.3174C48.1555 49.4226 48.2626 49.5613 48.3299 49.72C48.4399 49.9 48.3299 50.09 48.2499 50.29C48.0299 50.78 47.7699 51.29 47.5499 51.75C47.1869 52.6397 46.5932 53.4164 45.8299 54C45.769 54.0293 45.7024 54.0445 45.6349 54.0445C45.5674 54.0445 45.5007 54.0293 45.4399 54C45.1399 53.84 44.8499 53.68 44.5299 53.54C44.341 53.4509 44.189 53.2989 44.0999 53.11C43.8706 52.6086 43.5284 52.167 43.0999 51.82C42.7576 51.4008 42.4872 50.9277 42.2999 50.42C42.2199 50.28 42.4199 49.96 42.5899 49.95C42.7599 49.94 43.1399 49.95 43.4099 49.95C43.6799 49.95 43.9899 49.6 44.3399 49.55C44.6899 49.5 44.7199 49.23 44.7499 48.95C44.7829 48.7102 44.7653 48.4662 44.6981 48.2336C44.6309 48.0011 44.5157 47.7852 44.3599 47.6C44.3736 47.1309 44.2484 46.6682 43.9999 46.27C44.0799 45.68 43.5899 45.27 43.4699 44.75C43.4699 44.62 43.0299 44.54 42.9299 44.63L41.7099 45.75C41.6099 45.84 41.2099 45.75 41.1699 45.62C40.9996 45.1699 40.7174 44.7707 40.3499 44.46C40.1299 44.23 40.0899 44.23 39.6899 44.46C39.5571 44.5396 39.4076 44.5872 39.2532 44.5991C39.0989 44.6111 38.9438 44.587 38.8004 44.5289C38.6569 44.4707 38.5289 44.38 38.4264 44.2639C38.3239 44.1479 38.2498 44.0096 38.2099 43.86C38.1797 43.5842 38.1797 43.3059 38.2099 43.03C38.2099 42.66 37.8599 42.45 37.8399 42.1C37.8249 41.8236 37.8249 41.5465 37.8399 41.27C37.8518 40.9283 37.7459 40.5929 37.5399 40.32C37.4805 40.1981 37.4464 40.0655 37.4399 39.93C37.4399 39.8 37.4399 39.65 37.4399 39.52C37.4399 39.39 37.3499 39.35 37.3299 39.36C37.2146 39.3779 37.105 39.4224 37.0099 39.49C36.8061 39.6723 36.6572 39.9078 36.5799 40.17C36.4399 40.51 35.9599 40.4 35.7499 40.7C35.5592 40.8952 35.4395 41.1487 35.4099 41.42C35.4099 42.18 35.4099 42.94 35.4099 43.7C35.41 43.836 35.3681 43.9687 35.2899 44.08C35.181 44.2204 35.1018 44.3814 35.0571 44.5533C35.0124 44.7252 35.0032 44.9044 35.0299 45.08C35.0401 45.2851 35.002 45.4896 34.9186 45.6772C34.8352 45.8648 34.7089 46.0302 34.5499 46.16L34.0899 46.58C34.0062 46.6381 33.9067 46.6692 33.8049 46.6692C33.703 46.6692 33.6036 46.6381 33.5199 46.58C33.1943 46.3268 32.9079 46.0269 32.6699 45.69C32.2199 44.79 31.7399 43.89 31.3299 42.97C31.3899 42.52 31.0499 42.21 30.9499 41.83C30.8111 41.4422 30.5732 41.0974 30.2599 40.83C30.1658 40.7316 30.1061 40.6052 30.0899 40.47C30.1699 39.94 29.7499 39.59 29.6499 39.13C29.5499 38.67 29.2799 38.78 28.9999 38.79C28.5099 38.79 28.2899 38.44 27.9999 38.12C27.9713 37.6429 27.8197 37.1812 27.5599 36.78C27.6699 36.25 27.2399 35.9 27.1199 35.44C26.9999 34.98 26.6799 34.98 26.3299 35.25C25.9213 35.5037 25.4317 35.5931 24.9599 35.5C24.89 35.489 24.8262 35.4535 24.7799 35.4L23.9199 34.52C23.6599 33.68 22.9799 33.01 22.9199 32.08C22.9199 31.82 22.4699 31.69 22.2699 31.88C22.0699 32.07 21.8099 32.27 21.7499 32.5C21.6692 32.899 21.5452 33.288 21.3799 33.66C21.2246 34.1855 21.2246 34.7446 21.3799 35.27C21.8799 35.79 21.6799 36.44 21.7499 37.04C21.7445 37.1738 21.7793 37.3062 21.8499 37.42C22.0291 37.7752 22.082 38.1808 21.9999 38.57C21.9999 38.98 22.0499 39.39 22.0799 39.8C22.5599 40.32 22.3799 40.97 22.4399 41.57C22.436 41.7068 22.4707 41.842 22.5399 41.96C22.7762 42.3013 22.8761 42.7187 22.8199 43.13C22.8199 43.67 22.8799 44.22 22.9099 44.77C23.4699 45.5 23.1699 46.36 23.2599 47.17C23.2599 47.37 23.2599 47.58 23.2599 47.79C23.2592 47.9246 23.2974 48.0566 23.3699 48.17C23.5711 48.4629 23.6664 48.8157 23.6399 49.17C23.6399 49.65 23.6899 50.17 23.7099 50.61C24.1699 51.13 24.0199 51.78 24.0799 52.38C24.0892 52.5131 24.1267 52.6426 24.1899 52.76C24.3876 53.0545 24.4825 53.406 24.4599 53.76C24.4599 54.38 24.4599 55 24.4599 55.62C24.4392 55.7574 24.4637 55.8978 24.5299 56.02C24.9899 56.55 24.7999 57.2 24.8699 57.8C24.884 57.9335 24.9248 58.0627 24.9899 58.18C25.1424 58.4051 25.2289 58.6684 25.2399 58.94C25.2399 59.49 25.2399 60.04 25.2399 60.59C25.2391 60.7958 25.2981 60.9973 25.4099 61.17C25.539 61.3297 25.6158 61.5252 25.6299 61.73C25.6299 62.22 25.6299 62.73 25.6299 63.18C25.6392 63.3144 25.6803 63.4447 25.7499 63.56C25.9064 63.7831 25.9934 64.0476 25.9999 64.32C25.9999 64.87 26.0699 65.42 26.0999 65.96C26.5499 66.49 26.3899 67.14 26.4599 67.74C26.4642 67.8739 26.502 68.0046 26.5699 68.12C26.8096 68.3556 26.9614 68.6662 26.9999 69C26.9999 70.24 26.9999 71.48 26.9999 72.72C27.0118 72.9217 27.0385 73.1223 27.0799 73.32C27.1067 73.3854 27.1565 73.4388 27.2199 73.47C27.8802 73.5997 28.5595 73.5997 29.2199 73.47C29.3999 73.47 29.5599 73.21 29.7499 73.18C30.0812 73.1283 30.4186 73.1283 30.7499 73.18C31.2199 73.25 31.4899 72.84 31.8899 72.79H32.2999H35.1999C35.3999 72.79 35.6599 72.79 35.7999 72.73C36.5499 72.19 37.3999 72.49 38.2099 72.4C38.5499 72.4 38.8999 72.4 39.2099 72.4C39.3451 72.4051 39.4783 72.3665 39.5899 72.29C39.881 72.0849 40.2351 71.9893 40.5899 72.02C42.3799 72.02 44.1699 72.02 45.9599 72.02H49.4799C49.8898 72.0772 50.3065 71.9811 50.6499 71.75C50.766 71.6763 50.9026 71.6412 51.0399 71.65H52.6899H59.6899C59.8966 71.6843 60.1088 71.6454 60.2899 71.54C60.5072 71.3722 60.7754 71.284 61.0499 71.29H64.7699C65.0003 71.2907 65.2284 71.2441 65.44 71.1529C65.6516 71.0617 65.8422 70.928 65.9999 70.76C66.1198 70.6966 66.2543 70.6656 66.3899 70.67C66.7999 70.67 67.2099 70.67 67.6299 70.67C67.8337 70.6836 68.0375 70.6422 68.2199 70.55C68.4999 70.37 68.8399 70.27 69.1199 70.08C69.2986 69.9738 69.4335 69.8071 69.4999 69.61C69.573 69.3815 69.5992 69.1406 69.5768 68.9017C69.5545 68.6629 69.4841 68.431 69.3699 68.22C69.2496 68.054 69.1833 67.855 69.1799 67.65C69.1799 67.1 69.1799 66.55 69.1799 66C69.2101 65.761 69.192 65.5184 69.1268 65.2865C69.0615 65.0546 68.9503 64.8382 68.7999 64.65C68.7687 64.1748 68.6211 63.7146 68.3699 63.31C68.3099 63.21 68.3699 63.04 68.3699 62.9C68.3699 62.76 68.5399 62.44 68.6799 62.43H72.1999C72.3013 62.4501 72.4056 62.4498 72.5069 62.4292C72.6082 62.4086 72.7044 62.3681 72.7899 62.31C72.9234 62.1896 73.084 62.1031 73.2581 62.0578C73.4322 62.0126 73.6146 62.0099 73.7899 62.05C74.404 62.0685 75.0108 61.9124 75.5399 61.6C75.7099 61.53 75.7499 61.44 75.6799 61.32C75.5199 61.01 75.3999 60.7 75.2199 60.41C75.0648 60.1841 74.9875 59.9138 74.9999 59.64C75.0257 59.4353 75.0069 59.2274 74.9447 59.0306C74.8826 58.8338 74.7786 58.6528 74.6399 58.5C74.6399 58.13 74.3199 57.89 74.2199 57.57C74.1576 57.3014 74.1407 57.0242 74.1699 56.75C74.1699 56.38 73.8099 56.17 73.7999 55.81C73.7849 55.5369 73.7849 55.2632 73.7999 54.99C73.8313 54.6322 73.7279 54.2755 73.5099 53.99C73.3299 53.75 73.4199 53.46 73.3799 53.19C73.4014 52.9857 73.3595 52.7797 73.2599 52.6C73.0842 52.3858 72.9887 52.1171 72.9899 51.84C72.9899 50.84 72.9899 49.91 72.9899 48.95C72.9974 48.7449 72.9415 48.5423 72.8299 48.37C72.7061 48.2052 72.6362 48.0061 72.6299 47.8C72.6299 47.25 72.5599 46.69 72.6299 46.15C72.6361 45.6032 72.5054 45.0635 72.2499 44.58C72.2142 44.3783 72.2142 44.1718 72.2499 43.97C72.2906 43.5583 72.1881 43.1451 71.9599 42.8C71.8758 42.6152 71.8381 42.4127 71.8499 42.21C71.8918 41.8573 71.8029 41.5015 71.5999 41.21C71.4793 41.0419 71.4225 40.8362 71.4399 40.63C71.4399 40.36 71.4399 40.03 71.3199 39.83C71.0754 39.4135 70.9671 38.9311 71.0099 38.45C71.0099 37.8967 71.0099 37.3467 71.0099 36.8C71.0054 36.6648 70.9639 36.5333 70.8899 36.42C70.7359 36.1956 70.6492 35.932 70.6399 35.66C70.6399 35.11 70.5799 34.57 70.5399 34.02C70.3632 33.8391 70.2245 33.6247 70.1318 33.3895C70.039 33.1542 69.9942 32.9028 69.9999 32.65C69.9999 32.17 69.9999 31.65 69.9999 31.2C70.0575 30.722 69.9325 30.2398 69.6499 29.85C69.5799 29.76 69.6499 29.58 69.6499 29.45C69.6499 28.89 69.6499 28.34 69.6499 27.79C69.6494 27.6529 69.6208 27.5173 69.5658 27.3918C69.5107 27.2662 69.4304 27.1533 69.3299 27.06C69.1933 26.9068 69.0462 26.7631 68.8899 26.63C68.7383 26.4864 68.5387 26.4044 68.3299 26.4C67.9899 26.4 67.6399 26.4 67.3299 26.4C67.1939 26.4024 67.0603 26.4367 66.9399 26.5C66.6445 26.6943 66.2919 26.7824 65.9399 26.75H57.4599H44.6399C44.3699 26.75 44.0999 26.75 43.8199 26.81C43.1599 27.36 42.3699 27.11 41.6399 27.14C40.4699 27.14 39.2899 27.14 38.1199 27.14C37.9165 27.1105 37.709 27.1492 37.5299 27.25C37.2416 27.4609 36.8852 27.5572 36.5299 27.52H32.8099C32.6099 27.52 32.3499 27.52 32.2099 27.6C31.6653 27.9025 31.0321 28.0051 30.4199 27.89C27.6599 27.89 24.9099 27.89 22.1499 27.94C21.5299 27.94 20.9099 27.94 20.2899 27.94C20.1899 27.94 20.0199 28.11 20.0199 28.21C20.0199 28.88 19.8499 29.58 20.3199 30.21C20.4299 30.35 20.3799 30.61 20.3999 30.81C20.4199 31.01 20.3999 31.49 20.4899 31.81C20.4899 31.97 20.6599 32.02 20.8099 31.99C20.8762 31.9997 20.9436 31.9997 21.0099 31.99C21.039 31.999 21.0695 32.0024 21.0999 32C21.451 31.2542 22.0101 30.6257 22.7099 30.19C22.7799 30.13 22.9899 30.19 23.0899 30.25C23.3028 30.4259 23.5065 30.6128 23.6999 30.81C23.8221 30.9276 23.9189 31.0691 23.9842 31.2256C24.0496 31.3821 24.0822 31.5504 24.0799 31.72C24.0265 31.9937 24.0726 32.2774 24.2099 32.52C24.5099 32.89 24.5299 33.42 24.9499 33.73C25.0999 33.84 25.1599 33.88 25.2799 33.73C25.4128 33.5704 25.5565 33.4201 25.7099 33.28C25.891 33.1251 26.1215 33.04 26.3599 33.04C26.5982 33.04 26.8288 33.1251 27.0099 33.28C27.4364 33.6224 27.7757 34.0611 27.9999 34.56C28.1699 34.99 28.4899 35.38 28.6299 35.82C28.7699 36.26 29.0499 36.31 29.3999 36.3C29.6046 36.3137 29.797 36.4028 29.9399 36.55C30.3199 36.8 30.2899 37.28 30.5499 37.6C30.7101 37.8264 30.7781 38.1053 30.7399 38.38C30.7248 38.5496 30.7446 38.7204 30.7979 38.882C30.8512 39.0436 30.9369 39.1927 31.0499 39.32C31.3226 39.5351 31.5104 39.8397 31.5799 40.18C32.0899 40.62 31.8399 41.37 32.2699 41.85C32.3355 41.9695 32.3699 42.1037 32.3699 42.24C32.3699 42.37 32.3699 42.54 32.4199 42.64C32.7999 43.21 32.9899 43.87 33.3499 44.45C33.3736 44.4602 33.3991 44.4654 33.4249 44.4654C33.4507 44.4654 33.4762 44.4602 33.4999 44.45C33.6231 44.3875 33.7321 44.3002 33.8198 44.1934C33.9076 44.0867 33.9723 43.963 34.0099 43.83C34.0537 43.4986 34.0738 43.1644 34.0699 42.83C34.0699 42.49 34.0699 42.14 34.0699 41.83C34.0699 41.52 34.4299 41.24 34.4299 40.83C34.4299 40.42 34.4299 40.15 34.4299 39.83C34.4097 39.6238 34.4097 39.4162 34.4299 39.21C34.4694 39.0432 34.548 38.8881 34.6593 38.7577C34.7706 38.6273 34.9113 38.5253 35.0699 38.46C35.1899 38.4 35.3399 38.46 35.4799 38.46C35.9699 38.38 36.0199 38.32 36.0299 37.8C36.0299 37.52 36.0299 37.25 36.0299 36.97C36.0314 36.7621 36.0978 36.5598 36.2196 36.3913C36.3415 36.2229 36.5129 36.0966 36.7099 36.03C36.7732 36.0099 36.8406 36.0066 36.9056 36.0207C36.9705 36.0347 37.0306 36.0655 37.0799 36.11C37.5037 36.7274 37.8403 37.4005 38.0799 38.11C38.0799 38.74 38.6599 39.21 38.5399 39.86C38.8638 40.3116 39.0065 40.8683 38.9399 41.42C38.9399 41.49 38.9399 41.56 38.9399 41.63C38.9399 42.1 39.2699 42.35 39.5799 42.63C40.0499 42.63 40.2999 42.98 40.5799 43.25C40.9242 43.5798 41.303 43.8715 41.7099 44.12ZM56.8699 25.59V25.54H68.4499C68.582 25.5652 68.7177 25.5652 68.8499 25.54C68.9122 25.516 68.9691 25.4797 69.0172 25.4334C69.0653 25.387 69.1036 25.3314 69.1299 25.27C69.1299 25.07 69.2299 24.8 69.1299 24.66C68.8364 24.1925 68.7161 23.637 68.7899 23.09C68.7899 22.82 68.7899 22.54 68.7899 22.27C68.7445 22.0704 68.6448 21.8873 68.5019 21.7408C68.3589 21.5943 68.1783 21.4902 67.9799 21.44C67.3599 21.44 66.7399 21.44 66.1199 21.44C65.8483 21.4593 65.5864 21.5489 65.3599 21.7C65.2412 21.7678 65.1065 21.8024 64.9699 21.8C64.7624 21.7715 64.5513 21.8131 64.3702 21.9181C64.189 22.0232 64.0481 22.1858 63.9699 22.38C63.6363 23.0557 63.1502 23.6445 62.5499 24.1C62.4583 24.1997 62.3342 24.2635 62.1999 24.28C61.7202 24.305 61.2396 24.305 60.7599 24.28C60.6199 24.28 60.5599 24.1 60.5699 23.96C60.5799 23.82 60.5699 23.79 60.5699 23.76C60.9486 23.4838 61.358 23.2523 61.7899 23.07C62.1799 22.87 62.2199 22.76 62.1599 22.22C62.1599 22.01 61.9999 21.95 61.7599 22.04C61.5766 22.1285 61.3811 22.1891 61.1799 22.22C60.1799 22.22 59.2499 22.22 58.2899 22.22C58.0119 22.2108 57.7394 22.2993 57.5199 22.47C57.3475 22.5791 57.1414 22.6218 56.9399 22.59H53.1899C53.0531 22.5946 52.9193 22.6314 52.7994 22.6975C52.6795 22.7635 52.5769 22.8569 52.4999 22.97C52.4099 23.07 52.2699 23.17 52.2499 23.29C52.1299 24.03 51.4899 24.19 50.9699 24.48C50.4499 24.77 50.3899 24.75 49.9699 24.26C49.8399 24.12 49.8299 23.98 49.9699 23.95C50.6399 23.8 50.9699 23.27 51.3699 22.79C51.3699 22.79 51.3699 22.66 51.3699 22.6C51.3699 22.54 51.3199 22.3 51.1699 22.28C50.5066 22.1843 49.8331 22.1843 49.1699 22.28C48.6399 22.74 47.9899 22.56 47.3899 22.57L42.3899 22.63C42.2867 22.6306 42.1847 22.6522 42.0902 22.6934C41.9956 22.7347 41.9105 22.7948 41.8399 22.87C41.5899 23.1 41.3599 23.36 41.1299 23.61C41.0299 24.21 40.5599 24.53 40.1299 24.91C40.0262 25.0009 39.9017 25.0649 39.7674 25.0963C39.6331 25.1277 39.4931 25.1255 39.3599 25.09C39.2316 25.0667 39.1171 24.9951 39.0399 24.89C39.0106 24.8292 38.9954 24.7625 38.9954 24.695C38.9954 24.6275 39.0106 24.5609 39.0399 24.5C39.1899 24.27 39.3999 24.09 39.5699 23.87C39.6545 23.7644 39.7282 23.6505 39.7899 23.53C39.8599 23.41 39.6799 23.02 39.5499 23.02H31.0699C30.7799 23.02 30.5999 23.28 30.4299 23.5C30.2599 23.72 30.2399 24.15 29.9499 24.39C29.691 24.6171 29.444 24.8574 29.2099 25.11L29.0599 25.26C28.9354 25.3782 28.7827 25.4623 28.6163 25.5043C28.4499 25.5464 28.2755 25.5449 28.1099 25.5C27.9499 25.5 27.8699 25.34 27.9099 25.23C28.0232 25.0612 28.1235 24.8841 28.2099 24.7C28.3199 24.27 28.7599 24.09 28.9199 23.7C28.94 23.6486 28.94 23.5915 28.9199 23.54C28.9199 23.49 28.8099 23.42 28.7599 23.42H21.7599C21.622 23.418 21.4864 23.4562 21.3699 23.53C21.0292 23.7681 20.6123 23.8714 20.1999 23.82C20.0299 23.8244 19.863 23.8661 19.7109 23.9421C19.5589 24.0181 19.4254 24.1267 19.3199 24.26C19.1899 24.4 19.1899 24.47 19.3199 24.61C19.4654 24.7563 19.548 24.9537 19.5499 25.16C19.5499 25.51 19.5499 25.85 19.5499 26.16C19.5762 26.3953 19.6798 26.6152 19.8445 26.7853C20.0091 26.9554 20.2256 27.0661 20.4599 27.1C22.2599 27.1 24.0499 27.1 25.8399 27.1C26.5699 27.1 27.3499 27.29 28.0399 26.79C28.1799 26.69 28.4399 26.74 28.6399 26.73H33.1899C33.3899 26.73 33.6499 26.73 33.7899 26.66C34.4699 26.13 35.2499 26.36 35.9799 26.34C37.4299 26.34 38.8799 26.34 40.3199 26.34C40.5266 26.3743 40.7388 26.3354 40.9199 26.23C41.2036 26.0091 41.5627 25.9085 41.9199 25.95C42.4699 25.95 43.0199 25.95 43.5699 25.95C43.7799 25.95 44.0299 25.95 44.1699 25.87C44.7161 25.5722 45.3476 25.4699 45.9599 25.58L56.8699 25.59ZM25.3299 69.59V68.77C25.3111 68.437 25.3111 68.1031 25.3299 67.77C25.3299 67.32 25.0699 67 24.9599 66.62C24.8796 66.214 24.8796 65.7961 24.9599 65.39C25.0199 64.87 24.6799 64.49 24.5699 64.04C24.5597 63.9035 24.5597 63.7665 24.5699 63.63C24.5299 63.2177 24.5299 62.8024 24.5699 62.39C24.6499 61.86 24.1999 61.52 24.1599 61.04C24.1199 60.56 24.2799 59.81 23.8299 59.26C23.7199 59.13 23.7699 58.87 23.7599 58.67C23.7499 58.47 23.7099 57.99 23.6599 57.67C23.6099 57.35 23.5399 57.51 23.3699 57.62C23.0199 57.85 22.8999 57.77 22.8899 57.38C22.858 57.1059 22.9332 56.83 23.0999 56.61C23.1899 56.51 23.3099 56.39 23.3099 56.27C23.3099 55.52 23.3099 54.76 23.3099 54C23.3099 53.94 23.2499 53.88 23.2099 53.83C23.0416 53.6117 22.947 53.3456 22.9399 53.07C22.9399 52.66 22.8799 52.26 22.8499 51.85C22.5664 51.457 22.4447 50.9702 22.5099 50.49C22.5099 50.14 22.2799 50.07 21.9999 49.96C21.9349 49.9432 21.8753 49.9104 21.8263 49.8645C21.7774 49.8186 21.7408 49.7612 21.7199 49.6974C21.699 49.6337 21.6944 49.5657 21.7066 49.4998C21.7189 49.4338 21.7475 49.372 21.7899 49.32C21.8899 49.14 22.0999 48.98 22.0999 48.81C22.0999 48.05 22.0999 47.29 22.0999 46.54C21.8353 46.2213 21.7029 45.8134 21.7299 45.4C21.7529 45.0671 21.7529 44.733 21.7299 44.4C21.7413 44.2682 21.7135 44.136 21.6499 44.02C21.3854 43.6118 21.2787 43.1212 21.3499 42.64C21.3499 42.37 21.3499 42.09 21.3499 41.82C21.3499 41.55 21.0899 41.39 20.8099 41.34C20.7764 41.3316 20.7454 41.3155 20.7194 41.2929C20.6933 41.2703 20.6729 41.2419 20.6599 41.21C20.6599 41.21 20.6599 41.09 20.6599 41.05C20.843 40.8466 20.946 40.5837 20.9499 40.31C20.8899 39.77 21.0499 39.2 20.6499 38.73C20.5748 38.6145 20.5397 38.4775 20.5499 38.34C20.5499 37.73 20.5499 37.11 20.4799 36.49C20.4835 36.3564 20.4488 36.2245 20.3799 36.11C20.1697 35.8211 20.0703 35.4661 20.0999 35.11C20.1207 34.9324 20.1058 34.7524 20.056 34.5807C20.0062 34.409 19.9225 34.2489 19.8099 34.11C19.6699 33.94 19.7199 33.72 19.6899 33.52C19.6599 33.32 19.7499 32.96 19.5599 32.73C19.3453 32.4435 19.2487 32.0856 19.2899 31.73C19.2814 31.5286 19.258 31.328 19.2199 31.13C19.2199 31.13 18.9999 31 18.9299 31C18.8599 31 18.8199 31.05 18.7999 31.1C18.6532 31.624 18.6259 32.1741 18.7199 32.71C18.7199 32.82 18.8399 32.96 18.9399 33.05C19.0399 33.14 19.0699 33.26 18.9399 33.39C18.8372 33.4806 18.7699 33.6046 18.7499 33.74C18.7499 34.74 18.7499 35.8 18.7499 36.84C18.7499 36.97 18.9999 37.12 19.2199 37.13C19.3561 37.1147 19.4936 37.1147 19.6299 37.13C19.7299 37.13 19.7999 37.28 19.8899 37.36C19.9799 37.44 19.7899 37.49 19.7399 37.5C19.4671 37.536 19.2157 37.667 19.0299 37.87C18.7999 38.12 18.6799 38.38 18.8399 38.59C19.075 38.9296 19.191 39.3375 19.1699 39.75C19.1346 39.9548 19.1774 40.1653 19.2899 40.34C19.4695 40.552 19.5655 40.8222 19.5599 41.1C19.5599 41.58 19.5599 42.1 19.5599 42.54C19.5545 42.8963 19.6593 43.2455 19.8599 43.54C19.939 43.7261 19.9733 43.9282 19.9599 44.13C19.9904 44.3384 20.093 44.5295 20.2499 44.67C20.3599 44.8 20.3499 44.87 20.2499 45.01C19.8899 45.4 20.0199 45.61 20.2499 45.9C20.327 46.0125 20.4279 46.1066 20.5454 46.1757C20.6629 46.2448 20.7941 46.2873 20.9299 46.3C21.1099 46.3 21.1799 46.44 21.0999 46.55C21.0255 46.6665 20.9419 46.7768 20.8499 46.88C20.6399 47.12 20.6399 47.12 20.7299 47.7C20.768 47.898 20.7914 48.0986 20.7999 48.3C20.7999 49.95 20.7999 51.6 20.8499 53.3C20.8362 53.5047 20.8531 53.7103 20.8999 53.91C20.9311 53.9682 20.9738 54.0194 21.0254 54.0606C21.0769 54.1019 21.1363 54.1323 21.1999 54.15C21.3999 54.21 21.5699 54.27 21.6299 54.5C21.6494 54.5665 21.6504 54.637 21.6328 54.704C21.6152 54.7709 21.5796 54.8318 21.5299 54.88C21.4399 54.99 21.3099 55.1 21.2999 55.22C21.2999 55.76 21.2999 56.3 21.2999 56.85C21.7299 57.3 21.6099 57.85 21.6299 58.41C21.6499 58.97 21.6299 59.41 21.6299 59.86C21.6248 59.9952 21.6634 60.1285 21.7399 60.24C21.9458 60.5307 22.0415 60.8852 22.0099 61.24C22.0099 63.93 22.0099 66.61 22.0099 69.3C21.9989 69.5717 21.9124 69.8349 21.7599 70.06C21.692 70.175 21.6573 70.3065 21.6599 70.44C21.6599 70.86 21.6599 71.27 21.6599 71.68C21.6599 71.79 21.8199 71.96 21.9099 71.96C22.9099 71.96 23.9799 71.96 25.0099 71.96C25.1899 71.96 25.3599 71.7 25.3599 71.53C25.3299 70.84 25.3299 70.22 25.3299 69.6V69.59ZM23.8899 22.26C24.3699 22.26 24.8899 22.26 25.3299 22.26C25.8793 22.2251 26.4304 22.2251 26.9799 22.26C27.5099 22.32 27.8499 21.87 28.3399 21.88C28.6126 21.9049 28.8871 21.9049 29.1599 21.88C29.2699 21.88 29.4399 21.72 29.4499 21.62C29.4687 21.287 29.4687 20.9531 29.4499 20.62C29.4372 20.5544 29.4093 20.4926 29.3685 20.4396C29.3278 20.3866 29.2752 20.3439 29.215 20.3147C29.1548 20.2856 29.0887 20.2709 29.0218 20.2718C28.955 20.2728 28.8892 20.2893 28.8299 20.32C28.6147 20.4934 28.411 20.6804 28.2199 20.88C28.0899 21 27.9999 21.04 27.8899 20.94C27.7946 20.8401 27.6797 20.7609 27.5523 20.7076C27.425 20.6542 27.2879 20.6278 27.1499 20.63L23.6499 20.7C23.5472 20.7026 23.4495 20.7445 23.3769 20.8171C23.3043 20.8897 23.2624 20.9874 23.2599 21.09C23.2282 21.224 23.1693 21.35 23.0867 21.4601C23.0041 21.5702 22.8996 21.6621 22.7799 21.73C22.6299 21.87 22.5399 21.86 22.4899 21.66C22.4569 21.5286 22.4335 21.3949 22.4199 21.26C22.4136 21.1605 22.3841 21.0639 22.3339 20.9778C22.2836 20.8918 22.2139 20.8186 22.1304 20.7642C22.0469 20.7098 21.9518 20.6757 21.8527 20.6646C21.7537 20.6534 21.6534 20.6656 21.5599 20.7C21.2299 20.78 20.9999 21.09 20.6299 21.07C20.2599 21.05 19.9399 21.07 19.6299 21.07C18.7399 21.07 17.8499 21.07 16.9499 21.07C16.7783 21.0673 16.6084 21.1048 16.4539 21.1794C16.2993 21.2541 16.1644 21.3639 16.0599 21.5C16.0599 21.55 15.9399 21.65 15.9499 21.66C15.9599 21.67 16.1199 21.86 16.2099 21.86C16.7599 21.91 17.3099 21.93 17.8599 21.94C17.9616 21.9354 18.0617 21.9671 18.1422 22.0293C18.2228 22.0916 18.2787 22.1804 18.2999 22.28C18.2999 22.5 18.4699 22.68 18.6699 22.7C19.0799 22.7 19.4999 22.7 19.9099 22.7C20.1399 22.7 20.2899 22.56 20.4599 22.47C20.5719 22.3957 20.6977 22.3446 20.8299 22.32L23.8899 22.26ZM15.6999 25.56H15.5199C15.1699 25.56 14.9899 25.75 14.9899 26.04C15.0299 26.449 15.0299 26.861 14.9899 27.27C14.8799 27.81 15.4499 28.11 15.3899 28.61C15.37 28.7446 15.3843 28.882 15.4315 29.0096C15.4786 29.1372 15.5572 29.2508 15.6599 29.34C15.8102 29.48 15.9506 29.6304 16.0799 29.79C16.1699 29.91 16.0799 30.03 15.9399 30.07C15.7999 30.11 15.5199 30.18 15.4599 30.38C15.4001 30.579 15.4001 30.7911 15.4599 30.99C15.5399 31.25 15.7699 31.46 15.8099 31.71C15.8382 32.0428 15.8382 32.3773 15.8099 32.71L15.8699 34.35C16.0198 34.5363 16.13 34.7512 16.1936 34.9817C16.2573 35.2122 16.273 35.4532 16.2399 35.69C16.2399 35.97 16.2399 36.24 16.2399 36.52C16.2399 36.99 16.5399 37.25 16.8599 37.52C16.9599 37.6 17.3599 37.45 17.3999 37.34C17.4853 37.1529 17.511 36.9441 17.4734 36.7418C17.4359 36.5396 17.3368 36.3539 17.1899 36.21C17.1168 36.1401 17.0707 36.0466 17.0597 35.946C17.0487 35.8454 17.0736 35.7441 17.1299 35.66C17.2099 35.48 17.4399 35.32 17.4499 35.15C17.4499 33.71 17.4499 32.27 17.4499 30.83C17.4422 30.7633 17.4143 30.7005 17.3699 30.65C17.1509 30.3654 17.0505 30.007 17.0899 29.65C17.0899 29.31 17.0899 28.96 17.0899 28.65C17.0791 28.3765 16.981 28.1137 16.8099 27.9C16.7299 27.8 16.8099 27.69 16.8999 27.56C16.9809 27.4533 17.0263 27.3239 17.0299 27.19C16.9799 26.79 16.6699 26.48 16.5499 26.1C16.4899 25.92 16.2699 25.8 16.1299 25.65C16.0763 25.5923 16.0062 25.5527 15.9292 25.5366C15.8522 25.5205 15.7721 25.5287 15.6999 25.56ZM39.0699 21.42H40.3099C40.4399 21.42 40.6199 21.16 40.6199 20.95C40.6199 20.74 40.6199 20.68 40.6199 20.54C40.5907 20.4458 40.5344 20.3622 40.4578 20.3C40.3813 20.2377 40.2881 20.1994 40.1899 20.19C40.0555 20.1679 39.918 20.1752 39.7868 20.2115C39.6556 20.2477 39.5338 20.3121 39.4299 20.4C39.2699 20.54 39.1199 20.61 38.9299 20.4C38.8383 20.3004 38.7142 20.2366 38.5799 20.22C37.7599 20.22 36.9299 20.22 36.1099 20.22C35.9747 20.2257 35.845 20.2748 35.7399 20.36C35.6861 20.4252 35.6197 20.4787 35.5445 20.5172C35.4693 20.5558 35.3871 20.5785 35.3028 20.5841C35.2185 20.5898 35.134 20.5781 35.0544 20.5499C34.9748 20.5217 34.9018 20.4775 34.8399 20.42C34.6581 20.2624 34.4255 20.1757 34.1849 20.1757C33.9443 20.1757 33.7117 20.2624 33.5299 20.42C33.3999 20.53 33.3199 20.53 33.1899 20.42C33.0925 20.3209 32.9667 20.2545 32.8299 20.23C32.2199 20.23 31.5999 20.23 30.9799 20.23C30.9466 20.2279 30.9134 20.2357 30.8844 20.2523C30.8555 20.269 30.8321 20.2938 30.8172 20.3237C30.8022 20.3535 30.7964 20.3871 30.8005 20.4203C30.8045 20.4534 30.8182 20.4846 30.8399 20.51C31.0268 20.8098 31.1239 21.1568 31.1199 21.51C31.1348 21.6108 31.1876 21.7021 31.2675 21.7653C31.3474 21.8284 31.4484 21.8588 31.5499 21.85C31.8899 21.85 32.2299 21.85 32.5499 21.85C32.7443 21.7097 32.9646 21.6092 33.198 21.5543C33.4313 21.4994 33.6733 21.4911 33.9099 21.53C34.4599 21.53 35.0099 21.53 35.5599 21.53C35.7649 21.5137 35.9585 21.4292 36.1099 21.29C36.2773 21.1739 36.4762 21.1117 36.6799 21.1117C36.8836 21.1117 37.0825 21.1739 37.2499 21.29C37.407 21.4234 37.604 21.5008 37.8099 21.51C38.2399 21.4 38.6599 21.42 39.0699 21.42ZM46.6299 20.55L45.8399 19.86C45.7842 19.8228 45.7207 19.799 45.6542 19.7907C45.5878 19.7823 45.5203 19.7896 45.4572 19.8119C45.394 19.8343 45.337 19.871 45.2906 19.9193C45.2442 19.9676 45.2097 20.0261 45.1899 20.09C45.1899 20.15 45.1899 20.23 45.1899 20.29C45.1674 20.3545 45.1255 20.4104 45.0699 20.45C44.9699 20.5 44.8599 20.45 44.8299 20.26C44.8287 20.193 44.8139 20.1269 44.7862 20.0659C44.7585 20.0049 44.7186 19.9502 44.6689 19.9052C44.6192 19.8602 44.5608 19.8259 44.4974 19.8044C44.4339 19.7828 44.3667 19.7745 44.2999 19.78C43.6099 19.78 42.9299 19.78 42.2399 19.78C42.1759 19.7948 42.1168 19.8254 42.0678 19.8691C42.0189 19.9128 41.9818 19.9682 41.9599 20.03C41.9269 20.3625 41.9269 20.6975 41.9599 21.03C41.9762 21.0932 42.0075 21.1516 42.051 21.2003C42.0944 21.249 42.1489 21.2866 42.2099 21.31C42.6199 21.31 43.0299 21.31 43.4499 21.31C43.5835 21.3137 43.7154 21.279 43.8299 21.21C44.1206 21.0041 44.4751 20.9084 44.8299 20.94C45.6599 20.94 46.4899 20.94 47.3099 20.94C47.6599 20.94 47.7399 20.69 47.7599 20.39C47.7599 20.34 47.8399 20.28 47.8999 20.24C47.9599 20.2 48.1099 20.24 48.1499 20.41C48.1899 20.58 48.2699 20.94 48.6399 20.94H51.9299C52.0288 20.9233 52.1184 20.8718 52.1826 20.7948C52.2468 20.7177 52.2813 20.6203 52.2799 20.52C52.2999 20.3841 52.2999 20.246 52.2799 20.11C52.236 19.9966 52.1677 19.8942 52.0799 19.81C52.0799 19.81 51.9599 19.87 51.9099 19.92L51.4699 20.35C51.2099 20.58 50.9499 20.61 50.7499 20.4C50.5469 20.1411 50.275 19.9447 49.9655 19.8333C49.656 19.7219 49.3213 19.6999 48.9999 19.77C48.5299 19.83 47.9999 19.77 47.5599 19.77C47.4269 19.797 47.305 19.8632 47.2099 19.96C46.9999 20.15 46.8499 20.35 46.6299 20.55ZM60.1299 18.1C60.2661 18.0849 60.4036 18.0849 60.5399 18.1C61.1507 18.1228 61.756 17.9775 62.2899 17.68C62.4599 17.62 62.4999 17.52 62.4199 17.39L61.9199 16.52C61.3999 16.39 61.0099 15.91 60.3999 16.03C60.1294 16.03 59.8663 16.1177 59.6499 16.28C59.4599 16.48 59.2599 16.67 59.0699 16.86C58.9448 16.9904 58.8573 17.1522 58.8168 17.3283C58.7763 17.5043 58.7843 17.6881 58.8399 17.86C58.8611 17.9228 58.8964 17.9798 58.9433 18.0266C58.9901 18.0735 59.0471 18.1089 59.1099 18.13C59.4499 18.12 59.7899 18.1 60.1299 18.1ZM60.7199 20.61V20.56C61.1999 20.56 61.7199 20.56 62.1499 20.56C62.3406 20.5107 62.5159 20.4145 62.6599 20.28C62.8116 20.1459 62.9159 19.9664 62.9574 19.7682C62.9988 19.57 62.9751 19.3637 62.8899 19.18C62.8899 19.03 62.7099 18.99 62.5699 18.99C62.5029 18.9811 62.4348 18.9892 62.3719 19.0137C62.3089 19.0382 62.2532 19.0782 62.2099 19.13C62.2099 19.13 62.2799 19.24 62.3199 19.29C62.36 19.3444 62.3968 19.4011 62.4299 19.46C62.4299 19.52 62.4999 19.6 62.4299 19.63C62.3886 19.6835 62.3323 19.7235 62.2682 19.7449C62.2041 19.7663 62.135 19.7681 62.0699 19.75C61.7899 19.75 61.6299 19.36 61.3899 19.36C60.4454 19.3184 59.4991 19.3518 58.5599 19.46C58.5599 19.46 58.4399 19.56 58.4499 19.57C58.5499 19.75 58.7399 19.9 58.7599 20.08C58.8199 20.52 59.0699 20.64 59.4499 20.63L60.7199 20.61ZM55.8099 21H56.6299C56.7659 20.9987 56.9 20.9676 57.0226 20.9088C57.1453 20.8501 57.2536 20.7652 57.3399 20.66C57.5299 20.48 57.5299 20.34 57.3399 20.17C57.2305 20.0401 57.0944 19.9353 56.9408 19.8628C56.7872 19.7903 56.6197 19.7519 56.4499 19.75C56.248 19.7382 56.0536 19.6688 55.8899 19.55C55.7499 19.45 55.6699 19.42 55.5499 19.55C55.4299 19.68 55.1399 19.92 54.9299 20.09C54.7199 20.26 54.4399 20.18 54.2699 19.9C54.0999 19.62 53.8999 19.48 53.6299 19.77C53.5416 19.8719 53.4762 19.9917 53.4382 20.1211C53.4003 20.2505 53.3906 20.3865 53.4099 20.52C53.4099 20.92 53.5299 21.01 53.8499 20.81C53.9999 20.71 54.0599 20.68 54.1999 20.81C54.3489 20.9527 54.5439 21.0378 54.7499 21.05L55.8099 21ZM50.8099 18.52C50.9099 18.52 51.2499 18.52 51.5799 18.46C51.6131 18.4537 51.6438 18.4381 51.6686 18.4151C51.6933 18.3921 51.7111 18.3626 51.7199 18.33C51.7199 18.21 51.8299 18.04 51.7799 17.96C51.7299 17.88 51.4399 17.55 51.2799 17.33C50.8499 16.75 50.2799 16.82 49.6299 16.87L48.9999 17.4C48.8399 17.57 48.8899 17.78 48.8899 17.98C48.8899 18.18 49.0399 18.51 49.3199 18.51L50.8099 18.52ZM71.3099 66.68C71.3099 65.68 71.3099 64.82 71.2199 64C71.215 63.8982 71.1724 63.8018 71.1003 63.7296C71.0281 63.6575 70.9318 63.6149 70.8299 63.61C70.6988 63.5721 70.5741 63.5148 70.4599 63.44C70.1299 63.28 69.9899 63.38 70.0099 63.74C70.0099 63.88 70.0099 64.06 70.0099 64.15C70.3346 64.5934 70.4744 65.1455 70.3999 65.69C70.3999 66.03 70.3999 66.37 70.4699 66.69C70.9999 67.27 70.6999 68 70.8299 68.69C70.8299 68.78 70.9899 68.84 71.0799 68.89C71.1091 68.8746 71.1349 68.8534 71.1555 68.8276C71.1762 68.8017 71.1913 68.7719 71.1999 68.74C71.2499 68 71.2699 67.21 71.2899 66.67L71.3099 66.68ZM72.8999 65.38V64C72.8999 63.94 72.8299 63.89 72.7999 63.83C72.7699 63.77 72.6199 63.66 72.4599 63.67C72.2999 63.68 72.1599 63.67 72.1299 63.85C72.0099 64.6522 72.0099 65.4678 72.1299 66.27C72.1299 66.44 72.3499 66.59 72.4799 66.75C72.5272 66.8023 72.5905 66.8374 72.6599 66.85C72.6901 66.8563 72.7214 66.8554 72.7513 66.8476C72.7812 66.8397 72.8088 66.825 72.8321 66.8047C72.8553 66.7843 72.8736 66.7589 72.8853 66.7303C72.8971 66.7017 72.9021 66.6708 72.8999 66.64C72.8999 66.19 72.8799 65.78 72.8799 65.37L72.8999 65.38ZM14.7999 22.65H14.5999C14.4299 22.65 14.1399 22.83 14.1399 22.95C14.0944 23.4797 14.135 24.0133 14.2599 24.53C14.3199 24.68 14.4399 24.71 14.5999 24.69C14.7599 24.67 14.8899 24.69 14.9099 24.51C14.901 24.0456 15.069 23.5951 15.3799 23.25C15.4699 23.16 15.2999 22.76 15.1799 22.73L14.7999 22.65ZM38.8499 18.52C39.1799 18.52 39.5199 18.52 39.8499 18.52C39.9499 18.52 40.0499 18.39 40.1399 18.31C40.2299 18.23 40.0699 18.2 40.0399 18.14C39.7399 17.62 39.0399 17.71 38.6899 17.32C38.6099 17.23 38.2499 17.4 38.1799 17.54C38.1099 17.68 37.9399 18.01 37.8399 18.26C37.7899 18.36 37.8399 18.49 38.0299 18.51C38.3028 18.5287 38.5766 18.5321 38.8499 18.52ZM27.4799 19C27.7499 19 28.0899 19 28.4099 18.91C28.5699 18.91 28.6099 18.74 28.5999 18.6C28.5899 18.46 28.4399 18.17 28.2799 18.17H26.8699C26.8064 18.1894 26.7527 18.2323 26.7199 18.29C26.6462 18.3954 26.6077 18.5214 26.6099 18.65C26.6184 18.7119 26.642 18.7707 26.6786 18.8213C26.7152 18.8719 26.7637 18.9127 26.8199 18.94C27.0378 18.9782 27.2586 18.9983 27.4799 19ZM73.7399 64.1C73.7248 64.2329 73.7248 64.3671 73.7399 64.5C73.7847 64.6126 73.8417 64.7199 73.9099 64.82L74.0799 64.71C74.2799 64.53 74.4699 64.36 74.6599 64.17C74.8499 63.98 74.8199 63.96 74.8999 63.86C74.9271 63.8028 74.9416 63.7404 74.9424 63.6771C74.9433 63.6138 74.9305 63.551 74.9048 63.4931C74.8792 63.4352 74.8414 63.3835 74.7939 63.3415C74.7465 63.2996 74.6905 63.2684 74.6299 63.25H74.2299C73.9099 63.25 73.7299 63.43 73.7299 63.71L73.7399 64.1ZM18.2699 28.52C18.2699 28.9 18.2699 29.18 18.3299 29.45C18.3396 29.4829 18.3562 29.5132 18.3786 29.5391C18.4011 29.565 18.4288 29.5857 18.4599 29.6C18.5802 29.6491 18.7103 29.6697 18.8399 29.66C19.0199 29.66 19.0499 29.5 18.9599 29.37C18.7934 29.1553 18.702 28.8918 18.6999 28.62C18.6897 28.3548 18.6596 28.0907 18.6099 27.83C18.6099 27.77 18.5299 27.73 18.4899 27.68C18.4499 27.63 18.3699 27.78 18.3599 27.84C18.3099 28.1 18.2899 28.36 18.2699 28.52ZM65.2099 19.37C65.0852 19.3803 64.9614 19.4003 64.8399 19.43C64.7753 19.4488 64.72 19.4909 64.6849 19.5482C64.6497 19.6056 64.6373 19.674 64.6499 19.74C64.6394 19.8029 64.6394 19.8671 64.6499 19.93C64.7099 20.13 64.8099 20.14 64.9499 20C64.9985 19.9521 65.0563 19.9147 65.1199 19.89C65.1199 19.89 65.2199 19.79 65.2799 19.78C65.3399 19.77 65.7499 19.71 65.7199 19.54C65.6899 19.37 65.4199 19.36 65.2099 19.37Z" fill="white"/>
<path d="M42.2898 57.59C42.2898 57.46 42.2898 57.32 42.2898 57.18C42.2916 57.0446 42.3208 56.9109 42.3759 56.7872C42.4309 56.6634 42.5104 56.5521 42.6098 56.46L43.3398 55.72C43.4539 55.5907 43.5962 55.4891 43.7557 55.4233C43.9151 55.3574 44.0876 55.3289 44.2598 55.34C44.3898 55.34 44.5298 55.34 44.6698 55.34C44.8714 55.3639 45.0757 55.346 45.2701 55.2875C45.4645 55.229 45.6448 55.1312 45.7998 55C45.859 54.9658 45.9263 54.9478 45.9948 54.9478C46.0632 54.9478 46.1305 54.9658 46.1898 55C46.515 55.2565 46.928 55.375 47.3398 55.33C48.0298 55.33 48.7198 55.33 49.3998 55.33C50.0798 55.33 50.6498 55.49 51.1798 55.01C51.4498 55.01 51.7198 54.94 51.9898 54.94H56.7298C57.0845 54.9707 57.4387 54.8751 57.7298 54.67C57.8452 54.6021 57.9759 54.5643 58.1098 54.56C58.5898 54.56 59.1098 54.56 59.5598 54.56C60.2298 54.56 60.9398 54.7 61.5598 54.24C61.6813 54.183 61.8167 54.1622 61.9498 54.18H69.5897C69.8613 54.1303 70.1418 54.18 70.3797 54.32C70.7498 54.6 71.2898 54.63 71.5798 55.06C71.6626 55.1694 71.7564 55.2699 71.8598 55.36C72.0174 55.5419 72.1041 55.7744 72.1041 56.015C72.1041 56.2557 72.0174 56.4882 71.8598 56.67C71.5098 57 71.1798 57.35 70.8598 57.67C70.6926 57.784 70.5006 57.856 70.2998 57.88C70.0998 57.88 69.8898 57.88 69.7198 58.03C69.5083 58.2094 69.2368 58.3023 68.9598 58.29C68.4098 58.29 67.8597 58.29 67.3097 58.29C67.1728 58.285 67.0374 58.3198 66.9198 58.39C66.5802 58.6213 66.1665 58.7176 65.7598 58.66H61.0098C60.6578 58.6284 60.3054 58.7165 60.0098 58.91C59.8964 58.984 59.765 59.0255 59.6298 59.03C57.9098 59.03 56.1898 59.03 54.4698 59.09C53.9254 58.9998 53.3666 59.1024 52.8898 59.38C52.7498 59.49 52.4898 59.46 52.2898 59.47C51.5398 59.47 50.7798 59.47 50.0198 59.47C49.8898 59.47 49.7098 59.47 49.6198 59.47C49.0298 59.96 48.3098 59.75 47.6198 59.84C47.4298 59.84 47.2698 60.04 47.0798 60.13C46.9339 60.2343 46.7591 60.2903 46.5798 60.2903C46.4005 60.2903 46.2256 60.2343 46.0798 60.13C45.7914 59.9191 45.435 59.8229 45.0798 59.86C44.8041 59.8843 44.5277 59.8214 44.2898 59.68C43.8866 59.4351 43.4654 59.2211 43.0298 59.04C42.7646 58.9634 42.5359 58.7939 42.3854 58.5626C42.2348 58.3312 42.1725 58.0535 42.2098 57.78V57.57L42.2898 57.59ZM60.4698 55.77C60.4698 55.52 60.3298 55.39 60.1498 55.52C60.0064 55.6218 59.8437 55.693 59.6716 55.7291C59.4996 55.7653 59.3219 55.7656 59.1498 55.73C58.9112 55.6901 58.6663 55.7381 58.4603 55.8649C58.2544 55.9918 58.1014 56.189 58.0298 56.42C57.8898 56.72 57.7098 56.99 57.5798 57.3C57.5198 57.44 57.6898 57.77 57.8398 57.78C58.1004 57.8423 58.3743 57.8177 58.6198 57.71C58.8963 57.5187 59.2236 57.4143 59.5598 57.41C59.6282 57.4182 59.6976 57.4065 59.7597 57.3764C59.8217 57.3462 59.8738 57.2989 59.9098 57.24C60.0898 56.89 60.2698 56.54 60.4198 56.17C60.4618 56.0411 60.4788 55.9053 60.4698 55.77ZM65.9998 55.32H65.2098C65.0066 55.3186 64.8078 55.3791 64.6399 55.4934C64.472 55.6077 64.3429 55.7705 64.2697 55.96C64.1869 56.2147 64.0762 56.4595 63.9398 56.69C63.8498 56.81 63.8797 56.94 64.0597 56.97C64.2397 57 64.5998 56.97 64.8698 57.03C65.1711 57.0891 65.4837 57.0324 65.7451 56.8711C66.0065 56.7098 66.1974 56.4559 66.2798 56.16C66.3626 55.9762 66.4596 55.799 66.5698 55.63C66.6398 55.51 66.5697 55.4 66.4198 55.36C66.2806 55.3392 66.1404 55.3258 65.9998 55.32ZM62.3498 57.39H62.5098C62.6096 57.3961 62.7081 57.3646 62.7858 57.3017C62.8636 57.2387 62.9149 57.149 62.9298 57.05C62.9396 56.64 63.0876 56.2454 63.3498 55.93C63.4398 55.81 63.2798 55.44 63.1498 55.41C62.9588 55.3398 62.7516 55.326 62.553 55.3704C62.3544 55.4147 62.1727 55.5152 62.0298 55.66L61.4698 56.26C61.3907 56.3702 61.3349 56.4952 61.3057 56.6276C61.2764 56.7599 61.2744 56.8969 61.2998 57.03C61.3049 57.13 61.3482 57.2241 61.4208 57.293C61.4934 57.3618 61.5897 57.4002 61.6898 57.4L62.3498 57.39ZM51.1498 56.16H50.7998C50.5198 56.16 50.2398 56.16 50.1598 56.52C50.0798 56.88 49.5998 57.25 49.3598 57.65C49.2398 57.84 49.4598 58.21 49.6998 58.24C49.8623 58.284 50.0337 58.2831 50.1957 58.2373C50.3577 58.1915 50.5043 58.1026 50.6198 57.98C50.8662 57.7509 51.0874 57.4961 51.2798 57.22C51.4152 56.9177 51.5688 56.6238 51.7398 56.34C51.6947 56.2926 51.6402 56.2552 51.5798 56.23L51.1498 56.16ZM53.4898 56C53.3298 56 52.9198 56.27 52.7398 56.71C52.5296 57.1314 52.282 57.5331 51.9998 57.91C51.9714 57.959 51.9543 58.0136 51.9498 58.07C52.0636 58.1312 52.1845 58.1783 52.3098 58.21C52.8998 58.29 53.3098 57.85 53.7798 57.66C53.8998 57.1 54.4198 56.81 54.6798 56.34C54.6384 56.2861 54.5831 56.2446 54.5198 56.22C54.2898 56.17 54.0998 56.15 53.4898 56ZM67.6398 57C67.7998 57 67.9298 57 68.0698 57H68.2697C68.5597 57 68.7197 56.81 68.7397 56.47C68.7598 56.1971 68.7598 55.923 68.7397 55.65C68.7234 55.5868 68.6922 55.5284 68.6487 55.4797C68.6052 55.431 68.5507 55.3934 68.4897 55.37C68.2895 55.3201 68.08 55.3201 67.8797 55.37C67.7812 55.3911 67.692 55.4433 67.6254 55.5189C67.5588 55.5946 67.5182 55.6896 67.5098 55.79C67.4398 56.22 66.9897 56.4 66.8097 56.79C66.8097 56.79 66.8098 56.9 66.8698 56.92C67.1098 57.07 67.3898 57 67.6398 57ZM55.4898 57.81C55.6892 57.8554 55.8978 57.8384 56.0873 57.7616C56.2768 57.6847 56.4382 57.5515 56.5498 57.38C56.7798 57.05 56.8298 56.63 57.1198 56.38C57.2298 56.27 57.1198 55.88 56.9498 55.86C56.7798 55.84 56.6598 55.79 56.5598 55.86C56.0185 56.2679 55.54 56.7531 55.1398 57.3C55.0598 57.39 55.1398 57.8 55.3098 57.83L55.4898 57.81ZM48.8598 56.16C48.3198 56.16 48.2898 56.16 48.0798 56.58C47.8698 57 47.5298 57.58 47.2698 58.16C47.2477 58.224 47.2465 58.2932 47.2662 58.3579C47.286 58.4226 47.3257 58.4793 47.3798 58.52C47.5198 58.63 47.8598 58.63 47.9198 58.52C47.9798 58.41 48.0298 58.28 48.0898 58.17C48.3676 57.5658 48.724 57.0009 49.1498 56.49C49.1846 56.4425 49.2085 56.3879 49.2198 56.33L48.8598 56.16ZM45.6198 58C45.6198 57.73 45.6198 57.53 45.6198 57.33C45.6051 57.2645 45.5657 57.2072 45.5098 57.17C45.4298 57.1 45.3298 57.17 45.2098 57.26C45.0221 57.3962 44.8876 57.5933 44.8292 57.8177C44.7708 58.042 44.7922 58.2797 44.8898 58.49C44.9498 58.64 45.0698 58.65 45.2198 58.65C45.3698 58.65 45.5098 58.65 45.5598 58.49C45.5923 58.3285 45.6123 58.1647 45.6198 58ZM70.0998 56.54C70.2296 56.4759 70.3506 56.3952 70.4598 56.3C70.5898 56.19 70.8098 56.08 70.6798 55.86C70.5626 55.7046 70.4207 55.5695 70.2598 55.46C70.2598 55.46 70.1498 55.46 70.1098 55.46C69.8834 55.5894 69.702 55.7848 69.5897 56.02C69.4897 56.26 69.7198 56.59 70.0998 56.54ZM47.1598 56.38C47.1245 56.3265 47.0805 56.2792 47.0298 56.24C46.9678 56.2214 46.9017 56.2214 46.8398 56.24C46.7237 56.2873 46.6102 56.3407 46.4998 56.4C46.533 56.4582 46.581 56.5066 46.639 56.5402C46.6969 56.5739 46.7627 56.5916 46.8298 56.5916C46.8968 56.5916 46.9626 56.5739 47.0205 56.5402C47.0785 56.5066 47.1265 56.4582 47.1598 56.4V56.38ZM43.8998 56.87C43.8998 56.72 43.7598 56.67 43.6698 56.73C43.5798 56.79 43.5498 56.8 43.5398 56.86C43.5298 56.92 43.6098 57.36 43.7198 57.34C43.7473 57.33 43.7724 57.3141 43.7931 57.2934C43.8138 57.2726 43.8298 57.2476 43.8398 57.22C43.8879 57.11 43.9085 56.9898 43.8998 56.87Z" fill="white"/>
<path d="M30.1298 63.2001C29.9338 63.2127 29.738 63.173 29.5623 63.0852C29.3866 62.9973 29.2374 62.8644 29.1298 62.7001C29.027 62.5536 28.9718 62.379 28.9718 62.2001C28.9718 62.0211 29.027 61.8465 29.1298 61.7001C29.1298 61.6501 29.2298 61.5801 29.2798 61.5701C29.4483 61.5242 29.6247 61.5148 29.7971 61.5424C29.9695 61.57 30.1341 61.634 30.2798 61.7301C30.4098 61.8401 30.4998 61.8601 30.6298 61.7301C30.7598 61.6001 30.8698 61.5301 30.9798 61.5401C31.326 61.5558 31.6663 61.4461 31.9381 61.2312C32.21 61.0163 32.3952 60.7105 32.4598 60.3701C32.5198 60.1901 32.7298 60.0601 32.7098 59.8301C32.7252 59.7643 32.7252 59.6959 32.7098 59.6301C32.5902 59.3825 32.3821 59.1887 32.1267 59.0869C31.8713 58.9851 31.587 58.9827 31.3298 59.0801C31.0898 59.1901 30.8998 59.4201 30.5998 59.4301C30.3109 59.6286 29.9847 59.7665 29.6409 59.8352C29.2971 59.904 28.9429 59.9022 28.5998 59.8301C28.4017 59.7814 28.2214 59.6776 28.0798 59.5307C27.9383 59.3839 27.8412 59.1999 27.7998 59.0001C27.825 58.5204 27.825 58.0398 27.7998 57.5601C27.7693 57.2562 27.8231 56.9498 27.9554 56.6746C28.0878 56.3994 28.2934 56.166 28.5498 56.0001C28.8973 55.7839 29.2618 55.5966 29.6398 55.4401C29.889 55.3341 30.1599 55.2895 30.4298 55.3101C30.7026 55.2963 30.9675 55.2137 31.1998 55.0701C31.3137 54.9963 31.4414 54.9465 31.5752 54.9237C31.709 54.9008 31.846 54.9055 31.9779 54.9373C32.1098 54.9691 32.2338 55.0274 32.3425 55.1087C32.4511 55.19 32.5421 55.2925 32.6098 55.4101C32.6798 55.5201 32.6098 55.6201 32.5298 55.7601C32.2698 56.1401 31.7898 56.0901 31.4798 56.3601C31.2454 56.5096 30.965 56.5699 30.6898 56.5301H29.4498C29.3488 56.5298 29.2513 56.5678 29.1771 56.6364C29.1029 56.7051 29.0574 56.7993 29.0498 56.9001C29.0498 57.1701 29.0498 57.4501 29.0498 57.7201C29.0765 57.9269 29.18 58.1161 29.3398 58.2501C29.5598 58.5101 29.5898 58.5201 29.8198 58.4101C30.0113 58.3417 30.1955 58.2546 30.3698 58.1501C30.6565 57.9471 30.9834 57.8081 31.3285 57.7425C31.6736 57.6769 32.0287 57.6864 32.3698 57.7701C32.6928 57.8667 33.002 58.0045 33.2898 58.1801C33.5998 58.3001 33.5798 58.6101 33.7298 58.8201C33.926 59.1018 34.0312 59.4368 34.0312 59.7801C34.0312 60.1233 33.926 60.4584 33.7298 60.7401C33.3447 61.4647 32.8095 62.0988 32.1598 62.6001C32.1094 62.6444 32.0466 62.6724 31.9798 62.6801C31.5654 62.6878 31.1635 62.824 30.8298 63.0701C30.6798 63.2401 30.4398 63.1801 30.1298 63.2001Z" fill="white"/>
<path d="M38.9999 56.0001V57.2301C39.007 57.3682 38.9817 57.5062 38.9262 57.6329C38.8706 57.7596 38.7863 57.8716 38.6799 57.9601C38.2899 58.2801 38.2399 58.8001 37.9299 59.1601C37.8199 59.2901 37.8199 59.3701 37.9299 59.5001C38.1362 59.6798 38.3332 59.87 38.5199 60.0701C38.6177 60.1646 38.7338 60.2382 38.861 60.2864C38.9883 60.3345 39.124 60.3562 39.2599 60.3501C39.5348 60.3219 39.8124 60.3596 40.0699 60.4601C40.3599 60.6301 40.6699 60.7701 40.9399 60.9601C40.9723 61.0181 40.9893 61.0835 40.9893 61.1501C40.9893 61.2166 40.9723 61.282 40.9399 61.3401C40.8565 61.524 40.7253 61.6823 40.56 61.7984C40.3947 61.9145 40.2013 61.9841 39.9999 62.0001H38.9999C38.6427 62.025 38.2883 61.9222 37.9999 61.7101C37.7231 61.5184 37.4243 61.3606 37.1099 61.2401C37.0236 61.189 36.9251 61.1621 36.8249 61.1621C36.7246 61.1621 36.6262 61.189 36.5399 61.2401C35.9699 61.5901 35.7899 61.5401 35.3599 61.0101C35.299 60.9275 35.2661 60.8276 35.2661 60.7251C35.2661 60.6225 35.299 60.5226 35.3599 60.4401C35.6122 60.2082 35.8309 59.9423 36.0099 59.6501C36.1258 59.3307 36.3101 59.0406 36.5499 58.8001C36.9099 58.4601 36.9199 57.9201 37.2799 57.5801C37.2799 57.2301 37.6299 56.9901 37.7099 56.6701C37.7484 56.3378 37.7484 56.0023 37.7099 55.6701C37.6839 55.5726 37.622 55.4886 37.5367 55.4349C37.4514 55.3811 37.349 55.3615 37.2499 55.3801C36.8299 55.5901 36.4099 55.8001 35.9999 56.0201C35.7999 56.1201 35.7399 56.1001 35.5099 55.8401C35.2799 55.5801 35.2999 55.5301 35.5099 55.3401C35.8404 54.9025 36.2926 54.5721 36.8099 54.3901C37.0075 54.2534 37.2311 54.1589 37.4668 54.1125C37.7025 54.066 37.9452 54.0686 38.1799 54.1201C38.3799 54.1657 38.5629 54.2669 38.708 54.412C38.853 54.557 38.9542 54.7401 38.9999 54.9401V55.9401V56.0001Z" fill="white"/>
<path d="M47 62.3901C46.74 62.3901 46.49 62.2301 46.55 62.1301C46.6117 62.0134 46.689 61.9057 46.78 61.8101C46.8767 61.7158 46.9881 61.6381 47.11 61.5801C47.24 61.5101 47.56 61.6801 47.61 61.8301C47.66 61.9801 47.55 62.3301 47.41 62.3501C47.2745 62.3733 47.1375 62.3866 47 62.3901Z" fill="white"/>
<path d="M47.4697 64.8C47.4067 64.7788 47.3488 64.7447 47.2997 64.7C47.1624 64.5513 47.0385 64.3907 46.9297 64.22C46.9297 64.12 47.3197 63.98 47.6597 64.03C47.7858 64.0696 47.9041 64.1305 48.0097 64.21C47.9422 64.3261 47.8653 64.4365 47.7797 64.54C47.6835 64.6349 47.5798 64.7218 47.4697 64.8Z" fill="white"/>
<path d="M23.6299 71.09C23.6205 71.153 23.6002 71.2139 23.5699 71.27C23.5699 71.27 23.4699 71.4 23.4399 71.39C23.3797 71.3607 23.3307 71.3127 23.3 71.2533C23.2694 71.1938 23.2588 71.126 23.2699 71.06C23.2692 70.9931 23.2876 70.9274 23.3231 70.8707C23.3585 70.814 23.4095 70.7686 23.4699 70.74C23.4699 70.74 23.5599 70.84 23.5899 70.9C23.6148 70.9603 23.6284 71.0247 23.6299 71.09Z" fill="white"/>
<path d="M23.2101 63.62C23.2101 63.75 23.1501 63.92 23.0401 63.91C22.9301 63.9 22.8401 63.73 22.8701 63.6C22.9202 63.4881 22.9804 63.381 23.0501 63.28C23.1175 63.3862 23.1712 63.5004 23.2101 63.62Z" fill="white"/>
<path d="M23.0001 60C23.0556 60.0376 23.1011 60.0883 23.1324 60.1476C23.1638 60.2069 23.1802 60.2729 23.1801 60.34C23.1793 60.4067 23.1614 60.472 23.1281 60.5298C23.0948 60.5875 23.0473 60.6358 22.9901 60.67C22.9198 60.5676 22.8627 60.4567 22.8201 60.34C22.8074 60.2713 22.8183 60.2004 22.851 60.1387C22.8836 60.077 22.9362 60.0281 23.0001 60Z" fill="white"/>
<path d="M23.8897 68.4801C23.8897 68.4801 23.7897 68.4801 23.7797 68.4101C23.7697 68.3401 23.7797 68.2301 23.9097 68.2501C24.0397 68.2701 23.9797 68.3301 24.0197 68.3701L23.8897 68.4801Z" fill="white"/>
<path d="M25.9099 21.3401C25.9099 21.2901 25.7899 21.2401 25.7999 21.1901C25.8099 21.1401 25.8799 21.1101 25.9299 21.0601L26.0699 21.2101L25.9099 21.3401Z" fill="white"/>
<path d="M16.9997 33.64C16.9997 33.64 16.8997 33.76 16.8497 33.76C16.7997 33.76 16.7497 33.67 16.7097 33.62C16.6697 33.57 16.8097 33.5 16.8597 33.5C16.9097 33.5 16.9397 33.59 16.9997 33.64Z" fill="white"/>
<path d="M16.4499 31.67C16.4499 31.67 16.3499 31.67 16.3299 31.6C16.3099 31.53 16.3299 31.43 16.4599 31.44C16.5899 31.45 16.5399 31.52 16.5799 31.56L16.4499 31.67Z" fill="white"/>
<path d="M16.0001 28C16.0001 28 15.9001 28 15.8801 27.93C15.8601 27.86 15.8801 27.75 16.0201 27.76C16.1601 27.77 16.1001 27.84 16.1401 27.88L16.0001 28Z" fill="white"/>
<path d="M49.63 20.44C49.6181 20.4712 49.5999 20.4995 49.5764 20.5233C49.5529 20.547 49.5248 20.5656 49.4937 20.5778C49.4626 20.59 49.4294 20.5957 49.396 20.5943C49.3627 20.593 49.33 20.5847 49.3 20.57C49.1966 20.5159 49.0964 20.4558 49 20.39C49.0251 20.3352 49.0628 20.2873 49.11 20.25C49.38 20.12 49.49 20.13 49.6 20.31C49.6232 20.3492 49.6337 20.3946 49.63 20.44Z" fill="white"/>
</svg>
