<svg xmlns="http://www.w3.org/2000/svg" viewBox="0 0 60 60"><g id="Report"><path d="M43,55.15a2.09,2.09,0,0,1-2.62.46,9.44,9.44,0,0,0-2.86-.5,46.59,46.59,0,0,1-5.1-.59c-1-.22-2.16-.24-3.24-.38-1.65-.22-3.33-.27-5-.39-.17,0-.37,0-.52,0a17.58,17.58,0,0,0-6.05-1c-.85,0-1.7-.22-2.55-.35a2.12,2.12,0,0,1-1.89-1.92,8.59,8.59,0,0,1,0-1.15l-1.06-.08A3.21,3.21,0,0,1,9.33,46c0-1.87,0-3.74,0-5.61a6.45,6.45,0,0,0-.26-2.75,2.24,2.24,0,0,1,0-1.38,9.51,9.51,0,0,0,0-4.94,3,3,0,0,1,0-1.74A6.42,6.42,0,0,0,9.32,27c0-5.32,0-10.65,0-16,0-1.66.21-3.33.37-5,0-.13.44-.23.67-.34l.34.36c.07,2.37.1,4.74.25,7.12.3,4.75.08,9.53.4,14.3.18,2.68.08,5.38,0,8.06s-.21,5.33-.3,8c0,.93,0,1.87,0,2.8a6.18,6.18,0,0,1-.22,1.07,10.42,10.42,0,0,0,1.91.4c4.59.1,9.19-.2,13.77.37,1.6.2,3.21.25,4.82.38.11,0,.22.08.33.09a8.54,8.54,0,0,0,2.73.17,17.38,17.38,0,0,1,3.79-.28c.51,0,1,0,1.63,0A8.08,8.08,0,0,0,39.79,46a6.78,6.78,0,0,1-.28-2.21c-.17-3.89.26-7.79-.29-11.68-.31-2.16-.12-4.38-.33-6.58-.36-3.75-.32-7.54-.4-11.32-.05-2.28,0-4.56,0-6.84V5.72a2.5,2.5,0,0,1-.71.27c-2.56-.07-5.09.25-7.64.36-1.31.06-2.63-.32-3.95-.3-3.59.08-7.19-.24-10.79.26A22.19,22.19,0,0,1,10.73,6l-.36-.33c0-.6.21-1,.88-1.06H12c1.79-.06,3.58.19,5.37-.31a9.45,9.45,0,0,1,2.44,0c2.46,0,4.91,0,7.37,0a5.24,5.24,0,0,1,2.56.29,1.6,1.6,0,0,0,1.2,0,11.83,11.83,0,0,1,3.79-.31c1.31-.08,2.65.17,4-.31a1.34,1.34,0,0,1,1.58.44,1,1,0,0,1,.26,1.1,3.81,3.81,0,0,0-.24.64c-.14.83.08,1,1,.8,1.37-.34,2,.16,2.21,1.47.67,4.93,0,9.89.38,14.82.17,2.37.1,4.76.36,7.11a79.35,79.35,0,0,1,.67,8.43,2.61,2.61,0,0,0,.67,1.59c0-.57,0-1.14,0-1.7a12.09,12.09,0,0,1,.3-3.27c.28-1,0-2,.33-3.07a24.24,24.24,0,0,0,.44-3.93A16.92,16.92,0,0,1,46.9,26c.43-1.78.34-3.61.88-5.39a47.37,47.37,0,0,0,.88-5.22c.2-1.11.52-2.2.83-3.47C48,11.53,46.43,11,44.8,10.59c-.33-.09-.72,0-.73-.51a.82.82,0,0,1,.86-.88,2,2,0,0,1,.69,0q2.37.67,4.72,1.39c.58.17.9,1.11.67,1.92a19.66,19.66,0,0,0-.62,1.93c-.39,2.13-.7,4.27-1.07,6.4-.12.67-.33,1.32-.5,2a3.9,3.9,0,0,0-.17.48c-.13,1.54-.14,3.11-.4,4.64-.36,2.08-.18,4.24-.92,6.26a.89.89,0,0,0-.08.32c-.13,1.67-.22,3.34-.37,5a12.14,12.14,0,0,1-.28,3.27c-.37,1-.06,2.13-.35,3.24-.45,1.7-.47,3.51-.81,5.24a23.7,23.7,0,0,1-1.06,3.58c-.22.62-.49.63-1.37.29.06-.81.13-1.63.2-2.43a11.43,11.43,0,0,1-5.72.41,10.11,10.11,0,0,0-4.57.09c1.47.24,2.94.39,4.41.52a5,5,0,0,1,.87,0A17.45,17.45,0,0,0,42.59,55C42.74,55,42.89,55.08,43,55.15Zm.75-3.09A5.47,5.47,0,0,1,43,48.24c0-1,.32-2.05.31-3.08-.05-2.43,0-4.85-.24-7.3-.3-2.62-.49-5.26-.72-7.9s-.16-5.32-.34-8a32.48,32.48,0,0,1,.2-7.3,36.39,36.39,0,0,0,.07-5.43c0-1.06-.21-1.29-1.22-1.46-.7-.13-1,.1-.85.84a18,18,0,0,1,.31,3.43c.14,3.66-.18,7.31.28,11a91.79,91.79,0,0,1,.41,9.39c.06,2.69,0,5.38,0,8.07a3.54,3.54,0,0,0,0,1.22c.66,1.69-.14,3.24-.3,4.86-.06.65-.61,1.17-.28,2s.14,1.15-.86,1.37a7,7,0,0,1-1.32.31c-1.62,0-3.23.2-4.83.3a33.72,33.72,0,0,1-7.1-.34,50,50,0,0,0-7.91-.65c-1.39,0-2.78-.12-4.17-.18a.36.36,0,0,0-.24.07c-.25.36.27,1.47.73,1.52,1.37.14,2.75.32,4.13.34A27.4,27.4,0,0,0,24.35,51a18.29,18.29,0,0,1,4.83.21c2.09.19,4.2.06,6.31.07a3.54,3.54,0,0,1,1.22,0c1.59.61,3.23.32,4.83.24A3.89,3.89,0,0,1,43.79,52.06Zm-12.08.86c-.07-.06-.13-.17-.21-.17a.91.91,0,0,0-.31.09c.06.06.12.16.19.17A.82.82,0,0,0,31.71,52.92Z"/><path d="M21.63,16.93c1.14-.1,2.16.23,3.16-.33a1.41,1.41,0,0,1,1,0,1.18,1.18,0,0,1,.67.68A2.81,2.81,0,0,1,26,19.72,11.12,11.12,0,0,1,21.38,23,3.61,3.61,0,0,1,18,22.57a6.81,6.81,0,0,1-3.11-3.48,2.39,2.39,0,0,1-.21-.64,12.29,12.29,0,0,1,.64-3.85,7.25,7.25,0,0,1,2.6-3.18c.91-.78,2.09-.51,3.18-.42.19,0,.45.38.52.63a3.58,3.58,0,0,1,.05,1C21.63,14,21.63,15.36,21.63,16.93Zm-1.42-5.17a4.35,4.35,0,0,0-3.33,2.44c-1.46,2.52-1.43,4.91,1.2,6.57.1.06.23.08.31.16.85.93,1.95.45,2.95.52,1.1-.84,2.2-1.67,3.28-2.52a.48.48,0,0,0,.08-.45.47.47,0,0,0-.44-.11c-.93.54-1.94.24-2.9.24-.81,0-1.14-.48-1.15-1.34C20.2,15.47,20.21,13.66,20.21,11.76Z"/><path d="M26,15.87c-1-.15-1.89-.22-2.71-.42a.74.74,0,0,1-.54-1A16.43,16.43,0,0,0,23,10.73c0-.72,1.11-1.3,2-1.18a4,4,0,0,1,3.58,3.35,3.85,3.85,0,0,0,.26,1c.25.52-.1.87-.26,1.29s-.56.27-.87.33ZM24.36,11c0,.87,0,1.65.06,2.43s.27,1,1,1.07,1.37,0,2.07,0C27,12.62,26.3,11.13,24.36,11Z"/><path d="M35,37c-.7,1.16-1.86,1.28-2.86,1.63a21.94,21.94,0,0,1-2.81.61,3.13,3.13,0,0,1-.85.1c-1.12-.15-2.24-.38-3.37-.51-.36,0-.74.18-1.11.18a.87.87,0,0,1-.88-1.16c.07-.2.4-.51.45-.48.9.51,1.88-.6,2.75.14a.47.47,0,0,0,.32.1c1.24-.16,2.49-.3,3.72-.5a24.57,24.57,0,0,1,2.5-.5A9.41,9.41,0,0,1,35,37Z"/><path d="M34.12,28.76c-.94.31-1.56.57-2.19.71-.86.19-1.68.72-2.62.12-.34-.21-.91,0-1.38-.05a8,8,0,0,1-1.9,0,14.71,14.71,0,0,0-1.76,0,.68.68,0,0,1-.5-.32c-.07-.18,0-.55.09-.63.46-.31,1.07-.86,1.45-.74.93.29,1.81-.19,2.77.14a5,5,0,0,0,3.06.08,2.18,2.18,0,0,1,2,.27C33.39,28.43,33.6,28.52,34.12,28.76Z"/><path d="M18.26,30.3c.25-.52.43-.94.65-1.34a1,1,0,0,1,1-.5c.41,0,.7.17.61.62-.2,1-.42,2.09-.7,3.12a.91.91,0,0,1-1.42.49c-.19-.12-.43-.25-.51-.44a3.61,3.61,0,0,0-1.7-2,.46.46,0,0,1-.15-.44.55.55,0,0,1,.39-.25A1.53,1.53,0,0,1,18.26,30.3Z"/><path d="M24.87,41.83c.52,0,1.14-.14,1.55.44.18.24.34.11.57,0a5.5,5.5,0,0,1,2.68-.46,2.57,2.57,0,0,1,.9.39c.1.06.11.3.1.46s-.19.18-.26.16c-1.24-.3-2.11.91-3.3.76-.59.65-1.1.07-1.53-.19s-.8-.63-1.39-.56c-.37,0-.48-.22-.46-.56s.23-.49.57-.47C24.47,41.84,24.65,41.83,24.87,41.83Z"/><path d="M32.54,16.89c.41,0,.82,0,1.23,0,.59,0,1,.14,1.16.77,0,.23.54.42.13.69-.21.13-.57.26-.73.16a1.58,1.58,0,0,0-1.48-.05,1.31,1.31,0,0,1-1,0,1,1,0,0,0-1.39.22c-.32.34-.78.47-1,.1a.88.88,0,0,1,.16-1.25,4.77,4.77,0,0,1,1.54-.65,6.53,6.53,0,0,1,1.4,0Z"/><path d="M17.53,40.08c.29-.64.51-1.22.79-1.76a.65.65,0,0,1,.9-.3.8.8,0,0,1,.26.71,27.28,27.28,0,0,1-.7,2.8c-.2.63-.74.77-1.18.3a26.72,26.72,0,0,1-1.84-2.29c-.09-.12.1-.53.27-.71s.46-.21.66.16A7.92,7.92,0,0,0,17.53,40.08Z"/><path d="M35.34,21.51a9.62,9.62,0,0,0-1,.8,1.35,1.35,0,0,1-1.67.33,4.19,4.19,0,0,0-2.34.13,2.25,2.25,0,0,1-1.79-.3.66.66,0,0,1-.21-.58.59.59,0,0,1,.42-.39,10.63,10.63,0,0,0,3.41-.36.85.85,0,0,1,.65.12,1.43,1.43,0,0,0,1.62,0C34.58,21.12,35,21.39,35.34,21.51Z"/><path d="M29.29,33.15a15.09,15.09,0,0,0-1.48-.34c-.57-.07-1.3-.3-1.68,0-.82.54-1.43-.06-2.13-.11-.09,0-.24-.25-.23-.36a.46.46,0,0,1,.34-.27A8.16,8.16,0,0,0,27,31.69c.24-.12.65.08,1,.16.66.16,1.31.32,2,.52.17.05.29.24.44.37a3.12,3.12,0,0,1-.53.3,1.8,1.8,0,0,1-.52,0Z"/><path d="M31.7,13.27a4.56,4.56,0,0,1,1.45-1.69c.56.35,1,.93,1.71.8.11,0,.36.23.41.4a.44.44,0,0,1-.41.6c-.64.06-1.23.67-1.94,0C32.68,13.22,32.19,13.32,31.7,13.27Z"/></g></svg>