<svg xmlns="http://www.w3.org/2000/svg" viewBox="0 0 60 60"><defs><style>.cls-1{fill:#171717;}</style></defs><g id="WIIM"><path class="cls-1" d="M14.06,45.32c1.48,0,2.31.26,2.85,1.3a15,15,0,0,0,1.53,2.05,1.66,1.66,0,0,0,3-.25,43.16,43.16,0,0,0,2.45-4.66,39.85,39.85,0,0,1,3.7-7.67,28.94,28.94,0,0,0,1.74-3.78c.64-1.31,1.39-2.56,2-3.87s.61-1.68-.34-2.59a2.36,2.36,0,0,1-.79-2.14,7.41,7.41,0,0,1,.31-2.54c.28-.59.31-1.39.9-1.73a20.79,20.79,0,0,1,2.8-1.26c.12-.05.32.11.5.15.82.19,1.65.35,2.46.56a3.7,3.7,0,0,1,2.39,4.95A8.59,8.59,0,0,1,38,26.26a.86.86,0,0,0-.16,1.23,14.36,14.36,0,0,1,1.68,7,6.39,6.39,0,0,0,1.19,3.75c1.07,1.54,1.92,3.23,2.86,4.86.15.27.24.56.4.82.48.78,1,.85,1.63.25a10.37,10.37,0,0,0,2.12-2.75c.91-1.58,1.9-3.12,2.92-4.63a13.58,13.58,0,0,1,1.7-1.94,1.49,1.49,0,0,1,.8-.34c.46-.06.91,0,.83.65a3,3,0,0,1-.26,1.22c-1.48,2.45-3,4.84-4.52,7.29a10,10,0,0,1-3.48,3.17,1.26,1.26,0,0,1-1.68,0,12.68,12.68,0,0,1-2.25-2.13c-1.23-1.81-2.31-3.72-3.38-5.62a10.11,10.11,0,0,1-1.14-5.48,11.51,11.51,0,0,0-1.47-5.38,1.14,1.14,0,0,0-1.11-.78,1.07,1.07,0,0,0-1.14.73c-.53,1.22-1.1,2.42-1.61,3.65C30.6,35.07,28.71,38,27.1,41.16c-.25.48-.43,1-.63,1.5A37.46,37.46,0,0,1,23,49.43c-1.42,2.14-3.43,2.47-5.41.86a12,12,0,0,1-1.63-2c-.25-.34-.43-.74-.71-1a.8.8,0,0,0-1.1-.24,8,8,0,0,0-3.62,3.27c-.89,1.45-1.67,3-2.51,4.44a12.29,12.29,0,0,1-.85,1.39,1,1,0,0,1-.72.37c-.55,0-.4-.53-.35-.86a3.06,3.06,0,0,1,.33-.83c.86-1.73,1.69-3.49,2.6-5.2a10.8,10.8,0,0,1,3.59-3.83A4.26,4.26,0,0,1,14.06,45.32Z"/><path class="cls-1" d="M46.15,22.94c.68-.16,1.07-.26,1.46-.34s1-.15,1.41-.27a1.28,1.28,0,0,0,1.06-1.47c-.06-1.55,0-3.11,0-4.66a4.87,4.87,0,0,0-.17-1.07,32.67,32.67,0,0,1-1-5.73A7.91,7.91,0,0,0,48,6.11a1.61,1.61,0,0,0-1.56-1c-1.4.08-2.84-.34-4.19.32-2.19-.16-4.38.1-6.61-.23a15,15,0,0,0-6.6.18,2.42,2.42,0,0,1-.54.06c-2.63.14-5.28.17-7.9.43a37.53,37.53,0,0,0-5.77.68A14.12,14.12,0,0,0,11,8.26a3.43,3.43,0,0,0-1.5,2.8c-.11,1.49,0,3,0,4.47a6.9,6.9,0,0,0,.24.86,16,16,0,0,1,.5,3.24c-.06,1.26.2,1.44,1.51,1.47.44,0,.87,0,1.3,0a14,14,0,0,1,2.72.27,8.42,8.42,0,0,0,2.72-.15c.12,0,.23-.09.35-.1,1.7-.14,3.41-.21,5.11-.43a25,25,0,0,1,5.11-.32,10,10,0,0,1,2.28.52c.49.16.52.65.16,1a1.47,1.47,0,0,1-1.25.65,16.6,16.6,0,0,0-2.23,0c-2.08.1-4.15.08-6.24.28a92.25,92.25,0,0,1-9.84.06,3.78,3.78,0,0,1-1.76-.39c-.79-.45-1.55-1-1.45-2.15a13.51,13.51,0,0,0-.63-4.68,1.89,1.89,0,0,1-.05-1.1,11.77,11.77,0,0,0,.31-3.83A4.12,4.12,0,0,1,10.68,7.1a16.45,16.45,0,0,1,5.5-2.2,5.91,5.91,0,0,1,.69-.19c2.26,0,4.52-.09,6.79-.32,2.11-.22,4.22-.52,6.32-.71a20.15,20.15,0,0,1,6.61.19,10,10,0,0,0,4.25,0c2.28-.5,4.54-.2,6.8-.24A2,2,0,0,1,49,4.39a7.27,7.27,0,0,1,1.41,2.7c.54,2.53.57,5.16,1.4,7.66a10.39,10.39,0,0,1,.08,3c0,.93,0,1.86,0,2.8a3.26,3.26,0,0,1-3.25,3.56C47.59,24.17,47.36,24.09,46.15,22.94Z"/><path class="cls-1" d="M25.15,9.54c.24,0,.55,0,.72.08,1.65,1.18,3.41.69,5.08.22a8.38,8.38,0,0,1,2.15-.3c1.36,0,2.72,0,4.08,0A9.67,9.67,0,0,0,41,9.11a9,9,0,0,1,2.33-.33c1.07-.12,1.5.71,2.06,1.33.07.08-.09.44-.21.62s-.35.16-.41.1c-1.12-1-2.36-.38-3.46-.12a12.41,12.41,0,0,1-6.06.39,9.19,9.19,0,0,0-4.88.38,6.15,6.15,0,0,1-4.61-.22,4,4,0,0,0-2.33-.18,29.53,29.53,0,0,1-7.43.69,3.22,3.22,0,0,1-1.18-.36c-.1,0-.19-.33-.16-.46s.25-.23.4-.26a3.66,3.66,0,0,1,.74,0A24,24,0,0,0,21.16,10a26.4,26.4,0,0,1,4-.29Z"/><path class="cls-1" d="M27.84,17.07c-1.25-.22-2.33.24-3.28-.43-.17-.12-.48-.38-.46-.41a1.72,1.72,0,0,1,.57-.65,1,1,0,0,1,.7,0,5.54,5.54,0,0,0,3.37,0,24,24,0,0,1,6.72-.45c.16,0,.44.16.44.21,0,.22-.09.51-.25.62a1.83,1.83,0,0,1-.84.25,18.26,18.26,0,0,0-2.51.3A30.82,30.82,0,0,1,27.84,17.07Z"/></g></svg>