<svg width="60" height="60" viewBox="0 0 60 60" fill="none" xmlns="http://www.w3.org/2000/svg">
<path d="M32.7902 38.05C31.2902 40.05 29.1502 40.38 27.0602 40.92C25.1188 41.2508 23.1471 41.3682 21.1802 41.27C20.1002 41.27 19.9502 41.5 19.8202 42.5C19.7676 43.8484 19.9194 45.197 20.2702 46.5C20.4502 47.64 20.8102 48.74 20.9402 49.88C20.9376 50.3942 20.7809 50.8959 20.4902 51.32C20.222 51.5958 19.8569 51.7563 19.4724 51.7675C19.0878 51.7787 18.714 51.6397 18.4302 51.38C16.5502 48.93 14.3002 46.69 13.5002 43.58C13.3402 42.95 13.2102 42.48 12.5002 42.4C9.4202 42.08 7.4102 40.24 5.9502 37.72C4.36963 35.1319 3.52274 32.1626 3.5002 29.13C3.5002 27.94 3.5002 26.76 3.5002 25.58C3.42465 23.4366 4.05724 21.3279 5.3002 19.58C6.7802 17.53 8.2302 15.44 9.8702 13.52C11.4913 11.8119 13.3961 10.3976 15.5002 9.34003C17.064 8.2953 18.8062 7.54624 20.6402 7.13003C23.2602 6.71003 25.8802 6.13003 28.5602 6.89003C29.3602 7.13003 30.2602 7.02003 31.0802 7.21003C33.4102 7.76003 35.2202 9.28004 37.1902 10.52C38.8782 11.6437 40.2681 13.1605 41.2402 14.94C42.3184 16.63 42.9068 18.5857 42.9402 20.59C43.0405 21.9524 42.9086 23.3219 42.5502 24.64C42.4002 25.06 42.4502 25.54 43.1802 25.55C43.6202 25.55 44.0602 25.87 44.4902 25.85C45.848 25.9389 47.1905 26.1873 48.4902 26.59C51.6802 27.25 53.7502 29.3 55.6102 31.66C56.2327 32.4993 56.5502 33.5259 56.5102 34.57C56.5966 37.1606 56.1998 39.7447 55.3402 42.19C54.9154 43.3806 54.2324 44.4624 53.3403 45.3579C52.4482 46.2535 51.3691 46.9406 50.1802 47.37C49.1197 47.8897 47.9356 48.1044 46.7602 47.99C46.1734 47.8571 45.5589 47.9248 45.0151 48.1822C44.4712 48.4396 44.0294 48.8719 43.7602 49.41C43.0254 50.4167 42.1261 51.2923 41.1002 52C40.5458 52.4855 39.837 52.7584 39.1002 52.77C38.4211 52.8824 37.7523 53.0497 37.1002 53.27C36.6125 53.4322 36.1039 53.5232 35.5902 53.54C35.4051 53.5207 35.2268 53.4593 35.0691 53.3605C34.9114 53.2617 34.7784 53.1282 34.6802 52.97C34.5502 52.69 34.7502 52.26 34.8502 51.91C34.8502 51.8 35.0202 51.71 35.1302 51.63C37.0002 50.16 38.0002 48.09 39.0002 46C39.6802 44.53 39.5902 44.35 38.0802 43.59C35.7409 42.395 33.876 40.442 32.7902 38.05ZM32.9102 36.55C32.8559 35.546 32.9197 34.5392 33.1002 33.55C33.7436 31.0118 35.3458 28.8217 37.5702 27.44C38.1656 27.0569 38.791 26.7225 39.4402 26.44C39.9011 26.2764 40.2965 25.9676 40.567 25.5601C40.8374 25.1526 40.9684 24.6683 40.9402 24.18C40.9902 23.33 40.9402 22.47 40.9402 21.62C40.8716 19.0237 39.8706 16.5388 38.1202 14.62C36.6616 13.026 34.977 11.6548 33.1202 10.55C32.1325 9.8045 30.9607 9.34134 29.7302 9.21003C28.9587 9.19568 28.1923 9.0814 27.4502 8.87003C25.2102 8.09003 23.1002 8.87003 20.9402 9.16003C19.2969 9.48347 17.7273 10.1072 16.3102 11C14.4376 11.9489 12.7454 13.218 11.3102 14.75C9.85574 16.3427 8.48714 18.0118 7.2102 19.75C5.89765 21.378 5.25407 23.4447 5.4102 25.53C5.51026 26.9049 5.51026 28.2852 5.4102 29.66C5.3102 32.92 6.7102 35.66 8.5302 38.21C9.02282 38.9027 9.66927 39.4718 10.4188 39.8726C11.1684 40.2734 12.0006 40.495 12.8502 40.52C14.7802 40.63 14.7802 40.61 15.3802 42.47C15.5402 42.95 15.6302 43.47 15.8002 43.94C16.1929 45.019 16.8414 45.9867 17.6902 46.76C17.2819 45.1257 17.1936 43.4279 17.4302 41.76C17.5202 40.33 18.4302 38.67 20.4302 38.93C21.2102 39.04 22.0202 38.93 22.8202 38.93C24.7021 38.9231 26.5725 38.6367 28.3702 38.08C29.0053 38.0291 29.6174 37.8194 30.1502 37.47C30.5004 37.1033 30.9349 36.8278 31.416 36.6674C31.897 36.5071 32.41 36.4668 32.9102 36.55ZM39.4102 50.1C40.3402 49.57 41.0402 49.23 41.6702 48.8C42.1611 48.5015 42.5836 48.1028 42.9102 47.63C43.2079 47.0846 43.6599 46.6391 44.2095 46.3492C44.7591 46.0593 45.3819 45.9378 46.0002 46C46.7173 46.0375 47.4359 45.9633 48.1302 45.78C51.4402 44.78 53.0102 42.37 53.6702 39.19C53.7502 38.81 53.8202 38.44 53.8902 38.06C54.2402 36.38 54.4502 34.55 53.4802 33.16C52.3033 31.2411 50.5135 29.7754 48.4002 29C47.6602 28.77 46.9502 28.46 46.2202 28.24C44.9538 27.8146 43.6079 27.6792 42.2821 27.8436C40.9563 28.008 39.6844 28.4682 38.5602 29.19C35.9002 30.88 34.9102 33.4 34.5602 36.32C34.5652 36.7013 34.6539 37.0769 34.8202 37.42C35.5517 39.2948 36.9872 40.8093 38.8202 41.64C41.4202 42.93 41.6202 43.29 41.2402 46.1C41.2076 46.4107 41.1266 46.7144 41.0002 47C40.4902 48 40.0002 48.93 39.4102 50.1Z" fill="white"/>
<path d="M12.7302 26.3201C13.9236 25.8078 15.2022 25.5229 16.5002 25.4801C17.0146 25.4629 17.5179 25.3259 17.9702 25.0801C18.5909 24.7288 19.232 24.4149 19.8902 24.1401C20.4802 23.9801 21.3602 23.8501 21.7302 24.1401C21.8678 24.3121 22.0436 24.4497 22.2436 24.5421C22.4437 24.6344 22.6624 24.679 22.8827 24.6722C23.1029 24.6654 23.3185 24.6075 23.5124 24.503C23.7064 24.3985 23.8734 24.2503 24.0002 24.0701C24.3202 23.7801 24.8402 23.7301 25.2102 23.4901C25.4281 23.2873 25.7116 23.1697 26.009 23.1587C26.3064 23.1477 26.5979 23.244 26.8302 23.4301C28.0702 24.3601 29.1202 23.9201 30.1602 23.0001C30.6594 22.5806 31.2789 22.3303 31.9294 22.2854C32.58 22.2405 33.228 22.4032 33.7802 22.7501C33.9774 22.8793 34.1226 23.0741 34.1902 23.3001C34.2702 23.6901 34.0402 23.8401 33.6402 23.9201C32.5554 24.1309 31.561 24.6682 30.7902 25.4601C30.2001 25.9634 29.522 26.3533 28.7902 26.6101C28.4744 26.704 28.1402 26.7185 27.8175 26.6522C27.4947 26.5859 27.1934 26.4409 26.9402 26.2301C26.6953 26.0073 26.3762 25.8839 26.0452 25.8839C25.7142 25.8839 25.395 26.0073 25.1502 26.2301C24.9831 26.3287 24.8093 26.4155 24.6302 26.4901C24.1529 26.8386 23.5814 27.0347 22.9907 27.0525C22.3999 27.0704 21.8176 26.9092 21.3202 26.5901C21.15 26.445 20.9338 26.3653 20.7102 26.3653C20.4866 26.3653 20.2703 26.445 20.1002 26.5901C19.7402 26.8401 19.2402 26.9101 18.8802 27.1601C18.0462 27.6953 17.0566 27.9348 16.0702 27.8401C15.2235 27.7642 14.3704 27.8733 13.5702 28.1601C13.2064 28.3363 12.7911 28.3747 12.4013 28.268C12.0115 28.1613 11.6735 27.9169 11.4502 27.5801C10.9202 26.8201 11.3602 25.0301 12.2202 24.7401C12.3095 24.7381 12.3978 24.7591 12.4766 24.8011C12.5554 24.8432 12.6221 24.9048 12.6702 24.9801C12.7203 25.4249 12.7404 25.8726 12.7302 26.3201Z" fill="white"/>
<path d="M26.69 17.2101C25 16.7301 23.8 18.0001 22.41 18.8001C21.9366 19.0921 21.3912 19.2468 20.835 19.2468C20.2787 19.2468 19.7334 19.0921 19.26 18.8001C18.6254 18.4937 17.9297 18.3345 17.225 18.3345C16.5202 18.3345 15.8246 18.4937 15.19 18.8001C14.5885 19.3135 13.8086 19.5687 13.02 19.5101C12.76 19.4601 12.36 19.2701 12.32 19.0801C12.23 18.6901 12 18.1401 12.7 17.9701C13.0115 17.9165 13.31 17.8045 13.58 17.6401C14.0449 17.1811 14.6042 16.8289 15.2189 16.6078C15.8337 16.3868 16.4892 16.3022 17.14 16.3601C17.42 16.3601 17.73 16.1001 18.04 16.0601C18.68 15.9701 19.41 15.7101 19.9 16.2901C20.64 17.1501 21.32 16.6601 22 16.2901C22.34 16.1101 22.61 15.7901 22.94 15.5901C23.8803 14.9874 24.9842 14.6904 26.1 14.7401C27.48 14.8401 28.88 14.7401 30.27 14.7401C30.7111 14.7649 31.1397 14.8952 31.52 15.1201C31.83 15.3001 31.88 15.6501 31.52 15.9001C30.0898 16.8382 28.3982 17.297 26.69 17.2101Z" fill="white"/>
<path d="M19.68 31.0001C19.87 31.0001 20.05 30.9401 20.12 31.0001C21.67 32.3901 23.12 31.0001 24.56 30.7301C26 30.4601 27.38 30.9701 28.77 31.0701C28.86 31.0701 29 31.5101 28.96 31.7301C28.86 32.3301 28.42 32.5601 27.82 32.5501C25.8735 32.5153 23.9384 32.8548 22.12 33.5501C21.8504 33.6705 21.5545 33.7199 21.2605 33.6937C20.9664 33.6674 20.684 33.5663 20.44 33.4001C20.1189 33.1193 19.7188 32.9445 19.2946 32.8998C18.8704 32.855 18.4427 32.9425 18.07 33.1501C17.82 33.3001 17.17 33.0601 16.88 32.7901C16.59 32.5201 16.69 32.0801 16.69 31.7101C16.69 31.5901 16.91 31.3901 17.06 31.3701C18 31.2901 18.84 31.1601 19.68 31.0001Z" fill="white"/>
<path d="M48.7903 36.0001C48.2503 36.8301 47.3703 36.5501 46.6503 36.4801C45.9522 36.4149 45.2884 36.1472 44.7403 35.7101C43.7904 34.6403 42.6427 33.7642 41.3603 33.1301C41.0731 32.9676 40.84 32.7241 40.6903 32.4301C40.3903 31.9701 40.4803 30.7801 40.8203 30.6401C41.5103 30.3601 41.6903 30.9101 41.9503 31.3601C42.0215 31.4681 42.1141 31.5602 42.2225 31.6308C42.3309 31.7013 42.4527 31.7487 42.5803 31.7701C43.6734 31.9937 44.6415 32.6224 45.2903 33.5301C45.7224 34.0866 46.3219 34.4897 47.0003 34.6801C47.393 34.7081 47.7697 34.8471 48.0865 35.0807C48.4034 35.3144 48.6475 35.6332 48.7903 36.0001Z" fill="white"/>
<path d="M47 40.47C46.5567 40.5533 46.0997 40.5266 45.6691 40.3924C45.2386 40.2581 44.8474 40.0204 44.53 39.7C44.2583 39.5201 44.0009 39.3195 43.76 39.1C42.9664 38.0701 41.8728 37.3119 40.63 36.93C40.46 36.93 40.35 36.59 40.21 36.41C40.3551 36.3055 40.5176 36.2277 40.69 36.18C41.15 36.18 41.62 36.18 42.08 36.18C42.4046 36.1474 42.7324 36.192 43.0365 36.3102C43.3406 36.4284 43.6125 36.6168 43.83 36.86C44.6353 37.6148 45.4834 38.3226 46.37 38.98C46.7079 39.1486 47.0634 39.2794 47.43 39.37C47.7865 39.5077 48.1228 39.6927 48.43 39.92C48.49 39.92 48.34 40.46 48.24 40.48C47.8271 40.5134 47.4122 40.51 47 40.47Z" fill="white"/>
</svg>
