<svg width="60" height="60" viewBox="0 0 60 60" fill="none" xmlns="http://www.w3.org/2000/svg">
<path d="M14.0598 45.32C15.5398 45.32 16.3698 45.58 16.9098 46.62C17.3605 47.3456 17.8723 48.0315 18.4398 48.67C18.5965 48.9447 18.8285 49.1689 19.1083 49.3163C19.3882 49.4636 19.7043 49.528 20.0195 49.5017C20.3347 49.4754 20.6358 49.3597 20.8874 49.168C21.1391 48.9764 21.3307 48.7169 21.4398 48.42C22.3505 46.918 23.1687 45.3617 23.8898 43.76C24.8456 41.0785 26.086 38.5072 27.5898 36.09C28.2597 34.8734 28.8412 33.6101 29.3298 32.31C29.9698 31 30.7198 29.75 31.3298 28.44C31.9398 27.13 31.9398 26.76 30.9898 25.85C30.688 25.5891 30.4572 25.256 30.319 24.8818C30.1809 24.5075 30.1399 24.1044 30.1998 23.71C30.155 22.8518 30.2599 21.9923 30.5098 21.17C30.7898 20.58 30.8198 19.78 31.4098 19.44C32.3108 18.9516 33.2467 18.5304 34.2098 18.18C34.3298 18.13 34.5298 18.29 34.7098 18.33C35.5298 18.52 36.3598 18.68 37.1698 18.89C37.6673 19.0351 38.1287 19.283 38.5243 19.6178C38.9198 19.9525 39.2407 20.3666 39.466 20.8333C39.6913 21.3 39.8161 21.8087 39.8322 22.3267C39.8484 22.8446 39.7556 23.3602 39.5598 23.84C39.1796 24.7287 38.6522 25.5468 37.9998 26.26C37.9066 26.3288 37.8283 26.4157 37.7695 26.5155C37.7107 26.6154 37.6727 26.726 37.6578 26.8409C37.6428 26.9558 37.6513 27.0725 37.6825 27.184C37.7138 27.2956 37.7673 27.3996 37.8398 27.49C38.985 29.6428 39.5632 32.0519 39.5198 34.49C39.5122 35.834 39.9286 37.1463 40.7098 38.24C41.7798 39.78 42.6298 41.47 43.5698 43.1C43.7198 43.37 43.8098 43.66 43.9698 43.92C44.4498 44.7 44.9698 44.77 45.5998 44.17C46.456 43.379 47.1727 42.4493 47.7198 41.42C48.6298 39.84 49.6198 38.3 50.6398 36.79C51.1436 36.0909 51.7128 35.4413 52.3398 34.85C52.5667 34.6597 52.8452 34.5413 53.1398 34.51C53.5998 34.45 54.0498 34.51 53.9698 35.16C53.9696 35.5804 53.881 35.996 53.7098 36.38C52.2298 38.83 50.7098 41.22 49.1898 43.67C48.2986 44.9885 47.1055 46.0753 45.7098 46.84C45.4788 47.0466 45.1797 47.1608 44.8698 47.1608C44.5598 47.1608 44.2608 47.0466 44.0298 46.84C43.1955 46.2246 42.4399 45.5093 41.7798 44.71C40.5498 42.9 39.4698 40.99 38.3998 39.09C37.5116 37.407 37.1165 35.5075 37.2598 33.61C37.2182 31.7233 36.7134 29.8757 35.7898 28.23C35.7127 27.9982 35.5633 27.7973 35.3634 27.6569C35.1636 27.5165 34.924 27.4439 34.6798 27.45C34.4347 27.4216 34.1874 27.4788 33.9797 27.6118C33.7719 27.7448 33.6165 27.9456 33.5398 28.18C33.0098 29.4 32.4398 30.6 31.9298 31.83C30.5998 35.07 28.7098 38 27.0998 41.16C26.8498 41.64 26.6698 42.16 26.4698 42.66C25.5459 45.0286 24.3832 47.2969 22.9998 49.43C21.5798 51.57 19.5698 51.9 17.5898 50.29C16.9762 49.6838 16.4297 49.0133 15.9598 48.29C15.7098 47.95 15.5298 47.55 15.2498 47.29C15.135 47.1131 14.9551 46.9887 14.7491 46.9437C14.5432 46.8988 14.3278 46.937 14.1498 47.05C12.6321 47.7365 11.3666 48.8797 10.5298 50.32C9.63978 51.77 8.85978 53.32 8.01978 54.76C7.76751 55.2416 7.48355 55.706 7.16978 56.15C7.08219 56.2584 6.97289 56.3474 6.8489 56.4111C6.7249 56.4748 6.58896 56.5119 6.44978 56.52C5.89978 56.52 6.04978 55.99 6.09978 55.66C6.16859 55.3687 6.27978 55.089 6.42978 54.83C7.28978 53.1 8.11978 51.34 9.02978 49.63C9.89324 48.0775 11.1263 46.762 12.6198 45.8C13.0672 45.5551 13.5549 45.3925 14.0598 45.32Z" fill="white"/>
<path d="M46.1496 22.94C46.8296 22.78 47.2196 22.68 47.6096 22.6C47.9996 22.52 48.6096 22.45 49.0196 22.33C49.1858 22.3032 49.3451 22.244 49.4883 22.1556C49.6316 22.0672 49.7561 21.9514 49.8545 21.8149C49.953 21.6783 50.0235 21.5237 50.0621 21.3598C50.1008 21.196 50.1067 21.0261 50.0796 20.86C50.0196 19.31 50.0796 17.75 50.0796 16.2C50.0629 15.8381 50.0058 15.4792 49.9096 15.13C49.4065 13.2535 49.0719 11.3359 48.9096 9.39998C48.8493 8.25015 48.5387 7.12734 47.9996 6.10998C47.8742 5.80291 47.6571 5.54205 47.3778 5.36305C47.0986 5.18406 46.7709 5.09568 46.4396 5.10998C45.0396 5.18998 43.5996 4.76998 42.2496 5.42998C40.0596 5.26998 37.8696 5.52998 35.6396 5.19998C33.4535 4.76904 31.1989 4.83053 29.0396 5.37998C28.8624 5.42018 28.6812 5.44031 28.4996 5.43998C25.8696 5.57998 23.2196 5.60998 20.5996 5.86998C18.6615 5.94721 16.7324 6.17455 14.8296 6.54998C13.4749 6.92612 12.184 7.50248 10.9996 8.25998C10.5423 8.57117 10.1671 8.98832 9.9059 9.47587C9.64471 9.96342 9.5053 10.5069 9.49956 11.06C9.38956 12.55 9.49956 14.06 9.49956 15.53C9.56091 15.8215 9.64107 16.1088 9.73956 16.39C10.0167 17.45 10.1843 18.5357 10.2396 19.63C10.1796 20.89 10.4396 21.07 11.7496 21.1C12.1896 21.1 12.6196 21.1 13.0496 21.1C13.9629 21.101 14.8739 21.1915 15.7696 21.37C16.6784 21.4679 17.597 21.4173 18.4896 21.22C18.6096 21.22 18.7196 21.13 18.8396 21.12C20.5396 20.98 22.2496 20.91 23.9496 20.69C25.6375 20.4087 27.3498 20.3015 29.0596 20.37C29.8373 20.4535 30.6025 20.6281 31.3396 20.89C31.8296 21.05 31.8596 21.54 31.4996 21.89C31.3623 22.0943 31.1759 22.2609 30.9575 22.3745C30.7391 22.4881 30.4957 22.545 30.2496 22.54C29.5071 22.49 28.7621 22.49 28.0196 22.54C25.9396 22.64 23.8696 22.62 21.7796 22.82C18.503 23.015 15.2183 23.0351 11.9396 22.88C11.33 22.8938 10.7262 22.76 10.1796 22.49C9.38956 22.04 8.62956 21.49 8.72956 20.34C8.79594 18.7551 8.58268 17.1709 8.09956 15.66C7.97408 15.3064 7.95667 14.9235 8.04956 14.56C8.36199 13.3089 8.46672 12.015 8.35956 10.73C8.37364 9.96976 8.59783 9.22826 9.0073 8.58759C9.41677 7.94691 9.99555 7.43204 10.6796 7.09998C12.3647 6.03987 14.2282 5.29446 16.1796 4.89998C16.4055 4.82276 16.6359 4.75931 16.8696 4.70998C19.1296 4.70998 21.3896 4.61998 23.6596 4.38998C25.7696 4.16998 27.8796 3.86998 29.9796 3.67998C32.1783 3.37887 34.4117 3.44307 36.5896 3.86998C37.9899 4.1745 39.4393 4.1745 40.8396 3.86998C43.1196 3.36998 45.3796 3.66998 47.6396 3.62998C47.9056 3.65923 48.163 3.74156 48.3966 3.87211C48.6302 4.00265 48.8352 4.17875 48.9996 4.38998C49.6549 5.18031 50.1355 6.10051 50.4096 7.08998C50.9496 9.61998 50.9796 12.25 51.8096 14.75C51.9813 15.7408 52.0082 16.7514 51.8896 17.75C51.8896 18.68 51.8896 19.61 51.8896 20.55C51.9313 21.0018 51.8783 21.4573 51.7339 21.8875C51.5895 22.3176 51.3569 22.7128 51.051 23.0479C50.7451 23.383 50.3726 23.6506 49.9574 23.8334C49.5421 24.0163 49.0933 24.1105 48.6396 24.11C47.5896 24.17 47.3596 24.09 46.1496 22.94Z" fill="white"/>
<path d="M25.1497 9.53999C25.3897 9.53999 25.6997 9.53999 25.8697 9.61999C27.5197 10.8 29.2797 10.31 30.9497 9.83999C31.6503 9.64719 32.373 9.54635 33.0997 9.53999C34.4597 9.53999 35.8197 9.53999 37.1797 9.53999C38.4689 9.65375 39.7679 9.50752 40.9997 9.10999C41.7585 8.89849 42.5419 8.78754 43.3297 8.77999C44.3997 8.65999 44.8297 9.48999 45.3897 10.11C45.4597 10.19 45.2997 10.55 45.1797 10.73C45.0597 10.91 44.8297 10.89 44.7697 10.83C43.6497 9.82999 42.4097 10.45 41.3097 10.71C39.3531 11.3398 37.2708 11.4738 35.2497 11.1C33.6186 10.7832 31.9321 10.9145 30.3697 11.48C28.8627 12.0079 27.2095 11.929 25.7597 11.26C25.0182 10.9694 24.2069 10.9067 23.4297 11.08C20.9921 11.6232 18.4955 11.8551 15.9997 11.77C15.5868 11.7272 15.1861 11.6049 14.8197 11.41C14.7197 11.41 14.6297 11.08 14.6597 10.95C14.6897 10.82 14.9097 10.72 15.0597 10.69C15.3057 10.665 15.5536 10.665 15.7997 10.69C17.6066 10.6625 19.4047 10.4311 21.1597 9.99999C22.4837 9.80204 23.8209 9.70509 25.1597 9.70999L25.1497 9.53999Z" fill="white"/>
<path d="M27.8396 17.07C26.5896 16.85 25.5096 17.31 24.5596 16.64C24.3896 16.52 24.0796 16.26 24.0996 16.23C24.2311 15.9683 24.4273 15.7446 24.6696 15.58C24.8953 15.4956 25.1438 15.4956 25.3696 15.58C26.4656 15.9299 27.6435 15.9299 28.7396 15.58C30.9473 15.1149 33.2095 14.9634 35.4596 15.13C35.6196 15.13 35.8996 15.29 35.8996 15.34C35.8996 15.56 35.8096 15.85 35.6496 15.96C35.3939 16.1101 35.1057 16.1959 34.8096 16.21C33.967 16.2519 33.1283 16.3521 32.2996 16.51C30.8285 16.805 29.3379 16.9921 27.8396 17.07Z" fill="white"/>
</svg>
