<svg width="20" height="20" viewBox="0 0 20 20" fill="none" xmlns="http://www.w3.org/2000/svg">
<circle cx="10" cy="10" r="9.5" fill="#F2EFE7" stroke="#74726D"/>
<path d="M8.5 10.5L8.8 10.1L8.38667 9.79L8.09038 10.2133L8.5 10.5ZM10.5 12L10.2 12.4L10.6094 12.7071L10.9069 12.2906L10.5 12ZM15.5 5L10.2448 7.39078L14.9429 10.7466L15.5 5ZM5.40962 15.7867L8.90962 10.7867L8.09038 10.2133L4.59038 15.2133L5.40962 15.7867ZM8.2 10.9L10.2 12.4L10.8 11.6L8.8 10.1L8.2 10.9ZM10.9069 12.2906L13.4069 8.79062L12.5931 8.20938L10.0931 11.7094L10.9069 12.2906Z" fill="#74726D"/>
</svg>
