<svg width="20" height="20" viewBox="0 0 20 20" fill="none" xmlns="http://www.w3.org/2000/svg">
<circle cx="10" cy="10" r="10" fill="#FAEBE5"/>
<path d="M7.5 10.5L7.8 10.1L7.38667 9.79L7.09038 10.2133L7.5 10.5ZM9.5 12L9.2 12.4L9.60941 12.7071L9.90687 12.2906L9.5 12ZM14.5 5L9.24476 7.39078L13.9429 10.7466L14.5 5ZM4.40962 15.7867L7.90962 10.7867L7.09038 10.2133L3.59038 15.2133L4.40962 15.7867ZM7.2 10.9L9.2 12.4L9.8 11.6L7.8 10.1L7.2 10.9ZM9.90687 12.2906L12.4069 8.79062L11.5931 8.20938L9.09313 11.7094L9.90687 12.2906Z" fill="#D03F17"/>
</svg>
