<svg width="32" height="32" viewBox="0 0 32 32" fill="none" xmlns="http://www.w3.org/2000/svg">
<circle cx="16" cy="16" r="16" fill="#F2EFE7"/>
<path d="M10 15.5C10 14.9477 10.4477 14.5 11 14.5H21C21.5523 14.5 22 14.9477 22 15.5V16C22 16.5523 21.5523 17 21 17H11C10.4477 17 10 16.5523 10 16V15.5Z" fill="#836714"/>
<path fill-rule="evenodd" clip-rule="evenodd" d="M11 12.5H21C22.6569 12.5 24 13.8431 24 15.5V16C24 17.6569 22.6569 19 21 19H11C9.34314 19 8 17.6569 8 16V15.5C8 13.8431 9.34315 12.5 11 12.5ZM11 14.5C10.4477 14.5 10 14.9477 10 15.5V16C10 16.5523 10.4477 17 11 17H21C21.5523 17 22 16.5523 22 16V15.5C22 14.9477 21.5523 14.5 21 14.5H11Z" fill="white"/>
</svg>
