<svg width="32" height="32" viewBox="0 0 32 32" fill="none" xmlns="http://www.w3.org/2000/svg">
<circle cx="16" cy="16" r="16" fill="#FAEBE5"/>
<path fill-rule="evenodd" clip-rule="evenodd" d="M8.74891 8.74898C9.3347 8.16319 10.2844 8.16319 10.8702 8.74898L15.9999 13.8787L21.1296 8.74898C21.7154 8.16319 22.6652 8.16319 23.251 8.74898C23.8367 9.33477 23.8367 10.2845 23.251 10.8703L18.1213 16L23.251 21.1297C23.8367 21.7155 23.8367 22.6652 23.251 23.251C22.6652 23.8368 21.7154 23.8368 21.1296 23.251L16 18.1214L10.8703 23.2521C10.2846 23.8379 9.33485 23.838 8.74901 23.2523C8.16317 22.6666 8.16308 21.7168 8.74881 21.131L13.8787 16.0001L8.74891 10.8703C8.16312 10.2845 8.16312 9.33477 8.74891 8.74898Z" fill="#D03F17"/>
<path fill-rule="evenodd" clip-rule="evenodd" d="M21.1296 8.74898C21.7154 8.16319 22.6652 8.16319 23.251 8.74898C23.8367 9.33477 23.8367 10.2845 23.251 10.8703L18.1213 16L23.251 21.1297C23.8367 21.7155 23.8367 22.6652 23.251 23.251C22.6652 23.8368 21.7154 23.8368 21.1296 23.251L16 18.1214L10.8703 23.2521C10.2846 23.8379 9.33485 23.838 8.74901 23.2523C8.16317 22.6666 8.16308 21.7168 8.74881 21.131L13.8787 16.0001L8.74891 10.8703C8.16312 10.2845 8.16312 9.33477 8.74891 8.74898C9.3347 8.16319 10.2844 8.16319 10.8702 8.74898L15.9999 13.8787L21.1296 8.74898ZM15.9999 11.0503L19.7154 7.33477C21.0823 5.96793 23.2983 5.96793 24.6652 7.33476C26.032 8.7016 26.032 10.9177 24.6652 12.2845L20.9497 16L24.6652 19.7155C26.032 21.0823 26.032 23.2984 24.6652 24.6652C23.2983 26.0321 21.0823 26.0321 19.7154 24.6652L16.0002 20.95L12.2847 24.6662C10.918 26.0331 8.7019 26.0334 7.33493 24.6667C5.96797 23.3 5.96776 21.0839 7.33446 19.7169L11.0504 16.0002L7.3347 12.2845C5.96786 10.9177 5.96786 8.7016 7.3347 7.33477C8.70153 5.96793 10.9176 5.96793 12.2844 7.33477L15.9999 11.0503Z" fill="white"/>
</svg>
