<svg width="32" height="32" viewBox="0 0 32 32" fill="none" xmlns="http://www.w3.org/2000/svg">
<circle cx="16" cy="16" r="16" fill="#E7F5EB"/>
<path d="M9.19093 15.1689C9.19 15.4219 9.27633 15.6675 9.43537 15.8643L14.8743 21.3607C14.9755 21.4864 15.1037 21.5879 15.2493 21.6576C15.3949 21.7273 15.5543 21.7634 15.7158 21.7634C15.8772 21.7634 16.0366 21.7273 16.1822 21.6576C16.3278 21.5879 16.456 21.4864 16.5573 21.3607L23.6119 12.0351C23.7963 11.8097 23.8838 11.5203 23.8552 11.2305C23.8265 10.9406 23.6841 10.674 23.4591 10.489C23.3489 10.3977 23.2217 10.3292 23.0847 10.2875C22.9478 10.2458 22.8039 10.2318 22.6615 10.2462C22.5191 10.2606 22.381 10.3033 22.2552 10.3716C22.1295 10.4399 22.0185 10.5326 21.9289 10.6442L15.7164 18.9309L11.1208 14.4759C11.0312 14.3643 10.9203 14.2716 10.7945 14.2033C10.6687 14.1349 10.5306 14.0923 10.3882 14.0779C10.2458 14.0634 10.1019 14.0775 9.96501 14.1191C9.82807 14.1608 9.7008 14.2293 9.59059 14.3207C9.46559 14.4239 9.36494 14.5534 9.29585 14.7001C9.22676 14.8467 9.19093 15.0068 9.19093 15.1689Z" fill="#189D39"/>
<path fill-rule="evenodd" clip-rule="evenodd" d="M7.94302 17.1996L7.87983 17.1214C7.43238 16.5678 7.18915 15.877 7.19093 15.1652C7.19148 14.7096 7.29243 14.2597 7.48663 13.8476C7.68109 13.4349 7.96425 13.0702 8.31587 12.7795C8.62995 12.5196 8.99253 12.3246 9.38258 12.2058C9.77328 12.0869 10.1837 12.0469 10.59 12.0881C10.9964 12.1293 11.3904 12.2509 11.7493 12.4459C12.0623 12.6159 12.3431 12.8388 12.5794 13.1043L15.4782 15.9145L20.3486 9.41795L20.3694 9.39204C20.6251 9.0736 20.9416 8.80919 21.3005 8.61422C21.6593 8.41925 22.0534 8.29763 22.4597 8.25641C22.866 8.2152 23.2765 8.25522 23.6672 8.37415C24.0566 8.49271 24.4187 8.68731 24.7324 8.94668C25.3647 9.4679 25.7649 10.2183 25.8455 11.0338C25.9246 11.8348 25.6891 12.6346 25.1898 13.2644L18.134 22.5915L18.115 22.6151C17.8262 22.9736 17.4609 23.2628 17.0457 23.4616C16.6305 23.6603 16.1761 23.7634 15.7158 23.7634C15.2554 23.7634 14.801 23.6603 14.3858 23.4616C14.0093 23.2813 13.6737 23.0267 13.3992 22.7134L7.94302 17.1996ZM14.8743 21.3607C14.9755 21.4864 15.1037 21.5879 15.2493 21.6576C15.3949 21.7273 15.5543 21.7634 15.7158 21.7634C15.7318 21.7634 15.7478 21.7631 15.7638 21.7624C15.9028 21.7562 16.0395 21.7232 16.1662 21.6651C16.1715 21.6626 16.1769 21.6601 16.1822 21.6576C16.3278 21.5879 16.456 21.4864 16.5573 21.3607L23.6119 12.0351C23.7963 11.8097 23.8838 11.5203 23.8552 11.2305C23.8265 10.9406 23.6841 10.674 23.4591 10.489C23.3489 10.3977 23.2217 10.3292 23.0847 10.2875C22.9478 10.2458 22.8039 10.2318 22.6615 10.2462C22.5191 10.2606 22.381 10.3033 22.2552 10.3716C22.1295 10.4399 22.0185 10.5326 21.9289 10.6442L15.7164 18.9309L11.1208 14.4759C11.0312 14.3643 10.9203 14.2716 10.7945 14.2033C10.6687 14.1349 10.5306 14.0923 10.3882 14.0779C10.2458 14.0634 10.1019 14.0775 9.96501 14.1191C9.82807 14.1608 9.7008 14.2293 9.59059 14.3207C9.46559 14.4239 9.36494 14.5534 9.29585 14.7001C9.22676 14.8467 9.19093 15.0068 9.19093 15.1689C9.19 15.4219 9.27633 15.6675 9.43537 15.8643L14.8743 21.3607ZM7.19093 15.1652C7.19093 15.164 7.19093 15.1628 7.19094 15.1615L9.19093 15.1689L7.19093 15.1688C7.19093 15.1676 7.19093 15.1664 7.19093 15.1652Z" fill="white"/>
</svg>
