<svg width="32" height="32" viewBox="0 0 32 32" fill="none" xmlns="http://www.w3.org/2000/svg">
<circle cx="16" cy="16" r="16" fill="#FFDDB8"/>
<path fill-rule="evenodd" clip-rule="evenodd" d="M16.5 8C17.3284 8 18 8.67157 18 9.5V16.5C18 17.3284 17.3284 18 16.5 18C15.6716 18 15 17.3284 15 16.5V9.5C15 8.67157 15.6716 8 16.5 8Z" fill="#D87F1F"/>
<path fill-rule="evenodd" clip-rule="evenodd" d="M16.5 6C18.433 6 20 7.567 20 9.5V16.5C20 18.433 18.433 20 16.5 20C14.567 20 13 18.433 13 16.5V9.5C13 7.567 14.567 6 16.5 6ZM18 9.5C18 8.67157 17.3284 8 16.5 8C15.6716 8 15 8.67157 15 9.5V16.5C15 17.3284 15.6716 18 16.5 18C17.3284 18 18 17.3284 18 16.5V9.5Z" fill="white"/>
<path d="M18 21.5C18 22.3284 17.3284 23 16.5 23C15.6716 23 15 22.3284 15 21.5C15 20.6716 15.6716 20 16.5 20C17.3284 20 18 20.6716 18 21.5Z" fill="#D87F1F"/>
<path fill-rule="evenodd" clip-rule="evenodd" d="M20 21.5C20 23.433 18.433 25 16.5 25C14.567 25 13 23.433 13 21.5C13 19.567 14.567 18 16.5 18C18.433 18 20 19.567 20 21.5ZM16.5 23C17.3284 23 18 22.3284 18 21.5C18 20.6716 17.3284 20 16.5 20C15.6716 20 15 20.6716 15 21.5C15 22.3284 15.6716 23 16.5 23Z" fill="white"/>
</svg>
