<svg width="22" height="22" viewBox="0 0 22 22" fill="none" xmlns="http://www.w3.org/2000/svg">
<path d="M18 1H4.00002C3.7348 1 3.48045 1.10031 3.29291 1.27887C3.10537 1.45743 3.00002 1.6996 3.00002 1.95212V20.0423C2.99886 20.2315 3.05688 20.4166 3.16668 20.5742C3.27649 20.7318 3.43309 20.8547 3.61654 20.9272C3.79998 20.9997 4.00195 21.0186 4.1967 20.9814C4.39145 20.9442 4.57015 20.8526 4.71002 20.7183L11 14.72L17.27 20.7183C17.413 20.8487 17.5927 20.9367 17.7872 20.9718C17.9817 21.0068 18.1827 20.9874 18.3658 20.9158C18.549 20.8443 18.7064 20.7237 18.8189 20.5686C18.9315 20.4136 18.9944 20.2308 19 20.0423V1.95212C19 1.6996 18.8947 1.45743 18.7071 1.27887C18.5196 1.10031 18.2652 1 18 1V1ZM17 17.7382L11.74 12.7015C11.5409 12.5207 11.2752 12.4216 11 12.4254V12.4254C10.8684 12.4247 10.7379 12.4487 10.6161 12.4961C10.4943 12.5435 10.3835 12.6133 10.29 12.7015L5.00002 17.7477V2.90423H17V17.7382Z" fill="#118383"/>
</svg>
