<svg width="7" height="22" viewBox="0 0 7 22" fill="none" xmlns="http://www.w3.org/2000/svg">
<path fill-rule="evenodd" clip-rule="evenodd" d="M0.139331 8.82842L3.16404 5.64644C3.34965 5.45118 3.65059 5.45118 3.8362 5.64644L6.86091 8.82842C7.04652 9.02369 7.04652 9.34027 6.86091 9.53553C6.6753 9.73079 6.37437 9.73079 6.18875 9.53553L3.77854 7L3.22171 7L0.811489 9.53553C0.625877 9.73079 0.324942 9.73079 0.139331 9.53553C-0.0462807 9.34027 -0.0462806 9.02369 0.139331 8.82842Z" fill="#CBCAC9"/>
<path fill-rule="evenodd" clip-rule="evenodd" d="M6.86079 13.1716L3.83608 16.3536C3.65047 16.5488 3.34953 16.5488 3.16392 16.3536L0.13921 13.1716C-0.046401 12.9763 -0.046401 12.6597 0.13921 12.4645C0.324822 12.2692 0.625757 12.2692 0.811369 12.4645L3.22158 15L3.77842 15L6.18863 12.4645C6.37424 12.2692 6.67518 12.2692 6.86079 12.4645C7.0464 12.6597 7.0464 12.9763 6.86079 13.1716Z" fill="#CBCAC9"/>
</svg>
