<svg width="475" height="504" viewBox="0 0 475 504" fill="none" xmlns="http://www.w3.org/2000/svg">
<path d="M350.536 240.969C419.275 240.969 475 187.026 475 120.484C475 53.9427 419.275 0 350.536 0C281.796 0 226.071 53.9427 226.071 120.484C226.071 187.026 281.796 240.969 350.536 240.969Z" fill="#A3EAE7"/>
<path d="M99.5731 412.81C154.566 412.81 199.146 369.655 199.146 316.422C199.146 263.188 154.566 220.034 99.5731 220.034C44.5804 220.034 0 263.188 0 316.422C0 369.655 44.5804 412.81 99.5731 412.81Z" fill="#28B5BD"/>
<path d="M347.214 500.256C385.808 498.402 415.641 466.618 413.846 429.265C412.051 391.912 379.309 363.134 340.714 364.989C302.12 366.843 272.287 398.627 274.082 435.98C275.877 473.333 308.619 502.111 347.214 500.256Z" fill="#228F9B"/>
</svg>
