<svg width="32" height="32" viewBox="0 0 32 32" fill="none" xmlns="http://www.w3.org/2000/svg">
<circle opacity="0.5" cx="16" cy="16" r="16" fill="#A3EAE7"/>
<path d="M16.0244 7.46353C16.1741 7.00288 16.8258 7.00288 16.9755 7.46353L18.7451 12.9098C18.812 13.1158 19.004 13.2553 19.2206 13.2553H24.9472C25.4316 13.2553 25.633 13.8751 25.2411 14.1598L20.6082 17.5258C20.433 17.6532 20.3596 17.8788 20.4266 18.0849L22.1962 23.5312C22.3459 23.9918 21.8186 24.3749 21.4268 24.0902L16.7939 20.7242C16.6186 20.5969 16.3813 20.5969 16.2061 20.7242L11.5732 24.0902C11.1813 24.3749 10.6541 23.9918 10.8038 23.5312L12.5734 18.0849C12.6403 17.8788 12.567 17.6532 12.3917 17.5258L7.75882 14.1598C7.36697 13.8751 7.56835 13.2553 8.05272 13.2553H13.7793C13.9959 13.2553 14.1879 13.1158 14.2548 12.9098L16.0244 7.46353Z" fill="#028948"/>
<path fill-rule="evenodd" clip-rule="evenodd" d="M14.2548 12.9098C14.1878 13.1158 13.9958 13.2553 13.7792 13.2553H8.05264C7.56828 13.2553 7.36689 13.8751 7.75875 14.1598L12.3917 17.5258C12.5669 17.6532 12.6402 17.8788 12.5733 18.0849L10.8037 23.5312C10.654 23.9918 11.1812 24.3749 11.5731 24.0902L16.206 20.7242C16.3812 20.5969 16.6185 20.5969 16.7938 20.7242L21.4267 24.0902C21.8185 24.3749 22.3458 23.9918 22.1961 23.5312L20.4265 18.0849C20.3596 17.8788 20.4329 17.6532 20.6081 17.5258L25.241 14.1598C25.6329 13.8751 25.4315 13.2553 24.9471 13.2553H19.2206C19.0039 13.2553 18.812 13.1158 18.745 12.9098L16.9754 7.46353C16.8257 7.00288 16.174 7.00288 16.0244 7.46353L14.2548 12.9098ZM20.3104 11.2553L18.8775 6.8455C18.1292 4.54221 14.8706 4.54223 14.1223 6.8455L12.6894 11.2553H8.05264C5.63083 11.2553 4.6239 14.3544 6.58318 15.7779L10.3344 18.5033L8.90156 22.9131C8.15318 25.2164 10.7894 27.1317 12.7487 25.7082L16.4999 22.9828L20.2511 25.7082C22.2104 27.1317 24.8466 25.2164 24.0982 22.9131L22.6654 18.5033L26.4166 15.7779C28.3759 14.3544 27.3689 11.2553 24.9471 11.2553H20.3104Z" fill="white"/>
</svg>
