<svg width="32" height="32" viewBox="0 0 32 32" fill="none" xmlns="http://www.w3.org/2000/svg">
<path d="M16 9.33332H9.99996C9.1159 9.33332 8.26806 8.98213 7.64294 8.35701C7.01782 7.73189 6.66663 6.88404 6.66663 5.99999C6.66663 5.11593 7.01782 4.26809 7.64294 3.64297C8.26806 3.01785 9.1159 2.66666 9.99996 2.66666C14.6666 2.66666 16 9.33332 16 9.33332ZM16 9.33332H22C22.884 9.33332 23.7319 8.98213 24.357 8.35701C24.9821 7.73189 25.3333 6.88404 25.3333 5.99999C25.3333 5.11593 24.9821 4.26809 24.357 3.64297C23.7319 3.01785 22.884 2.66666 22 2.66666C17.3333 2.66666 16 9.33332 16 9.33332ZM16 9.33332L16 29.3333M2.66663 18.6667H29.3333M2.66663 13.6L2.66663 25.0667C2.66663 26.5601 2.66663 27.3069 2.95728 27.8773C3.21294 28.3791 3.62089 28.787 4.12265 29.0427C4.69308 29.3333 5.43982 29.3333 6.93329 29.3333L25.0666 29.3333C26.5601 29.3333 27.3068 29.3333 27.8773 29.0427C28.379 28.787 28.787 28.3791 29.0426 27.8773C29.3333 27.3069 29.3333 26.5601 29.3333 25.0667V13.6C29.3333 12.1065 29.3333 11.3598 29.0426 10.7894C28.787 10.2876 28.379 9.87964 27.8773 9.62398C27.3068 9.33333 26.5601 9.33333 25.0666 9.33333L6.93329 9.33332C5.43982 9.33332 4.69308 9.33332 4.12265 9.62397C3.62089 9.87964 3.21294 10.2876 2.95728 10.7893C2.66663 11.3598 2.66663 12.1065 2.66663 13.6Z" stroke="white" stroke-width="2" stroke-linecap="round" stroke-linejoin="round"/>
</svg>
