<svg width="22" height="22" viewBox="0 0 22 22" fill="none" xmlns="http://www.w3.org/2000/svg">
<path fill-rule="evenodd" clip-rule="evenodd" d="M11.1985 4H16.8235C17.1687 4 17.4485 4.27982 17.4485 4.625V10.25C17.4485 10.5952 17.1687 10.875 16.8235 10.875C16.4783 10.875 16.1985 10.5952 16.1985 10.25V6.13388L11.2654 11.0669C11.0214 11.311 10.6256 11.311 10.3815 11.0669C10.1375 10.8229 10.1375 10.4271 10.3815 10.1831L15.3146 5.25H11.1985C10.8533 5.25 10.5735 4.97018 10.5735 4.625C10.5735 4.27982 10.8533 4 11.1985 4Z" fill="#118383"/>
<path fill-rule="evenodd" clip-rule="evenodd" d="M7.82349 6.625H6C4.89543 6.625 4 7.52043 4 8.625V15.625C4 16.7295 4.89543 17.625 6 17.625H13C14.1045 17.625 15 16.7295 15 15.625V13.625H13.75V15.625C13.75 16.0392 13.4142 16.375 13 16.375H6C5.58579 16.375 5.25 16.0392 5.25 15.625V8.625C5.25 8.21079 5.58579 7.875 6 7.875H7.82349V6.625Z" fill="#118383"/>
</svg>
