<svg width="60" height="60" viewBox="0 0 60 60" fill="none" xmlns="http://www.w3.org/2000/svg">
<path d="M49.2502 34.51C50.5002 34.8 51.6302 35.01 52.7202 35.34C53.1244 35.4497 53.4759 35.7008 53.7107 36.0476C53.9456 36.3944 54.0483 36.8139 54.0002 37.23C54.0183 38.1784 53.7308 39.1075 53.1802 39.88C51.4002 42.4 49.6735 44.9633 48.0002 47.57C46.4257 49.7948 44.9865 52.1124 43.6902 54.51C43.3302 55.25 42.8702 55.9 41.9002 55.85C41.8002 55.85 41.6502 55.85 41.6002 55.91C40.8502 56.99 39.9702 56.32 39.2102 55.99C38.5176 55.7562 37.8044 55.5888 37.0802 55.49C35.6602 55.18 34.1502 55.34 32.7902 54.62C32.0999 54.3634 31.3661 54.2445 30.6302 54.27C29.5725 54.3547 28.508 54.2634 27.4802 54C27.2402 53.9 26.8702 54.07 26.5702 54.13C26.0702 54.24 25.6702 54.07 25.6602 53.63C25.6602 52.9 25.7402 52.16 25.8002 51.43C25.8602 50.7 25.9302 50.2 26.0002 49.55C23.8957 49.412 21.783 49.6283 19.7502 50.19C18.7722 50.5768 17.848 51.0876 17.0002 51.71C16.3104 52.0773 15.5953 52.3948 14.8602 52.66C14.2602 52.88 13.9202 52.75 13.6702 52.21C13.4202 51.67 13.2502 50.93 13.0102 50.3C12.2702 48.47 11.5902 46.61 10.7502 44.83C9.06017 41.19 7.25017 37.6 5.47017 34C4.97948 33.0863 4.8542 32.0204 5.11969 31.0178C5.38517 30.0153 6.0216 29.151 6.90017 28.6C8.46017 27.6 10.0702 26.76 11.6102 25.87C11.3502 24.42 11.1002 22.94 10.7902 21.47C10.6385 20.813 10.4207 20.1731 10.1402 19.56C9.7043 18.7173 9.48764 17.7784 9.51017 16.83C9.58126 16.5714 9.58126 16.2985 9.51017 16.04C8.80017 14.79 9.51017 13.71 9.90017 12.6C10.0154 12.3819 10.1977 12.2066 10.4202 12.1C11.7621 11.4115 13.2424 11.0354 14.7502 11C15.8202 10.89 16.9002 11 17.9702 11C19.0402 11 19.8302 10.81 20.8102 10.7C20.8102 9.85998 20.8102 9.16998 20.8102 8.47998C20.8835 7.48664 20.9935 6.48664 21.1402 5.47998C21.2764 5.16632 21.4869 4.89048 21.7534 4.67621C22.0199 4.46194 22.3346 4.31566 22.6702 4.24998C24.8002 4.12998 26.9202 3.95998 29.0402 3.92998C32.1602 3.86998 35.2702 3.92998 38.3902 3.92998C39.6588 3.90663 40.9246 3.80309 42.1802 3.61998C43.6202 3.39998 44.1802 4.49998 44.3202 5.61998C44.9302 9.37998 44.5302 13.17 44.6302 16.94C44.641 17.202 44.6003 17.4637 44.5102 17.71C44.3802 17.99 44.5102 18.04 44.7202 18.11C45.9802 18.46 47.0102 19.34 48.3002 19.63C48.8147 19.7287 49.3085 19.9147 49.7602 20.18C50.8682 20.7818 52.0854 21.1558 53.3402 21.28C54.9502 21.58 55.3402 22.28 54.6402 23.81C53.4702 26.16 52.2502 28.59 51.0002 31C50.4502 32.2 49.8402 33.36 49.2502 34.51ZM23.7502 25.41C25.6602 25.2 27.4802 25.63 29.2602 25.1C29.7327 25.0109 30.2177 25.0109 30.6902 25.1C31.1498 25.1878 31.6138 25.2512 32.0802 25.29C35.0802 25.29 38.0802 25.29 41.0802 25.29H42.3802C42.4602 22.29 42.3802 19.45 42.6402 16.59C42.9002 13.41 42.7102 10.19 42.7202 6.97998C42.7402 6.60691 42.7402 6.23304 42.7202 5.85998C42.6602 5.27998 42.2302 4.85998 41.7202 5.10998C40.81 5.41538 39.8426 5.5111 38.8902 5.38998C33.5502 5.47998 28.2002 5.14998 22.8902 5.80998C22.5915 6.53233 22.5319 7.33132 22.7202 8.08998C22.8302 9.28998 22.8102 10.49 22.9902 11.71C23.3002 13.71 23.2802 15.81 23.3902 17.87C23.5102 20.36 23.6202 22.79 23.7502 25.41ZM27.2502 39L30.4402 39.47C31.1202 39.57 31.7902 39.69 32.4402 39.78C33.5447 39.803 34.6439 39.9404 35.7202 40.19C37.6302 40.82 39.6302 40.89 41.5502 41.36C42.0289 41.4102 42.5115 41.4102 42.9902 41.36C43.1447 41.3882 43.3042 41.3577 43.4374 41.2745C43.5706 41.1912 43.6679 41.0612 43.7102 40.91C44.3618 39.7769 44.9429 38.6046 45.4502 37.4C46.2761 35.2607 47.2449 33.1793 48.3502 31.17C49.5502 28.68 50.9802 26.29 52.3502 23.86C52.5702 23.46 52.4602 23.16 52.0302 23.04C49.3899 22.2174 46.8401 21.1285 44.4202 19.79C44.3611 20.4816 44.341 21.1761 44.3602 21.87C44.3602 23.42 44.3602 24.97 44.3602 26.52C44.3602 27.25 44.2102 27.37 43.4302 27.52C43.2302 27.52 43.0202 27.57 42.7402 27.6C43.0202 28.02 43.2402 28.39 43.4902 28.72C44.2902 29.72 44.2802 30.15 43.3102 30.97C43.0076 31.2652 42.6416 31.4875 42.2402 31.62C41.3643 31.7988 40.4798 31.9323 39.5902 32.02C39.2007 32.1161 38.7901 32.0763 38.4264 31.9071C38.0627 31.738 37.7677 31.4497 37.5902 31.09C37.5183 30.9948 37.4283 30.9148 37.3253 30.8548C37.2223 30.7947 37.1084 30.7557 36.9902 30.74C36.6902 30.68 36.2702 30.74 36.3302 30.29C36.3781 29.9886 36.539 29.7169 36.7802 29.53C37.6802 28.91 38.5802 29.04 38.7802 30.02C38.9802 31 39.4102 30.82 39.8902 30.71C40.7664 30.6289 41.6205 30.3882 42.4102 30C42.6902 29.82 42.8602 29.55 42.5702 29.21C42.2802 28.87 42.0002 28.21 41.5702 28.01C41.1402 27.81 40.6902 28.12 40.2302 28.2H40.0702L32.4102 28.54L31.3202 28.61C31.4802 29.39 31.6502 30.04 31.7202 30.7C31.8066 31.1139 31.8078 31.5411 31.7235 31.9555C31.6393 32.3698 31.4714 32.7627 31.2302 33.11C30.7002 33.78 30.0002 33.63 29.3202 33.69C28.8029 33.7372 28.2887 33.814 27.7802 33.92C27.7016 33.9235 27.6246 33.9433 27.554 33.978C27.4835 34.0127 27.4209 34.0617 27.3701 34.1218C27.3194 34.1819 27.2817 34.2519 27.2593 34.3273C27.237 34.4027 27.2304 34.4819 27.2402 34.56C27.2702 36.07 27.2502 37.56 27.2502 39ZM29.6802 46.21C30.0702 45.07 29.6002 44.12 29.5302 43.14C29.4602 42.16 29.3502 41.93 28.3402 41.7C27.8902 41.59 27.4302 41.5 26.9802 41.37C26.5123 41.2846 26.0837 41.0525 25.7565 40.7074C25.4292 40.3622 25.2204 39.9218 25.1602 39.45C25.0353 38.7287 25.0353 37.9913 25.1602 37.27C25.3474 36.3819 25.3745 35.4676 25.2402 34.57C24.6973 34.8425 24.1359 35.0765 23.5602 35.27C21.4023 35.6795 19.3231 36.4288 17.4002 37.49C17.2209 37.5985 17.0297 37.6858 16.8302 37.75C16.6091 37.8615 16.3648 37.9195 16.1172 37.9193C15.8695 37.9191 15.6254 37.8607 15.4045 37.7488C15.1836 37.6368 14.9921 37.4746 14.8454 37.275C14.6987 37.0755 14.601 36.8442 14.5602 36.6C14.2902 35.6 13.7902 34.67 13.4302 33.7C12.9451 32.4955 12.6092 31.2361 12.4302 29.95C12.3849 28.9221 12.1188 27.916 11.6502 27L10.8102 27.58L7.28017 30C7.00639 30.1719 6.79409 30.4261 6.67372 30.7261C6.55335 31.0261 6.53111 31.3565 6.61017 31.67C6.70032 32.1775 6.87977 32.6651 7.14017 33.11C9.14017 36.11 10.7402 39.25 12.5002 42.34C13.7033 44.3012 14.7498 46.3542 15.6302 48.48C15.8406 48.9451 16.0811 49.3961 16.3502 49.83C17.1002 49.35 17.7002 48.93 18.3502 48.55C20.5811 47.0397 23.2161 46.238 25.9102 46.25C27.1802 46.29 28.4602 46.24 29.6802 46.24V46.21ZM20.8002 24.54C19.9102 23.46 19.9102 23.46 18.8002 23.44H18.6402C17.954 23.4289 17.2888 23.2016 16.7394 22.7904C16.1899 22.3793 15.7843 21.8052 15.5802 21.15C15.3304 20.7434 15.2514 20.2546 15.3602 19.79C15.6825 18.8288 16.2893 17.9883 17.1002 17.38C18.2082 16.5006 19.5858 16.0308 21.0002 16.05C21.3902 14.45 20.6902 13.05 20.7502 11.68C19.1002 11.86 17.5402 12.1 15.9802 12.17C14.6731 12.2716 13.3797 12.5061 12.1202 12.87C11.8602 12.94 11.4502 13.36 11.4802 13.43C11.7802 14.04 11.1202 14.73 11.7202 15.32C11.9502 15.55 11.9602 16 12.0802 16.32C12.3927 17.3644 12.6266 18.4307 12.7802 19.51C13.2802 21.95 14.0102 24.32 14.4702 26.78C15.0002 29.68 16.0002 32.47 16.8002 35.33C18.2302 34.68 19.6202 34.08 20.9802 33.41C23.3004 32.4276 25.7819 31.8818 28.3002 31.8C28.6702 31.8 29.0502 31.8 29.4302 31.8C29.8102 31.8 29.8602 31.53 29.8102 31.25C29.6702 30.38 29.5002 29.52 29.3602 28.7C27.7502 28.56 26.1702 28.31 24.5902 28.32C24.0644 28.3971 23.528 28.2938 23.0685 28.0268C22.609 27.7598 22.2535 27.345 22.0602 26.85C21.9144 26.6217 21.7358 26.4162 21.5302 26.24C21.2501 26.7509 21.0094 27.2824 20.8102 27.83C20.6502 28.38 20.8102 28.57 21.4502 28.6C22.0902 28.63 22.4502 28.51 22.6902 29.12C22.3804 29.3059 22.0427 29.441 21.6902 29.52C19.8702 29.64 19.6902 29.52 19.9002 27.72C19.9902 27.11 19.9002 26.02 21.1302 25.99C21.2402 25.99 21.4202 25.61 21.4302 25.4C21.3693 24.5018 21.4744 23.6001 21.7402 22.74C21.8086 22.3282 21.7601 21.9055 21.6002 21.52C21.2567 20.4718 21.0944 19.3727 21.1202 18.27C21.1352 18.0035 21.1352 17.7364 21.1202 17.47C21.1202 16.97 20.7102 16.94 20.4502 17.07C19.2995 17.4841 18.2522 18.1426 17.3802 19C17.1759 19.1793 17.0177 19.4051 16.9187 19.6583C16.8197 19.9114 16.7828 20.1846 16.8112 20.455C16.8396 20.7253 16.9325 20.9849 17.0819 21.212C17.2314 21.4391 17.4331 21.627 17.6702 21.76C18.1306 22.0061 18.639 22.1494 19.1602 22.18C19.8464 22.2161 20.534 22.2161 21.2202 22.18L20.8002 24.54ZM27.8002 52.32C28.8002 52.32 29.6402 52.32 30.4402 52.32C31.6542 52.278 32.8662 52.4506 34.0202 52.83C34.6087 53.0435 35.2191 53.191 35.8402 53.27C37.0502 53.2905 38.2503 53.4928 39.4002 53.87C40.1243 54.0599 40.8875 54.0391 41.6002 53.81C41.9002 53.73 42.0302 53.04 42.2502 52.64C42.3002 52.54 42.4002 52.48 42.4502 52.39C44.2302 49.66 45.9902 46.93 47.7902 44.22C48.7902 42.69 49.9202 41.22 50.9702 39.71C51.2989 39.2366 51.5962 38.7422 51.8602 38.23C52.2102 37.52 52.0602 37.16 51.3002 36.92C50.5402 36.68 49.7802 36.58 49.0302 36.36C48.5302 36.21 48.2902 36.29 48.0302 36.81C47.4502 38.21 46.8102 39.59 46.1202 40.93C45.7476 41.6585 45.3091 42.3514 44.8102 43C44.6042 43.3095 44.2843 43.5251 43.9202 43.6C42.0802 43.6 40.2102 43.92 38.4202 43.1C37.65 42.7987 36.8269 42.6558 36.0002 42.68C34.6802 42.68 33.3302 42.94 32.0002 42.4C31.9411 42.3666 31.8739 42.3501 31.8061 42.3524C31.7383 42.3546 31.6724 42.3754 31.6156 42.4126C31.5588 42.4497 31.5134 42.5018 31.4842 42.5631C31.455 42.6244 31.4432 42.6925 31.4502 42.76C31.4502 43.5 31.5402 44.23 31.6102 44.97C31.6102 45.38 31.7102 45.8 31.7602 46.21C31.8228 46.5776 31.7413 46.9552 31.5327 47.2644C31.3242 47.5735 31.0045 47.7904 30.6402 47.87C29.8502 48.17 29.3002 48.95 28.4202 49.16C28.3736 49.1806 28.3328 49.2123 28.3014 49.2525C28.27 49.2926 28.249 49.3398 28.2402 49.39C28.1002 50.31 28.0002 51.24 27.8402 52.32H27.8002Z" fill="white"/>
<path d="M38.5203 12.89C38.2003 14.6962 37.2594 16.3338 35.8603 17.52C35.5254 17.7864 35.1253 17.9584 34.7016 18.0182C34.2778 18.078 33.8458 18.0234 33.4503 17.86C32.3848 17.58 31.4594 16.918 30.8503 16C30.2478 15.0701 29.5794 14.1845 28.8503 13.35C28.7169 13.1917 28.6296 12.9998 28.5978 12.7952C28.5661 12.5907 28.5912 12.3813 28.6703 12.19C28.8798 11.4549 29.2419 10.7721 29.7329 10.1863C30.224 9.60047 30.833 9.1247 31.5203 8.79003C31.7158 8.71211 31.9062 8.62194 32.0903 8.52003C32.9103 7.94003 33.7203 7.27003 34.6403 8.36003C35.4603 8.29003 35.9903 8.55003 36.0103 9.47003C36.0103 9.54003 36.3703 9.59003 36.5603 9.66003C38.0703 10.2 38.5603 10.93 38.5203 12.89ZM33.9203 16.39C34.8103 16.39 34.9203 16.34 35.2703 15.87C35.4903 15.58 35.6703 15.25 35.9203 14.98C36.4105 14.3063 36.7514 13.5359 36.9203 12.72C37.0903 12.23 36.8103 11.83 36.4203 11.48C36.0303 11.13 35.7803 11.37 35.4203 11.48C34.8569 11.747 34.257 11.929 33.6403 12.02C32.7303 12.1 31.6403 12.74 31.0403 11.36C30.9907 11.3059 30.9269 11.2669 30.8561 11.2474C30.7854 11.228 30.7106 11.2289 30.6403 11.25C30.4077 11.4499 30.256 11.7278 30.2137 12.0316C30.1713 12.3354 30.2412 12.6441 30.4103 12.9C31.0991 13.6173 31.6969 14.4166 32.1903 15.28C32.3746 15.585 32.6264 15.8437 32.9263 16.0361C33.2262 16.2285 33.5662 16.3496 33.9203 16.39ZM33.4503 10.33L35.7903 9.44003C34.0003 9.26003 34.0003 9.26003 33.4503 10.33Z" fill="white"/>
<path d="M40.08 21.07C39.9912 21.4749 39.8106 21.8541 39.5523 22.1782C39.294 22.5024 38.9648 22.7631 38.59 22.94C37.8578 23.3703 36.9965 23.5262 36.16 23.38C36.02 23.38 35.89 23.16 35.75 23.15C33.91 23.02 32.06 22.9 30.22 22.8C29.9585 22.8038 29.7016 22.8689 29.47 22.99C28.74 23.32 28.25 22.85 27.78 22.47C27.6956 22.3487 27.6439 22.2077 27.6299 22.0605C27.6158 21.9134 27.64 21.7651 27.7 21.63C27.9772 21.245 28.3149 20.9073 28.7 20.63C28.78 20.57 29.09 20.69 29.23 20.8C29.66 21.18 29.16 21.12 29.01 21.25C28.9597 21.3045 28.9226 21.3698 28.9018 21.441C28.881 21.5121 28.8769 21.5871 28.89 21.66C28.9378 21.7177 28.9998 21.7619 29.07 21.7882C29.1402 21.8145 29.216 21.8221 29.29 21.81C30.7503 21.2785 32.3482 21.2608 33.82 21.76C34.2348 21.8407 34.6579 21.871 35.08 21.85C35.6591 21.8376 36.2366 21.9187 36.79 22.09C37.2237 22.1929 37.675 22.1978 38.1109 22.1044C38.5468 22.011 38.9564 21.8216 39.31 21.55L40.08 21.07Z" fill="white"/>
<path d="M37.52 36.59C36.62 36.59 36.1 36.23 35.96 35.53C35.82 34.83 36.15 34.44 36.8 34.8C37.29 35.06 37.74 34.89 38.18 34.99C38.4776 35.064 38.7612 35.1856 39.02 35.35C39.11 35.41 39.1 35.63 39.14 35.78C38.39 35.65 38.26 36.78 37.52 36.59Z" fill="white"/>
<path d="M21.6102 41.9999C21.8902 41.8499 22.1602 41.6799 22.4502 41.5599C22.7402 41.4399 23.7202 41.9799 23.6602 42.4199C23.6602 42.5299 23.4702 42.6299 23.3502 42.6899C23.2302 42.7499 22.8202 42.8099 22.6502 42.9699C22.5077 43.1603 22.3228 43.3149 22.1102 43.4214C21.8975 43.5278 21.663 43.5833 21.4252 43.5833C21.1874 43.5833 20.9529 43.5278 20.7402 43.4214C20.5276 43.3149 20.3427 43.1603 20.2002 42.9699C20.0902 42.8699 19.8602 42.7199 19.8002 42.7599C19.0502 43.2999 17.9602 42.6699 17.3102 43.4999C17.2702 43.5537 17.2181 43.5974 17.1582 43.6275C17.0983 43.6576 17.0322 43.6733 16.9652 43.6733C16.8982 43.6733 16.8321 43.6576 16.7722 43.6275C16.7122 43.5974 16.6602 43.5537 16.6202 43.4999C16.3702 43.2699 16.2202 43.0599 16.4302 42.6799C16.8202 41.9399 17.2202 41.2899 18.2102 41.4199C18.4221 41.4543 18.6382 41.4543 18.8502 41.4199C20.5602 41.0799 20.5602 41.0799 21.6102 41.9999Z" fill="white"/>
<path d="M41.0001 48.49C41.2901 49.1 41.0001 49.4 40.7001 49.72C40.2911 50.2105 39.7384 50.5603 39.1201 50.72C38.8832 50.8066 38.6315 50.845 38.3796 50.8329C38.1277 50.8207 37.8808 50.7583 37.6535 50.6493C37.4261 50.5402 37.2228 50.3868 37.0556 50.198C36.8885 50.0092 36.7608 49.7889 36.6801 49.55C36.3801 48.81 36.0301 49 35.5201 49.1C35.1934 49.1944 34.8467 49.1944 34.5201 49.1C34.4053 49.0459 34.3043 48.9665 34.2247 48.8678C34.145 48.7691 34.0887 48.6536 34.0601 48.53C34.0798 48.4046 34.1291 48.2857 34.2038 48.1831C34.2786 48.0805 34.3767 47.9972 34.4901 47.94C35.0865 47.7684 35.6948 47.6414 36.3101 47.56C36.5668 47.5021 36.8358 47.5391 37.0674 47.6641C37.299 47.7891 37.4775 47.9936 37.5701 48.24C38.3901 49.81 38.9901 49.91 40.5701 48.89C40.6901 48.76 40.8001 48.64 41.0001 48.49Z" fill="white"/>
</svg>
