<svg xmlns="http://www.w3.org/2000/svg" viewBox="0 0 90 90"><g id="Bell"><path d="M49.17,18.63A7.73,7.73,0,0,1,52,14.49a1.37,1.37,0,0,1,.7-.35c1.51-.18,3.15-.38,4.3.73a7.61,7.61,0,0,1,2.39,4.39,1.61,1.61,0,0,1,0,.49,1.91,1.91,0,0,0,1,2.1,20.63,20.63,0,0,1,5.25,5.21,14.24,14.24,0,0,1,1.47,2.82,22.65,22.65,0,0,1,1.12,3.28,13.43,13.43,0,0,1,.38,5.66c-.43,2.57-1.46,5-1.87,7.52a6.88,6.88,0,0,0-.18,1.09,50,50,0,0,0,0,5,11.85,11.85,0,0,0,2,6.13,1.59,1.59,0,0,1,.31.55,5.89,5.89,0,0,0,1.93,2.68c.3.32.63.61.9.95a5.59,5.59,0,0,1-1.87,8.34,21.47,21.47,0,0,1-7,2.36c-2.49.4-5,.12-7.43.24-.9-.56-1.44,0-2,.64A4,4,0,0,1,51,75.83,3.08,3.08,0,0,1,50,76a18.43,18.43,0,0,1-2.66-.43,6.19,6.19,0,0,1-3.76-3c-.51.94-1.32.58-2.07.48-2.54-.36-4.79-1.62-7.21-2.31-4.32-1.23-8-3.68-11.66-6.09a14.08,14.08,0,0,1-3.12-2.52,9.51,9.51,0,0,1-2.25-4.66,4.65,4.65,0,0,1,.54-3.6s.09-.11.08-.13c-.77-1.12.31-1.1.86-1.5,2.17-1.57,4.55-2.87,6.33-4.93a14.81,14.81,0,0,0,3.38-6.06c.41-1.65.68-3.3.95-5,.61-3.89,1.85-7.5,4.87-10.3a25.82,25.82,0,0,1,4.32-3.63c1.79-1,3.61-2,5.43-3a5.58,5.58,0,0,1,3.08-.68C47.78,18.67,48.43,18.63,49.17,18.63ZM52.54,62l.11.26.15-.13L52.53,62l-.11-.27-.14.15Zm2.27.68-.11-.25-.11.11.25.1c0,.11-.05.25,0,.31a1.58,1.58,0,0,0,.41.31s.19-.17.18-.2a1.52,1.52,0,0,0-.32-.39C55.05,62.62,54.91,62.67,54.81,62.68Zm-9.1-2.32.1.25.11-.12-.25-.1c0-1,0-1-1-.79ZM59.4,66.59a3.49,3.49,0,0,1-.93-.18c-.27-.13-.45-.21-.72,0-.62.49-1.27,1-1.91,1.45-.09.08-.24.22-.22.27.54,1.36-.28,2.58-.42,3.86a9.07,9.07,0,0,0,1.38.36,11.36,11.36,0,0,0,1.75,0c.47,0,.94-.18,1.42-.18a19.66,19.66,0,0,0,8.42-2.07,6.49,6.49,0,0,0,3-3A2.6,2.6,0,0,0,71,64.35a14.28,14.28,0,0,0-3.85-3.86,1.25,1.25,0,0,0-.45-.13c-3.11-.84-5.95-2.39-8.95-3.52-1.58-.59-3.2-1.06-4.76-1.69a17.15,17.15,0,0,0-2.11-.65c-2.76-.7-5.56-1.22-8.38-1.69a35.84,35.84,0,0,0-6.36-.59c-1.85,0-3.7,0-5.54,0A6.43,6.43,0,0,1,28.49,52a5.79,5.79,0,0,0-2.42,0c-1,.13-2.06.53-3.1.57a7.81,7.81,0,0,0-2.76.71,3.1,3.1,0,0,0-1.89,3.34,8.92,8.92,0,0,0,3,5.3,53.46,53.46,0,0,0,8.12,5.05A24,24,0,0,0,34.76,69c1.72.47,3.33,1.34,5,2,1.17.42,2.38.69,3.7,1.06-.6-3.63.94-6.54,3.16-9.19a1.33,1.33,0,0,0-2,.43c-.18.27-.39.51-.59.76s-.24.41-.41.48a2.06,2.06,0,0,1-.75,0c0-.19,0-.42,0-.56.54-.85,1.11-1.67,1.7-2.55L43.58,60l-.78.92a6.36,6.36,0,0,1,.53,1c.05.14-.07.38-.17.54s-.31.18-.52,0c-.67-.52-1.17-.33-1.74.28a11.92,11.92,0,0,1-2,1.57c-.12.08-.4-.06-.6-.1,0-.19,0-.43.14-.55.88-.92,1.78-1.82,2.66-2.71l-1.4-1.67c-.32.51-.58.94-.86,1.37a1.45,1.45,0,0,1-.37.41c-.35.23-.73.4-1.07.64-.56.41-1.08.88-1.66,1.26-.16.1-.49-.06-.74-.09a1.63,1.63,0,0,1,.21-.56c.47-.52,1-1,1.48-1.51.1-.11.23-.33.19-.4a4.75,4.75,0,0,0-.59-.75c-.28-.34-.48,0-.66.13a9.4,9.4,0,0,0-.88.68c-.82.6-1.63,1.2-2.47,1.77-.12.08-.36,0-.55,0,0-.15,0-.34.11-.44.39-.44.81-.85,1.2-1.26-1.1-1.43-1.1-1.43-2.21-.38-.16.15-.3.33-.47.46-.51.38-1,.77-1.56,1.11-.14.08-.4,0-.61-.09a2,2,0,0,1,.14-.55c.07-.12.25-.19.37-.29.45-.38.92-.75,1.34-1.15s.85-.87,1.33-1.38A2.64,2.64,0,0,0,28.6,59c-.58.64-1.2,1.23-1.89,1.92.94.7,1.79,1.43,2.74,2,1.3.81,2.66,1.54,4,2.25a1.85,1.85,0,0,1,1.1,1.07.55.55,0,0,1-.08.45.45.45,0,0,1-.41.07c-.44-.19-.85-.42-1.28-.62A21.11,21.11,0,0,1,26.28,62a1.21,1.21,0,0,0-1-.3c-.11,0-.22-.12-.33-.19.58-.53-.13-1-.11-1.47,0-1,0-1.18.95-1.58a26.43,26.43,0,0,1,8.11-1.95,1.47,1.47,0,0,1,.81,0,4,4,0,0,0,2,.29,9.5,9.5,0,0,1,1.73.25,25.79,25.79,0,0,0,4.38.7A26.56,26.56,0,0,1,48.7,59c2,.63,4,1.33,5.94,2.13a16.24,16.24,0,0,1,4,2,6.34,6.34,0,0,0,1.83.94,4.61,4.61,0,0,1,2.91,2.29c.46,1,.33,1.55-.64,2.07a13.79,13.79,0,0,1-4,1.08,5.8,5.8,0,0,1-2.05-.19c-.2,0-.36-.31-.53-.48a2.69,2.69,0,0,1,.69-.55,5.17,5.17,0,0,1,1,0,.91.91,0,0,0,.55-.22c.36-.45.67-.94,1-1.41a.78.78,0,0,0,1-.6c.06-.19-.11-.63-.21-.64-.27,0-.5-.57-.79-.14a1.06,1.06,0,0,0-.14.66A3.47,3.47,0,0,0,59.4,66.59ZM22.87,51.25a12,12,0,0,1,2-.31c4.49.1,9-.31,13.46.27a37.45,37.45,0,0,1,4.33.33c2,.49,4.09.57,6.08,1.09a72.2,72.2,0,0,1,13.51,4.81,15.68,15.68,0,0,0,4,1.5,2.76,2.76,0,0,0,.57,0,3.77,3.77,0,0,0-.18-.57,14.42,14.42,0,0,1-1-2.32A24.52,24.52,0,0,1,65,48.53a21.65,21.65,0,0,1,.41-3.33c.49-2.1,1.25-4.13,1.67-6.25a10,10,0,0,0,.07-4.17,19.22,19.22,0,0,0-3.42-7.62A32.23,32.23,0,0,0,60,23.07a5.16,5.16,0,0,0-1.5-.85c-1.36-.56-2.85-.8-4-1.75a2.19,2.19,0,0,0-.75-.22A21.09,21.09,0,0,0,48,19.59a11.34,11.34,0,0,0-4.37,1.28c-1.16.51-2.18,1.33-3.31,1.91-2.83,1.46-4.86,3.82-7,6.08,0,0,0,.1-.07.14a17.94,17.94,0,0,0-2.6,7.74c-.16,1.32-.38,2.61-.67,3.91a15.25,15.25,0,0,1-4.38,8c-.7.66-1.48,1.24-2.2,1.88a5.89,5.89,0,0,0-.59.73l-.58.14c.06.06.16.18.17.17A4.33,4.33,0,0,0,22.87,51.25Zm31,18A4,4,0,0,0,52.75,66a21.68,21.68,0,0,1-2.62-4.55,3.33,3.33,0,0,0-.37-.7.75.75,0,0,0-.54-.27c-.09,0-.23.28-.27.46a4.68,4.68,0,0,1-1.14,2.73,10.56,10.56,0,0,0-2.92,5.21A4.3,4.3,0,0,0,45,71.64c.75,1.9,2.38,2.44,4.14,2.74A2.7,2.7,0,0,0,51.43,74C52.84,72.77,54.1,71.45,53.84,69.21Zm-3.61-51a1.91,1.91,0,0,0,2.2-.54A3.83,3.83,0,0,1,53.67,17c1.07-.51,1.57-.37,2.1.63a3.51,3.51,0,0,1,.34,1.21,12.78,12.78,0,0,1,.07,1.36l1.78.36a2.36,2.36,0,0,0-.23-2c-.26-.58-.61-1.12-.92-1.68a2.87,2.87,0,0,0-4.87-.71C51.34,16.73,50.84,17.44,50.23,18.19Zm6.15,45.48c-.64.15-.47.86-1.09,1-1,.17-1,.24-.46,1.14.22.38.4.77.64,1.25l1.84-2Zm-22-4.25a4.33,4.33,0,0,0,.45-.39c.2-.23.62-.41.38-.77a1.33,1.33,0,0,0-.77-.47.88.88,0,0,0-1.06.39Zm4.89-1-1.69-.36a.33.33,0,0,0-.27.12.58.58,0,0,0,0,.43c.42.64.73.72,1.39.34A4.22,4.22,0,0,0,39.26,58.46Zm14-40.12,0,.32,1.48.55c.24-.53.1-1-.33-1.12S53.64,18.24,53.26,18.34Zm-12,40.41-.17.32a6.35,6.35,0,0,1,.65.47c.23.22.46.29.69.06a3.7,3.7,0,0,0,.35-.5,2.37,2.37,0,0,0-.59-.34A5.76,5.76,0,0,0,41.24,58.75Zm-14.1.52-.23-.22c-.28.11-.56.24-.85.33-.7.23-.7.23-.11.93Zm32.94,8.36.15.26c.36-.15.72-.31,1.07-.49.05,0,.06-.19,0-.28s-.17-.14-.2-.12C60.77,67.2,60.43,67.42,60.08,67.63ZM53.17,63c.08.61.29.92.79.94,0,0,.08-.06.12-.09l-.65-.79S53.34,63.06,53.17,63Zm-5.29-2.94h-.15a3.72,3.72,0,0,0-.08.57c0,.09.07.18.12.27.07-.1.19-.19.19-.29A2.61,2.61,0,0,0,47.88,60.08Zm-.74,2.52.12-.1s-.07-.11-.11-.11-.07.06-.11.09Z"/><path d="M63.37,53.31a13,13,0,0,1-3.77-1.74.49.49,0,0,1-.16-.4c0-.1.26-.26.34-.23C61.07,51.43,62.52,51.65,63.37,53.31Z"/><path d="M63.55,56.13c-.64,0-1.28,0-1.92,0a2.17,2.17,0,0,1-1.74-1c-.14-.2,0-.58,0-.87.23.1.52.14.66.31a4,4,0,0,0,2.14,1c.32.09.62.23.94.35Z"/><path d="M62.28,48.78c-.1,0-.26.19-.34.15-.75-.35-1.49-.73-2.22-1.12-.11-.06-.24-.26-.21-.36a.58.58,0,0,1,.32-.33,2.65,2.65,0,0,1,2.46,1.44A.9.9,0,0,1,62.28,48.78Z"/><path d="M62.83,39.82a11.75,11.75,0,0,1,1.28.43c.11,0,.16.39.14.57,0,.38-.26.15-.43.07-.63-.28-1.41.18-2-.37-.13-.13-.4-.23-.42-.36,0-.41.33-.32.57-.34S62.29,39.82,62.83,39.82Z"/><path d="M63.32,36.58a2.58,2.58,0,0,1,.9,0c.26.11.62.36.65.58.06.51-.42.33-.7.35a1.74,1.74,0,0,1-.79,0c-.37-.14-1-.42-1-.59C62.47,36.3,63.07,36.66,63.32,36.58Z"/><path d="M61.28,43.73a2.14,2.14,0,0,1,1.86.72.45.45,0,0,1,.08.42.41.41,0,0,1-.4.12c-.55-.17-1.08-.4-1.62-.58-.27-.1-.67.16-.8-.3C60.32,43.83,60.57,43.72,61.28,43.73Z"/><path d="M63.33,33.62h-.16a1,1,0,0,1-1.1-.47c-.12-.25.69-.61,1.2-.47a4.26,4.26,0,0,1,.85.38.31.31,0,0,1,.12.26c-.06.11-.16.26-.27.28a2.74,2.74,0,0,1-.64,0Z"/><path d="M62.25,30.83l-.55-.5.67-.59.57.68Z"/><path d="M60.08,27.07c.33-.09.66-.19,1-.25.07,0,.24.22.23.34a.65.65,0,0,1-.8.53c-.19-.07-.37-.19-.56-.28Z"/><path d="M49.23,72.53c.82-.44,1.59-.88,2.39-1.25.1,0,.35.24.54.37-.33.44-.44,1-1.18,1.15C50,73,50,73.12,49.23,72.53Z"/><path d="M50.83,70.6c.11-.56.09-.86.22-1a10,10,0,0,1,.92-.92c.31-.32.7-.68,1.07-.28.13.15-.09.84-.35,1.07A11.07,11.07,0,0,1,50.83,70.6Z"/><path d="M52.24,66.93c-.05.19,0,.43-.13.49a15.28,15.28,0,0,1-1.51.77c-.05,0-.28-.17-.29-.27,0-.3,1.31-1.36,1.65-1.3C52.07,66.64,52.15,66.82,52.24,66.93Z"/><path d="M50.34,66.43c-.19-.32-.38-.49-.41-.69-.06-.44.27-.57.6-.45a.65.65,0,0,1,.34.54C50.86,66,50.6,66.15,50.34,66.43Z"/><path d="M49.91,63.47a5.31,5.31,0,0,1-.44.4.8.8,0,0,1-.17-.15,2.47,2.47,0,0,1,.32-.39S49.79,63.41,49.91,63.47Z"/></g></svg>