<svg id="Warren" xmlns="http://www.w3.org/2000/svg" viewBox="0 0 90 90"><defs><style>.cls-1{fill:#171717;}</style></defs><path class="cls-1" d="M52.86,57a1.21,1.21,0,0,1,.43,0,.78.78,0,0,1,.23.32.22.22,0,0,1,0,.21,1.14,1.14,0,0,1-.31.27,7.51,7.51,0,0,0-1.32.69A9.75,9.75,0,0,0,50.32,60a6.87,6.87,0,0,0-.66,1.33A1.56,1.56,0,0,1,49,62.66l-.34.28a.22.22,0,0,1-.16,0c-.06,0-.13-.11-.13-.17a1.36,1.36,0,0,1,0-.64c.22-.38.36-.79.58-1.15a1.26,1.26,0,0,0,.26-.8c0-.41.34-.63.43-1a.87.87,0,0,1,.17-.38c.41-.42.83-.82,1.24-1.23C51.67,57.42,52.15,56.88,52.86,57Z"/><path class="cls-1" d="M52.26,48.06a2,2,0,0,1,.42-1.4c-.12-.69.44-1.19.5-1.84a2.86,2.86,0,0,1,.42-1,2.18,2.18,0,0,1,.35-.54c.56-.57,1.13-1.12,1.7-1.68.11-.1.22-.24.34-.26.62-.09.89-.72,1.44-.91a.41.41,0,0,1,.22,0c.19.06.23.17.13.3a19,19,0,0,1-2.17,2.13c-.1.09-.27.1-.39.17a1.3,1.3,0,0,0-.73.76c-.12.42-.54.7-.53,1.16a1.52,1.52,0,0,0-.39,1.2,1.13,1.13,0,0,1-.24.81,1.26,1.26,0,0,0-.22.82.8.8,0,0,1-.3.55,1.13,1.13,0,0,1-.34.27C52.38,48.67,52.25,48.35,52.26,48.06Z"/><path class="cls-1" d="M54.36,60.76a5.28,5.28,0,0,0,.5-1.15,4.09,4.09,0,0,1,.43-1.2,2,2,0,0,0,.05-.85.94.94,0,0,1,.38-.74c.13-.12.25-.16.34-.09a.27.27,0,0,1,.1.18q0,.65,0,1.29a.63.63,0,0,1-.12.4c-.41.39-.17,1-.46,1.41a6.48,6.48,0,0,0-.67,1.31,1.83,1.83,0,0,1-.65.84.54.54,0,0,1-.4.05c-.18-.05-.19-.18-.11-.32.2-.37.39-.76.58-1.14Z"/><path class="cls-1" d="M36.6,54.78a2.91,2.91,0,0,0-.66,0c-.63.15-1.1-.23-1.63-.43l-.19-.09a.27.27,0,0,1-.13-.37c0-.12.14-.31.23-.32a11.25,11.25,0,0,1,1.3,0,.69.69,0,0,1,.41.08,2.48,2.48,0,0,0,1.66.33L38,54a1.23,1.23,0,0,1,.6.59s-.05.12-.1.14A5.69,5.69,0,0,1,36.6,54.78Z"/><path class="cls-1" d="M36.48,43.71c-.14,0-.7,0-.76-.15a.41.41,0,0,1,.3-.48,2.07,2.07,0,0,1,.43,0,2.64,2.64,0,0,0,1.39-.45,1.52,1.52,0,0,0,1-1.06c0-.1.21-.16.33-.22a.37.37,0,0,1,.21,0c.2.06.21.16.1.31-.31.39-.38.9-.76,1.27A5.66,5.66,0,0,1,36.48,43.71Z"/><path class="cls-1" d="M46.31,68.23s-.14-.11-.13-.16a3.21,3.21,0,0,1,1-1.79.74.74,0,0,1,.4-.08c.24,0,.21,0,0,.48a3.22,3.22,0,0,1-1.14,1.5A.37.37,0,0,1,46.31,68.23Z"/><path class="cls-1" d="M49.54,69.05l-.46.45a.18.18,0,0,1-.16,0,.27.27,0,0,1-.12-.37c.11-.35.32-.44.63-.26C49.48,68.91,49.5,69,49.54,69.05Z"/><path class="cls-1" d="M50,67.27s-.11.12-.15.11-.09-.08-.14-.13l.16-.14Z"/><path class="cls-1" d="M51.12,69.33c.12,0,.2,0,.19.14s-.08.09-.13.14-.1-.09-.12-.15S51.1,69.37,51.12,69.33Z"/><path class="cls-1" d="M65,34.83c.08.15.18.34.27.53a.18.18,0,0,1-.08.15c-.14,0-.32.11-.4.05a5,5,0,0,1-.62-.6c0-.46-.43-.73-.54-1.16s-.71-.71-.84-1.22-.51-.7-.76-1-.08-.56-.15-.83-.17-.24-.26-.17-.13.11-.13.17c0,.21,0,.43,0,.65a.44.44,0,0,1-.11.18c-.08.09-.2.06-.33-.08a1.15,1.15,0,0,1-.41-.95,1.77,1.77,0,0,0,0-.65.49.49,0,0,0-.25-.31C59.45,29.3,59,28.6,58.51,28a1,1,0,0,1-.12-.4,1.76,1.76,0,0,0-.15-.62,13.58,13.58,0,0,0-.87-1.7c-.39-.51-.7-1.08-1.09-1.59-.22-.28-.51-.51-.54-.91a7.51,7.51,0,0,1-.82-1.5c-.1-.16,0-.42,0-.64a.35.35,0,0,1,.14-.16s.13,0,.14,0c.14.24.25.51.41.73s.39.43.58.65a4.56,4.56,0,0,1,.85,1,3.14,3.14,0,0,0,.6.87l.9.95a1.85,1.85,0,0,1,.32.55,7.12,7.12,0,0,1,.88,2.15.7.7,0,0,0,.19.37c.25.26.52.5.79.75a.18.18,0,0,0,.16,0,.36.36,0,0,0,.13-.17c.16-.54-.2-.95-.36-1.41a.27.27,0,0,1,.17-.36,1,1,0,0,1,.41,0,.2.2,0,0,1,.15.14c0,.45.54.72.5,1.17s.33.78.44,1.19a7.83,7.83,0,0,0,1.34,2.86,21.24,21.24,0,0,1,1.24,2.24C65,34.3,64.93,34.57,65,34.83Z"/><path class="cls-1" d="M61,34.51a4.68,4.68,0,0,1,0-.65,1.44,1.44,0,0,1,.19-.37s.14.08.15.13c.13.55.6,1,.55,1.59,0,.17.19.37.33.53a1.45,1.45,0,0,0,.34.23,3.29,3.29,0,0,1,.17-.39,4,4,0,0,1,.22-.34c.07.12.2.24.2.37a1.51,1.51,0,0,0,.31,1,.52.52,0,0,1-.07.76c-.32.33-.21.64,0,.94.11.15.1.25-.09.33a.37.37,0,0,1-.21,0,.33.33,0,0,1-.2,0,3.18,3.18,0,0,1-1.18-1.5c-.09-.26-.34-.46-.36-.77a1.82,1.82,0,0,1-.41-1.4c0-.14,0-.29,0-.43Z"/><path class="cls-1" d="M54.39,25.19a.26.26,0,0,1,.36.14,3.9,3.9,0,0,1,.12,1.48,1.66,1.66,0,0,0,.59,1.32.62.62,0,0,1,.08.93,3.43,3.43,0,0,0-.22.59c-.08.22-.3.25-.46.05s-.4-.41-.39-.74,0-.72,0-1.07a.72.72,0,0,0-.11-.4,1.62,1.62,0,0,1-.3-1.22,6.06,6.06,0,0,1,0-.85C54.1,25.32,54.28,25.26,54.39,25.19Z"/><path class="cls-1" d="M60.11,33.35c-.06.51,0,.87-.12,1.2-.07.15-.18.18-.35.16s-.28-.05-.32-.2A4.54,4.54,0,0,1,59.26,33c0-.32.22-.5.41-.7a.36.36,0,0,1,.18-.1.22.22,0,0,1,.25.22C60.13,32.81,60.11,33.17,60.11,33.35Z"/><path class="cls-1" d="M48.6,33.88a.9.9,0,0,1,.59.22,7,7,0,0,1,2.61,1.8c.08.11-.09.53-.22.55-.36,0-.76.1-1-.2a5.6,5.6,0,0,0-1.44-.92c-.12-.08-.22-.06-.36.06s-.43,1.41-2.34.57c-.1,0-.18-.67-.24-.79-.23-.49-.38-.11-.77.12-.18.11-.32.28-.55.3s-.31,0-.36-.17a.52.52,0,0,1,0-.4,1.42,1.42,0,0,1,.42-.49A6.13,6.13,0,0,1,46,33.91a2.71,2.71,0,0,1,.86-.06C47.08,33.84,48.24,33.88,48.6,33.88Z"/><path class="cls-1" d="M32.2,33a2.9,2.9,0,0,1,1.75.7,7.76,7.76,0,0,1,1.21,1.22.59.59,0,0,1,.06.2.29.29,0,0,1-.14.37.66.66,0,0,1-.4.07,1.73,1.73,0,0,1-.51-.39,3.4,3.4,0,0,0-.89-.55c-.54-.31-.63,0-.72.51a1.41,1.41,0,0,1-2,.79c-.11-.09-.3-.85-.39-1-.37-.49-.71.09-1.2.53-.08.07-.26,0-.28-.2a1.08,1.08,0,0,1,.25-1c.2-.2.41-.41.62-.6a.83.83,0,0,1,.58-.25,2.22,2.22,0,0,0,1.43-.37C31.72,33,32,33,32.2,33Z"/><path class="cls-1" d="M47.38,31.92s-4,.2-4.78,1.15a3,3,0,0,0-.37,1.43,1.17,1.17,0,0,0,.45.93c.14.14.55-1.89.88-2.06a8.31,8.31,0,0,1,5.37-.81C49,32.39,47.74,32,47.38,31.92Z"/><path class="cls-1" d="M80.2,79.46c-.21-.21-.41-.42-.62-.62l-1.27-1.19c-.6-.15-.92-.72-1.43-1s-1-.52-1.53-.76a5,5,0,0,0-.83-.21,4.63,4.63,0,0,1-1-.43,2.38,2.38,0,0,0-1.41-.42.64.64,0,0,1-.42-.06c-.49-.43-2.1-.35-2.29-.5s-2.27-.5-2.86-.76c-.32-.15-.61-.35-.95-.49a5.38,5.38,0,0,1-1-.78c-.68-.1-.93-.92-1.64-1-.33-.29-2-1.89-2.52-2.42-.34-.36-1.11-1.59-1.29-1.7a3.62,3.62,0,0,1-1.08-.69c-.31-.39-.79-.28-1.18-.42a.51.51,0,0,1-.22-.34c0-.21-.07-.5,0-.63a2.2,2.2,0,0,0,.38-1.44.67.67,0,0,1,.11-.4A2,2,0,0,0,57.51,62a1.48,1.48,0,0,1,.18-.61c.39-.75.77-1.52,1.12-2.3a2.07,2.07,0,0,1,.54-.67.22.22,0,0,1,.16-.06c.07,0,.12.09.18.13.38.26.39.75.66,1.09a1.23,1.23,0,0,0,1.17.39,4.59,4.59,0,0,0,2.86-2.76,3.85,3.85,0,0,1,.69-1.07,1.08,1.08,0,0,0,.3-.79c0-.08,0-.17,0-.22a14.6,14.6,0,0,0,.79-1.52,3,3,0,0,0,.49-1.84c-.1-.63.38-1.06.53-1.6,0-.19.28-.33.41-.5s.32-.36.32-.55A2.21,2.21,0,0,1,68.39,48a3.88,3.88,0,0,1,.62-1.8,2.28,2.28,0,0,0,.26-.8c0-.44,0-.88,0-1.31a1,1,0,0,1,.21-.6c.22-.28.23-.68.53-.93a1.54,1.54,0,0,0,.58-1.34A2.38,2.38,0,0,0,71,39.54c0-1.16,0-2.32,0-3.49A5.4,5.4,0,0,0,71,35a4.21,4.21,0,0,0-.39-.76c-.3-.65-.67-1.26-1-1.92a7.68,7.68,0,0,0-2.25-2c-.25-.1-.42-.39-.63-.59-.08-.55-.57-.82-.81-1.25s-.49-1-.74-1.54a13.81,13.81,0,0,0-.89-1.71,13.86,13.86,0,0,0-1.35-1.42c-.1-.11-.2-.21-.31-.31l-1-.89c-.46,0-.71-.47-1.15-.56-.12,0-.3-.12-.33-.23-.31-.87-1.08-1.35-1.67-2-.39-.42-.85-.79-1.25-1.21s-1.16-.59-1.55-1.15a3.28,3.28,0,0,0-1.25-.82c-.31-.17-.63-.32-.95-.48a3.54,3.54,0,0,1-1.65-1.32A2.13,2.13,0,0,0,51,13.64c-.39-.36-.49-.88-.83-1.26-.64-.7-1.59-1-2.18-1.76a.88.88,0,0,0-.34-.26c-.12-.07-.28-.07-.41-.13-.38-.2-.76-.39-1.12-.62a9.57,9.57,0,0,1-1-.45c-.37-.28-.84-.11-1.27-.13S43,9,42.57,9c-.21,0-.43,0-.65,0a1.82,1.82,0,0,0-1.23.32c-.28.2-.72,0-1,.25s-.67.22-1,.3-.58.43-1,.41a1.3,1.3,0,0,0-.79.29c-.18.11-.41.15-.59.26-.42.26-.69.71-1.24.85a1.44,1.44,0,0,0-.65.56c-.46.58-1.21.76-1.75,1.25a6.29,6.29,0,0,1-1.3.72c-.32.16-.66.28-1,.45s-.79.35-1.14.57a2.39,2.39,0,0,1-1,.32.71.71,0,0,0-.37.2c-.27.24-.51.52-.8.74s-.49.87-.8,1.27a1.65,1.65,0,0,0-.17,1.05c0,.43,0,.87,0,1.31a.67.67,0,0,1-.07.41c-.46.57-.29,1.24-.35,1.88,0,.07,0,.18,0,.21-.51.42-.25,1.12-.59,1.59a1.57,1.57,0,0,0-.27.81.66.66,0,0,1-.14.39,9.66,9.66,0,0,0-1.32,2.2,1.53,1.53,0,0,0-.27.8c0,1,0,2,0,3a1,1,0,0,1-.37.75l-.15.16c-.52.61-.51,1.05.07,1.69A1.14,1.14,0,0,1,23,35a3.23,3.23,0,0,0,0,.44,6.58,6.58,0,0,0,0,1.09,7.06,7.06,0,0,0,.57,1.59,1.65,1.65,0,0,1,0,1.83,1,1,0,0,0-.19.38c0,.31-.45,1.48-.45,1.84,0,1.6,0,3.2,0,4.8,0,.29,0,2.06,0,2.19,0,1,0,1.9,0,2.84a2.4,2.4,0,0,0,.32,1.67.75.75,0,0,1,.09.41c0,.51,0,1,.06,1.52a.76.76,0,0,0,.13.4,1.57,1.57,0,0,1,.27,1,1.25,1.25,0,0,0,.2.82.88.88,0,0,1,.23.59,1.89,1.89,0,0,0,.4,1.43,1.74,1.74,0,0,0,.39,1.2,2.09,2.09,0,0,0,.68,1.08c.31.32.29.83.67,1.1s.48.88.81,1.26a1.7,1.7,0,0,0,1.28,1.31c.06,0,.11.09.17.14.42.36.57.64.17,1.08-.24.26-.55.47-.63.86-.13.59-.87.78-.93,1.42,0,.13-.15.25-.25.35a10,10,0,0,1-2.76,2.39,3.37,3.37,0,0,1-1.26.81,14,14,0,0,1-1.34.67c-.45.19-.84.58-1.4.48a2.62,2.62,0,0,1-1.63.45,14,14,0,0,1-1.42.41c-.22,0-1.42.4-1.86.42-.78.05-1.6-.18-2.3.4-.09.07-.28,0-.43,0a1.61,1.61,0,0,0-1.21.37c-.46,0-.74.42-1.16.54A1.78,1.78,0,0,0,9.8,77a1,1,0,0,0-.07,1.36,1.3,1.3,0,0,0,.74.43,1.65,1.65,0,0,1,.62.14,1.86,1.86,0,0,0,.79.3,1,1,0,0,1,.62.18,1,1,0,0,0,.59.24c.87,0,1.74,0,2.61,0,2.69,0,5.38,0,8.07,0,.71,0,1.46-.18,2.11.32.09.08.27.06.41.06l3.49,0a1.93,1.93,0,0,0,.42-.06c.07,0,.15-.1.15-.15,0-.36.07-.71.09-1.07a1.32,1.32,0,0,0-.29-1c-.16-.19-.11-.41-.14-.62s0-.59-.13-.85a1.75,1.75,0,0,1-.31-1c0-1.74,0-3.49,0-5.23,0-.12.12-.24.19-.37,0,0,.13.08.14.13.09.69.84,1,1,1.63.07.25.34.46.53.67s.63.61.89,1,.46,1.11,1.07,1.29.85.78,1.44.93a1.17,1.17,0,0,1,.53.36,5.7,5.7,0,0,0,2.15,1.39,5.7,5.7,0,0,0,1,.47c.19,0,.34.26.5.4s.23.65,0,.74a3.25,3.25,0,0,0-1.5,1.19c-.09.11,0,.54.15.57a3,3,0,0,0,.41.08,2.05,2.05,0,0,1,1.25.29.75.75,0,0,0,.4.12h5a1.08,1.08,0,0,0,.73-.39c.14-.12.2-.24.11-.35l-2-2.08a8.91,8.91,0,0,1,.77-.74c.34-.26.74-.44,1.08-.69s.65-.59,1-.88c.63-.08.9-.7,1.43-.93s1-.56,1.54-.75,1-.81,1.63-1,.82-.81,1.44-.94c.25,0,.46-.34.67-.53a3.94,3.94,0,0,1,1.22-.87,1.29,1.29,0,0,0,.55-.64,7.56,7.56,0,0,1,1.22-2c.09-.09.08-.27.14-.4a.41.41,0,0,1,.14-.15c.1.07.24.14.26.23a2,2,0,0,0,.28,1,1,1,0,0,1,.08,1c-.11.26-.32.47-.33.78s.1.76-.17,1-.21.83-.38,1.21-.41.76-.6,1.14a10.3,10.3,0,0,0-.56,1.16c-.16.46-.6.84-.51,1.39a6.44,6.44,0,0,1-.53,1.16,2.94,2.94,0,0,0-.28,2.09.44.44,0,0,0,.12.19,1.12,1.12,0,0,0,.89.51h8.08a1.61,1.61,0,0,1,1,.27.71.71,0,0,0,.4.11q1.2,0,2.4,0h9.6l3.05,0a.9.9,0,0,0,.59-.24c.11-.09.21-.2.32-.3C80.63,80,80.63,79.89,80.2,79.46Zm-26.48-62s.13,0,.14,0a2,2,0,0,1,.1.26C53.67,17.58,53.6,17.51,53.72,17.42ZM23.94,28.55a6.09,6.09,0,0,1,.72-1.3c.68-.68.82-1.67,1.39-2.41,0-.8.65-1.45.49-2.28a.29.29,0,0,1,0-.21c.47-.47.35-1.07.36-1.65s0-1,0-1.52,0-.54.42-1.42a1.69,1.69,0,0,1,.85-.91c1.15-.58,2.31-1.13,3.45-1.71a6.39,6.39,0,0,0,2.13-1.41c.3-.35.79-.35,1.09-.68a5.62,5.62,0,0,1,.8-.74c.16-.13.39-.17.56-.3.69-.52,1.57-.69,2.27-1.2a2.62,2.62,0,0,0,1.4-.48c.29,0,.58,0,.87,0,1,0,2,0,3.05,0a3.51,3.51,0,0,1,1.71.16,6,6,0,0,1,1.32.71,1.2,1.2,0,0,1,.74.41c.83.82,1.64,1.65,2.49,2.45.39.36.39.93.81,1.25a3.38,3.38,0,0,1,.77,1.28,4.06,4.06,0,0,0,.84,1.24,4.47,4.47,0,0,1,.61.62c.36.51,1,.6,1.45.91.12.08.23,0,.27-.18s0-.17,0-.21c-.22-.28-.44-.56-.68-.82a.52.52,0,0,1-.14-.35A1,1,0,0,1,55,18c.45.48.93.93,1.4,1.38s.75.89,1.37,1A3.66,3.66,0,0,1,59,21.92a8.9,8.9,0,0,0,.7,1.33.49.49,0,0,1,0,.21,1.22,1.22,0,0,0,.41,1l.93.92c.14.14.25.15.33,0a.64.64,0,0,0,.08-.19,1.22,1.22,0,0,0-.3-1,.48.48,0,0,1,0-.59s.13-.09.15-.07c.32.29.64.58.95.89.16.15.38.29.43.48a4.67,4.67,0,0,0,.84,1.24,5.5,5.5,0,0,1,.38.77l.2.37c.22.45.45.9.64,1.36s.52,1,.78,1.52a5.1,5.1,0,0,0,1,1.12l1.09,1.06c.11.1.21.21.31.31a8,8,0,0,1,.87,1c.23.35.35.77.56,1.14a2.93,2.93,0,0,1,.44,1.64c0,.94,0,1.88,0,2.83a2.25,2.25,0,0,1-.37,1.44c-.11.15-.05.42-.1.63s-.19.41-.38.24-.44-.39-.64-.6a.83.83,0,0,1-.27-.57c0-1.31,0-2.61,0-3.92a3.81,3.81,0,0,0-.85-1.92.67.67,0,0,0-.58-.22c-.22,0-.28.06,0,.48s.07,1,.48,1.42a.63.63,0,0,1,.11.4c0,1.16,0,2.32,0,3.48a.4.4,0,0,1-.28.28c-1,0-2,0-3.05.06a.61.61,0,0,1-.4-.14c-.62-.61-1.23-1.23-1.84-1.85-.13-.71-.73-1.06-1.17-1.52-.8-.85-1.65-1.64-2.45-2.48a4.48,4.48,0,0,1-1.35-1.67c-.07-.23-.38-.18-.56-.29-.42-.26-2.66-1.51-3.32-1.93A8.9,8.9,0,0,0,50.17,30c-1.6,0-3.19,0-4.79,0a5.72,5.72,0,0,0-2.24.63c-.37.35-1.71,1.19-1.77,1.5a1.12,1.12,0,0,1-.33.54.94.94,0,0,1-1.16.31,3.6,3.6,0,0,1-.37-.22,1.19,1.19,0,0,0-1.22.06c-.23.13-.42,0-.43-.18a1,1,0,0,1,.17-.82,1.14,1.14,0,0,1,.15-.16,1.7,1.7,0,0,0,.57-1.56c0-.16,0-.34-.16-.38s-.24.21-.31.37-.27.5-.4.76-.1.27-.18.38a2,2,0,0,1-.48.44s-.22-.15-.33-.25a3.12,3.12,0,0,0-.86-.61A11.9,11.9,0,0,0,34.29,30c-1.55-.39-3.64-.84-3.7-.84-.66,0-1.31,0-2,0a14.65,14.65,0,0,0-3.43,1.07.32.32,0,0,1-.18.1c-.05,0-.12,0-.16-.08a.28.28,0,0,1-.07-.19,5.26,5.26,0,0,1,.64-1.33,1.71,1.71,0,0,1,.29-.32l1.18-1.28c.08-.55.56-.83.81-1.26a3.25,3.25,0,0,1,.55-.91A3.53,3.53,0,0,0,28.8,24c.2-.31.28-.67.48-1a5.84,5.84,0,0,1,.95-1.43,15.86,15.86,0,0,0,1.23-1.23l.8-.74c.05-.05.11-.12.17-.13.56-.06.83-.57,1.26-.81.24-.14.51-.24.77-.38,1.26-.66,2.53-1.29,3.82-1.9.27-.12.49-.31.76-.4s.59,0,.83-.17a2.25,2.25,0,0,1,1-.31c1.53,0,3,0,4.58,0a2,2,0,0,1,1.42.4,2.58,2.58,0,0,1,1.22.34c.42.24,1,.15,1.39.51a2.34,2.34,0,0,0,1.26,0,.49.49,0,0,0,.11-.14c-.33-.27-.78-.34-1.06-.7a1.12,1.12,0,0,0-1-.41.63.63,0,0,1-.39-.15c-.58-.54-1.15-1.1-1.72-1.66l-1.4-1.37a1.09,1.09,0,0,0-.79-.29,1.21,1.21,0,0,1-.41-.12c-.2-.08-.38-.25-.58-.26a25.25,25.25,0,0,0-3.69,0c-.06,0-.11.08-.17.13.09.08.17.22.27.23.29,0,.58,0,.87,0a.89.89,0,0,1,.4.12,1.53,1.53,0,0,0,.8.29,1.59,1.59,0,0,1,1,.21,1.25,1.25,0,0,0,.82.21,2,2,0,0,1,.43,0,.83.83,0,0,1,.4.14c.47.45.94.91,1.38,1.39.07.08,0,.27,0,.41s-.46.29-.57.2a1.69,1.69,0,0,0-1.2-.39c-.51,0-1,0-1.53,0a2.32,2.32,0,0,1-1.66-.33.68.68,0,0,0-.41-.09l-4.14,0c-.33,0-.51.24-.7.45a.55.55,0,0,0-.11.18.7.7,0,0,0,.33.19,1,1,0,0,0,.63-.07A1.79,1.79,0,0,1,38,14.66c.29,0,.59,0,.87,0a.54.54,0,0,1,.29.27c.09.16-.07.52-.23.53A2.83,2.83,0,0,0,37.5,16c-.12.07-.27.09-.39.16-.94.51-1.92.94-2.86,1.45a3.81,3.81,0,0,0-1.09.67c-.1.11-.21.25-.34.27-.5.11-.85.53-1.34.65-.07,0-.12.08-.17.13-.52.51-1,1-1.56,1.52a4.69,4.69,0,0,0-.83,1.25,4.57,4.57,0,0,1-.79,1.27,1.64,1.64,0,0,0-.31.55A6,6,0,0,1,26.35,26l-.6.63c-.08.64-.73.89-.95,1.41a1.77,1.77,0,0,1-.42.73c-.09.08-.24.18-.32.15A.26.26,0,0,1,23.94,28.55Zm30.81,7.79a21.17,21.17,0,0,1-1.26,2.22A21.84,21.84,0,0,1,51.2,40.5a9.24,9.24,0,0,1-1.32.69A9.83,9.83,0,0,1,48,41.3c-.56-.1-1.16.16-1.7-.18-.72-.46-1.62-.58-2.21-1.27-.19-.23-1.94-1.61-2.27-2.89-.07-.3-.35-.5-.37-.76a5.9,5.9,0,0,1,.06-2.58c.89-2.42,4.42-2.31,4.39-2.34a7,7,0,0,1,1.12,0c.43,0,.87,0,1.3-.07a.8.8,0,0,0,.4-.14A1.75,1.75,0,0,1,50.5,31a1.42,1.42,0,0,0,.6.2c.44,0,.87.05,1.3.07.58.43,1.3.6,1.9,1a1.1,1.1,0,0,1,.58,1.08c0,.43,0,.87,0,1.3S55,35.81,54.75,36.34ZM23.89,35.28a14.21,14.21,0,0,0,0-1.73c-.06-.56.84-1.83,1-2.07a1.19,1.19,0,0,1,1.25-.68c.14,0,.44-.25.57-.31L28.5,30A6.6,6.6,0,0,1,30.58,30a18,18,0,0,1,4.51,1.39c.12.07,1.64,1.57,1.36,2.33a.24.24,0,0,1-.14.12,2.48,2.48,0,0,0-.18.9c0,.37-.92,2-.89,2.59a11.48,11.48,0,0,1-1.4,2.13,9.42,9.42,0,0,1-1.26.79c-.25.2-1.53.25-1.84.48a27.69,27.69,0,0,1-3.13-.29,1.27,1.27,0,0,1-.77-.34c-.46-.46-.94-.9-1.39-1.37A7.83,7.83,0,0,1,23.89,35.28Zm7,33.25a3,3,0,0,1,0,.41.24.24,0,0,1-.12.16s-.11,0-.15,0A1.09,1.09,0,0,1,30,68c0-.27-.07-.56.1-.81,0,0,.1-.09.13-.08a1,1,0,0,1,.65,1C30.91,68.25,30.9,68.39,30.89,68.53Zm3.48,4.69a.36.36,0,0,1-.1.18c-.09.11-.2.08-.33-.05a5.93,5.93,0,0,1-.61-.62,6.45,6.45,0,0,1-.51-.93,6,6,0,0,0-.35-.77c-.17-.24-.21-.55-.38-.76a2,2,0,0,1-.31-1.64c0-.1.19-.18.29-.26a1.07,1.07,0,0,1,.4.1c.17.12.39.27.45.45a3.29,3.29,0,0,0,.87,1.21.69.69,0,0,1,.17.38,9.73,9.73,0,0,1,0,1.08,1.16,1.16,0,0,0,.27.8A1.25,1.25,0,0,1,34.37,73.22Zm.27-4.59a.42.42,0,0,1-.38.1,1.29,1.29,0,0,1-.71-.74.22.22,0,0,1,0-.21q.33-.42.69-.81a5.13,5.13,0,0,0,1.15-1.53,3.12,3.12,0,0,1,.71-.8c.18-.2.35-.09.53,0A5,5,0,0,0,38,64.54a.14.14,0,0,1,.14,0c.12.1-.36.56-.43.67a6.55,6.55,0,0,0-.77,1,5.28,5.28,0,0,1-1.45,1.57C35,67.88,34.85,68.26,34.64,68.63Zm.82.16c.3-.31.62-.6.93-.91s.79-.86,1.23-1.24a5.56,5.56,0,0,0,1-1.39.88.88,0,0,1,.32-.29c.12-.06.33-.13.4-.08.45.37,1.08.41,1.46.9.1.13.19.47.09.59a6.28,6.28,0,0,0-1,1.4,2.9,2.9,0,0,1-.73.8,11.5,11.5,0,0,1-.95.9c-.33.26-.78.35-1.07.7s-.52.5-.81.77c-.32-.33-.63-.64-.92-1A.94.94,0,0,1,35.46,68.79Zm1.09,6.08a.41.41,0,0,1-.36-.14c-.13-.16-.36-.3-.4-.48-.08-.43-.46-.71-.52-1.13a1.19,1.19,0,0,1,0-.42,1.39,1.39,0,0,1,.19-.36s.11.07.14.12c.12.24.14.54.38.72A1.7,1.7,0,0,1,36.55,74.87Zm.17.35c-.13,0-.16-.18-.15-.32a.25.25,0,0,1,.32.14C36.94,75.19,36.86,75.27,36.72,75.22Zm.75-1.48A9.44,9.44,0,0,0,36.61,72c-.08-.12,0-.52.18-.56a2,2,0,0,0,.74-.42c.43-.37.75-.89,1.37-1,.61-.59,1.38-1.05,1.66-1.93.76-.76,1.09-1.86,2-2.5a1.17,1.17,0,0,1,.77-.31c.43,0,.86,0,1.29,0,.15,0,.21.19.2.34a.37.37,0,0,1-.14.39c-.63.6-.88,1.47-1.51,2.07a1.58,1.58,0,0,1-.55.9,1.07,1.07,0,0,0-.14.16,11.82,11.82,0,0,0-2.22,2.61L39,73a3.32,3.32,0,0,0-1.24.82C37.64,74,37.55,73.94,37.47,73.74ZM56.24,63c0,.22,0,.44,0,.65a1.18,1.18,0,0,1-.23.82c-.34.34-.06.86-.37,1.21a1.27,1.27,0,0,0-.27,1c.06.48-.35.79-.41,1.2A1.77,1.77,0,0,1,54.43,69c-.64.6-1.25,1.22-1.85,1.85a5.9,5.9,0,0,1-1.07.69c-.31.22-.47.14-.72,0a.39.39,0,0,0-.58,0,2.69,2.69,0,0,0-.51.68,1.75,1.75,0,0,1-.48.7c0,.06-.11.13-.17.14-.62.1-.93.67-1.44.93a.58.58,0,0,1-.4-.06.27.27,0,0,1-.15-.37c0-.06,0-.15,0-.2.39-.51.55-1.18,1.06-1.61a.75.75,0,0,0,.13-.18c.08-.11,0-.56-.19-.56a1.22,1.22,0,0,0-.42.06.25.25,0,0,0-.15.15c-.07.63-.74.88-.91,1.44s-.9,1-1,1.64c-.5.53-1,1.06-1.51,1.58a12.18,12.18,0,0,1-1.11,1,3.8,3.8,0,0,1-.75.39,1.13,1.13,0,0,1-1.69-.36.48.48,0,0,1,.07-.58,11.29,11.29,0,0,0,2.87-2.6c.07-.56.54-.84.86-1.21a3.57,3.57,0,0,0,.57-.91,6,6,0,0,1,.67-.85,1.06,1.06,0,0,0,.09-.84c0-.06-.07-.13-.13-.16a.2.2,0,0,0-.16,0,3.11,3.11,0,0,0-.33.29c-.25.26-.23.67-.53.93a7,7,0,0,0-.75.79c-.23.27-.55.47-.67.84A3.42,3.42,0,0,1,42,74a7.8,7.8,0,0,1-1.93,1.74,3.68,3.68,0,0,0-.85.65c-.3.28-.48,0-.72-.07-.51-.14-.74-.4-.68-.92,0-.14,0-.29,0-.44a.49.49,0,0,1,0-.21.32.32,0,0,1,.14-.16,4.19,4.19,0,0,0,1.54-1.16c1-1,2-2,2.92-2.94a3.66,3.66,0,0,0,1.15-1.54,5.54,5.54,0,0,0,1.07-1.6,9.42,9.42,0,0,1,.66-1.1A12.65,12.65,0,0,0,46.56,64a.28.28,0,0,0-.16-.37.87.87,0,0,0-.83,0,2.32,2.32,0,0,1-1.43.39,1.72,1.72,0,0,0-1.24.31.74.74,0,0,1-.4.1l-1.31,0a1.54,1.54,0,0,1-.8-.28c-.49-.28-1-.46-1.52-.76-.31-.19-.48-.09-.75,0a3.53,3.53,0,0,1-1.71.07c-.19,0-.36-.3-.56-.32a10.88,10.88,0,0,0-1.51,0,.6.6,0,0,0-.37.2c-.53.49-1,1-1.57,1.51-.14.13-.16.27,0,.33s.32.11.4.06c.52-.37,1.2-.51,1.62-1a.76.76,0,0,1,.37-.18.3.3,0,0,1,.38.14c.06.12.13.33.07.4a15.75,15.75,0,0,1-2,2.54c-.12.1-.22.24-.35.26s-.23-.13-.35-.19-.58-.19-.75-.39a3.88,3.88,0,0,0-1.45-.9,4.21,4.21,0,0,1-2.21-2.24c-.33-.31-.29-.83-.67-1.1s-.44-.72-.68-1.08-.72-.71-.8-1.26A2,2,0,0,1,25.59,59c-.55-.46-.2-1.28-.7-1.77-.09-.08-.08-.27-.09-.41a9.85,9.85,0,0,1,0-1.09,2.29,2.29,0,0,0-.39-1.21,2.21,2.21,0,0,1-.06-.86c0-.57.1-1.16-.32-1.66a.67.67,0,0,1-.08-.41c0-2,0-4.07,0-6.11,0-.14.68-4.19.92-4.78a.84.84,0,0,1,1-.24,7.11,7.11,0,0,1,.68.55,1.09,1.09,0,0,0,.79.29.67.67,0,0,1,.4.11,1.69,1.69,0,0,0,1,.29c1,0,2,0,3.05,0a.46.46,0,0,1,.44.38c0,.21,0,.43,0,.65-.51.54-.37,1.21-.39,1.85a1.3,1.3,0,0,0,.29.79.47.47,0,0,1,0,.6c-.4.42-.82.83-1.22,1.25A4.53,4.53,0,0,0,29.6,48.7c-.19.57-.87.8-.92,1.43a4,4,0,0,0-.77,1,3,3,0,0,1-.73,1c-.3.32-.61.62-.91.94a.43.43,0,0,0-.07.17,1.46,1.46,0,0,0,.39.16.91.91,0,0,0,.8-.22l.62-.61a3.94,3.94,0,0,0,.84-1.24A4.73,4.73,0,0,1,29.79,50,3,3,0,0,0,31,48.47c.62-.62,1.23-1.24,1.85-1.84a.56.56,0,0,1,.4-.11,1.51,1.51,0,0,0,1-.39.46.46,0,0,1,.41,0,2.85,2.85,0,0,1,.49.43c1,.94.7.8,2.1.83a1.56,1.56,0,0,0,.8-.29,4.67,4.67,0,0,1,1.15-.55c.35-.09.72-.06,1-.32.11-.1.21,0,.36.07a8.79,8.79,0,0,1,1.13.62c.66,0,1.31,0,2,0a.66.66,0,0,0,.37-.21c.14-.13.25-.18.36-.06l.89.94c.07.56.56.83.81,1.26a3.44,3.44,0,0,0,.56.91A7.8,7.8,0,0,1,48.1,52.1c.22.42.67.83,0,1.44-.58,0-1.41.39-2,.42a1.59,1.59,0,0,1-1-.33,5.05,5.05,0,0,0-1.81-.56,7.63,7.63,0,0,1-2.19-.81,1.53,1.53,0,0,1-.74-.4c-1.17-.37-1.13-.82-1.74-.78s-1.27.23-2,.26c-.25,0-.4-.15-.59-.25a1,1,0,0,0-.38-.18c-.51,0-1,0-1.52,0a1.32,1.32,0,0,0-.61.19c-.6.4-1.31.56-1.89,1-.29.22-.54.09-.77-.11a1,1,0,0,0-.17-.13c-.27-.15-.51-.64-.53-.36s.27,1.16.29,1.45-.56.48-.69.65a.55.55,0,0,0,0,.77s.65-.34.69-.27c.14.29-.41,1.27-.6,1.47a8.38,8.38,0,0,0-1.22,2,2.58,2.58,0,0,0-.32,1.85.27.27,0,0,0,.12.17s.12-.06.18-.1c.23-.18.49-.38.49-.68A3.14,3.14,0,0,1,29.83,57a6.43,6.43,0,0,0,1.08-2.29c.11-.34.34-.62.44-1s.36-.44.56-.65.53-.5.8-.73a.68.68,0,0,1,.39-.17q1.3,0,2.61,0a.88.88,0,0,1,.38.18,1.09,1.09,0,0,0,.6.21c.29,0,.59,0,.88,0a1.11,1.11,0,0,1,.8.26.88.88,0,0,0,.61.17c.43,0,2.08.42,2.51.45s3.11.88,3.48.87a4.49,4.49,0,0,1,1,.35,4.2,4.2,0,0,0,2.37-.54c.1-.06,0,.38,0,.55a1.08,1.08,0,0,1-.12.84c-.24.27-.47.55-.7.83,0,.57-.31.52-.66.24,0,0-.12,0-.13.07a1.17,1.17,0,0,0-.1.41c0,1.59,0,3.19,0,4.79a.2.2,0,0,0,.27.19.29.29,0,0,0,.13-.16,3.28,3.28,0,0,1,.14-.84,2,2,0,0,0,.33-1c0-.36,0-.73,0-1.09a1.74,1.74,0,0,1,.39-1.42c-.05-.63.35-1,.68-1.52A10.52,10.52,0,0,0,49.59,54c.06-.14,0-.27-.11-.4a.71.71,0,0,1-.23-.58.33.33,0,0,1,.08-.19s.12-.07.15-.05a7,7,0,0,1,.67.55,3,3,0,0,0,1.46.23L52.67,53c.1-.49-1.88-.29-2.23-.59s-.67-.23-.92-.54a7,7,0,0,0-.61-.61A14.3,14.3,0,0,1,47,48.66a14.58,14.58,0,0,0-1.44-2.11c-.29-.33-1.89-3.63-2.3-4s-.73-.71-1.09-1.06c-.15-.14-.25-.11-.32.09a.31.31,0,0,0,0,.21,4.51,4.51,0,0,0,1,1.64,1,1,0,0,1,.32.77,1.75,1.75,0,0,0,.31.79,2.59,2.59,0,0,1,.1.63.49.49,0,0,1-.34.48,1.17,1.17,0,0,1-.84-.11c-.41-.29-.69-.75-1.24-.84l-1.12-1c-.22-.2-.44-.2-.78,0a2,2,0,0,1-.36.23c-.31.08-.41.3-.57.56-.3.48-.38,1.1-.88,1.46-.14.11-.48.23-.6.15s-.23-.18-.36-.24a2.13,2.13,0,0,1-1.24-1.1,5,5,0,0,0-1.27-1.46c-.23-.23-.38,0-.54.08s-.26.06-.29-.14a1.22,1.22,0,0,1,.06-.84c.19-.38.4-.75.6-1.13a3.13,3.13,0,0,1,.66-1.09c.36-.28.36-.78.68-1.08.71-.66.85-1.65,1.4-2.4,0-.8.66-1.44.52-2.28,0-.25.14-.38.34-.47a5.2,5.2,0,0,1,1-.44,6.36,6.36,0,0,1,1.31,0,1.11,1.11,0,0,1,.83.88c0,.22,0,.44,0,.66a9.82,9.82,0,0,0,.13,1.72,9.08,9.08,0,0,0,.76,1.53,1.41,1.41,0,0,0,.18.37,7.66,7.66,0,0,0,2.28,2,1.1,1.1,0,0,1,.34.27,1.59,1.59,0,0,0,1.15.5c.27,0,.5.31.77.36a9.36,9.36,0,0,0,1.3,0c.73,0,1.45,0,2.18,0a2,2,0,0,0,1.21-.36c.22-.14.56-.1.83-.18a.78.78,0,0,0,.35-.25c.37-.47,1-.52,1.41-1s.71-.73,1.08-1.08a2.4,2.4,0,0,0,.54-.91,6.79,6.79,0,0,1,.62-1.12c.22-.33.09-.71.25-1s.24-.51.36-.78.19-.23.3-.12l3,2.89a1,1,0,0,1,.25.8.93.93,0,0,0,.12.4,8.35,8.35,0,0,0,1.44,2.35c.18.15.16.39.2.6a1.46,1.46,0,0,0,.19.6,1.83,1.83,0,0,1,.23,1,.19.19,0,0,0,.26.18c.05,0,.13-.11.13-.17,0-.58,0-1.16,0-1.73a.82.82,0,0,0-.23-.59c-.25-.27-.5-.53-.76-.77s-.71-1.16-.59-1.27a.21.21,0,0,1,.13,0,2.43,2.43,0,0,0,.36.36l1.44,1.33a1.46,1.46,0,0,0,1.78.17c.13-.07.24-.22.37-.23.65,0,1.3,0,2,0A8.33,8.33,0,0,1,68,42a6.16,6.16,0,0,1,.8,1.5.89.89,0,0,1,0,.43c-.07.2-.24.36-.3.56a5.4,5.4,0,0,1-.46,1,3.71,3.71,0,0,0-.18.83s-.08.09-.13.13-.12-.11-.13-.17a3.4,3.4,0,0,1-.08-.64,1.59,1.59,0,0,0-.29-1c-.17-.22-.21-.53-.38-.76a1.88,1.88,0,0,1-.2-.83.45.45,0,0,0-.4-.42l-.65,0a.84.84,0,0,0-.61.19c-.37.35-.75.68-1.1,1.05a3.73,3.73,0,0,0-.68,1.33,9,9,0,0,0-.1,1.07c-.06.27-.35.46-.34.78a1.23,1.23,0,0,1-.24.81.93.93,0,0,0-.23.6c0,.43,0,.87,0,1.3a1.91,1.91,0,0,1-.37,1.43c.07.7-.5,1.16-.65,1.78,0,.14-.17.24-.23.37a1.21,1.21,0,0,0,.65,1.44.3.3,0,0,0,.21,0,1.13,1.13,0,0,0,.83-1.12c0-.41-.14-.52-.47-.31s-.27.13-.33-.06a.32.32,0,0,1,0-.21,1,1,0,0,1,.17-.38c.29-.32.6-.63.9-1a.91.91,0,0,0,.2-.6c0-.14,0-.33,0-.42a1.92,1.92,0,0,0,.36-1.43A2.07,2.07,0,0,1,64,47.62a5.52,5.52,0,0,0,.09-1.07c-.08-.63.41-1,.55-1.59.31-.18.62-.36.93-.52,0,0,.13,0,.17.06.27.25.52.51.78.77a.47.47,0,0,1,.1.59,2.24,2.24,0,0,0-.32,1.65.24.24,0,0,0,.12.17.17.17,0,0,0,.17,0l.84-.6c0,.06.11.12.11.18s0,.32-.08.41c-.3.32-.27.83-.62,1.12s-.51.86-.8,1.27a1,1,0,0,0-.18.6,2.18,2.18,0,0,1-.43,1.42c0,.69-.41,1.21-.63,1.8-.07.2-.29.34-.25.59.09.56-.48.88-.5,1.4a8,8,0,0,0-1.33,2.19,1.41,1.41,0,0,1-.6.61,1.54,1.54,0,0,1-1.26,0c-.21-.08-.26-.33-.26-.55a1.18,1.18,0,0,0-.65-1.06.44.44,0,0,0-.4,0,3.61,3.61,0,0,0-1.14,1.28c-.49,1-1,2-1.52,3.06C56.58,61.89,56.74,62.55,56.24,63Z"/><path class="cls-1" d="M26.9,31.76a1.18,1.18,0,0,1,.59-.23h3.69a2,2,0,0,1,1.22.33c.28.22.72,0,1,.26s.53.23.77.38a6,6,0,0,1,.81.71,2.76,2.76,0,0,0,1.06.29.74.74,0,0,0-.2-.32,2.8,2.8,0,0,1-.21-.26,3.56,3.56,0,0,0-1.72-1.26,23.41,23.41,0,0,0-3.09-.88,14.89,14.89,0,0,0-1.59-.15,19.49,19.49,0,0,0-2.71.87C26.58,31.93,26.58,31.93,26.9,31.76Z"/></svg>