<svg xmlns="http://www.w3.org/2000/svg" viewBox="0 0 90 90"><defs><style>.cls-1{fill:#171717;}</style></defs><g id="Faith"><path class="cls-1" d="M76,62.7a5,5,0,0,1-1.11.52c-1.12.18-2-.36-2.57-1.68-.28-.58-.41-1.23-.66-1.83-.1-.21-.2-.48-.67-.29a2.13,2.13,0,0,1-2.35-.66,4.14,4.14,0,0,1-1.55-3.33c0-.37-.14-.48-.51-.57a2.87,2.87,0,0,1-2.12-1.3A14.85,14.85,0,0,1,60.85,60a24.27,24.27,0,0,1-2.8,2.34c-.56.44-1.12.88-1.71,1.27a13.89,13.89,0,0,1-5.73,2.13c-1,.13-1.9.22-2.86.3a21.05,21.05,0,0,1-5.53-.68c-1-.18-1.89-.63-2.86-.82A10.63,10.63,0,0,1,35.47,63,16.84,16.84,0,0,1,31,58.92a16.41,16.41,0,0,1-2.8-5.47.82.82,0,0,0-.68-.71.77.77,0,0,0-.85.51c-.34.68-.62,1.38-1,2a3.77,3.77,0,0,1-.62.82,19.56,19.56,0,0,0-1.31,1.76c-.1.33-.2.67-.33,1-.51,1.23-.91,1.4-2.26,1-.24.65-.49,1.3-.71,2a5.86,5.86,0,0,1-1.83,2.84,1.62,1.62,0,0,1-1.82.3c-.32-.15-.48-.24-.7.17a9.34,9.34,0,0,1-3.21,3.1c-.42.3-.73.74-1.13,1-.71.56-1,.53-1.85,0-.17-.11-.37-.16-.54-.27A.76.76,0,0,1,9.06,68c.06-.19.18-.36.24-.56a29.69,29.69,0,0,0,1-5.78,3,3,0,0,1,.21-.71,9,9,0,0,0,.42-2.53,15.13,15.13,0,0,1,.32-3,21.89,21.89,0,0,0,.58-4,21.13,21.13,0,0,1,.3-2.24,16.23,16.23,0,0,1,.24-2.26c.4-1.49.42-3.07.71-4.6.18-.92.57-1.8.83-2.7.45-1.53,1-3.05,1.28-4.61a7.76,7.76,0,0,1,3-4.46,7.89,7.89,0,0,1,1.35-1,5.35,5.35,0,0,1,4.09-.47c.05,0,.09.08.13.08,1.81,0,2.82,1.17,3.69,2.53.08.12.09.3.19.4.49.53.11,1.42.86,1.88a11.51,11.51,0,0,1,1.51,1.43c.64-.81,1.3-1.61,1.92-2.45A8,8,0,0,1,35,30.45a31.18,31.18,0,0,0,2.94-1.83,5.42,5.42,0,0,1,2.68-.92c.69,0,1.39-.22,2.08-.28s1.3-.18,1.94-.25a6.46,6.46,0,0,1,3.17.16,7.22,7.22,0,0,0,2.22.36,16.54,16.54,0,0,1,6.37,2.11c1.72.83,2.82,2.29,4.13,3.55,1,1,1,1,2.31.34a6.84,6.84,0,0,0,2.42-2.27,10.16,10.16,0,0,1,1.47-1.92,5.49,5.49,0,0,1,4.57-1.28c2.32.33,3.45,1.78,4.49,3.58a17.06,17.06,0,0,1,1.83,6.31c.2,1.53.56,3,.83,4.57a13.28,13.28,0,0,1,.36,2.23,48.88,48.88,0,0,0,.68,5.4c.22,1.91.47,3.81.64,5.72.13,1.37.2,2.73.28,4.1,0,.84.31,1.67.44,2.51a9.48,9.48,0,0,1-.17,4.52,1.25,1.25,0,0,1-1.32,1,1.44,1.44,0,0,1-1.57-.9c-.37-.93-.73-1.86-1.09-2.79ZM63.78,46.41a37.21,37.21,0,0,0-.46-4.23,16.25,16.25,0,0,0-1.14-3.86,14.5,14.5,0,0,0-2.68-3.83c-.36-.37-1-.72-1-1.13-.1-.86-.74-1-1.28-1.33s-.78-.47-1.18-.67c-1.07-.55-2.13-1.1-3.25-1.56a25.42,25.42,0,0,0-4.34-1.13,8.93,8.93,0,0,0-3-.29c-1.11.12-2.21.23-3.33.29a10.42,10.42,0,0,0-2.2.42A14,14,0,0,0,34.87,32,18.52,18.52,0,0,0,30,38.37a13.71,13.71,0,0,0-1.26,5.84,37,37,0,0,0,.6,7.57,12.91,12.91,0,0,0,1.48,4.07,12.24,12.24,0,0,0,3.8,4.47.88.88,0,0,1,.22.21,7.67,7.67,0,0,0,3.3,2.09c.23.1.46.18.68.3a15.11,15.11,0,0,0,5.31,1.48,18.3,18.3,0,0,0,6.55-.28c.87-.19,1.75-.41,2.6-.67A9.49,9.49,0,0,0,55.76,62c1.07-.76,2.07-1.63,3.13-2.42A8.77,8.77,0,0,0,61.17,57a10.89,10.89,0,0,0,1.65-4,11.63,11.63,0,0,1,.27-1.77A17,17,0,0,0,63.78,46.41Zm-36.1,5.13c-.06-.63-.13-1.12-.15-1.6,0-1,0-2,0-2.94,0-.49-.35-1.06-.2-1.45a10.16,10.16,0,0,0,.23-2.73,26.93,26.93,0,0,1,.35-2.7c.21-.86.59-1.69.88-2.53a1.62,1.62,0,0,0-.62-2.15c-.07-.06-.19-.08-.26-.15a2.37,2.37,0,0,1-1-1.61c-.06-1.07-1.12-1.51-1.52-2.38,0-.1-.25-.14-.38-.18-.62-.19-1.23-.42-1.86-.55-1.38-.26-2.84-.29-3.87.76a8.81,8.81,0,0,0-2.48,3.91c-.51,2-1.27,3.91-1.25,6a1.39,1.39,0,0,1,0,.46,32.73,32.73,0,0,0-1.57,6.55c-.15,1.09-.41,2.16-.55,3.25A33.11,33.11,0,0,1,13,55.12a57.44,57.44,0,0,0-.82,6.11c-.22,1.55-.56,3.05-.88,4.57a7.76,7.76,0,0,1-.69,2.29c-.09.15.09.45.15.68a1.81,1.81,0,0,0,.53-.23,26.61,26.61,0,0,0,2.62-2.35c.85-1,1.94-1.83,1.93-3.3,0-.5.23-.6.66-.6s.59.26.57.69-.05.92.51,1.1a6,6,0,0,0,2-3c.22-.66.41-1.33.63-2s.47-.92,1.2-.78a4.59,4.59,0,0,1,.84.35c.26-1.28.49-2.46.75-3.62.15-.69.47-.95,1.06-.65s.63.14.87-.31a6.86,6.86,0,0,1,1.44-2.45A1.05,1.05,0,0,1,27.68,51.54ZM62.13,35.11a13.42,13.42,0,0,1,1.35,2.2,16.15,16.15,0,0,1,1.43,6.57,5,5,0,0,0,0,1.23,13.37,13.37,0,0,1,0,5.42,1.13,1.13,0,0,0,.27,1.14c.2.18.22.54.35.8.24.49.45.91,1.18.92,1.09,0,1.22.34,1.62,1.56a4.88,4.88,0,0,0,1,2.45c.8.73.9.78,1.75.06s1.22-.51,1.5.59a10.94,10.94,0,0,0,.88,2.7c.67,1.17.63,1.2,1.69.36.6-.48,1-.47,1.39.15a12.69,12.69,0,0,1,1.1,2c.42,1,.73,2,1.1,2.94a2.13,2.13,0,0,0,.31.43c.1-.13.28-.27.29-.41A11.87,11.87,0,0,0,79,62.12a4.59,4.59,0,0,1-.21-.87c-.13-1.57-.23-3.14-.33-4.72a2.36,2.36,0,0,0,0-.46,25.55,25.55,0,0,1-.6-4.17,5.4,5.4,0,0,0-.09-.91c-.46-1.81-.53-3.68-.82-5.51a27.19,27.19,0,0,0-.37-3,51.05,51.05,0,0,1-.83-5.34,15,15,0,0,0-1.89-5.67,4.36,4.36,0,0,0-2.41-1.95,4.12,4.12,0,0,0-2.9.21A2.13,2.13,0,0,0,67,31a4.53,4.53,0,0,1-.76,1.12,5.47,5.47,0,0,1-1.16,1.39C64.15,34.09,63.15,34.55,62.13,35.11Z"/><path class="cls-1" d="M43.84,21.52c-2.52,0-5,0-7.56,0-1.63,0-3.23-.43-4.87-.32-.48,0-1.36-1-1.4-1.51v-.16c.08-.9-.34-2,.36-2.66a6.94,6.94,0,0,1,3.2-1.51A16.74,16.74,0,0,1,37.5,15c1,0,1.91-.22,2.86-.29a7.55,7.55,0,0,0,2.71-.28,2.92,2.92,0,0,1,1.07,0c2.83,0,5.66.05,8.48,0a31.49,31.49,0,0,1,5.23.71,2.35,2.35,0,0,1,2.09,1.74,3.37,3.37,0,0,1-1.18,2.8,11.87,11.87,0,0,1-3.2,1.24c-.53.13-1.09.16-1.62.32a9.55,9.55,0,0,1-3,.3Zm13.29-5.38c-1.72-.62-3.45-.62-5.09-1.06a1.57,1.57,0,0,0-.91,0c-1.14.47-2.32.19-3.48.27a44.36,44.36,0,0,0-4.87.24,38.54,38.54,0,0,1-6.09.35,16,16,0,0,0-3.52.64c-.34.07-.45.24-.38.52s.19.37.32.4a7.25,7.25,0,0,0,1.77.32,50.67,50.67,0,0,0,5.63-.23A60.63,60.63,0,0,1,47,17.51a30.34,30.34,0,0,0,5.63-.25A27.89,27.89,0,0,0,57.13,16.14ZM31.41,17.3A9.91,9.91,0,0,0,31,19.09c0,.39-.05,1.06.74.65a17.56,17.56,0,0,0,4.33.57q7.41,0,14.82,0a21.63,21.63,0,0,0,5.48-.88,4.33,4.33,0,0,0,2.19-1.57.91.91,0,0,0,.09-.82,1.08,1.08,0,0,0-.72-.42,1.79,1.79,0,0,0-1.49.63,3.36,3.36,0,0,1-2.33.89,2.11,2.11,0,0,0-.62,0c-1.8.71-3.69.54-5.56.61-1.24,0-2.45-.24-3.73-.09-2.16.27-4.37,0-6.56.35a17.88,17.88,0,0,1-2.93,0A4.67,4.67,0,0,1,33,19c-.4-.16-.63-.73-1-1.11C31.91,17.72,31.75,17.61,31.41,17.3Z"/><path class="cls-1" d="M44,76.75c-.18.33-.22.55-.36.65-.37.26-.79.43-1.16.69-.52.37-1.21.54-1.45,1.27,0,.18-.39.27-.58.41-.35.27-.61,0-.75-.22a.86.86,0,0,1,.1-.63,1.21,1.21,0,0,1,.44-.43c1-.63,2-1.26,3.09-1.85C43.5,76.56,43.75,76.7,44,76.75Z"/><path class="cls-1" d="M52.29,76.44a2,2,0,0,1-.3.49q-2.09,1.77-4.2,3.5a.37.37,0,0,1-.38,0,.41.41,0,0,1,0-.4,16,16,0,0,1,3.33-2.87l1.37-.89Z"/><path class="cls-1" d="M54.64,76.48c.17.3.35.47.34.63a1.12,1.12,0,0,1-.3.67c-1.17,1-2.37,2-3.56,3,0,0-.21,0-.28,0s-.14-.2-.11-.25a3,3,0,0,1,.54-.87c.72-.62,1.5-1.17,2.23-1.79a9.76,9.76,0,0,0,.91-1C54.47,76.76,54.52,76.66,54.64,76.48Z"/><path class="cls-1" d="M43.88,80c.23-1.52,1.41-2.09,2.4-2.85a5.67,5.67,0,0,1,1.17-.62.4.4,0,0,1,.38.13.48.48,0,0,1,0,.4.77.77,0,0,1-.34.3,10.67,10.67,0,0,0-2.72,2.15A4.18,4.18,0,0,1,43.88,80Z"/><path class="cls-1" d="M37.05,79.31a1.43,1.43,0,0,1-.37-.28.41.41,0,0,1,0-.36,1.47,1.47,0,0,1,.43-.43c1.1-.68,2.2-1.34,3.31-2a.44.44,0,0,1,.3,0c.13,0,.31.1.35.2a.41.41,0,0,1-.16.36c-.71.45-1.45.86-2.16,1.32-.46.29-.87.66-1.31,1C37.32,79.18,37.18,79.24,37.05,79.31Z"/><path class="cls-1" d="M36.45,77.15s0,.12,0,.14c-.81.56-1.62,1.13-2.45,1.67-.1.06-.36-.09-.51-.18a.56.56,0,0,1,.12-.39c.77-.53,1.55-1.06,2.34-1.56.1-.06.29,0,.42.07S36.41,77.06,36.45,77.15Z"/><path class="cls-1" d="M31.76,11.61c-.14.06-.37.25-.44.2q-1-.64-1.89-1.38c-.08-.06,0-.36.09-.54s.21-.1.26-.06c.66.52,1.31,1.06,2,1.6C31.76,11.45,31.75,11.51,31.76,11.61Z"/><path class="cls-1" d="M58.36,79.36c.55-.72.93-1.24,1.34-1.74a.38.38,0,0,1,.38-.12.45.45,0,0,1,.17.36,1.13,1.13,0,0,1-.19.54,4.61,4.61,0,0,1-.81,1C59.12,79.55,58.77,79.41,58.36,79.36Z"/><path class="cls-1" d="M66.31,16.93c-.38-.07-.75-.15-1.12-.2a1.7,1.7,0,0,0-.84,0c-.34.16-.42-.09-.59-.23.15-.17.28-.47.45-.49A2.18,2.18,0,0,1,66.31,16.93Z"/><path class="cls-1" d="M24.14,18.63c-.62.12-1.1.23-1.59.3a.83.83,0,0,1-.89-.71.38.38,0,0,1,.09-.27s.19,0,.21.05c.28.48.62.28,1,.17S23.41,18.14,24.14,18.63Z"/><path class="cls-1" d="M65.47,24.34c-.6-.42-.88-1.07-1.61-1a.55.55,0,0,1-.14-.37.45.45,0,0,1,.33-.2C65,22.72,65.35,23.12,65.47,24.34Z"/><path class="cls-1" d="M24.6,24.88s-.11-.06-.11-.09,0-.25,0-.28c.53-.35,1.06-.7,1.61-1,.06,0,.26.08.33.17s0,.31,0,.34c-.55.31-1.11.6-1.67.89A.36.36,0,0,1,24.6,24.88Z"/><path class="cls-1" d="M57.14,77.91c.12,1.22-.6,1.55-1.18,2,0,0-.19,0-.24-.1s-.09-.23,0-.27C56.1,79,56.54,78.55,57.14,77.91Z"/><path class="cls-1" d="M31.22,78.75a1.64,1.64,0,0,1,1.27-1.57c.12,0,.32.18.61.35Z"/><path class="cls-1" d="M50,8c.18.87-.5,1.41-.73,2.08,0,0-.21,0-.28,0s-.18-.18-.16-.23C49.16,9.19,49.18,8.37,50,8Z"/><path class="cls-1" d="M39.89,10.38c-1-.48-1-1.21-.83-2.15A3.29,3.29,0,0,1,39.89,10.38Z"/><path class="cls-1" d="M56.67,11.06c0-1.11,0-1.11,1.57-1.58Z"/><path class="cls-1" d="M42.66,81c-.21,0-.42.11-.63.13s-.14-.1-.21-.15a3.45,3.45,0,0,1,.59-.41c.1,0,.27.07.41.11Z"/><path class="cls-1" d="M37.23,80.56c-.23.13-.41.26-.44.23a1,1,0,0,1-.28-.43c0-.1.1-.24.15-.35Z"/><path class="cls-1" d="M58.77,76.44l-.26.35-.36-.29c.08-.09.16-.23.26-.24S58.62,76.36,58.77,76.44Z"/><path class="cls-1" d="M54.38,80.79c.13.13.3.27.28.3a2.05,2.05,0,0,1-.32.34c-.07-.1-.2-.19-.21-.29S54.26,80.94,54.38,80.79Z"/><path class="cls-1" d="M49.1,81.67l-.44.35c0-.08-.13-.2-.1-.23a1.8,1.8,0,0,1,.37-.3S49,81.59,49.1,81.67Z"/><path class="cls-1" d="M45.15,81.13l-.19.26L44.59,81c.09,0,.2-.11.27-.08A1.37,1.37,0,0,1,45.15,81.13Z"/><path class="cls-1" d="M33.26,80c-.32.12-.45.2-.48.17a3.86,3.86,0,0,1-.3-.38c.07,0,.16-.12.2-.1S33,79.88,33.26,80Z"/><path class="cls-1" d="M39.84,40.94c-1.06-.41-2.09-.76-3.09-1.2a8.19,8.19,0,0,1-2.93-1.8c-.54-.6-.63-1,0-1.31,1.32-.6,2.64-1.2,4-1.7a5.74,5.74,0,0,1,1.67-.11c.36,0,.72,0,1.08,0a3.75,3.75,0,0,0,1.63-.18c.34-.21.4-.87.59-1.33.29-.69.52-1.41.87-2.07a7.32,7.32,0,0,1,1.08-1.47,1.81,1.81,0,0,1,2.34-.21,6.66,6.66,0,0,1,2.81,3.1c.14.32.32.63.46,1a1,1,0,0,0,.94.63,38.62,38.62,0,0,1,4.16.62,6.34,6.34,0,0,1,3,1.74,1.23,1.23,0,0,1-.35,1.92c-1.08.62-2.15,1.3-3.28,1.81a.61.61,0,0,0-.41.82c.1.38.33.73.47,1.11a45.42,45.42,0,0,1,1.6,4.5,11.36,11.36,0,0,1,.07,2.92c0,.51-.3.72-.79.6a2.11,2.11,0,0,1-.52-.26c-1.7-1.08-3.38-2.18-5.08-3.25-.64-.4-1.33-.72-1.94-1.17a1.39,1.39,0,0,0-1.68.06,22.78,22.78,0,0,0-6.3,5,7.79,7.79,0,0,1-.76.76c-.19.16-.47.38-.63.33a.77.77,0,0,1-.52-.84c0-1.23.06-2.47,0-3.7s.57-2.22.77-3.35S39.61,41.84,39.84,40.94Z"/><path class="cls-1" d="M50.71,59.17c-.4,1.49-.42,3-1.67,4-.15.12-.3.3-.48.34a.85.85,0,0,1-.55-.13s0-.26,0-.4a.66.66,0,0,1,.17-.25,9,9,0,0,0,1.59-3.45c0-.16.33-.31.52-.35S50.6,59.1,50.71,59.17Z"/><path class="cls-1" d="M51.41,62.84a18.5,18.5,0,0,0,1.1-1.62,2.82,2.82,0,0,0,.39-1.42,4,4,0,0,1,.31-1.3c0-.08.23-.14.36-.15s.17.12.18.2A5.19,5.19,0,0,1,52.34,63C51.92,63.41,51.64,63.2,51.41,62.84Z"/><path class="cls-1" d="M44.68,63.48c-.1-.09-.28-.16-.31-.28s-.06-.47,0-.5c1.12-.51,1.42-1.64,2-2.56.18-.3.3-.64.47-.93.07-.11.3-.23.34-.2s.36.29.36.45a1.9,1.9,0,0,1-.24.69A7,7,0,0,1,45.48,63,5.55,5.55,0,0,1,44.68,63.48Z"/><path class="cls-1" d="M41.38,62.63a2,2,0,0,1-.45-.42c0-.05.07-.25.16-.34a3.05,3.05,0,0,1,.61-.46,3.36,3.36,0,0,0,1.42-1.54A6.17,6.17,0,0,1,43.7,59,.27.27,0,0,1,44,59c.1.08.24.25.21.33-.17.47-.37.92-.58,1.37a3.84,3.84,0,0,1-1.8,1.78Z"/><path class="cls-1" d="M37.87,60.76a1.69,1.69,0,0,1-.45,0,.61.61,0,0,1-.27-.28.27.27,0,0,1,.1-.25,1.4,1.4,0,0,1,.53-.27,3.93,3.93,0,0,0,2.28-1.33,1.39,1.39,0,0,1,.64-.32c.1,0,.27.08.38.17a.31.31,0,0,1,0,.28C40.19,59.72,39.33,60.73,37.87,60.76Z"/><path class="cls-1" d="M35.39,58.28a9.33,9.33,0,0,1-1.06,0,.37.37,0,0,1-.27-.26.43.43,0,0,1,.18-.36,2.72,2.72,0,0,1,.84-.25c.69-.08,1.38-.14,2.08-.18a.3.3,0,0,1,.23.18.71.71,0,0,1-.63.87,10.43,10.43,0,0,1-1.37,0Z"/><path class="cls-1" d="M56.35,59a1.76,1.76,0,0,1-.78,1.62.63.63,0,0,1-.41,0c-.06,0-.13-.2-.11-.25.52-.86.19-1.8.3-2.69,0-.12.13-.3.22-.31a.37.37,0,0,1,.33.19C56.07,58.09,56.2,58.56,56.35,59Z"/><path class="cls-1" d="M57.81,57.34a9.37,9.37,0,0,1,0-1.06c0-.16.21-.42.28-.4s.44.17.46.3a8.93,8.93,0,0,1,.1,1.63,2.36,2.36,0,0,1-.27.84.45.45,0,0,1-.32.21.39.39,0,0,1-.24-.29c0-.41,0-.82,0-1.23Z"/><path class="cls-1" d="M62.26,53.29c-.28.27-.45.55-.68.63s-.58-.28-.56-.34a4.12,4.12,0,0,1,.45-.82Z"/><path class="cls-1" d="M62.7,51.45a2.94,2.94,0,0,1-.64-.31c-.11-.1-.21-.39-.15-.46a2.39,2.39,0,0,1,.57-.39,2.6,2.6,0,0,1,.25.46A3.6,3.6,0,0,1,62.7,51.45Z"/><path class="cls-1" d="M60.64,56.57l-.6-.63c.2-.14.48-.43.58-.38s.36.4.53.62Z"/><path class="cls-1" d="M33.66,55.63a1,1,0,0,1-.14.2c-.28.23-.41.76-.93.48a.27.27,0,0,1-.08-.26C32.71,55.53,33.09,55.42,33.66,55.63Z"/><path class="cls-1" d="M60,55.55a4,4,0,0,1-.71-.36.7.7,0,0,1-.23-.46.43.43,0,0,1,.29-.31.56.56,0,0,1,.45.2A4.51,4.51,0,0,1,60,55.55Z"/><path class="cls-1" d="M62.9,48.11a4.52,4.52,0,0,1,.12.64s-.1.12-.15.19a3.16,3.16,0,0,1-.4-.58c0-.11.08-.28.12-.42Z"/><path class="cls-1" d="M31.88,54.78l-.14.35a3.26,3.26,0,0,1-.4-.34s.08-.18.1-.18A3.34,3.34,0,0,1,31.88,54.78Z"/><path class="cls-1" d="M18.4,43.71a.78.78,0,0,1-.38-1c.28-.75.58-1.48.85-2.23.42-1.22.88-2.43,1.21-3.68a5.13,5.13,0,0,1,1.76-2.58,3.07,3.07,0,0,1,.9-.55c.64-.25,1,0,1.43.68a5.57,5.57,0,0,0,1.43,2.11c.25.17.53.3.76.48s.23.31.19.36-.29.31-.42.29c-1.31-.2-2.57-.54-3.23-1.88a2.19,2.19,0,0,0-.25-.37,1.67,1.67,0,0,0-.17-.15,3.61,3.61,0,0,0-1.42,2.14c-.62,1.52-1.12,3.08-1.71,4.61C19.11,42.55,19.25,43.39,18.4,43.71Z"/><path class="cls-1" d="M16.82,52c.73,1.54,0,2.81-.13,4.31.67-.76,1.16-1.36,1.7-1.92A1.24,1.24,0,0,1,19,54c.76-.13.76-.11.95-.65.26-.75.5-1.51.78-2.25a1.85,1.85,0,0,1,.44-.74c.1-.1.38,0,.57-.05,0,.15-.07.31-.09.47a13.53,13.53,0,0,1-1.12,3.85c-.33.71-.56.79-1.5.63-.42-.08-.58.18-.72.42-.36.65-.64,1.35-1,2a4.05,4.05,0,0,1-.78.92,1.31,1.31,0,0,1-.66.31c-.56.1-.81-.11-.7-.65.32-1.5.67-3,1-4.5.07-.29.14-.58.23-.86S16.61,52.45,16.82,52Z"/><path class="cls-1" d="M72.91,42.51c0,.88,0,1.4,0,1.91a.39.39,0,0,1-.29.22.41.41,0,0,1-.27-.27c-.14-1.75-.69-3.43-.7-5.23a4.81,4.81,0,0,0-1.16-3.32c-.2-.2-.44-.37-.66-.55a.41.41,0,0,0-.66,0c-.34.44-.66.89-1,1.33s-.72,1-1.13,1.41-.55,0-.76-.19a.37.37,0,0,1,.11-.63,3.93,3.93,0,0,0,1.47-1.83,1.93,1.93,0,0,1,3.49-.1,8.37,8.37,0,0,1,1.25,3.34C72.78,40.05,72.83,41.47,72.91,42.51Z"/><path class="cls-1" d="M68.18,49.36c.15,0,.28,0,.33.09a6.21,6.21,0,0,1,.74.95c.36.61.62,1.23,1.56,1.17.28,0,.63.58.9.93a8,8,0,0,1,.93,1.38,2.52,2.52,0,0,0,1.54,1.34.81.81,0,0,1,.47.35,2.42,2.42,0,0,1,.07.72,4.78,4.78,0,0,1-.53,0c-.09,0-.19-.16-.26-.15-1.28.2-1.81-.61-2.25-1.61A9.67,9.67,0,0,0,70.77,53c-.16-.23-.41-.52-.65-.55a1.53,1.53,0,0,1-1.27-1.14c-.23-.56-.56-1.06-.82-1.61C68,49.63,68.13,49.47,68.18,49.36Z"/></g></svg>