<svg xmlns="http://www.w3.org/2000/svg" viewBox="0 0 90 90"><defs><style>.cls-1{fill:#171717;}</style></defs><g id="Megaphone"><path class="cls-1" d="M40.12,59.35a1,1,0,0,1,1.2.08c.72.72,1.43,1.45,2.16,2.16a3.54,3.54,0,0,1,.56.91,4.88,4.88,0,0,0,.69.84c.06.55.53.84.81,1.25a.51.51,0,0,1,0,.6L44.17,66.6c-.19.19-.22.26,0,.51s.51.86.82,1.25a15.23,15.23,0,0,1,1,1.15c.15.23.2.55.43.73.42.32.46.89.83,1.25s.69.74,1.06,1.09.43.91.75,1.3a.42.42,0,0,1-.06.4c-.33.39-.36,1-.78,1.28a2.94,2.94,0,0,1-1.06.74,1.33,1.33,0,0,0-.49.41,1.32,1.32,0,0,1-1,.38,2.1,2.1,0,0,0-1.64.39c-.65,0-1.3,0-2,0-.13,0-.26-.11-.39-.17-.44-.23-.88-.48-1.34-.67a1.37,1.37,0,0,1-.78-.71,2.57,2.57,0,0,0-.59-.89c-.36-.36-.72-.71-1.07-1.08-.2-.21-.38-.44-.57-.66,0-.63-.7-.89-.89-1.45A15.5,15.5,0,0,0,35.58,70a3.89,3.89,0,0,0-1-1.61,3.24,3.24,0,0,1-.82-1.24A12.84,12.84,0,0,1,33,65.77c-.35-1-1.09-1.68-1.52-2.58a1.23,1.23,0,0,0-.66-.53,8.42,8.42,0,0,1-1.54-.75,4.17,4.17,0,0,1-.74-.41,8.48,8.48,0,0,0-1.63-1.42H23.67a1.93,1.93,0,0,1-1.42-.41s-.14,0-.21,0a1.31,1.31,0,0,1-1-.4c-.57-.56-1.14-1.12-1.73-1.66a.43.43,0,0,0-.58,0,1.27,1.27,0,0,1-.79.3q-.43,0-.87,0c-.6,0-1-.62-1.64-.46-.1,0-.26-.12-.36-.22-.62-.61-1.22-1.24-1.84-1.85-.33-.32-.34-.79-.62-1.13s-.13-.55-.13-.84c0-.65,0-1.31,0-2s.39-1.06.52-1.61c.41-.39.71-.91,1.31-1.1a5.2,5.2,0,0,1,1.2-.44,1,1,0,0,0,.9-1,2.61,2.61,0,0,1,.41-1.42c.23-.36.29-.82.52-1.17a10.74,10.74,0,0,1,1-1.13c.1-.11.22-.2.31-.31a5.14,5.14,0,0,1,2.12-1.44.69.69,0,0,0,.46-.64,1,1,0,0,1,.16-.62,1.19,1.19,0,0,0,.25-.81.78.78,0,0,1,.24-.58c.3-.32.61-.62.92-.93a3.16,3.16,0,0,1,.74-.41c.61-.37,1.29-.61,1.91-1S27,36,27.77,35.67c1,0,2,0,3.05,0a.88.88,0,0,1,.39.16,1.56,1.56,0,0,0,1.82,0c.44-.3,1-.05,1.4-.5.5-.1.86-.53,1.37-.6.38-.34.92-.41,1.31-.73s.71-.05,1-.27a6.83,6.83,0,0,1,1.13-.61l1-.47a7.22,7.22,0,0,0,2-1.19,1.94,1.94,0,0,1,.38-.2,6.48,6.48,0,0,0,2.12-1.44c.34-.38.9-.43,1.24-.84a2.19,2.19,0,0,1,1.21-.87c.12,0,.22-.18.33-.28A11.2,11.2,0,0,1,50,25.79C51,24.87,51.88,24,52.8,23c.36-.35.44-.89.85-1.23a10.93,10.93,0,0,0,1-1.11,4.65,4.65,0,0,1,1.47-1.84c.39-.36.42-.91.82-1.26s.58-.64.88-1c0-.56.61-.81.8-1.26a3.37,3.37,0,0,1,.72-1.06c.51-.51,1-1,1.54-1.54a.74.74,0,0,1,.58-.25,3.27,3.27,0,0,0,.44,0,2.34,2.34,0,0,1,1.44.35c.33.22.86,0,1.19.4a2.77,2.77,0,0,1,1.36,1c0,.05.13.11.14.17.09.54.55.83.83,1.24a6.82,6.82,0,0,1,.37.77c.41.83.87,1.63,1.22,2.49.08.2.29.39.27.57-.07.63.52,1,.49,1.63s.49.86.45,1.42c0,.35.42.58.4,1a1.5,1.5,0,0,0,.26.81c.29.49.14,1.15.6,1.59-.08.54.36.93.42,1.41a3,3,0,0,0,.45,1.19c-.17.64.51,1.06.44,1.63a2.66,2.66,0,0,0,.49,1.62c.2.38.38.77.57,1.15.06.13.21.25.21.37A3.55,3.55,0,0,0,74,34.72a1.19,1.19,0,0,1,0,.65c-.1.49.39.75.42,1.2a3.13,3.13,0,0,0,.15,1.06,4.35,4.35,0,0,1,.33,1c.06.34.29.65.38,1s0,.59.07.87.32.5.36.77c.09.56,0,1.16.42,1.64.07.09,0,.28,0,.43.06.56-.09,1.17.35,1.65,0,.36.09.72.11,1.07a1.63,1.63,0,0,0,.26,1,.77.77,0,0,1,.14.4c0,.21,0,.43,0,.65,0,.57-.08,1.16.33,1.67a.67.67,0,0,1,.08.41c0,1,0,2,0,3a1.22,1.22,0,0,1-.27.81,1,1,0,0,0-.14.62,5.51,5.51,0,0,1,0,1.08,7.18,7.18,0,0,1-.54,1.16c-.07.13-.22.23-.24.36a1.44,1.44,0,0,1-1.17,1.13c-.13,0-.24.17-.37.23a.53.53,0,0,1-.6,0c-.11-.1-.24-.23-.37-.23a5.33,5.33,0,0,1-2-.74,2.47,2.47,0,0,0-.61-.18,1.91,1.91,0,0,1-.59-.23c-.24-.16-.42-.48-.67-.54a7.69,7.69,0,0,1-1.15-.57,3.18,3.18,0,0,0-1.64-.42,1.8,1.8,0,0,1-1.22-.36c-.16-.1-.42,0-.64-.06a1.32,1.32,0,0,1-.82-.2,1,1,0,0,0-.6-.21c-.94,0-1.89,0-2.83-.07a.79.79,0,0,1-.4-.13,1.45,1.45,0,0,0-.81-.26l-3.27,0a2.08,2.08,0,0,1-1.45-.31.67.67,0,0,0-.41-.08q-2.07,0-4.14,0a.86.86,0,0,0-.4.13,1.3,1.3,0,0,1-.81.25c-.87,0-1.74,0-2.61,0a2.62,2.62,0,0,0-1.68.32c-.14.11-.41.07-.62.08-.87,0-1.75,0-2.62.06a1.11,1.11,0,0,0-.9.81c0,.36,0,.73,0,1.09a1,1,0,0,1-.31.78,4.55,4.55,0,0,0-.7,1.08,6.66,6.66,0,0,1-.7.81s-.29.23-.34.36,0,.21.16.16A8.17,8.17,0,0,0,40.12,59.35Zm-18.73-2c.14.06.22,0,.18-.17a5.24,5.24,0,0,0-.39-.79c-.46-.65-.66-1.43-1.09-2.09-.08-.12,0-.23.08-.37.33-.35.45-.36.6,0l.65,1.35a7.6,7.6,0,0,0,.37.76c.27.42.72.72.84,1.25,0,.13.17.23.27.33.37.36.74.7,1.11,1,0,0,.12,0,.16,0a.41.41,0,0,0,.12-.18c0-.28.09-.59-.14-.82a6.35,6.35,0,0,1-1.21-2,12.94,12.94,0,0,0-.7-1.33,1.14,1.14,0,0,1-.13-.62,1,1,0,0,0-.25-.59c-.13-.16-.14-.28.06-.33a.92.92,0,0,1,.4,0,.23.23,0,0,1,.15.15,8.86,8.86,0,0,0,.64,1.36,9.31,9.31,0,0,0,.7,1.32,1.55,1.55,0,0,1,0,.21c.19.55.87.78.93,1.42,0,.06.09.12.15.15s.12-.07.14-.12a1.1,1.1,0,0,0-.09-1A4.17,4.17,0,0,1,24.27,54c0-.23-.2-.38-.26-.58-.19-.61-.68-1.11-.63-1.8-.54-.47-.26-1.26-.71-1.78a1.12,1.12,0,0,1-.12-.62,1.5,1.5,0,0,0-.28-1c-.3-.34,0-.87-.36-1.21a1.09,1.09,0,0,1-.23-.82,1.52,1.52,0,0,0-.26-1,.68.68,0,0,1-.13-.39c0-.58,0-1.16-.06-1.75a.52.52,0,0,0-.08-.19c-.08-.14-.19-.12-.33,0s-.57.47-.8.74-.65.3-.91.56a1.78,1.78,0,0,0-.51.69A5.56,5.56,0,0,1,18,46a1.8,1.8,0,0,0-.31,1,1.08,1.08,0,0,1-.09.63,2.15,2.15,0,0,0-.32,1.44c0,.44,0,.88,0,1.31a.66.66,0,0,0,.13.4c.45.43.11,1.17.6,1.58a11,11,0,0,0,1.79,3.16c.13.7.7,1.06,1.18,1.49C21.07,57,21.26,57.3,21.39,57.35Zm9.86-17.23h0c0,.37,0,.73,0,1.09a.68.68,0,0,0,.12.4,1.71,1.71,0,0,1,.28,1c0,.21,0,.49.1.62.45.52.23,1.29.71,1.78-.06.61.46,1.06.47,1.62s.6,1,.49,1.63A4.2,4.2,0,0,0,34,49.44c.38.43.17,1,.48,1.41a1.13,1.13,0,0,1,.27.8c0,.4.41.63.4,1,0,.63.43,1,.6,1.58.05.16.21.18.38.17a1.11,1.11,0,0,0,.62-.11.32.32,0,0,0,.15-.37,4.11,4.11,0,0,0-.56-1.13c-.37-.43-.14-1-.49-1.41a1.64,1.64,0,0,1-.25-1,2,2,0,0,1-.39-1.64c0-.12.13-.23.2-.34.06,0,.15.1.15.15,0,.46.52.73.48,1.17s.31.79.44,1.2c.51,1.66.51,1.66,1.28,2.41a1,1,0,0,0,1.18.16.26.26,0,0,0,.15-.37,4.3,4.3,0,0,0-.55-1.14c-.38-.42-.16-1-.47-1.41a1,1,0,0,1-.25-.59c0-.58,0-1.16,0-1.74a.2.2,0,0,1,.25-.2.26.26,0,0,1,.15.16,6.21,6.21,0,0,1,0,.86c0,.4.38.62.41,1a1.76,1.76,0,0,0,.3,1c.22.28.22.69.49,1a2.72,2.72,0,0,0,1,1.37.92.92,0,0,0,.6.19,1,1,0,0,0,.78-.3c.21-.2.27-.32.15-.51-.43-.67-.7-1.42-1.08-2.1-.16-.29,0-.71-.29-1s-.2-.69-.47-.95S40,48.22,40,48s0-.44,0-.65.12-.27.24-.24a.34.34,0,0,1,.18.11c.2.21.42.41.38.74a3,3,0,0,0,.46,1.63c.3.64.67,1.26.92,1.93.1.26.34.45.43.74a1.56,1.56,0,0,0,.36.53.7.7,0,0,0,.56.29c.43,0,.87,0,1.3,0a.45.45,0,0,0,.32-.23.49.49,0,0,0,0-.41c-.21-.29-.46-.55-.7-.83,0-.46-.37-.77-.55-1.16a3.16,3.16,0,0,1-.42-1.64c0-.24-.15-.4-.27-.57a.59.59,0,0,1-.07-.6c.07-.21.42,0,.61.31a1.46,1.46,0,0,1,.16.39c0,.14,0,.31.05.43.46,1,.93,1.92,1.41,2.87a.75.75,0,0,0,.29.32,2.83,2.83,0,0,0,2.39.68.31.31,0,0,0,.21-.34c0-.07,0-.16,0-.21-.36-.54-1-.9-1.23-1.51s-.58-1.14-.85-1.72c-.12-.26-.27-.5-.4-.76a1.21,1.21,0,0,1,0-.84.31.31,0,0,1,.13-.17s.12,0,.17.08a1.57,1.57,0,0,1,.51.68c.25.67.7,1.24.92,1.93.31.32.35.79.63,1.11a16,16,0,0,0,1.25,1.22.73.73,0,0,0,.4.13c.36,0,.72,0,1.08,0s.51-.15.51-.29,0-.34-.08-.41c-.67-.58-.86-1.5-1.49-2.11a.63.63,0,0,1-.13-.39,1.22,1.22,0,0,0-.28-.8,1.15,1.15,0,0,1-.15-.83A.36.36,0,0,1,49.6,47c.16,0,.31,0,.34.2a3,3,0,0,0,.5,1.39c0,.45.51.71.52,1.17a7.72,7.72,0,0,1,1,1.41,1.12,1.12,0,0,0,.64.55c.41.13.69.56,1.18.5H54c.3,0,.56-.39.39-.61-.36-.45-.49-1-.81-1.5.1-.63-.41-1.06-.52-1.61a1.93,1.93,0,0,1-.36-1.64.36.36,0,0,1,.13-.17c.1-.07.19,0,.27.17a5.06,5.06,0,0,0,.25.58,5.43,5.43,0,0,0,.61,1.14,1.65,1.65,0,0,0,.4,1.2c0,.47.35.78.54,1.16a2.28,2.28,0,0,0,1.39,1.27,1.9,1.9,0,0,0,1.62.41,1.41,1.41,0,0,0,.37-.18,1.13,1.13,0,0,0-.12-.18c-.78-.69-1-1.75-1.52-2.57a1.62,1.62,0,0,0-.29-1c-.23-.27-.21-.68-.47-1s-.12-.55-.14-.84c0-.06.06-.12.1-.18s.19-.1.33,0,.24.2.28.33c.13.48.57.85.58,1.37s.61.95.84,1.47c.06.12,0,.29,0,.43a1,1,0,0,0,.13.4c.54.59,1.1,1.16,1.65,1.73a.75.75,0,0,0,.61.18h.65c.26,0,.36-.17.26-.38s-.22-.52-.34-.78a4.44,4.44,0,0,1-.3-.57c-.1-.41,0-.86-.22-1.26a9.39,9.39,0,0,1-.58-1.14,1,1,0,0,1-.09-.41c0-.44,0-.87,0-1.3,0-.06.07-.13.13-.16s.13,0,.17.05a1.06,1.06,0,0,1,.52.9A2,2,0,0,0,60.92,49c0,.45.49.71.45,1.18A4.54,4.54,0,0,0,63.27,53a.8.8,0,0,0,.4.11,2.18,2.18,0,0,1,1.45.34.64.64,0,0,0,.13-.16.29.29,0,0,0,0-.2,7.24,7.24,0,0,0-.77-1.52c0-.46-.48-.72-.49-1.18a1.22,1.22,0,0,0-.26-.8c-.26-.3-.07-.75-.28-1a2.39,2.39,0,0,1-.32-1.66c0-.07.08-.18.11-.18a.6.6,0,0,1,.34.12,1.67,1.67,0,0,1,.36.52c.06.2,0,.47.08.64a2.84,2.84,0,0,1,.43,1.2,2.17,2.17,0,0,0,.43,1,8.8,8.8,0,0,1,.59,1.14,5,5,0,0,0,.93,1.44c.19.19.23.56.44.71s.52.23.76.39c.06,0,.13.11.19.1.54-.08.94.29,1.41.43a.3.3,0,0,0,.37-.16.71.71,0,0,0,0-.21c0-.07,0-.16,0-.21a3.75,3.75,0,0,1-.5-.95,6.12,6.12,0,0,0-.6-1.13c-.23-.32-.1-.71-.26-1a10.1,10.1,0,0,0-.6-1.13c-.28-.38-.09-.85-.37-1.23a7.19,7.19,0,0,1-.61-1.13,1,1,0,0,1-.08-.42,1.28,1.28,0,0,0-.31-.79c-.23-.31,0-.72-.25-1a1.4,1.4,0,0,1-.3-.79c0-.44,0-.88,0-1.31a1.28,1.28,0,0,0-.28-.8c-.15-.19-.1-.41-.12-.63s.06-.59-.13-.84a1.42,1.42,0,0,1-.31-1c0-.14,0-.29,0-.43a2.26,2.26,0,0,0-.39-1.21,2.29,2.29,0,0,1-.06-.87c0-.39-.43-.62-.39-1,.06-.69-.61-1.16-.49-1.84-.51-.56-.32-1.41-.83-2,.08-.75-.6-1.31-.52-2.06a1.5,1.5,0,0,1-.39-1c0-.4-.33-.63-.4-1s0-.59-.19-.83a1.21,1.21,0,0,1-.27-.8,1.73,1.73,0,0,0-.22-1,1.56,1.56,0,0,1-.19-.61c-.11-.77.14-1.6-.42-2.29,0-.36,0-.73,0-1.09s0-.48-.11-.62a2.2,2.2,0,0,1-.32-1.45c0-.79,0-1.59-.07-2.39,0-.05-.08-.12-.13-.16s-.11.06-.14.1-.09.4-.26.58a2.53,2.53,0,0,0-.83,1.24c-.65.58-.87,1.49-1.56,2.05a1.38,1.38,0,0,0-.55.9L55,23.16a3.69,3.69,0,0,1-1.18,1.52c-1,1-1.94,2-2.93,2.94-.46.46-.94.9-1.41,1.35-.75.2-1.13.87-1.72,1.29-.11.08-.28.08-.39.16-.45.37-.85.79-1.33,1.11s-1.19.52-1.68.93a7.67,7.67,0,0,1-1.66,1c-.44.22-.88.46-1.33.68s-.89.43-1.34.66l-1.33.67-1.35.65c-.45.22-.88.47-1.32.7s-.77.39-1.15.57a3,3,0,0,1-1,.41,3.49,3.49,0,0,0-1.19.45,2,2,0,0,1-.43,0,1.14,1.14,0,0,0-1,1Zm-1.7.05h0c0-.73,0-1.45,0-2.18a1.42,1.42,0,0,0-.08-.41.25.25,0,0,0-.16-.14,1.27,1.27,0,0,0-.84,0,3.14,3.14,0,0,0-.55.34c-.65-.16-1.06.42-1.62.51-.31.32-.77.37-1.13.6-.12.08-.26.2-.38.19a1.79,1.79,0,0,0-1.47.78,1,1,0,0,0-.33.77c0,.94,0,1.89,0,2.83a3,3,0,0,0,.39,2.08s0,.14,0,.21c.05.42-.07.88.26,1.24s.08.87.36,1.22a1.3,1.3,0,0,1,.28.81,1.35,1.35,0,0,0,.12.84,2.54,2.54,0,0,1,.35,1A5.44,5.44,0,0,0,25.28,52c.07.15.21.16.37.17.36,0,.71.07,1.06.13.18,0,.2.18.18.35s-.05.29-.21.33-.43,0-.64.1a1.39,1.39,0,0,0-.36.19l.12.18a1.15,1.15,0,0,0,.14.17,3,3,0,0,1,.31.31A1.48,1.48,0,0,0,28,54.3c.33-.11.62-.36,1-.34s.6-.38,1-.45.49-.31.76-.38.73,0,1-.29.27-.14.33.06a.53.53,0,0,1,0,.41,1.38,1.38,0,0,1-.84.63,2.21,2.21,0,0,0-.82.21,4.65,4.65,0,0,1-2,.76,1.77,1.77,0,0,1-1.42.37.49.49,0,0,0-.21,0,.35.35,0,0,0-.19.1c-.1.08-.07.2.07.32s.33.38.51.39a1.88,1.88,0,0,0,1.46-.2.68.68,0,0,1,.39-.17c.47,0,.8-.28,1.2-.4a3.39,3.39,0,0,0,1.21-.4.78.78,0,0,1,.41-.1c.74,0,1.11-.6,1.51-1.11.06-.08,0-.28,0-.4s-.32-.39-.31-.56c.06-.63-.45-1-.52-1.62-.42-.37-.28-1-.53-1.37a10.58,10.58,0,0,0-.69-1.34.36.36,0,0,1,0-.21c0-.66-.6-1.16-.5-1.84-.39-.39-.27-1-.5-1.39A2.47,2.47,0,0,1,30,43.76a.92.92,0,0,0-.14-.62,1.15,1.15,0,0,1-.27-.8C29.56,41.62,29.55,40.89,29.55,40.17ZM43,75.77a2.18,2.18,0,0,0,1.56-.32.52.52,0,0,1,.41-.08c.71.16,1.22-.32,1.8-.57a.49.49,0,0,0,.2-.35A1.45,1.45,0,0,0,46.64,73c-.47-.45-.89-1-1.33-1.43-.15-.78-.88-1.12-1.28-1.71-.07-.11-.05-.29-.13-.4a5.43,5.43,0,0,1-.79-1,3.72,3.72,0,0,0-.76-1c-.29-.33-.6-.63-.91-.94l-.9-.94c-.11-.61-.76-.9-.91-1.44s-.74-.87-.94-1.42a5,5,0,0,0-1.23-1.49,1,1,0,0,0-1.18-.16c-.19.09-.37.22-.56.32a6,6,0,0,1-.57.28,3.47,3.47,0,0,0-.59.24.44.44,0,0,0-.21.34,1.24,1.24,0,0,1-.5,1.13,2.21,2.21,0,0,0-.29.32.51.51,0,0,0,0,.6c.46.61.66.68,1.23.36.16-.1.27-.15.33,0a.93.93,0,0,1,0,.41c0,.06-.08.12-.13.17a.94.94,0,0,0-.25,1,.52.52,0,0,0,.46.39,9.47,9.47,0,0,1,1.06.09c.17,0,.19.18.18.35s-.2.37-.29.56a.66.66,0,0,0-.08.4,1.24,1.24,0,0,0,.72.75.3.3,0,0,0,.21,0c.19-.1.37-.23.56-.33s.54,0,.56.16a.64.64,0,0,1,0,.41c-.21.29-.47.55-.7.82a.56.56,0,0,0,.06.6,1.18,1.18,0,0,0,1.1.55,2.37,2.37,0,0,1,.65,0c.06,0,.13.07.16.13a.21.21,0,0,1,0,.17l-.44.48c-.24.28-.24.32,0,.52s.29.32.45.47c.46.43.61.51,1.12.15a1,1,0,0,1,.82-.17.92.92,0,0,1,.33.21l-.11.18a1.47,1.47,0,0,1-.88.55c-.16,0-.13.18,0,.33a1,1,0,0,0,.91.46,12.83,12.83,0,0,1,1.52,0c.1,0,.2.14.28.23s-.07.12-.12.18a1.78,1.78,0,0,1-.88.56s-.07.11,0,.14a.27.27,0,0,0,.17.13A4.12,4.12,0,0,0,43,75.77ZM64.18,29.62a.76.76,0,0,0-.13.17A.38.38,0,0,0,64,30a2.94,2.94,0,0,1,.42,1.42c.5.55.33,1.4.83,1.95a2.53,2.53,0,0,0,.38,1.22c.19.37.08.84.38,1.21a1.35,1.35,0,0,1,.13.62,1.55,1.55,0,0,0,.27,1c.26.3.08.72.25,1a1,1,0,0,0,.82.64,1.26,1.26,0,0,1,1,.37c.25.27.51.52.78.77a1.07,1.07,0,0,0,1,.16c.06,0,.12-.08.16-.14s.11-.5,0-.58c-.31-.17-.68-.23-.9-.54a3.61,3.61,0,0,1-.23-.36.47.47,0,0,1,.29-.51,1.21,1.21,0,0,1,1,.24.51.51,0,0,0,.59.13,1.08,1.08,0,0,0,.65-.81c0-.17,0-.32-.18-.36s-.57-.07-.84-.15c-.1,0-.18-.2-.23-.32a.41.41,0,0,1,.29-.49l.44,0a1,1,0,0,0,.85-1.58c-.12-.25-.35-.49-.28-.79.13-.64-.28-1.1-.48-1.62s-.83-.83-.92-1.45c0-.06-.08-.11-.13-.17l-.15-.15A4.18,4.18,0,0,0,68.45,30l-2.61,0C65.27,29.91,64.67,30,64.18,29.62Zm3.32-1h.87a.42.42,0,0,0,.43-.39,1.84,1.84,0,0,0-.28-1.44.81.81,0,0,1-.14-.62A2.47,2.47,0,0,0,68,25a5.19,5.19,0,0,1-.46-.95,3.56,3.56,0,0,0-.39-1.22,1.35,1.35,0,0,1-.11-.62c0-.22,0-.43,0-.65-.53-.4-.31-1.08-.59-1.59-.56-1-1-2-1.53-3.05-.27-.59-.86-1-1-1.61-.59-.15-.94-.65-1.41-1-.09-.07-.56.06-.56.19,0,.45-.47.73-.48,1.18s0,.87,0,1.31a.38.38,0,0,0,.12.17.19.19,0,0,0,.14,0,.39.39,0,0,0,.14-.17c.06-.12.08-.27.15-.39a.44.44,0,0,1,.57,0,.32.32,0,0,1,.13.38,4.65,4.65,0,0,1-.56,1.14c-.32.38-.17.84-.38,1.22a1.74,1.74,0,0,0-.11.18c-.27.59-.27.61.23,1.1.14.14.31.16.33,0,.13-.75,1-1.08,1.09-1.82,0-.11.21-.07.34.05.32.29.33.35.17.69-.41.83-.81,1.67-1.22,2.49-.09.19-.27.34-.27.58a3.74,3.74,0,0,0,.1,1.49c0,.07.09.15.14.15a1.13,1.13,0,0,0,.41-.05.22.22,0,0,0,.14-.16,10.16,10.16,0,0,1,1.13-2.75c.06-.12.2-.2.31-.3a1.18,1.18,0,0,1,.19-.11,1.94,1.94,0,0,1,.18.35.78.78,0,0,1,0,.43,5.49,5.49,0,0,0-.38.77,3.25,3.25,0,0,1-.26,1c-.33.55-.57,1.15-.88,1.7a1.55,1.55,0,0,0-.23.82c0,.36,0,.72,0,1.08a.26.26,0,0,0,.14.15s.13,0,.15-.05a1.68,1.68,0,0,1,.16-.39,7.52,7.52,0,0,0,1.3-2.2,1.73,1.73,0,0,1,.41-.49c.05-.06.16-.13.18-.11s.22.18.23.28a1.38,1.38,0,0,1,0,.64A4.1,4.1,0,0,1,65.07,26a10.86,10.86,0,0,0-1.28,2.21c-.13.23,0,.41.18.4s.76.11.89-.38.47-.71.57-1.15c0-.18.28-.32.44-.46a.18.18,0,0,1,.16,0,.33.33,0,0,1,.12.17,1.61,1.61,0,0,1,0,.44c0,.13-.07.27-.1.4s-.38.29-.14.54a1.06,1.06,0,0,0,.7.46C66.92,28.64,67.21,28.63,67.5,28.63ZM71,51.28c0,.06,0,.2,0,.35a1,1,0,0,0,.39.74,1.26,1.26,0,0,0,.33.16,2,2,0,0,0,.14-.39c0-.29,0-.58,0-.87,0-.11,1.12-2.17,1.21-2.26a1.7,1.7,0,0,1,.33-.27s.15,0,.22,0c.25,0,.42.27.33.46-.27.58-.59,1.13-.8,1.73A5,5,0,0,1,72,53.18c-.09.12,0,.21,0,.36.25.35.3.81.67,1.09.16.13.47.26.58.17a.67.67,0,0,0,.23-.33,4.77,4.77,0,0,0,0-.66c0-.21,0-.45.17-.61.61-.53.76-1.39,1.39-1.91.14-.12.11-.22,0-.37a1,1,0,0,1-.21-.6c-.07-.77.16-1.61-.4-2.3,0-.28,0-.57,0-.86a2.11,2.11,0,0,0-.31-1.24,1.13,1.13,0,0,1-.12-.62,1.49,1.49,0,0,0-.27-1,1,1,0,0,1-.16-.62l-.12-1.28a2.05,2.05,0,0,1-.38-1.22c0-.09-.19-.19-.31-.24a.3.3,0,0,0-.38.12c-.11.18-.14.42-.28.57a.5.5,0,0,0,0,.74.47.47,0,0,1,0,.41,12.38,12.38,0,0,0-.56,1.16,6.5,6.5,0,0,1-.5.94c-.28.37-.09.85-.39,1.22a9.32,9.32,0,0,0-.5.94c-.19.3-.24.66-.44,1a1,1,0,0,0,.24,1.36c.18.19.35.18.46-.05.21-.45.4-.91.62-1.36a6.45,6.45,0,0,0,.58-1.14c.14-.5.57-.84.64-1.36,0-.12.17-.23.27-.33a.52.52,0,0,1,.17-.13s.13-.09.18-.07a.28.28,0,0,1,.13.17,1.74,1.74,0,0,1-.34,1.62,1.36,1.36,0,0,0-.5,1.15c-.25.67-.68,1.25-.9,1.93A1.85,1.85,0,0,0,71,51.28ZM17.19,56.19l.51,0,.22,0c.13,0,.31-.42.23-.55a1.08,1.08,0,0,0-.11-.18c-.18-.23-.37-.45-.56-.67s-.09-.7-.27-1-.37-.78-.59-1.14-.13-.85-.21-1.27a.43.43,0,0,0-.07-.2A2,2,0,0,1,16,49.89a.47.47,0,0,0-.3-.28,1.06,1.06,0,0,0-.64,0c-.67.43-1.32.89-1.26,1.85.05.65,0,1.31.05,2a.71.71,0,0,0,.14.39c.28.42.73.72.81,1.26a3.17,3.17,0,0,0,.64.58A2.88,2.88,0,0,0,17.19,56.19ZM43.46,65a1.79,1.79,0,0,0-.09-.4c-.31-.64-.83-1.16-1.15-1.78A7.33,7.33,0,0,0,40.66,61c-.12-.12-.52-.06-.57.1s-.12.32-.06.4c.24.35.56.65.78,1a12,12,0,0,1,.53,1.15,1.21,1.21,0,0,0,.24.35l1.24,1.21s.13,0,.19.05a.33.33,0,0,0,.38-.15A.84.84,0,0,0,43.46,65ZM28.12,57.46v0a4.85,4.85,0,0,0,1.08,0c.33-.09.6-.35.95-.46s.57-.41,1-.37.62-.42,1-.4c.63,0,1-.46,1.6-.56a.23.23,0,0,0,.14-.15.85.85,0,0,0,0-.42.29.29,0,0,0-.36-.17,9.44,9.44,0,0,0-1.33.62c-.44.22-.89.42-1.34.63-.68-.09-1.14.65-1.84.47a2.41,2.41,0,0,1-1.37.47c-.06,0-.11.09-.17.13s.16.22.27.25A1.23,1.23,0,0,0,28.12,57.46Zm1.28,1.38c.45.21,1-.39,1.68-.59.26-.27.66-.28.93-.5a9.3,9.3,0,0,1,1-.47c.29-.18.65-.27.93-.48s.68-.17,1-.26c.07,0,.11-.09.17-.14s-.15-.23-.23-.24a1.75,1.75,0,0,0-1.61.37c-.47,0-.72.41-1.15.5s-.69.47-1.18.44-.7.47-1.16.47a1.41,1.41,0,0,1-1.17.39c-.06,0-.12.06-.18.1s-.11.11-.1.14a.34.34,0,0,0,.15.14C28.65,58.75,28.85,58.77,29.4,58.84ZM71,43.44a.53.53,0,0,0-.06-.19s-.11-.12-.14-.11a12.17,12.17,0,0,0-1.11.63.82.82,0,0,0-.41.72,2,2,0,0,1-.38,1.42c-.11.14-.07.42,0,.63a1,1,0,0,0,.18.37,3.79,3.79,0,0,0,.35-.25c.1-.1.24-.21.26-.34.08-.51.53-.85.61-1.36.34-.38.38-.93.73-1.31C71,43.61,71,43.51,71,43.44ZM67.3,40c-.07.12-.14.23-.2.35a.27.27,0,0,0,0,.2,3.4,3.4,0,0,1,.45.94c0,.18.27.32.42.46a.55.55,0,0,0,.75,0c.49-.4.52-.5.22-.78s-.81-.79-1.24-1.16C67.62,40,67.44,40,67.3,40Zm8,13.52-.17-.39-.17.11a1.1,1.1,0,0,0-.53.87,1.19,1.19,0,0,1-.26.79,1.08,1.08,0,0,0-.13,1c0,.15.2.18.34.19a.34.34,0,0,0,.37-.16,1.91,1.91,0,0,0,.14-1c0-.45.5-.71.41-1.18A.67.67,0,0,1,75.34,53.55ZM35.6,58.68c-.09-.11-.14-.25-.25-.31a.44.44,0,0,0-.53.21,2.32,2.32,0,0,1-.34.77c-.07.11,0,.21.19.25a.5.5,0,0,0,.21,0,1.32,1.32,0,0,0,.71-.72A.45.45,0,0,0,35.6,58.68Zm-2.83,1.75a1.05,1.05,0,0,0,.68-.93.32.32,0,0,0-.11-.17s-.12-.06-.14,0c-.34.24-.69.48-.55,1C32.66,60.33,32.73,60.38,32.77,60.43Zm4.6-2.58-.16-.34a1,1,0,0,0-.18.1l-.29.28c-.12.12-.15.26-.06.32a.6.6,0,0,0,.37.07A.38.38,0,0,0,37.37,57.85ZM31.1,60.51c.13,0,.26,0,.39-.08a.2.2,0,0,0,.14-.13c0-.12-.3-.27-.51-.21s-.21.18-.16.27S31.06,60.46,31.1,60.51Zm2.59,2.08.14-.11s-.08-.12-.13-.12-.18.06-.13.16S33.65,62.57,33.69,62.59Z"/><path class="cls-1" d="M62.93,44.15c-.07.35-.19.45-.49.38s-.42-.19-.38-.49.18-.44.49-.38S63,43.85,62.93,44.15Z"/><path class="cls-1" d="M20,52.49c0,.35-.13.45-.33.38s-.29-.19-.26-.49.12-.43.33-.38S20.06,52.19,20,52.49Z"/><path class="cls-1" d="M19.54,51c-.05.35-.13.45-.33.38s-.29-.19-.27-.49.13-.44.34-.38S19.58,50.68,19.54,51Z"/><path class="cls-1" d="M28.15,52.74c-.35.06-.47,0-.47-.2s.09-.33.39-.4.45,0,.47.2S28.45,52.69,28.15,52.74Z"/><path class="cls-1" d="M62,42.09c-.17,0-.37-.09-.36-.24s.2-.23.38-.22.37.09.37.24S62.15,42.1,62,42.09Z"/><path class="cls-1" d="M59.9,44.35c-.09,0-.21.15-.27.12s-.19-.17-.28-.27c.1-.09.19-.24.29-.25C59.9,43.93,60,44.1,59.9,44.35Z"/><path class="cls-1" d="M56,45.16c-.1.05-.22.15-.28.12s-.19-.18-.28-.27c.1-.09.19-.24.3-.25S56.06,44.91,56,45.16Z"/></g></svg>