<svg xmlns="http://www.w3.org/2000/svg" viewBox="0 0 90 90"><defs><style>.cls-1{fill:#171717;}</style></defs><g id="Newbie"><path class="cls-1" d="M49.68,70.07a5,5,0,0,0-3,1.4,1.14,1.14,0,0,1-.31.31c-.12.07-.3.13-.39.08s-.15-.25-.13-.37c.13-.78.14-.76-.51-.78a1.34,1.34,0,0,0-.93.32,1.47,1.47,0,0,1-1.52.52l.81-1a1.83,1.83,0,0,0-2.43.37,7.64,7.64,0,0,1-1.28.93,1,1,0,0,1,.69-1.52c0-.07-.06-.17-.11-.19l-1.1-.29c-.11.55-.74.27-1,.61-.11.16-.29.28-.41.43a6.5,6.5,0,0,0-.35.6c-.51-1.05.32-1.31.61-1.83a16.93,16.93,0,0,1-5.58-3.25,22.16,22.16,0,0,1-6.87-10.78A13.71,13.71,0,0,1,24.93,51c-1.67-.52-2.8-1.36-4.47-2-1.35-.47-2.67-1.07-4-1.6-.67-.27-1.35-.5-2-.74-.08,0-.2,0-.29,0a1.4,1.4,0,0,1-.85-2.24A24.78,24.78,0,0,1,15.2,41.9c1.17-1.44,2.39-2.84,3.58-4.26.82-1,1.63-1.94,2.42-2.94C22.83,32.61,35.48,18.91,36,17.54a10.48,10.48,0,0,1,1.4-2.2.7.7,0,0,1,.57-.28,8.93,8.93,0,0,1,2.06.62c1.63.83,2.22.73,3.81,1.65,2,1.18,4.05,2.42,6.1,3.6,1.54.89,3.11,1.72,4.67,2.59,1.09.61,4.18,2.22,5.25,2.86.27.16.44.27.77.06a2.11,2.11,0,0,1,2.88.29,2.5,2.5,0,0,1,.94,1.6c0,.37.22.73.28,1.11s3.61,1.8,5.53,2.7a31.84,31.84,0,0,1,4.49,2.33,15.68,15.68,0,0,1,1.77,1.25,1.28,1.28,0,0,1,.09,1.94c-1.86,2.26-1.63,2.59-3.71,4.68-2.28,2.3-3.38,3.77-5.6,6.22.67,1.35.43,3.73,1.39,5s.61,2-.27,2.66a1.2,1.2,0,0,1-.65.27c-.73,0-1.45-.09-2.18-.14-.17,0-.42-.07-.51,0a1.84,1.84,0,0,1-2.17.24c-.41-.16-.47,0-.59.34-.37,1-.77,2-1.17,2.93a13,13,0,0,1-2.5,3.73A38.15,38.15,0,0,1,55,67.13c-1.48,1.28-3.19,2.22-4.59,3.58-.11.1-.21.24-.34.28-.3.11-.79.32-.88.21-.34-.38.21-.53.34-.81C49.52,70.34,49.55,70.31,49.68,70.07ZM44.54,32.84a25,25,0,0,0-4.53.82,26.28,26.28,0,0,0-5.16,3,41.43,41.43,0,0,0-3.91,3.47c-.32.29-1.24,1.47-1.51,1.8a18.36,18.36,0,0,0-2.15,4.18,10.43,10.43,0,0,0-.87,4.9c0,.24.35,2.87.65,4.22a20,20,0,0,0,1.49,3.58A15,15,0,0,0,31.11,63a17,17,0,0,0,6.34,4.81,11.76,11.76,0,0,0,3.48.86,16.56,16.56,0,0,1,3.61.36,7.33,7.33,0,0,0,3.84-.19c.18,0,.36-.14.55-.16a7.25,7.25,0,0,0,4-1.83c1.42-1.24,2.92-2.4,4.26-3.76a14.57,14.57,0,0,0,3.7-7.24c.16-.71.06-.86-.57-.68-.35.1-.46-.05-.54-.23a.47.47,0,0,1,.12-.45c.27-.11.42-.21.3-.52a4.68,4.68,0,0,1,.37-3.92,5.75,5.75,0,0,0,.56-3.69c-.19-1.06-.07-3.38-1-4.2-.87-1.54-1.15-2.61-2.42-3.68a18.59,18.59,0,0,0-3.72-2.74c-1.71-.79-2-1.42-3.83-1.86A31.28,31.28,0,0,0,44.54,32.84ZM64,50.92A3.75,3.75,0,0,1,63,48.26a3.31,3.31,0,0,0,0-.89c0-.13-.23-.22-.35-.34-.08.11-.23.22-.21.31a5.9,5.9,0,0,1-1.16,4,1.19,1.19,0,0,0-.15.41A3.76,3.76,0,0,0,60.91,53a3.43,3.43,0,0,0,2,2.49,1.59,1.59,0,0,0,1.79-.06.64.64,0,0,1,1,0c.82.57,1.47.14,2.11-.31a.35.35,0,0,0,0-.61c-.76-.58-.14-1.44-.63-2.22a18.69,18.69,0,0,1-1.78-4.81c0-.33-1.21-.39-1.49-.39s-.38.2-.42.47A4.13,4.13,0,0,0,64,49.6,1.76,1.76,0,0,1,64,50.92Zm-.73-9c.06,0,1.13-.05,1.2-.07.12-1.5-.69-3-.67-4.49A40.81,40.81,0,0,0,63.54,30a5.28,5.28,0,0,0-.32-1.54,2.88,2.88,0,0,0-.92-1.1c-.26-.18-.7-.11-1.35-.19,1.42,1.23.78.58.71,2.11a10.62,10.62,0,0,0,.06,3c.57,1.82-.29,2.36.39,4.13-.37.5-.09,1.07,0,1.59a11.24,11.24,0,0,1,0,2,8.55,8.55,0,0,0,0,1.6C62.13,41.88,63.17,41.7,63.29,42Zm2.62,2.8a4.57,4.57,0,0,0-1.71-1.91,2.71,2.71,0,0,0-1.88.08c-.28.3-.77.6-.38,1.2.14.21.08.55.12.84A1.2,1.2,0,0,0,63.81,46c.2-.07,1.37-.22,1.54-.33l-.71-.53c-.32-.26-.58-.59-.26-1,.07-.09.49.1.73.18S65.45,44.53,65.91,44.75Z"/><path class="cls-1" d="M56.83,68.71c-.87.86-1.72,1.72-2.61,2.56a1.91,1.91,0,0,1-.62.24c0-.27-.1-.65,0-.81.71-.79,1.47-1.54,2.23-2.29C56.32,68,56.57,68.32,56.83,68.71Z"/><path class="cls-1" d="M62.11,69.08c0,.26,0,.39,0,.46a6.78,6.78,0,0,1-2.27,2,.44.44,0,0,1-.38-.11.49.49,0,0,1-.06-.43c.69-.73,1.39-1.46,2.13-2.14C61.56,68.77,61.92,69,62.11,69.08Z"/><path class="cls-1" d="M56.44,71.3c0-.15-.2-.4-.15-.45.81-.76,1.64-1.51,2.49-2.24a.41.41,0,0,1,.4,0,.4.4,0,0,1,.06.39,8.7,8.7,0,0,1-1,1.32,8.29,8.29,0,0,1-1.22.89A1.78,1.78,0,0,1,56.44,71.3Z"/><path class="cls-1" d="M65.15,69.31c-.43.41-.84.86-1.31,1.24-.15.11-.46,0-.7,0,0-.18,0-.39,0-.52a4.53,4.53,0,0,1,.7-1C64.35,68.6,64.78,68.73,65.15,69.31Z"/><path class="cls-1" d="M35.27,70.58c-.05.15-.05.28-.11.33a7.2,7.2,0,0,1-.74.48c-.28.16-.41.66-.87.42-.25-.14,0-.59.48-.94a4,4,0,0,1,.92-.46C35,70.38,35.17,70.52,35.27,70.58Z"/><path class="cls-1" d="M66.92,70.36a4,4,0,0,1-.64.29c-.3,0-.51-.11-.46-.42s.17-.3.27-.45Z"/><path class="cls-1" d="M32.06,73.9a3.92,3.92,0,0,1-.16-.66c0-.42.29-.49.59-.4.13,0,.31.35.28.39A6.06,6.06,0,0,1,32.06,73.9Z"/><path class="cls-1" d="M53.54,72.24c-.28.3-.46.47-.62.66s-.27.17-.45,0,0-.47.13-.54A3.72,3.72,0,0,1,53.54,72.24Z"/><path class="cls-1" d="M31.41,71c-.3.24-.5.43-.73.58,0,0-.2-.16-.3-.24A8.22,8.22,0,0,1,31,70.7,2.29,2.29,0,0,1,31.41,71Z"/><path class="cls-1" d="M45.91,74.43l-.5.52c-.08-.14-.24-.29-.24-.43s.16-.28.25-.42Z"/><path class="cls-1" d="M36.74,73.26s0,.1-.06.11c-.2.12-.41.23-.62.34l-.14-.4c.23,0,.46-.1.7-.13C36.65,73.17,36.7,73.23,36.74,73.26Z"/><path class="cls-1" d="M28.17,70.88c.14.2.29.37.27.4a.89.89,0,0,1-.4.3c-.12,0-.27-.08-.41-.13Z"/><path class="cls-1" d="M56.62,72.87l-.36-.26.3-.37c.09.09.23.16.25.26S56.71,72.72,56.62,72.87Z"/><path class="cls-1" d="M37.21,57.07c.13-.43,1.09-4.37,1.69-6.68a.7.7,0,0,0-.27-.6,31.68,31.68,0,0,0-5.41-3.66c-.78-.79-1.41-1.76-.34-2s7.58-.81,7.65-1c.53-1.12.61-2.27,1.16-3.38.36-.71,1.78-2.6,2.28-2.08a23.61,23.61,0,0,1,2.63,2.94c1,1.29.41,2.12,1.59,1.85,1.91,0,4.75,0,7.48-.19.59.2.61.87.07,1.36s-1.37,1.06-2,1.66c-1,1-2,2.1-3,3.19a.87.87,0,0,0,.06.81c1.35,1.73,2.89,5.52,2.84,6.57A1.25,1.25,0,0,1,52,57.13a58,58,0,0,1-6.52-3.07c-.25-.15-.41-.22-.67,0a72.19,72.19,0,0,1-6.41,4.25C37.8,58.54,37.2,58,37.21,57.07Z"/><path class="cls-1" d="M45.74,65.36c0,.12,0,.18,0,.22a10.27,10.27,0,0,1-1.86,3,.62.62,0,0,1-.62,0c-.14-.11-.15-.41-.18-.63s.11-.16.17-.24c.55-.83,1.09-1.66,1.67-2.47.09-.12.36-.14.55-.14S45.68,65.3,45.74,65.36Z"/><path class="cls-1" d="M53.18,64.08a4.89,4.89,0,0,1-2,3.4.4.4,0,0,1-.38,0,.43.43,0,0,1,0-.4,7,7,0,0,0,1.43-2.92c.06-.36.17-.64.53-.52C53,63.66,53.09,64,53.18,64.08Z"/><path class="cls-1" d="M49.19,65.7a5.83,5.83,0,0,1-1.44,2.79c-.14.15-.42.16-.63.24,0-.19-.15-.39-.11-.56a4,4,0,0,1,.35-.8c.31-.62.61-1.25,1-1.84.11-.18.38-.26.57-.39Z"/><path class="cls-1" d="M40.17,68.51a2.46,2.46,0,0,1,.15-.83c.44-.6.93-1.18,1.41-1.75a.5.5,0,0,1,.39-.15c.1,0,.21.2.22.32a1.69,1.69,0,0,1-.87,1.77C41.09,68.08,40.7,68.25,40.17,68.51Z"/><path class="cls-1" d="M54.49,65l1.23-3.15a2.72,2.72,0,0,1-.11,2.64A.8.8,0,0,1,54.49,65Z"/><path class="cls-1" d="M37.64,67.6c-.06-.15-.21-.37-.16-.45.49-.64,1-1.26,1.52-1.87,0,0,.24,0,.34.06s.21.19.19.22a4.5,4.5,0,0,1-1.34,2C38.08,67.59,37.9,67.56,37.64,67.6Z"/><path class="cls-1" d="M58.26,62.57c-.14-.23-.39-.47-.39-.7a4.83,4.83,0,0,1,.25-1.29c0-.14.24-.37.33-.35a.86.86,0,0,1,.45.34,4.54,4.54,0,0,1-.49,1.9Z"/><path class="cls-1" d="M36.18,66c0,.17,0,.31,0,.37a6.79,6.79,0,0,1-.6.6c-.1-.14-.29-.28-.29-.43a.66.66,0,0,1,.61-.73C36,65.76,36.11,65.91,36.18,66Z"/><path class="cls-1" d="M32.06,63.62a2.24,2.24,0,0,1-.58-.35.62.62,0,0,1-.1-.49c0-.06.27-.14.38-.11a1.86,1.86,0,0,1,.62.33.45.45,0,0,1,.09.39C32.42,63.49,32.24,63.53,32.06,63.62Z"/><path class="cls-1" d="M60.72,58.2c-.27.19-.43.37-.61.41s-.3-.16-.45-.25a6.47,6.47,0,0,1,.58-.59A3.11,3.11,0,0,1,60.72,58.2Z"/><path class="cls-1" d="M30.94,61.21c-.13.15-.2.31-.31.36-.4.16-.47-.2-.55-.44,0-.07.19-.3.22-.29A4.76,4.76,0,0,1,30.94,61.21Z"/><path class="cls-1" d="M33.86,64.84a2.45,2.45,0,0,1-.46.23,1.11,1.11,0,0,1-.27-.45c0-.1.1-.23.16-.35Z"/><path class="cls-1" d="M65.28,55c-.2.11-.33.25-.42.23a3.12,3.12,0,0,1-1.8-2.83c0-.17.26-.31.39-.46.14.13.33.24.41.4a1.5,1.5,0,0,1,.07.6,1.55,1.55,0,0,0,.91,1.58C65,54.57,65.1,54.77,65.28,55Z"/></g></svg>