<svg xmlns="http://www.w3.org/2000/svg" viewBox="0 0 90 90"><defs><style>.cls-1{fill:#171717;}</style></defs><g id="Layer_20" data-name="Layer 20"><path class="cls-1" d="M26.59,21.2c0-.42,0-.85,0-1.27a1.29,1.29,0,0,1,.24-.72c.37-.36.91-.57,1.2-1a6.16,6.16,0,0,0,.48-1.43.69.69,0,0,1,.4-.37,3.11,3.11,0,0,1,2.79.75,6.73,6.73,0,0,1,1.62,2.12c.14.38.49.39.71.07a5.59,5.59,0,0,0,.53-1c1-2.63,1.91-3.27,4.6-3.3h.7a2.16,2.16,0,0,1-.31,2.2,17.88,17.88,0,0,0-2.46,6.32,7.28,7.28,0,0,0,0,2.42,11.33,11.33,0,0,1-1.23,6.52,3.14,3.14,0,0,0-.29.54,36.11,36.11,0,0,0-.31,7.12c.34,1.85.45,3.73.65,5.6A28.45,28.45,0,0,0,36.59,49c.43,0,.8,0,1.16,0a1.59,1.59,0,0,1,1.4.8,1,1,0,0,1-.19,1.4c-.36.39-.23.73.08,1.12a2.24,2.24,0,0,1-.22,3.44,1.87,1.87,0,0,0-.54,2.25,8.69,8.69,0,0,1,.44,2.44c.09,1.15.12,2.29.29,3.45.28,1.92.09,3.92.45,5.82A21.5,21.5,0,0,0,40,73.31a8.06,8.06,0,0,1,0,2.56c.66-.17.64-.58.69-1a53.06,53.06,0,0,1,.59-5.45,13.74,13.74,0,0,0,0-2.23c0-.41.14-.82.16-1.24a1.08,1.08,0,0,0-.15-.66c-.11-.15-.36-.2-.53-.31-1.75-1.13-1.17-2.62.23-3.62.37-.26.61-.4.62-.92a9.4,9.4,0,0,0-.75-4.28,3.07,3.07,0,0,1-.23-1.21c0-1.39,0-2.77,0-4.16a16,16,0,0,0-.93-5.35,15.22,15.22,0,0,0-1.31-2.3c-.19-.37-.47-.7-.62-1.08a1,1,0,0,1,0-.77c.11-.16.45-.19.69-.24a4.13,4.13,0,0,1,1.51-.27,2.82,2.82,0,0,1,2.06,1.48c.63,1.16,1.11,2.5,2.41,3.35l1-1.38a3.71,3.71,0,0,1,1.66-1.35c.57-.24.88.05,1.3.08L48.35,41a19.93,19.93,0,0,0-.24-3,3.78,3.78,0,0,1,.94-3.64c.3-.28.18-.48.07-.82a15,15,0,0,1-.44-2.12c0-.16,0-.36,0-.47-.93-1.32-1-3-2.15-4.29a4.6,4.6,0,0,0-1.58-1.46,1.85,1.85,0,0,1-1-1.26,2,2,0,0,0-.41-.81,2.15,2.15,0,0,1-.13-2.87c.15-.21.1-.3,0-.52a1.47,1.47,0,0,1,.14-1.34c.25-.46.47-.78,1-.81.4,0,.11-.25.08-.41a2.08,2.08,0,0,1,.89-2.46c.17-.1.25-.39.31-.61a6.5,6.5,0,0,0,.3-1.36c0-.58.45-.74.86-1s.66,0,1,.07a3.11,3.11,0,0,1,1.88,1.06c.48.5.94,1,1.55,1.66.22-.42.36-.71.5-1A17.6,17.6,0,0,1,53,10.89a5.62,5.62,0,0,1,1.77-1.73,2.44,2.44,0,0,1,2.78,0,.74.74,0,0,1,.29,1.09c-.32.53-.63,1.07-.94,1.62A5.91,5.91,0,0,0,56,14.64a5.27,5.27,0,0,1-.22,1.7,4.79,4.79,0,0,0,0,1.88A10.47,10.47,0,0,1,56,19.29a18.42,18.42,0,0,0,.51,3.23,5,5,0,0,1,0,1.72A17.34,17.34,0,0,0,56,29.05a4.86,4.86,0,0,0,.16,1.08c.35,1.08.74,2.15,1.13,3.21.12.32.19.8.74.43.38.4,1.08.8,1.09,1.2,0,.86.59,1.44.76,2.2.33,1.4.82,2.75,1.22,4.14a39.73,39.73,0,0,1,1.36,4.59,5.82,5.82,0,0,0,.78,1.56c.17-.28.46-.61.4-.7A1.78,1.78,0,0,1,64,44.62a2.58,2.58,0,0,1,2-.83,2.37,2.37,0,0,0-1-1.69,7.51,7.51,0,0,1-2-3.46A9.23,9.23,0,0,1,62.77,36a.55.55,0,0,1,.11-.28c.3-.57,1-.54,1.37-.92s0-1,.58-1.38c.21-.13.46-.21.68-.34s.41-.22.42-.33a2.17,2.17,0,0,1,2.18-2.32c.21-.59-.21-1.35.44-1.65a2.41,2.41,0,0,1,2.27.07,4.47,4.47,0,0,1,1.18,1,10.9,10.9,0,0,1,.9,1.47c.39.66.61.68,1.06.11.59-.75,1.19-1.48,1.79-2.21,1.09-1.31,3.11-1.09,4.52-.45a1.16,1.16,0,0,1,.44,1.86A29.66,29.66,0,0,1,78.94,33a11.32,11.32,0,0,0-2.48,5.63A14.58,14.58,0,0,1,75,43l-.84,1.66.69.21a.86.86,0,0,1,.66.95c0,2,0,4.05,0,6.08,0,.79-.18.87-1.53,1-.13,1.42-.25,2.87-.39,4.32,0,.52-.16,1-.24,1.54-.13.87-.32,1.74-.38,2.62a5.09,5.09,0,0,1-.75,2.33c-1.44,2.43-3.12,4.68-4.75,7-.15.21-.27.45-.47.77-.58-2.8-1.16-5.51-1.71-8.23-.43-2.13-.93-4.23-1.45-6.34-.36-1.44-.62-2.94-.87-4.43a69.08,69.08,0,0,0-1.85-7c-.46-1.64-1-3.27-1.31-4.94s-1-3.24-1.51-4.89a1.84,1.84,0,0,0-1.26,1.85c-.06.9-.63,1.54-.77,2.38-.1.57-.66.65-1.08.22a11.69,11.69,0,0,1-1.1-1.34c-.86-1.21-.85-1.26-2.24-1.21A6.43,6.43,0,0,1,49.13,37c0,.06-.14.16-.12.22.44,1.83,0,3.78.82,5.55a1.8,1.8,0,0,1,.11.77,2.33,2.33,0,0,0,.79,2,1.76,1.76,0,0,1,.55,1.09,1.65,1.65,0,0,0,.64,1,1.66,1.66,0,0,1,.89,1.67,1.11,1.11,0,0,0,.41,1,1.3,1.3,0,0,1,.58,1.06,2,2,0,0,1-.54,1.58c-1,.84-.85,1.82-.58,2.87a4.15,4.15,0,0,1,.14.61c.11,1.78.11,3.59.36,5.35a28.36,28.36,0,0,0,.54,3.87c.26.93.07,2,.34,3A17,17,0,0,1,54.41,72c.06,1.12,0,2.25.05,3.36,0,.73-.31,1-1,1.12-.12-1.85-.2-3.68-.36-5.52-.1-1.13-.33-2.26-.5-3.39a5.1,5.1,0,0,1-.11-.77,24.06,24.06,0,0,0-.64-5.28c0-.26,0-.53,0-.8-.12-1.62-.26-3.24-.39-4.86-.89.29-.87,1.46-1.78,1.68-.12.61-.27,1.21-.37,1.82,0,.32,0,.64,0,1,0,.79,0,1.48,1,1.73.19.05.32.27.49.4.85.66,1,1.27.45,2.12a2,2,0,0,1-.65.69c-1,.42-.95,1.21-.94,2.07,0,3.94,0,7.89,0,11.84a12,12,0,0,1,0,1.59c0,.21-.3.38-.47.56a2.47,2.47,0,0,1-.42-.63c-.07-.3,0-.64,0-1a6.58,6.58,0,0,1-.23-1.84,3,3,0,0,0,0-1.63c-.13-.38.23-.9.23-1.35,0-2.77,0-5.55,0-8.32,0,0-.06-.08-.19-.24a14.86,14.86,0,0,1-5.73-.65c-.24,1.61-.29,3.15-.55,4.62s0,2.92-.48,4.36c-.28.91-.07,2-.38,2.94s-.46,1.79-.72,2.68a.38.38,0,0,1-.71.14,5.3,5.3,0,0,1-1.46-3.19,13.72,13.72,0,0,0-.29-1.68c-.23-1.39-.43-2.77-.66-4.16-.19-1.17-.44-2.34-.6-3.52a12.9,12.9,0,0,1,0-1.76c0-1.33,0-2.66,0-4a2.33,2.33,0,0,0-1.7-2.38c-.68-.21-1.43-.81-2.2-.14a11,11,0,0,1-4-.42c-.77-.23-1.1,0-1,.8a10.43,10.43,0,0,0,.31,1.19,36.78,36.78,0,0,1,.69,5.92,42.27,42.27,0,0,0,.52,5,25.79,25.79,0,0,1,.05,4.41H27.71c-.15-.93-.29-2-.47-3a19.5,19.5,0,0,0-1.41-4.59c-.36-.8-1-1-1.59-.37s-1.12,1-1.92.43c-.1-.07-.29,0-.44,0a15.94,15.94,0,0,1-1.69.22,3,3,0,0,0-1.66.36,2.06,2.06,0,0,1-2.16,0v2.32A4.11,4.11,0,0,1,15,69.19a25.33,25.33,0,0,0-.73-3.81c-.24-1.1-.55-2.2-.8-3.3A1,1,0,0,1,13.89,61c.34-.26.27-.53,0-.8s-.35-.43-.57-.55c-1.5-.81-2.29-2.3-3.43-3.46s-1.12-1.56-.43-2.91c.17-.33.5-.67.47-1a2.42,2.42,0,0,1,1-2.18,1.29,1.29,0,0,0,.27-.69,5.1,5.1,0,0,1,0-.79c.21-.65.9-1,1.18-1.55s0-1.34.39-2a1.36,1.36,0,0,1,2.23-.4,25.35,25.35,0,0,1,2.37,2.38c.42.53.66.48.94-.2a15.79,15.79,0,0,1,1.46-3.41,7,7,0,0,1,1.08-1.33,2.85,2.85,0,0,1,2.57-.37,2,2,0,0,1,1.1,1.1A1.42,1.42,0,0,1,24.31,44,11.41,11.41,0,0,0,23,47.14a4.32,4.32,0,0,0-.29,1.53,2.44,2.44,0,0,1-.26,1.54.78.78,0,0,0,0,.62c.45,1.06.37,2.23.74,3.33a10,10,0,0,1,.06,4.39,5.62,5.62,0,0,1,.78.23.93.93,0,0,1,.67.91,23.08,23.08,0,0,0,.62,3,.78.78,0,0,0,.19.41c.95.71.78,1.89,1.2,2.81,0,.09.11.19.09.27-.14.6-.29,1.19-.44,1.79a.19.19,0,0,0,0,.13c.45.75.91,1.5,1.41,2.31a6.5,6.5,0,0,0,0-2.91c-.24-1.28-.41-2.56-.58-3.85a7,7,0,0,0-.3-1.2,11.29,11.29,0,0,1-.32-3.75A1.87,1.87,0,0,0,26,57.19a6.3,6.3,0,0,1-1.64-3.62,4.48,4.48,0,0,1-.07-2.1c.52-2.08,1.37-3,3.56-3.16a8.28,8.28,0,0,0-.19-2.92,2.05,2.05,0,0,1-.07-1.25,17.87,17.87,0,0,0,.26-5.21,27.36,27.36,0,0,0-.37-5.66c-.31-1.43-.56-3.05-2.12-4a3.59,3.59,0,0,1-1.2-1.79,5.77,5.77,0,0,0-.68-1.71c-.36-.46.39-2.11,1-2.32.41-.13.44-.31.47-.65.13-1.28.33-1.47,1.61-1.63a8.58,8.58,0,0,1-.37.82c-.45.74-.42,1.24.24,1.76a18.58,18.58,0,0,0,1.57,1c.12-.51.21-.9.3-1.3,0-.12.08-.31,0-.38C27.78,22.46,27.18,21.84,26.59,21.2Zm18.9,3.18c0,.43.37.31.63.32l1,1.11c1.13,1.34,1.54,3,2.22,4.59.51,1.16.53,2.43,1,3.58a4.23,4.23,0,0,1,.29,1.52,9.77,9.77,0,0,0,.11,1.06c.85,0,1.59,0,2.34,0,.54,0,1,0,1.28.61a3.25,3.25,0,0,0,1.21,1.23l.6-2.69c.86-.32.49-.84.24-1.36a12.9,12.9,0,0,1-1.63-6.76l.24-.11-.12-.12-.1.24a.41.41,0,0,1-.16,0c-.27-.07-.74.2-.75-.29,0-.21.35-.46.58-.63s.56-.23.81-.4c.09-.06.08-.27.11-.42a1.54,1.54,0,0,1-.37,0,1.31,1.31,0,0,1-.65-.2c-.31-.3.12-.39.24-.57s.1,0,.14-.06c.73-.5.71-.5.5-1.34a2.83,2.83,0,0,1,0-.87,3,3,0,0,0,.07-.88,12.84,12.84,0,0,1-.54-3.85c0-.85,0-1.7,0-2.56a5.52,5.52,0,0,1,.15-1.07,8.74,8.74,0,0,1,1.91-4.19c.3-.36.1-.52-.29-.65a.88.88,0,0,0-.68,0,5.36,5.36,0,0,0-2,1.46c-.37.38-.58.75-.18,1.25.2.25.14.42-.2.58s-.57.4-.6.65c-.13,1-.9,1.78-.7,2.85a.78.78,0,0,1-.77,1c-.4.05-.6.2-.33.6.42.6.06,1-.37,1.35a10,10,0,0,1-1.3.74c.18.3.52.61.52.92a5.44,5.44,0,0,0,.63,2.71.7.7,0,0,1-.22.65c-.27.14-.58.1-.72-.34-.22-.7-.54-1.38-.81-2.06-.34,2-1,2.7-2.69,2.8,0-.47-.4-.28-.65-.32a1,1,0,0,0-.23-.31s-.18,0-.27.07a1.17,1.17,0,0,0,.24.21A1,1,0,0,0,45.49,24.38Zm-33.31,33-.1-.24-.1.11.23.1c.15.47.42.75.95.65l.33.31c.25.23.52.44.76.68.65.66,1.39-.51,2.07.16L15.2,60c.13,1.33,1.52.26,1.9,1.15a3.17,3.17,0,0,0,.36-.23c.24-.23.47-.46.81-.18.5.42.95.12,1.28-.18A2.81,2.81,0,0,1,21,59.84c.93-.19,1.13-.58,1.14-1.6s0-2,0-3a3,3,0,0,0-.09-.94,9.14,9.14,0,0,1-.6-5A21,21,0,0,1,22,46.73a13,13,0,0,1,1.42-3.24c.28-.42.12-.78-.34-.86-1.18-.22-1.85.17-2.57,1.33-.32.49-.35.82.11,1.2.12.09.11.35.16.53-.19,0-.41.06-.55,0-.36-.2-.57-.19-.66.26s-.22.9-.32,1.35c-.14.63-.64.87-1.11,1.22s.12,1.27-.54,1.71A1.43,1.43,0,0,0,17,51.73a1,1,0,0,1-.33,1c-.52.4-.34,1-.28,1.48a4.21,4.21,0,0,0,.52,1.27c.13.25.57.47.09.7-.19.09-.55-.07-.78-.2s-.18-.38-.33-.52-.31-.12-.47-.18a2.54,2.54,0,0,0-.16.49c-.14.85-.25,1.71-1.45,1.75.41.12.77.16,1.12.23.06,0,.12.17.11.25s-.08.25-.14.25c-.47,0-1,.05-1.42.07L13.15,58C13.24,57.15,12.64,57.38,12.18,57.37ZM31.41,21.18l.1.25.12-.12-.25-.1c.06-.93.06-.93,1-1a5,5,0,0,0,.21.69c0,.09.22.12.34.18,0-.14.06-.33,0-.41a4.13,4.13,0,0,0-.55-.45c-.32-.52-.66-1-.93-1.58-.37-.72-1.09-.93-1.71-1.28a.47.47,0,0,0-.43.1.49.49,0,0,0,0,.4A7.61,7.61,0,0,0,31.41,21.18ZM74,45.85a2.56,2.56,0,0,0-1.67-.33c-2.2,0-4.33-.57-6.51-.71-.09,0-.18-.18-.26-.17s-.41.06-.49.18a1.67,1.67,0,0,0-.37.84c0,1,0,1.91,0,2.87a.79.79,0,0,0,.62.81c.79.24,1.59.42,2.38.66,1.31.39,2.78.3,3.93,1.24.13.11.41,0,.62,0s.72.07,1.08.14c.66.15,1.06-.07,1-.72-.16-.93.15-1.82,0-2.73-.1-.72-.23-1.43-.34-2.15l.24-.1-.11-.11ZM37.49,16.41a2.34,2.34,0,0,0-.72.23,5.22,5.22,0,0,0-1.56,2.48,2.77,2.77,0,0,1-.74,1.3,1.11,1.11,0,0,0-.53,1c-.08.78-.21,1.58-1.24,1.71-.12,0-.25.15-.33.26a15,15,0,0,0-2.9,5.27,2.34,2.34,0,0,1-.2.58c-.14.26-.43.23-.58-.07-.06-.13-.17-.34-.11-.42.27-.38.22-.56-.27-.51a4.18,4.18,0,0,1-2.69-.63c-.08-.05-.21,0-.31,0l-.11-.26-.14.13.26.11a7.07,7.07,0,0,0,.91,1.05,4.8,4.8,0,0,1,1.69,2.51,23.53,23.53,0,0,1,.87,5.51c.14,2.45,0,4.9,0,7.35,0,1.71,0,3.41,0,5.11a1.06,1.06,0,0,0,.94,1.19,2.55,2.55,0,0,0,.48,0,13.2,13.2,0,0,0,5-.54,5.72,5.72,0,0,0-.1-1.24c-.67-2.11-.58-4.33-.87-6.49-.15-1.08.2-2.22-.3-3.28a.77.77,0,0,1,0-.63c.44-.74.21-1.55.28-2.33,0-.36.07-.73.11-1.09s.16-1,.21-1.54-.1-.42-.45-.25c-.17.08-.47-.1-.7-.2A2.24,2.24,0,0,1,33,32.4c.15-.11.28-.28.44-.3a6.16,6.16,0,0,1,1,0c.44,0,.52-.28.49-.63a1.45,1.45,0,0,1,.41-1.24c.2-.21.36-.53,0-.64-.62-.22-.27-.48,0-.58.47-.21.74-.39.32-.89-.06-.07-.12-.24-.08-.29.62-.86.1-1.7,0-2.55a2.38,2.38,0,0,1,0-1c.52-1.72.74-3.54,1.73-5.11a1.17,1.17,0,0,0,.13-1c-.48-.64.09-1.19,0-1.77l.24-.1-.11-.11Zm6.83,41.44a4.07,4.07,0,0,1-.94.43,2.3,2.3,0,0,1-.8-.17c0,1.08,0,2,0,3a14.14,14.14,0,0,0,.06,2.79,24.6,24.6,0,0,1,2.75.63,4.22,4.22,0,0,0,2.17.09,1,1,0,0,0,.67-.35c.09-.15-.13-.45-.14-.69a2.46,2.46,0,0,1,0-1.24,3.75,3.75,0,0,0,.22-1.71c0-.85,0-1.7,0-2.55a1.43,1.43,0,0,1,.31-.85,9.75,9.75,0,0,1,1.84-1.74,2.81,2.81,0,0,0,1-1.42l-1,.3a2.47,2.47,0,0,1-2-.24c-.51-.25-.54-.71-.55-1.21,0-.12-.25-.23-.38-.34-.08.11-.23.23-.23.34,0,.74,0,1.46-1,1.82.09-.48.16-.88.23-1.27.22-1.21.36-2.38-.57-3.42-.4-.45-.78-1-.26-1.64-.09-.07-.21-.2-.25-.18-.8.39-1.2-.28-1.27-.74a2.31,2.31,0,0,0-.83-1.28c-.89-.92-.82-1-1.6-2.79a2.73,2.73,0,0,0-1.42-1.59c-.7-.28-1.09.09-1.58.28.52,1.07,1.48,1.83,1.88,3a17.06,17.06,0,0,1,.91,5.19c0,1.65,0,3.3,0,5,0,.83.18,1.67,1.33,1.81C43.4,57.14,43.78,57.53,44.32,57.85ZM64.51,40c1.13,1.46,2.58,2.38,2.43,4.32,1.84.09,3.57.17,5.29.27a1,1,0,0,0,1.09-.69c.3-.88.65-1.74,1-2.63.39-1.18.48-2.44.79-3.63a12,12,0,0,1,3.39-6.07,5.05,5.05,0,0,0,1.31-2,7.21,7.21,0,0,1-.92-.05,2.46,2.46,0,0,0-3.09,1.2c-.18.26-.37.51-.54.77-.51.78-1,1.48-2.18,1.24,0,.33,0,.53,0,.73-.09,1.05-.29,1.29-1.4,1.5-.3.06-.43.12-.55.42a6.65,6.65,0,0,0-.65,1.75c-.09.91-.42,1.8-.59,2.7-.07.37-.13.61-.56.58s-.38-.4-.39-.7,0-.43,0-.64-.63-.36-.8-.17a1.59,1.59,0,0,0-.14.26c-.61,1.27-.74,1.36-2,1.23A8.88,8.88,0,0,1,64.51,40ZM36.7,50.07a1.79,1.79,0,0,1-1.33.89c-.87.16-1.79.18-2.62.38a8.73,8.73,0,0,1-4.34-.07c-.83-.22-.91-.36-.65-1.32,0-.17,0-.48-.06-.54a.65.65,0,0,0-.59,0c-.52.46-1.19.89-1.41,1.48s-.81,1.46-.09,2.22c-.14.79.39,1.38.64,2.06.42,1.1,1,1.94,2.36,1.9a2.8,2.8,0,0,1,.58.19,9.19,9.19,0,0,0,3.25.44,23.21,23.21,0,0,0,2.78-.36,2.73,2.73,0,0,0,1.54-.91,6,6,0,0,0,.7-2.2c.17-1-.2-1.36-1.19-1.34a7.47,7.47,0,0,0-.94.09c-.62.08-1.23.19-1.86.23-.13,0-.29-.2-.43-.3.09-.11.17-.27.28-.31a20.43,20.43,0,0,1,2.38-.64C37.22,51.69,37.35,51.49,36.7,50.07Zm12.31-5c0-.68-.59-.9-.93-1.28a.68.68,0,0,0-1,0,8.3,8.3,0,0,0-2.23,3c-.07.15,0,.54.1.57.46.15,1.11.47,1.4.28a22.12,22.12,0,0,0,2.52-2.14C49,45.37,49,45.18,49,45.08ZM15.68,62.15c-.1.07-.3.13-.34.24a2.16,2.16,0,0,0-.25,1c.27,1.35.6,2.7.95,4a1.87,1.87,0,0,0,.49.77c.55.57.75.41,1.17-.33a1.16,1.16,0,0,0-.06-1.27,9.77,9.77,0,0,1-1-2.74A5.93,5.93,0,0,0,16,62.32C16,62.24,15.81,62.22,15.68,62.15Zm2.56,0-.55.18c.2.21.15.39,0,.66s.1.5.24.7a6.67,6.67,0,0,1,.79,2,4.09,4.09,0,0,0,1.61,2.23.52.52,0,0,0,.8-.4c0-.2.07-.49,0-.61-.94-1.11-1-2.57-1.53-3.83C19.22,62.21,19.27,62.18,18.24,62.14ZM47.57,49.68a9.42,9.42,0,0,0,1.19-.62c.39-.25.68-.66,1.06-.94.91-.67,1-.93.48-1.85-.26-.48-.58-.6-.95-.3-.81.67-1.59,1.35-2.37,2a1.94,1.94,0,0,0-.51.6C46.16,49.23,46.5,49.7,47.57,49.68ZM23.41,67.1a.45.45,0,0,0,0-.12C23,65.2,22.3,63.47,22,61.64c-.1-.61-1-.77-1.63-.37-.09.06-.18.32-.13.39.23.37.52.72.79,1.07-.55.51.1.85.22,1.23a13.26,13.26,0,0,1,.68,2.41,4.61,4.61,0,0,0,.56,1.37.64.64,0,0,0,.55.14c.15,0,.25-.26.34-.43S23.4,67.25,23.41,67.1ZM51.88,49.45c0-1.06-.49-1.41-1.25-.9-1,.71-2,1.5-3,2.31a.6.6,0,0,0,.33,1,1.54,1.54,0,0,0,1.19-.26A8.79,8.79,0,0,1,51,50.76C51.65,50.5,52.06,50.12,51.88,49.45ZM46.24,15.18c-1.06,1.1-1,1.67,0,2.44a6.23,6.23,0,0,0,1,.71,8.86,8.86,0,0,0,1.87.6c.23,0,.57-.24.74-.46s-.11-.48-.27-.64c-.45-.42-1-.81-1.44-1.19S46.93,15.7,46.24,15.18ZM68.32,30.89c-.19.15-.42.34-.67.51-.88.6-1,.83-.48,1.76a5.21,5.21,0,0,0,2.15,2.21c.46.25.61,0,.7-.26A2.31,2.31,0,0,0,69.63,33ZM12,49.05a5.62,5.62,0,0,0,.54,1.15,7.64,7.64,0,0,0,2.59,1.95.8.8,0,0,0,.71,0,.7.7,0,0,0,.08-.69,10.29,10.29,0,0,0-2.5-3c-.2-.18-.64-.33-.81-.23S12.26,48.71,12,49.05ZM10.4,53.23c-.65,1.44-.57,2,.56,2.66a8,8,0,0,0,2.15.77.93.93,0,0,0,1-1.18,1.25,1.25,0,0,0-.79-.62,3.71,3.71,0,0,1-2-1.1A5.32,5.32,0,0,0,10.4,53.23Zm3.36-8.08a8.52,8.52,0,0,0-.28,1.15,1.1,1.1,0,0,0,.12.74,8.85,8.85,0,0,0,2.85,2.56c.37.16.6,0,.55-.43a4.43,4.43,0,0,0-1.79-3C14.8,45.86,14.37,45.58,13.76,45.15Zm-2.32,5.46c-.16.21-.47.44-.49.69s-.52.78.06,1.23a10.72,10.72,0,0,0,3.53,1.87.5.5,0,0,0,.42,0,.4.4,0,0,0,0-.4,5.31,5.31,0,0,0-.8-1.16c-.76-.72-1.58-1.39-2.38-2.06C11.74,50.68,11.63,50.68,11.44,50.61ZM68.12,37.75a2.3,2.3,0,0,0-.73-2.54A6.78,6.78,0,0,1,66.45,34c-.14-.18-.34-.54-.38-.52a1.58,1.58,0,0,0-.73.49,1.29,1.29,0,0,0-.09,1.57A5.4,5.4,0,0,0,68.12,37.75ZM44,20.42c0,.42-.05.67-.09.91a1.22,1.22,0,0,0,.81,1.48,10.91,10.91,0,0,1,1.67.75.57.57,0,0,0,.92-.18c.21-.35.53-.72,0-1.18C46.37,21.32,45.11,21.15,44,20.42Zm3.2-7.73c.09.67-.75.94-.19,1.53a11.71,11.71,0,0,0,3.39,2.16c.11.05.37,0,.42-.08a.7.7,0,0,0,.12-.56,2.4,2.4,0,0,0-.58-.73c-.55-.48-1.11-.94-1.69-1.38C48.22,13.33,47.77,13.08,47.15,12.69ZM23.41,59.78a2.9,2.9,0,0,0-.85.54.65.65,0,0,0,.15.63c.86.5.28,1.64,1,2.18a.27.27,0,0,1,0,.16c-.27,1.38.83,2.41,1,3.69,0,.36.34.35.58.15s.48-.45.21-.8-.44-.4-.47-.62c-.24-1.84-1.29-3.48-1.33-5.38C23.7,60.17,23.54,60,23.41,59.78Zm1.66-36c-.12.18-.29.38-.41.6-.45.91-.35,1.32.46,1.83a6.18,6.18,0,0,1,1.22.67c.66.66.82-.42,1.29-.3a2.83,2.83,0,0,0-.12-.78,2,2,0,0,0-.54-.57C26.36,24.78,25.73,24.32,25.07,23.82ZM64.2,35.62c-.79.61-.47,1.36-.47,2a1.44,1.44,0,0,0,.54.9,2,2,0,0,0,1.71.58,5.23,5.23,0,0,0,1-.38C66,37.57,64.83,36.86,64.2,35.62Zm7.51-1.51c0-.85,0-1.47,0-2.09a2.56,2.56,0,0,0-1.28-2.16c-.3-.22-.72-.6-1.12-.28s-.09.74.12,1.09.47.91.75,1.33C70.62,32.64,71.09,33.26,71.71,34.11ZM49.94,53.54a3.69,3.69,0,0,0,2.51-1.11,1.54,1.54,0,0,0,.37-1A.47.47,0,0,0,52.1,51c-.82.45-1.63.92-2.42,1.42a2.51,2.51,0,0,0-.67.67c0,.07.06.36.15.39A4,4,0,0,0,49.94,53.54ZM45.31,18.08a3.6,3.6,0,0,0-.59.27c-.57.45-.54.95.09,1.25.82.4,1.69.72,2.52,1.12.36.17.76.33,1,0,.08-.15-.27-.64-.53-.84-.71-.59-1.49-1.1-2.24-1.64A.94.94,0,0,0,45.31,18.08ZM29.2,22.61c.36-.58.79-1,.77-1.34s-.49-.77-.73-1.17-.43-.78-.66-1.21a4.12,4.12,0,0,0-.48.33c-.77.78-.77,1.2-.06,2C28.44,21.66,28.8,22.12,29.2,22.61Zm.22,1.57L29,23.8c0,.09-.13.22-.1.26a1.66,1.66,0,0,0,.38.31S29.34,24.26,29.42,24.18ZM41.36,62.82c0,.19,0,.33,0,.46s.06.08.1.12a3.31,3.31,0,0,0,.14-.41S41.49,62.91,41.36,62.82ZM30.69,22.3s-.06-.09-.09-.09-.07.05-.1.08l.14.1ZM49.9,63.57l-.11-.12-.11.12.16.12Zm-32.1.88-.11.1h.21ZM28.68,24.76l-.11.1.21,0Zm40.9,11.88s0,.07,0,.09,0,.07.08.1l.06-.19Z"/><path class="cls-1" d="M53.14,25.74c-.67,1.06-1.73,1.21-2.71,1.5-.43.13-.94-.07-1.33.32,0,0-.35-.07-.37-.16a1.23,1.23,0,0,1,0-.6c0-.06.15-.12.24-.14a19.9,19.9,0,0,0,3.37-1C52.55,25.61,52.85,25.72,53.14,25.74Z"/><path class="cls-1" d="M32.5,55.76c-1.52-.37-3.23-.34-4.65-1.33a.85.85,0,0,1-.24-.63c0-.09.29-.24.47-.26a1.28,1.28,0,0,1,.61.07,9.82,9.82,0,0,0,7,0,.43.43,0,0,1,.4.06.5.5,0,0,1,.08.43,1.73,1.73,0,0,1-1.33,1.2C34.11,55.5,33.33,55.6,32.5,55.76Z"/><path class="cls-1" d="M66.79,47.65a5.53,5.53,0,0,1-.73.71c-.23.15-1.07-.55-1-.81s.1-.74.64-.77A.92.92,0,0,1,66.79,47.65Z"/></g></svg>