<svg xmlns="http://www.w3.org/2000/svg" viewBox="0 0 90 90"><defs><style>.cls-1{fill:#171717;}</style></defs><g id="Layer_11" data-name="Layer 11"><path class="cls-1" d="M52.1,60.52a12.65,12.65,0,0,1,3.28,1.34c.09-.22.2-.44.28-.66a8.44,8.44,0,0,1,.88-1.91c.87-1.21,1.37-1.55,2.72-1.17,1.14.32,2.41.2,3.44,1a9.31,9.31,0,0,1,2.54.55,2.79,2.79,0,0,1,.89.42c.94.67,1.83,1.43,2.82,2a22.06,22.06,0,0,0,4.48,2.37,2,2,0,0,1,.57.26c1.71,1.17,3.43,2.34,5.13,3.53a6.05,6.05,0,0,1,.68.67c-2,2.9-3.19,6.25-5.27,9.11a3.76,3.76,0,0,0-.44.9,3.25,3.25,0,0,1-2,1.72,1.48,1.48,0,0,1-1.18-.14c-1.51-1-3.26-1.45-4.68-2.56-1.25-1-2.53-1.89-3.81-2.83-1-.77-2.08-1.52-3.12-2.28-.84-.62-1.71-1.21-2.51-1.86a8,8,0,0,1-2.85-4.31c-.07-.28-.13-.43-.46-.46-.66,0-1.31-.16-2-.26-.19,0-.38-.11-.54-.15-.27.51-.53,1-.82,1.54a.94.94,0,0,1-1.83-.4c0-.29,0-.58,0-.84a8.34,8.34,0,0,1-1.56-.57,2.21,2.21,0,0,1-.58-2.86A5.27,5.27,0,0,1,47,61.29a.87.87,0,0,0,.2-1,4.18,4.18,0,0,0-1-1.58c-1.06-.8-2.13-1.59-3.15-2.45a6.67,6.67,0,0,0-2.26-1.48Q40,56.33,39.12,58a5.63,5.63,0,0,1,2.5,2.76,7.6,7.6,0,0,0,.38,1,1.71,1.71,0,0,1-.15,1.77c-.07.14-.26.34-.37.32-.82-.12-1.6.34-2.44.14a2.62,2.62,0,0,0-1.49,0,4.08,4.08,0,0,1-1.61.18,25.78,25.78,0,0,0-3.72.39,5.26,5.26,0,0,1-2.48-.5.7.7,0,0,1-.27-.53c0-1.77.08-3.49,1.34-4.92.12-.13.23-.46.15-.56-.67-.9-.78-2.09-1.57-3-1.29.71-2.76,1-3.95,2a11.11,11.11,0,0,0-4,5.33,7.26,7.26,0,0,0-.38,1.93,7.31,7.31,0,0,1-.51,2.41c-.11.28-.12.68-.41.7s-.91-.07-1-.28c-.38-.82-1.38-1.19-1.51-2.17a6.61,6.61,0,0,1-.14-1c0-1.74-.07-3.48,0-5.21a12.07,12.07,0,0,1,1-4.2,30.41,30.41,0,0,1,3.15-5.49,5.65,5.65,0,0,1,4.7-2.45l.58,0c-.09-.66-.19-1.26-.25-1.86s-.07-1.26-.12-1.88c0-.33-.12-.66-.13-1,0-1.14,0-2.29,0-3.43,0-.66.15-1.32.23-2s-.15-1.35.22-2c.11-.19,0-.5,0-.75a16.09,16.09,0,0,1,.72-4,86.78,86.78,0,0,1,3.15-9.07,26,26,0,0,1,2.91-5.06c.14-.21.26-.43.4-.63.53-.78,1.12-.89,1.75-.22C37,16,38.1,17.18,39.12,18.48a18,18,0,0,1,2.54,5.62A27.93,27.93,0,0,1,43,29.75c.13,1.27.48,2.51.65,3.77.07.47-.2,1-.15,1.45a51.22,51.22,0,0,1,.23,6.55A11.22,11.22,0,0,1,43.47,45c-.09.26-.07.59.41.58a3.07,3.07,0,0,1,1.8.75c.79.6,1.68,1.09,2.41,1.76A12.32,12.32,0,0,1,51.86,55a18.79,18.79,0,0,1,.24,3.25C52.12,59,52.1,59.74,52.1,60.52ZM42.94,49.17A3.33,3.33,0,0,0,45,47.91l-1.83-.77-.26,2-.19.09.1.1ZM41.66,32.9a8.67,8.67,0,0,0,0-1.14,1.52,1.52,0,0,0-.31-.79c-.06-.08-.41.12-.64.13-.42,0-.84,0-1.27,0-.25,0-.51,0-.76,0s-.5.28-.33.65.35.84.57,1.24c.1.19.21.34.57.23a16,16,0,0,1,2.2-.36c0,.81-.66.86-1.19,1a4.76,4.76,0,0,1-1.05.09v3.14c.89-.52,1.64.36,2.47,0V33.37C41.91,33.18,42,32.93,41.66,32.9ZM39.11,54.27a3.8,3.8,0,0,0,.5-.8c.46-1.37.88-2.74,1.31-4.12.09-.26.28-.62.18-.8-.22-.41-.47.1-.74.11a4,4,0,0,0-1.73.2c-.2.09-.57-.09-.81-.23a.62.62,0,0,1-.2-.51c.05-.29.22,0,.34,0,.87,0,1.74-.1,2.6-.19a1.3,1.3,0,0,0,1.09-1c.11-.74.19-1.49.26-2.23a6.26,6.26,0,0,0-.06-.84,9.79,9.79,0,0,1-4.4.51,1,1,0,0,1-.44-.2c-.19-.13-.12-.29,0-.39a1.12,1.12,0,0,1,.46-.14,13.16,13.16,0,0,0,3.37-.26c.43-.12.86-.21,1.22-.3V40.81a6.44,6.44,0,0,1-3.25.46A6.06,6.06,0,0,1,37.52,41a.56.56,0,0,1-.41-.69c.08-.37.37-.27.6-.27a2.18,2.18,0,0,1,.47.16,5.49,5.49,0,0,0,3.6-.15c.3-.12.43-.22.38-.5-.11-.61-.24-1.21-.36-1.81-.61,0-1.2,0-1.79,0-.2,0-.49,0-.57.14a1.09,1.09,0,0,1-1.6.39,1.87,1.87,0,0,0-.75,0c-.72,0-1.44,0-2.16,0-.15,0-.28-.23-.42-.36s-.16-.34,0-.52a3.26,3.26,0,0,1,1-.68c.66-.28,1.33-.07,2-.29a4.67,4.67,0,0,0-.51-2.76c-.51-1-.72-2.14-1.77-2.8a7.78,7.78,0,0,0-1.81,3.68,6.12,6.12,0,0,1-.72,1.7c0,.1-.18.24-.23.22s-.35-.14-.38-.26a2.39,2.39,0,0,1-.09-.84,10.83,10.83,0,0,0,.19-1.09A6.87,6.87,0,0,1,33.81,30c.75-1.08,1.44-1.14,2.57-.45l.1.08c.39.31.74.77,1.19.89a6,6,0,0,0,1.55-.14c.71,0,1.42,0,2.22,0l-.37-2.47c-1.16.23-2.28.47-3.41.66a2.29,2.29,0,0,1-.79-.17,6.08,6.08,0,0,1,.59-.75c.1-.09.32-.06.48-.08.62-.08,1.24-.16,1.85-.26.82-.13,1.05-.48.86-1.3a7.88,7.88,0,0,0-.34-.92c-1.11.33-2.12.65-3.15.93-.2.06-.56.11-.55-.28a.58.58,0,0,1,.28-.45c.6-.26,1.22-.47,1.83-.7.45-.17,1.19.17,1.33-.44.1-.4-.26-.91-.42-1.37a.57.57,0,0,0-.08-.23c-.15-.2-.27-.36-.61-.25a4.35,4.35,0,0,1-2.42.36l.7-.71c.3-.32.7-.2,1.07-.22.56,0,.78-.29.56-.8-.29-.68-.66-1.32-1-1.93-.41.17-.75.29-1.07.43s-.61.29-1,.47c0-1.14.86-1.2,1.48-1.58a7.51,7.51,0,0,0-2.18-2.68,9.48,9.48,0,0,1-.58.84,18.85,18.85,0,0,0-3,5.15,57.35,57.35,0,0,0-2.38,6.86c-.18.72-.45,1.41-.61,2.13s-.21,1.56-.41,2.31S28.4,34.36,28,35c-.06.08.11.3.13.46a4.84,4.84,0,0,1,0,.85c0,.41-.17.81-.17,1.22A59.6,59.6,0,0,0,28.17,45c.14,1.12.16,2.26.3,3.37a20,20,0,0,0,.43,2.18,15.59,15.59,0,0,0,1.42,3.67,25.39,25.39,0,0,1,1.18,2.47A6.4,6.4,0,0,0,32,57.81a.49.49,0,0,0,.63.23,11.9,11.9,0,0,1,3.56-.48,10.35,10.35,0,0,0,1.23-.16c.64-.06.85-.46,1-1.06a5.76,5.76,0,0,1-2.66.14s-.1-.13-.1-.2,0-.19.09-.19c.34,0,.68,0,1-.07a5.68,5.68,0,0,0,1.66-.4,1.69,1.69,0,0,0,.77-1.38Zm33,25c1.88-3.33,4-6.54,6.08-9.75l-1.52-1.07c-.86-.59-1.75-1.13-2.56-1.77A14,14,0,0,0,72,65.38,20,20,0,0,1,67.1,62a2.27,2.27,0,0,0-1.44-.65,14.4,14.4,0,0,1-3.28-.61,19.19,19.19,0,0,0-3.56-1c-.36-.07-.74-.31-1.06-.09a3.18,3.18,0,0,0-.81.94c-.34.55-.6,1.15-.92,1.78a13.41,13.41,0,0,0,1.2,1.15,1.6,1.6,0,0,1,.44,1.62.6.6,0,0,1-.61.54.82.82,0,0,1-.91-.5,5.68,5.68,0,0,0-1.4-1.54c-.35.83-.34.82-.06,1.45a20.72,20.72,0,0,1,1.48,4,.84.84,0,0,0,.37.4l4.27,2.78c.77.49,1.56,1,2.3,1.48A37.64,37.64,0,0,0,69.75,78,25.32,25.32,0,0,1,72.12,79.3ZM29,54.16c0-.15,0-.23,0-.31a18.76,18.76,0,0,1-1.33-3.58,13.74,13.74,0,0,1-.44-2.3.47.47,0,0,0-.65-.51,7,7,0,0,0-4.4,3.37c-.09.19-.2.36-.3.54a22.15,22.15,0,0,0-2.16,4.19A26.66,26.66,0,0,0,19,59.08a18.91,18.91,0,0,0,.1,5.1c0,.14.16.29.26.41a.23.23,0,0,0,.21.08.43.43,0,0,0,.24-.22,1,1,0,0,0,0-.38A7,7,0,0,1,21,60.23a18.07,18.07,0,0,1,1.4-2c1.38-1.58,2.86-3,5.07-3.45A7.89,7.89,0,0,0,29,54.16Zm1.82,8.94a1.83,1.83,0,0,0,.41.06c1.34-.08,2.67-.17,4-.27a.91.91,0,0,0,.45-.19c.2-.15.35-.4.56-.51.44-.21.29.44.6.46h3.68c.32,0,.47-.11.43-.44s-.3-.39-.54-.32-.76.29-1.14.42c0,0-.17-.08-.2-.14s-.05-.26,0-.29a9,9,0,0,1,.85-.5c.62-.34.69-.45.25-1s-1-1.05-1.44-1.59a1.17,1.17,0,0,0-1.11-.44l-2.36.25c-1,.09-1.9.15-2.85.27a1,1,0,0,0-.59.41A5,5,0,0,0,30.78,63.1ZM47.27,49.83l-5.19,4c.55.34,1,.81,1.46.84s.83-.44,1.23-.72c1.25-.87,2.49-1.76,3.72-2.63-.17-.25-.31-.51-.49-.73S47.56,50.14,47.27,49.83ZM49,52l-4.53,3.3.87.65a1,1,0,0,0,1.32,0c.61-.5,1.22-1,1.82-1.52.37-.31,1-.61,1-1S49.18,52.48,49,52Zm-.81,6.25,1.66-1.14a1,1,0,0,0,.42-1.22c-.17-.63-.37-1.25-.58-2-.64,1.38-2,1.93-2.89,2.94Zm-2.48-9.8-2.93,1.94c-.2.14-.49.26-.57.45-.29.75-.52,1.52-.81,2.43,1.17-.95,2.2-1.85,3.29-2.66.65-.49,1.39-.85,2.17-1.33Zm5.57,16.2h1.41c.8,0,1.07-.29,1.36-1.31.1-.38-.08-.65-.73-1a5.5,5.5,0,0,0-.81-.27c-.53-.18-.74-.11-.84.37C51.52,63.17,51.42,63.86,51.28,64.68Zm-2.74-5.55A4.19,4.19,0,0,1,49,60c.11.43.41.34.69.33a.58.58,0,0,0,.62-.62c0-.62,0-1.23,0-2Zm1.07,4.23c0-.47.71-1,0-1.49Zm-1.56.85L48,62.7C47.76,63.35,47.19,63.72,48.05,64.21Z"/><path class="cls-1" d="M33.25,65.71c0,.24.07.49,0,.55A25.49,25.49,0,0,1,28.11,70c-.07,0-.19.08-.23,0a.39.39,0,0,1-.16-.27.49.49,0,0,1,.22-.29C29.68,68.2,31.43,67,33.25,65.71Z"/><path class="cls-1" d="M29.2,66.12a14.23,14.23,0,0,1-4.61,3,.8.8,0,0,1-.36.09.39.39,0,0,1-.31-.13.35.35,0,0,1,.1-.32,4.3,4.3,0,0,1,.72-.48,19.58,19.58,0,0,0,3.39-2.07C28.37,66.06,28.74,65.72,29.2,66.12Z"/><path class="cls-1" d="M38.38,65.93l-3,2.28c-.32.25-.64.52-1,.76a1.61,1.61,0,0,1-.54.27c-.09,0-.23-.06-.32-.13s0-.18,0-.23a10.59,10.59,0,0,1,1.35-1.33c.9-.66,1.86-1.23,2.82-1.81.11-.07.32,0,.48,0Z"/><path class="cls-1" d="M42.5,65.05c-.12.47-.1.75-.23.91A18.58,18.58,0,0,1,39,68.7c-.06,0-.2.06-.23,0s-.17-.22-.15-.31a1.14,1.14,0,0,1,.26-.54c.4-.36.84-.69,1.26-1Z"/><path class="cls-1" d="M25.11,65.93c-1.11.77-2.21,1.54-3.33,2.29-.08.06-.24,0-.48,0a13.31,13.31,0,0,1,3.6-2.62Z"/><path class="cls-1" d="M45.08,66.5a4.66,4.66,0,0,1-.34.81,10.43,10.43,0,0,1-.8,1,1.33,1.33,0,0,1-.38.17c0-.15-.15-.36-.09-.45C43.86,67.43,44.09,66.71,45.08,66.5Z"/><path class="cls-1" d="M48.08,67.22a2,2,0,0,1-1,1.24s-.25-.19-.25-.29a1.78,1.78,0,0,1,1-1.16C47.84,67,48,67.15,48.08,67.22Z"/><path class="cls-1" d="M33.41,70.18c-.26.2-.42.35-.6.46s-.19,0-.28,0a4.57,4.57,0,0,1,.41-.57S33.16,70.1,33.41,70.18Z"/><path class="cls-1" d="M41.25,70.27c-.17.11-.31.24-.33.22a.67.67,0,0,1-.25-.33c0-.1.06-.23.1-.34Z"/><path class="cls-1" d="M43.36,64.5,43,64.16c.07-.07.18-.21.21-.2a3.37,3.37,0,0,1,.46.31Z"/><path class="cls-1" d="M27,70.78c-.12.1-.19.22-.27.22s-.18-.08-.27-.13a1.52,1.52,0,0,1,.26-.3S26.84,70.68,27,70.78Z"/><path class="cls-1" d="M44.74,70.1c-.13.07-.23.15-.31.14s-.14-.13-.21-.2l.31-.23Z"/><path class="cls-1" d="M26.09,65l-.4-.19a3.61,3.61,0,0,1,.35-.33s.24.15.24.24S26.15,64.92,26.09,65Z"/><path class="cls-1" d="M45.28,64.74c-.15.08-.25.17-.33.16a.31.31,0,0,1-.18-.23.3.3,0,0,1,.23-.19C45.08,64.48,45.15,64.61,45.28,64.74Z"/><path class="cls-1" d="M37.9,70l-.22.29-.3-.24c.07-.07.13-.19.21-.2S37.77,69.89,37.9,70Z"/><path class="cls-1" d="M30.4,65.23a1.54,1.54,0,0,1,.07.42c0,.08-.09.15-.14.22a.4.4,0,0,1-.09-.2,3.49,3.49,0,0,1,.05-.44Z"/><path class="cls-1" d="M21.74,70.5c-.06-.09-.14-.16-.13-.2a.59.59,0,0,1,.2-.24s.14,0,.21,0Z"/><path class="cls-1" d="M38.23,51.76c-.61-.1-1.3-.2-2-.34a.49.49,0,0,1-.08-.4.62.62,0,0,1,.75-.3c.72.14,1.43.31,2.15.45.1,0,.22-.11.34-.11s.62-.05.66,0c.18.44-.32.45-.51.51A6.24,6.24,0,0,1,38.23,51.76Z"/><path class="cls-1" d="M39.14,54.24a4.13,4.13,0,0,0-.73.11c-.94.37-1.72-.08-2.69-.4a4.25,4.25,0,0,1,2.5-.43c.39,0,1,0,.89.75Z"/><path class="cls-1" d="M36.54,48.3c-.25.13-.44.32-.6.29a.57.57,0,0,1-.33-.44c0-.16.22-.31.34-.46Z"/><path class="cls-1" d="M35.13,39.78a1.85,1.85,0,0,1,.26.2.5.5,0,0,1,0,.77s-.08,0-.12,0c-.36-.1-.19-.4-.22-.62A1.29,1.29,0,0,1,35.13,39.78Z"/><path class="cls-1" d="M35,54.07c-.08-.21-.16-.32-.14-.41a1.75,1.75,0,0,1,.19-.39c.09.06.26.15.25.18A4.75,4.75,0,0,1,35,54.07Z"/><path class="cls-1" d="M35.1,57c-.16-.23-.29-.34-.26-.39a2.72,2.72,0,0,1,.31-.47c.05.09.15.17.14.25A3.51,3.51,0,0,1,35.1,57Z"/><path class="cls-1" d="M35,23.44c.16-.09.26-.19.34-.17a.3.3,0,0,1,.18.24.31.31,0,0,1-.23.18C35.21,23.69,35.13,23.56,35,23.44Z"/><path class="cls-1" d="M35.87,44l-.23.28c-.08-.08-.25-.2-.23-.25s.17-.23.26-.35Z"/><path class="cls-1" d="M35.23,27.78c-.07-.09-.16-.16-.15-.19a.61.61,0,0,1,.19-.26s.15,0,.22.05Z"/><path class="cls-1" d="M35.29,20.66a1.43,1.43,0,0,0-.08.22c-.05-.05-.13-.1-.13-.15a.74.74,0,0,1,.08-.22Z"/><path class="cls-1" d="M35.1,50.73c.1.06.19.09.2.13a.36.36,0,0,1,0,.22s-.14,0-.14,0S35.1,50.87,35.1,50.73Z"/><path class="cls-1" d="M62.11,66.23l1.71,1C64.73,66,65,65.93,66,66.56a11,11,0,0,0-1,.6c-.36.28-.28.6.15.85s.94.53,1.37.84a.64.64,0,0,0,.9-.06,14.82,14.82,0,0,1,1.36-.86,1,1,0,0,1,.45-.18,1.79,1.79,0,0,1,2.16,1.67,3.32,3.32,0,0,1,0,.89,1.74,1.74,0,0,0,.85,2,.49.49,0,0,1,.26.27,1.28,1.28,0,0,1,.07.69.54.54,0,0,1-.74.3c-.49-.2-1-.66-1.42-.68s-.85.47-1.3.68a2.77,2.77,0,0,1-.94.24.71.71,0,0,1-.49-.3.41.41,0,0,1,.06-.42,7.91,7.91,0,0,1,1.13-.75c.32-.19.32-.32,0-.53-.56-.36-1.11-.74-1.73-1.17-.2.1-.47.26-.76.4a1.94,1.94,0,0,1-2.6-1,1.84,1.84,0,0,1-.25-.94c.12-.8-.35-1.19-.88-1.62S62.09,67,62.11,66.23Zm8.21,4.87a5,5,0,0,0,.07-.89c-.15-1.44-.62-1.67-1.86-.94a1.39,1.39,0,0,0-.19.15c-.3.23-.27.41.09.62Zm-4.24-1.21c-.33-.25-.65-.5-1-.72a1.94,1.94,0,0,0-.43-.12,1.52,1.52,0,0,0,0,.53C65.14,70.43,65.31,70.47,66.08,69.89Z"/><path class="cls-1" d="M37.12,60.33c.41-.91,1.16-.72,1.84-.71,0,0,.13.1.14.17A.24.24,0,0,1,39,60,2.66,2.66,0,0,1,37.12,60.33Z"/><path class="cls-1" d="M35.72,59.83l-.29.23c0-.11-.11-.25-.07-.32s.21-.07.32-.11Z"/><path class="cls-1" d="M34.67,61.91c0,.1.12.19.1.24a.56.56,0,0,1-.22.21s-.14,0-.21-.08Z"/></g></svg>