<svg xmlns="http://www.w3.org/2000/svg" viewBox="0 0 90 90"><defs><style>.cls-1{fill:#171717;}</style></defs><g id="_52w" data-name="52w"><path class="cls-1" d="M17.08,66.74c0-1.38,0-2.75,0-4.13a1.41,1.41,0,0,1,.25-.77.84.84,0,0,0,.11-.38c0-.61.14-1.23-.29-1.79-.1-.14-.06-.39-.06-.6,0-.69,0-1.38,0-2.06,0-.21,0-.47-.06-.6-.56-.75-.28-1.61-.34-2.41s0-1.79,0-2.68a.94.94,0,0,0-.2-.57,1,1,0,0,1-.17-.58c0-.62,0-1.24,0-1.86a1.49,1.49,0,0,0-.28-1,.34.34,0,0,1-.09-.18c0-.21,0-.42,0-.62-.08-.73.19-1.53-.36-2.19,0-.4-.06-.81-.08-1.22A1.76,1.76,0,0,0,15.11,42a.67.67,0,0,1-.1-.38c0-.27,0-.55,0-.82-.06-.74.18-1.52-.33-2.2-.1-.14-.06-.4-.06-.6,0-.83,0-1.65,0-2.48,0-.2,0-.46-.07-.6-.51-.68-.29-1.46-.33-2.2a2,2,0,0,0-.33-1.15.75.75,0,0,1-.05-.4c0-1.59,0-3.17,0-4.76a1.37,1.37,0,0,0-.45-1.09,1.1,1.1,0,0,1-.36-.92,1.33,1.33,0,0,0-.27-1,.65.65,0,0,1-.13-.38c0-.69,0-1.37,0-2.06,0-.11.12-.31.21-.32.54-.08.92-.59,1.54-.48a6.4,6.4,0,0,0,1.45,0,.7.7,0,0,0,.38-.11,1.5,1.5,0,0,1,1-.27l2.28,0a1.68,1.68,0,0,0,1.17-.27c.17-.14.39-.09.59-.09,1.11,0,2.21-.05,3.31-.05a.85.85,0,0,0,.69-.39c.19-.28.28-.62.48-.89s.12-.58.39-.7a3.31,3.31,0,0,0,.72-.38c.05,0,.11-.1.17-.1.62,0,1.24,0,1.86,0a.55.55,0,0,1,.34.21c.34.33.75.6.87,1.12a.44.44,0,0,0,.48.3H36a.71.71,0,0,0,.66-.4c.25-.48.54-.94.75-1.45a.41.41,0,0,1,.32-.2c.55,0,1.11,0,1.65,0s1,.33,1.51.55a1.06,1.06,0,0,1,.6.79.78.78,0,0,0,.2.35.92.92,0,0,0,.68.4c1.66,0,3.31,0,5,0,.12,0,.31-.12.32-.21a3.13,3.13,0,0,1,.42-.93c-.1-.64.32-1,.72-1.39a1,1,0,0,1,.72-.35,3.82,3.82,0,0,0,.83,0c.6-.12,1,.26,1.53.46a1.53,1.53,0,0,1,.73.69,4.53,4.53,0,0,1,.45.91.56.56,0,0,0,.57.46,3,3,0,0,0,.42,0c1,0,2.06,0,3.1,0a.48.48,0,0,0,.46-.32,6.41,6.41,0,0,0,.41-.93,1.44,1.44,0,0,1,.31-.52l1.32-1.3a.94.94,0,0,1,.76-.24,4.28,4.28,0,0,0,.62,0c.59,0,1,.38,1.5.58.52.54,1,1.08,1.57,1.63.16.16.12.38.14.59,0,.47.39.68.76.88a.43.43,0,0,0,.2,0,1.82,1.82,0,0,1,1.35.37c.66-.05,1.15.38,1.7.61.19.08.36.2.55.27a1.05,1.05,0,0,1,.81,1c0,.07,0,.14,0,.2.05.34.39.56.37.94a5.91,5.91,0,0,0,0,1c.07.67-.19,1.4.34,2,0,.27.06.54.07.82a1.6,1.6,0,0,0,.29,1.16.34.34,0,0,1,.09.18.74.74,0,0,1,0,.21c.07.73-.18,1.52.36,2.18,0,.55.07,1.1.09,1.64a2,2,0,0,0,.27,1.18c.24.35.09.8.13,1.21a1,1,0,0,0,.12.59,1.14,1.14,0,0,1,.28.75c0,.55,0,1.1,0,1.66a1.87,1.87,0,0,0,.28,1.17.68.68,0,0,1,.09.39c0,.48,0,1,.07,1.44a.55.55,0,0,0,.13.37c.41.37.1,1,.44,1.34s.18.78.24,1.18c0,.07,0,.16,0,.21.61.79.32,1.72.39,2.59A1.76,1.76,0,0,0,74,46.39a.41.41,0,0,1,.08.19,1.36,1.36,0,0,1,0,.2c.13.87-.24,1.8.36,2.61.07.09,0,.26,0,.4,0,.69,0,1.38,0,2.06a2.08,2.08,0,0,0,.3,1.18,2,2,0,0,1,.12.79c0,.2,0,.42.14.59a1.43,1.43,0,0,1,.28,1c0,.34.06.68.09,1,.44.4.17,1.08.57,1.5a.48.48,0,0,1,.14.37,3.75,3.75,0,0,0,.57,1.93c.17.36.4.7.58,1.07a1.39,1.39,0,0,1,0,1.37c-.22.35-.27.78-.59,1.06a3.36,3.36,0,0,0-.66,1c-.18.36-.59.56-.71,1s-.57.61-.71,1a3,3,0,0,1-.68,1c-.58.59-1.17,1.17-1.72,1.79-.26.3-.35.73-.67,1a6,6,0,0,0-.86.89,1.37,1.37,0,0,1-1.27.51c-.14,0-.32,0-.4,0a2.31,2.31,0,0,1-1.57.37,2.19,2.19,0,0,0-1.38.29c-.13.11-.39.09-.59.1-1.44,0-2.89,0-4.34,0a1.14,1.14,0,0,0-.76.25.82.82,0,0,1-.59.13l-8.89.05a2,2,0,0,0-1.37.28.7.7,0,0,1-.39.08h-3.1a1.07,1.07,0,0,1-.38-.13c-.19-.08-.33-.23-.56-.23H42a.63.63,0,0,0-.39.08,2,2,0,0,1-1.38.28l-3.93,0a1.1,1.1,0,0,0-.75.25.88.88,0,0,1-.59.12c-1,0-1.93,0-2.9,0a2.58,2.58,0,0,0-1.17.3c-.41.2-.94.13-1.31.49-.34,0-.69,0-1,.05a1.14,1.14,0,0,0-.59.11,2,2,0,0,1-1.17.28.87.87,0,0,1-1-.6c-.13-.4-.44-.69-.53-1.1a.41.41,0,0,0-.45-.33l-3.1,0a1,1,0,0,1-1-.88c0-.2,0-.44-.13-.58s-.33.09-.5.13a1.89,1.89,0,0,1-.4.08c-.55,0-1.1,0-1.65,0a1.09,1.09,0,0,1-1.07-1c0-1.38,0-2.76,0-4.14Zm.78-42.41c-.08-.33-.16-.43-.27-.31a.14.14,0,0,0,0,.14.27.27,0,0,0,.32.14,5.63,5.63,0,0,0,0,.58A.19.19,0,0,0,18,25c.09,0,.18,0,.21-.19S18.24,24.46,17.86,24.33Zm0,21.06a.34.34,0,0,0,.4-.34c0-.89,0-1.79,0-2.68a3,3,0,0,0-.42-1.54,5.54,5.54,0,0,0-.33-.51.53.53,0,0,1,0-.57c.2-.39.2-.44,0-.67a1.86,1.86,0,0,0-.31-.26c-.12-.08-.53.07-.53.19,0,.61,0,1.22,0,1.84a.94.94,0,0,0,.14.37,5.32,5.32,0,0,0,.48.88c.26.36.12.63-.11.91a.5.5,0,0,0,0,.57c.08.18.29.36.27.53,0,.53.35.87.48,1.32-.32.07-.4.15-.31.25a.91.91,0,0,0,.3.13c0,.82,0,1.64,0,2.46,0,.24.15.35.34.45.46.24.53.41.3.73a1.19,1.19,0,0,0-.28.74,1.69,1.69,0,0,0,.33,1.15.47.47,0,0,1,0,.56,1.27,1.27,0,0,0-.27.53c0,.75,0,1.5.06,2.25,0,.08.19.19.3.22a.49.49,0,0,1,.43.36.35.35,0,0,1-.08.37c-.26.22-.26.42,0,.67a.61.61,0,0,1,.11.38c0,1.36,0,2.73,0,4.1,0,.2.19.27.39.15s.45-.11.44.08a8.64,8.64,0,0,1,0,1,.39.39,0,0,1-.43.34.28.28,0,0,0-.32.2,9.88,9.88,0,0,0,0,2.43c0,.06.07.12.12.17.29.25.26.6.28.94a.37.37,0,0,0-.43.33c0,.82,0,1.65,0,2.48a1.82,1.82,0,0,1-.11.38,1.44,1.44,0,0,0,.12.88c.14.44.43.46.79.45.2,0,.45-.18.46-.33s0-.55,0-.82A1.27,1.27,0,0,0,20,68.36.42.42,0,0,1,20,68c.17-.37.38-.72.58-1.07a2.83,2.83,0,0,0,.16-.36.34.34,0,0,0,0-.2c-.06-.2-.14-.18-.3-.09-.62.35-.67.34-.91-.18a1.2,1.2,0,0,0,.2,0c.29-.14.18-.49.37-.69s.37-.41.55-.62a.44.44,0,0,0,0-.56,1.41,1.41,0,0,1-.31-1c0-.34,0-.69,0-1,0-.55,0-1.1,0-1.65a1.21,1.21,0,0,0-.26-.76.71.71,0,0,1-.12-.37c0-1.31,0-2.62-.05-3.93a1.06,1.06,0,0,0-.5-.85,2.45,2.45,0,0,0-.55-.23.26.26,0,0,1-.14-.35c.25-.48.44-1,.73-1.44a.48.48,0,0,0-.12-.56c-.18-.19-.11-.36,0-.52a.5.5,0,0,0,.05-.57,1.9,1.9,0,0,1-.29-.75c-.06-.86.24-1.78-.35-2.57.5-.48,0-.67-.26-.95a.48.48,0,0,1-.12-.17.29.29,0,0,1,.11-.34c.15-.14.14-.26-.05-.31a6,6,0,0,0-.61-.05Zm23.85-1.27c.44-.44.87-.88,1.32-1.31a1.37,1.37,0,0,1,.33-.25.34.34,0,0,1,.2,0,1.06,1.06,0,0,1,.77.86,1.49,1.49,0,0,1,0,.21c0,.38.36.58.39.92s.4.55.42.92a2.17,2.17,0,0,0,.14,1,2.37,2.37,0,0,1,.29,1.18c0,.34,0,.68,0,1a.48.48,0,0,0,.54.47h1.44a1,1,0,0,1,.78.6c.11.18,0,.37-.08.57-.22.49-.48,1-.7,1.46A5.4,5.4,0,0,1,45.83,54a.45.45,0,0,1-.39,0c-.3-.16-.59-.32-.91-.46a.9.9,0,0,1-.43-.43,3.57,3.57,0,0,0-1-1.29,4.89,4.89,0,0,1-.8-1.4c-.08-.14.12-.46.29-.47s.55,0,.82,0,.58-.35.93-.4.38-.32.41-.6a1.73,1.73,0,0,0-.39-1.35A2.38,2.38,0,0,0,44,46.27c.08-.59-.41-1-.53-1.52,0-.13-.44-.21-.54-.12l-1.22,1.12c-.1.09-.5,0-.54-.13a2.83,2.83,0,0,0-.82-1.16c-.22-.23-.26-.23-.66,0a1,1,0,0,1-1.48-.6,3.82,3.82,0,0,1,0-.83c0-.37-.35-.58-.37-.93a7.69,7.69,0,0,1,0-.83,1.49,1.49,0,0,0-.3-.95,1,1,0,0,1-.1-.39c0-.13,0-.28,0-.41s-.09-.17-.11-.16a.75.75,0,0,0-.32.13,1.47,1.47,0,0,0-.43.68c-.14.34-.62.23-.83.53a1.22,1.22,0,0,0-.34.72c0,.76,0,1.52,0,2.28a.66.66,0,0,1-.12.38,1.31,1.31,0,0,0-.26,1,1.31,1.31,0,0,1-.48,1.08l-.46.42a.5.5,0,0,1-.57,0,4.19,4.19,0,0,1-.85-.89c-.45-.9-.93-1.8-1.34-2.72.06-.45-.28-.76-.38-1.14a2.36,2.36,0,0,0-.69-1,.63.63,0,0,1-.17-.36c.08-.53-.34-.88-.44-1.34s-.37-.35-.65-.34c-.49,0-.71-.35-1-.67a2.77,2.77,0,0,0-.44-1.34c.11-.53-.32-.88-.44-1.34s-.44-.46-.79-.19a1.9,1.9,0,0,1-1.37.25.3.3,0,0,1-.18-.1l-.86-.88c-.26-.84-.94-1.51-1-2.44,0-.26-.45-.39-.65-.2s-.46.39-.52.62a5.58,5.58,0,0,1-.37,1.16,2.84,2.84,0,0,0,0,1.61c.5.52.3,1.17.37,1.77a.67.67,0,0,0,.1.38A1.75,1.75,0,0,1,22,38.57c0,.41.05.82.08,1.23.48.52.3,1.17.36,1.77a.73.73,0,0,0,.1.39,1.66,1.66,0,0,1,.28,1.17c0,.54.06,1.09.09,1.64.56.73.26,1.59.35,2.4,0,.2,0,.41,0,.62a.7.7,0,0,0,.11.38,1.56,1.56,0,0,1,.27,1c0,.48.05,1,.07,1.44.46.52.31,1.17.37,1.77a.94.94,0,0,0,.11.38,1.61,1.61,0,0,1,.27,1q0,.93,0,1.86a.64.64,0,0,0,.07.4c.46.53.27,1.18.34,1.78a1,1,0,0,0,.12.38,1.46,1.46,0,0,1,.25.76c0,.55,0,1.1,0,1.65a1.06,1.06,0,0,0,.17.58,1,1,0,0,1,.22.56c0,.49,0,1,0,1.45a.85.85,0,0,0,.12.38,1.38,1.38,0,0,1,.25.76c0,.55.07,1.1.1,1.64.45.53.29,1.18.36,1.78a.8.8,0,0,0,.11.38A1.47,1.47,0,0,1,27,69c0,1.24,0,2.48,0,3.72a4.11,4.11,0,0,0,.08.6.29.29,0,0,0,.14.15,5.19,5.19,0,0,0,2,0c.18,0,.34-.26.53-.29a3.24,3.24,0,0,1,1,0c.47.07.74-.34,1.14-.39h.41l2.9,0c.2,0,.46,0,.6-.06.75-.54,1.6-.24,2.41-.33.34,0,.69,0,1,0a.63.63,0,0,0,.38-.11,1.51,1.51,0,0,1,1-.27c1.79,0,3.58,0,5.37,0h3.52a1.68,1.68,0,0,0,1.17-.27.65.65,0,0,1,.39-.1h1.65l7,0a.9.9,0,0,0,.6-.11,1.2,1.2,0,0,1,.76-.25l3.72,0A1.68,1.68,0,0,0,66,70.76a.78.78,0,0,1,.39-.09c.41,0,.82,0,1.24,0a1.14,1.14,0,0,0,.59-.12c.28-.18.62-.28.9-.47a.87.87,0,0,0,.38-.47,1.78,1.78,0,0,0-.13-1.39,1,1,0,0,1-.19-.57c0-.55,0-1.1,0-1.65a1.8,1.8,0,0,0-.38-1.35,2.9,2.9,0,0,0-.43-1.34c-.06-.1,0-.27,0-.41s.17-.46.31-.47l3.52,0a.78.78,0,0,0,.59-.12,1.12,1.12,0,0,1,1-.26,3.25,3.25,0,0,0,1.75-.45c.17-.07.21-.16.14-.28-.16-.31-.28-.62-.46-.91a1.26,1.26,0,0,1-.22-.77,1.43,1.43,0,0,0-.36-1.14c0-.37-.32-.61-.42-.93a2.47,2.47,0,0,1-.05-.82c0-.37-.36-.58-.37-.94a7.5,7.5,0,0,1,0-.82,1.44,1.44,0,0,0-.29-1c-.18-.24-.09-.53-.13-.8a1,1,0,0,0-.12-.59,1.19,1.19,0,0,1-.27-.76c0-1,0-1.93,0-2.89a1,1,0,0,0-.16-.58,1,1,0,0,1-.2-.57c0-.55-.07-1.11,0-1.65a3.28,3.28,0,0,0-.38-1.57,1.75,1.75,0,0,1,0-.61,1.8,1.8,0,0,0-.29-1.17,1.25,1.25,0,0,1-.11-.59,1.45,1.45,0,0,0-.25-1,.87.87,0,0,1-.16-.58c0-.27,0-.6-.12-.8a2.32,2.32,0,0,1-.31-1.38q0-.83,0-1.65a.74.74,0,0,0-.12-.38,1.43,1.43,0,0,1-.25-.76c0-.55-.06-1.09-.1-1.64A1.9,1.9,0,0,1,70,32.65c0-.48,0-1,0-1.45a1.91,1.91,0,0,0-.35-1.35c-.07-.09,0-.27,0-.4,0-.56,0-1.11,0-1.66a1,1,0,0,0-.32-.73,4.47,4.47,0,0,0-.44-.43.84.84,0,0,0-.56-.23c-.34,0-.69,0-1,0a.87.87,0,0,0-.39.1,1.56,1.56,0,0,1-1,.25l-8.48,0-12.82,0c-.27,0-.54,0-.82.06-.66.55-1.45.3-2.18.33-1.17,0-2.35,0-3.52,0a.93.93,0,0,0-.59.11,1.44,1.44,0,0,1-1,.27l-3.72,0c-.2,0-.46,0-.6.08a2.67,2.67,0,0,1-1.79.29c-2.76,0-5.51,0-8.27.05-.62,0-1.24,0-1.86,0-.1,0-.27.17-.27.27,0,.67-.17,1.37.3,2,.11.14.06.4.08.6s0,.68.09,1c0,.16.17.21.32.18a.69.69,0,0,0,.2,0A.24.24,0,0,0,21.1,32a4.28,4.28,0,0,1,1.61-1.81c.07-.06.28,0,.38.06a7.92,7.92,0,0,1,.61.56,1.24,1.24,0,0,1,.38.91,1.17,1.17,0,0,0,.13.8c.3.37.32.9.74,1.21.15.11.21.15.33,0a4.57,4.57,0,0,1,.43-.45,1,1,0,0,1,1.3,0A3.46,3.46,0,0,1,28,34.56c.17.43.49.82.63,1.26s.42.49.77.48a.83.83,0,0,1,.54.25c.38.25.35.73.61,1.05a1.09,1.09,0,0,1,.19.78,1.25,1.25,0,0,0,.31.94,1.47,1.47,0,0,1,.53.86c.51.44.26,1.19.69,1.67a.81.81,0,0,1,.1.39c0,.13,0,.3.05.4.38.57.57,1.23.93,1.81a.19.19,0,0,0,.15,0,1,1,0,0,0,.51-.62,7,7,0,0,0,.06-1c0-.34,0-.69,0-1s.36-.59.36-1,0-.68,0-1a3.19,3.19,0,0,1,0-.62,1.08,1.08,0,0,1,.64-.75c.12-.06.27,0,.41,0,.49-.08.54-.14.55-.66,0-.28,0-.55,0-.83a1,1,0,0,1,.68-.94.38.38,0,0,1,.37.08,8.13,8.13,0,0,1,1,2c0,.63.58,1.1.46,1.75a2.22,2.22,0,0,1,.4,1.56c0,.07,0,.14,0,.21,0,.47.33.72.64,1,.47,0,.72.35,1,.62A6.63,6.63,0,0,0,41.71,44.12ZM56.87,25.59v-.05H68.45a1.07,1.07,0,0,0,.4,0,.5.5,0,0,0,.28-.27c0-.2.1-.47,0-.61a2.36,2.36,0,0,1-.34-1.57c0-.27,0-.55,0-.82a1.11,1.11,0,0,0-.81-.83c-.62,0-1.24,0-1.86,0a1.57,1.57,0,0,0-.76.26.76.76,0,0,1-.39.1.94.94,0,0,0-1,.58,4.86,4.86,0,0,1-1.42,1.72.57.57,0,0,1-.35.18,13.83,13.83,0,0,1-1.44,0c-.14,0-.2-.18-.19-.32s0-.17,0-.2a6.09,6.09,0,0,1,1.22-.69c.39-.2.43-.31.37-.85,0-.21-.16-.27-.4-.18a2.05,2.05,0,0,1-.58.18c-1,0-1.93,0-2.89,0a1.19,1.19,0,0,0-.77.25.84.84,0,0,1-.58.12H53.19a.87.87,0,0,0-.69.38c-.09.1-.23.2-.25.32-.12.74-.76.9-1.28,1.19s-.58.27-1-.22c-.13-.14-.14-.28,0-.31.67-.15,1-.68,1.4-1.16,0,0,0-.13,0-.19s-.05-.3-.2-.32a7,7,0,0,0-2,0c-.53.46-1.18.28-1.78.29l-5,.06a.76.76,0,0,0-.55.24c-.25.23-.48.49-.71.74-.1.6-.57.92-1,1.3a.84.84,0,0,1-.77.18.51.51,0,0,1-.32-.2.45.45,0,0,1,0-.39c.15-.23.36-.41.53-.63a2,2,0,0,0,.22-.34c.07-.12-.11-.51-.24-.51H31.07c-.29,0-.47.26-.64.48s-.19.65-.48.89a10,10,0,0,0-.74.72l-.15.15a1,1,0,0,1-.95.24c-.16,0-.24-.16-.2-.27a4,4,0,0,0,.3-.53c.11-.43.55-.61.71-1a.22.22,0,0,0,0-.16c0-.05-.11-.12-.16-.12h-7a.71.71,0,0,0-.39.11,1.68,1.68,0,0,1-1.17.29,1.16,1.16,0,0,0-.88.44c-.13.14-.13.21,0,.35a.79.79,0,0,1,.23.55c0,.35,0,.69,0,1a1.07,1.07,0,0,0,.91.94c1.8,0,3.59,0,5.38,0,.73,0,1.51.19,2.2-.31.14-.1.4-.05.6-.06l4.55,0c.2,0,.46,0,.6-.07.68-.53,1.46-.3,2.19-.32,1.45,0,2.9,0,4.34,0a.9.9,0,0,0,.6-.11,1.37,1.37,0,0,1,1-.28c.55,0,1.1,0,1.65,0,.21,0,.46,0,.6-.08a2.73,2.73,0,0,1,1.79-.29Zm-31.54,44h0v-.82a8.9,8.9,0,0,1,0-1c0-.45-.26-.77-.37-1.15a3.17,3.17,0,0,1,0-1.23c.06-.52-.28-.9-.39-1.35a2.75,2.75,0,0,1,0-.41,6.43,6.43,0,0,1,0-1.24c.08-.53-.37-.87-.41-1.35s.12-1.23-.33-1.78c-.11-.13-.06-.39-.07-.59s-.05-.68-.1-1-.12-.16-.29-.05c-.35.23-.47.15-.48-.24a1.07,1.07,0,0,1,.21-.77c.09-.1.21-.22.21-.34,0-.75,0-1.51,0-2.27,0-.06-.06-.12-.1-.17a1.3,1.3,0,0,1-.27-.76c0-.41-.06-.81-.09-1.22a1.89,1.89,0,0,1-.34-1.36c0-.35-.23-.42-.51-.53a.4.4,0,0,1-.21-.64c.1-.18.31-.34.31-.51,0-.76,0-1.52,0-2.27a1.62,1.62,0,0,1-.37-1.14,7.25,7.25,0,0,0,0-1,.67.67,0,0,0-.08-.38,2,2,0,0,1-.3-1.38c0-.27,0-.55,0-.82s-.26-.43-.54-.48a.22.22,0,0,1-.15-.13s0-.12,0-.16a1.13,1.13,0,0,0,.29-.74c-.06-.54.1-1.11-.3-1.58a.63.63,0,0,1-.1-.39c0-.61,0-1.23-.07-1.85a.7.7,0,0,0-.1-.38,1.49,1.49,0,0,1-.28-1,1.34,1.34,0,0,0-.29-1c-.14-.17-.09-.39-.12-.59s.06-.56-.13-.79a1.4,1.4,0,0,1-.27-1,4.09,4.09,0,0,0-.07-.6S19,31,18.93,31s-.11.05-.13.1a3.64,3.64,0,0,0-.08,1.61c0,.11.12.25.22.34s.13.21,0,.34a.58.58,0,0,0-.19.35c0,1,0,2.06,0,3.1,0,.13.25.28.47.29a1.84,1.84,0,0,1,.41,0c.1,0,.17.15.26.23s-.1.13-.15.14a1.17,1.17,0,0,0-.71.37c-.23.25-.35.51-.19.72a1.87,1.87,0,0,1,.33,1.16.83.83,0,0,0,.12.59,1.14,1.14,0,0,1,.27.76c0,.48,0,1,0,1.44a1.73,1.73,0,0,0,.3,1,1.29,1.29,0,0,1,.1.59.9.9,0,0,0,.29.54c.11.13.1.2,0,.34-.36.39-.23.6,0,.89a.93.93,0,0,0,.68.4c.18,0,.25.14.17.25a2.6,2.6,0,0,1-.25.33c-.21.24-.21.24-.12.82a4.09,4.09,0,0,1,.07.6c0,1.65,0,3.3.05,5a2.07,2.07,0,0,0,.05.61.49.49,0,0,0,.3.24c.2.06.37.12.43.35a.38.38,0,0,1-.1.38c-.09.11-.22.22-.23.34,0,.54,0,1.08,0,1.63.43.45.31,1,.33,1.56s0,1,0,1.45a.63.63,0,0,0,.11.38,1.5,1.5,0,0,1,.27,1c0,2.69,0,5.37,0,8.06a1.46,1.46,0,0,1-.25.76.72.72,0,0,0-.1.38c0,.42,0,.83,0,1.24,0,.11.16.28.25.28,1,0,2.07,0,3.1,0,.18,0,.35-.26.35-.43C25.33,70.84,25.33,70.22,25.33,69.6ZM23.89,22.26h0c.48,0,1,0,1.44,0a13,13,0,0,1,1.65,0c.53.06.87-.39,1.36-.38a4.51,4.51,0,0,0,.82,0c.11,0,.28-.16.29-.26a8.85,8.85,0,0,0,0-1,.43.43,0,0,0-.62-.3,6.42,6.42,0,0,0-.61.56c-.13.12-.22.16-.33.06a1,1,0,0,0-.74-.31l-3.5.07a.4.4,0,0,0-.39.39,1,1,0,0,1-.48.64c-.15.14-.24.13-.29-.07a2.79,2.79,0,0,1-.07-.4.64.64,0,0,0-.86-.56c-.33.08-.56.39-.93.37s-.69,0-1,0c-.89,0-1.78,0-2.68,0a1.1,1.1,0,0,0-.89.43c0,.05-.12.15-.11.16s.17.2.26.2c.55.05,1.1.07,1.65.08a.43.43,0,0,1,.44.34c0,.22.17.4.37.42.41,0,.83,0,1.24,0,.23,0,.38-.14.55-.23a1,1,0,0,1,.37-.15Zm-8.19,3.3h-.18c-.35,0-.53.19-.53.48a6.31,6.31,0,0,1,0,1.23c-.11.54.46.84.4,1.34a.81.81,0,0,0,.27.73,4.4,4.4,0,0,1,.42.45c.09.12,0,.24-.14.28s-.42.11-.48.31a1.06,1.06,0,0,0,0,.61c.08.26.31.47.35.72a5.9,5.9,0,0,1,0,1l.06,1.64a1.75,1.75,0,0,1,.37,1.34c0,.28,0,.55,0,.83,0,.47.3.73.62,1,.1.08.5-.07.54-.18a1,1,0,0,0-.21-1.13.43.43,0,0,1-.06-.55c.08-.18.31-.34.32-.51,0-1.44,0-2.88,0-4.32a.33.33,0,0,0-.08-.18,1.39,1.39,0,0,1-.28-1c0-.34,0-.69,0-1a1.28,1.28,0,0,0-.28-.75c-.08-.1,0-.21.09-.34a.64.64,0,0,0,.13-.37c-.05-.4-.36-.71-.48-1.09-.06-.18-.28-.3-.42-.45A.38.38,0,0,0,15.7,25.56Zm23.37-4.14v0h1.24c.13,0,.31-.26.31-.47s0-.27,0-.41a.5.5,0,0,0-.43-.35.94.94,0,0,0-.76.21c-.16.14-.31.21-.5,0a.57.57,0,0,0-.35-.18c-.82,0-1.65,0-2.47,0a.63.63,0,0,0-.37.14.62.62,0,0,1-.9.06,1,1,0,0,0-1.31,0c-.13.11-.21.11-.34,0a.67.67,0,0,0-.36-.19c-.61,0-1.23,0-1.85,0a.17.17,0,0,0-.14.28,1.85,1.85,0,0,1,.28,1,.4.4,0,0,0,.43.34c.34,0,.68,0,1,0a1.82,1.82,0,0,1,1.36-.32c.55,0,1.1,0,1.65,0a.92.92,0,0,0,.55-.24,1,1,0,0,1,1.14,0,.93.93,0,0,0,.56.22C38.24,21.4,38.66,21.42,39.07,21.42Zm7.56-.87-.79-.69a.43.43,0,0,0-.65.23c0,.06,0,.14,0,.2a.33.33,0,0,1-.12.16c-.1.05-.21,0-.24-.19a.49.49,0,0,0-.53-.48c-.69,0-1.37,0-2.06,0a.39.39,0,0,0-.28.25,5.07,5.07,0,0,0,0,1,.41.41,0,0,0,.25.28c.41,0,.82,0,1.24,0a.7.7,0,0,0,.38-.1,1.5,1.5,0,0,1,1-.27c.83,0,1.66,0,2.48,0,.35,0,.43-.25.45-.55,0-.05.08-.11.14-.15s.21,0,.25.17.12.53.49.53h3.29a.42.42,0,0,0,.35-.42,1.41,1.41,0,0,0,0-.41.83.83,0,0,0-.2-.3s-.12.06-.17.11l-.44.43c-.26.23-.52.26-.72.05A1.75,1.75,0,0,0,49,19.77c-.47.06-1,0-1.44,0a.68.68,0,0,0-.35.19C47,20.15,46.85,20.35,46.63,20.55Zm13.5-2.45h0a1.86,1.86,0,0,1,.41,0,3.34,3.34,0,0,0,1.75-.42c.17-.06.21-.16.13-.29l-.5-.87c-.52-.13-.91-.61-1.52-.49a1.25,1.25,0,0,0-.75.25c-.19.2-.39.39-.58.58a1,1,0,0,0-.23,1,.43.43,0,0,0,.27.27C59.45,18.12,59.79,18.1,60.13,18.1Zm.59,2.51v-.05c.48,0,1,0,1.43,0a1.18,1.18,0,0,0,.51-.28.94.94,0,0,0,.23-1.1c0-.15-.18-.19-.32-.19a.4.4,0,0,0-.36.14s.07.11.11.16a1.63,1.63,0,0,1,.11.17c0,.06.07.14,0,.17a.34.34,0,0,1-.36.12c-.28,0-.44-.39-.68-.39a17.86,17.86,0,0,0-2.83.1s-.12.1-.11.11c.1.18.29.33.31.51.06.44.31.56.69.55ZM55.81,21h.82a.93.93,0,0,0,.71-.34c.19-.18.19-.32,0-.49a1.18,1.18,0,0,0-.89-.42,1.06,1.06,0,0,1-.56-.2c-.14-.1-.22-.13-.34,0s-.41.37-.62.54-.49.09-.66-.19-.37-.42-.64-.13a.94.94,0,0,0-.22.75c0,.4.12.49.44.29.15-.1.21-.13.35,0a.87.87,0,0,0,.55.24Zm-5-2.48c.1,0,.44,0,.77-.06a.18.18,0,0,0,.14-.13c0-.12.11-.29.06-.37s-.34-.41-.5-.63c-.43-.58-1-.51-1.65-.46L49,17.4c-.16.17-.11.38-.11.58s.15.53.43.53Zm20.5,48.16c0-1,0-1.86-.09-2.68a.41.41,0,0,0-.39-.39,1.37,1.37,0,0,1-.37-.17c-.33-.16-.47-.06-.45.3,0,.14,0,.32,0,.41a2.12,2.12,0,0,1,.39,1.54c0,.34,0,.68.07,1,.53.58.23,1.31.36,2,0,.09.16.15.25.2a.24.24,0,0,0,.12-.15C71.25,68,71.27,67.21,71.29,66.67Zm1.59-1.3h0V64c0-.06-.07-.11-.1-.17s-.18-.17-.34-.16-.3,0-.33.18a8.18,8.18,0,0,0,0,2.42c0,.17.22.32.35.48a.32.32,0,0,0,.18.1.2.2,0,0,0,.24-.21C72.9,66.19,72.88,65.78,72.88,65.37ZM14.8,22.65h-.2c-.17,0-.46.18-.46.3a4.93,4.93,0,0,0,.12,1.58c.06.15.18.18.34.16s.29,0,.31-.18a1.83,1.83,0,0,1,.47-1.26c.09-.09-.08-.49-.2-.52Zm24.05-4.13h0c.33,0,.67,0,1,0,.1,0,.2-.13.29-.21s-.07-.11-.1-.17c-.3-.52-1-.43-1.35-.82-.08-.09-.44.08-.51.22s-.24.47-.34.72c-.05.1,0,.23.19.25A7.3,7.3,0,0,0,38.85,18.52ZM27.48,19c.27,0,.61,0,.93-.09.16,0,.2-.17.19-.31s-.16-.43-.32-.43H26.87a.26.26,0,0,0-.15.12.61.61,0,0,0-.11.36.38.38,0,0,0,.21.29A4,4,0,0,0,27.48,19Zm46.26,45.1h0a1.77,1.77,0,0,0,0,.4,1.66,1.66,0,0,0,.17.32l.17-.11c.2-.18.39-.35.58-.54s.16-.21.24-.31a.44.44,0,0,0-.27-.61h-.4c-.32,0-.5.18-.5.46ZM18.27,28.52c0,.38,0,.66.06.93a.24.24,0,0,0,.13.15.84.84,0,0,0,.38.06c.18,0,.21-.16.12-.29a1.24,1.24,0,0,1-.26-.75,5.31,5.31,0,0,0-.09-.79c0-.06-.08-.1-.12-.15s-.12.1-.13.16C18.31,28.1,18.29,28.36,18.27,28.52Zm46.94-9.15a2.38,2.38,0,0,0-.37.06.27.27,0,0,0-.19.31.58.58,0,0,0,0,.19c.06.2.16.21.3.07a.5.5,0,0,1,.17-.11s.1-.1.16-.11.47-.07.44-.24S65.42,19.36,65.21,19.37Z"/><path class="cls-1" d="M42.29,57.59c0-.13,0-.27,0-.41a1,1,0,0,1,.32-.72l.73-.74a1.13,1.13,0,0,1,.92-.38c.13,0,.27,0,.41,0A1.48,1.48,0,0,0,45.8,55a.39.39,0,0,1,.39,0,1.58,1.58,0,0,0,1.15.33c.69,0,1.38,0,2.06,0s1.25.16,1.78-.32c.27,0,.54-.07.81-.07h4.74a1.51,1.51,0,0,0,1-.27.8.8,0,0,1,.38-.11c.48,0,1,0,1.45,0,.67,0,1.38.14,2-.32a.7.7,0,0,1,.39-.06h7.64a1.15,1.15,0,0,1,.79.14c.37.28.91.31,1.2.74a2,2,0,0,0,.28.3,1,1,0,0,1,0,1.31c-.35.33-.68.68-1,1a1.26,1.26,0,0,1-.56.21c-.2,0-.41,0-.58.15a1.1,1.1,0,0,1-.76.26c-.55,0-1.1,0-1.65,0a.71.71,0,0,0-.39.1,1.65,1.65,0,0,1-1.16.27l-4.75,0a1.57,1.57,0,0,0-1,.25.74.74,0,0,1-.38.12c-1.72,0-3.44,0-5.16.06a2.37,2.37,0,0,0-1.58.29c-.14.11-.4.08-.6.09-.75,0-1.51,0-2.27,0-.13,0-.31,0-.4,0-.59.49-1.31.28-2,.37-.19,0-.35.2-.54.29a.86.86,0,0,1-1,0,1.44,1.44,0,0,0-1-.27,1.32,1.32,0,0,1-.79-.18,9.31,9.31,0,0,0-1.26-.64,1.15,1.15,0,0,1-.82-1.26v-.21Zm18.18-1.82c0-.25-.14-.38-.32-.25a1.28,1.28,0,0,1-1,.21,1,1,0,0,0-1.12.69c-.14.3-.32.57-.45.88-.06.14.11.47.26.48a1.23,1.23,0,0,0,.78-.07,1.69,1.69,0,0,1,.94-.3.36.36,0,0,0,.35-.17c.18-.35.36-.7.51-1.07A1.06,1.06,0,0,0,60.47,55.77ZM66,55.32h-.79a1,1,0,0,0-.94.64,3.65,3.65,0,0,1-.33.73c-.09.12-.06.25.12.28s.54,0,.81.06a1.22,1.22,0,0,0,1.41-.87,3.92,3.92,0,0,1,.29-.53c.07-.12,0-.23-.15-.27A3.92,3.92,0,0,0,66,55.32Zm-3.65,2.07h.16a.4.4,0,0,0,.42-.34,1.82,1.82,0,0,1,.42-1.12c.09-.12-.07-.49-.2-.52a1.06,1.06,0,0,0-1.12.25l-.56.6a1,1,0,0,0-.17.77.39.39,0,0,0,.39.37ZM51.15,56.16H50.8c-.28,0-.56,0-.64.36s-.56.73-.8,1.13c-.12.19.1.56.34.59a.93.93,0,0,0,.92-.26,4.73,4.73,0,0,0,.66-.76,8.21,8.21,0,0,1,.46-.88.47.47,0,0,0-.16-.11ZM53.49,56c-.16,0-.57.27-.75.71A7.84,7.84,0,0,1,52,57.91a.38.38,0,0,0-.05.16,1.58,1.58,0,0,0,.36.14c.59.08,1-.36,1.47-.55.12-.56.64-.85.9-1.32a.37.37,0,0,0-.16-.12C54.29,56.17,54.1,56.15,53.49,56Zm14.15,1c.16,0,.29,0,.43,0l.2,0c.29,0,.45-.19.47-.53a5.61,5.61,0,0,0,0-.82.41.41,0,0,0-.25-.28,1.26,1.26,0,0,0-.61,0,.47.47,0,0,0-.37.42c-.07.43-.52.61-.7,1,0,0,0,.11.06.13C67.11,57.07,67.39,57,67.64,57Zm-12.15.81a1,1,0,0,0,1.06-.43c.23-.33.28-.75.57-1,.11-.11,0-.5-.17-.52s-.29-.07-.39,0a6.92,6.92,0,0,0-1.42,1.44c-.08.09,0,.5.17.53Zm-6.63-1.65c-.54,0-.57,0-.78.42s-.55,1-.81,1.58a.32.32,0,0,0,.11.36c.14.11.48.11.54,0s.11-.24.17-.35a7.55,7.55,0,0,1,1.06-1.68.4.4,0,0,0,.07-.16ZM45.62,58c0-.27,0-.47,0-.67a.26.26,0,0,0-.11-.16c-.08-.07-.18,0-.3.09a1,1,0,0,0-.32,1.23c.06.15.18.16.33.16s.29,0,.34-.16A3.22,3.22,0,0,0,45.62,58ZM70.1,56.54a1.68,1.68,0,0,0,.36-.24c.13-.11.35-.22.22-.44a1.78,1.78,0,0,0-.42-.4s-.11,0-.15,0a1.28,1.28,0,0,0-.52.56C69.49,56.26,69.72,56.59,70.1,56.54Zm-22.94-.16a.58.58,0,0,0-.13-.14.33.33,0,0,0-.19,0,3.54,3.54,0,0,0-.34.16.38.38,0,0,0,.66,0Zm-3.26.49c0-.15-.14-.2-.23-.14s-.12.07-.13.13.07.5.18.48a.2.2,0,0,0,.12-.12A.74.74,0,0,0,43.9,56.87Z"/><path class="cls-1" d="M30.13,63.2a1.11,1.11,0,0,1-1-.5.87.87,0,0,1,0-1c0-.05.1-.12.15-.13a1.23,1.23,0,0,1,1,.16c.13.11.22.13.35,0s.24-.2.35-.19a1.44,1.44,0,0,0,1.48-1.17c.06-.18.27-.31.25-.54a.44.44,0,0,0,0-.2,1.1,1.1,0,0,0-1.38-.55c-.24.11-.43.34-.73.35a2.59,2.59,0,0,1-2,.4,1.08,1.08,0,0,1-.8-.83,13.77,13.77,0,0,0,0-1.44A1.66,1.66,0,0,1,28.55,56a7.48,7.48,0,0,1,1.09-.56,1.69,1.69,0,0,1,.79-.13,1.62,1.62,0,0,0,.77-.24,1,1,0,0,1,1.41.34c.07.11,0,.21-.08.35-.26.38-.74.33-1.05.6a1.16,1.16,0,0,1-.79.17l-1.24,0a.4.4,0,0,0-.4.37c0,.27,0,.55,0,.82a.83.83,0,0,0,.29.53c.22.26.25.27.48.16a3.1,3.1,0,0,0,.55-.26,2.45,2.45,0,0,1,2-.38,3.93,3.93,0,0,1,.92.41c.31.12.29.43.44.64a1.68,1.68,0,0,1,0,1.92,5.77,5.77,0,0,1-1.57,1.86.33.33,0,0,1-.18.08,2,2,0,0,0-1.15.39C30.68,63.24,30.44,63.18,30.13,63.2Z"/><path class="cls-1" d="M39,56v1.23a.89.89,0,0,1-.32.73c-.39.32-.44.84-.75,1.2-.11.13-.11.21,0,.34a7.94,7.94,0,0,1,.59.57,1,1,0,0,0,.74.28,1.74,1.74,0,0,1,.81.11c.29.17.6.31.87.5a.39.39,0,0,1,0,.38A1.13,1.13,0,0,1,40,62H39a1.51,1.51,0,0,1-1-.29,4.21,4.21,0,0,0-.89-.47.56.56,0,0,0-.57,0c-.57.35-.75.3-1.18-.23a.48.48,0,0,1,0-.57,3.69,3.69,0,0,0,.65-.79,2.33,2.33,0,0,1,.54-.85c.36-.34.37-.88.73-1.22,0-.35.35-.59.43-.91a4.34,4.34,0,0,0,0-1,.4.4,0,0,0-.46-.29c-.42.21-.84.42-1.25.64-.2.1-.26.08-.49-.18s-.21-.31,0-.5a2.79,2.79,0,0,1,1.3-.95,1.75,1.75,0,0,1,1.37-.27,1.09,1.09,0,0,1,.82.82v1Z"/><path class="cls-1" d="M47,62.39c-.26,0-.51-.16-.45-.26a1.44,1.44,0,0,1,.23-.32,1.23,1.23,0,0,1,.33-.23c.13-.07.45.1.5.25s-.06.5-.2.52A2.85,2.85,0,0,1,47,62.39Z"/><path class="cls-1" d="M47.47,64.8a.48.48,0,0,1-.17-.1,3.41,3.41,0,0,1-.37-.48c0-.1.39-.24.73-.19a1.16,1.16,0,0,1,.35.18,2.44,2.44,0,0,1-.23.33A2.51,2.51,0,0,1,47.47,64.8Z"/><path class="cls-1" d="M23.63,71.09a.55.55,0,0,1-.06.18s-.1.13-.13.12a.31.31,0,0,1-.17-.33.35.35,0,0,1,.2-.32s.09.1.12.16A.53.53,0,0,1,23.63,71.09Z"/><path class="cls-1" d="M23.21,63.62c0,.13-.06.3-.17.29s-.2-.18-.17-.31a2,2,0,0,1,.18-.32A1.5,1.5,0,0,1,23.21,63.62Z"/><path class="cls-1" d="M23,60a.41.41,0,0,1,.18.34.39.39,0,0,1-.19.33,1.48,1.48,0,0,1-.17-.33A.31.31,0,0,1,23,60Z"/><path class="cls-1" d="M23.89,68.48s-.1,0-.11-.07,0-.18.13-.16.07.08.11.12Z"/><path class="cls-1" d="M25.91,21.34c0-.05-.12-.1-.11-.15s.08-.08.13-.13l.14.15Z"/><path class="cls-1" d="M17,33.64s-.1.12-.15.12-.1-.09-.14-.14.1-.12.15-.12S16.94,33.59,17,33.64Z"/><path class="cls-1" d="M16.45,31.67s-.1,0-.12-.07,0-.17.13-.16.08.08.12.12Z"/><path class="cls-1" d="M16,28s-.1,0-.12-.07,0-.18.14-.17.08.08.12.12Z"/><path class="cls-1" d="M49.63,20.44a.24.24,0,0,1-.33.13,3,3,0,0,1-.3-.18.38.38,0,0,1,.11-.14c.27-.13.38-.12.49.06A.22.22,0,0,1,49.63,20.44Z"/></g></svg>