<svg width="20" height="20" viewBox="0 0 20 20" fill="none" xmlns="http://www.w3.org/2000/svg">
<circle cx="10" cy="10" r="10" fill="#FAEBE5"/>
<path d="M11.5387 13.5834C12.5173 13.5834 13.4145 13.431 14.0763 13.1761C14.4063 13.049 14.6905 12.8915 14.8966 12.7039C15.1027 12.5161 15.2503 12.2786 15.2503 12C15.2503 11.7214 15.1027 11.4839 14.8966 11.2962C14.6905 11.1085 14.4063 10.951 14.0763 10.8239C13.4145 10.569 12.5173 10.4167 11.5387 10.4167C10.5601 10.4167 9.66289 10.569 9.00116 10.8239C8.67112 10.951 8.38689 11.1085 8.18085 11.2962C7.97471 11.4839 7.82715 11.7214 7.82715 12C7.82715 12.2786 7.97471 12.5161 8.18085 12.7039C8.38689 12.8915 8.67112 13.049 9.00116 13.1761C9.66289 13.431 10.5601 13.5834 11.5387 13.5834Z" fill="#D03F17" stroke="#FAEBE5" stroke-width="0.5"/>
<path d="M11.5387 12.25C12.5173 12.25 13.4145 12.0976 14.0763 11.8427C14.4063 11.7156 14.6905 11.5581 14.8966 11.3705C15.1027 11.1828 15.2503 10.9453 15.2503 10.6666C15.2503 10.388 15.1027 10.1505 14.8966 9.96281C14.6905 9.77517 14.4063 9.61767 14.0763 9.49055C13.4145 9.23566 12.5173 9.08331 11.5387 9.08331C10.5601 9.08331 9.66289 9.23566 9.00116 9.49055C8.67112 9.61767 8.38689 9.77517 8.18085 9.96281C7.97471 10.1505 7.82715 10.388 7.82715 10.6666C7.82715 10.9453 7.97471 11.1828 8.18085 11.3705C8.38689 11.5581 8.67112 11.7156 9.00116 11.8427C9.66289 12.0976 10.5601 12.25 11.5387 12.25Z" fill="#D03F17" stroke="#FAEBE5" stroke-width="0.5"/>
<path d="M11.5387 10.9167C12.5173 10.9167 13.4145 10.7643 14.0763 10.5094C14.4063 10.3823 14.6905 10.2248 14.8966 10.0372C15.1027 9.84944 15.2503 9.61195 15.2503 9.33333C15.2503 9.05471 15.1027 8.81722 14.8966 8.6295C14.6905 8.44186 14.4063 8.28436 14.0763 8.15723C13.4145 7.90234 12.5173 7.75 11.5387 7.75C10.5601 7.75 9.66289 7.90234 9.00116 8.15723C8.67112 8.28436 8.38689 8.44186 8.18085 8.6295C7.97471 8.81722 7.82715 9.05471 7.82715 9.33333C7.82715 9.61195 7.97471 9.84944 8.18085 10.0372C8.38689 10.2248 8.67112 10.3823 9.00116 10.5094C9.66289 10.7643 10.5601 10.9167 11.5387 10.9167Z" fill="#D03F17" stroke="#FAEBE5" stroke-width="0.5"/>
<path d="M11.5387 9.58335C12.5173 9.58335 13.4145 9.43101 14.0763 9.17612C14.4063 9.049 14.6905 8.89149 14.8966 8.70385C15.1027 8.51613 15.2503 8.27864 15.2503 8.00002C15.2503 7.7214 15.1027 7.48391 14.8966 7.29619C14.6905 7.10855 14.4063 6.95104 14.0763 6.82392C13.4145 6.56903 12.5173 6.41669 11.5387 6.41669C10.5601 6.41669 9.66289 6.56903 9.00116 6.82392C8.67112 6.95104 8.38689 7.10855 8.18085 7.29619C7.97471 7.48391 7.82715 7.7214 7.82715 8.00002C7.82715 8.27864 7.97471 8.51613 8.18085 8.70385C8.38689 8.89149 8.67112 9.049 9.00116 9.17612C9.66289 9.43101 10.5601 9.58335 11.5387 9.58335Z" fill="#D03F17" stroke="#FAEBE5" stroke-width="0.5"/>
<path d="M11.5387 8.24998C12.5173 8.24998 13.4145 8.09764 14.0763 7.84275C14.4063 7.71562 14.6905 7.55812 14.8966 7.37048C15.1027 7.18276 15.2503 6.94527 15.2503 6.66665C15.2503 6.38803 15.1027 6.15054 14.8966 5.96281C14.6905 5.77517 14.4063 5.61767 14.0763 5.49055C13.4145 5.23566 12.5173 5.08331 11.5387 5.08331C10.5601 5.08331 9.66289 5.23566 9.00116 5.49055C8.67112 5.61767 8.38689 5.77517 8.18085 5.96281C7.97471 6.15054 7.82715 6.38803 7.82715 6.66665C7.82715 6.94527 7.97471 7.18276 8.18085 7.37048C8.38689 7.55812 8.67112 7.71562 9.00116 7.84275C9.66289 8.09764 10.5601 8.24998 11.5387 8.24998Z" fill="#D03F17" stroke="#FAEBE5" stroke-width="0.5"/>
<path d="M11.5387 6.91667C12.5173 6.91667 13.4145 6.76432 14.0763 6.50943C14.4063 6.38231 14.6905 6.22481 14.8966 6.03717C15.1027 5.84944 15.2503 5.61195 15.2503 5.33333C15.2503 5.05471 15.1027 4.81722 14.8966 4.6295C14.6905 4.44186 14.4063 4.28436 14.0763 4.15723C13.4145 3.90234 12.5173 3.75 11.5387 3.75C10.5601 3.75 9.66289 3.90234 9.00116 4.15723C8.67112 4.28436 8.38689 4.44186 8.18085 4.6295C7.97471 4.81722 7.82715 5.05471 7.82715 5.33333C7.82715 5.61195 7.97471 5.84944 8.18085 6.03717C8.38689 6.22481 8.67112 6.38231 9.00116 6.50943C9.66289 6.76432 10.5601 6.91667 11.5387 6.91667Z" fill="#D03F17" stroke="#FAEBE5" stroke-width="0.5"/>
<path d="M8.46157 16.25C9.44015 16.25 10.3374 16.0976 10.9991 15.8427C11.3292 15.7156 11.6134 15.5581 11.8194 15.3705C12.0256 15.1828 12.1731 14.9453 12.1731 14.6666C12.1731 14.388 12.0256 14.1505 11.8194 13.9628C11.6134 13.7752 11.3292 13.6177 10.9991 13.4905C10.3374 13.2357 9.44015 13.0833 8.46157 13.0833C7.48298 13.0833 6.58574 13.2357 5.92401 13.4905C5.59397 13.6177 5.30974 13.7752 5.1037 13.9628C4.89756 14.1505 4.75 14.388 4.75 14.6666C4.75 14.9453 4.89756 15.1828 5.1037 15.3705C5.30974 15.5581 5.59397 15.7156 5.92401 15.8427C6.58574 16.0976 7.48298 16.25 8.46157 16.25Z" fill="#D03F17" stroke="#FAEBE5" stroke-width="0.5"/>
<path d="M8.46157 14.9167C9.44015 14.9167 10.3374 14.7643 10.9991 14.5094C11.3292 14.3823 11.6134 14.2248 11.8194 14.0372C12.0256 13.8494 12.1731 13.612 12.1731 13.3333C12.1731 13.0547 12.0256 12.8172 11.8194 12.6295C11.6134 12.4419 11.3292 12.2844 10.9991 12.1572C10.3374 11.9023 9.44015 11.75 8.46157 11.75C7.48298 11.75 6.58574 11.9023 5.92401 12.1572C5.59397 12.2844 5.30974 12.4419 5.1037 12.6295C4.89756 12.8172 4.75 13.0547 4.75 13.3333C4.75 13.612 4.89756 13.8494 5.1037 14.0372C5.30974 14.2248 5.59397 14.3823 5.92401 14.5094C6.58574 14.7643 7.48298 14.9167 8.46157 14.9167Z" fill="#D03F17" stroke="#FAEBE5" stroke-width="0.5"/>
<path d="M8.46157 13.5833C9.44015 13.5833 10.3374 13.4309 10.9991 13.1761C11.3292 13.0489 11.6134 12.8914 11.8194 12.7038C12.0256 12.5161 12.1731 12.2786 12.1731 12C12.1731 11.7213 12.0256 11.4838 11.8194 11.2961C11.6134 11.1085 11.3292 10.951 10.9991 10.8239C10.3374 10.569 9.44015 10.4166 8.46157 10.4166C7.48298 10.4166 6.58574 10.569 5.92401 10.8239C5.59397 10.951 5.30974 11.1085 5.1037 11.2961C4.89756 11.4838 4.75 11.7213 4.75 12C4.75 12.2786 4.89756 12.5161 5.1037 12.7038C5.30974 12.8914 5.59397 13.0489 5.92401 13.1761C6.58574 13.4309 7.48298 13.5833 8.46157 13.5833Z" fill="#D03F17" stroke="#FAEBE5" stroke-width="0.5"/>
<path d="M8.46157 12.25C9.44015 12.25 10.3374 12.0976 10.9991 11.8427C11.3292 11.7156 11.6134 11.5581 11.8194 11.3705C12.0256 11.1828 12.1731 10.9453 12.1731 10.6666C12.1731 10.388 12.0256 10.1505 11.8194 9.96281C11.6134 9.77517 11.3292 9.61767 10.9991 9.49055C10.3374 9.23566 9.44015 9.08331 8.46157 9.08331C7.48298 9.08331 6.58574 9.23566 5.92401 9.49055C5.59397 9.61767 5.30974 9.77517 5.1037 9.96281C4.89756 10.1505 4.75 10.388 4.75 10.6666C4.75 10.9453 4.89756 11.1828 5.1037 11.3705C5.30974 11.5581 5.59397 11.7156 5.92401 11.8427C6.58574 12.0976 7.48298 12.25 8.46157 12.25Z" fill="#D03F17" stroke="#FAEBE5" stroke-width="0.5"/>
</svg>
