<svg width="32" height="32" viewBox="0 0 32 32" fill="none" xmlns="http://www.w3.org/2000/svg">
<circle cx="16" cy="16" r="16" fill="#F8F8F8"/>
<path d="M11.1 11C11.3 10.4 11.7 9.9 12.1 9.4C12.5 9 13 8.6 13.7 8.4C14.3 8.1 14.9 8 15.7 8C16.7 8 17.5 8.1 18.1 8.4C18.7 8.7 19.3 9 19.7 9.4C20.1 9.8 20.4 10.2 20.6 10.7C20.7 11.1 20.8 11.6 20.8 12C20.8 12.7 20.7 13.2 20.5 13.6C20.4 14 20.2 14.4 19.9 14.7C19.7 15 19.4 15.2 19.1 15.4C18.8 15.7 18.5 15.9 18.2 16.1C17.9 16.3 17.7 16.5 17.5 16.8C17.3 17.1 17.2 17.4 17.1 17.8C17.1 17.8 17.3 18.6 15.7 18.6C14.4 18.6 14.4 17.7 14.4 17.7C14.4 17.1 14.6 16.6 14.7 16.2C14.9 15.8 15.1 15.5 15.3 15.2C15.5 14.9 15.8 14.7 16.1 14.5C16.4 14.3 16.6 14.1 16.9 13.9C17.1 13.7 17.3 13.5 17.5 13.2C17.6 13 17.7 12.6 17.7 12.3C17.7 11.7 17.5 11.2 17.2 10.9C16.8 10.6 16.4 10.4 15.8 10.4C15.4 10.4 15.1 10.5 14.8 10.6C14.6 10.8 14.4 11 14.2 11.2C14.1 11.4 13.9 11.7 13.8 12C13.7 12.3 13.8 13.1 12.1 13C11 13 10.9 11.7 11.1 11ZM17.2 21.4C17.2 22.3 16.5 23 15.6 23C14.7 23 14 22.3 14 21.4C14 20.5 14.7 19.8 15.6 19.8H15.7C16.5 19.8 17.2 20.5 17.2 21.4Z" fill="#504E4B"/>
<path fill-rule="evenodd" clip-rule="evenodd" d="M9.18887 10.4088L9.20261 10.3675C9.51801 9.42134 10.1167 8.6757 10.4823 8.22032C10.5016 8.19627 10.5203 8.17303 10.5382 8.15061L10.6074 8.06411L10.6858 7.98579C11.1776 7.49393 11.9092 6.87708 12.9707 6.53187C13.8833 6.11173 14.7702 6 15.7 6C16.7659 6 17.9592 6.09355 18.9944 6.61115C19.0244 6.62617 19.0559 6.64183 19.0887 6.65815C19.6146 6.91974 20.4772 7.34878 21.1142 7.98579C21.64 8.51156 22.1268 9.13179 22.4569 9.95722L22.5073 10.0832L22.5403 10.2149C22.6473 10.6431 22.8 11.3418 22.8 12C22.8 12.8043 22.6966 13.5749 22.3831 14.2929C22.2115 14.8643 21.9109 15.4652 21.4424 15.9798C21.0741 16.4629 20.6233 16.7876 20.3541 16.9682C19.9683 17.3252 19.5973 17.5723 19.3399 17.7438C19.3295 17.7507 19.3194 17.7574 19.3094 17.7641C19.249 17.8043 19.2304 17.823 19.2269 17.8265C19.2233 17.8301 19.2043 17.8491 19.1641 17.9094C19.1542 17.9242 19.1445 17.9406 19.1292 17.9805C19.1213 18.0009 19.1123 18.0266 19.1017 18.0607C19.1009 18.0708 19.1002 18.0809 19.0993 18.0911C19.0684 18.4627 18.9436 18.9401 18.6029 19.3961C18.982 19.977 19.2 20.6712 19.2 21.4C19.2 23.4046 17.6045 25 15.6 25C13.5954 25 12 23.4046 12 21.4C12 20.5291 12.3011 19.7354 12.8061 19.1163C12.6277 18.8187 12.53 18.5337 12.4758 18.3087C12.4422 18.169 12.4235 18.045 12.4131 17.9439C12.4078 17.893 12.4046 17.8469 12.4026 17.8063C12.4016 17.7859 12.401 17.7669 12.4006 17.7492L12.4001 17.7236L12.4 17.7115L12.4 17.7057L12.4 17.7028C12.4 17.7014 12.4 17.7 14.3959 17.7H12.4C12.4 16.8785 12.6657 16.0203 12.741 15.7771C12.7508 15.7455 12.7573 15.7243 12.7597 15.7149L12.8129 15.5019L12.9111 15.3056C12.9722 15.1835 13.0333 15.0686 13.0937 14.9603C12.7409 15.01 12.382 15.0174 12.0327 14.9993C11.3592 14.9858 10.7112 14.7681 10.1786 14.3285C9.65498 13.8964 9.36838 13.3548 9.21511 12.895C8.9259 12.0273 8.98932 11.1072 9.17693 10.4506L9.18887 10.4088ZM12.1 13C13.576 13.0868 13.6951 12.4952 13.7663 12.1414C13.7771 12.0877 13.7868 12.0395 13.8 12C13.8697 11.7908 13.988 11.5817 14.0872 11.4064C14.1303 11.3303 14.1697 11.2606 14.2 11.2L14.8 10.6C15.1 10.5 15.4 10.4 15.8 10.4C16.4 10.4 16.8 10.6 17.2 10.9C17.5 11.2 17.7 11.7 17.7 12.3C17.7 12.6 17.6 13 17.5 13.2C17.3 13.5 17.1 13.7 16.9 13.9C16.75 14 16.625 14.1 16.5 14.2C16.375 14.3 16.25 14.4 16.1 14.5C15.8 14.7 15.5 14.9 15.3 15.2C15.1 15.5 14.9 15.8 14.7 16.2C14.6764 16.2944 14.6472 16.3944 14.6164 16.5C14.5167 16.8416 14.4 17.2416 14.4 17.7C14.4 17.7 14.4 17.8233 14.4659 17.9787C14.5734 18.2319 14.8562 18.5703 15.6 18.5982C15.6324 18.5994 15.6658 18.6 15.7 18.6C16.6561 18.6 16.9695 18.3143 17.0668 18.0844C17.1324 17.9295 17.1 17.8 17.1 17.8C17.2 17.4 17.3 17.1 17.5 16.8C17.7 16.5 17.9 16.3 18.2 16.1C18.5 15.9 18.8 15.7 19.1 15.4C19.4 15.2 19.7 15 19.9 14.7C20.2 14.4 20.4 14 20.5 13.6C20.7 13.2 20.8 12.7 20.8 12C20.8 11.6 20.7 11.1 20.6 10.7C20.4 10.2 20.1 9.8 19.7 9.4C19.3 9 18.7 8.7 18.1 8.4C17.5 8.1 16.7 8 15.7 8C14.9 8 14.3 8.1 13.7 8.4C13 8.6 12.5 9 12.1 9.4C11.7 9.9 11.3 10.4 11.1 11C10.9 11.7 11 13 12.1 13ZM14.3587 20.3771C14.1334 20.6522 14 21.007 14 21.4C14 22.3 14.7 23 15.6 23C16.5 23 17.2 22.3 17.2 21.4C17.2 21.0473 17.0925 20.7254 16.9136 20.4642C16.636 20.0589 16.1865 19.8 15.7 19.8H15.6C15.0929 19.8 14.6494 20.0222 14.3587 20.3771Z" fill="white"/>
</svg>
