<svg width="20" height="20" viewBox="0 0 20 20" fill="none" xmlns="http://www.w3.org/2000/svg">
<circle cx="10" cy="10" r="9" fill="#189D39" stroke="#189D39" stroke-width="2"/>
<path d="M13.308 11.456C13.308 10.304 12.564 9.548 11.1 9.2L9.504 8.852C9.072 8.756 8.784 8.624 8.616 8.444C8.448 8.264 8.364 8.036 8.364 7.748C8.364 7.016 8.904 6.644 9.996 6.644C10.572 6.644 10.992 6.752 11.28 6.956C11.568 7.172 11.736 7.496 11.808 7.94H13.164C13.092 7.268 12.852 6.716 12.444 6.284C12.024 5.852 11.436 5.588 10.668 5.492V3.836H9.54V5.48C8.688 5.552 8.052 5.816 7.62 6.248C7.188 6.68 6.972 7.22 6.972 7.856C6.972 9.032 7.668 9.788 9.084 10.112L10.728 10.472C11.136 10.568 11.436 10.712 11.628 10.88C11.82 11.048 11.916 11.288 11.916 11.6C11.916 12.416 11.316 12.812 10.116 12.812C9.444 12.812 8.964 12.692 8.652 12.44C8.34 12.188 8.16 11.804 8.112 11.276H6.744C6.816 12.068 7.092 12.704 7.572 13.16C8.052 13.628 8.7 13.904 9.54 13.976V15.728H10.668V13.976C11.496 13.892 12.144 13.628 12.612 13.184C13.068 12.74 13.308 12.164 13.308 11.456Z" fill="white"/>
</svg>
