<svg width="20" height="20" viewBox="0 0 20 20" fill="none" xmlns="http://www.w3.org/2000/svg">
<circle cx="10" cy="10" r="9" fill="#E7F5EB" stroke="#189D39" stroke-width="2"/>
<path d="M12.796 11.083C12.796 10.183 12.247 9.607 11.167 9.364L9.529 9.004C9.106 8.914 8.899 8.698 8.899 8.356C8.899 7.906 9.295 7.672 10.105 7.672C10.573 7.672 10.906 7.744 11.122 7.888C11.338 8.032 11.464 8.266 11.5 8.59H12.724C12.688 8.068 12.499 7.627 12.157 7.285C11.806 6.943 11.32 6.718 10.708 6.628V5.377H9.718V6.61C9.016 6.673 8.494 6.88 8.152 7.231C7.801 7.582 7.63 7.996 7.63 8.482C7.63 8.914 7.756 9.283 8.017 9.571C8.278 9.868 8.647 10.066 9.124 10.165L10.861 10.543C11.095 10.597 11.266 10.678 11.374 10.777C11.473 10.885 11.527 11.02 11.527 11.191C11.527 11.443 11.419 11.632 11.212 11.749C10.996 11.866 10.672 11.92 10.222 11.92C9.7 11.92 9.331 11.848 9.106 11.686C8.872 11.524 8.755 11.272 8.746 10.912H7.513C7.531 11.506 7.729 11.983 8.107 12.343C8.485 12.703 9.025 12.91 9.718 12.973V14.296H10.708V12.973C11.374 12.91 11.887 12.712 12.247 12.379C12.607 12.046 12.796 11.614 12.796 11.083Z" fill="#189D39"/>
</svg>
