<svg width="22" height="22" viewBox="0 0 22 22" fill="none" xmlns="http://www.w3.org/2000/svg">
<path d="M4.00002 0H18C18.2652 0 18.5196 0.105357 18.7071 0.292893C18.8947 0.48043 19 0.734784 19 1V20C18.9944 20.1979 18.9315 20.3899 18.8189 20.5527C18.7064 20.7156 18.549 20.8423 18.3658 20.9174C18.1827 20.9926 17.9817 21.013 17.7872 20.9762C17.5927 20.9394 17.413 20.8469 17.27 20.71L11 14.41L4.71002 20.71C4.57015 20.851 4.39145 20.9472 4.1967 20.9863C4.00195 21.0254 3.79998 21.0055 3.61654 20.9294C3.43309 20.8532 3.27649 20.7241 3.16668 20.5586C3.05688 20.3931 2.99886 20.1986 3.00002 20V1C3.00002 0.734784 3.10537 0.48043 3.29291 0.292893C3.48045 0.105357 3.7348 0 4.00002 0Z" fill="#118383"/>
</svg>
