<svg width="22" height="22" viewBox="0 0 22 22" fill="none" xmlns="http://www.w3.org/2000/svg">
<path d="M20 4.99972H15.8003V4.79974C15.8003 4.43208 15.7279 4.06801 15.5872 3.72833C15.4465 3.38865 15.2403 3.08001 14.9803 2.82003C14.7203 2.56005 14.4117 2.35382 14.072 2.21312C13.7323 2.07242 13.3683 2 13.0006 2H9.00097C8.25843 2 7.5463 2.29497 7.02125 2.82003C6.4962 3.34508 6.20122 4.0572 6.20122 4.79974V4.99972H2.00161C1.86821 4.99171 1.73462 5.01208 1.60968 5.05949C1.48473 5.1069 1.37126 5.18028 1.27676 5.27478C1.18226 5.36928 1.10888 5.48275 1.06147 5.6077C1.01405 5.73265 0.993684 5.86623 1.0017 5.99963V9.29933L10.9008 10.9992L20.9999 9.19934V5.99963C21.0079 5.86623 20.9875 5.73265 20.9401 5.6077C20.8927 5.48275 20.8193 5.36928 20.7248 5.27478C20.6303 5.18028 20.5168 5.1069 20.3919 5.05949C20.2669 5.01208 20.1334 4.99171 20 4.99972ZM7.80108 4.79974C7.80522 4.4828 7.93297 4.18001 8.1571 3.95587C8.38123 3.73174 8.68403 3.604 9.00097 3.59985H13.0006C13.3175 3.604 13.6203 3.73174 13.8445 3.95587C14.0686 4.18001 14.1963 4.4828 14.2005 4.79974V4.99972H7.80108V4.79974Z" fill="#118383"/>
<path d="M12.5006 12.499V13.4989C12.5086 13.6323 12.4883 13.7659 12.4409 13.8908C12.3934 14.0158 12.3201 14.1293 12.2256 14.2238C12.1311 14.3183 12.0176 14.3916 11.8926 14.439C11.7677 14.4865 11.6341 14.5068 11.5007 14.4988H10.5008C10.3674 14.5068 10.2338 14.4865 10.1089 14.439C9.98392 14.3916 9.87045 14.3183 9.77595 14.2238C9.68145 14.1293 9.60807 14.0158 9.56065 13.8908C9.51324 13.7659 9.49287 13.6323 9.50089 13.4989V12.299L2.00158 10.6992V18.9984C1.99356 19.1318 2.01393 19.2654 2.06135 19.3903C2.10876 19.5153 2.18214 19.6287 2.27664 19.7232C2.37114 19.8177 2.48461 19.8911 2.60955 19.9385C2.7345 19.986 2.86809 20.0063 3.00149 19.9983H19C19.1334 20.0063 19.267 19.986 19.392 19.9385C19.5169 19.8911 19.6304 19.8177 19.7249 19.7232C19.8194 19.6287 19.8927 19.5153 19.9402 19.3903C19.9876 19.2654 20.0079 19.1318 19.9999 18.9984V10.6992L12.5006 12.199V12.499Z" fill="#118383"/>
</svg>
