<svg width="22" height="22" viewBox="0 0 22 22" fill="none" xmlns="http://www.w3.org/2000/svg">
<g clip-path="url(#clip0_9267_168793)">
<path d="M10.0833 3.66667H6.23334C4.69319 3.66667 3.92312 3.66667 3.33486 3.9664C2.81742 4.23005 2.39672 4.65075 2.13307 5.16819C1.83334 5.75645 1.83334 6.52652 1.83334 8.06667V15.7667C1.83334 17.3068 1.83334 18.0769 2.13307 18.6651C2.39672 19.1826 2.81742 19.6033 3.33486 19.8669C3.92312 20.1667 4.69319 20.1667 6.23334 20.1667H13.9333C15.4735 20.1667 16.2436 20.1667 16.8318 19.8669C17.3493 19.6033 17.77 19.1826 18.0336 18.6651C18.3333 18.0769 18.3333 17.3068 18.3333 15.7667V11.9167M7.33331 14.6667H8.86831C9.31673 14.6667 9.54093 14.6667 9.75193 14.616C9.93899 14.5711 10.1178 14.497 10.2819 14.3965C10.4669 14.2831 10.6254 14.1246 10.9425 13.8075L19.7083 5.04167C20.4677 4.28228 20.4677 3.05106 19.7083 2.29167C18.9489 1.53228 17.7177 1.53227 16.9583 2.29166L8.19247 11.0575C7.87539 11.3746 7.71685 11.5331 7.60347 11.7181C7.50295 11.8822 7.42888 12.061 7.38397 12.2481C7.33331 12.4591 7.33331 12.6833 7.33331 13.1317V14.6667Z" stroke="#118383" stroke-width="2" stroke-linecap="round" stroke-linejoin="round"/>
</g>
<defs>
<clipPath id="clip0_9267_168793">
<rect width="22" height="22" fill="white"/>
</clipPath>
</defs>
</svg>
