<svg width="22" height="22" viewBox="0 0 22 22" fill="none" xmlns="http://www.w3.org/2000/svg">
<path d="M8.34916 2.96464C9.41508 2.96464 10.4571 3.2815 11.3433 3.87517C12.2296 4.46883 12.9204 5.31262 13.3283 6.29985C13.7362 7.28707 13.8429 8.37339 13.635 9.42142C13.427 10.4694 12.9137 11.4321 12.16 12.1877C11.4063 12.9433 10.446 13.4579 9.40057 13.6663C8.35514 13.8748 7.27151 13.7678 6.28673 13.3589C5.30195 12.95 4.46024 12.2575 3.86805 11.369C3.27586 10.4805 2.95978 9.43596 2.95978 8.36739C2.95978 6.93449 3.52759 5.56028 4.53829 4.54707C5.549 3.53386 6.91981 2.96464 8.34916 2.96464ZM8.34916 1C6.89563 1 5.47475 1.43209 4.26619 2.24163C3.05762 3.05117 2.11566 4.2018 1.55942 5.54801C1.00318 6.89423 0.857646 8.37557 1.14122 9.8047C1.42478 11.2338 2.12472 12.5466 3.15252 13.5769C4.18032 14.6073 5.48981 15.3089 6.91541 15.5932C8.34101 15.8775 9.81867 15.7316 11.1616 15.174C12.5044 14.6164 13.6522 13.6721 14.4598 12.4605C15.2673 11.2489 15.6983 9.82453 15.6983 8.36739C15.6983 7.39989 15.5082 6.44187 15.1389 5.54801C14.7696 4.65416 14.2282 3.84198 13.5458 3.15786C12.8634 2.47373 12.0532 1.93106 11.1616 1.56081C10.2699 1.19056 9.31426 1 8.34916 1Z" fill="#807569"/>
<path d="M13.8659 13.4951L12.788 12.4047L11.3966 13.7701L12.4843 14.8507C12.6463 14.813 12.8153 14.8174 12.9752 14.8633C13.1351 14.9091 13.2808 14.9951 13.3984 15.113C13.5161 15.231 13.6018 15.377 13.6476 15.5373C13.6934 15.6976 13.6977 15.867 13.6601 16.0295L18.5596 21L20 19.6641L15.0418 14.7525C14.8797 14.7901 14.7107 14.7858 14.5508 14.7399C14.3909 14.694 14.2452 14.6081 14.1276 14.4901C14.0099 14.3722 13.9242 14.2262 13.8784 14.0659C13.8326 13.9055 13.8283 13.7361 13.8659 13.5737V13.4951Z" fill="#807569"/>
</svg>
