<svg width="7" height="22" viewBox="0 0 7 22" fill="none" xmlns="http://www.w3.org/2000/svg">
<path fill-rule="evenodd" clip-rule="evenodd" d="M0.139078 8.82842L3.16359 5.64644C3.34919 5.45118 3.65011 5.45118 3.83571 5.64644L6.86022 8.82842C7.04582 9.02369 7.04582 9.34027 6.86022 9.53553C6.67462 9.73079 6.37371 9.73079 6.18811 9.53553L3.77805 7L3.22125 7L0.811192 9.53553C0.625593 9.73079 0.324677 9.73079 0.139077 9.53553C-0.0465218 9.34027 -0.0465218 9.02369 0.139078 8.82842Z" fill="#CBCAC9"/>
<path fill-rule="evenodd" clip-rule="evenodd" d="M6.86056 13.1716L3.83604 16.3536C3.65044 16.5488 3.34953 16.5488 3.16393 16.3536L0.139413 13.1716C-0.0461865 12.9763 -0.0461865 12.6597 0.139413 12.4645C0.325012 12.2692 0.625928 12.2692 0.811527 12.4645L3.22159 15L3.77838 15L6.18844 12.4645C6.37404 12.2692 6.67496 12.2692 6.86056 12.4645C7.04616 12.6597 7.04616 12.9763 6.86056 13.1716Z" fill="#118383"/>
</svg>
