<svg width="100" height="166" viewBox="0 0 100 166" fill="none" xmlns="http://www.w3.org/2000/svg">
<path d="M19.7818 73.2851C15.199 73.2851 7.50637 76.5586 4.23291 78.1953C5.86964 85.5606 41.8777 85.3969 51.6981 84.7422C61.5184 84.0875 90.9795 83.9238 95.8897 78.1953C93.4346 77.1041 87.8698 74.9218 85.251 74.9218C81.9775 74.9218 68.8837 73.2851 63.1552 73.2851C57.4266 73.2851 44.3328 74.9218 40.2409 74.9218C36.1491 74.9218 25.5104 73.2851 19.7818 73.2851Z" fill="#BBBBB9"/>
<path d="M3.63495 77.8022C2.81658 78.0725 1.01618 79.0993 0.361489 81.0448C-0.293203 82.9903 0.0887009 85.6383 0.361489 86.7192C0.361489 86.7192 18.3653 158.325 20.002 159.676C29.5349 167.545 70.2097 167.545 79.7426 159.676C81.3793 158.325 99.3831 86.7192 99.3831 86.7192C99.6559 85.6383 100.038 82.9903 99.3831 81.0448C98.7284 79.0993 96.928 78.0725 96.1096 77.8022C81.6893 82.5637 64.6642 81.5106 49.8723 81.8655C35.0803 81.5106 18.0553 82.5637 3.63495 77.8022Z" fill="#E3E3E3"/>
<path d="M49.2427 41.3689C46.7876 43.1198 41.8774 48.3726 41.8774 55.3763C41.8774 62.3799 48.4244 74.0527 51.6978 79.0137" stroke="#DC9A43" stroke-linecap="round"/>
<path d="M68.1709 17.6068C68.7139 26.6299 53.4844 41.4995 49.3506 41.7483C45.2167 41.9971 36.0385 28.5963 35.4954 19.5733C34.9524 10.5502 41.8269 2.79533 50.8499 2.2523C59.873 1.70928 67.6279 8.58373 68.1709 17.6068Z" fill="#95D1D4"/>
<path d="M73.5977 21.7972C72.2036 30.7284 54.153 42.0076 50.0612 41.3689C45.9694 40.7302 39.8607 25.6802 41.2547 16.7489C42.6487 7.81767 51.019 1.70754 59.9503 3.10157C68.8816 4.49561 74.9917 12.8659 73.5977 21.7972Z" fill="#B6E4E2"/>
<ellipse cx="31.3051" cy="47.1108" rx="6.17162" ry="15.2522" transform="rotate(-41.805 31.3051 47.1108)" fill="#F5951D"/>
</svg>
