<svg xmlns="http://www.w3.org/2000/svg" viewBox="0 0 90 90"><defs><style>.cls-1{fill:#171717;}</style></defs><g id="Rocket"><path class="cls-1" d="M45.42,11.77c-.32.32-.63.65-1,1a5.2,5.2,0,0,0-.76,1.11c-.25.38-.29.87-.65,1.19a1.72,1.72,0,0,0-.59,1.42A2.59,2.59,0,0,0,42,17.7a3.49,3.49,0,0,1-.54,1.22A1.88,1.88,0,0,0,41.11,20c0,.76,0,1.53,0,2.29,0,.23,0,.51-.08.67-.52.69-.31,1.47-.33,2.21,0,1.07,0,2.14,0,3.22a1.44,1.44,0,0,0,.25.85.82.82,0,0,1,.15.42c0,.61.06,1.22.06,1.83a2.23,2.23,0,0,0,.32,1.07c.23.46.07,1.07.51,1.47a4.62,4.62,0,0,0,.8,2.08,1.86,1.86,0,0,1,.11,1.53.36.36,0,0,1-.14.14c-.36-.29-.86-.31-1.19-.65l-.82-.8c-.13-.13-.29-.21-.37-.12-.37.35-.87.22-1.28.39s-.53.29-.8.42A2.59,2.59,0,0,0,37,38.28a3.48,3.48,0,0,1-1.19,1.36c-.08.07-.28,0-.42,0a.25.25,0,0,1-.16-.16,7.41,7.41,0,0,1,0-2.05.78.78,0,0,1,.19-.4c.26-.33.18-.73.28-1.09s.45-.62.42-1a1.25,1.25,0,0,1,.32-.83c.24-.33,0-.77.28-1.08l.73-.89c0-.06,0-.16,0-.22a1.63,1.63,0,0,1,1-.9,1.39,1.39,0,0,0,.55-.39.74.74,0,0,0,.31-.58q0-3.33,0-6.65a2.55,2.55,0,0,1,.33-1.76c.12-.15.09-.43.1-.66,0-.61,0-1.22.06-1.83a.7.7,0,0,1,.15-.41c.38-.36.18-.89.4-1.29s.43-.79.64-1.19.42-.8.58-1.22c.3-.77.79-1.45,1.09-2.22.53-.55,1.05-1.11,1.59-1.65.21-.22.44-.42.67-.63a.58.58,0,0,1,.63-.05c.76.75,1.52,1.5,2.27,2.27a.67.67,0,0,1,.18.4c.06,1,.81,1.61,1,2.49a1.73,1.73,0,0,1,.4,1.27,2,2,0,0,0,.4,1.5c0,.31.05.61.07.91a1.23,1.23,0,0,0,.19.64.92.92,0,0,1,.24.62,3.17,3.17,0,0,0,0,.69c.14.89-.25,1.85.38,2.67v2.27a2.48,2.48,0,0,0-.37,1.74c0,.61,0,1.23,0,1.84a1,1,0,0,0,.3.82c.55.54,1.09,1.08,1.62,1.63.27.27.52.57.77.85,0,.48.44.77.58,1.22s.51.92.43,1.49a1.9,1.9,0,0,0,.41,1.5,3,3,0,0,1-.62,2.33s-.13.06-.2.07-.18.05-.22,0c-.29-.24-.55-.52-.85-.75s-.29-1.1-1-1.1a11,11,0,0,0-1.19-1.07,3.59,3.59,0,0,0-1.41-.66.34.34,0,0,0-.37.21,1.23,1.23,0,0,0,0,.44c.24.38.72.6.82,1.07a2.17,2.17,0,0,0,.63.93,1.19,1.19,0,0,1,.31.83c0,.34.25.55.34.83a1.15,1.15,0,0,1-.23,1.27c-.27.27-.55.52-.84.78-.09.09-.58-.08-.6-.21a4.77,4.77,0,0,0-.1-.66c0-.14-.1-.35-.19-.38-.37-.12-.66-.41-1-.51a2.74,2.74,0,0,0-1.14,0,1.89,1.89,0,0,0-.59.32,10.49,10.49,0,0,1-1-.55.42.42,0,0,1-.1-.4,1.07,1.07,0,0,1,1-.78,1.16,1.16,0,0,0,1-.48c.05,0,.12-.11.13-.18a.24.24,0,0,0-.07-.18c-.26-.28-.51-.57-.79-.83s-.74-.11-1.08-.27c-.14-.06-.29-.47-.2-.59a.86.86,0,0,1,.14-.18,2,2,0,0,1,.72-.54c.51-.2.52-.34.27-.84-.18-.34-.15-.38,0-.56s.66-.36.95-.59c.09-.07.1-.27.12-.41s-.05-.13-.08-.2-.41-.35-.11-.56c.62-.41.7-1.15,1.1-1.7.09-.12-.08-.52-.23-.59a4.42,4.42,0,0,1-.63-.27c-.45-.29-.48-.58-.08-.84.24-.16.53-.28.79-.42a.46.46,0,0,0,.17-.4,1.15,1.15,0,0,0-.35-1,.78.78,0,0,0-.59-.28,4.71,4.71,0,0,1-.92,0c-.11,0-.22-.14-.31-.24s.06-.13.1-.19a1.19,1.19,0,0,1,1-.48,5.29,5.29,0,0,0,.88-.11.22.22,0,0,0,.15-.16,12.46,12.46,0,0,0,0-2.73c-.57-.66-.32-1.45-.36-2.2A1.18,1.18,0,0,0,46,20c-.18,0-.38.41-.29.55l.39.54a6.59,6.59,0,0,1,.51.75,2.77,2.77,0,0,1,.45,1.72c0,.26.14.42.26.61s.12.16.11.17c-.31.33-.63.66-1,1,0,0-.16.05-.18,0C46,25,45.45,25.1,45,25c-.17-.05-.2-.21-.22-.36s0-.33.18-.39a3.56,3.56,0,0,1,.65-.13c.46-.08.62-.38.33-.8s-.33-1-.82-1.33c-.24-.15-.71-.13-.77.14s-.42.65-.51,1a2.68,2.68,0,0,1-1,1.24,2.12,2.12,0,0,1-.2.12c-.07-.13-.18-.24-.19-.37a1.67,1.67,0,0,1,.07-.67c.17-.41.42-.8.61-1.21A3,3,0,0,1,45,20.33c.16,0,.18-.21.21-.38s.12-.34.21-.36c.58-.15,1-.62,1.7-.56.28,0,.46-.47.28-.7a1.24,1.24,0,0,0-1.13-.65,1.26,1.26,0,0,1-.87-.14c-.06,0-.13-.11-.13-.17a1,1,0,0,1,.08-.42c.07-.15.22-.18.39-.18a1.19,1.19,0,0,0,1-.4c.19-.22.21-.36,0-.57a1.27,1.27,0,0,0-.74-.48,1.54,1.54,0,0,1-.56-.35c-.21-.16-.18-.41.09-.46a1.4,1.4,0,0,0,.89-.66c.07-.11.14-.33.08-.42C46.22,12.87,46.11,12.13,45.42,11.77ZM40.16,34.31c0-.07,0-.17,0-.22a2.38,2.38,0,0,1-.42-1.49,5.27,5.27,0,0,0-.09-.89.26.26,0,0,0-.15-.17c-.14,0-.35-.11-.42-.05-.51.46-1,.94-1.47,1.43-.1.09-.11.27-.19.39A2.62,2.62,0,0,0,36.94,35c0,.42-.41.62-.41,1,0,.17,0,.32.18.38s.34.09.43,0a5.82,5.82,0,0,0,1-.9c.39-.48,1-.29,1.43-.57a2.42,2.42,0,0,0,.49-.47C40.13,34.47,40.14,34.38,40.16,34.31Z"/><path class="cls-1" d="M68.21,73.26a.33.33,0,0,1,.17-.38c.83-.34,1.62-.75,2.42-1.16.09,0,.14-.29.1-.4a2.89,2.89,0,0,0-1-1.19c-.27-.19-.6,0-.89-.09s-.25-.19-.19-.31a4.28,4.28,0,0,1,.26-.38l-.63-.65a2.79,2.79,0,0,0-2.19.26,1.46,1.46,0,0,1-.89.15c-.06,0-.13-.06-.19-.1s-.09-.19,0-.34a2.12,2.12,0,0,1,1-.56c.17-.06.16-.2,0-.35a1.18,1.18,0,0,0-.75-.47,2.09,2.09,0,0,0-1.11.09c-.31.15-.24.53-.42.78a10.47,10.47,0,0,0-.52,1,4.14,4.14,0,0,1-.85,1.32,1.68,1.68,0,0,0-.77,1.09c-.37.38-.72.78-1.11,1.14a.62.62,0,0,1-.43,0c-.22,0-.2-.16-.07-.34.44-.61.58-1.39,1-2a.94.94,0,0,0,.17-.64.82.82,0,0,1,.2-.63c.26-.27.54-.54.82-.8a1.12,1.12,0,0,0,.25-1.26.46.46,0,0,0-.12-.16,4.11,4.11,0,0,1-.39.24,7.29,7.29,0,0,1-1.9.68c-.27,0-.46.4-.81.34a.37.37,0,0,1-.19-.09s-.08-.12-.06-.15a3.79,3.79,0,0,1,2.19-1.51,6.86,6.86,0,0,1,1.12-.12.28.28,0,0,0,.19-.37A6.21,6.21,0,0,0,62,64.5a.51.51,0,0,0-.71-.22,7.26,7.26,0,0,0-1.19.65c-.11.1-.57-.06-.6-.2a.69.69,0,0,1,.14-.64,1.85,1.85,0,0,1,1-.57c.27-.06.31-.54.1-.76l-.15-.17a1.08,1.08,0,0,0-1.44-.2c-.4.2-.8.41-1.19.63a1.6,1.6,0,0,1-.89.12c-.06,0-.13-.08-.17-.15a.17.17,0,0,1,0-.17c.35-.4.72-.78,1.07-1.18a.16.16,0,0,0,0-.17.27.27,0,0,0-.18-.12c-.53,0-1.07,0-1.6,0a.5.5,0,0,0-.41.46c0,.37,0,.75-.08,1.13-.51.51-.21,1.35-.75,1.86-.05.29-.11.59-.17.88a.36.36,0,0,1-.13.19c-.61.4-.62,1.2-1.14,1.67-.15.13-.27.16-.36.07a.47.47,0,0,1-.11-.19,1.82,1.82,0,0,1,.22-1.09,1.64,1.64,0,0,0,0-1.72c-.12-.2-.22-.36,0-.55a4.53,4.53,0,0,0,.49-.49,1,1,0,0,0,.17-.4c0-.31,0-.61,0-.92a.47.47,0,0,0-.4-.46l-2.06,0c-.13,0-.35-.46-.27-.58.26-.38.54-.75,1.07-.74h.45c.7,0,.92-.34.74-1a.46.46,0,0,0-.13-.18c0-.06-.11-.14-.17-.14-1,0-2,0-3-.06a.23.23,0,0,1-.24-.27.47.47,0,0,1,.12-.19,1.05,1.05,0,0,1,.77-.42c.46,0,.92,0,1.38,0,.11,0,.25-.16.31-.28s-.12-.57-.25-.58l-1.14-.07c-.24,0-.3-.19-.17-.44a2.14,2.14,0,0,0,.13-.19.48.48,0,0,0-.11-.61.54.54,0,0,0-.62,0L49.25,57c-.33.32-.65.65-1,.95a.67.67,0,0,1-.43.07c-.17,0-.31-.28-.28-.54a1.07,1.07,0,0,1,.14-.65,1,1,0,0,0,.24-.39c.13-.58.67-1,.55-1.69,0-.09.17-.27.29-.3a1.37,1.37,0,0,0,.76-.46c.21-.23.23-.34,0-.55s-.42-.45-.62-.68,0-.56.19-.59l.89-.14c.13,0,.29-.49.22-.6a3.36,3.36,0,0,0-1.16-1.09,1.86,1.86,0,0,0-.89-.08,1,1,0,0,1-.94-.54c0-.06-.1-.14-.08-.19a.26.26,0,0,1,.18-.13c.61,0,1.21,0,1.82-.06.24,0,.5,0,.58-.25a1.51,1.51,0,0,0,0-.67.49.49,0,0,0-.42-.46,1.61,1.61,0,0,1-.73-.53.56.56,0,0,1-.09-.63c.07-.13.18-.24.26-.38a.48.48,0,0,0,0-.62c-.66-.64-1-1.54-1.63-2.17-.08-.08,0-.29,0-.43s.21-.28.52.06.92.5,1.32.85.65.64,1,1a4.67,4.67,0,0,1,.8,1.59c-.05.59.51.93.52,1.48a1.6,1.6,0,0,1,.43,1.26,1.23,1.23,0,0,0,.22.86c.35.48.18,1,.17,1.54-.55.44-.23,1.19-.62,1.68a1.24,1.24,0,0,0-.22.86c0,.17,0,.31.18.38A2.84,2.84,0,0,1,52,55a15,15,0,0,0,1.47,1,3.11,3.11,0,0,1,1.09,1.42c.26.61.59,1.21.88,1.81a.65.65,0,0,0,.15.18,1.14,1.14,0,0,0,.35.28.64.64,0,0,0,.38-.11c.42-.25.89-.1,1.34-.15a1.48,1.48,0,0,1,1.07.3c.31.24.76,0,1.08.28a1.38,1.38,0,0,0,.83.32,1.4,1.4,0,0,1,.62.22c.26.16.45.48.72.56.75.22,1,.79,1.34,1.42a1.9,1.9,0,0,1,.28.84c0,.3-.08.65.13.88.4.46.27,1,.35,1.53,0,.24.21.46.41.46l1.37,0a6.42,6.42,0,0,1,1.59.1,15.06,15.06,0,0,1,1.61.8,1.68,1.68,0,0,1,.58.34c.49.48,1,1,1.45,1.47.11.11.25.23.27.36.1.58.64.84.87,1.32a.81.81,0,0,1,.08.44c0,.55.54.9.47,1.49s0,1.22,0,1.83a.77.77,0,0,1-.11.43A1.47,1.47,0,0,0,72.33,76c.1.6-.39,1-.51,1.48a.47.47,0,0,1-.3.3c-.57.11-.81.68-1.28.92a.84.84,0,0,1-.44,0c-.16,0-.24-.46-.14-.6l.14-.19a4.25,4.25,0,0,0,.76-1.12A3.67,3.67,0,0,0,71,75.51c0-.37.44-.61.42-1s0-.92-.05-1.37c0-.11-.19-.25-.31-.28s-.52-.12-.67,0a3.14,3.14,0,0,1-2.19.43Z"/><path class="cls-1" d="M30.77,23.61c-.36,0-1,0-1.58.06a.86.86,0,0,0-.41.16c-.62.46-1.33.25-2,.25-.13,0-.27-.13-.38-.23a6.65,6.65,0,0,1-.66-.64,1.53,1.53,0,0,0-1.22-.52.68.68,0,0,1-.4-.19c-.15-.12-.26-.16-.39-.05a1.34,1.34,0,0,1-.85.26,2.44,2.44,0,0,0-1.74.39,2,2,0,0,1-1.74-.21.25.25,0,0,0-.18,0c-.06,0-.14.11-.14.18,0,.53,0,1.06,0,1.59a.66.66,0,0,1-.25.36c-.11.09-.5,0-.62-.16a2.06,2.06,0,0,1-.5-.75,4.64,4.64,0,0,0-.42-.79c-.47-.92-.7-1.12-1.95-1.77-.16-.09-.3-.1-.34.1a1.54,1.54,0,0,1-.59.94c-.13.1-.22,0-.38-.07-.42-.28-.49-.76-.66-1.16a5.6,5.6,0,0,0-1.91-2.21.33.33,0,0,0-.22,0c-.5.07-.84-.3-1.25-.47l-1-.47A.83.83,0,0,1,8.6,17a.41.41,0,0,1,.16-.16,6.41,6.41,0,0,1,2.05-.06.51.51,0,0,1,.21.06c.87.58,2,.8,2.66,1.68a5.65,5.65,0,0,0,.82.8,1.36,1.36,0,0,0,.41.17,1.69,1.69,0,0,0,.23,0l.91.08c.45.41,1.12.46,1.51,1a.88.88,0,0,0,.8.35c.23,0,.46,0,.69,0a5.3,5.3,0,0,0,.69,0c.4-.06.69.43,1,.29a2.64,2.64,0,0,1,1.08-.29h3.22a1.68,1.68,0,0,1,.45,0,1.56,1.56,0,0,1,.41.2c.06,0,.11.1.17.15.44.3.69.88,1.24,1a7.77,7.77,0,0,0,1.6,0c.3,0,.61,0,.91-.06.89-.68,1.92-.27,2.88-.35a.61.61,0,0,1,.42.12,1.79,1.79,0,0,0,1.31.29,1.17,1.17,0,0,1,1,.53.88.88,0,0,1,.17.87,3.61,3.61,0,0,1-1.76,2.26,3.6,3.6,0,0,0-.91.66c-.24.22-.58.22-.8.41s-.71.27-1,.51A1.6,1.6,0,0,1,30,27.8a2.6,2.6,0,0,1-1.73.46.32.32,0,0,0-.22,0c-.58.51-1.29.37-2,.38-.84,0-1.68,0-2.53,0-2.41.07-1.6-.34-3.39,1.36-.16.16-.33.39-.52.43-.72.12-1,1-1.75,1a1.67,1.67,0,0,1-1.26.43,1,1,0,0,0-.66.13,1.55,1.55,0,0,1-1.06.33c-.38,0-.76,0-1.14.06-.57.54-1.3.3-2,.38a3,3,0,0,1-1.5-.44c-.14-.06-.31-.07-.37-.23a1.09,1.09,0,0,1,0-.44.22.22,0,0,1,.16-.15c.53,0,1.05-.1,1.58-.1a1.81,1.81,0,0,0,1.07-.3A.8.8,0,0,1,13.2,31c.38,0,.76,0,1.15,0a2.44,2.44,0,0,0,1.74-.39l.9-.09a1.15,1.15,0,0,0,.64-.2c.55-.38.88-1.07,1.62-1.22.44-.42.9-.83,1.33-1.26a1.54,1.54,0,0,1,1.21-.53c.76,0,1.53,0,2.3,0,.22,0,.52.05.66-.07.69-.55,1.47-.3,2.21-.35.46,0,.93,0,1.38-.06.28,0,.53-.36.81-.37A2.76,2.76,0,0,0,30.4,26c.4-.22.83-.36,1.23-.55a1.09,1.09,0,0,0,.36-.28c.39-.37.77-.75,1.14-1.13a.76.76,0,0,0,.12-.19,2.1,2.1,0,0,0-.39-.21,1.78,1.78,0,0,0-.46,0Z"/><path class="cls-1" d="M17.69,74.8c0-.53,0-1.07,0-1.6a1.49,1.49,0,0,1,.37-1c.05-.55.53-.9.64-1.44a2.83,2.83,0,0,1,.51-1,5.63,5.63,0,0,1,.78-.84,6.66,6.66,0,0,1,1.19-1.07c.58-.34,1.23-.54,1.8-.92a3.55,3.55,0,0,0,1.49-.46,2.1,2.1,0,0,1,.91-.05h.92a1.15,1.15,0,0,0,1-1c.05-.59-.13-1.21.25-1.78s.42-1,.86-1.31.23-.78.64-.89c.69-.17,1-.92,1.72-1.06a5.71,5.71,0,0,0,1.2-.62,1.66,1.66,0,0,1,.63-.2c.54,0,1.07,0,1.61,0a.46.46,0,0,0,.44-.43,2.27,2.27,0,0,0,0-.45c-.08-.5.27-.85.4-1.27a5.38,5.38,0,0,0,.07-1.14.42.42,0,0,1,.1-.2,23.63,23.63,0,0,0,1.28-2.63c.12-.27.34-.49.46-.78a4.78,4.78,0,0,1,.68-.89.66.66,0,0,0,0-.83,1.91,1.91,0,0,1-.14-1.73A2,2,0,0,0,37.89,48a.91.91,0,0,1,0-.23,1.31,1.31,0,0,1,.18-.64c.44-.7.65-1.52,1.15-2.2.17-.73.76-1.1,1.3-1.52.49-.07.74-.5,1.12-.75a.88.88,0,0,1,.4-.17,4.42,4.42,0,0,1,1.58.06c.06,0,.14.12.13.14a2.3,2.3,0,0,1-1.14,1.08c-.36.14-.65.38-1,.52a2.61,2.61,0,0,0-1.43,1.38c-.22.47-.62.89-.51,1.48-.65,1.05-.43,2.19-.36,3.32a1.94,1.94,0,0,1,.41,1c0,.6-.17,1.26.14,1.8s.75.77,1,1.22a9.07,9.07,0,0,0,.91,1.29,2,2,0,0,1,.11.2c-.13.07-.25.18-.38.18s-.51,0-.65-.08a6.94,6.94,0,0,1-2.25-2.53c-.08-.2-.3-.34-.47-.49,0,0-.13,0-.17,0s-.39.32-.44.52c-.11.46-.49.77-.57,1.22A2.09,2.09,0,0,1,36.63,56a.54.54,0,0,0-.1.2v3a2.83,2.83,0,0,1,.42,2c0,.23,0,.46,0,.69a1.28,1.28,0,0,0,.2.87c.28.35.29.84.68,1.15A12.16,12.16,0,0,1,39,64.93a1,1,0,0,1,.23.38.71.71,0,0,1-.1.42.34.34,0,0,1-.4.14.74.74,0,0,1-.21-.07c-.44-.28-.7-.83-1.29-.89a8.9,8.9,0,0,1-1-1,8.49,8.49,0,0,1-.64-1.19c.09-.72-.57-1.23-.52-1.94a.43.43,0,0,0-.45-.41,2.76,2.76,0,0,0-1.57.1c-.45.27-1,.33-1.37.79s-1,.44-1.32.85-.54.55-.81.82a3.9,3.9,0,0,0-.84,1.58,4.53,4.53,0,0,1-.37,1,2,2,0,0,0-.09,1.34c0,.11.17.24.29.31a7.74,7.74,0,0,1,2.37,2.09s0,.14,0,.22a.34.34,0,0,1-.2.38.49.49,0,0,1-.21,0,.52.52,0,0,1-.22,0c-.47-.24-.92-.52-1.4-.74s-.91,0-1.28-.4a.68.68,0,0,0-.42-.13c-.69,0-1.38-.07-2.06-.05a3.64,3.64,0,0,0-1.8.14,6.42,6.42,0,0,0-1.38.77,3.46,3.46,0,0,0-2,2.55.87.87,0,0,0,0,.23c0,.39-.44.62-.43,1s0,.77,0,1.15a.86.86,0,0,1-.24.62c-.13.15-.14.24,0,.39a.76.76,0,0,1,.22.4,11,11,0,0,1,0,1.15,2.28,2.28,0,0,0,.38,1.51,1,1,0,0,1,0,.87.31.31,0,0,1-.39.18c-.07,0-.16,0-.21-.06a3,3,0,0,1-.63-.65c-.34-.58-.52-1.25-.89-1.82l-.11-2.28Z"/><path class="cls-1" d="M79.75,44.76H78.37c-.25,0-.42-.16-.61-.27s-.13-.1-.2-.12c-1.74-.52-1.74-.52-2.4-1.13a1.09,1.09,0,0,0-.82-.32l-2.75,0c-.55,0-.6-.05-1.49-.46-.21-.1-.43-.17-.49-.41-.14-.47-.53-.73-.81-1.09s-.84-.33-1.17-.66-.57-.17-.87-.18a1.93,1.93,0,0,0-1.52.36.77.77,0,0,1-.42.11c-.46,0-.92,0-1.38,0a2,2,0,0,1-.84-.29c-.61-.27-1.14-.76-1.88-.67-.58-.52-1.47-.33-2-.86a1.42,1.42,0,0,1-1.08-1.06c-.06-.21-.3-.37-.34-.58a1.68,1.68,0,0,1,0-.89,5.63,5.63,0,0,1,.64-1.18,2.23,2.23,0,0,1,.53-.42c.83.14,1.27-.43,1.7-1s.81-.41,1.16-.67.41-.08.59.06a1.18,1.18,0,0,0,.88.12c.12,0,.33-.14.34-.24,0-.45,0-.91,0-1.37a1.78,1.78,0,0,1,.14-.88c.3-.44.34-1,.79-1.37s.62-.71,1-.93a3.3,3.3,0,0,1,1.65-.67c.54,0,1.07,0,1.61,0a2.25,2.25,0,0,1,1.11.16,5.18,5.18,0,0,1,1.66,1.16,11.87,11.87,0,0,1,1.2,2.64c0,.07,0,.15,0,.22a.47.47,0,0,0,.46.41l1.61,0c.56,0,.56,0,1.48-.44a4.56,4.56,0,0,1,1-.44A2.29,2.29,0,0,0,78,31.16a.77.77,0,0,1,.42-.13c.61,0,1.22,0,1.83,0,.19,0,.37.28.35.49s-.08.32-.24.34a6.18,6.18,0,0,1-1.14.05,1.62,1.62,0,0,0-1.06.32c-.26.19-.6.06-.88.16s-.53.31-.81.4a4.25,4.25,0,0,0-2.17,1.1c-.44.43-.86.87-1.3,1.29-.14.14-.27.36-.52.25s-.12-.53.13-.81.63-.66.94-1a.19.19,0,0,0,0-.17c0-.06-.11-.14-.18-.14-.45,0-.91,0-1.37-.06a2,2,0,0,0-1.27.4,1.29,1.29,0,0,1-.89.06,2.45,2.45,0,0,0-1.94-.45,1.4,1.4,0,0,0-1.08.75.43.43,0,0,0,0,.42c.35.41.72.79,1.1,1.17.14.16.15.27,0,.35a.5.5,0,0,1-.2.09,1.88,1.88,0,0,1-.68-.06c-.47-.22-.9-.55-1.38-.76s-.67-.34-1-.47a3.5,3.5,0,0,0-1.13-.07,3.49,3.49,0,0,0-.46,0,1.94,1.94,0,0,1-1.05-.37.81.81,0,0,0-1.16.27,1.63,1.63,0,0,1-1.11,1A5.13,5.13,0,0,0,59,36a.84.84,0,0,0-.24,1.31,3.14,3.14,0,0,0,.5.46.27.27,0,0,0,.2.08c.58-.11,1,.45,1.49.45a3.14,3.14,0,0,1,1.72.45,5.71,5.71,0,0,1,.6.31,1.07,1.07,0,0,0,1.08.07,4.92,4.92,0,0,0,1-.5,1.67,1.67,0,0,1,1.07-.3,2.68,2.68,0,0,1,1.72.45,3,3,0,0,0,1.94.47c.23,0,.45,0,.68,0a1.5,1.5,0,0,0,.84-.32,1.25,1.25,0,0,1,.89-.08.5.5,0,0,1,.29.31.75.75,0,0,1-.33,1,3.86,3.86,0,0,1-1.68.6c-.17,0-.21.18-.2.35s0,.33.2.37a3.26,3.26,0,0,1,1.48.53c.29,0,.6.09.88-.1a1.83,1.83,0,0,1,2.14,0,4.85,4.85,0,0,1,1.13.73.86.86,0,0,0,.58.33,2.14,2.14,0,0,1,1.06.34,1.33,1.33,0,0,0,.66.13c.69,0,1.37,0,2.06,0s.79.18.77.81c0,.23-.21.49-.38.5l-.45.05h-.92ZM64.05,32.17c0,.13,0,.28,0,.43a1.21,1.21,0,0,0,.72,1.08,1,1,0,0,0,.87,0A1.53,1.53,0,0,0,66,33.4a10.09,10.09,0,0,0,.83-.77c.36-.38.91-.11,1.26-.41s.51-.1.78.05.58.15.79.38a.46.46,0,0,0,.41.15.4.4,0,0,0,.38-.19c.09-.17,0-.56-.17-.59s-.45-.05-.66-.1a1.56,1.56,0,0,1-.39-.19c.08-.12.15-.25.24-.36a1.31,1.31,0,0,1,.77-.42c.07,0,.11-.1.17-.15-.1-.09-.19-.25-.3-.26-.52,0-1.06,0-1.59-.06-.15,0-.35-.38-.29-.55a.87.87,0,0,1,.1-.19c.23-.4.21-.47,0-.72a1,1,0,0,0-1.24-.24,2.46,2.46,0,0,1-1,.38.59.59,0,0,0-.41.13,3.64,3.64,0,0,0-1.14,1.37A3.16,3.16,0,0,0,64.05,32.17Z"/><path class="cls-1" d="M40.62,40.27c-.21-.68.41-1.1.56-1.67.07-.25.57-.28.78-.09.38.34.38.43.16.91a2.39,2.39,0,0,1-.51,1c-.18.15-.33.32-.49.48s-.27.15-.36,0a.41.41,0,0,1-.12-.18C40.62,40.58,40.63,40.43,40.62,40.27Z"/><path class="cls-1" d="M46.92,52.57c-.11,0-.33,0-.54-.12s-.2-.2-.18-.38.06-.31.22-.36a1.07,1.07,0,0,1,1.23.3c.09.12.16.25.24.38a2.37,2.37,0,0,1-.41.17A3.18,3.18,0,0,1,46.92,52.57Z"/><path class="cls-1" d="M51.35,64.49a2,2,0,0,1-.42-.13.33.33,0,0,1-.13-.4c.05-.13.15-.31.25-.33a1.18,1.18,0,0,1,.88.1.3.3,0,0,1,.12.4.7.7,0,0,1-.25.33A1.12,1.12,0,0,1,51.35,64.49Z"/><path class="cls-1" d="M45.05,29.64c.19,0,.29,0,.33,0a1.15,1.15,0,0,1,.25.33.32.32,0,0,1-.14.39,1,1,0,0,1-.86.09c-.1,0-.19-.21-.24-.33a.28.28,0,0,1,.13-.39A3.61,3.61,0,0,1,45.05,29.64Z"/><path class="cls-1" d="M58.47,65.66a1.15,1.15,0,0,1-1,.67c-.06,0-.13-.07-.16-.12a.17.17,0,0,1,0-.17,3.78,3.78,0,0,1,.61-.59c.07-.06.26,0,.39.06S58.42,65.61,58.47,65.66Z"/><path class="cls-1" d="M66.35,71.4c-.24.64-.51.88-1,.9a.3.3,0,0,1-.18-.1.17.17,0,0,1,0-.15,1.14,1.14,0,0,1,1.28-.63Z"/><path class="cls-1" d="M45.61,49.6a.41.41,0,0,1-.38.19.41.41,0,0,1-.37-.21,3.26,3.26,0,0,1,.38-.18.28.28,0,0,1,.21.05A.56.56,0,0,1,45.61,49.6Z"/><path class="cls-1" d="M45.66,32.7c0,.23-.11.56-.2.5a.67.67,0,0,1-.21-.32.25.25,0,0,1,.15-.34C45.5,32.49,45.59,32.54,45.66,32.7Z"/><path class="cls-1" d="M66.61,73.8a2.33,2.33,0,0,1,.2.34.26.26,0,0,1-.16.36.18.18,0,0,1-.14,0,.24.24,0,0,1-.14-.36A1.91,1.91,0,0,1,66.61,73.8Z"/><path class="cls-1" d="M68,70.66s0,.13,0,.15a.79.79,0,0,1-.38.11c-.1,0-.2-.13-.3-.21a3.12,3.12,0,0,1,.35-.2A.27.27,0,0,1,68,70.66Z"/><path class="cls-1" d="M66.37,71.42a.28.28,0,0,1,.16-.34.23.23,0,0,1,.16,0c.11.11,0,.19-.34.29Z"/><path class="cls-1" d="M68.18,73.24c0,.16,0,.29-.14.34s-.23,0-.18-.17a.29.29,0,0,1,.35-.15Z"/><path class="cls-1" d="M69.4,75.23s.07.1.06.13a.52.52,0,0,1-.12.13c-.15-.09-.17-.19-.07-.26S69.36,75.23,69.4,75.23Z"/><path class="cls-1" d="M44.66,27.05c0,.11,0,.19-.16.18s-.09-.09-.13-.13a.42.42,0,0,1,.15-.12S44.61,27,44.66,27.05Z"/></g></svg>