<svg width="30" height="36" viewBox="0 0 30 36" fill="none" xmlns="http://www.w3.org/2000/svg">
<path d="M23.6667 34.7667C23.4564 35.0126 23.1671 35.1778 22.8484 35.2337C22.5297 35.2897 22.2015 35.233 21.92 35.0733C21.3054 34.8646 20.6623 34.7521 20.0133 34.74C18.8736 34.6715 17.7386 34.5402 16.6133 34.3467C15.9467 34.2 15.1733 34.1867 14.4533 34.0933C13.3533 33.9467 12.2333 33.9133 11.12 33.8333C11.0067 33.8333 10.8733 33.8333 10.7733 33.8333C9.47833 33.3765 8.11312 33.1509 6.74 33.1667C6.17334 33.1667 5.60667 33.02 5.04 32.9333C4.71417 32.8991 4.41036 32.7527 4.18053 32.5192C3.9507 32.2857 3.80912 31.9796 3.78 31.6533C3.76288 31.3981 3.76288 31.1419 3.78 30.8867L3.07334 30.8333C2.55216 30.763 2.07513 30.5032 1.73329 30.1036C1.39145 29.7039 1.20873 29.1924 1.22 28.6667C1.22 27.42 1.22 26.1733 1.22 24.9267C1.2953 24.3102 1.23616 23.6847 1.04667 23.0933C0.949852 22.7943 0.949852 22.4723 1.04667 22.1733C1.33677 21.0947 1.33677 19.9586 1.04667 18.88C0.932075 18.5018 0.932075 18.0982 1.04667 17.72C1.21859 17.1639 1.27531 16.5787 1.21334 16C1.21334 12.4533 1.21334 8.89999 1.21334 5.33332C1.21334 4.22665 1.35334 3.11332 1.46 1.99999C1.46 1.91332 1.75334 1.84665 1.90667 1.77332L2.13334 2.01332C2.18 3.59332 2.2 5.17332 2.3 6.75999C2.5 9.92665 2.35334 13.1133 2.56667 16.2933C2.68667 18.08 2.62 19.88 2.56667 21.6667C2.51334 23.4533 2.42667 25.22 2.36667 27C2.36667 27.62 2.36667 28.2467 2.36667 28.8667C2.33893 29.1083 2.28985 29.347 2.22 29.58C2.63517 29.7085 3.06149 29.7978 3.49334 29.8467C6.55334 29.9133 9.62 29.7133 12.6733 30.0933C13.74 30.2267 14.8133 30.26 15.8867 30.3467C15.96 30.3467 16.0333 30.4 16.1067 30.4067C16.7033 30.542 17.3179 30.5802 17.9267 30.52C18.7595 30.3656 19.6068 30.303 20.4533 30.3333C20.7933 30.3333 21.12 30.3333 21.54 30.3333C21.6221 29.7804 21.6176 29.2182 21.5267 28.6667C21.3836 28.1892 21.3206 27.6914 21.34 27.1933C21.2267 24.6 21.5133 22 21.1467 19.4067C20.94 17.9667 21.0667 16.4867 20.9267 15.02C20.6867 12.52 20.7133 9.99332 20.66 7.47332C20.6267 5.95332 20.66 4.43332 20.66 2.91332V1.81332C20.5123 1.89708 20.3527 1.95778 20.1867 1.99332C18.48 1.94665 16.7933 2.15999 15.0933 2.23332C14.22 2.27332 13.34 2.01999 12.46 2.03332C10.0667 2.08665 7.66667 1.87332 5.26667 2.20665C4.22451 2.24771 3.18093 2.17843 2.15334 1.99999L1.91334 1.77999C1.91334 1.37999 2.05334 1.11332 2.5 1.07332H3C4.19334 1.03332 5.38667 1.19999 6.58 0.866653C7.11995 0.796358 7.66673 0.796358 8.20667 0.866653C9.84667 0.866653 11.48 0.866653 13.12 0.866653C13.6961 0.78806 14.2827 0.854513 14.8267 1.05999C15.0832 1.16377 15.3701 1.16377 15.6267 1.05999C16.4522 0.8553 17.3055 0.78551 18.1533 0.85332C19.0267 0.799986 19.92 0.966653 20.82 0.646653C21.0033 0.571969 21.2061 0.560253 21.3968 0.613344C21.5874 0.666435 21.7551 0.781327 21.8733 0.939986C21.9728 1.03048 22.0426 1.14894 22.0735 1.27981C22.1045 1.41069 22.0951 1.54787 22.0467 1.67332C21.9807 1.81046 21.9271 1.95326 21.8867 2.09999C21.7933 2.65332 21.94 2.76665 22.5533 2.63332C23.4667 2.40665 23.8867 2.73999 24.0267 3.61332C24.4733 6.89999 24.0267 10.2067 24.28 13.4933C24.3933 15.0733 24.3467 16.6667 24.52 18.2333C24.7687 20.0974 24.9178 21.9734 24.9667 23.8533C24.9911 24.2471 25.1486 24.6208 25.4133 24.9133C25.4133 24.5333 25.4133 24.1533 25.4133 23.78C25.3806 23.0476 25.4478 22.3142 25.6133 21.6C25.8 20.9333 25.6133 20.2667 25.8333 19.5533C26.0023 18.6894 26.1004 17.8132 26.1267 16.9333C26.1353 16.3973 26.182 15.8626 26.2667 15.3333C26.5533 14.1467 26.4933 12.9267 26.8533 11.74C27.1136 10.5918 27.3095 9.43001 27.44 8.25999C27.5733 7.51999 27.7867 6.79332 27.9933 5.94665C27 5.68665 25.9533 5.33332 24.8667 5.05999C24.6467 4.99999 24.3867 5.05999 24.38 4.71999C24.3742 4.64261 24.385 4.56488 24.4116 4.49198C24.4382 4.41908 24.4799 4.35267 24.5342 4.29718C24.5884 4.24168 24.6538 4.19837 24.7261 4.17011C24.7984 4.14186 24.8758 4.12932 24.9533 4.13332C25.1055 4.10667 25.2612 4.10667 25.4133 4.13332C26.4667 4.4311 27.5156 4.73999 28.56 5.05999C28.9467 5.17332 29.16 5.79999 29.0067 6.33999C28.8469 6.76148 28.7089 7.19094 28.5933 7.62665C28.3333 9.04665 28.1267 10.4733 27.88 11.8933C27.8 12.34 27.66 12.7733 27.5467 13.2267C27.502 13.3307 27.4641 13.4376 27.4333 13.5467C27.3467 14.5733 27.34 15.62 27.1667 16.64C26.9267 18.0267 27.0467 19.4667 26.5533 20.8133C26.5224 20.8805 26.5043 20.9528 26.5 21.0267C26.4133 22.14 26.3533 23.2533 26.2533 24.36C26.2901 25.0918 26.2273 25.8251 26.0667 26.54C25.82 27.2067 26.0267 27.96 25.8333 28.7C25.5333 29.8333 25.52 31.04 25.2933 32.1933C25.1209 33.0062 24.8846 33.8042 24.5867 34.58C24.44 34.9933 24.26 35 23.6733 34.7733C23.7133 34.2333 23.76 33.6867 23.8067 33.1533C22.5794 33.567 21.267 33.6611 19.9933 33.4267C18.9865 33.2138 17.9443 33.2343 16.9467 33.4867C17.9267 33.6467 18.9067 33.7467 19.8867 33.8333C20.0796 33.8165 20.2737 33.8165 20.4667 33.8333C21.4015 34.238 22.3855 34.5182 23.3933 34.6667C23.4933 34.6667 23.5933 34.72 23.6667 34.7667ZM24.1667 32.7067C23.6933 31.9478 23.5154 31.0415 23.6667 30.16C23.6667 29.4933 23.88 28.7933 23.8733 28.1067C23.84 26.4867 23.8733 24.8733 23.7133 23.24C23.5133 21.4933 23.3867 19.7333 23.2333 17.9733C23.08 16.2133 23.1267 14.4267 23.0067 12.64C22.868 11.0179 22.9128 9.38537 23.14 7.77332C23.2457 6.5695 23.2613 5.35946 23.1867 4.15332C23.1867 3.44665 23.0467 3.29332 22.3733 3.17999C21.9067 3.09332 21.7067 3.24665 21.8067 3.73999C21.9485 4.49385 22.0177 5.25958 22.0133 6.02665C22.1067 8.46665 21.8933 10.9 22.2 13.36C22.398 15.4406 22.4892 17.53 22.4733 19.62C22.5133 21.4133 22.4733 23.2067 22.4733 25C22.4263 25.2691 22.4263 25.5443 22.4733 25.8133C22.9133 26.94 22.38 27.9733 22.2733 29.0533C22.2333 29.4867 21.8667 29.8333 22.0867 30.3867C22.3067 30.94 22.18 31.1533 21.5133 31.3C21.2274 31.3972 20.9327 31.4664 20.6333 31.5067C19.5533 31.5067 18.48 31.64 17.4133 31.7067C15.832 31.7981 14.2454 31.7221 12.68 31.48C10.9365 31.196 9.17315 31.0511 7.40667 31.0467C6.48 31.0467 5.55334 30.9667 4.62667 30.9267C4.56947 30.9226 4.51272 30.9391 4.46667 30.9733C4.3 31.2133 4.64667 31.9533 4.95334 31.9867C5.86667 32.08 6.78667 32.2 7.70667 32.2133C8.88636 32.2563 10.0674 32.1849 11.2333 32C12.3081 31.904 13.3909 31.951 14.4533 32.14C15.8467 32.2667 17.2533 32.18 18.66 32.1867C18.9291 32.1396 19.2043 32.1396 19.4733 32.1867C20.5333 32.5933 21.6267 32.4 22.6933 32.3467C23.2183 32.3117 23.7414 32.4373 24.1933 32.7067H24.1667ZM16.1133 33.28C16.0667 33.24 16.0267 33.1667 15.9733 33.1667C15.9014 33.1742 15.8314 33.1945 15.7667 33.2267C15.8067 33.2667 15.8467 33.3333 15.8933 33.34C15.9791 33.3396 16.0636 33.3191 16.14 33.28H16.1133Z" fill="black"/>
<path d="M9.42 9.28664C10.18 9.21998 10.86 9.43998 11.5267 9.06664C11.7414 8.98519 11.9786 8.98519 12.1933 9.06664C12.2953 9.10692 12.3876 9.16806 12.4646 9.24612C12.5415 9.32419 12.6012 9.41747 12.64 9.51998C12.7169 9.79649 12.7293 10.087 12.6761 10.369C12.6229 10.6511 12.5056 10.9171 12.3333 11.1466C11.5127 12.1292 10.4516 12.8826 9.25333 13.3333C8.88317 13.4747 8.48381 13.5226 8.09072 13.4725C7.69763 13.4225 7.32297 13.2762 7 13.0466C6.05719 12.5417 5.32293 11.7201 4.92667 10.7266C4.86009 10.5917 4.81296 10.4481 4.78667 10.3C4.79127 9.42716 4.93531 8.56068 5.21333 7.73331C5.57466 6.87432 6.1766 6.1381 6.94667 5.61331C7.55333 5.09331 8.34 5.27331 9.06667 5.33331C9.19333 5.33331 9.36667 5.58664 9.41333 5.75331C9.45562 5.97287 9.46684 6.19729 9.44667 6.41998C9.42 7.33331 9.42 8.23998 9.42 9.28664ZM8.47333 5.83998C7.99752 5.90603 7.54556 6.08925 7.15807 6.37318C6.77058 6.65711 6.45969 7.03285 6.25333 7.46664C5.28 9.14664 5.3 10.74 7.05333 11.8466C7.12 11.8866 7.20667 11.9 7.26 11.9533C7.82667 12.5733 8.56 12.2533 9.22667 12.3C9.96 11.74 10.6933 11.1866 11.4133 10.62C11.4465 10.5783 11.4687 10.5291 11.478 10.4767C11.4873 10.4244 11.4834 10.3705 11.4667 10.32C11.4279 10.284 11.3807 10.2584 11.3294 10.2456C11.2781 10.2328 11.2244 10.2331 11.1733 10.2466C10.5533 10.6066 9.88 10.4066 9.24 10.4066C8.7 10.4066 8.48 10.0866 8.47333 9.51331C8.46667 8.31331 8.47333 7.10664 8.47333 5.83998Z" fill="black"/>
<path d="M12.3333 8.57998C11.6667 8.47998 11.0733 8.43331 10.5267 8.29998C10.4558 8.28561 10.389 8.25585 10.331 8.21281C10.2729 8.16977 10.225 8.11449 10.1906 8.0509C10.1563 7.9873 10.1364 7.91693 10.1322 7.84477C10.1281 7.77261 10.1398 7.70042 10.1667 7.63331C10.3161 6.81564 10.3721 5.98362 10.3333 5.15331C10.3333 4.67331 11.0733 4.28664 11.6667 4.36664C12.2559 4.42132 12.8102 4.67044 13.2423 5.07477C13.6744 5.4791 13.9597 6.01567 14.0533 6.59998C14.0809 6.82898 14.1392 7.05322 14.2267 7.26664C14.3933 7.61331 14.16 7.84664 14.0533 8.12664C13.9467 8.40664 13.68 8.30664 13.4733 8.34664L12.3333 8.57998ZM11.24 5.33331C11.24 5.91331 11.24 6.43331 11.28 6.95331C11.32 7.47331 11.46 7.61998 11.9467 7.66664C12.4333 7.71331 12.86 7.66664 13.3267 7.66664C13 6.41331 12.5333 5.41998 11.24 5.33331Z" fill="black"/>
<path d="M18.3333 22.6666C17.8667 23.44 17.0933 23.52 16.4267 23.7533C15.8118 23.9297 15.186 24.0655 14.5533 24.16C14.3684 24.208 14.1777 24.2305 13.9867 24.2266C13.24 24.1266 12.4933 23.9733 11.74 23.8866C11.5 23.8866 11.2467 24.0066 11 24.0066C10.9039 24.0133 10.8077 23.996 10.7199 23.9562C10.6322 23.9164 10.5558 23.8553 10.4976 23.7786C10.4394 23.7019 10.4012 23.6118 10.3865 23.5166C10.3718 23.4214 10.381 23.324 10.4133 23.2333C10.46 23.1 10.68 22.8933 10.7133 22.9133C11.3133 23.2533 11.9667 22.5133 12.5467 23.0066C12.6072 23.0543 12.6831 23.0781 12.76 23.0733C13.5867 22.9666 14.42 22.8733 15.24 22.74C15.7894 22.6001 16.3457 22.4888 16.9067 22.4066C17.3907 22.4379 17.8694 22.5251 18.3333 22.6666Z" fill="black"/>
<path d="M17.7467 17.1733C17.12 17.38 16.7067 17.5533 16.2867 17.6466C15.7133 17.7733 15.1667 18.1266 14.54 17.7266C14.3133 17.5866 13.9333 17.7266 13.62 17.6933C13.1993 17.7436 12.7741 17.7436 12.3533 17.6933C11.9626 17.6699 11.5708 17.6699 11.18 17.6933C11.1119 17.6853 11.0466 17.6619 10.9888 17.6249C10.9311 17.588 10.8825 17.5384 10.8467 17.48C10.8 17.36 10.8467 17.1133 10.9067 17.06C11.2133 16.8533 11.62 16.4866 11.8733 16.5666C12.4933 16.76 13.08 16.44 13.72 16.66C14.3777 16.8906 15.0911 16.9092 15.76 16.7133C15.9803 16.6336 16.2166 16.6084 16.4488 16.6397C16.6809 16.6711 16.9021 16.7581 17.0933 16.8933C17.26 16.9533 17.4 17.0133 17.7467 17.1733Z" fill="black"/>
<path d="M7.17334 18.2C7.34001 17.8533 7.46001 17.5733 7.60667 17.3067C7.67196 17.191 7.77029 17.0975 7.88907 17.0381C8.00785 16.9787 8.14166 16.9562 8.27334 16.9733C8.54667 16.9733 8.74001 17.0867 8.68001 17.3867C8.54667 18.0533 8.40001 18.78 8.21334 19.4667C8.18725 19.5618 8.13835 19.6491 8.07089 19.7211C8.00342 19.7931 7.91942 19.8475 7.82617 19.8797C7.73292 19.9119 7.63322 19.9208 7.53573 19.9058C7.43824 19.8907 7.34588 19.8521 7.26667 19.7933C7.14001 19.7133 6.98001 19.6267 6.92667 19.5C6.72958 18.9291 6.32504 18.4532 5.79334 18.1667C5.75212 18.1311 5.72114 18.0851 5.70356 18.0336C5.68599 17.982 5.68246 17.9267 5.69334 17.8733C5.72195 17.8283 5.76003 17.7901 5.80494 17.7613C5.84984 17.7325 5.90049 17.7139 5.95334 17.7067C6.18221 17.6316 6.43025 17.64 6.65354 17.7303C6.87683 17.8206 7.06097 17.987 7.17334 18.2Z" fill="black"/>
<path d="M11.58 25.8867C11.9267 25.8867 12.34 25.7933 12.6133 26.18C12.7333 26.34 12.84 26.2533 12.9933 26.18C13.5538 25.9298 14.1682 25.8244 14.78 25.8733C14.9948 25.9207 15.1986 26.009 15.38 26.1333C15.4467 26.1733 15.4533 26.3333 15.4467 26.44C15.44 26.5467 15.32 26.56 15.2733 26.5467C14.4467 26.3467 13.8667 27.1533 13.0733 27.0533C12.68 27.4867 12.34 27.1 12.0533 26.9267C11.7667 26.7533 11.52 26.5067 11.1267 26.5533C10.88 26.5533 10.8067 26.4067 10.82 26.18C10.8333 25.9533 10.9733 25.8533 11.2 25.8667C11.3133 25.8933 11.4333 25.8867 11.58 25.8867Z" fill="black"/>
<path d="M16.6933 9.25999C16.9667 9.25999 17.24 9.25999 17.5133 9.25999C17.9067 9.25999 18.18 9.35333 18.2867 9.77333C18.2867 9.92666 18.6467 10.0533 18.3733 10.2333C18.2333 10.32 17.9933 10.4067 17.8867 10.34C17.7374 10.2543 17.5695 10.2064 17.3975 10.2006C17.2255 10.1948 17.0547 10.2312 16.9 10.3067C16.6865 10.3948 16.4468 10.3948 16.2333 10.3067C16.0907 10.2041 15.9134 10.1619 15.7398 10.1894C15.5663 10.2169 15.4106 10.3117 15.3067 10.4533C15.0933 10.68 14.7867 10.7667 14.64 10.52C14.5913 10.4587 14.5554 10.3882 14.5344 10.3128C14.5134 10.2374 14.5077 10.1585 14.5176 10.0808C14.5276 10.0032 14.553 9.92829 14.5923 9.86059C14.6316 9.7929 14.6841 9.73376 14.7467 9.68666C15.0607 9.48291 15.4083 9.33621 15.7733 9.25333C16.0835 9.21988 16.3965 9.21988 16.7067 9.25333L16.6933 9.25999Z" fill="black"/>
<path d="M6.68667 24.72C6.88001 24.2933 7.02667 23.9067 7.21334 23.5467C7.23811 23.4928 7.27367 23.4446 7.31782 23.405C7.36196 23.3655 7.41376 23.3354 7.47 23.3166C7.52624 23.2979 7.58573 23.2909 7.64478 23.2961C7.70384 23.3012 7.76121 23.3184 7.81334 23.3467C7.87902 23.4052 7.92921 23.479 7.95946 23.5616C7.9897 23.6441 7.99905 23.7329 7.98667 23.82C7.86416 24.45 7.70839 25.0731 7.52001 25.6867C7.38667 26.1067 7.02667 26.2 6.73334 25.8867C6.29677 25.4007 5.88726 24.891 5.50667 24.36C5.44667 24.28 5.57334 24.0067 5.68667 23.8867C5.80001 23.7667 5.99334 23.7467 6.12667 23.9933C6.2919 24.2513 6.47928 24.4945 6.68667 24.72Z" fill="black"/>
<path d="M18.56 12.34C18.3262 12.5028 18.1035 12.6809 17.8933 12.8733C17.7612 13.0322 17.5784 13.1408 17.3757 13.1809C17.173 13.221 16.9626 13.19 16.78 13.0933C16.2623 12.9732 15.7212 13.0033 15.22 13.18C15.0181 13.2313 14.8077 13.2401 14.6023 13.2056C14.3968 13.1712 14.2008 13.0944 14.0267 12.98C13.9736 12.9318 13.9331 12.8714 13.9087 12.804C13.8843 12.7366 13.8767 12.6643 13.8867 12.5933C13.9074 12.5297 13.944 12.4725 13.993 12.427C14.042 12.3815 14.1017 12.3493 14.1667 12.3333C14.9324 12.3769 15.7002 12.2958 16.44 12.0933C16.5139 12.077 16.5903 12.0757 16.6648 12.0895C16.7392 12.1032 16.8101 12.1317 16.8733 12.1733C17.0322 12.2825 17.2205 12.341 17.4133 12.341C17.6061 12.341 17.7944 12.2825 17.9533 12.1733C18.0533 12.08 18.3333 12.26 18.56 12.34Z" fill="black"/>
<path d="M14.5267 20.1C14.2018 20.0079 13.8725 19.9323 13.54 19.8733C13.16 19.8267 12.6733 19.6733 12.42 19.8733C11.8733 20.2333 11.4667 19.8333 11 19.8C10.94 19.8 10.84 19.6333 10.8467 19.56C10.8667 19.5137 10.8979 19.473 10.9374 19.4416C10.977 19.4102 11.0237 19.389 11.0733 19.38C11.7256 19.4119 12.3782 19.3261 13 19.1267C13.16 19.0467 13.4333 19.18 13.6667 19.2333C14.1067 19.34 14.54 19.4467 15 19.58C15.1133 19.6133 15.1933 19.74 15.2933 19.8267C15.1824 19.9047 15.064 19.9717 14.94 20.0267C14.8251 20.0434 14.7083 20.0434 14.5933 20.0267L14.5267 20.1Z" fill="black"/>
<path d="M16.1333 6.84664C16.3575 6.39697 16.6896 6.00987 17.1 5.71997C17.4733 5.9533 17.7667 6.33997 18.24 6.2533C18.3133 6.2533 18.48 6.40664 18.5133 6.51997C18.5307 6.56444 18.5369 6.61247 18.5315 6.6599C18.5261 6.70733 18.5092 6.75272 18.4823 6.79213C18.4553 6.83155 18.4192 6.86379 18.377 6.88607C18.3348 6.90835 18.2877 6.91998 18.24 6.91997C17.8133 6.95997 17.42 7.36664 16.9467 6.91997C16.7867 6.8133 16.46 6.87997 16.1333 6.84664Z" fill="black"/>
</svg>
