<svg width="34" height="36" viewBox="0 0 34 36" fill="none" xmlns="http://www.w3.org/2000/svg">
<path d="M29.8333 21.0067C30.6667 21.2 31.42 21.34 32.1467 21.56C32.4161 21.6332 32.6505 21.8005 32.807 22.0317C32.9636 22.2629 33.0321 22.5426 33 22.82C33.0121 23.4523 32.8204 24.0717 32.4533 24.5867C31.2667 26.2667 30.1156 27.9756 29 29.7133C27.9504 31.1966 26.9909 32.7416 26.1267 34.34C25.8867 34.8333 25.58 35.2667 24.9333 35.2333C24.8667 35.2333 24.7667 35.2333 24.7333 35.2733C24.2333 35.9933 23.6467 35.5467 23.14 35.3267C22.6783 35.1708 22.2028 35.0592 21.72 34.9933C20.7733 34.7867 19.7667 34.8933 18.86 34.4133C18.3998 34.2423 17.9106 34.163 17.42 34.18C16.7149 34.2365 16.0052 34.1757 15.32 34C15.16 33.9333 14.9133 34.0467 14.7133 34.0867C14.38 34.16 14.1133 34.0467 14.1067 33.7533C14.1067 33.2667 14.16 32.7733 14.2 32.2867C14.24 31.8 14.2867 31.4667 14.3333 31.0333C12.9304 30.9413 11.5219 31.0856 10.1667 31.46C9.51469 31.7179 8.89853 32.0584 8.33333 32.4733C7.8735 32.7182 7.39672 32.9299 6.90667 33.1067C6.50667 33.2533 6.28 33.1667 6.11333 32.8067C5.94667 32.4467 5.83333 31.9533 5.67333 31.5333C5.18 30.3133 4.72667 29.0733 4.16667 27.8867C3.04 25.46 1.83333 23.0667 0.646668 20.6667C0.319539 20.0576 0.23602 19.3469 0.413011 18.6786C0.590002 18.0102 1.01429 17.434 1.6 17.0667C2.64 16.4 3.71333 15.84 4.74 15.2467C4.56667 14.28 4.4 13.2933 4.19333 12.3133C4.09219 11.8754 3.947 11.4488 3.76 11.04C3.46942 10.4782 3.32498 9.85231 3.34 9.22001C3.38739 9.04765 3.38739 8.8657 3.34 8.69334C2.86667 7.86001 3.34 7.14001 3.6 6.40001C3.67681 6.25459 3.79835 6.13773 3.94667 6.06667C4.84128 5.60767 5.82812 5.35697 6.83333 5.33334C7.54667 5.26001 8.26667 5.33334 8.98 5.33334C9.69333 5.33334 10.22 5.20667 10.8733 5.13334C10.8733 4.57334 10.8733 4.11334 10.8733 3.65334C10.9222 2.99112 10.9956 2.32445 11.0933 1.65334C11.1842 1.44423 11.3245 1.26034 11.5022 1.11749C11.6798 0.974646 11.8896 0.877129 12.1133 0.833339C13.5333 0.753339 14.9467 0.640006 16.36 0.620006C18.44 0.580006 20.5133 0.620006 22.5933 0.620006C23.4391 0.604439 24.283 0.535413 25.12 0.413339C26.08 0.266672 26.4533 1.00001 26.5467 1.74667C26.9533 4.25334 26.6867 6.78001 26.7533 9.29334C26.7606 9.46804 26.7334 9.64246 26.6733 9.80667C26.5867 9.99334 26.6733 10.0267 26.8133 10.0733C27.6533 10.3067 28.34 10.8933 29.2 11.0867C29.543 11.1525 29.8722 11.2765 30.1733 11.4533C30.912 11.8546 31.7235 12.1039 32.56 12.1867C33.6333 12.3867 33.8933 12.8533 33.4267 13.8733C32.6467 15.44 31.8333 17.06 31 18.6667C30.6333 19.4667 30.2267 20.24 29.8333 21.0067ZM12.8333 14.94C14.1067 14.8 15.32 15.0867 16.5067 14.7333C16.8217 14.674 17.145 14.674 17.46 14.7333C17.7664 14.7919 18.0758 14.8342 18.3867 14.86C20.3867 14.86 22.3867 14.86 24.3867 14.86H25.2533C25.3067 12.86 25.2533 10.9667 25.4267 9.06001C25.6 6.94001 25.4733 4.79334 25.48 2.65334C25.4933 2.40463 25.4933 2.15538 25.48 1.90667C25.44 1.52001 25.1533 1.24001 24.8133 1.40667C24.2065 1.61027 23.5616 1.67409 22.9267 1.59334C19.3667 1.65334 15.8 1.43334 12.26 1.87334C12.0609 2.3549 12.0212 2.88757 12.1467 3.39334C12.22 4.19334 12.2067 4.99334 12.3267 5.80667C12.5333 7.14001 12.52 8.54001 12.5933 9.91334C12.6733 11.5733 12.7467 13.1933 12.8333 14.94ZM15.1667 24L17.2933 24.3133C17.7467 24.38 18.1933 24.46 18.6267 24.52C19.363 24.5354 20.0958 24.627 20.8133 24.7933C22.0867 25.2133 23.42 25.26 24.7 25.5733C25.0191 25.6068 25.3409 25.6068 25.66 25.5733C25.763 25.5922 25.8693 25.5718 25.9581 25.5163C26.0469 25.4608 26.1118 25.3742 26.14 25.2733C26.5744 24.5179 26.9618 23.7365 27.3 22.9333C27.8506 21.5071 28.4965 20.1195 29.2333 18.78C30.0333 17.12 30.9867 15.5267 31.9 13.9067C32.0467 13.64 31.9733 13.44 31.6867 13.36C29.9265 12.8116 28.2266 12.0857 26.6133 11.1933C26.5739 11.6544 26.5606 12.1174 26.5733 12.58C26.5733 13.6133 26.5733 14.6467 26.5733 15.68C26.5733 16.1667 26.4733 16.2467 25.9533 16.3467C25.82 16.3467 25.68 16.38 25.4933 16.4C25.68 16.68 25.8267 16.9267 25.9933 17.1467C26.5267 17.8133 26.52 18.1 25.8733 18.6467C25.6716 18.8435 25.4276 18.9917 25.16 19.08C24.5761 19.1992 23.9864 19.2882 23.3933 19.3467C23.1337 19.4107 22.86 19.3842 22.6175 19.2714C22.375 19.1587 22.1783 18.9665 22.06 18.7267C22.0121 18.6632 21.9521 18.6099 21.8834 18.5699C21.8147 18.5298 21.7388 18.5038 21.66 18.4933C21.46 18.4533 21.18 18.4933 21.22 18.1933C21.252 17.9925 21.3592 17.8113 21.52 17.6867C22.12 17.2733 22.72 17.36 22.8533 18.0133C22.9867 18.6667 23.2733 18.5467 23.5933 18.4733C24.1775 18.4193 24.7469 18.2588 25.2733 18C25.46 17.88 25.5733 17.7 25.38 17.4733C25.1867 17.2467 25 16.8067 24.7133 16.6733C24.4267 16.54 24.1267 16.7467 23.82 16.8H23.7133L18.6067 17.0267L17.88 17.0733C17.9867 17.5933 18.1 18.0267 18.1467 18.4667C18.2043 18.7426 18.2051 19.0274 18.1489 19.3037C18.0927 19.5799 17.9808 19.8418 17.82 20.0733C17.4667 20.52 17 20.42 16.5467 20.46C16.2018 20.4915 15.859 20.5427 15.52 20.6133C15.4676 20.6157 15.4163 20.6289 15.3692 20.652C15.3222 20.6752 15.2805 20.7078 15.2466 20.7479C15.2128 20.788 15.1877 20.8346 15.1728 20.8849C15.1579 20.9352 15.1535 20.988 15.16 21.04C15.18 22.0467 15.1667 23.04 15.1667 24ZM16.7867 28.8067C17.0467 28.0467 16.7333 27.4133 16.6867 26.76C16.64 26.1067 16.5667 25.9533 15.8933 25.8C15.5933 25.7267 15.2867 25.6667 14.9867 25.58C14.6747 25.5231 14.389 25.3684 14.1709 25.1383C13.9527 24.9081 13.8135 24.6145 13.7733 24.3C13.6901 23.8191 13.6901 23.3275 13.7733 22.8467C13.8982 22.2546 13.9162 21.6451 13.8267 21.0467C13.4648 21.2284 13.0905 21.3843 12.7067 21.5133C11.2681 21.7863 9.88198 22.2859 8.6 22.9933C8.48052 23.0657 8.35299 23.1239 8.22 23.1667C8.0726 23.241 7.90978 23.2797 7.74468 23.2796C7.57958 23.2794 7.41682 23.2405 7.26954 23.1659C7.12226 23.0913 6.99459 22.9831 6.89681 22.85C6.79904 22.717 6.7339 22.5628 6.70667 22.4C6.52667 21.7333 6.19333 21.1133 5.95333 20.4667C5.62992 19.6637 5.40604 18.8241 5.28667 17.9667C5.25645 17.2814 5.0791 16.6107 4.76667 16L4.20667 16.3867L1.85333 18C1.67081 18.1146 1.52928 18.2841 1.44903 18.4841C1.36879 18.6841 1.35396 18.9044 1.40667 19.1133C1.46677 19.4517 1.5864 19.7767 1.76 20.0733C3.09333 22.0733 4.16 24.1667 5.33333 26.2267C6.13539 27.5342 6.83311 28.9028 7.42 30.32C7.56028 30.6301 7.72062 30.9308 7.9 31.22C8.4 30.9 8.8 30.62 9.23333 30.3667C10.7206 29.3598 12.4773 28.8254 14.2733 28.8333C15.12 28.86 15.9733 28.8267 16.7867 28.8267V28.8067ZM10.8667 14.36C10.2733 13.64 10.2733 13.64 9.53333 13.6267H9.42667C8.96922 13.6193 8.52576 13.4678 8.15947 13.1937C7.79318 12.9195 7.52274 12.5368 7.38667 12.1C7.22018 11.8289 7.16746 11.5031 7.24 11.1933C7.45485 10.5526 7.8594 9.99225 8.4 9.58667C9.13866 9.00045 10.0571 8.68725 11 8.70001C11.26 7.63334 10.7933 6.70001 10.8333 5.78667C9.73333 5.90667 8.69333 6.06667 7.65333 6.11334C6.78193 6.18109 5.9197 6.33745 5.08 6.58001C4.90667 6.62667 4.63333 6.90667 4.65333 6.95334C4.85333 7.36001 4.41333 7.82001 4.81333 8.21334C4.96667 8.36667 4.97333 8.66667 5.05333 8.88001C5.26165 9.57628 5.41764 10.2871 5.52 11.0067C5.85333 12.6333 6.34 14.2133 6.64667 15.8533C7 17.7867 7.66667 19.6467 8.2 21.5533C9.15333 21.12 10.08 20.72 10.9867 20.2733C12.5335 19.6184 14.1878 19.2546 15.8667 19.2C16.1133 19.2 16.3667 19.2 16.62 19.2C16.8733 19.2 16.9067 19.02 16.8733 18.8333C16.78 18.2533 16.6667 17.68 16.5733 17.1333C15.5 17.04 14.4467 16.8733 13.3933 16.88C13.0428 16.9314 12.6852 16.8625 12.3789 16.6845C12.0725 16.5066 11.8356 16.23 11.7067 15.9C11.6095 15.7478 11.4904 15.6108 11.3533 15.4933C11.1666 15.8339 11.0061 16.1883 10.8733 16.5533C10.7667 16.92 10.8733 17.0467 11.3 17.0667C11.7267 17.0867 11.9667 17.0067 12.1267 17.4133C11.9201 17.5373 11.695 17.6273 11.46 17.68C10.2467 17.76 10.1267 17.68 10.2667 16.48C10.3267 16.0733 10.2667 15.3467 11.0867 15.3267C11.16 15.3267 11.28 15.0733 11.2867 14.9333C11.2461 14.3346 11.3161 13.7334 11.4933 13.16C11.539 12.8855 11.5066 12.6037 11.4 12.3467C11.171 11.6479 11.0628 10.9152 11.08 10.18C11.09 10.0024 11.09 9.82431 11.08 9.64667C11.08 9.31334 10.8067 9.29334 10.6333 9.38001C9.86623 9.65611 9.168 10.0951 8.58667 10.6667C8.4505 10.7863 8.34499 10.9367 8.27899 11.1055C8.21299 11.2743 8.18844 11.4565 8.20737 11.6367C8.22631 11.8169 8.28819 11.99 8.38783 12.1414C8.48746 12.2927 8.62195 12.418 8.78 12.5067C9.08697 12.6707 9.42587 12.7663 9.77333 12.7867C10.2308 12.8107 10.6892 12.8107 11.1467 12.7867L10.8667 14.36ZM15.5333 32.88C16.2 32.88 16.76 32.88 17.2933 32.88C18.1027 32.852 18.9107 32.9671 19.68 33.22C20.0724 33.3623 20.4793 33.4607 20.8933 33.5133C21.7 33.527 22.5001 33.6619 23.2667 33.9133C23.7494 34.04 24.2582 34.0261 24.7333 33.8733C24.9333 33.82 25.02 33.36 25.1667 33.0933C25.2 33.0267 25.2667 32.9867 25.3 32.9267C26.4867 31.1067 27.66 29.2867 28.86 27.48C29.5267 26.46 30.28 25.48 30.98 24.4733C31.1991 24.1578 31.3973 23.8282 31.5733 23.4867C31.8067 23.0133 31.7067 22.7733 31.2 22.6133C30.6933 22.4533 30.1867 22.3867 29.6867 22.24C29.3533 22.14 29.1933 22.1933 29.02 22.54C28.6333 23.4733 28.2067 24.3933 27.7467 25.2867C27.4983 25.7724 27.206 26.2343 26.8733 26.6667C26.736 26.873 26.5228 27.0168 26.28 27.0667C25.0533 27.0667 23.8067 27.28 22.6133 26.7333C22.0999 26.5325 21.5511 26.4372 21 26.4533C20.12 26.4533 19.22 26.6267 18.3333 26.2667C18.2939 26.2444 18.2492 26.2334 18.204 26.2349C18.1587 26.2364 18.1148 26.2503 18.077 26.2751C18.0391 26.2998 18.0088 26.3346 17.9893 26.3754C17.9699 26.4163 17.962 26.4617 17.9667 26.5067C17.9667 27 18.0267 27.4867 18.0733 27.98C18.0733 28.2533 18.14 28.5333 18.1733 28.8067C18.2151 29.0518 18.1608 29.3035 18.0217 29.5096C17.8827 29.7157 17.6696 29.8603 17.4267 29.9133C16.9 30.1133 16.5333 30.6333 15.9467 30.7733C15.9156 30.7871 15.8884 30.8082 15.8675 30.835C15.8465 30.8617 15.8325 30.8932 15.8267 30.9267C15.7333 31.54 15.6667 32.16 15.56 32.88H15.5333Z" fill="#171717"/>
<path d="M22.68 6.59333C22.4667 7.79744 21.8394 8.88921 20.9067 9.68C20.6834 9.85759 20.4167 9.97225 20.1342 10.0121C19.8517 10.052 19.5637 10.0156 19.3 9.90667C18.5897 9.71998 17.9728 9.27865 17.5667 8.66667C17.165 8.04669 16.7194 7.45629 16.2333 6.9C16.1444 6.79446 16.0862 6.66651 16.065 6.53014C16.0439 6.39376 16.0606 6.25419 16.1133 6.12667C16.253 5.63656 16.4944 5.1814 16.8218 4.79084C17.1491 4.40029 17.5552 4.08312 18.0133 3.86C18.1437 3.80806 18.2706 3.74794 18.3933 3.68C18.94 3.29333 19.48 2.84667 20.0933 3.57333C20.64 3.52667 20.9933 3.7 21.0067 4.31333C21.0067 4.36 21.2467 4.39333 21.3733 4.44C22.38 4.8 22.7067 5.28667 22.68 6.59333ZM19.6133 8.92667C20.2067 8.92667 20.28 8.89333 20.5133 8.58C20.66 8.38667 20.78 8.16667 20.9467 7.98667C21.2735 7.53755 21.5007 7.0239 21.6133 6.48C21.7267 6.15333 21.54 5.88667 21.28 5.65333C21.02 5.42 20.8533 5.58 20.6133 5.65333C20.2377 5.8313 19.8378 5.95261 19.4267 6.01333C18.82 6.06667 18.0933 6.49333 17.6933 5.57333C17.6603 5.53726 17.6177 5.51124 17.5706 5.49827C17.5234 5.4853 17.4735 5.4859 17.4267 5.5C17.2716 5.63328 17.1705 5.81854 17.1423 6.02104C17.114 6.22355 17.1606 6.4294 17.2733 6.6C17.7325 7.07816 18.1311 7.61106 18.46 8.18667C18.5829 8.38999 18.7507 8.56243 18.9507 8.69072C19.1506 8.81901 19.3773 8.89973 19.6133 8.92667ZM19.3 4.88667L20.86 4.29333C19.6667 4.17333 19.6667 4.17333 19.3 4.88667Z" fill="#171717"/>
<path d="M23.72 12.0467C23.6608 12.3166 23.5405 12.5694 23.3683 12.7855C23.196 13.0016 22.9766 13.1754 22.7267 13.2933C22.2386 13.5802 21.6644 13.6841 21.1067 13.5867C21.0133 13.5867 20.9267 13.44 20.8333 13.4333C19.6067 13.3467 18.3733 13.2667 17.1467 13.2C16.9724 13.2025 16.8011 13.2459 16.6467 13.3267C16.16 13.5467 15.8333 13.2333 15.52 12.98C15.4637 12.8991 15.4293 12.8051 15.4199 12.707C15.4106 12.6089 15.4267 12.5101 15.4667 12.42C15.6515 12.1633 15.8766 11.9382 16.1333 11.7533C16.1867 11.7133 16.3933 11.7933 16.4867 11.8667C16.7733 12.12 16.44 12.08 16.34 12.1667C16.3065 12.203 16.2818 12.2465 16.2679 12.294C16.254 12.3414 16.2513 12.3914 16.26 12.44C16.2919 12.4785 16.3333 12.5079 16.38 12.5255C16.4268 12.543 16.4774 12.548 16.5267 12.54C17.5002 12.1856 18.5655 12.1739 19.5467 12.5067C19.8232 12.5605 20.1053 12.5806 20.3867 12.5667C20.7728 12.5584 21.1577 12.6124 21.5267 12.7267C21.8159 12.7953 22.1167 12.7985 22.4073 12.7363C22.6979 12.674 22.971 12.5477 23.2067 12.3667L23.72 12.0467Z" fill="#171717"/>
<path d="M22.0133 22.3933C21.4133 22.3933 21.0667 22.1533 20.9733 21.6867C20.88 21.22 21.1 20.96 21.5333 21.2C21.86 21.3733 22.16 21.26 22.4533 21.3267C22.6517 21.376 22.8408 21.4571 23.0133 21.5667C23.0733 21.6067 23.0667 21.7533 23.0933 21.8533C22.5933 21.7667 22.5067 22.52 22.0133 22.3933Z" fill="#171717"/>
<path d="M11.4067 26C11.5933 25.9 11.7733 25.7867 11.9667 25.7067C12.16 25.6267 12.8133 25.9867 12.7733 26.28C12.7733 26.3533 12.6467 26.42 12.5667 26.46C12.4867 26.5 12.2133 26.54 12.1 26.6467C12.005 26.7736 11.8818 26.8766 11.74 26.9476C11.5982 27.0186 11.4419 27.0556 11.2833 27.0556C11.1248 27.0556 10.9684 27.0186 10.8267 26.9476C10.6849 26.8766 10.5617 26.7736 10.4667 26.6467C10.3933 26.58 10.24 26.48 10.2 26.5067C9.7 26.8667 8.97334 26.4467 8.54001 27C8.51333 27.0359 8.47864 27.065 8.4387 27.085C8.39877 27.1051 8.3547 27.1156 8.31001 27.1156C8.26531 27.1156 8.22124 27.1051 8.18131 27.085C8.14137 27.065 8.10668 27.0359 8.08001 27C7.91334 26.8467 7.81334 26.7067 7.95334 26.4533C8.21334 25.96 8.48 25.5267 9.14 25.6133C9.2813 25.6362 9.42537 25.6362 9.56667 25.6133C10.7067 25.3867 10.7067 25.3867 11.4067 26Z" fill="#171717"/>
<path d="M24.3333 30.3267C24.5267 30.7333 24.3333 30.9333 24.1333 31.1467C23.8607 31.4737 23.4922 31.7069 23.08 31.8133C22.9221 31.8711 22.7543 31.8967 22.5864 31.8886C22.4184 31.8805 22.2538 31.8389 22.1023 31.7662C21.9507 31.6935 21.8152 31.5912 21.7037 31.4654C21.5923 31.3395 21.5071 31.1926 21.4533 31.0333C21.2533 30.54 21.02 30.6667 20.68 30.7333C20.4622 30.7963 20.2311 30.7963 20.0133 30.7333C19.9368 30.6973 19.8695 30.6443 19.8164 30.5785C19.7633 30.5127 19.7258 30.4357 19.7067 30.3533C19.7198 30.2697 19.7527 30.1905 19.8025 30.1221C19.8524 30.0537 19.9178 29.9981 19.9933 29.96C20.3909 29.8456 20.7965 29.7609 21.2067 29.7067C21.3778 29.6681 21.5571 29.6928 21.7115 29.7761C21.8659 29.8594 21.985 29.9958 22.0467 30.16C22.5933 31.2067 22.9933 31.2733 24.0467 30.5933C24.1267 30.5067 24.2 30.4267 24.3333 30.3267Z" fill="#171717"/>
</svg>
