<svg width="40" height="40" viewBox="0 0 40 40" fill="none" xmlns="http://www.w3.org/2000/svg">
<path d="M9.37334 30.2133C10.36 30.2133 10.9133 30.3867 11.2733 31.08C11.5738 31.5638 11.915 32.021 12.2933 32.4467C12.3978 32.6298 12.5524 32.7793 12.739 32.8775C12.9256 32.9758 13.1364 33.0186 13.3465 33.0011C13.5566 32.9836 13.7574 32.9065 13.9251 32.7787C14.0929 32.6509 14.2206 32.4779 14.2933 32.28C14.9005 31.2787 15.4459 30.2412 15.9267 29.1733C16.5639 27.3857 17.3908 25.6715 18.3933 24.06C18.84 23.2489 19.2276 22.4068 19.5533 21.54C19.98 20.6667 20.48 19.8333 20.8867 18.96C21.2933 18.0867 21.2933 17.84 20.66 17.2333C20.4588 17.0594 20.3049 16.8374 20.2128 16.5879C20.1207 16.3384 20.0934 16.0696 20.1333 15.8067C20.1035 15.2345 20.1734 14.6615 20.34 14.1133C20.5267 13.72 20.5467 13.1867 20.94 12.96C21.5407 12.6344 22.1646 12.3536 22.8067 12.12C22.8867 12.0867 23.02 12.1933 23.14 12.22C23.6867 12.3467 24.24 12.4533 24.78 12.5933C25.1117 12.69 25.4193 12.8553 25.683 13.0785C25.9467 13.3017 26.1606 13.5778 26.3108 13.8889C26.461 14.2 26.5442 14.5392 26.555 14.8845C26.5657 15.2298 26.5039 15.5735 26.3733 15.8933C26.1199 16.4858 25.7683 17.0312 25.3333 17.5067C25.2712 17.5525 25.219 17.6105 25.1798 17.677C25.1406 17.7436 25.1153 17.8174 25.1053 17.894C25.0954 17.9705 25.101 18.0483 25.1218 18.1227C25.1427 18.1971 25.1783 18.2664 25.2267 18.3267C25.9902 19.7619 26.3756 21.3679 26.3467 22.9933C26.3416 23.8894 26.6192 24.7642 27.14 25.4933C27.8533 26.52 28.42 27.6467 29.0467 28.7333C29.1467 28.9133 29.2067 29.1067 29.3133 29.28C29.6333 29.8 29.98 29.8467 30.4 29.4467C30.9708 28.9193 31.4486 28.2995 31.8133 27.6133C32.42 26.56 33.08 25.5333 33.76 24.5267C34.0959 24.0606 34.4754 23.6275 34.8933 23.2333C35.0446 23.1065 35.2303 23.0275 35.4267 23.0067C35.7333 22.9667 36.0333 23.0067 35.98 23.44C35.9798 23.7203 35.9208 23.9974 35.8067 24.2533C34.82 25.8867 33.8067 27.48 32.7933 29.1133C32.1992 29.9924 31.4038 30.7169 30.4733 31.2267C30.3193 31.3644 30.12 31.4406 29.9133 31.4406C29.7067 31.4406 29.5073 31.3644 29.3533 31.2267C28.7972 30.8164 28.2934 30.3395 27.8533 29.8067C27.0333 28.6 26.3133 27.3267 25.6 26.06C25.0079 24.938 24.7445 23.6717 24.84 22.4067C24.8123 21.1489 24.4758 19.9171 23.86 18.82C23.8086 18.6655 23.709 18.5316 23.5758 18.4379C23.4425 18.3443 23.2828 18.296 23.12 18.3C22.9566 18.2811 22.7918 18.3192 22.6533 18.4079C22.5148 18.4966 22.4112 18.6304 22.36 18.7867C22.0067 19.6 21.6267 20.4 21.2867 21.22C20.4 23.38 19.14 25.3333 18.0667 27.44C17.9 27.76 17.78 28.1067 17.6467 28.44C17.0307 30.0191 16.2556 31.5313 15.3333 32.9533C14.3867 34.38 13.0467 34.6 11.7267 33.5267C11.3176 33.1226 10.9533 32.6755 10.64 32.1933C10.4733 31.9667 10.3533 31.7 10.1667 31.5267C10.0902 31.4088 9.97024 31.3258 9.83291 31.2958C9.69559 31.2659 9.55199 31.2913 9.43334 31.3667C8.42155 31.8244 7.57787 32.5865 7.02 33.5467C6.42667 34.5133 5.90667 35.5467 5.34667 36.5067C5.17849 36.8278 4.98918 37.1373 4.78 37.4333C4.72161 37.5056 4.64874 37.5649 4.56608 37.6074C4.48342 37.6499 4.39278 37.6746 4.3 37.68C3.93334 37.68 4.03334 37.3267 4.06667 37.1067C4.11254 36.9125 4.18667 36.726 4.28667 36.5533C4.86 35.4 5.41334 34.2267 6.02 33.0867C6.59564 32.0517 7.4177 31.1747 8.41334 30.5333C8.7116 30.3701 9.03676 30.2617 9.37334 30.2133Z" fill="#171717"/>
<path d="M30.7667 15.2933C31.22 15.1867 31.48 15.12 31.74 15.0667C32 15.0133 32.4067 14.9667 32.68 14.8867C32.7908 14.8688 32.897 14.8293 32.9925 14.7704C33.088 14.7115 33.171 14.6343 33.2366 14.5433C33.3023 14.4522 33.3493 14.3491 33.3751 14.2399C33.4008 14.1307 33.4048 14.0174 33.3867 13.9067C33.3467 12.8733 33.3867 11.8333 33.3867 10.8C33.3755 10.5587 33.3375 10.3195 33.2733 10.0867C32.938 8.83569 32.7149 7.55729 32.6067 6.26667C32.5665 5.50011 32.3594 4.75158 32 4.07333C31.9164 3.86862 31.7717 3.69471 31.5855 3.57538C31.3994 3.45606 31.1809 3.39713 30.96 3.40667C30.0267 3.46 29.0667 3.18 28.1667 3.62C26.7067 3.51333 25.2467 3.68667 23.76 3.46667C22.3026 3.17938 20.7996 3.22037 19.36 3.58667C19.2419 3.61347 19.1211 3.62689 19 3.62667C17.2467 3.72 15.48 3.74 13.7333 3.91333C12.4413 3.96482 11.1553 4.11638 9.88667 4.36667C8.98355 4.61743 8.12295 5.00167 7.33334 5.50667C7.0285 5.71413 6.77835 5.99223 6.60423 6.31726C6.4301 6.6423 6.33716 7.00462 6.33334 7.37333C6.26 8.36667 6.33334 9.37333 6.33334 10.3533C6.37423 10.5477 6.42768 10.7392 6.49334 10.9267C6.67811 11.6334 6.78981 12.3572 6.82667 13.0867C6.78667 13.9267 6.96 14.0467 7.83334 14.0667C8.12667 14.0667 8.41334 14.0667 8.7 14.0667C9.30887 14.0674 9.91621 14.1277 10.5133 14.2467C11.1192 14.312 11.7317 14.2782 12.3267 14.1467C12.4067 14.1467 12.48 14.0867 12.56 14.08C13.6933 13.9867 14.8333 13.94 15.9667 13.7933C17.0919 13.6058 18.2335 13.5343 19.3733 13.58C19.8918 13.6357 20.402 13.7521 20.8933 13.9267C21.22 14.0333 21.24 14.36 21 14.5933C20.9085 14.7296 20.7842 14.8406 20.6386 14.9163C20.493 14.9921 20.3307 15.03 20.1667 15.0267C19.6717 14.9933 19.175 14.9933 18.68 15.0267C17.2933 15.0933 15.9133 15.08 14.52 15.2133C12.3356 15.3434 10.1458 15.3567 7.96 15.2533C7.55365 15.2626 7.15109 15.1734 6.78667 14.9933C6.26 14.6933 5.75334 14.3267 5.82 13.56C5.86426 12.5034 5.72208 11.4473 5.4 10.44C5.31635 10.2043 5.30475 9.949 5.36667 9.70667C5.57496 8.87262 5.64478 8.01002 5.57334 7.15333C5.58273 6.64652 5.73219 6.15219 6.00517 5.72507C6.27815 5.29795 6.664 4.95471 7.12 4.73333C8.2434 4.0266 9.48577 3.52965 10.7867 3.26667C10.9373 3.21519 11.0909 3.17289 11.2467 3.14C12.7533 3.14 14.26 3.08 15.7733 2.92667C17.18 2.78 18.5867 2.58 19.9867 2.45333C21.4525 2.2526 22.9414 2.29539 24.3933 2.58C25.3269 2.78301 26.2931 2.78301 27.2267 2.58C28.7467 2.24667 30.2533 2.44667 31.76 2.42C31.9373 2.4395 32.109 2.49439 32.2647 2.58142C32.4204 2.66845 32.5571 2.78585 32.6667 2.92667C33.1036 3.45356 33.424 4.06702 33.6067 4.72667C33.9667 6.41333 33.9867 8.16667 34.54 9.83333C34.6545 10.4939 34.6724 11.1676 34.5933 11.8333C34.5933 12.4533 34.5933 13.0733 34.5933 13.7C34.6212 14.0012 34.5858 14.3049 34.4896 14.5917C34.3933 14.8784 34.2382 15.1419 34.0343 15.3653C33.8304 15.5887 33.582 15.7671 33.3052 15.889C33.0284 16.0109 32.7292 16.0737 32.4267 16.0733C31.7267 16.1133 31.5733 16.06 30.7667 15.2933Z" fill="#171717"/>
<path d="M16.7667 6.36C16.9267 6.36 17.1333 6.36 17.2467 6.41334C18.3467 7.2 19.52 6.87334 20.6333 6.56C21.1004 6.43147 21.5822 6.36424 22.0667 6.36C22.9733 6.36 23.88 6.36 24.7867 6.36C25.6462 6.43584 26.5122 6.33836 27.3333 6.07334C27.8393 5.93234 28.3615 5.85837 28.8867 5.85334C29.6 5.77334 29.8867 6.32667 30.26 6.74C30.3067 6.79334 30.2 7.03334 30.12 7.15334C30.04 7.27334 29.8867 7.26 29.8467 7.22C29.1 6.55334 28.2733 6.96667 27.54 7.14C26.2357 7.5599 24.8474 7.64924 23.5 7.4C22.4126 7.18879 21.2883 7.27634 20.2467 7.65334C19.242 8.00527 18.1399 7.95268 17.1733 7.50667C16.6791 7.31294 16.1382 7.27115 15.62 7.38667C13.995 7.74884 12.3306 7.9034 10.6667 7.84667C10.3914 7.81812 10.1243 7.73663 9.88001 7.60667C9.81334 7.60667 9.75334 7.38667 9.77334 7.3C9.79334 7.21334 9.94001 7.14667 10.04 7.12667C10.204 7.11 10.3693 7.11 10.5333 7.12667C11.738 7.10836 12.9367 6.95405 14.1067 6.66667C14.9894 6.5347 15.8808 6.47007 16.7733 6.47334L16.7667 6.36Z" fill="#171717"/>
<path d="M18.56 11.38C17.7267 11.2333 17.0067 11.54 16.3733 11.0933C16.26 11.0133 16.0533 10.84 16.0667 10.82C16.1544 10.6456 16.2852 10.4964 16.4467 10.3867C16.5971 10.3304 16.7629 10.3304 16.9133 10.3867C17.6441 10.62 18.4293 10.62 19.16 10.3867C20.6318 10.0766 22.14 9.9756 23.64 10.0867C23.7467 10.0867 23.9333 10.1933 23.9333 10.2267C23.9333 10.3733 23.8733 10.5667 23.7667 10.64C23.5963 10.7401 23.4041 10.7973 23.2067 10.8067C22.6449 10.8346 22.0858 10.9014 21.5333 11.0067C20.5526 11.2033 19.5589 11.3281 18.56 11.38Z" fill="#171717"/>
</svg>
