<svg width="30" height="28" viewBox="0 0 30 28" fill="none" xmlns="http://www.w3.org/2000/svg">
<path d="M17.08 25.1422C16.5778 25.1922 16.1076 25.4116 15.7467 25.7644C15.7101 25.8188 15.6633 25.8656 15.6089 25.9022C15.5556 25.9333 15.4756 25.96 15.4356 25.9378C15.3956 25.9156 15.3689 25.8267 15.3778 25.7733C15.4356 25.4267 15.44 25.4356 15.1511 25.4267C15.0003 25.42 14.8525 25.4708 14.7378 25.5689C14.6597 25.6688 14.5543 25.7439 14.4344 25.7849C14.3144 25.8259 14.1851 25.8312 14.0622 25.8L14.4222 25.3556C14.2539 25.244 14.0501 25.1991 13.8505 25.2295C13.6509 25.2599 13.4697 25.3634 13.3422 25.52C13.1674 25.6771 12.9768 25.8156 12.7733 25.9333C12.7342 25.8711 12.7111 25.8001 12.7061 25.7268C12.7012 25.6534 12.7145 25.58 12.7449 25.513C12.7753 25.4461 12.8218 25.3877 12.8803 25.3432C12.9388 25.2986 13.0074 25.2693 13.08 25.2578C13.08 25.2267 13.0533 25.1822 13.0311 25.1733L12.5422 25.0444C12.4933 25.2889 12.2133 25.1644 12.0978 25.3156C12.0489 25.3867 11.9689 25.44 11.9156 25.5067C11.859 25.5927 11.8071 25.6817 11.76 25.7733C11.5333 25.3067 11.9022 25.1911 12.0311 24.96C11.1194 24.6421 10.2774 24.1517 9.55111 23.5156C8.08481 22.2531 7.02283 20.5867 6.49778 18.7244C6.24049 18.0679 6.09914 17.3716 6.08 16.6667C5.33778 16.4356 4.83556 16.0622 4.09333 15.7778C3.49333 15.5689 2.90667 15.3022 2.31556 15.0667C2.01778 14.9467 1.71556 14.8444 1.42667 14.7378C1.39111 14.7378 1.33778 14.7378 1.29778 14.7378C1.19246 14.7185 1.0939 14.6723 1.01164 14.6038C0.929385 14.5352 0.866206 14.4466 0.828219 14.3465C0.790231 14.2464 0.778719 14.1382 0.794798 14.0323C0.810877 13.9265 0.854001 13.8265 0.920001 13.7422C1.17453 13.3516 1.45361 12.9775 1.75556 12.6222C2.27556 11.9822 2.81778 11.36 3.34667 10.7289C3.71111 10.2844 4.07111 9.86666 4.42222 9.42222C5.14667 8.49333 10.7689 2.40444 11 1.79555C11.1659 1.44499 11.3749 1.11652 11.6222 0.817774C11.6517 0.778529 11.6899 0.746797 11.734 0.72517C11.778 0.703543 11.8265 0.692633 11.8756 0.69333C12.1907 0.747951 12.4981 0.840474 12.7911 0.968885C13.5156 1.33777 13.7778 1.29333 14.4844 1.70222C15.3733 2.22666 16.2844 2.77777 17.1956 3.30222C17.88 3.69777 18.5778 4.06666 19.2711 4.45333C19.7556 4.72444 21.1289 5.44 21.6044 5.72444C21.7244 5.79555 21.8 5.84444 21.9467 5.75111C22.1362 5.60534 22.3743 5.5375 22.6123 5.56146C22.8502 5.58542 23.07 5.69936 23.2267 5.88C23.452 6.05466 23.6016 6.30925 23.6444 6.59111C23.6444 6.75555 23.7422 6.91555 23.7689 7.08444C23.7956 7.25333 25.3733 7.88444 26.2267 8.28444C26.9183 8.57616 27.5856 8.92243 28.2222 9.32C28.4969 9.48682 28.7598 9.67245 29.0089 9.87555C29.0735 9.92602 29.1264 9.98985 29.164 10.0627C29.2017 10.1355 29.2231 10.2156 29.2269 10.2975C29.2307 10.3794 29.2168 10.4611 29.1861 10.5371C29.1553 10.6131 29.1085 10.6815 29.0489 10.7378C28.2222 11.7422 28.3244 11.8889 27.4 12.8178C26.3867 13.84 25.8978 14.4933 24.9111 15.5822C25.2089 16.1822 25.1022 17.24 25.5289 17.8044C25.9556 18.3689 25.8 18.6933 25.4089 18.9867C25.3268 19.0546 25.2261 19.0964 25.12 19.1067C24.7956 19.1067 24.4756 19.0667 24.1511 19.0444C24.0756 19.0444 23.9644 19.0133 23.9244 19.0444C23.7961 19.1628 23.6333 19.2371 23.4598 19.2563C23.2862 19.2755 23.1111 19.2386 22.96 19.1511C22.7778 19.08 22.7511 19.1511 22.6978 19.3022C22.5333 19.7467 22.3556 20.1911 22.1778 20.6044C21.9064 21.2173 21.5304 21.7783 21.0667 22.2622C20.5615 22.8222 20.0196 23.3478 19.4444 23.8356C18.7867 24.4044 18.0267 24.8222 17.4044 25.4267C17.3556 25.4711 17.3111 25.5333 17.2533 25.5511C17.12 25.6 16.9022 25.6933 16.8622 25.6444C16.7111 25.4756 16.9556 25.4089 17.0133 25.2844C17.0089 25.2622 17.0222 25.2489 17.08 25.1422ZM14.7956 8.59555C14.1147 8.65485 13.4407 8.77685 12.7822 8.96C11.9696 9.31591 11.2002 9.76324 10.4889 10.2933C9.87774 10.7703 9.29733 11.2854 8.75111 11.8356C8.60889 11.9644 8.2 12.4889 8.08 12.6356C7.6832 13.2113 7.36205 13.8357 7.12445 14.4933C6.82172 15.1774 6.68906 15.9246 6.73778 16.6711C6.73778 16.7778 6.89333 17.9467 7.02667 18.5467C7.19535 19.0972 7.41713 19.6301 7.68889 20.1378C7.96329 20.8168 8.3477 21.446 8.82667 22C9.58356 22.9255 10.5493 23.6582 11.6444 24.1378C12.1374 24.3435 12.6591 24.4724 13.1911 24.52C13.7302 24.5144 14.2682 24.5681 14.7956 24.68C15.3618 24.8042 15.951 24.7751 16.5022 24.5956C16.5822 24.5956 16.6622 24.5333 16.7467 24.5244C17.4092 24.444 18.0304 24.1598 18.5244 23.7111C19.1556 23.16 19.8222 22.6444 20.4178 22.04C21.2602 21.1452 21.8305 20.0291 22.0622 18.8222C22.1333 18.5067 22.0889 18.44 21.8089 18.52C21.6533 18.5644 21.6044 18.4978 21.5689 18.4178C21.5596 18.3827 21.5597 18.3458 21.569 18.3107C21.5784 18.2756 21.5967 18.2436 21.6222 18.2178C21.7422 18.1689 21.8089 18.1244 21.7556 17.9867C21.6548 17.7018 21.6172 17.3983 21.6456 17.0974C21.674 16.7965 21.7677 16.5055 21.92 16.2444C22.183 15.7407 22.2706 15.1636 22.1689 14.6044C22.0844 14.1333 22.1378 13.1022 21.7244 12.7378C21.3378 12.0533 21.2133 11.5778 20.6489 11.1022C20.1506 10.6291 19.5952 10.22 18.9956 9.88444C18.2356 9.53333 18.1067 9.25333 17.2933 9.05777C16.4766 8.8278 15.6405 8.67308 14.7956 8.59555ZM23.4444 16.6311C23.1469 16.3106 22.9873 15.886 23 15.4489C23.0178 15.3176 23.0178 15.1846 23 15.0533C23 14.9956 22.8978 14.9556 22.8444 14.9022C22.8089 14.9511 22.7422 15 22.7511 15.04C22.8011 15.6756 22.6178 16.3076 22.2356 16.8178C22.2023 16.8739 22.1797 16.9357 22.1689 17C22.1051 17.1783 22.072 17.3662 22.0711 17.5556C22.1184 17.7983 22.224 18.0259 22.3789 18.2187C22.5338 18.4115 22.7332 18.5637 22.96 18.6622C23.0799 18.7382 23.22 18.7763 23.3619 18.7716C23.5038 18.7668 23.641 18.7194 23.7556 18.6356C23.7822 18.6022 23.816 18.5753 23.8545 18.5568C23.893 18.5383 23.9351 18.5287 23.9778 18.5287C24.0205 18.5287 24.0626 18.5383 24.1011 18.5568C24.1395 18.5753 24.1734 18.6022 24.2 18.6356C24.5644 18.8889 24.8533 18.6978 25.1378 18.4978C25.1618 18.4842 25.1818 18.4646 25.1958 18.4407C25.2097 18.4169 25.217 18.3898 25.217 18.3622C25.217 18.3346 25.2097 18.3075 25.1958 18.2837C25.1818 18.2599 25.1618 18.2402 25.1378 18.2267C24.8 17.9689 25.0756 17.5867 24.8578 17.24C24.4971 16.5671 24.2309 15.8478 24.0667 15.1022C24.0667 14.9556 23.5289 14.9289 23.4044 14.9289C23.28 14.9289 23.2356 15.0178 23.2178 15.1378C23.2138 15.4545 23.2919 15.7668 23.4444 16.0444C23.5206 16.2326 23.5206 16.443 23.4444 16.6311ZM23.12 12.6311C23.1467 12.6311 23.6222 12.6089 23.6533 12.6C23.7067 11.9333 23.3467 11.2667 23.3556 10.6044C23.4157 9.51282 23.377 8.41799 23.24 7.33333C23.227 7.09936 23.1791 6.86865 23.0978 6.64888C23.0049 6.45405 22.8642 6.28588 22.6889 6.16C22.5733 6.08 22.3778 6.11111 22.0889 6.07555C22.72 6.62222 22.4356 6.33333 22.4044 7.01333C22.3502 7.4568 22.3592 7.90572 22.4311 8.34666C22.6844 9.15555 22.3022 9.39555 22.6044 10.1822C22.44 10.4044 22.5644 10.6578 22.6044 10.8889C22.6309 11.1846 22.6309 11.4821 22.6044 11.7778C22.5822 12.0143 22.5822 12.2524 22.6044 12.4889C22.6133 12.6133 23.0756 12.5333 23.1289 12.6667L23.12 12.6311ZM24.2844 13.8756C24.1173 13.5259 23.8536 13.2313 23.5244 13.0267C23.2506 12.9383 22.9542 12.9509 22.6889 13.0622C22.5644 13.1956 22.3467 13.3289 22.52 13.5956C22.5822 13.6889 22.5556 13.84 22.5733 13.9689C22.5722 14.0617 22.5954 14.1533 22.6406 14.2344C22.6857 14.3156 22.7513 14.3835 22.8307 14.4316C22.9102 14.4796 23.0008 14.5061 23.0936 14.5083C23.1865 14.5106 23.2783 14.4886 23.36 14.4444C23.4489 14.4133 23.9689 14.3467 24.0444 14.2978L23.7289 14.0622C23.5867 13.9467 23.4711 13.8 23.6133 13.6178C23.6444 13.5778 23.8311 13.6622 23.9378 13.6978C24.0444 13.7333 24.0889 13.7911 24.2933 13.8889L24.2844 13.8756Z" fill="#171717"/>
<path d="M20.2578 24.5378C19.8711 24.92 19.4933 25.3022 19.0978 25.6755C19.0129 25.7269 18.9196 25.763 18.8222 25.7822C18.8222 25.6622 18.7778 25.4933 18.8222 25.4222C19.1378 25.0711 19.4756 24.7378 19.8133 24.4044C20.0311 24.2222 20.1422 24.3644 20.2578 24.5378Z" fill="#171717"/>
<path d="M22.6044 24.7022C22.6044 24.8178 22.6044 24.8756 22.6044 24.9067C22.3394 25.2752 21.9945 25.579 21.5956 25.7956C21.5655 25.8012 21.5346 25.7996 21.5053 25.7912C21.476 25.7827 21.449 25.7674 21.4267 25.7467C21.4078 25.719 21.3956 25.6874 21.391 25.6542C21.3864 25.6211 21.3895 25.5873 21.4 25.5555C21.7067 25.2311 22.0178 24.9067 22.3467 24.6044C22.36 24.5644 22.52 24.6667 22.6044 24.7022Z" fill="#171717"/>
<path d="M20.0844 25.6889C20.0844 25.6222 19.9956 25.5111 20.0178 25.4889C20.3778 25.1511 20.7467 24.8178 21.1244 24.4933C21.1516 24.4782 21.1822 24.4702 21.2133 24.4702C21.2445 24.4702 21.2751 24.4782 21.3022 24.4933C21.3213 24.5175 21.3337 24.5461 21.3384 24.5765C21.3431 24.6069 21.3398 24.6379 21.3289 24.6667C21.1997 24.8759 21.0509 25.0724 20.8844 25.2533C20.7161 25.4014 20.5346 25.5338 20.3422 25.6489C20.2591 25.6764 20.172 25.6899 20.0844 25.6889Z" fill="#171717"/>
<path d="M23.9556 24.8044C23.7644 24.9866 23.5822 25.1867 23.3733 25.3555C23.3067 25.4044 23.1689 25.3555 23.0622 25.3555C23.0622 25.2755 23.0622 25.1822 23.0622 25.1244C23.1454 24.9629 23.2501 24.8134 23.3733 24.68C23.6 24.4889 23.7911 24.5466 23.9556 24.8044Z" fill="#171717"/>
<path d="M10.6756 25.3689C10.6533 25.4355 10.6533 25.4933 10.6267 25.5155C10.5215 25.5933 10.4117 25.6646 10.2978 25.7289C10.1733 25.8 10.1156 26.0222 9.91111 25.9155C9.8 25.8533 9.91111 25.6533 10.1244 25.4978C10.2514 25.4123 10.3888 25.3436 10.5333 25.2933C10.5556 25.28 10.6311 25.3422 10.6756 25.3689Z" fill="#171717"/>
<path d="M24.7422 25.2711C24.6514 25.3223 24.5562 25.3655 24.4578 25.4C24.3244 25.4 24.2311 25.3511 24.2533 25.2133C24.2756 25.0756 24.3289 25.08 24.3733 25.0133L24.7422 25.2711Z" fill="#171717"/>
<path d="M9.24889 26.8444C9.21675 26.7489 9.19295 26.6508 9.17778 26.5511C9.17778 26.3644 9.30667 26.3333 9.44 26.3733C9.49778 26.3733 9.57778 26.5289 9.56445 26.5467C9.46744 26.6542 9.36191 26.7538 9.24889 26.8444Z" fill="#171717"/>
<path d="M18.7956 26.1067C18.6711 26.24 18.5911 26.3156 18.52 26.4C18.4489 26.4844 18.4 26.4756 18.32 26.4C18.24 26.3244 18.32 26.1911 18.3778 26.16C18.5142 26.1245 18.6546 26.1066 18.7956 26.1067Z" fill="#171717"/>
<path d="M8.96 25.5555C8.82666 25.6622 8.73778 25.7467 8.63555 25.8133C8.63555 25.8133 8.54666 25.7422 8.50222 25.7067C8.58886 25.6069 8.68085 25.512 8.77778 25.4222C8.84327 25.4598 8.90439 25.5045 8.96 25.5555Z" fill="#171717"/>
<path d="M15.4044 27.08L15.1822 27.3111C15.1467 27.2489 15.0756 27.1822 15.0756 27.12C15.0756 27.0578 15.1467 26.9955 15.1867 26.9333L15.4044 27.08Z" fill="#171717"/>
<path d="M11.3289 26.56C11.3289 26.56 11.3289 26.6045 11.3022 26.6089C11.2133 26.6622 11.12 26.7111 11.0267 26.76L10.9644 26.5822C11.0667 26.5822 11.1689 26.5378 11.2756 26.5245C11.2889 26.52 11.3111 26.5467 11.3289 26.56Z" fill="#171717"/>
<path d="M7.52 25.5022C7.58222 25.5911 7.64889 25.6667 7.64 25.68C7.5947 25.7405 7.533 25.7868 7.46222 25.8133C7.40889 25.8133 7.34222 25.7778 7.28 25.7556L7.52 25.5022Z" fill="#171717"/>
<path d="M20.1644 26.3867L20.0044 26.2711L20.1378 26.1067C20.1778 26.1467 20.24 26.1778 20.2489 26.2222C20.2578 26.2667 20.2044 26.32 20.1644 26.3867Z" fill="#171717"/>
<path d="M11.5378 19.3644C11.5956 19.1733 12.0222 17.4222 12.2889 16.3955C12.2923 16.3447 12.2831 16.2937 12.2622 16.2472C12.2413 16.2007 12.2092 16.1601 12.1689 16.1289C11.4256 15.5053 10.6198 14.9601 9.76445 14.5022C9.41778 14.1511 9.13778 13.72 9.61334 13.6133C10.0889 13.5067 12.9822 13.2533 13.0133 13.1689C13.2489 12.6711 13.2844 12.16 13.5289 11.6667C13.6889 11.3511 14.32 10.5111 14.5422 10.7422C14.9676 11.1444 15.3586 11.5815 15.7111 12.0489C16.1556 12.6222 15.8933 12.9911 16.4178 12.8711C17.2667 12.8711 18.5289 12.8711 19.7422 12.7867C20.0044 12.8755 20.0133 13.1733 19.7733 13.3911C19.5333 13.6089 19.1645 13.8622 18.8844 14.1289C18.44 14.5733 17.9956 15.0622 17.5511 15.5467C17.5259 15.6043 17.5152 15.6672 17.5199 15.73C17.5245 15.7927 17.5444 15.8533 17.5778 15.9067C18.1778 16.6755 18.8622 18.36 18.84 18.8267C18.8461 18.9175 18.8297 19.0085 18.7924 19.0915C18.755 19.1746 18.6978 19.2472 18.6258 19.3029C18.5538 19.3587 18.4692 19.3959 18.3795 19.4113C18.2897 19.4266 18.1976 19.4197 18.1111 19.3911C17.1178 18.9968 16.15 18.5411 15.2133 18.0267C15.1022 17.96 15.0311 17.9289 14.9156 18.0267C14.0002 18.7065 13.0492 19.337 12.0667 19.9155C11.8 20.0178 11.5333 19.7778 11.5378 19.3644Z" fill="#171717"/>
<path d="M15.3289 23.0489C15.3289 23.1022 15.3289 23.1289 15.3289 23.1467C15.1324 23.6355 14.8527 24.0866 14.5022 24.48C14.4603 24.5042 14.4128 24.5169 14.3644 24.5169C14.3161 24.5169 14.2686 24.5042 14.2267 24.48C14.1644 24.4311 14.16 24.2978 14.1467 24.2C14.1333 24.1022 14.1956 24.1289 14.2222 24.0933C14.4667 23.7244 14.7067 23.3555 14.9644 22.9955C15.0044 22.9422 15.1244 22.9333 15.2089 22.9333C15.2933 22.9333 15.3022 23.0222 15.3289 23.0489Z" fill="#171717"/>
<path d="M18.6356 22.48C18.6005 22.7798 18.5033 23.069 18.3502 23.3292C18.1972 23.5893 17.9916 23.8148 17.7467 23.9911C17.7207 24.0051 17.6917 24.0124 17.6622 24.0124C17.6327 24.0124 17.6037 24.0051 17.5778 23.9911C17.5634 23.9637 17.5558 23.9332 17.5558 23.9022C17.5558 23.8712 17.5634 23.8407 17.5778 23.8133C17.8886 23.4366 18.1063 22.992 18.2133 22.5156C18.24 22.3556 18.2889 22.2311 18.4489 22.2844C18.5556 22.2933 18.5956 22.4444 18.6356 22.48Z" fill="#171717"/>
<path d="M16.8622 23.2C16.7663 23.6641 16.5449 24.093 16.2222 24.44C16.16 24.5067 16.0356 24.5111 15.9422 24.5467C15.9422 24.4622 15.8756 24.3733 15.8933 24.2978C15.9321 24.1739 15.9842 24.0547 16.0489 23.9422C16.1867 23.6667 16.32 23.3867 16.4933 23.1244C16.5422 23.0444 16.6622 23.0089 16.7467 22.9511L16.8622 23.2Z" fill="#171717"/>
<path d="M12.8533 24.4489C12.8542 24.323 12.8767 24.1982 12.92 24.08C13.1156 23.8133 13.3333 23.5556 13.5467 23.3022C13.569 23.2793 13.5961 23.2614 13.626 23.2499C13.656 23.2384 13.688 23.2335 13.72 23.2356C13.7644 23.2356 13.8133 23.3244 13.8178 23.3778C13.8438 23.5329 13.8205 23.6922 13.7511 23.8334C13.6817 23.9745 13.5698 24.0903 13.4311 24.1645C13.2622 24.2578 13.0889 24.3333 12.8533 24.4489Z" fill="#171717"/>
<path d="M19.2178 22.8889L19.7644 21.4889C19.8567 21.6725 19.9006 21.8766 19.892 22.0819C19.8835 22.2872 19.8228 22.4869 19.7156 22.6622C19.7018 22.7126 19.6772 22.7593 19.6434 22.7991C19.6095 22.8389 19.5674 22.8707 19.5199 22.8924C19.4723 22.914 19.4206 22.9249 19.3684 22.9243C19.3162 22.9237 19.2648 22.9116 19.2178 22.8889Z" fill="#171717"/>
<path d="M11.7289 24.0444C11.7022 23.9778 11.6356 23.88 11.6578 23.8444C11.8756 23.56 12.1022 23.2844 12.3333 23.0133C12.3333 23.0133 12.44 23.0133 12.4844 23.04C12.5289 23.0667 12.5778 23.1244 12.5689 23.1378C12.4548 23.4827 12.2489 23.79 11.9733 24.0267C11.9244 24.04 11.8444 24.0267 11.7289 24.0444Z" fill="#171717"/>
<path d="M20.8933 21.8089C20.8311 21.7067 20.72 21.6 20.72 21.4978C20.7307 21.3025 20.7681 21.1096 20.8311 20.9244C20.8311 20.8622 20.9378 20.76 20.9778 20.7689C21.0595 20.7953 21.13 20.8486 21.1778 20.92C21.1676 21.214 21.0933 21.5022 20.96 21.7644L20.8933 21.8089Z" fill="#171717"/>
<path d="M11.08 23.3333C11.08 23.4089 11.08 23.4711 11.08 23.4978C10.9968 23.5921 10.9077 23.6812 10.8133 23.7644C10.7689 23.7022 10.6844 23.64 10.6844 23.5733C10.6802 23.5341 10.6838 23.4944 10.6953 23.4566C10.7067 23.4188 10.7256 23.3837 10.751 23.3534C10.7763 23.3231 10.8074 23.2982 10.8426 23.2803C10.8778 23.2623 10.9162 23.2516 10.9556 23.2489C11 23.2266 11.0489 23.2933 11.08 23.3333Z" fill="#171717"/>
<path d="M9.24889 22.2756C9.15557 22.2371 9.06865 22.1846 8.99111 22.12C8.96899 22.0888 8.95361 22.0533 8.94596 22.0158C8.9383 21.9783 8.93855 21.9396 8.94667 21.9022C8.94667 21.8756 9.06667 21.84 9.11556 21.8533C9.21589 21.8843 9.30941 21.9341 9.39111 22C9.4107 22.0238 9.4245 22.0519 9.43144 22.082C9.43838 22.112 9.43827 22.1433 9.43111 22.1733C9.40889 22.2178 9.32889 22.2356 9.24889 22.2756Z" fill="#171717"/>
<path d="M21.9867 19.8666C21.8667 19.9511 21.7956 20.0311 21.7156 20.0489C21.6356 20.0666 21.5822 19.9778 21.5156 19.9378C21.5958 19.8449 21.6819 19.7574 21.7733 19.6755C21.8509 19.7317 21.9224 19.7957 21.9867 19.8666Z" fill="#171717"/>
<path d="M8.75111 21.2044C8.69333 21.2711 8.66222 21.3422 8.61333 21.3644C8.43556 21.4356 8.40444 21.2756 8.36889 21.1689C8.36889 21.1378 8.45333 21.0356 8.46667 21.04C8.5656 21.0874 8.6607 21.1423 8.75111 21.2044Z" fill="#171717"/>
<path d="M10.0489 22.8178C9.98452 22.8589 9.91599 22.8932 9.84445 22.92C9.78904 22.8639 9.74789 22.7953 9.72445 22.72C9.72445 22.6756 9.76889 22.6178 9.79556 22.5645L10.0489 22.8178Z" fill="#171717"/>
<path d="M24.0133 18.4444C23.9245 18.4933 23.8667 18.5556 23.8267 18.5467C23.5874 18.4349 23.385 18.2572 23.2433 18.0344C23.1016 17.8116 23.0264 17.553 23.0267 17.2889C23.0267 17.2133 23.1422 17.1511 23.2 17.0844C23.2622 17.1422 23.3467 17.1911 23.3822 17.2622C23.4106 17.3481 23.4212 17.4388 23.4133 17.5289C23.3979 17.6737 23.4287 17.8196 23.5014 17.9458C23.574 18.0719 23.6848 18.1718 23.8178 18.2311C23.8889 18.2533 23.9333 18.3422 24.0133 18.4444Z" fill="#171717"/>
</svg>
