<svg width="20" height="20" viewBox="0 0 20 20" fill="none" xmlns="http://www.w3.org/2000/svg">
<circle cx="10" cy="10" r="9" fill="#189D39" stroke="#189D39" stroke-width="2"/>
<path d="M9.5 13L9.125 13.5L9.61631 13.8685L9.99335 13.3837L9.5 13ZM13 8.5L13.4933 8.88371L13.5012 8.87365L13.5086 8.86327L13 8.5ZM15.5 5L8.93095 7.98847L14.8036 12.1832L15.5 5ZM6.92298 12.4232L6.39298 12.092L6.92298 12.4232ZM5.53 15.8312L7.45298 12.7545L6.39298 12.092L4.47 15.1688L5.53 15.8312ZM7.99598 12.6532L9.125 13.5L9.875 12.5L8.74598 11.6532L7.99598 12.6532ZM9.99335 13.3837L13.4933 8.88371L12.5067 8.11629L9.00665 12.6163L9.99335 13.3837ZM7.45298 12.7545C7.56939 12.5682 7.82025 12.5214 7.99598 12.6532L8.74598 11.6532C7.98452 11.0821 6.89745 11.2848 6.39298 12.092L7.45298 12.7545Z" fill="white"/>
</svg>
