<svg width="90" height="90" viewBox="0 0 90 90" fill="none" xmlns="http://www.w3.org/2000/svg">
<path d="M49.1699 18.63C49.627 16.9739 50.6228 15.5172 52 14.49C52.1943 14.3078 52.4375 14.1862 52.7 14.14C54.2099 13.96 55.8499 13.76 57 14.87C58.2682 16.0225 59.1103 17.5694 59.3899 19.26C59.415 19.4224 59.415 19.5877 59.3899 19.75C59.3022 20.1613 59.3526 20.5901 59.5334 20.9698C59.7142 21.3495 60.0153 21.6589 60.3899 21.85C62.4395 23.2563 64.2181 25.0213 65.6399 27.06C66.2337 27.9422 66.7268 28.8881 67.11 29.88C67.5665 30.9432 67.9409 32.0397 68.23 33.16C68.7582 34.9981 68.8877 36.9278 68.61 38.82C68.18 41.39 67.1499 43.82 66.7399 46.34C66.6508 46.698 66.5906 47.0625 66.5599 47.43C66.4766 49.0957 66.4766 50.7644 66.5599 52.43C66.6472 54.619 67.3395 56.7409 68.5599 58.56C68.699 58.7208 68.8044 58.9078 68.87 59.11C69.2445 60.1692 69.9142 61.099 70.8 61.79C71.1 62.11 71.4299 62.4 71.6999 62.74C72.1924 63.3882 72.5373 64.1361 72.7106 64.9314C72.8839 65.7268 72.8815 66.5504 72.7034 67.3447C72.5253 68.139 72.1758 68.8848 71.6795 69.53C71.1832 70.1752 70.552 70.7042 69.83 71.08C67.6505 72.2652 65.2821 73.0637 62.83 73.44C60.34 73.84 57.83 73.56 55.4 73.68C54.5 73.12 53.96 73.68 53.4 74.32C52.8112 75.0996 51.9575 75.6367 51 75.83C50.6783 75.9416 50.3404 75.999 50 76C49.104 75.9218 48.2149 75.7781 47.34 75.57C46.5447 75.3462 45.8024 74.9654 45.1566 74.4502C44.5109 73.935 43.9748 73.2957 43.58 72.57C43.07 73.51 42.2599 73.15 41.5099 73.05C38.9699 72.69 36.7199 71.43 34.2999 70.74C29.9799 69.51 26.3 67.06 22.64 64.65C21.485 63.9632 20.4344 63.1146 19.52 62.13C18.3536 60.8145 17.5748 59.2015 17.27 57.47C17.1132 56.8645 17.0802 56.2336 17.173 55.615C17.2658 54.9964 17.4824 54.4029 17.81 53.87C17.81 53.87 17.9 53.76 17.89 53.74C17.12 52.62 18.2 52.64 18.75 52.24C20.92 50.67 23.3 49.37 25.08 47.31C26.6706 45.5862 27.8291 43.5092 28.46 41.25C28.87 39.6 29.14 37.95 29.41 36.25C30.02 32.36 31.2599 28.75 34.2799 25.95C35.583 24.5859 37.0317 23.3686 38.5999 22.32C40.3899 21.32 42.2099 20.32 44.0299 19.32C44.9699 18.8019 46.0393 18.5658 47.11 18.64C47.78 18.67 48.4299 18.63 49.1699 18.63ZM52.54 62L52.65 62.26L52.7999 62.13L52.5299 62L52.4199 61.73L52.2799 61.88L52.54 62ZM54.81 62.68L54.7 62.43L54.59 62.54L54.84 62.64C54.84 62.75 54.79 62.89 54.84 62.95C54.9588 63.0751 55.0973 63.1798 55.25 63.26C55.25 63.26 55.4399 63.09 55.43 63.06C55.3458 62.9131 55.2376 62.7813 55.11 62.67C55.0499 62.62 54.91 62.67 54.81 62.68ZM45.7099 60.36L45.81 60.61L45.9199 60.49L45.6699 60.39C45.6699 59.39 45.6699 59.39 44.6699 59.6L45.7099 60.36ZM59.4 66.59C59.0832 66.5726 58.7703 66.512 58.47 66.41C58.2 66.28 58.02 66.2001 57.75 66.41C57.13 66.9001 56.4799 67.41 55.84 67.86C55.75 67.94 55.5999 68.08 55.6199 68.13C56.16 69.49 55.34 70.71 55.2 71.99C55.6498 72.1461 56.1112 72.2665 56.58 72.35C57.1624 72.395 57.7475 72.395 58.33 72.35C58.8 72.35 59.27 72.17 59.75 72.17C62.6757 72.1153 65.5523 71.4081 68.1699 70.1C69.4778 69.4644 70.5343 68.4079 71.1699 67.1C71.4021 66.6718 71.5092 66.1869 71.4792 65.7007C71.4491 65.2145 71.2831 64.7465 71 64.35C69.9764 62.8281 68.6693 61.5175 67.15 60.49C67.0095 60.4187 66.8568 60.3746 66.6999 60.36C63.5899 59.52 60.75 57.97 57.75 56.84C56.1699 56.25 54.55 55.78 52.99 55.15C52.3013 54.8883 51.5965 54.6712 50.88 54.5C48.12 53.8 45.32 53.28 42.5 52.81C40.4017 52.4245 38.2733 52.227 36.1399 52.22C34.2899 52.22 32.44 52.22 30.6 52.22C29.8893 52.264 29.1763 52.1897 28.49 52C27.6923 51.8296 26.8676 51.8296 26.07 52C25.07 52.13 24.01 52.53 22.97 52.57C22.0142 52.6354 21.0786 52.8761 20.21 53.28C19.5656 53.5437 19.0288 54.0165 18.686 54.6224C18.3431 55.2283 18.2142 55.932 18.32 56.62C18.6672 58.684 19.7291 60.56 21.32 61.92C23.8703 63.8426 26.5879 65.5326 29.44 66.97C31.1264 67.8554 32.9123 68.5369 34.7599 69C36.4799 69.47 38.0899 70.34 39.7599 71C40.9299 71.42 42.1399 71.69 43.4599 72.06C42.8599 68.43 44.4 65.52 46.6199 62.87C46.4664 62.7495 46.2881 62.6642 46.0978 62.6203C45.9076 62.5763 45.71 62.5748 45.5191 62.6159C45.3282 62.6569 45.1486 62.7395 44.9933 62.8577C44.8379 62.976 44.7104 63.127 44.6199 63.3C44.4399 63.57 44.2299 63.81 44.0299 64.06C43.8299 64.31 43.7899 64.47 43.6199 64.54C43.3721 64.5859 43.1178 64.5859 42.8699 64.54C42.8699 64.35 42.8699 64.12 42.8699 63.98C43.41 63.13 43.9799 62.31 44.57 61.43L43.58 60L42.7999 60.92C43.006 61.237 43.1834 61.5716 43.33 61.92C43.38 62.06 43.26 62.3 43.16 62.46C43.0599 62.62 42.8499 62.64 42.6399 62.46C41.9699 61.94 41.47 62.13 40.9 62.74C40.2912 63.3332 39.6207 63.8595 38.9 64.31C38.78 64.39 38.5 64.25 38.2999 64.21C38.2999 64.02 38.2999 63.78 38.4399 63.66C39.3199 62.74 40.2199 61.84 41.0999 60.95L39.7 59.28C39.38 59.79 39.12 60.22 38.84 60.65C38.744 60.8092 38.6184 60.9483 38.47 61.06C38.12 61.29 37.74 61.46 37.4 61.7C36.84 62.11 36.32 62.58 35.74 62.96C35.58 63.06 35.25 62.9 35 62.87C35.0348 62.672 35.106 62.4822 35.2099 62.31C35.6799 61.79 36.2099 61.31 36.6899 60.8C36.7899 60.69 36.92 60.47 36.88 60.4C36.709 60.1309 36.5113 59.8796 36.29 59.65C36.01 59.31 35.81 59.65 35.63 59.78C35.3235 59.9891 35.0296 60.2162 34.75 60.46C33.93 61.06 33.12 61.66 32.28 62.23C32.16 62.31 31.92 62.23 31.73 62.23C31.73 62.08 31.73 61.89 31.84 61.79C32.23 61.35 32.65 60.94 33.04 60.53C31.94 59.1 31.94 59.1 30.83 60.15C30.67 60.3 30.53 60.48 30.36 60.61C29.85 60.99 29.36 61.38 28.8 61.72C28.66 61.8 28.4 61.72 28.19 61.63C28.2102 61.441 28.2574 61.2558 28.33 61.08C28.4 60.96 28.58 60.89 28.7 60.79C29.15 60.41 29.62 60.04 30.04 59.64C30.46 59.24 30.89 58.77 31.37 58.26C30.886 58.1034 30.3671 58.09 29.8757 58.2212C29.3843 58.3525 28.9413 58.623 28.6 59C28.02 59.64 27.4 60.23 26.71 60.92C27.65 61.62 28.5 62.35 29.45 62.92C30.75 63.73 32.11 64.46 33.45 65.17C33.6992 65.2593 33.9264 65.401 34.1161 65.5856C34.3059 65.7702 34.4538 65.9934 34.5499 66.24C34.5697 66.3164 34.5727 66.3961 34.5589 66.4737C34.5451 66.5514 34.5148 66.6252 34.47 66.69C34.4123 66.7338 34.3449 66.7631 34.2735 66.7753C34.2021 66.7874 34.1289 66.7822 34.06 66.76C33.62 66.57 33.2099 66.34 32.78 66.14C30.3776 65.1706 28.1742 63.7672 26.28 62C26.1462 61.8786 25.987 61.7886 25.814 61.7366C25.6409 61.6847 25.4585 61.6722 25.28 61.7C25.17 61.7 25.06 61.58 24.95 61.51C25.53 60.98 24.82 60.51 24.84 60.04C24.84 59.04 24.84 58.86 25.79 58.46C28.373 57.3849 31.1104 56.7267 33.9 56.51C34.1646 56.4342 34.4453 56.4342 34.7099 56.51C35.3408 56.7763 36.0294 56.8762 36.7099 56.8C37.2931 56.83 37.8722 56.9137 38.4399 57.05C39.8771 57.4087 41.3426 57.6429 42.82 57.75C44.8209 57.9428 46.7936 58.3622 48.7 59C50.7 59.63 52.7 60.33 54.6399 61.13C56.0591 61.6091 57.4052 62.2821 58.6399 63.13C59.1947 63.5409 59.8128 63.8584 60.47 64.07C61.087 64.2299 61.6641 64.5159 62.165 64.91C62.6659 65.3042 63.0796 65.7979 63.38 66.36C63.84 67.36 63.71 67.91 62.74 68.43C61.4686 68.9894 60.1201 69.3535 58.74 69.51C58.0508 69.5695 57.3565 69.5051 56.6899 69.32C56.4899 69.32 56.3299 69.01 56.16 68.84C56.3581 68.62 56.5912 68.4342 56.8499 68.29C57.1825 68.2577 57.5174 68.2577 57.8499 68.29C58.0527 68.2801 58.2463 68.2027 58.4 68.07C58.76 67.62 59.07 67.1301 59.4 66.66C59.5051 66.693 59.616 66.7034 59.7254 66.6904C59.8348 66.6774 59.9402 66.6413 60.0347 66.5846C60.1292 66.528 60.2106 66.4519 60.2735 66.3615C60.3365 66.2711 60.3796 66.1683 60.4 66.06C60.46 65.87 60.2899 65.43 60.1899 65.42C59.9199 65.42 59.69 64.85 59.4 65.28C59.2826 65.4789 59.2335 65.7107 59.2599 65.94C59.2857 66.1607 59.3326 66.3784 59.4 66.59ZM22.87 51.25C23.5267 51.0906 24.1957 50.9869 24.87 50.94C29.36 51.04 33.87 50.63 38.33 51.21C39.7785 51.2362 41.2242 51.3464 42.66 51.54C44.66 52.03 46.75 52.11 48.74 52.63C53.3918 53.7811 57.9174 55.3923 62.25 57.44C63.5086 58.1202 64.8544 58.6249 66.25 58.94C66.4394 58.9597 66.6305 58.9597 66.82 58.94C66.7751 58.7456 66.7149 58.555 66.6399 58.37C66.2394 57.6275 65.9048 56.8511 65.6399 56.05C65.0398 53.5914 64.8239 51.0547 65 48.53C65.0503 47.4111 65.1874 46.2978 65.41 45.2C65.9 43.1 66.66 41.07 67.08 38.95C67.3961 37.5804 67.42 36.1595 67.15 34.78C66.5823 32.0201 65.4147 29.4186 63.7299 27.16C62.6062 25.6923 61.3583 24.3239 60 23.07C59.5512 22.7046 59.0441 22.4172 58.5 22.22C57.1399 21.66 55.65 21.42 54.5 20.47C54.2652 20.3523 54.0111 20.2778 53.75 20.25C51.8727 19.7668 49.9378 19.5448 48 19.59C46.4717 19.7169 44.9851 20.1523 43.63 20.87C42.47 21.38 41.4499 22.2 40.32 22.78C37.49 24.24 35.4599 26.6 33.32 28.86C33.32 28.86 33.32 28.96 33.25 29C31.7999 31.3459 30.9102 33.9945 30.65 36.74C30.49 38.06 30.27 39.35 29.98 40.65C29.3702 43.7011 27.8419 46.4926 25.6 48.65C24.9 49.31 24.12 49.89 23.4 50.53C23.1842 50.7573 22.9869 51.0014 22.81 51.26L22.23 51.4C22.29 51.46 22.39 51.58 22.4 51.57C22.5635 51.4738 22.7205 51.3669 22.87 51.25ZM53.8699 69.25C53.9366 68.6591 53.8706 68.0608 53.6769 67.4986C53.4831 66.9364 53.1665 66.4245 52.75 66C51.6955 64.5951 50.8157 63.0673 50.13 61.45C50.0349 61.2028 49.9107 60.9678 49.7599 60.75C49.6936 60.6701 49.6113 60.6048 49.5183 60.5583C49.4254 60.5118 49.3238 60.4852 49.22 60.48C49.13 60.48 48.99 60.76 48.95 60.94C48.8751 61.9494 48.4751 62.9073 47.81 63.67C46.3556 65.0895 45.3417 66.8986 44.8899 68.88C44.6221 69.7871 44.6607 70.7572 45 71.64C45.75 73.54 47.3799 74.08 49.1399 74.38C49.5259 74.491 49.9317 74.5144 50.3279 74.4487C50.724 74.383 51.1005 74.2297 51.43 74C52.84 72.77 54.0999 71.45 53.84 69.21L53.8699 69.25ZM50.2599 18.25C50.6363 18.4065 51.0528 18.4386 51.4486 18.3414C51.8445 18.2442 52.1988 18.023 52.4599 17.71C52.8161 17.4009 53.2263 17.1602 53.6699 17C54.7399 16.49 55.24 16.63 55.77 17.63C55.9552 18.0096 56.0703 18.4195 56.11 18.84C56.1574 19.2918 56.1808 19.7458 56.18 20.2L57.9599 20.56C58.0715 20.2303 58.1087 19.8801 58.0689 19.5343C58.0291 19.1885 57.9134 18.8558 57.7299 18.56C57.47 17.98 57.12 17.44 56.81 16.88C56.6189 16.4228 56.3127 16.0229 55.9212 15.7191C55.5297 15.4154 55.0662 15.2181 54.5759 15.1467C54.0856 15.0752 53.5851 15.1319 53.1231 15.3112C52.6612 15.4905 52.2536 15.7864 51.9399 16.17C51.34 16.73 50.84 17.44 50.2299 18.19L50.2599 18.25ZM56.41 63.73C55.77 63.88 55.9399 64.59 55.32 64.73C54.32 64.9 54.32 64.97 54.86 65.87C55.08 66.25 55.2599 66.64 55.5 67.12L57.34 65.12L56.41 63.73ZM34.41 59.48C34.5687 59.3605 34.7191 59.2302 34.86 59.09C35.06 58.86 35.48 58.68 35.24 58.32C35.0459 58.0785 34.7735 57.9122 34.47 57.85C34.2756 57.7804 34.0629 57.7813 33.8691 57.8526C33.6753 57.9238 33.5128 58.061 33.41 58.24L34.41 59.48ZM39.2999 58.48L37.61 58.12C37.5587 58.1177 37.5076 58.1273 37.4608 58.1481C37.4139 58.169 37.3725 58.2004 37.34 58.24C37.2849 58.3781 37.2849 58.532 37.34 58.67C37.76 59.31 38.07 59.39 38.7299 59.01C38.9229 58.8431 39.1003 58.659 39.2599 58.46L39.2999 58.48ZM53.2999 18.36V18.68L54.7799 19.23C55.02 18.7 54.88 18.23 54.45 18.11C54.02 17.99 53.6399 18.24 53.2599 18.34L53.2999 18.36ZM41.2999 58.77L41.13 59.09C41.3563 59.2329 41.5734 59.3898 41.7799 59.56C42.0099 59.78 42.24 59.85 42.47 59.62C42.6002 59.4633 42.7173 59.2961 42.82 59.12C42.6407 58.9789 42.442 58.8644 42.2299 58.78C41.9014 58.7416 41.5702 58.7316 41.24 58.75L41.2999 58.77ZM27.2 59.29L26.97 59.07C26.69 59.18 26.41 59.31 26.12 59.4C25.42 59.63 25.42 59.63 26.01 60.33L27.2 59.29ZM60.1399 67.65L60.29 67.91C60.65 67.76 61.01 67.6 61.36 67.42C61.41 67.42 61.42 67.23 61.36 67.14C61.2999 67.05 61.1899 67 61.16 67.02C60.77 67.2 60.43 67.42 60.08 67.63L60.1399 67.65ZM53.1699 63C53.25 63.61 53.4599 63.92 53.9599 63.94C53.9599 63.94 54.04 63.88 54.08 63.85L53.43 63.06C53.43 63.06 53.3399 63.06 53.1699 63ZM47.88 60.06H47.7299C47.6886 60.2477 47.6619 60.4383 47.65 60.63C47.65 60.72 47.72 60.81 47.77 60.9C47.84 60.8 47.9599 60.71 47.9599 60.61C47.9515 60.4311 47.9247 60.2535 47.88 60.08V60.06ZM47.1399 62.58L47.2599 62.48C47.2599 62.48 47.19 62.37 47.15 62.37C47.11 62.37 47.08 62.43 47.04 62.46L47.1399 62.58Z" fill="white"/>
<path d="M63.3698 53.3101C62.0281 52.9358 60.7552 52.3483 59.5998 51.5701C59.5445 51.52 59.5013 51.4579 59.4735 51.3886C59.4458 51.3193 59.4343 51.2445 59.4398 51.1701C59.4398 51.0701 59.6998 50.9101 59.7798 50.9401C61.0698 51.4301 62.5198 51.6501 63.3698 53.3101Z" fill="white"/>
<path d="M63.5499 56.13C62.9099 56.13 62.2699 56.13 61.6299 56.13C61.2807 56.1157 60.9402 56.0173 60.6373 55.8432C60.3344 55.6691 60.078 55.4245 59.8899 55.13C59.7499 54.93 59.8899 54.55 59.8899 54.26C60.1199 54.36 60.4099 54.4 60.5499 54.57C61.1463 55.1112 61.8921 55.4597 62.6899 55.57C63.0099 55.66 63.3099 55.8 63.6299 55.92L63.5499 56.13Z" fill="white"/>
<path d="M62.2798 48.7801C62.1798 48.7801 62.0198 48.9701 61.9398 48.9301C61.1898 48.5801 60.4498 48.2001 59.7198 47.8101C59.6098 47.7501 59.4798 47.5501 59.5098 47.4501C59.5378 47.3762 59.5806 47.3088 59.6357 47.2521C59.6907 47.1953 59.7567 47.1504 59.8298 47.1201C60.3344 47.1008 60.834 47.2261 61.2699 47.4812C61.7057 47.7363 62.0595 48.1106 62.2898 48.5601C62.2954 48.6336 62.2921 48.7075 62.2798 48.7801Z" fill="white"/>
<path d="M62.8299 39.82C63.2645 39.9387 63.6918 40.0823 64.1099 40.25C64.2199 40.25 64.2699 40.64 64.2499 40.82C64.2499 41.2 63.9899 40.97 63.8199 40.89C63.1899 40.61 62.4099 41.07 61.8199 40.52C61.6899 40.39 61.4199 40.29 61.3999 40.16C61.3999 39.75 61.7299 39.84 61.9699 39.82C62.2099 39.8 62.2899 39.82 62.8299 39.82Z" fill="white"/>
<path d="M63.3199 36.5801C63.6176 36.5273 63.9222 36.5273 64.2199 36.5801C64.4799 36.6901 64.8399 36.9401 64.8699 37.1601C64.9299 37.6701 64.4499 37.4901 64.1699 37.5101C63.91 37.5706 63.6397 37.5706 63.3799 37.5101C63.0099 37.3701 62.3799 37.0901 62.3799 36.9201C62.4699 36.3001 63.0699 36.6601 63.3199 36.5801Z" fill="white"/>
<path d="M61.2801 43.7301C61.6253 43.69 61.975 43.7347 62.2991 43.8601C62.6231 43.9856 62.9118 44.1881 63.1401 44.4501C63.1872 44.5079 63.2192 44.5766 63.2331 44.65C63.2471 44.7233 63.2426 44.7989 63.2201 44.8701C63.1703 44.9241 63.1069 44.9637 63.0365 44.9848C62.9661 45.0059 62.8914 45.0077 62.8201 44.9901C62.2701 44.8201 61.7401 44.5901 61.2001 44.4101C60.9301 44.3101 60.5301 44.5701 60.4001 44.1101C60.3201 43.8301 60.5701 43.7201 61.2801 43.7301Z" fill="white"/>
<path d="M63.3301 33.62H63.1701C62.9606 33.6707 62.7403 33.6523 62.542 33.5676C62.3438 33.4829 62.1783 33.3365 62.0701 33.15C61.9501 32.9 62.7601 32.54 63.2701 32.68C63.5664 32.7752 63.8515 32.9027 64.1201 33.06C64.1595 33.0905 64.191 33.1301 64.2119 33.1753C64.2328 33.2206 64.2424 33.2702 64.2401 33.32C64.1801 33.43 64.0801 33.58 63.9701 33.6C63.7575 33.625 63.5427 33.625 63.3301 33.6V33.62Z" fill="white"/>
<path d="M62.2502 30.83L61.7002 30.33L62.3702 29.74L62.9402 30.42L62.2502 30.83Z" fill="white"/>
<path d="M60.0802 27.0701C60.4102 26.9801 60.7402 26.8801 61.0802 26.8201C61.1502 26.8201 61.3202 27.0401 61.3102 27.1601C61.2962 27.2493 61.2638 27.3346 61.2151 27.4106C61.1663 27.4865 61.1023 27.5515 61.027 27.6014C60.9517 27.6513 60.8669 27.6849 60.7779 27.7002C60.689 27.7154 60.5978 27.712 60.5102 27.6901C60.3202 27.6201 60.1402 27.5001 59.9502 27.4101L60.0802 27.0701Z" fill="white"/>
<path d="M49.23 72.53C50.05 72.09 50.82 71.65 51.62 71.28C51.72 71.28 51.97 71.52 52.16 71.65C51.83 72.09 51.72 72.65 50.98 72.8C50 73 50 73.12 49.23 72.53Z" fill="white"/>
<path d="M50.8301 70.6C50.9401 70.04 50.9201 69.74 51.0501 69.6C51.3364 69.2737 51.6438 68.9664 51.9701 68.68C52.2801 68.36 52.6701 68 53.0401 68.4C53.1701 68.55 52.9501 69.24 52.6901 69.47C52.1087 69.9069 51.4857 70.2854 50.8301 70.6Z" fill="white"/>
<path d="M52.2401 66.93C52.1901 67.12 52.2401 67.36 52.1101 67.42C51.6214 67.7044 51.1172 67.9615 50.6001 68.19C50.5501 68.19 50.3201 68.02 50.3101 67.92C50.3101 67.62 51.6201 66.56 51.9601 66.62C52.0701 66.64 52.1501 66.82 52.2401 66.93Z" fill="white"/>
<path d="M50.34 66.4301C50.15 66.1101 49.96 65.9401 49.93 65.7401C49.87 65.3001 50.2 65.1701 50.53 65.2901C50.6283 65.3433 50.7112 65.4209 50.7708 65.5155C50.8303 65.6101 50.8645 65.7184 50.87 65.8301C50.86 66.0001 50.6 66.1501 50.34 66.4301Z" fill="white"/>
<path d="M49.9098 63.4701C49.7707 63.6115 49.6238 63.7451 49.4698 63.8701C49.4063 63.8284 49.3491 63.7779 49.2998 63.7201C49.3929 63.5795 49.5001 63.4488 49.6198 63.3301C49.6198 63.3301 49.7898 63.4101 49.9098 63.4701Z" fill="white"/>
</svg>
