<svg width="90" height="90" viewBox="0 0 90 90" fill="none" xmlns="http://www.w3.org/2000/svg">
<path d="M45.9999 62.7401C46.2115 63.5416 46.549 64.3044 46.9999 65.0001C47.249 65.5091 47.3594 66.0748 47.3199 66.6401C47.3291 67.0117 47.2224 67.377 47.0145 67.6853C46.8066 67.9935 46.5079 68.2293 46.1599 68.3601C45.6099 68.5701 45.0299 68.7501 44.4799 68.9601C42.3199 69.7701 40.1799 70.6301 37.9999 71.4001C35.0699 72.4001 32.1099 73.4001 29.1599 74.4001C27.4199 75.0001 25.6899 75.6134 23.9699 76.2401C22.2799 76.8601 20.5699 77.4201 18.9699 78.1501C17.7549 78.6805 16.5094 79.138 15.2399 79.5201C14.7045 79.6539 14.1387 79.5862 13.6499 79.3301C13.2699 79.1901 13.0599 78.6201 12.7399 78.2701C12.4199 77.9201 12.5499 77.4401 12.5899 76.9501C12.8561 75.6477 13.2862 74.3843 13.8699 73.1901C14.8699 70.4601 16.0999 67.8201 16.9799 65.0401C17.0485 64.8828 17.1253 64.7293 17.2099 64.5801C18.0699 62.8001 18.9499 61.0201 19.7799 59.2301C20.2199 58.2301 20.5899 57.2301 20.9799 56.2301C22.251 53.0798 23.7344 50.0194 25.4199 47.0701C25.7199 46.5401 26.2599 46.3601 26.7299 46.0701C26.9647 45.9114 27.2415 45.8267 27.5249 45.8267C27.8082 45.8267 28.0851 45.9114 28.3199 46.0701C28.4957 46.0948 28.6741 46.0948 28.8499 46.0701C28.7399 46.2501 28.5999 46.3701 28.5999 46.4901C28.5999 47.0301 28.3299 47.2701 27.8699 46.9901C27.4099 46.7101 27.1999 46.9101 27.0199 47.2301C26.8257 47.5227 26.7099 47.8603 26.6836 48.2105C26.6573 48.5607 26.7215 48.9118 26.8699 49.2301C27.0599 49.6401 27.2199 50.0701 27.5199 50.7901V49.3701C27.5199 49.0901 27.6899 48.9601 27.9399 49.0201C28.1899 49.0801 28.2599 49.1901 28.2799 49.3001C28.5108 50.347 28.6877 51.405 28.8099 52.4701C28.7958 52.753 28.842 53.0358 28.9455 53.2995C29.0489 53.5633 29.2072 53.8021 29.4099 54.0001C29.6711 54.2692 29.9086 54.5602 30.1199 54.8701V52.8701C31.0599 52.9701 31.2999 53.4801 31.2099 54.2801C31.1599 54.6701 31.2099 55.0701 31.2099 55.4601C31.1812 55.9808 31.2888 56.5 31.5221 56.9665C31.7553 57.4329 32.1061 57.8305 32.5399 58.1201V54.1201C32.6799 54.2001 32.7399 54.2201 32.7799 54.2701C33.0499 54.5201 33.4699 54.7501 33.5399 55.0601C33.6053 55.6282 33.6053 56.2019 33.5399 56.7701C33.5756 57.4363 33.5756 58.1039 33.5399 58.7701C33.4898 59.1821 33.5484 59.6001 33.7098 59.9825C33.8712 60.3649 34.1298 60.6985 34.4599 60.9501C34.6499 61.1101 34.8299 61.2901 35.1299 61.5701V58.2001C35.1299 57.6701 35.1299 57.1401 35.1299 56.6201C35.1299 56.4701 35.2499 56.3301 35.3099 56.1801L35.6399 56.4801C35.8486 56.6723 36.0124 56.9081 36.1196 57.1709C36.2267 57.4336 36.2746 57.7167 36.2599 58.0001C36.2947 58.6003 36.3648 59.198 36.4699 59.7901C36.4949 60.2764 36.4949 60.7637 36.4699 61.2501C36.4699 61.6601 36.2399 62.1401 36.3899 62.4601C36.5399 62.7801 37.0599 63.1401 37.4699 63.5201C37.6499 62.6701 37.4699 61.8101 37.5799 60.8801C37.7899 61.1701 37.9299 61.3901 38.0899 61.5701C38.2971 61.7929 38.4507 62.06 38.5391 62.3511C38.6275 62.6422 38.6483 62.9497 38.5999 63.2501C38.5312 63.4905 38.5164 63.7431 38.5565 63.99C38.5967 64.2368 38.6907 64.4717 38.8321 64.678C38.9734 64.8843 39.1586 65.0569 39.3742 65.1834C39.5899 65.3099 39.8309 65.3873 40.0799 65.4101L40.2499 64.1301H41.3699C41.4202 64.1957 41.4576 64.2704 41.4799 64.3501C41.5049 64.6562 41.5049 64.9639 41.4799 65.2701C41.3499 66.0801 41.7399 66.4701 42.5599 66.6301C42.5599 66.1001 42.5599 65.5701 42.5599 65.0501C42.5599 64.5301 42.7199 64.1601 43.0799 64.1301C43.4399 64.1001 43.5799 64.6001 43.6099 65.0101C43.6399 65.4201 43.7999 65.7601 43.8299 66.1401C43.8262 66.3938 43.7892 66.646 43.7199 66.8901C43.9499 66.9701 44.2299 67.0901 44.5099 67.1701C44.6482 67.2246 44.7978 67.2441 44.9454 67.2267C45.093 67.2093 45.2341 67.1556 45.3559 67.0705C45.4777 66.9853 45.5765 66.8713 45.6435 66.7386C45.7106 66.6059 45.7437 66.4587 45.7399 66.3101C45.7807 65.6144 45.6248 64.9212 45.2899 64.3101C44.7099 63.1601 44.0699 62.0401 43.4099 60.8101L44.4999 60.0001L45.6599 62.2201L45.9999 59.1701C45.3699 58.5901 44.5799 58.9601 43.8699 59.0901C43.5073 59.1522 43.1654 59.3022 42.8743 59.5271C42.5831 59.752 42.3516 60.0449 42.1999 60.3801C42.1299 60.5301 41.9599 60.6301 41.8499 60.7701C40.8499 61.9301 40.6999 61.9701 39.5699 61.0901C39.4693 61.0176 39.3864 60.9233 39.3275 60.8141C39.2686 60.705 39.2352 60.5839 39.2299 60.4601C39.3099 60.0101 38.6599 59.6101 39.2299 59.1401C39.5399 58.8501 39.7299 58.4101 40.0699 58.1401C40.489 57.8505 40.9468 57.6216 41.4299 57.4601C42.2499 57.1401 43.0699 56.6001 43.9899 57.1701C44.99 57.0681 45.997 57.2814 46.8699 57.7801C46.9378 57.8014 47.0096 57.808 47.0803 57.7994C47.151 57.7908 47.2191 57.7671 47.2799 57.7301C47.7599 57.4501 48.2199 57.1001 48.7199 56.8601C49.1181 56.6672 49.5515 56.558 49.9935 56.5391C50.4355 56.5202 50.8767 56.592 51.2899 56.7501C52.0499 57.0101 52.3699 57.8101 52.1699 58.8501C52.0699 59.3701 52.0799 60.0801 51.4799 60.3001C50.8799 60.5201 50.4799 60.1001 50.1199 59.7101C49.902 59.4498 49.618 59.253 49.2977 59.1404C48.9774 59.0277 48.6328 59.0035 48.2999 59.0701C48.4702 59.7088 48.7047 60.3286 48.9999 60.9201C49.3999 61.5401 49.1299 62.0001 48.8499 62.4801C48.6697 62.7304 48.4502 62.9499 48.1999 63.1301C48.0002 63.3255 47.7372 63.443 47.4584 63.4613C47.1796 63.4797 46.9035 63.3976 46.6799 63.2301C46.4699 63.0801 46.2599 62.9301 46.0599 62.7701L45.9699 62.5701L45.8799 62.6601L45.9999 62.7401ZM37.2399 67.2601C37.8849 67.6039 38.4974 68.0056 39.0699 68.4601C39.3885 68.7803 39.8099 68.9779 40.2598 69.0181C40.7098 69.0583 41.1595 68.9386 41.5299 68.6801C41.6085 68.6475 41.6852 68.6108 41.7599 68.5701C41.8499 68.5001 41.9799 68.4101 41.9799 68.3301C41.9721 68.2731 41.9496 68.2191 41.9145 68.1735C41.8794 68.1278 41.833 68.0922 41.7799 68.0701C39.2822 67.1693 37.034 65.6888 35.2199 63.7501C34.5399 63.0601 33.8299 62.4001 33.1599 61.7501C32.8258 61.4045 32.5151 61.037 32.2299 60.6501C31.2299 59.3401 30.3099 57.9901 29.3399 56.6501C28.0732 54.8943 27.0128 52.9985 26.1799 51.0001C25.9399 50.4401 25.7699 49.8401 25.5299 49.1401C24.7499 50.8901 24.0299 52.4901 23.3399 54.1401C23.0199 54.8901 22.7899 55.6701 22.4699 56.4201C21.4699 58.6601 20.5699 60.9201 19.4699 63.1201C19.0299 64.0501 18.5599 64.9601 18.1899 65.9201C17.6899 67.2534 17.1699 68.5634 16.6299 69.8501C15.7999 71.8501 14.9299 73.7801 14.0999 75.7601C13.8096 76.3855 13.6725 77.0711 13.6999 77.7601C13.7152 77.99 13.8181 78.2052 13.9874 78.3615C14.1567 78.5177 14.3795 78.6031 14.6099 78.6001C14.7366 78.5542 14.8406 78.461 14.8999 78.3401C14.8999 78.3401 14.8999 78.1501 14.7899 78.1001C14.6786 78.0417 14.583 77.9572 14.5114 77.8539C14.4397 77.7506 14.3941 77.6316 14.3784 77.5068C14.3626 77.3821 14.3773 77.2554 14.4211 77.1376C14.4649 77.0198 14.5365 76.9143 14.6299 76.8301C15.9399 77.9801 16.2399 78.0601 17.4999 77.5601C18.2299 77.2801 18.2699 77.1801 17.9399 76.4801C17.8403 76.3378 17.7596 76.1832 17.6999 76.0201C17.6722 75.8518 17.7117 75.6794 17.8099 75.5401C17.8099 75.4801 18.1199 75.5401 18.2399 75.6201C18.4151 75.7537 18.5701 75.912 18.6999 76.0901C18.771 76.2016 18.8634 76.2979 18.972 76.3735C19.0805 76.449 19.203 76.5023 19.3323 76.5302C19.4615 76.5581 19.5951 76.5601 19.7251 76.536C19.8552 76.512 19.9791 76.4624 20.0899 76.3901C20.6799 76.1101 21.2899 75.8901 21.9699 75.6101C21.7261 75.4223 21.5076 75.2038 21.3199 74.9601C21.2361 74.7323 21.1888 74.4926 21.1799 74.2501C21.4152 74.2149 21.6545 74.2149 21.8899 74.2501C22.0799 74.3101 22.2199 74.5301 22.4099 74.6401C22.6102 74.7706 22.8345 74.86 23.0697 74.9029C23.305 74.9459 23.5464 74.9415 23.7799 74.8901C24.4199 74.7101 25.0299 74.4301 25.7799 74.1601L24.4199 73.0701C24.8199 72.7201 24.9499 72.3901 25.3499 72.6201C25.7499 72.8501 26.1099 73.0201 26.4899 73.2301C27.6499 73.8801 28.6199 73.3001 29.7099 72.8001C29.4597 72.6377 29.2192 72.4608 28.9899 72.2701C28.5299 71.8601 28.4099 71.4501 28.6799 71.2701C28.9499 71.0901 29.2999 71.3401 29.5799 71.5501C30.0636 71.9755 30.6857 72.2101 31.3299 72.2101C31.9741 72.2101 32.5962 71.9755 33.0799 71.5501C32.6899 71.1701 32.3299 70.8001 31.9499 70.4501C31.5699 70.1001 31.8099 69.8401 32.1299 69.6101C32.3199 69.7901 32.5099 69.9701 32.7099 70.1401C33.8799 71.2101 34.3799 71.2901 35.7799 70.6201C35.8399 70.6201 35.8599 70.5101 35.9399 70.4001C35.7699 70.2601 35.5999 70.1201 35.4399 69.9701C35.2799 69.8201 34.8199 69.4001 34.5399 69.0801C34.4499 68.9801 34.4699 68.7801 34.4399 68.6201C34.6399 68.6201 34.8999 68.5001 35.0299 68.6201C35.4983 68.9278 35.949 69.2616 36.3799 69.6201C37.2999 70.3101 37.8499 70.2601 38.7799 69.4201C38.3599 68.7401 37.3199 68.4701 37.2699 67.2601H37.2399ZM40.2399 60.2601L43.0199 58.2601C43.1301 58.1974 43.2436 58.1407 43.3599 58.0901C43.3744 58.0479 43.3744 58.0022 43.3599 57.9601C43.3599 57.8901 43.2799 57.7701 43.2499 57.7801C42.5822 57.8368 41.9328 58.0271 41.3401 58.3398C40.7474 58.6524 40.2237 59.081 39.7999 59.6001C39.5699 59.9101 39.7099 60.0501 40.0399 60.1401C40.1161 60.1613 40.1852 60.2028 40.2399 60.2601ZM47.2399 59.8701C47.0347 60.1363 46.8929 60.4458 46.8253 60.775C46.7577 61.1042 46.7661 61.4446 46.8499 61.7701C46.8973 61.8817 46.9729 61.9792 47.0694 62.0528C47.1658 62.1264 47.2797 62.1737 47.3999 62.1901C47.5799 62.1901 47.7399 61.8601 47.8699 61.6501C47.9999 61.4401 47.8699 61.4001 47.8699 61.2801C47.6299 60.8201 47.4299 60.3601 47.2299 59.8701H47.2399ZM49.7299 57.8701C50.0799 58.1201 50.3899 58.3501 50.7299 58.5601C50.7299 58.5601 50.9299 58.5601 50.9499 58.5601C50.984 58.5111 51.0078 58.4557 51.0198 58.3973C51.0319 58.3388 51.0319 58.2785 51.0199 58.2201C50.7199 57.6801 50.3099 57.6601 49.7199 57.8201L49.7299 57.8701Z" fill="white"/>
<path d="M40.7501 30.6C40.3601 28.6 41.4401 26.93 42.9801 25.43C43.958 24.5903 45.0657 23.9148 46.2601 23.43C46.9131 23.2395 47.607 23.2395 48.2601 23.43C48.8012 23.4618 49.3431 23.3804 49.851 23.191C50.3589 23.0016 50.8218 22.7084 51.2101 22.33C51.6535 22.0606 51.9934 21.6496 52.1748 21.1635C52.3562 20.6773 52.3686 20.1442 52.2101 19.65C52.0291 18.8521 51.9286 18.038 51.9101 17.22C51.9487 16.8318 52.1042 16.4644 52.3559 16.1662C52.6076 15.8681 52.9438 15.6533 53.3201 15.55C53.6229 15.461 53.9455 15.4659 54.2455 15.5641C54.5454 15.6623 54.8085 15.8492 55.0001 16.1C55.8139 17.1577 56.3501 18.4022 56.5601 19.72C56.6192 20.3235 56.5509 20.9326 56.3597 21.5079C56.1685 22.0833 55.8586 22.6121 55.4501 23.06C55.3101 23.23 55.1301 23.37 54.9901 23.54C54.5941 24.0031 54.1016 24.3738 53.547 24.6261C52.9924 24.8783 52.3893 25.006 51.7801 25C50.3901 25.13 49.0001 25.1 47.6201 25.23C46.7281 25.3 45.8899 25.6841 45.2545 26.314C44.6192 26.9439 44.2278 27.7787 44.1501 28.67C44.0575 29.0427 43.9841 29.4199 43.9301 29.8C43.9301 30.8 44.0801 31.8601 44.1901 32.9C44.1901 33 44.4401 33.08 44.5601 33.19C44.6801 33.3 45.0801 33.5 44.9001 33.79C44.7502 33.9938 44.5286 34.1331 44.2801 34.18C43.6499 34.3132 43.0119 34.4067 42.3701 34.46C41.3701 34.54 41.3701 34.46 41.0001 33.54C40.8891 33.308 40.8084 33.0627 40.7601 32.81C40.7201 32.14 40.7501 31.48 40.7501 30.6ZM43.1101 27.05C42.7709 27.1932 42.4742 27.421 42.2483 27.7116C42.0225 28.0023 41.875 28.3461 41.8201 28.71C41.74 29.9788 41.74 31.2513 41.8201 32.52C41.8462 32.8188 41.9773 33.0987 42.1901 33.31C42.2801 33.4 42.6401 33.15 42.8701 33.16C43.3801 33.16 43.5101 32.9 43.3701 32.51C42.9751 31.4606 42.8081 30.3391 42.8801 29.22C42.8801 28.49 43.0401 27.77 43.1301 27.05L43.3401 26.95L43.2301 26.84L43.1101 27.05ZM51.8901 23.5C52.1268 23.6186 52.3952 23.6583 52.6561 23.6134C52.9171 23.5684 53.1567 23.4411 53.3401 23.25C55.6901 21.49 55.3401 18.79 53.8401 16.99C53.6501 16.78 53.4501 16.61 53.1701 16.86C52.8901 17.11 52.8101 17.21 53.0001 17.52C53.5301 18.35 53.2801 19.38 53.6701 20.25C53.3601 21.48 53.2101 22.8 51.8901 23.5Z" fill="white"/>
<path d="M63.5699 22.5201C64.0699 22.1701 64.4699 21.8201 64.9199 21.5701C65.8182 21.0238 66.8851 20.8246 67.9199 21.0101C68.3914 21.0889 68.819 21.3339 69.1253 21.7008C69.4317 22.0677 69.5965 22.5322 69.5899 23.0101C69.5818 24.049 69.2063 25.0515 68.5299 25.8401C68.1252 26.2369 67.6282 26.5269 67.0836 26.684C66.539 26.8411 65.9639 26.8604 65.4099 26.7401C65.2402 26.7077 65.0817 26.6319 64.9499 26.5201C64.4599 26.1801 63.9499 25.8201 63.4099 25.4101C63.028 25.9104 62.7771 26.4982 62.6799 27.1201C62.5199 27.6901 62.5199 28.3101 62.3799 28.9001C62.2375 29.3711 62.0638 29.8322 61.8599 30.2801C61.6143 30.0725 61.4172 29.8136 61.2824 29.5216C61.1476 29.2297 61.0785 28.9117 61.0799 28.5901C60.9871 27.1107 61.3919 25.6428 62.2299 24.4201C62.3375 24.2568 62.3948 24.0656 62.3948 23.8701C62.3948 23.6746 62.3375 23.4834 62.2299 23.3201C61.6789 21.9377 61.6505 20.4019 62.1499 19.0001C62.5402 17.9304 63.2895 17.0291 64.2699 16.4501C64.682 16.1957 65.1749 16.1064 65.6499 16.2001C65.7999 16.2001 66.0499 16.3101 66.0699 16.4001C66.1019 16.6093 66.0556 16.8229 65.9399 17.0001C65.7116 17.1895 65.4635 17.3538 65.1999 17.4901C64.4218 17.9591 63.8265 18.6791 63.5121 19.5316C63.1976 20.384 63.1828 21.3181 63.4699 22.1801C63.4999 22.2801 63.5199 22.3701 63.5699 22.5201ZM67.8999 22.6501C66.5199 22.2201 65.5799 22.9401 64.6599 23.6501C64.6066 23.7148 64.5682 23.7904 64.5475 23.8717C64.5267 23.9529 64.5241 24.0377 64.5399 24.1201C64.6481 24.3514 64.805 24.5567 65 24.7216C65.1949 24.8866 65.4233 25.0075 65.6693 25.0759C65.9154 25.1443 66.1733 25.1586 66.4254 25.1179C66.6776 25.0772 66.9179 24.9824 67.1299 24.8401C67.4785 24.608 67.7421 24.2688 67.881 23.8738C68.0199 23.4787 68.0266 23.0492 67.8999 22.6501Z" fill="white"/>
<path d="M58.8001 42.3101C58.4653 43.1437 58.3449 44.0479 58.4501 44.9401C58.4501 45.4001 58.1301 45.5601 57.6401 45.4401C56.4901 45.1501 55.8401 45.4901 55.3501 46.7201C54.8601 47.9501 54.4201 49.0001 54.0001 50.1901C53.8032 50.8998 53.4605 51.5607 52.9939 52.1306C52.5273 52.7005 51.947 53.1669 51.2901 53.5001C50.8031 53.785 50.3473 54.1202 49.9301 54.5001C49.7057 54.7039 49.4413 54.859 49.1539 54.9554C48.8664 55.0518 48.5621 55.0874 48.2601 55.0601C47.5187 54.872 46.8033 54.5933 46.1301 54.2301C46.0401 54.2301 45.9701 53.8901 46.0201 53.7601C46.226 53.2916 46.4563 52.8343 46.7101 52.3901C46.7909 52.2056 46.9319 52.054 47.1101 51.9601C47.2901 51.9001 47.6301 51.9001 47.7301 52.0201C48.1601 52.5301 48.7301 52.4201 49.3001 52.5201C50.1001 52.6701 50.4101 52.5801 50.6501 51.8701C50.9964 50.9092 51.2935 49.9312 51.5401 48.9401C51.8601 47.6001 51.9801 46.2201 52.3901 44.9401C52.7559 43.9786 53.2254 43.0599 53.7901 42.2001C54.0517 41.8528 54.4398 41.6228 54.8701 41.5601C55.9981 41.212 57.2173 41.316 58.2701 41.8501C58.4801 41.9001 58.6201 42.1301 58.8001 42.3101ZM52.1401 51.0001L52.3501 51.0901C52.8901 49.7401 53.3501 48.3601 53.9801 47.0901C54.6101 45.8201 55.1901 43.9801 57.3601 44.2501V42.3901C56.7001 42.3901 56.0901 42.3901 55.4901 42.3901C55.2084 42.3814 54.9311 42.4618 54.6977 42.6198C54.4643 42.7777 54.2867 43.0053 54.1901 43.2701C53.9501 43.9601 53.6101 44.6101 53.4201 45.2701C52.9401 47.0401 52.7601 48.8801 52.1101 50.6001C52.0701 50.7601 52.1301 50.9001 52.1401 51.0001ZM49.5201 53.6201C48.8401 53.3201 48.2401 53.6201 47.7201 53.2701C47.5001 53.1001 47.0401 53.4601 47.1001 53.7201C47.1508 53.7983 47.2185 53.8641 47.2981 53.9126C47.3777 53.9611 47.4673 53.991 47.5601 54.0001C47.9992 54.0401 48.441 54.0401 48.8801 54.0001C49.0701 54.0001 49.2401 53.8201 49.5201 53.6401V53.6201Z" fill="white"/>
<path d="M39.7298 21.11C40.0841 21.443 40.418 21.797 40.7298 22.17C41.2744 23.0689 41.4734 24.1352 41.2898 25.17C41.2898 25.51 41.0198 25.69 40.6698 25.73C40.3198 25.77 40.2598 25.47 40.1598 25.25C40.0621 25.0579 40.0107 24.8456 40.0098 24.63C40.0711 24.1072 40.0129 23.5772 39.8397 23.0801C39.6665 22.583 39.3827 22.1316 39.0098 21.76C38.5598 21.76 38.3598 22.23 38.0098 22.52C37.6456 22.7969 37.2228 22.9868 36.7739 23.0752C36.325 23.1636 35.8618 23.1482 35.4198 23.03C35.1698 23.03 34.9298 22.68 34.7298 22.45C34.5593 22.2297 34.4416 21.9731 34.3859 21.7001C34.3302 21.4271 34.3379 21.145 34.4084 20.8754C34.4789 20.6059 34.6104 20.3561 34.7927 20.1454C34.975 19.9347 35.2032 19.7686 35.4598 19.66C36.1298 19.46 36.8398 19.1 37.5698 19.6C37.6686 19.6517 37.7784 19.6787 37.8898 19.6787C38.0013 19.6787 38.1111 19.6517 38.2098 19.6C38.3398 19.51 38.3098 19.21 38.4198 19.03C38.7318 18.2101 38.7978 17.317 38.6098 16.46C38.6098 16.19 38.2898 15.9 38.0698 15.65C37.8498 15.4 37.6198 15.34 37.4998 15.13C37.4372 15.0256 37.3993 14.9083 37.3889 14.787C37.3785 14.6657 37.3959 14.5436 37.4398 14.43C38.027 13.6117 38.8899 13.0329 39.8698 12.8C39.9739 12.8009 40.076 12.8279 40.1669 12.8785C40.2578 12.9292 40.3344 13.002 40.3898 13.09C40.9 13.9373 41.2175 14.8864 41.3198 15.87C41.4517 17.7527 40.8857 19.6181 39.7298 21.11ZM40.1898 17.49C40.3022 16.5363 40.2171 15.5695 39.9398 14.65C39.6898 14.05 39.3898 13.91 38.8598 14.26C38.675 14.4036 38.5043 14.5643 38.3498 14.74C38.7256 14.9032 39.0477 15.1689 39.2794 15.5067C39.5111 15.8445 39.643 16.2408 39.6598 16.65C39.7198 17 39.7098 17.33 40.1898 17.49ZM37.5598 20.82C37.0558 20.6604 36.5212 20.6227 35.9998 20.71C35.9138 20.7162 35.83 20.7397 35.7533 20.7792C35.6766 20.8186 35.6087 20.873 35.5536 20.9394C35.4985 21.0057 35.4573 21.0824 35.4326 21.165C35.4079 21.2476 35.4002 21.3344 35.4098 21.42C35.4698 21.81 35.9098 22.16 36.2498 21.99C36.7898 21.75 37.4198 21.58 37.5598 20.82Z" fill="white"/>
<path d="M69 57.0001C68.6538 56.1845 68.5981 55.2748 68.8419 54.423C69.0858 53.5712 69.6146 52.8289 70.34 52.3201C70.6676 52.1142 71.0409 51.9921 71.4269 51.9644C71.8129 51.9368 72.1998 52.0045 72.5535 52.1615C72.9071 52.3186 73.2168 52.5603 73.4551 52.8652C73.6933 53.1701 73.853 53.5289 73.92 53.9101C73.9864 54.3618 73.9488 54.8226 73.8102 55.2576C73.6716 55.6926 73.4355 56.0902 73.12 56.4201C72.68 56.8301 72.28 57.2801 71.79 57.8001C72.8739 58.3299 74.1107 58.4575 75.28 58.1601C75.58 58.0901 75.69 58.1601 75.78 58.3501C75.8137 58.4203 75.8312 58.4972 75.8312 58.5751C75.8312 58.653 75.8137 58.7299 75.78 58.8001C75.48 59.2693 75.0304 59.6233 74.504 59.8049C73.9776 59.9864 73.4053 59.9847 72.88 59.8001C71.9927 59.6431 71.148 59.3025 70.4 58.8001C70.0961 58.6295 69.746 58.5595 69.4 58.6001C68.5317 58.6486 67.6611 58.5609 66.82 58.3401C66.1955 58.2077 65.6126 57.9255 65.1214 57.5179C64.6301 57.1103 64.2453 56.5894 64 56.0001C63.9731 55.9017 63.9709 55.7982 63.9935 55.6988C64.0162 55.5994 64.0631 55.5071 64.13 55.4301C64.2299 55.3997 64.3351 55.3912 64.4386 55.405C64.5421 55.4188 64.6415 55.4546 64.73 55.5101C64.92 55.6001 65.03 55.8301 65.2 55.9601C65.37 56.0901 65.7 56.2901 65.94 56.4801C66.86 57.1501 67.89 56.8901 69 57.0001ZM70.47 56.8901C71.08 56.3101 71.54 55.8901 71.94 55.4701C72.126 55.2748 72.2707 55.0439 72.3652 54.7913C72.4597 54.5387 72.5021 54.2695 72.49 54.0001C72.49 53.6101 72.27 53.5101 71.99 53.3501C71.71 53.1901 71.43 53.0901 71.15 53.3501C70.46 53.9201 69.85 54.5401 70.08 55.5501C70.16 55.9301 70.3 56.2901 70.49 56.8801L70.47 56.8901Z" fill="white"/>
<path d="M47.5197 36C48.1958 35.9406 48.8762 36.047 49.5018 36.3102C50.1274 36.5733 50.6793 36.9852 51.1097 37.51C51.5806 38.0227 51.8412 38.6939 51.8397 39.39C51.8756 40.4354 51.5588 41.4624 50.9403 42.3058C50.3217 43.1493 49.4374 43.7601 48.4297 44.04C48.2997 44.04 48.1797 44.19 48.0697 44.17C46.4097 43.96 44.7997 43.61 43.7997 42.08C43.501 41.7029 43.3484 41.2307 43.3697 40.75C43.3697 40.44 43.3697 40.13 43.3697 39.82C43.323 39.311 43.388 38.7979 43.5602 38.3167C43.7324 37.8354 44.0077 37.3976 44.3667 37.0337C44.7258 36.6699 45.16 36.3889 45.6389 36.2104C46.1179 36.0318 46.6301 35.96 47.1397 36H47.5197ZM47.5197 37.07C47.0964 36.9803 46.6569 37.0043 46.2459 37.1396C45.8348 37.2748 45.467 37.5165 45.1797 37.84C44.8961 38.149 44.6823 38.5153 44.553 38.9142C44.4237 39.3131 44.3818 39.7352 44.4302 40.1517C44.4786 40.5683 44.6161 40.9695 44.8334 41.3281C45.0508 41.6868 45.3428 41.9944 45.6897 42.23C46.2197 42.61 46.7797 42.47 47.2597 42.71C47.9797 43.1 48.5097 42.71 49.0297 42.37C49.3905 42.116 49.7079 41.8053 49.9697 41.45C50.2833 41.0874 50.4896 40.6445 50.5656 40.1712C50.6415 39.6978 50.5841 39.2126 50.3997 38.77C50.1594 38.2202 49.7489 37.7621 49.2285 37.4632C48.7082 37.1644 48.1057 37.0406 47.5097 37.11L47.5197 37.07Z" fill="white"/>
<path d="M63.2097 43.71C63.193 43.1803 63.2851 42.6527 63.4802 42.1598C63.6754 41.667 63.9694 41.2194 64.3442 40.8446C64.719 40.4697 65.1666 40.1757 65.6595 39.9806C66.1523 39.7855 66.6799 39.6934 67.2097 39.71C67.6839 39.7302 68.1408 39.8941 68.5197 40.18C69.0397 40.55 69.5197 41 70.0097 41.36C70.3607 41.5915 70.6298 41.9277 70.7788 42.3209C70.9278 42.714 70.9491 43.1441 70.8397 43.55C70.7092 44.2857 70.4288 44.9867 70.0159 45.6095C69.603 46.2322 69.0665 46.7634 68.4397 47.17C67.9897 47.4134 67.4862 47.5408 66.9747 47.5408C66.4632 47.5408 65.9597 47.4134 65.5097 47.17C64.7968 46.9302 64.1839 46.4601 63.7675 45.8337C63.3511 45.2073 63.1549 44.4602 63.2097 43.71ZM64.2697 43.71C64.2539 44.1559 64.3722 44.5963 64.6093 44.9742C64.8464 45.3521 65.1914 45.6503 65.5997 45.83C65.9855 46.01 66.3831 46.1637 66.7897 46.29C66.9526 46.3402 67.1268 46.3402 67.2897 46.29C67.8671 45.9612 68.3674 45.5126 68.7572 44.9745C69.147 44.4364 69.4172 43.8212 69.5497 43.17C69.5497 43.08 69.5497 42.96 69.5497 42.91C69.0797 42.38 68.8997 41.58 68.1497 41.3C67.6676 41.0393 67.1361 40.8826 66.5897 40.84C65.9246 40.9677 65.3264 41.3272 64.9016 41.8546C64.4767 42.382 64.2528 43.043 64.2697 43.72V43.71Z" fill="white"/>
<path d="M43.6497 44.7801C43.6288 45.5161 43.3828 46.2281 42.9447 46.82C42.5066 47.4119 41.8976 47.8551 41.1997 48.0901C40.8602 48.1134 40.5197 48.0657 40.1997 47.9501C39.619 47.8767 39.0717 47.6378 38.6231 47.2619C38.1745 46.886 37.8435 46.389 37.6697 45.8301C37.6697 45.7501 37.5497 45.6701 37.5597 45.6001C37.7997 44.4001 37.6497 43.0701 38.7097 42.1501C38.999 41.8444 39.3853 41.6485 39.8028 41.5956C40.2203 41.5427 40.6433 41.6362 40.9997 41.8601C41.6869 42.2029 42.3545 42.5835 42.9997 43.0001C43.2619 43.2077 43.4615 43.484 43.5762 43.7982C43.691 44.1124 43.7164 44.4523 43.6497 44.7801ZM42.1797 45.7201C41.7797 45.0601 41.1797 44.7801 41.6797 44.2101C41.6797 44.1601 41.6797 43.9901 41.5997 43.9301C41.3716 43.6618 41.1169 43.4172 40.8397 43.2001C40.0297 42.6601 39.3597 42.9601 39.1297 43.9401C39.1297 44.1401 39.0297 44.3501 38.9797 44.5501C38.8397 45.0801 38.8397 45.0801 39.5597 45.5501C39.7612 45.6962 39.9716 45.8298 40.1897 45.9501C40.4797 46.1001 40.3597 46.7601 40.8497 46.5501C40.9897 46.4901 40.9597 46.0001 40.9997 45.7201C40.9997 45.7201 40.9997 45.6301 40.9997 45.5801C41.0597 45.2901 41.2197 45.2501 41.4597 45.3901L42.1797 45.7201Z" fill="white"/>
<path d="M32.3498 51.89C31.8261 51.7732 31.314 51.6092 30.8198 51.4C29.1898 50.62 29.1998 49.4 29.4598 48.02C29.56 47.6634 29.7045 47.3208 29.8898 47C30.0159 46.6089 30.2921 46.2838 30.6578 46.0963C31.0234 45.9088 31.4486 45.8742 31.8398 46C32.0083 46.0332 32.1786 46.0565 32.3498 46.07C33.0192 46.1037 33.6612 46.3467 34.1851 46.7647C34.709 47.1828 35.0884 47.7548 35.2698 48.4C35.3396 48.6757 35.3396 48.9644 35.2698 49.24C35.052 50.0425 34.6117 50.767 33.9998 51.33C33.7848 51.5418 33.5247 51.7022 33.239 51.7992C32.9532 51.8961 32.6493 51.9272 32.3498 51.89ZM30.6998 48.7H30.6098C30.649 48.9913 30.7333 49.2747 30.8598 49.54C31.0287 49.7462 31.2371 49.9166 31.4728 50.0411C31.7085 50.1655 31.9667 50.2417 32.2322 50.265C32.4977 50.2883 32.7652 50.2582 33.0189 50.1767C33.2727 50.0951 33.5076 49.9637 33.7098 49.79C33.8521 49.6139 33.9354 49.3974 33.948 49.1713C33.9605 48.9452 33.9017 48.7209 33.7798 48.53C33.5457 48.2114 33.2461 47.9466 32.9011 47.7534C32.5561 47.5603 32.1738 47.4432 31.7798 47.41C31.0998 47.3 30.7798 47.51 30.6498 48.15C30.6502 48.3345 30.667 48.5185 30.6998 48.7Z" fill="white"/>
<path d="M46.71 16.2101C44.48 16.2101 43.37 14.4301 44.14 12.5901C44.3807 12.0371 44.7195 11.5324 45.14 11.1001C45.3528 10.8857 45.606 10.7156 45.8849 10.5995C46.1638 10.4834 46.4629 10.4236 46.765 10.4236C47.0671 10.4236 47.3662 10.4834 47.6451 10.5995C47.924 10.7156 48.1771 10.8857 48.39 11.1001C48.5 11.1801 48.57 11.3001 48.68 11.3701C49.0757 11.6562 49.3605 12.0703 49.4862 12.5422C49.612 13.0141 49.5709 13.5149 49.37 13.9601C49.2483 14.4475 49.0139 14.8997 48.6857 15.28C48.3574 15.6604 47.9444 15.9584 47.48 16.1501C47.2291 16.2168 46.9682 16.2371 46.71 16.2101ZM46.44 14.6301C47.06 14.6301 47.3 14.4401 47.67 13.6301C47.8069 13.2976 47.8322 12.9297 47.742 12.5816C47.6518 12.2336 47.4511 11.9242 47.17 11.7001C46.83 11.5101 46.26 11.7001 45.82 12.2701C45.6175 12.4977 45.4552 12.7581 45.34 13.0401C45.2297 13.2142 45.1731 13.4171 45.1772 13.6232C45.1814 13.8294 45.2462 14.0297 45.3635 14.1993C45.4808 14.3688 45.6455 14.5001 45.8369 14.5767C46.0283 14.6533 46.2381 14.6719 46.44 14.6301Z" fill="white"/>
<path d="M59.9998 56.19C60.0168 56.7943 59.8282 57.3865 59.4649 57.8697C59.1016 58.3529 58.5851 58.6985 57.9998 58.85C57.5533 58.9114 57.0987 58.8664 56.6729 58.7186C56.2472 58.5709 55.8623 58.3247 55.5498 58C55.0932 57.2847 54.9162 56.4262 55.0528 55.5887C55.1893 54.7511 55.6297 53.9933 56.2898 53.46C56.6334 53.2727 57.0185 53.1746 57.4098 53.1746C57.8011 53.1746 58.1862 53.2727 58.5298 53.46C59.0365 53.6956 59.4535 54.0887 59.7184 54.5807C59.9834 55.0728 60.0821 55.6373 59.9998 56.19ZM58.4098 55.86C58.3049 55.5664 58.2213 55.2656 58.1598 54.96C58.1098 54.6 57.9098 54.56 57.6298 54.56C57.2819 54.6149 56.9635 54.7881 56.7285 55.0504C56.4935 55.3128 56.3562 55.6482 56.3398 56C56.3174 56.1566 56.3276 56.3161 56.3696 56.4685C56.4117 56.621 56.4848 56.7631 56.5842 56.8861C56.6837 57.009 56.8075 57.1101 56.9478 57.1831C57.0881 57.256 57.242 57.2992 57.3998 57.31C57.8098 57.37 58.3998 56.83 58.4498 56.31C58.4598 56.24 58.4498 56.15 58.4498 55.86H58.4098Z" fill="white"/>
<path d="M29.3301 31.28C28.9511 31.6037 28.5058 31.8404 28.0255 31.9734C27.5452 32.1065 27.0416 32.1326 26.5501 32.05C26.3427 31.9967 26.153 31.8898 26.0001 31.74C25.685 31.4731 25.4257 31.1468 25.2369 30.7796C25.0482 30.4123 24.9337 30.0115 24.9001 29.6C24.6692 28.3547 24.8445 27.0682 25.4001 25.93C25.6401 25.48 25.7401 24.93 26.0001 24.52C26.2061 24.0804 26.2691 23.5873 26.1801 23.11C26.1801 22.23 25.8901 22.01 25.0001 22.01C24.5601 22.01 24.1201 22.01 23.6801 22.01C23.5501 22.01 23.3101 21.85 23.3101 21.77C23.31 21.6736 23.3305 21.5782 23.3702 21.4903C23.4098 21.4023 23.4677 21.3238 23.5401 21.26C23.7989 21.1122 24.0843 21.017 24.3801 20.98C24.7701 20.98 25.1701 20.98 25.5601 20.98C25.8881 20.9235 26.2253 20.9961 26.5011 21.1824C26.7769 21.3688 26.9701 21.6546 27.0401 21.98C27.2527 22.3973 27.3799 22.8528 27.4142 23.3199C27.4485 23.7869 27.3893 24.2561 27.2401 24.7C26.8201 25.7 26.5001 26.78 26.0901 27.81C25.9413 28.2818 25.9175 28.7841 26.0209 29.2679C26.1243 29.7516 26.3514 30.2003 26.6801 30.57C26.8212 30.7352 26.9981 30.8662 27.1973 30.9528C27.3966 31.0394 27.613 31.0795 27.8301 31.07C28.3342 31.106 28.8354 31.1762 29.3301 31.28Z" fill="white"/>
<path d="M33.0001 31.48C33.0319 31.0522 33.1124 30.6295 33.2401 30.22C33.3803 29.7116 33.6992 29.2709 34.1383 28.9788C34.5773 28.6867 35.1071 28.5629 35.6301 28.63C36.1474 28.6004 36.6658 28.6648 37.1601 28.82C37.4537 28.9359 37.7195 29.1124 37.9401 29.3382C38.1607 29.564 38.3311 29.8338 38.4401 30.13C38.6589 30.731 38.68 31.3862 38.5001 32C38.3321 32.4752 38.0677 32.9106 37.7235 33.2788C37.3794 33.647 36.9629 33.9402 36.5001 34.14C36.112 34.3178 35.6807 34.3793 35.2583 34.3172C34.836 34.2551 34.4406 34.072 34.1201 33.79C33.7372 33.5471 33.4296 33.2022 33.2318 32.7942C33.0339 32.3862 32.9537 31.9311 33.0001 31.48ZM37.3001 31.36C37.3001 30.6 36.4101 29.41 35.8601 29.46C35.3362 29.5312 34.8523 29.7792 34.4886 30.1629C34.1249 30.5466 33.9032 31.0431 33.8601 31.57C33.8783 32.0024 34.0657 32.4103 34.3818 32.7058C34.6979 33.0014 35.1175 33.1609 35.5501 33.15C36.0001 33.0932 36.4175 32.8851 36.7337 32.5598C37.0498 32.2345 37.2461 31.8115 37.2901 31.36H37.3001Z" fill="white"/>
<path d="M46.73 45.8401C47.32 45.7901 47.73 45.8401 47.91 46.4801C47.99 46.7401 48.32 46.9201 48.54 47.1401C48.7383 47.3106 48.8693 47.5462 48.9097 47.8046C48.95 48.063 48.8969 48.3273 48.76 48.5501C48.43 49.2901 48.06 49.9601 47.17 50.0401C46.716 50.0798 46.2591 50.0097 45.8379 49.8356C45.4167 49.6616 45.0435 49.3887 44.75 49.0401C44.4668 48.6767 44.3303 48.2203 44.3673 47.7612C44.4043 47.302 44.6123 46.8734 44.95 46.5601C45.44 46.1201 46 45.6101 46.73 45.8401Z" fill="white"/>
<path d="M71.67 32.1C71.7067 31.7264 71.8274 31.366 72.0231 31.0456C72.2188 30.7253 72.4843 30.4533 72.8 30.25C72.9808 30.0953 73.2063 30.0021 73.4436 29.9842C73.681 29.9662 73.9179 30.0243 74.12 30.15C75.94 31.15 76.06 32.15 74.98 33.87C74.59 34.5 73.12 34.52 72.4 33.99C71.68 33.46 71.65 33.27 71.67 32.1Z" fill="white"/>
<path d="M73.5197 41.92C73.479 41.6154 73.5174 41.3054 73.6312 41.0199C73.7451 40.7344 73.9305 40.4831 74.1697 40.29C74.5697 39.98 75.0897 39.52 75.4997 39.58C76.069 39.7672 76.5933 40.0702 77.0397 40.47C77.2129 40.6048 77.3468 40.7834 77.4277 40.9874C77.5086 41.1913 77.5334 41.4132 77.4997 41.63C77.5334 42.203 77.344 42.7667 76.9711 43.203C76.5982 43.6392 76.0709 43.9142 75.4997 43.97C75.2345 43.9675 74.9724 43.9122 74.7288 43.8074C74.4851 43.7026 74.2648 43.5503 74.0805 43.3596C73.8962 43.1688 73.7518 42.9433 73.6555 42.6961C73.5592 42.449 73.513 42.1852 73.5197 41.92Z" fill="white"/>
<path d="M63.4601 62.48C64.0801 62.66 64.1401 62.76 63.8001 63.08C63.4601 63.4 63.2601 63.49 62.9601 63.72C63.1089 63.863 63.2773 63.9842 63.4601 64.08C63.7601 64.18 63.7901 64.34 63.6201 64.56C63.4501 64.78 63.2901 65.01 62.9901 64.76C62.6901 64.51 62.5401 64.34 62.2501 64.07C62.1525 64.5772 62.1122 65.0938 62.1301 65.61C62.1036 65.8553 62.0216 66.0913 61.8901 66.3C61.7401 66.51 61.4801 66.52 61.3901 66.24C61.2381 65.8431 61.1503 65.4245 61.1301 65C61.1301 64.38 61.1301 64.44 60.2801 64.23C60.0844 64.1946 59.8932 64.1376 59.7101 64.06C59.6557 64.0445 59.6079 64.0117 59.5739 63.9666C59.5399 63.9215 59.5215 63.8665 59.5215 63.81C59.5215 63.7535 59.5399 63.6985 59.5739 63.6534C59.6079 63.6083 59.6557 63.5755 59.7101 63.56C60.0701 63.35 60.4901 63.22 60.8601 63.03C60.9701 62.97 61.1201 62.72 61.0901 62.67C60.7601 62.22 60.7201 61.97 61.4101 61.96C61.5147 61.9351 61.6115 61.8845 61.6917 61.813C61.772 61.7414 61.8333 61.6511 61.8701 61.55C62.0201 61.09 62.2201 61.14 62.5401 61.36C62.6995 61.4214 62.8692 61.4519 63.0401 61.45C64.0901 61.57 64.1101 61.6 63.5101 62.52C63.3404 62.505 63.1697 62.505 63.0001 62.52C62.9301 62.52 62.8601 62.64 62.7901 62.7C62.8701 62.7 62.9601 62.81 63.0201 62.78C63.0801 62.75 63.3001 62.57 63.4601 62.48Z" fill="white"/>
<path d="M56.0001 31.55C55.715 31.5522 55.4327 31.4935 55.1722 31.3778C54.9117 31.262 54.679 31.0919 54.4896 30.8788C54.3002 30.6657 54.1585 30.4146 54.0741 30.1423C53.9897 29.87 53.9644 29.5829 54.0001 29.3C54.0001 27.89 54.5601 27.3 55.9201 27.3C56.2212 27.271 56.5251 27.3071 56.8111 27.4058C57.0971 27.5046 57.3585 27.6637 57.5776 27.8724C57.7967 28.081 57.9684 28.3344 58.0809 28.6152C58.1935 28.896 58.2444 29.1978 58.2301 29.5C58.2499 29.7902 58.2043 30.0811 58.0965 30.3513C57.9888 30.6214 57.8217 30.8639 57.6075 31.0607C57.3934 31.2576 57.1378 31.4037 56.8595 31.4884C56.5813 31.5731 56.2875 31.5942 56.0001 31.55ZM55.9001 30.5H56.0301C56.5701 30.56 56.8201 30.16 57.0301 29.8C57.2401 29.44 57.0301 29.13 56.7101 28.92C56.3901 28.71 56.1101 27.98 55.4601 28.14C55.2622 28.2257 55.0974 28.373 54.9901 28.56C54.9101 28.69 54.9401 28.9 54.8901 29.06C54.8066 29.2245 54.7702 29.4088 54.785 29.5927C54.7998 29.7766 54.8651 29.9528 54.9738 30.1018C55.0824 30.2508 55.2302 30.3669 55.4008 30.4372C55.5713 30.5075 55.7579 30.5292 55.9401 30.5H55.9001Z" fill="white"/>
<path d="M41.5097 56.0001C41.3102 56.1377 41.0995 56.2581 40.8797 56.3601C40.5897 56.4701 40.3597 56.5301 40.1597 56.1101C39.9597 55.6901 39.5697 55.6401 39.2997 55.3701C38.1697 54.2701 37.0597 53.1501 35.9297 52.0401C35.8596 51.989 35.8014 51.9233 35.7591 51.8475C35.7169 51.7718 35.6915 51.6877 35.6849 51.6012C35.6782 51.5147 35.6904 51.4278 35.7206 51.3465C35.7508 51.2651 35.7982 51.1913 35.8597 51.1301C36.0497 50.9001 36.2397 50.7801 36.5097 51.0301L41.4397 55.7301C41.4897 55.7601 41.4797 55.8601 41.5097 56.0001Z" fill="white"/>
<path d="M50.7701 30.43C50.7852 30.6064 50.7852 30.7837 50.7701 30.96C50.6301 31.78 49.9401 32.43 49.3101 32.33C49.0788 32.3024 48.8555 32.2277 48.6541 32.1106C48.4526 31.9936 48.2772 31.8366 48.1386 31.6493C48.0001 31.462 47.9012 31.2484 47.8481 31.0215C47.7951 30.7947 47.789 30.5594 47.8301 30.33C47.849 30.0339 47.9062 29.7415 48.0001 29.46C48.2401 28.99 49.9201 28.79 50.3601 29.11C50.8001 29.43 50.7901 30 50.7701 30.43Z" fill="white"/>
<path d="M59.4298 36.3601L58.8198 37.8801C58.4298 37.6201 57.8198 37.8301 57.5298 37.1801C57.3818 37.1668 57.233 37.1945 57.0998 37.2601C56.7398 37.4801 56.3998 37.7201 56.0398 37.9601C55.9221 37.825 55.8454 37.6591 55.8188 37.4819C55.7923 37.3048 55.8169 37.1237 55.8898 36.9601C55.9226 36.8593 55.9226 36.7508 55.8898 36.6501C55.6598 36.1001 55.6598 36.1101 55.9998 35.8201C56.1172 35.7289 56.2129 35.6128 56.2798 35.4801C56.5398 34.9101 56.5198 34.9201 57.1298 35.1801C57.2022 35.212 57.2806 35.2285 57.3598 35.2285C57.439 35.2285 57.5173 35.212 57.5898 35.1801C57.8898 35.0201 58.1398 34.7601 58.4498 34.6201C58.6436 34.5857 58.8433 34.6249 59.0098 34.7301C59.2198 34.8401 59.0898 35.0001 59.0098 35.1501C58.9298 35.3001 58.8098 35.5301 58.6698 35.6901C58.5298 35.8501 58.3198 36.0501 58.5198 36.3701C58.7198 36.6901 59.0698 36.2501 59.4298 36.3601Z" fill="white"/>
<path d="M28.6799 36.8901C28.8079 36.6858 28.9516 36.4919 29.1099 36.3101C29.2257 36.2193 29.3536 36.1453 29.4899 36.0901C29.5583 36.2411 29.5957 36.4043 29.5999 36.5701C29.5417 36.7765 29.4577 36.9747 29.3499 37.1601C29.1899 37.5001 29.1999 37.4901 29.6599 37.6701C29.706 37.6989 29.7458 37.7368 29.7767 37.7815C29.8077 37.8262 29.8292 37.8768 29.8399 37.9301C29.4099 38.4001 29.7699 38.7001 30.0599 39.0301C30.0871 39.0826 30.1013 39.1409 30.1013 39.2001C30.1013 39.2592 30.0871 39.3175 30.0599 39.3701C30.0116 39.4096 29.9553 39.4381 29.8948 39.4536C29.8344 39.4692 29.7713 39.4714 29.7099 39.4601C29.4599 39.4101 29.2299 39.2801 28.9799 39.2301C28.7299 39.1801 28.2799 38.8601 28.1599 39.4801C28.1342 39.5413 28.0946 39.5958 28.0443 39.6391C27.994 39.6825 27.9343 39.7136 27.8699 39.7301C27.7023 39.7494 27.5327 39.7217 27.3799 39.6501C27.3528 39.5993 27.3386 39.5427 27.3386 39.4851C27.3386 39.4275 27.3528 39.3709 27.3799 39.3201C27.7499 38.8901 27.4899 38.7701 27.1099 38.6001C26.7299 38.4301 26.6799 38.2001 26.9399 37.8401C27.0199 37.7301 26.8099 37.4501 26.8599 37.2801C26.9099 37.1101 27.1899 36.9201 27.2499 36.9501C27.5899 37.1401 27.8199 37.2201 27.8499 36.7001C27.8448 36.5711 27.8836 36.4442 27.9599 36.3401C28.067 36.2127 28.2159 36.1276 28.3799 36.1001C28.4499 36.1001 28.5499 36.3301 28.6199 36.4701C28.6531 36.6079 28.6731 36.7485 28.6799 36.8901Z" fill="white"/>
<path d="M57.6499 14.5501C57.6499 14.1201 57.5699 13.6801 57.9799 13.3401C58.1769 13.175 58.4165 13.0687 58.6711 13.0333C58.9258 12.9979 59.1852 13.0349 59.4199 13.1401C59.6877 13.284 59.9134 13.4953 60.0747 13.7531C60.2361 14.0109 60.3274 14.3062 60.3399 14.6101C60.3394 14.9142 60.2563 15.2125 60.0996 15.4732C59.9428 15.7338 59.7183 15.947 59.4499 16.0901C59.267 16.1667 59.0692 16.2009 58.8712 16.19C58.6732 16.1791 58.4803 16.1234 58.307 16.0271C58.1337 15.9309 57.9845 15.7965 57.8707 15.6342C57.7569 15.4718 57.6813 15.2858 57.6499 15.0901C57.6399 14.9001 57.6499 14.7201 57.6499 14.5501Z" fill="white"/>
<path d="M34.7501 41.07C34.6037 41.0781 34.4571 41.0566 34.3192 41.0067C34.1813 40.9568 34.0548 40.8796 33.9475 40.7797C33.8401 40.6798 33.754 40.5592 33.6943 40.4253C33.6346 40.2913 33.6026 40.1467 33.6001 40C33.6105 39.6356 33.7435 39.2854 33.9776 39.0059C34.2117 38.7265 34.5332 38.5341 34.8901 38.46C35.0388 38.4586 35.1863 38.4873 35.3236 38.5444C35.4609 38.6016 35.5852 38.686 35.6889 38.7926C35.7927 38.8991 35.8738 39.0256 35.9273 39.1644C35.9807 39.3032 36.0055 39.4514 36.0001 39.6C36.0001 40.54 35.5201 41.09 34.7501 41.07Z" fill="white"/>
<path d="M66.8998 35.0001C66.8998 35.8101 66.5098 36.3201 65.8398 36.3401C65.5698 36.3401 65.3198 36.3401 65.3198 35.9401C65.3198 35.5401 65.3198 35.1501 65.3198 34.7601C65.3198 34.1601 65.5698 33.9501 66.0898 33.9501C66.6098 33.9501 66.8498 34.1701 66.8898 34.7401C66.8982 34.8265 66.9015 34.9133 66.8998 35.0001Z" fill="white"/>
<path d="M60.07 50.6601C59.943 50.3785 59.8491 50.0832 59.79 49.7801C59.79 49.6301 59.96 49.3101 60.04 49.3101C60.2791 49.3318 60.5059 49.426 60.69 49.5801C60.77 49.6701 60.69 49.9701 60.62 50.1201C60.55 50.2701 60.33 50.4101 60.07 50.6601Z" fill="white"/>
<path d="M35.1699 66.44C35.1699 65.92 35.5199 65.66 35.8899 65.68C36.2599 65.7 36.2399 66 36.2399 66.25C36.2399 66.68 35.9199 67.07 35.6799 66.94C35.4839 66.8021 35.3117 66.6332 35.1699 66.44Z" fill="white"/>
<path d="M33.6797 66.8201C33.8897 67.0801 34.1197 67.2401 34.0897 67.3501C34.0108 67.5851 33.8925 67.8049 33.7397 68.0001C33.5836 67.8219 33.4524 67.6235 33.3497 67.4101C33.3197 67.2801 33.5197 67.1001 33.6797 66.8201Z" fill="white"/>
<path d="M31.2797 67.88C31.3665 68.0884 31.4269 68.3067 31.4597 68.53C31.4597 68.64 31.2097 68.84 31.1797 68.82C31.0192 68.7066 30.8716 68.5758 30.7397 68.43L31.2797 67.88Z" fill="white"/>
</svg>
