<svg width="90" height="90" viewBox="0 0 90 90" fill="none" xmlns="http://www.w3.org/2000/svg">
<path d="M64.9102 25.2C65.4202 25.2 65.9802 25.2 66.5402 25.2C68.7615 25.3009 70.8922 26.1104 72.6202 27.51C72.7664 27.6047 72.8895 27.7312 72.9802 27.88C73.7904 29.0194 74.4998 30.2273 75.1002 31.49C75.8478 33.312 76.1263 35.2925 75.9102 37.25C75.7046 38.6847 74.9958 39.9997 73.9102 40.96C72.581 42.2232 70.9749 43.1581 69.2202 43.69C68.9502 43.77 68.8902 43.88 68.9802 44.14C69.1502 44.62 69.2302 45.14 69.4402 45.58C69.9008 46.6306 70.013 47.8011 69.7602 48.92C69.5664 50.0426 69.2093 51.1308 68.7002 52.15C68.0237 53.4618 67.0882 54.6229 65.9504 55.5631C64.8126 56.5032 63.496 57.203 62.0802 57.62C61.5476 57.7959 60.9772 57.8236 60.4302 57.7C58.9102 57.34 57.3402 57.28 55.8402 56.77C55.1602 56.5379 54.5343 56.1706 54.0002 55.69C52.4702 58.52 49.9002 59.94 47.0002 60.76C45.9575 61.1536 44.8181 61.213 43.7402 60.93C42.9077 60.7726 42.0659 60.6691 41.2202 60.62C39.5746 60.3591 38.0452 59.6101 36.8302 58.47C36.1402 57.83 35.5602 57.08 34.9302 56.37C34.7102 56.11 34.5002 55.84 34.2702 55.56C33.3502 56.17 32.5402 56.71 31.7302 57.23C30.9937 57.6552 30.1766 57.9219 29.3311 58.0132C28.4856 58.1044 27.6304 58.0182 26.8202 57.76C24.9426 57.3179 23.2482 56.3048 21.9702 54.86C21.3498 54.2237 20.7624 53.5562 20.2102 52.86C19.6362 52.1179 19.3045 51.2171 19.2602 50.28C19.1326 49.6208 19.0656 48.9514 19.0602 48.28C19.1996 47.1488 19.5028 46.0439 19.9602 45C20.014 44.8755 20.0509 44.7443 20.0702 44.61C18.1212 43.8752 16.4716 42.514 15.3802 40.74C14.5335 39.4831 14.0555 38.0144 14.0002 36.5C14.0002 35.85 14.0002 35.2 14.0002 34.5C13.9665 33.6445 14.1707 32.7964 14.5902 32.05C15.5245 30.2498 16.8421 28.6762 18.4502 27.44C19.473 26.671 20.7205 26.2598 22.0002 26.27C22.8526 26.1534 23.7204 26.2285 24.5402 26.49C24.9802 26.67 25.1202 26.49 25.2202 25.9C25.3861 24.2601 25.8008 22.655 26.4502 21.14C27.469 19.0519 29.2631 17.4443 31.4502 16.66C32.2758 16.2842 33.1281 15.97 34.0002 15.72C34.9888 15.5255 36.0035 15.5018 37.0002 15.65C37.9102 15.77 38.8102 16.01 39.7402 16.13C40.4822 16.2826 41.1991 16.5384 41.8702 16.89C42.9702 17.4 42.9302 17.4 43.7702 16.66C45.677 14.9644 47.9933 13.7959 50.4902 13.27C51.0524 13.2198 51.6179 13.2198 52.1802 13.27C52.5156 13.2971 52.8533 13.2701 53.1802 13.19C53.3322 13.1022 53.5046 13.056 53.6802 13.056C53.8557 13.056 54.0281 13.1022 54.1802 13.19C54.3802 13.2688 54.5968 13.2963 54.8102 13.27C56.7808 13.3468 58.6567 14.1356 60.0902 15.49C61.5504 16.7946 62.8016 18.3157 63.8002 20C64.0875 20.4264 64.2471 20.926 64.2602 21.44C64.3082 22.1111 64.395 22.7789 64.5202 23.44C64.6102 24 64.7502 24.49 64.9102 25.2ZM42.4102 18.48C41.2258 17.8228 39.9036 17.4528 38.5502 17.4C38.2486 17.4463 37.9417 17.4463 37.6402 17.4C35.8976 16.919 34.0436 17.0424 32.3802 17.75C31.156 18.1245 30.0408 18.7902 29.1302 19.69C28.1645 20.7134 27.4611 21.9555 27.0802 23.31C26.7902 24.54 26.6902 25.81 26.5002 27.07C26.3994 27.435 26.3456 27.8114 26.3402 28.19C26.4002 28.59 26.6502 28.97 26.3402 29.45C26.0502 29.28 25.6402 29.19 25.5202 28.94C25.3121 28.4197 25.1547 27.8805 25.0502 27.33C24.2845 27.2751 23.5158 27.2751 22.7502 27.33C21.4345 27.4372 20.1857 27.9548 19.1802 28.81C18.2188 29.6771 17.3508 30.6424 16.5902 31.69C16.0411 32.3856 15.6643 33.2011 15.4905 34.0701C15.3167 34.939 15.3508 35.8368 15.5902 36.69C15.7502 37.17 15.7302 37.69 15.9002 38.18C16.1382 38.8902 16.4748 39.5634 16.9002 40.18C17.4603 40.8183 18.0545 41.4258 18.6802 42C19.2863 42.6533 20.1126 43.0594 21.0002 43.14C21.5047 43.2124 21.9904 43.3822 22.4302 43.64C23.0802 43.99 23.0902 43.99 22.9602 44.99C22.4202 44.92 21.8802 45.1 21.3502 44.76C21.1202 44.61 20.8602 44.69 20.7102 45.12C20.3058 46.3336 20.1361 47.613 20.2102 48.89C20.2135 49.914 20.5311 50.9123 21.1202 51.75C22.498 53.9375 24.6344 55.5398 27.1202 56.25C27.8079 56.4771 28.5391 56.5411 29.2559 56.437C29.9727 56.3329 30.6554 56.0634 31.2502 55.65C32.2502 54.92 33.0502 54.05 33.9502 53.25C34.1924 53.0044 34.4496 52.774 34.7202 52.56C34.9102 52.42 35.2502 52.62 35.2902 52.86C35.3638 53.2468 35.3382 53.6459 35.2158 54.0202C35.0934 54.3944 34.8781 54.7315 34.5902 55C35.5902 55.83 36.5402 56.65 37.5202 57.4C38.5601 58.1631 39.7439 58.7074 41.0002 59C42.3925 59.2735 43.8128 59.3776 45.2302 59.31C45.8706 59.3368 46.5099 59.2348 47.1102 59.01C48.6442 58.5034 50.0523 57.6749 51.2402 56.58C51.9023 55.9108 52.4496 55.1371 52.8602 54.29C53.1702 53.64 53.5102 53 53.8602 52.37C53.9707 52.1434 54.1274 51.9425 54.3202 51.78C54.5802 51.6 55.2202 51.95 55.1002 52.15C54.7502 52.73 55.0302 53.34 54.8802 53.92C54.7302 54.5 54.8102 54.83 55.2702 55.02C55.7302 55.21 56.1702 55.25 56.6102 55.38C57.6702 55.71 58.8002 55.58 59.8802 55.85C60.5916 56.06 61.3487 56.06 62.0602 55.85C63.0476 55.457 63.9684 54.9139 64.7902 54.24C66.0089 53.2157 66.9567 51.9072 67.5502 50.43C67.9529 49.7014 68.1789 48.8884 68.2102 48.0564C68.2415 47.2245 68.077 46.3968 67.7302 45.64C67.5451 45.1846 67.4044 44.7124 67.3102 44.23C65.1502 44.23 65.1502 44.23 64.3102 43.58C64.5512 43.2842 64.8568 43.0475 65.2034 42.888C65.5501 42.7285 65.9287 42.6505 66.3102 42.66C67.2302 42.55 68.1402 42.37 69.0502 42.21C70.0259 41.9047 70.9376 41.4235 71.7402 40.79C72.6505 40.2637 73.3867 39.4822 73.8576 38.542C74.3286 37.6018 74.5138 36.5443 74.3902 35.5C74.3063 34.7013 74.1387 33.9137 73.8902 33.15C73.4171 31.61 72.672 30.1672 71.6902 28.89C71.0179 28.1652 70.1858 27.6071 69.2602 27.26C67.7239 26.4535 65.9468 26.2332 64.2602 26.64C63.3902 26.81 62.5502 27.08 61.6902 27.26C61.5702 27.26 61.3002 27.13 61.2902 27.04C61.2866 26.9522 61.3038 26.8649 61.3403 26.785C61.3768 26.705 61.4315 26.6348 61.5002 26.58C62.1202 26.25 62.7702 25.96 63.3202 25.69C62.8269 24.6462 62.5287 23.5211 62.4402 22.37C62.4222 21.6864 62.1837 21.0269 61.7602 20.49C61.4339 20.0455 61.1302 19.585 60.8502 19.11C59.8755 17.5854 58.4885 16.3683 56.8502 15.6C56.147 15.2184 55.3819 14.9645 54.5902 14.85C52.6304 14.6374 50.6481 14.8839 48.8002 15.57C46.4402 16.52 44.3502 17.75 43.1202 20.1C42.9245 20.4443 42.7109 20.7781 42.4802 21.1C42.3821 21.245 42.234 21.3487 42.0642 21.3911C41.8944 21.4336 41.7149 21.4118 41.5602 21.33C41.4202 21.27 41.3202 20.89 41.3502 20.68C41.4201 20.3084 41.5413 19.9483 41.7102 19.61C41.8902 19.2 42.1402 18.9 42.4102 18.48Z" fill="white"/>
<path d="M63.2499 65.31C63.2619 66.2824 63.0413 67.2435 62.6064 68.1132C62.1715 68.983 61.535 69.7362 60.7499 70.31C60.0238 70.8888 59.2356 71.3852 58.3999 71.79C57.6317 72.0669 56.8046 72.1392 55.9999 72C55.745 71.9813 55.5014 71.8874 55.2999 71.73C54.2259 70.8951 53.2793 69.908 52.4899 68.8C51.74 67.5807 51.496 66.1166 51.8099 64.72C52.0138 63.3225 52.6749 62.032 53.6899 61.05C54.4677 60.3192 55.475 59.881 56.5399 59.81C57.3459 59.7091 58.1642 59.8123 58.9199 60.11C59.5264 60.4 60.1593 60.6311 60.8099 60.8C61.1037 60.8553 61.3794 60.9818 61.613 61.1683C61.8466 61.3549 62.0309 61.5958 62.1499 61.87C62.4925 62.4612 62.7771 63.0841 62.9999 63.73C63.1364 64.2469 63.2201 64.7762 63.2499 65.31ZM53.2499 65.47C53.2631 66.0225 53.3335 66.5721 53.4599 67.11C54.0256 68.3175 54.9022 69.3529 55.9999 70.11C56.1671 70.226 56.3564 70.3063 56.556 70.3459C56.7555 70.3855 56.9611 70.3835 57.1599 70.34C58.3866 70.0614 59.4725 69.3517 60.2199 68.34C61.2199 66.98 61.9899 65.56 61.2199 63.81C61.0863 63.4551 60.9794 63.0908 60.8999 62.72C60.7599 62.18 60.3499 61.72 59.8999 61.65C58.6599 61.58 57.5299 60.87 56.1899 61.27C55.3854 61.4155 54.6685 61.8671 54.1899 62.53C53.5192 63.3576 53.1837 64.4068 53.2499 65.47Z" fill="white"/>
<path d="M72.3004 72.57C72.3367 73.6438 71.9717 74.6925 71.2765 75.5116C70.5812 76.3307 69.6058 76.8614 68.5404 77C67.4694 77.0098 66.4315 76.6294 65.6204 75.93C65.0553 75.418 64.6459 74.7571 64.4389 74.0232C64.232 73.2892 64.236 72.5118 64.4504 71.78C64.6846 70.9604 65.1397 70.221 65.7658 69.6425C66.3918 69.0641 67.1649 68.6688 68.0004 68.5C68.7536 68.4581 69.507 68.5774 70.2104 68.85C70.8604 69 71.1404 69.55 71.4404 70.08C72 70.7891 72.3031 71.6667 72.3004 72.57ZM68.5804 69.94C68.2822 69.9485 67.9864 69.9955 67.7004 70.08C66.8561 70.4808 66.2052 71.2 65.8904 72.08C65.7694 72.5549 65.7912 73.0548 65.9531 73.5173C66.115 73.9798 66.4097 74.3843 66.8004 74.68C67.1561 75.001 67.6152 75.1836 68.0942 75.1946C68.5732 75.2056 69.0403 75.0443 69.4104 74.74C69.7504 74.5192 70.0378 74.2265 70.2523 73.8825C70.4667 73.5385 70.6031 73.1517 70.6518 72.7492C70.7004 72.3468 70.6601 71.9385 70.5337 71.5534C70.4074 71.1682 70.198 70.8154 69.9204 70.52C69.777 70.3041 69.5742 70.1344 69.3363 70.0315C69.0985 69.9285 68.8359 69.8968 68.5804 69.94Z" fill="white"/>
<path d="M46.3802 41.34C44.8089 40.3875 43.448 39.1253 42.3802 37.63C41.9673 37.1255 41.5087 36.6602 41.0102 36.24C40.093 35.3012 39.3543 34.2033 38.8302 33C38.6602 32.66 38.5002 32.31 38.3202 32C38.0102 31.38 37.9102 31.39 37.4802 31.9C36.8679 32.7426 36.0648 33.4283 35.1367 33.901C34.2086 34.3738 33.1818 34.6202 32.1402 34.62C31.7918 34.6076 31.4505 34.5189 31.1402 34.36C30.5802 34.07 30.0402 33.72 29.5002 33.36C29.3209 33.2543 29.1827 33.091 29.1083 32.8966C29.0338 32.7023 29.0274 32.4884 29.0902 32.29C29.1902 31.81 29.6302 31.78 29.9402 31.57C29.9402 31.57 30.1302 31.68 30.2402 31.72C30.6602 31.91 31.1002 32.04 31.5002 32.27C31.91 32.4666 32.3708 32.5309 32.8188 32.4538C33.2667 32.3768 33.6796 32.1623 34.0002 31.84C34.4425 31.5016 34.8188 31.0846 35.1102 30.61C35.5902 29.92 35.9802 29.16 36.4602 28.46C36.8972 27.8285 37.5068 27.3362 38.2161 27.0418C38.9254 26.7475 39.7045 26.6635 40.4602 26.8C40.8437 26.878 41.1933 27.0738 41.4602 27.36C42.8391 28.7033 44.0726 30.1882 45.1402 31.79C45.5102 32.31 45.8802 32.79 46.2702 33.33C46.6602 33.87 47.2102 34.56 47.7302 35.12C48.0744 35.4404 48.4421 35.7345 48.8302 36C49.2002 36.28 49.5902 36.55 49.9402 36.85C50.4902 37.31 50.6302 37.34 51.1302 36.85C52.2202 35.79 53.2902 34.71 54.3602 33.64C54.5802 33.43 54.8002 33.22 55.0002 32.99C55.1255 32.857 55.2891 32.7662 55.4683 32.7304C55.6475 32.6945 55.8334 32.7154 56.0002 32.79C56.3602 32.91 56.4502 33.25 56.4402 33.64C56.4402 34.81 56.4402 35.98 56.4402 37.15C56.4402 37.65 56.2002 38.15 56.2302 38.65C56.2902 39.4 56.5002 40.14 56.6202 40.89C56.9973 42.2214 57.199 43.5964 57.2202 44.98C55.5402 44.86 53.9402 45.08 52.3002 44.8C51.0682 44.5673 49.8011 44.5945 48.5802 44.88C48.0356 45.0193 47.4648 45.0193 46.9202 44.88C46.1215 44.7127 45.306 44.6388 44.4902 44.66C43.9602 44.66 43.8202 44.41 44.0902 43.93C44.2816 43.5988 44.5097 43.2901 44.7702 43.01C45.2602 42.49 45.8002 41.94 46.3802 41.34Z" fill="white"/>
<path d="M49.4702 18.0001C49.3802 17.9101 49.2102 17.8201 49.1802 17.7001C49.1502 17.5801 49.1802 17.3001 49.2702 17.2301C49.8994 16.7355 50.6703 16.4551 51.4702 16.4301C51.5264 16.4436 51.5789 16.4695 51.6238 16.5058C51.6688 16.5421 51.7051 16.588 51.7302 16.6401C51.7302 16.7501 51.7302 16.9801 51.7302 17.0101C51.0491 17.4851 50.2812 17.8215 49.4702 18.0001Z" fill="white"/>
<path d="M65.4403 28.6C65.2721 28.5305 65.1084 28.4503 64.9503 28.36C64.9049 28.3299 64.8677 28.289 64.842 28.2411C64.8162 28.1931 64.8027 28.1395 64.8027 28.085C64.8027 28.0306 64.8162 27.9769 64.842 27.929C64.8677 27.881 64.9049 27.8401 64.9503 27.81C65.2278 27.5879 65.5513 27.4305 65.8972 27.3491C66.2432 27.2678 66.603 27.2647 66.9503 27.34C67.0903 27.42 67.1303 27.71 67.1303 27.91C67.1299 27.9884 67.1095 28.0653 67.071 28.1336C67.0325 28.2018 66.9772 28.2591 66.9103 28.3C66.4403 28.42 66.0003 28.49 65.4403 28.6Z" fill="white"/>
<path d="M47.2001 19.22C47.2601 19.22 47.5201 19.33 47.5601 19.46C47.5627 19.5559 47.5443 19.6512 47.5063 19.7393C47.4683 19.8274 47.4116 19.9061 47.3401 19.97C46.9819 20.3351 46.5939 20.6696 46.1801 20.97C46.0907 21.0113 45.9935 21.0326 45.8951 21.0326C45.7967 21.0326 45.6994 21.0113 45.6101 20.97C45.5201 20.92 45.4801 20.65 45.5301 20.51C45.6065 20.13 45.8175 19.7903 46.1243 19.5533C46.4311 19.3163 46.8131 19.198 47.2001 19.22Z" fill="white"/>
<path d="M46.5503 56.39C46.7221 56.466 46.8993 56.5295 47.0803 56.58C47.2422 56.6105 47.4058 56.6305 47.5703 56.64C47.4903 56.86 47.4903 57.17 47.3303 57.3C47.0692 57.5299 46.7332 57.6568 46.3853 57.6568C46.0374 57.6568 45.7014 57.5299 45.4403 57.3C45.1903 57.09 45.2103 56.88 45.5303 56.75C45.8629 56.61 46.2035 56.4898 46.5503 56.39Z" fill="white"/>
<path d="M64.7601 49C64.7524 48.7468 64.8014 48.4951 64.9035 48.2632C65.0055 48.0314 65.1581 47.8253 65.3501 47.66C65.4083 47.6007 65.4827 47.5599 65.5641 47.5428C65.6454 47.5258 65.73 47.5333 65.807 47.5644C65.8841 47.5954 65.9503 47.6486 65.9971 47.7173C66.0439 47.7859 66.0693 47.8669 66.0701 47.95C66.0975 48.2477 66.0579 48.5478 65.954 48.8281C65.8502 49.1085 65.6848 49.362 65.4701 49.57C65.3601 49.67 65.1701 49.8 65.0801 49.76C64.9373 49.676 64.8278 49.5453 64.7701 49.39C64.7465 49.2613 64.7432 49.1297 64.7601 49Z" fill="white"/>
<path d="M18.4304 33.2C18.4304 33.41 18.4304 33.52 18.4304 33.58C18.1304 33.99 17.8404 34.4 17.5104 34.77C17.4304 34.86 17.1804 34.83 17.0304 34.77C16.8804 34.71 16.8804 34.55 16.9004 34.45C16.9437 34.1527 17.0569 33.8698 17.2307 33.6247C17.4046 33.3796 17.6341 33.1792 17.9004 33.04C18.0004 33 18.2604 33.15 18.4304 33.2Z" fill="white"/>
<path d="M60.74 53.83C60.2 53.83 59.85 53.64 59.84 53.33C59.83 53.02 60.2 52.78 60.72 52.8C60.93 52.8 61.21 52.8 61.33 52.92C61.45 53.04 61.95 52.92 61.75 53.33C61.65 53.53 61.64 53.87 61.26 53.83C61.0869 53.82 60.9132 53.82 60.74 53.83Z" fill="white"/>
<path d="M30.58 21C30.63 21 30.84 21.08 30.89 21.19C30.927 21.2646 30.9462 21.3467 30.9462 21.43C30.9462 21.5133 30.927 21.5954 30.89 21.67C30.6885 21.948 30.4534 22.1999 30.19 22.42C30.12 22.4544 30.043 22.4723 29.965 22.4723C29.8869 22.4723 29.81 22.4544 29.74 22.42C29.668 22.3814 29.6056 22.3273 29.5571 22.2616C29.5087 22.1958 29.4755 22.1202 29.46 22.04C29.4802 21.757 29.6071 21.4923 29.815 21.2993C30.0229 21.1062 30.2963 20.9993 30.58 21Z" fill="white"/>
<path d="M64.2801 51.17C64.4801 51.26 64.6801 51.31 64.6901 51.37C64.6999 51.5274 64.6538 51.6833 64.5601 51.81C64.3894 52.0057 64.2057 52.1894 64.0101 52.36C63.7601 52.61 63.5401 52.52 63.3501 52.3C63.1601 52.08 63.0801 51.73 63.3501 51.53C63.65 51.3856 63.961 51.2652 64.2801 51.17Z" fill="white"/>
<path d="M22.1 48.88C22.2 48.96 22.37 49.03 22.44 49.16C22.51 49.29 22.52 49.59 22.64 49.75C22.76 49.91 22.83 50.2 22.55 50.37C22.27 50.54 22.09 50.31 21.93 50.12C21.77 49.93 21.83 49.89 21.76 49.79C21.69 49.69 21.16 49.64 21.39 49.28C21.51 49.1 21.81 49 22.1 48.88Z" fill="white"/>
<path d="M31.7199 52.23C31.5991 52.5073 31.3847 52.7333 31.1142 52.8686C30.8437 53.0038 30.5342 53.0397 30.2399 52.97C30.0899 52.89 30.0199 52.65 29.9199 52.48C30.047 52.4015 30.1809 52.3345 30.3199 52.28C30.673 52.1616 31.0338 52.0681 31.3999 52C31.4999 52 31.6299 52.17 31.7199 52.23Z" fill="white"/>
<path d="M43.2801 58.26C42.6901 58.26 42.6201 58.19 42.6201 57.72C42.6201 57.25 42.8201 57.2 43.1901 57.23C43.5601 57.26 43.9501 57.47 43.9401 57.89C43.9301 58.31 43.5301 58.22 43.2801 58.26Z" fill="white"/>
<path d="M58.2304 53.77C57.8983 53.8118 57.5624 53.8118 57.2304 53.77C57.0013 53.6807 56.8104 53.5146 56.6904 53.3C56.5504 53.08 56.7504 52.81 57.0304 52.76C57.7604 52.69 57.8404 53.39 58.2304 53.77Z" fill="white"/>
<path d="M37.3999 54.37C37.6499 54.74 37.9199 55.11 38.1599 55.51C38.2899 55.72 38.1599 55.91 37.8699 55.91C37.3999 55.91 37.1799 55.56 36.9899 55.25C36.7999 54.94 36.9999 54.6 37.3999 54.37Z" fill="white"/>
<path d="M29.4204 24.4301C29.4204 24.5501 29.6304 24.7201 29.6104 24.8701C29.5651 25.1945 29.4742 25.511 29.3404 25.8101C29.2904 25.9101 29.0604 25.9701 28.9204 25.9801C28.8612 25.9746 28.8039 25.9566 28.7522 25.9273C28.7004 25.898 28.6555 25.858 28.6204 25.8101C28.5753 25.567 28.5909 25.3166 28.666 25.0811C28.741 24.8456 28.873 24.6322 29.0504 24.4601C29.1204 24.4201 29.2204 24.4401 29.4204 24.4301Z" fill="white"/>
<path d="M24.8501 53.32C24.5001 53.32 24.1201 53.32 24.1601 52.83C24.1601 52.58 24.1601 52.29 24.5201 52.29C24.8801 52.29 25.4501 52.64 25.4601 52.93C25.4801 53.41 25.1101 53.29 24.8501 53.32Z" fill="white"/>
<path d="M49.6803 55C49.6663 55.1279 49.6217 55.2506 49.5501 55.3576C49.4786 55.4646 49.3823 55.5527 49.2694 55.6146C49.1566 55.6764 49.0305 55.7101 48.9018 55.7128C48.7731 55.7154 48.6457 55.6871 48.5303 55.63C48.4724 55.5758 48.4285 55.5084 48.4023 55.4335C48.3762 55.3586 48.3687 55.2784 48.3803 55.2C48.4027 55.0759 48.456 54.9595 48.5352 54.8615C48.6145 54.7635 48.7171 54.6871 48.8338 54.6393C48.9504 54.5914 49.0771 54.5737 49.2024 54.5878C49.3276 54.602 49.4473 54.6474 49.5503 54.72C49.6303 54.77 49.6503 54.92 49.6803 55Z" fill="white"/>
<path d="M20.0002 30.2599C19.7902 30.5699 19.6002 30.8799 19.3802 31.1799C19.1602 31.4799 19.1002 31.5899 18.9102 31.6699C18.7202 31.7499 18.6002 31.0399 18.7902 30.7799C18.9802 30.5199 19.3202 29.9999 20.0002 30.2599Z" fill="white"/>
<path d="M53.8802 16.6C54.3402 16.68 54.5902 16.87 54.6102 17.27C54.6302 17.67 54.5002 17.68 54.2402 17.64C54.0742 17.6135 53.9147 17.5558 53.7702 17.47C53.5902 17.36 53.1702 17.38 53.3702 17C53.4702 16.81 53.7402 16.71 53.8802 16.6Z" fill="white"/>
<path d="M17.1603 36.79C17.1603 36.73 17.3503 36.45 17.5203 36.19C17.5563 36.1731 17.5955 36.1643 17.6353 36.1643C17.675 36.1643 17.7143 36.1731 17.7503 36.19C17.8545 36.3359 17.9106 36.5107 17.9106 36.69C17.9106 36.8693 17.8545 37.0441 17.7503 37.19C17.6803 37.29 17.6703 37.43 17.6003 37.53C17.5789 37.563 17.5491 37.5897 17.5139 37.6073C17.4788 37.6249 17.4395 37.6328 17.4003 37.63C17.2958 37.5943 17.2096 37.5189 17.1603 37.42C17.1373 37.2106 17.1373 36.9994 17.1603 36.79Z" fill="white"/>
<path d="M28.8403 53.71C28.6803 53.85 28.6003 53.97 28.4903 54.02C28.3135 54.0381 28.135 54.0087 27.9733 53.9349C27.8116 53.8611 27.6725 53.7455 27.5703 53.6C27.5703 53.47 27.5703 53.19 27.6603 53.16C27.8429 53.085 28.0477 53.085 28.2303 53.16C28.4565 53.3163 28.6615 53.5012 28.8403 53.71Z" fill="white"/>
<path d="M41.0599 57.25C41.0599 57.32 40.9899 57.42 40.9199 57.45C40.6099 57.57 40.1599 57.34 39.8699 56.89C39.8428 56.8392 39.8286 56.7826 39.8286 56.725C39.8286 56.6674 39.8428 56.6108 39.8699 56.56C39.9113 56.5144 39.9625 56.479 40.0197 56.4564C40.077 56.4339 40.1386 56.4248 40.1999 56.43C40.4035 56.4774 40.5906 56.5785 40.7418 56.7227C40.893 56.8669 41.0029 57.049 41.0599 57.25Z" fill="white"/>
<path d="M22.23 46.5401L22.7 46.05C22.8 46.2 23.03 46.3701 23 46.4901C22.9058 46.6963 22.7735 46.8829 22.61 47.0401L22.23 46.5401Z" fill="white"/>
<path d="M32.61 19.65C32.44 19.79 32.29 19.98 32.23 19.96C32.0612 19.8573 31.9065 19.7329 31.77 19.59C31.925 19.4583 32.0964 19.3474 32.28 19.26C32.28 19.26 32.46 19.47 32.61 19.65Z" fill="white"/>
<path d="M19.2804 39.13C19.1704 39.31 19.1304 39.45 19.0504 39.5C18.8104 39.63 18.4504 39.5 18.4904 39.26C18.5304 39.02 18.6104 39.03 18.6804 39.03C18.8837 39.0387 19.0852 39.0722 19.2804 39.13Z" fill="white"/>
<path d="M56.11 66.08C56.11 66.14 56.39 66.29 56.42 66.46C56.49 66.95 56.22 67.35 55.9 67.34C55.58 67.33 55.4 67 55.39 66.57C55.38 66.14 55.56 66 56.11 66.08Z" fill="white"/>
<path d="M57.48 68.61C57.48 68.11 57.48 67.85 57.93 67.89C58.15 67.89 58.46 67.79 58.51 68.18C58.5266 68.2719 58.5224 68.3663 58.4975 68.4562C58.4726 68.5461 58.4277 68.6293 58.3661 68.6995C58.3046 68.7697 58.2281 68.825 58.1421 68.8615C58.0562 68.898 57.9632 68.9145 57.87 68.91C57.7 68.9 57.55 68.67 57.48 68.61Z" fill="white"/>
</svg>
