<svg width="150" height="150" viewBox="0 0 150 150" fill="none" xmlns="http://www.w3.org/2000/svg">
<path d="M43.3333 76.4C43.5166 76.4 43.8166 76.3167 43.8833 76.1833C45.5499 73.45 48.1499 73.6833 50.7166 73.8667C51.26 73.8933 51.7899 74.0451 52.2651 74.3102C52.7402 74.5753 53.1477 74.9465 53.4558 75.3949C53.7639 75.8434 53.9643 76.3569 54.0413 76.8955C54.1183 77.4341 54.07 77.9832 53.8999 78.5C53.6289 79.241 53.6007 80.049 53.8194 80.8071C54.0382 81.5652 54.4925 82.234 55.1166 82.7167C59.2999 86.55 63.4499 90.4833 67.4499 94.3833C67.7137 94.7128 68.0773 94.9477 68.486 95.0529C68.8947 95.1581 69.3265 95.1278 69.7166 94.9667C70.8449 94.5025 72.071 94.3264 73.2843 94.4545C74.4977 94.5825 75.66 95.0105 76.6666 95.7C77.2922 96.0822 77.9943 96.3221 78.723 96.4027C79.4517 96.4834 80.1892 96.4028 80.8833 96.1667C82.7602 95.8046 84.6769 95.6925 86.5833 95.8333C86.8016 95.8381 87.0159 95.8926 87.2099 95.9928C87.4039 96.093 87.5724 96.2362 87.7027 96.4114C87.8329 96.5867 87.9214 96.7894 87.9614 97.004C88.0013 97.2187 87.9917 97.4396 87.9333 97.65C87.787 98.8926 87.5304 100.12 87.1666 101.317C86.9939 101.719 86.6698 102.037 86.2643 102.202C85.8589 102.368 85.4047 102.367 84.9999 102.2C84.1124 101.898 83.2441 101.541 82.3999 101.133C82.2985 101.3 82.22 101.479 82.1666 101.667C81.9499 105.617 80.8333 106.667 76.9499 106.667C76.7392 106.649 76.5274 106.649 76.3166 106.667L76.1166 106.167L75.8666 106.383L76.3666 106.6C76.367 107.018 76.452 107.432 76.6166 107.817C78.0999 109.933 77.6833 112.317 77.5666 114.633C77.5666 116.3 75.5666 118.333 74.1166 118.217C70.7833 117.967 67.9499 119.45 64.9999 120.4C61.3395 121.719 57.7609 123.255 54.2833 125C51.8999 126.1 49.3833 126.667 46.9499 127.683C43.1333 129.117 39.4333 130.833 35.6666 132.383C31.8999 133.933 28.4833 135.217 24.9999 136.667C23.7311 137.158 22.5186 137.784 21.3833 138.533C19.0666 140.2 16.2666 140.2 13.6833 141C12.94 141.142 12.1766 141.142 11.4333 141C9.33326 140.733 8.64993 139.733 8.43326 137.667C8.35632 135.443 8.87414 133.24 9.93326 131.283C13.0666 124.367 15.2333 117.033 18.3333 110C20.1833 105.917 21.5166 101.667 23.6666 97.6167C25.6166 94.0333 27.5999 90.45 29.3333 86.75C31.3333 82.5 33.0999 78.1333 34.8999 73.8C35.2999 72.8667 35.9166 72.2833 36.8166 72.5333C38.7072 73.0785 40.5657 73.7296 42.3833 74.4833C42.7483 74.6415 43.0447 74.925 43.2189 75.2826C43.3931 75.6403 43.4337 76.0484 43.3333 76.4333H39.9999C39.9999 78.4667 40.0833 80.3 39.9999 82.1C39.9212 82.8927 40.0048 83.6931 40.2454 84.4524C40.4861 85.2117 40.879 85.9141 41.3999 86.5167C41.7499 86.9333 42.0499 87.4 42.5666 88.1833C42.8333 83.9833 42.4166 80.15 43.3333 76.4ZM73.7333 110C73.7751 109.802 73.7751 109.598 73.7333 109.4C73.629 109.217 73.4936 109.053 73.3333 108.917C73.3333 109.1 73.1166 109.35 73.1999 109.45C73.3682 109.651 73.5715 109.821 73.7999 109.95V115.483C75.2666 113.333 75.6166 111.667 73.7333 110ZM75.0833 104.133L75.2999 105.267C75.4182 105.169 75.5296 105.063 75.6333 104.95C75.4419 104.689 75.236 104.438 75.0166 104.2C75.2999 102.767 75.5166 101.317 75.8833 99.9333C76.0333 99.3667 76.7666 98.7667 75.8833 98.4333C75.2666 98.2167 74.7999 97.2667 73.9166 97.9C73.5637 98.1243 73.1651 98.2666 72.7499 98.3167C71.6499 98.5 71.6166 99.2833 72.0333 99.9833C72.9333 101.467 74.0333 102.8 75.0833 104.2V104.133ZM66.2833 117.467C65.7499 117.1 65.3833 116.883 65.0666 116.617C62.4833 114.417 59.4166 112.55 57.4166 109.95C53.6833 104.95 48.9499 100.9 45.1333 96.0167C43.5666 94 41.5499 92.3 40.1333 90.2C38.6808 88.385 37.5531 86.3326 36.7999 84.1333C36.2481 82.5875 35.5622 81.0929 34.7499 79.6667C33.4499 82.7833 32.3166 85.7 31.0333 88.55C28.4999 94.2833 25.8166 100 23.3333 105.733C21.5166 109.85 19.9999 114.067 18.1499 118.2C16.4833 121.933 15.6166 125.95 13.6666 129.567C12.7917 131.239 12.0235 132.964 11.3666 134.733C11.1564 135.442 11.0553 136.178 11.0666 136.917C10.9666 138.15 12.1999 138.183 12.7333 138.367C14.0666 138.783 12.7333 137.583 13.1999 137.35C13.6666 137.117 13.8999 136.833 14.1499 136.9C14.9032 137.251 15.6768 137.557 16.4666 137.817C16.8666 137.817 17.3999 137.45 17.7999 137.133C17.7999 137.133 17.5166 136.533 17.4166 136.2C17.2562 135.899 17.1923 135.555 17.2333 135.217C17.4166 134.833 17.7333 134.767 18.2333 135.067C20.5999 136.533 20.7666 136.45 22.0499 133.917C22.3999 133.233 22.7666 133.467 23.3166 133.65C25.0666 134.167 25.3833 134.1 25.8166 132.433C26.1166 131.317 26.3166 131.4 27.2999 131.75C29.1333 132.433 30.0833 132.15 30.3499 130.733C30.6166 129.317 31.2333 129.4 32.2833 129.767C32.9783 130.008 33.7181 130.094 34.4499 130.017C34.7833 130.017 35.3499 129.183 35.2666 128.983C35.0333 128.483 35.0666 128.133 35.4999 127.967C35.8387 127.878 36.1945 127.878 36.5333 127.967C38.9666 128.383 39.1333 128.25 39.5499 125.867C39.5499 125.75 39.8666 125.667 40.2166 125.467C40.7786 126.027 41.5222 126.368 42.3134 126.43C43.1047 126.491 43.8919 126.267 44.5333 125.8C43.5999 124.817 42.8666 123.817 43.5666 122.467C45.0166 124.517 44.9999 124.483 47.3333 123.933C47.9193 123.792 48.5306 123.792 49.1166 123.933C50.1999 124.25 49.7333 123.65 49.6499 123.2C49.4333 122.1 49.9666 121.383 50.7333 121.817C52.7166 123 54.3833 121.95 56.0999 121.4C55.7499 121.05 55.1499 120.75 55.0999 120.383C54.9999 119.55 55.7833 119.75 56.2499 119.75C57.7333 119.75 59.2166 119.75 60.4166 119.75C60.4166 118.8 60.1499 117.983 60.4166 117.467C60.6833 116.95 61.6999 117.017 62.0833 117.25C62.7208 117.601 63.4286 117.806 64.1551 117.849C64.8816 117.892 65.6086 117.773 66.2833 117.5V117.467ZM61.4833 109.35C61.4833 103.933 61.4833 98.7167 61.4833 93.5C61.4082 92.9877 61.1683 92.5138 60.7999 92.15C60.0999 91.3833 59.3166 90.7167 57.9999 89.4667C58.3874 90.8661 58.6715 92.2922 58.8499 93.7333C58.8369 97.3305 59.0317 100.925 59.4333 104.5C59.4365 105.409 59.6193 106.308 59.9711 107.146C60.3229 107.984 60.8368 108.744 61.4833 109.383V109.35ZM53.9166 86.0167C53.8061 86.454 53.7336 86.9002 53.6999 87.35C53.6999 90.5667 53.8833 93.8 53.6999 96.9833C53.5833 98.25 54.9999 99.3167 53.9499 100.567C54.7666 101.483 55.6166 102.417 56.4166 103.333C56.4166 103.417 56.7166 103.333 56.8666 103.417C56.6999 100.65 56.5166 97.9333 56.3999 95.2C56.3999 93.2833 56.2999 91.35 56.3999 89.4167C56.4838 88.6367 56.2768 87.8531 55.8185 87.2164C55.3602 86.5797 54.6829 86.1347 53.9166 85.9667V86.0167ZM48.5499 84.5V91.6667C48.5499 95.2833 48.6666 95.5333 51.6499 98.15C50.8666 95.6833 51.0166 85.5333 51.5499 83.5667L48.5499 84.5ZM71.8833 115.85C71.6182 114.646 71.429 113.427 71.3166 112.2C71.175 110.28 71.175 108.353 71.3166 106.433C71.4318 105.451 71.2284 104.457 70.7363 103.599C70.2442 102.741 69.4894 102.063 68.5833 101.667C68.5833 102.333 68.5833 102.75 68.5833 103.167C68.4414 106.866 68.6423 110.571 69.1833 114.233C69.3166 115.083 69.6333 115.283 70.3666 115.333C70.8591 115.439 71.3395 115.596 71.7999 115.8L71.8833 115.85ZM47.7166 81.6667C48.1623 81.7394 48.6187 81.7094 49.051 81.579C49.4833 81.4486 49.8802 81.2212 50.2113 80.9142C50.5425 80.6071 50.7991 80.2286 50.9618 79.8073C51.1245 79.3861 51.1888 78.9332 51.1499 78.4833C51.1588 78.1413 51.0996 77.8009 50.9758 77.482C50.8521 77.163 50.6662 76.8718 50.4289 76.6252C50.1917 76.3787 49.9079 76.1817 49.5939 76.0458C49.2799 75.9099 48.942 75.8376 48.5999 75.8333C47.7159 75.8333 46.868 76.1845 46.2429 76.8096C45.6178 77.4348 45.2666 78.2826 45.2666 79.1667C45.1999 81.1 45.6833 81.5667 47.7166 81.6667ZM63.1166 102.983C63.5813 105.179 63.8656 107.408 63.9666 109.65C63.9577 110.55 64.2073 111.434 64.686 112.196C65.1646 112.958 65.8521 113.567 66.6666 113.95C66.6666 112.85 66.9499 111.85 66.6666 111.2C66.1092 110.04 65.9397 108.731 66.1833 107.467C66.2919 106.966 66.2981 106.448 66.2014 105.945C66.1047 105.441 65.9072 104.962 65.6207 104.537C65.3342 104.112 64.9647 103.75 64.5343 103.471C64.104 103.193 63.6217 103.004 63.1166 102.917V102.983ZM43.9833 82.9833C44.2974 84.8304 44.4978 86.695 44.5833 88.5667C44.5101 89.2876 44.6739 90.0128 45.0498 90.6323C45.4258 91.2518 45.9933 91.732 46.6666 92C46.6666 89.45 46.6666 87 46.6666 84.6C46.6666 83.75 46.2166 83.5333 45.4833 83.4667C44.964 83.3409 44.4607 83.1564 43.9833 82.9167V82.9833ZM37.5166 79.65H38.0499C38.1499 79.15 38.2333 78.65 38.3499 78.15C38.4666 77.65 38.9333 76.8333 38.7333 76.4833C38.5333 76.1333 37.6999 75.7667 36.5999 75.0833L37.5166 79.65ZM80.1999 99.0333C81.8666 99.0333 83.3499 99.0333 84.8166 99.0333C84.9999 99.0333 85.2999 98.6 85.2833 98.3833C85.242 98.2536 85.1683 98.1365 85.0691 98.0431C84.97 97.9498 84.8486 97.8833 84.7166 97.85C83.9243 97.6649 83.0987 97.6759 82.3117 97.8821C81.5246 98.0883 80.7997 98.4835 80.1999 99.0333V99.0333ZM66.8666 98.6667L65.1999 100.167C64.1166 101.2 64.9666 101.617 65.7333 102.233L66.8666 98.6667ZM62.6833 94.4L63.7666 97.7333C64.8333 96.2667 64.8333 96.2667 62.6333 94.4H62.6833ZM79.7999 102.883L79.3833 102.417C78.8918 102.643 78.4771 103.009 78.19 103.467C77.9028 103.926 77.7557 104.459 77.7666 105L79.7999 102.883Z" fill="white"/>
<path d="M102.467 18.3334C102.667 23.0334 99.7165 25.8167 96.6165 28.5167C95.8286 29.0258 95.1208 29.6493 94.5165 30.3667C92.6184 33.2087 89.7991 35.31 86.5332 36.3167C83.7638 37.2665 80.8954 37.8983 77.9832 38.2001C76.8832 38.3667 75.4165 38.5834 75.2332 39.3501C74.9332 40.6167 76.3999 41.0167 77.3999 41.6834C78.4931 42.3324 79.4962 43.1225 80.3832 44.0334C80.6162 44.3194 80.7865 44.6512 80.883 45.0073C80.9796 45.3633 81.0002 45.7357 80.9437 46.1003C80.8871 46.4648 80.7546 46.8134 80.5546 47.1235C80.3547 47.4335 80.0919 47.6981 79.7832 47.9001C77.6832 49.0834 75.5165 50.1167 73.3165 51.1001C73.1834 51.194 73.0281 51.2515 72.8659 51.2668C72.7037 51.2821 72.5404 51.2547 72.392 51.1873C72.2437 51.1199 72.1157 51.0148 72.0206 50.8825C71.9254 50.7503 71.8666 50.5955 71.8499 50.4334C71.2499 47.9001 70.3165 45.4334 69.9665 42.8667C69.2165 37.5501 72.7165 32.1834 78.2999 29.9501C80.3698 29.2067 82.537 28.7688 84.7332 28.6501C86.5103 28.5165 88.249 28.0649 89.8665 27.3167C93.6165 25.5667 94.9999 22.0167 93.1999 18.4834C92.561 17.369 92.0147 16.2039 91.5665 15.0001C90.5332 11.9667 91.5665 10.5167 94.6999 10.4334C95.5547 10.4836 96.4117 10.4836 97.2665 10.4334C99.7665 10.0334 101.05 10.7667 101.55 13.1001C101.933 14.7667 102.167 16.5501 102.467 18.3334ZM87.9999 31.8334C85.4862 31.6415 82.959 31.9242 80.5499 32.6667C79.1832 32.9501 77.3332 33.1167 76.4999 34.9501C78.311 34.9205 80.1146 34.7083 81.8832 34.3167C83.9665 33.6334 86.3499 33.6001 87.9665 31.8001C88.1707 31.834 88.379 31.834 88.5832 31.8001C88.7665 31.7167 88.8832 31.5167 89.0499 31.3667C88.8665 31.3667 88.6165 31.1667 88.4999 31.2334C88.3073 31.3978 88.139 31.5885 87.9999 31.8001V31.8334ZM94.6665 13.9167C96.3705 16.6444 97.5045 19.6889 97.9999 22.8667C99.2165 19.3501 99.6665 16.2001 97.9999 13.1001L94.6665 13.9167ZM73.3332 43.6334C72.9999 46.4167 73.1999 47.7334 73.8165 47.6001C74.841 47.2266 75.8022 46.6982 76.6665 46.0334C76.7832 46.0334 76.7832 45.7167 76.7999 45.6334L73.3332 43.6334Z" fill="white"/>
<path d="M101.55 66.2334V67.2001C101.55 69.9001 101.366 70.0168 98.6664 69.3668C97.5502 69.1735 96.4013 69.3651 95.4082 69.9102C94.415 70.4552 93.6363 71.3214 93.1998 72.3668C92.8094 73.2268 92.5941 74.156 92.5665 75.1001C92.507 77.8427 92.0177 80.5591 91.1164 83.1501C90.2727 86.0085 88.6513 88.5762 86.4331 90.5668C84.4925 92.1994 82.1177 93.2304 79.5998 93.5334C78.8965 93.6057 78.1904 93.4259 77.6074 93.026C77.0244 92.6261 76.6023 92.0322 76.4164 91.3501C76.1259 89.4478 76.3267 87.5029 76.9998 85.7001C77.0624 85.4859 77.1675 85.2864 77.3087 85.1135C77.4499 84.9407 77.6244 84.7979 77.8218 84.6938C78.0192 84.5896 78.2355 84.5262 78.4579 84.5072C78.6803 84.4883 78.9043 84.5142 79.1165 84.5834C79.7472 84.6401 80.3718 84.7516 80.9831 84.9168C81.3671 85.1921 81.8209 85.3537 82.2925 85.3832C82.7641 85.4127 83.2345 85.3088 83.6498 85.0834C84.2337 84.8368 84.762 84.4751 85.203 84.0198C85.6439 83.5645 85.9886 83.0249 86.2164 82.4334C86.6556 81.3524 87.0068 80.2377 87.2665 79.1001C87.6165 76.9001 87.7498 74.6668 87.9998 72.4334C88.1221 70.6483 88.3559 68.8727 88.6998 67.1168C89.3014 65.6495 90.2652 64.3586 91.501 63.3647C92.7367 62.3709 94.2043 61.7064 95.7664 61.4334C96.6263 61.3666 97.49 61.3666 98.3498 61.4334C100.716 61.6168 101.516 62.4834 101.55 64.7668C101.566 65.3668 101.55 65.8001 101.55 66.2334ZM85.4331 87.4501C84.4457 87.7379 83.4273 87.9057 82.3998 87.9501C81.3164 87.9501 80.3165 86.9334 78.9331 87.7501V89.8168C78.9331 90.5334 79.3998 90.8334 79.9665 90.6334C81.9831 89.9501 84.1331 89.4168 85.3665 87.3001L85.8498 87.0834L85.6331 86.8668L85.4331 87.4501ZM91.1998 70.0001C91.8748 69.3378 92.5871 68.7146 93.3331 68.1334C94.9998 67.0668 96.4998 65.7668 98.6831 66.6168C98.8664 66.6168 99.4831 66.2834 99.5164 66.0334C99.8664 64.2168 99.1664 63.3668 97.3164 63.4834C95.623 63.4989 94.0025 64.1746 92.7998 65.3668C92.1511 65.9265 91.6572 66.6435 91.3654 67.449C91.0735 68.2545 90.9935 69.1215 91.1331 69.9668C90.9046 70.0894 90.6966 70.2468 90.5165 70.4334C90.5165 70.5334 90.5164 70.8001 90.6498 70.9834C90.8107 70.849 90.9511 70.6918 91.0664 70.5168C91.1366 70.3522 91.1815 70.178 91.1998 70.0001Z" fill="white"/>
<path d="M123.567 90C123.508 89.2456 123.508 88.4878 123.567 87.7333C123.643 87.0424 123.901 86.384 124.314 85.8246C124.726 85.2652 125.279 84.8245 125.917 84.5472C126.554 84.2699 127.254 84.1658 127.944 84.2453C128.635 84.3248 129.292 84.5851 129.85 85C130.475 85.3222 130.952 85.8713 131.185 86.5346C131.417 87.1979 131.387 87.925 131.1 88.5667C131.1 88.6667 130.933 88.7667 130.933 88.85C130.933 90.2833 129.267 91.2167 129.85 92.7667C131.167 92.8667 132.467 92.5 133.8 92.5833C134.531 92.5656 135.255 92.4421 135.95 92.2167C136.292 92.0971 136.658 92.0589 137.017 92.1051C137.377 92.1513 137.72 92.2806 138.021 92.4828C138.322 92.6849 138.572 92.9544 138.75 93.2699C138.929 93.5853 139.031 93.938 139.05 94.3C139.283 97.1333 137.783 98.45 134.667 98.9667C133.5 99.1503 132.309 99.0973 131.164 98.811C130.019 98.5247 128.943 98.0108 128 97.3C127.099 96.4998 126.04 95.8979 124.892 95.5333C123.743 95.1687 122.531 95.0494 121.333 95.1833C119.383 95.5 117.9 94.3333 116.333 93.5167C115.067 92.8 113.9 91.85 112.5 90.9333C113.178 89.1245 114.202 87.4656 115.517 86.05C116.017 85.45 116.85 85.3333 117.083 86.05C117.683 87.8667 119.317 88.0833 120.667 88.75C121.667 89.0833 122.467 89.45 123.567 90ZM126.217 92.1667C128.433 89.9 128.833 89.2167 128.717 87.7833C128.7 87.5969 128.64 87.417 128.542 87.2578C128.444 87.0987 128.309 86.9647 128.15 86.8667C127.87 86.7255 127.558 86.6593 127.244 86.6747C126.931 86.69 126.626 86.7863 126.361 86.9541C126.096 87.122 125.879 87.3557 125.731 87.6324C125.583 87.9092 125.509 88.2196 125.517 88.5333C125.658 89.7385 125.892 90.9309 126.217 92.1V92.1667ZM115 90.2C117.6 91.45 119.683 92.8667 122.5 93.2167C120.824 91.5798 118.841 90.2886 116.667 89.4167C116.317 89.3167 115.8 89.8 115 90.2ZM132.1 95.85L132.217 96.4333C133.25 96.4333 134.283 96.4333 135.317 96.4333C135.445 96.3803 135.558 96.2961 135.645 96.1884C135.732 96.0807 135.791 95.9529 135.817 95.8167C135.817 95.6333 135.5 95.2167 135.367 95.2333C134.217 95.3833 133.133 95.6167 132.05 95.85H132.1Z" fill="white"/>
<path d="M58.4332 8.83337C61.2044 10.6413 63.1738 13.4462 63.9332 16.6667C64.2169 17.3726 64.2169 18.1608 63.9332 18.8667C62.8332 20.5334 63.9332 21.45 64.8332 22.7167C65.7415 23.7603 66.426 24.9791 66.8446 26.2978C67.2631 27.6165 67.4067 29.007 67.2665 30.3834C67.1832 30.85 66.9999 31.5334 66.6832 31.6834C66.5095 31.7632 66.3208 31.8052 66.1296 31.8067C65.9385 31.8081 65.7492 31.7689 65.5743 31.6917C65.3994 31.6145 65.2429 31.5011 65.1151 31.3588C64.9874 31.2166 64.8913 31.0489 64.8332 30.8667C64.5149 30.0922 64.2531 29.2957 64.0499 28.4834C63.7999 27.5667 63.6499 26.6334 63.3165 25.75C62.8832 24.6 62.0499 24.4334 61.1499 25.2667C60.3719 26.1568 59.5065 26.9665 58.5665 27.6834C57.6851 28.39 56.564 28.7274 55.439 28.6249C54.3139 28.5223 53.2724 27.9877 52.5332 27.1334C52.2365 26.829 52.0078 26.4651 51.8623 26.0657C51.7168 25.6663 51.6579 25.2405 51.6894 24.8166C51.7209 24.3927 51.8422 23.9803 52.0451 23.6068C52.248 23.2333 52.528 22.9072 52.8665 22.65C53.6028 21.9834 54.4674 21.4739 55.4074 21.153C56.3474 20.832 57.3429 20.7062 58.3332 20.7834C58.1953 19.5465 57.601 18.4054 56.6665 17.5834C56.0332 16.8834 55.5332 16.0667 54.9999 15.3334C54.8094 15.1433 54.6626 14.914 54.5698 14.6614C54.4771 14.4088 54.4405 14.139 54.4627 13.8709C54.4849 13.6027 54.5654 13.3426 54.6985 13.1087C54.8315 12.8748 55.014 12.6728 55.2332 12.5167C56.2665 11.35 57.2999 10.1167 58.4332 8.83337ZM59.2499 11.7667C57.2665 13.7834 57.2332 13.9334 58.7165 15.7167C59.5165 16.7 60.3832 17.6167 61.4332 18.75C61.4875 16.2463 60.7207 13.7936 59.2499 11.7667V11.7667ZM54.4165 25.1C54.9665 25.3667 55.6999 25.9834 56.0832 25.8167C57.0832 25.2834 58.4332 25 58.7499 23.55C56.0999 23.3334 56.0999 23.3334 54.4165 25V25.1Z" fill="white"/>
<path d="M124.133 54.8501C120.217 53.9334 119.567 49.6167 120.917 46.3167C120.917 46.2167 120.917 46.0834 120.917 46.0001C122.591 43.3601 124.116 40.628 125.483 37.8167C126.383 36.3861 127.59 35.1735 129.017 34.2667C130.84 33.1322 133.027 32.7331 135.133 33.1501C135.367 33.1501 135.733 33.7334 135.75 34.0501C135.767 34.3667 135.367 34.9167 135.133 34.9334C131.45 35.1501 129.35 37.6167 126.95 40.4834C127.883 40.6501 128.45 40.7834 129 40.8501C129.636 40.7995 130.277 40.8444 130.9 40.9834C134.233 42.4334 135.9 44.8167 132.983 48.4167C130.883 50.9334 128.55 51.3667 125.25 48.7501C124.917 48.4834 124.683 48.1167 124.333 47.8667C123.996 47.6636 123.639 47.496 123.267 47.3667C123.07 47.7148 122.929 48.0917 122.85 48.4834C122.632 49.6325 122.852 50.8216 123.467 51.8167C123.806 52.2357 124.043 52.728 124.159 53.2546C124.274 53.7811 124.266 54.3274 124.133 54.8501V54.8501ZM128.333 44.0334C128.017 43.9999 127.699 43.9999 127.383 44.0334C127 44.1167 126.367 44.2334 126.317 44.4501C126.255 44.6941 126.242 44.9479 126.279 45.1968C126.317 45.4457 126.403 45.6848 126.533 45.9001C127.001 46.4579 127.565 46.9266 128.2 47.2834C128.8 47.6834 129.483 47.9334 130.017 47.1334C130.55 46.3334 131.4 45.6834 131.283 45.1334C131.033 43.8501 129.733 43.9834 128.667 44.0167L128.333 44.0334Z" fill="white"/>
<path d="M79.9997 71.8834C75.1664 71.8001 72.3164 68.7834 72.3997 64.3501C72.3577 62.3786 73.1006 60.4712 74.4649 59.0475C75.8293 57.6238 77.7033 56.8004 79.6747 56.7584C81.6462 56.7164 83.5536 57.4593 84.9773 58.8236C86.401 60.1879 87.2244 62.062 87.2664 64.0334C87.2052 65.2418 86.8937 66.4243 86.3514 67.506C85.8092 68.5876 85.0481 69.5447 84.1164 70.3167C83.6438 70.9349 83.0082 71.409 82.281 71.6858C81.5537 71.9625 80.7637 72.031 79.9997 71.8834ZM80.3997 69.2834C80.5997 69.1834 81.3831 69.1001 81.6664 68.6667C82.6528 67.4478 83.4301 66.0736 83.9664 64.6001C84.4831 62.7167 83.1164 61.3667 81.7331 60.3334C81.1591 59.8481 80.423 59.5975 79.6721 59.6314C78.9213 59.6654 78.2109 59.9816 77.6831 60.5167C76.6664 61.5334 74.9997 62.3501 74.9997 64.2667C75.0093 64.9614 75.1607 65.6469 75.4446 66.281C75.7286 66.9151 76.1391 67.4845 76.651 67.9542C77.1629 68.424 77.7654 68.7842 78.4215 69.0128C79.0775 69.2413 79.7734 69.3334 80.4664 69.2834H80.3997Z" fill="white"/>
<path d="M125 70.5667C124.876 72.2586 124.148 73.8495 122.949 75.049C121.749 76.2485 120.158 76.9765 118.467 77.1001C117.032 77.2864 115.577 76.9915 114.328 76.2616C113.079 75.5316 112.108 74.408 111.567 73.0667C110.942 71.5437 110.875 69.8489 111.378 68.2815C111.881 66.7141 112.922 65.3748 114.317 64.5001C115.01 63.9984 115.808 63.66 116.651 63.5099C117.493 63.3598 118.359 63.4021 119.183 63.6334C121.327 64.2957 123.191 65.6496 124.483 67.4834C124.848 68.4694 125.024 69.5156 125 70.5667V70.5667ZM121.667 70.4501C121.45 69.8001 121.233 69.1167 120.983 68.4501C120.568 67.7045 119.946 67.0952 119.191 66.6959C118.437 66.2966 117.583 66.1244 116.733 66.2001C115.978 66.4162 115.301 66.8457 114.784 67.4369C114.266 68.0282 113.931 68.7561 113.817 69.5334C113.694 70.3308 113.828 71.1466 114.199 71.8627C114.571 72.5788 115.161 73.1581 115.883 73.5167C116.33 73.9637 116.911 74.2515 117.538 74.3358C118.164 74.4201 118.801 74.2963 119.35 73.9834C119.988 73.6192 120.53 73.1092 120.933 72.495C121.335 71.8809 121.587 71.1801 121.667 70.4501Z" fill="white"/>
<path d="M63.9164 74.45C63.3618 74.4943 62.8044 74.4943 62.2498 74.45C61.4265 74.3251 60.6434 74.0116 59.9614 73.5338C59.2795 73.0561 58.7172 72.4272 58.3186 71.6961C57.92 70.9651 57.6959 70.1518 57.6637 69.3198C57.6315 68.4878 57.7922 67.6596 58.1331 66.9C58.7734 65.3221 59.806 63.9337 61.1331 62.8667C61.6146 62.4993 62.1951 62.2846 62.7998 62.25C64.4705 62.403 66.0654 63.0191 67.405 64.0291C68.7447 65.039 69.7761 66.4026 70.3831 67.9667C70.8998 70.2833 67.9498 74.1833 65.3831 74.4667C64.8498 74.4667 64.2998 74.4667 63.7164 74.4667L63.9164 74.45ZM66.6664 66.9C66.0996 66.2603 65.4493 65.6997 64.7331 65.2333C63.9938 64.8884 63.1589 64.8061 62.3664 65C61.5994 65.3793 60.9756 65.9965 60.5881 66.7595C60.2006 67.5224 60.0702 68.3902 60.2164 69.2333C60.2666 69.4095 60.3599 69.5704 60.4879 69.7014C60.616 69.8323 60.7747 69.9293 60.9498 69.9833C61.9998 70.1 63.4164 69.8 62.2498 71.65C62.4164 71.65 62.6998 71.9333 62.7498 71.8833C63.1331 71.5333 63.7331 71.15 63.7664 70.7333C63.8664 69.2833 63.8664 69.0667 65.0998 69.5667C66.3331 70.0667 66.2331 69.4667 65.7498 68.8833C64.7664 67.6 65.9664 67.5 66.6664 66.9Z" fill="white"/>
<path d="M98.4165 98.4333C97.7348 98.4511 97.0565 98.3324 96.4213 98.0843C95.7862 97.8362 95.207 97.4636 94.7179 96.9885C94.2288 96.5133 93.8396 95.9452 93.5732 95.3175C93.3068 94.6898 93.1685 94.0152 93.1665 93.3333C93.3665 90.9166 96.2165 87.95 98.6665 88.15C99.2862 88.1369 99.9019 88.2515 100.475 88.4866C101.049 88.7217 101.568 89.0723 102 89.5166C103.003 90.8687 103.525 92.5172 103.483 94.2C103.472 94.8261 103.327 95.4426 103.056 96.0075C102.786 96.5724 102.398 97.0726 101.917 97.4742C101.436 97.8757 100.875 98.1692 100.271 98.3347C99.6671 98.5002 99.0346 98.5338 98.4165 98.4333V98.4333ZM98.5332 96.45C99.1053 96.3667 99.6394 96.1144 100.067 95.7254C100.495 95.3363 100.796 94.8283 100.933 94.2666C100.918 93.5828 100.685 92.9217 100.268 92.3792C99.8519 91.8367 99.2732 91.4412 98.6165 91.25C97.9275 91.2255 97.2534 91.4546 96.722 91.8939C96.1906 92.3331 95.8388 92.952 95.7332 93.6333C95.7417 94.3748 96.039 95.0838 96.5617 95.6097C97.0845 96.1356 97.7917 96.437 98.5332 96.45V96.45Z" fill="white"/>
<path d="M73.0333 82.8833C71.8903 82.8352 70.8062 82.3629 69.9927 81.5586C69.1791 80.7543 68.6945 79.6757 68.6333 78.5333C68.75 76.3 70.9166 73.8 72.65 73.9C73.8574 74.0624 74.964 74.6601 75.762 75.5807C76.5599 76.5014 76.9942 77.6817 76.9833 78.9C76.9945 79.4234 76.9003 79.9436 76.7062 80.4298C76.5121 80.916 76.2221 81.3581 75.8535 81.7298C75.4849 82.1015 75.0452 82.3952 74.5607 82.5934C74.0762 82.7916 73.5567 82.8902 73.0333 82.8833Z" fill="white"/>
<path d="M112.567 48.4834C112.608 49.0151 112.535 49.5495 112.352 50.0504C112.169 50.5512 111.881 51.0069 111.506 51.3863C111.131 51.7658 110.679 52.0601 110.181 52.2494C109.682 52.4387 109.149 52.5185 108.617 52.4834C107.339 52.5269 106.094 52.0796 105.136 51.2334C104.178 50.3872 103.581 49.2063 103.467 47.9334C103.428 47.3222 103.519 46.7096 103.735 46.1363C103.95 45.5629 104.285 45.0417 104.716 44.607C105.148 44.1724 105.666 43.8341 106.238 43.6146C106.81 43.395 107.422 43.2992 108.033 43.3334C109.316 43.4191 110.513 44.0088 111.362 44.9737C112.211 45.9386 112.644 47.2003 112.567 48.4834V48.4834ZM110.083 48.3334C109.467 47.4988 108.751 46.7431 107.95 46.0834C107.333 45.6668 106.283 46.5168 106.1 47.3501C106.098 47.9279 106.316 48.4847 106.709 48.9085C107.102 49.3322 107.64 49.5913 108.217 49.6334C108.817 49.5834 109.35 48.8834 110.083 48.3334Z" fill="white"/>
<path d="M53.0664 43.3334C53.067 42.8073 53.1765 42.2871 53.3878 41.8053C53.5991 41.3235 53.9077 40.8906 54.2943 40.5338C54.6808 40.1769 55.137 39.9039 55.6341 39.7317C56.1312 39.5596 56.6586 39.4921 57.183 39.5334C57.7346 39.5224 58.283 39.6201 58.7968 39.821C59.3106 40.0219 59.7798 40.3221 60.1775 40.7044C60.5753 41.0867 60.8939 41.5436 61.115 42.049C61.3361 42.5545 61.4555 43.0985 61.4664 43.6501C61.5063 44.2323 61.4205 44.8163 61.2147 45.3625C61.0089 45.9086 60.688 46.404 60.2738 46.8151C59.8595 47.2262 59.3616 47.5433 58.814 47.7449C58.2663 47.9465 57.6816 48.0278 57.0997 47.9834C56.5207 47.9688 55.951 47.8336 55.4272 47.5865C54.9033 47.3394 54.4367 46.9858 54.0572 46.5482C53.6776 46.1107 53.3935 45.5988 53.2229 45.0453C53.0523 44.4917 52.999 43.9087 53.0664 43.3334V43.3334ZM58.2664 43.5834C58.3488 43.1652 58.2802 42.7312 58.0726 42.3589C57.8651 41.9865 57.5321 41.6999 57.133 41.5501C56.533 41.3168 54.9164 43.0167 55.2164 43.6834C55.5968 44.3901 56.1763 44.9696 56.883 45.3501C57.483 45.6001 58.233 44.5501 58.333 43.5501L58.2664 43.5834Z" fill="white"/>
<path d="M136.366 71.3167C137.566 71.2 139.6 73.25 139.7 74.65C139.57 75.5228 139.184 76.3373 138.591 76.9902C137.997 77.6431 137.223 78.1048 136.366 78.3167C135.519 78.2704 134.708 77.9591 134.047 77.4268C133.386 76.8945 132.909 76.168 132.683 75.35C132.77 74.3668 133.177 73.4394 133.843 72.7106C134.508 71.9818 135.395 71.492 136.366 71.3167Z" fill="white"/>
<path d="M91.4999 49.2167C91.1073 49.2553 90.7111 49.2047 90.3408 49.0686C89.9705 48.9325 89.6358 48.7144 89.3617 48.4307C89.0876 48.147 88.8812 47.8049 88.758 47.4302C88.6347 47.0555 88.5978 46.6577 88.6499 46.2667C88.6796 45.7724 88.8068 45.2889 89.0243 44.844C89.2418 44.3992 89.5453 44.0018 89.9172 43.6749C90.289 43.3479 90.722 43.0979 91.191 42.9391C91.6601 42.7804 92.1559 42.7161 92.6499 42.75C94.3166 42.75 95.1833 43.8167 95.0833 45.6C95.0506 46.5431 94.6636 47.4393 93.9994 48.1096C93.3352 48.78 92.4427 49.1753 91.4999 49.2167Z" fill="white"/>
<path d="M103.867 37.5834C103.129 37.5927 102.417 37.3141 101.882 36.8068C101.347 36.2995 101.03 35.6035 101 34.8667C101.282 34.0901 101.763 33.4011 102.395 32.8688C103.026 32.3365 103.787 31.9794 104.6 31.8334C105.583 31.8334 106.683 33.2 106.733 34.5667C106.79 34.9631 106.757 35.3674 106.635 35.749C106.514 36.1306 106.307 36.4797 106.031 36.7701C105.755 37.0604 105.417 37.2844 105.042 37.4253C104.667 37.5662 104.265 37.6202 103.867 37.5834V37.5834Z" fill="white"/>
<path d="M141.666 59.4501C141.722 60.0042 141.722 60.5626 141.666 61.1167C141.632 61.4016 141.536 61.6756 141.385 61.9197C141.234 62.1639 141.032 62.3724 140.793 62.5308C140.553 62.6893 140.283 62.7939 139.999 62.8375C139.715 62.8811 139.426 62.8627 139.15 62.7834C138.444 62.6659 137.759 62.447 137.116 62.1334C136.664 61.9669 136.291 61.6359 136.072 61.2066C135.852 60.7772 135.803 60.2809 135.933 59.8167C136.04 59.2468 136.334 58.729 136.769 58.3454C137.204 57.9619 137.754 57.7348 138.333 57.7001C139.352 57.7883 140.353 58.0299 141.3 58.4167C141.533 58.5501 141.666 59.3001 141.666 59.4501Z" fill="white"/>
<path d="M75.4165 19.5167C76.0222 19.6953 76.5561 20.0605 76.9421 20.5603C77.3281 21.06 77.5466 21.6689 77.5665 22.3C77.4752 22.9276 77.1699 23.5044 76.7021 23.9327C76.2344 24.3609 75.633 24.6144 74.9998 24.65C74.4442 24.5381 73.9483 24.2277 73.6048 23.7768C73.2613 23.3259 73.0936 22.7655 73.1331 22.2C73.3331 20.85 74.4331 19.4834 75.4165 19.5167Z" fill="white"/>
<path d="M105.95 77.0667C106.438 77.1273 106.896 77.3377 107.26 77.669C107.624 78.0002 107.877 78.4361 107.983 78.9167C107.805 79.4926 107.504 80.0231 107.101 80.4719C106.698 80.9207 106.203 81.277 105.65 81.5167C104.717 81.6167 103.45 79.85 103.533 78.4333C103.6 77.4833 104.383 77.0333 105.95 77.0667Z" fill="white"/>
<path d="M64.6998 53.5501C64.6998 54.8001 63.5498 56.3501 62.5832 56.2834C62.0332 56.2834 60.9165 55.1834 60.9165 54.7334C60.9165 53.2667 62.1832 51.7834 63.2832 51.8501C63.6864 51.911 64.0533 52.1177 64.3144 52.431C64.5754 52.7443 64.7126 53.1425 64.6998 53.5501V53.5501Z" fill="white"/>
<path d="M63.683 88.1C62.183 88.1 61.433 87.5333 61.4997 86.4333C61.5837 85.8643 61.8529 85.3387 62.2657 84.938C62.6784 84.5373 63.2117 84.2838 63.783 84.2167C64.2983 84.3301 64.7677 84.5957 65.1303 84.979C65.4928 85.3624 65.7318 85.8458 65.8164 86.3667C65.8997 87.1333 64.7164 88.0833 63.683 88.1Z" fill="white"/>
<path d="M50.4498 68.4167C50.4123 68.8322 50.2203 69.2186 49.9117 69.4994C49.6031 69.7802 49.2004 69.935 48.7832 69.9334C48.0498 69.9334 47.1165 68.9334 47.4165 68.5167C47.809 67.8768 48.3918 67.3757 49.0832 67.0834C49.4665 66.9834 50.6998 67.3167 50.4498 68.4167Z" fill="white"/>
<path d="M110.817 97.1167C111.45 97.6 111.983 98 112.483 98.4167C111.9 99.0897 111.246 99.6987 110.533 100.233C110.133 100.5 109.133 99.3334 109.383 98.7C109.633 98.0667 110.267 97.7 110.817 97.1167Z" fill="white"/>
<path d="M48.7667 119.05C48.9167 119.367 49.1501 119.633 49.1167 119.833C49.0834 120.033 48.7667 120.167 48.5667 120.333L47.9834 119.567L48.7667 119.05Z" fill="white"/>
<path d="M58.5666 115C58 115.317 57.65 115.533 57.3 115.7C57.3 115.7 56.9833 115.383 57.0166 115.3C57.1127 115.042 57.2804 114.816 57.5 114.65C57.6 114.6 57.85 114.767 58.5666 115Z" fill="white"/>
<path d="M53.4502 117.683L53.3335 117.583L53.5502 117.283L53.7502 117.483L53.4502 117.683Z" fill="white"/>
</svg>
