<svg width="60" height="60" viewBox="0 0 60 60" fill="none" xmlns="http://www.w3.org/2000/svg">
<path d="M42.9998 55.1501C42.6845 55.519 42.2505 55.7668 41.7725 55.8507C41.2944 55.9346 40.802 55.8495 40.3798 55.6101C39.458 55.2969 38.4933 55.1282 37.5198 55.1101C35.8103 55.0073 34.1077 54.8103 32.4198 54.5201C31.4198 54.3001 30.2598 54.2801 29.1798 54.1401C27.5298 53.9201 25.8498 53.8701 24.1798 53.7501C24.0098 53.7501 23.8098 53.7501 23.6598 53.7501C21.7173 53.0649 19.6695 52.7264 17.6098 52.7501C16.7598 52.7501 15.9098 52.5301 15.0598 52.4001C14.5711 52.3487 14.1154 52.1291 13.7706 51.7789C13.4259 51.4287 13.2135 50.9695 13.1698 50.4801C13.1441 50.0972 13.1441 49.713 13.1698 49.3301L12.1098 49.2501C11.3281 49.1446 10.6125 48.7549 10.0998 48.1555C9.587 47.556 9.31292 46.7887 9.32984 46.0001C9.32984 44.1301 9.32984 42.2601 9.32984 40.3901C9.44278 39.4654 9.35408 38.5272 9.06984 37.6401C8.92461 37.1915 8.92461 36.7086 9.06984 36.2601C9.50499 34.6421 9.50499 32.938 9.06984 31.3201C8.89794 30.7528 8.89794 30.1473 9.06984 29.5801C9.32772 28.746 9.41279 27.8681 9.31984 27.0001C9.31984 21.6801 9.31984 16.3501 9.31984 11.0001C9.31984 9.34006 9.52984 7.67006 9.68984 6.00006C9.68984 5.87006 10.1298 5.77006 10.3598 5.66006L10.6998 6.02006C10.7698 8.39006 10.7998 10.7601 10.9498 13.1401C11.2498 17.8901 11.0298 22.6701 11.3498 27.4401C11.5298 30.1201 11.4298 32.8201 11.3498 35.5001C11.2698 38.1801 11.1398 40.8301 11.0498 43.5001C11.0498 44.4301 11.0498 45.3701 11.0498 46.3001C11.0082 46.6625 10.9346 47.0206 10.8298 47.3701C11.4526 47.5628 12.0921 47.6968 12.7398 47.7701C17.3298 47.8701 21.9298 47.5701 26.5098 48.1401C28.1098 48.3401 29.7198 48.3901 31.3298 48.5201C31.4398 48.5201 31.5498 48.6001 31.6598 48.6101C32.5548 48.813 33.4766 48.8704 34.3898 48.7801C35.6391 48.5485 36.9101 48.4546 38.1798 48.5001C38.6898 48.5001 39.1798 48.5001 39.8098 48.5001C39.9329 47.6707 39.9262 46.8273 39.7898 46.0001C39.5753 45.2839 39.4807 44.5371 39.5098 43.7901C39.3398 39.9001 39.7698 36.0001 39.2198 32.1101C38.9098 29.9501 39.0998 27.7301 38.8898 25.5301C38.5298 21.7801 38.5698 17.9901 38.4898 14.2101C38.4398 11.9301 38.4898 9.65006 38.4898 7.37006V5.72006C38.2683 5.84569 38.0289 5.93675 37.7798 5.99006C35.2198 5.92006 32.6898 6.24006 30.1398 6.35006C28.8298 6.41006 27.5098 6.03006 26.1898 6.05006C22.5998 6.13006 18.9998 5.81006 15.3998 6.31006C13.8366 6.37163 12.2712 6.26772 10.7298 6.00006L10.3698 5.67006C10.3698 5.07006 10.5798 4.67006 11.2498 4.61006H11.9998C13.7898 4.55006 15.5798 4.80006 17.3698 4.30006C18.1798 4.19461 18.9999 4.19461 19.8098 4.30006C22.2698 4.30006 24.7198 4.30006 27.1798 4.30006C28.044 4.18217 28.9239 4.28185 29.7398 4.59006C30.1247 4.74574 30.555 4.74574 30.9398 4.59006C32.1782 4.28303 33.4581 4.17834 34.7298 4.28006C36.0398 4.20006 37.3798 4.45006 38.7298 3.97006C39.0047 3.85803 39.3091 3.84046 39.595 3.92009C39.881 3.99973 40.1324 4.17207 40.3098 4.41006C40.4591 4.54579 40.5638 4.72348 40.6102 4.9198C40.6566 5.11611 40.6425 5.32187 40.5698 5.51006C40.4708 5.71577 40.3905 5.92996 40.3298 6.15006C40.1898 6.98006 40.4098 7.15006 41.3298 6.95006C42.6998 6.61006 43.3298 7.11006 43.5398 8.42006C44.2098 13.3501 43.5398 18.3101 43.9198 23.2401C44.0898 25.6101 44.0198 28.0001 44.2798 30.3501C44.6529 33.1461 44.8765 35.9601 44.9498 38.7801C44.9865 39.3707 45.2227 39.9313 45.6198 40.3701C45.6198 39.8001 45.6198 39.2301 45.6198 38.6701C45.5707 37.5715 45.6716 36.4713 45.9198 35.4001C46.1998 34.4001 45.9198 33.4001 46.2498 32.3301C46.5033 31.0342 46.6505 29.7199 46.6898 28.4001C46.7027 27.5961 46.7729 26.794 46.8998 26.0001C47.3298 24.2201 47.2398 22.3901 47.7798 20.6101C48.1702 18.8878 48.464 17.1451 48.6598 15.3901C48.8598 14.2801 49.1798 13.1901 49.4898 11.9201C47.9998 11.5301 46.4298 11.0001 44.7998 10.5901C44.4698 10.5001 44.0798 10.5901 44.0698 10.0801C44.0612 9.96398 44.0773 9.8474 44.1172 9.73805C44.1571 9.62869 44.2198 9.52908 44.3011 9.44584C44.3825 9.3626 44.4806 9.29762 44.589 9.25525C44.6974 9.21287 44.8136 9.19405 44.9298 9.20006C45.1581 9.16008 45.3916 9.16008 45.6198 9.20006C47.1998 9.64672 48.7732 10.1101 50.3398 10.5901C50.9198 10.7601 51.2398 11.7001 51.0098 12.5101C50.7701 13.1423 50.5632 13.7865 50.3898 14.4401C49.9998 16.5701 49.6898 18.7101 49.3198 20.8401C49.1998 21.5101 48.9898 22.1601 48.8198 22.8401C48.7528 22.9962 48.696 23.1565 48.6498 23.3201C48.5198 24.8601 48.5098 26.4301 48.2498 27.9601C47.8898 30.0401 48.0698 32.2001 47.3298 34.2201C47.2835 34.3208 47.2563 34.4293 47.2498 34.5401C47.1198 36.2101 47.0298 37.8801 46.8798 39.5401C46.935 40.6377 46.8408 41.7378 46.5998 42.8101C46.2298 43.8101 46.5398 44.9401 46.2498 46.0501C45.7998 47.7501 45.7798 49.5601 45.4398 51.2901C45.1812 52.5094 44.8268 53.7065 44.3798 54.8701C44.1598 55.4901 43.8898 55.5001 43.0098 55.1601C43.0698 54.3501 43.1398 53.5301 43.2098 52.7301C41.369 53.3506 39.4004 53.4917 37.4898 53.1401C35.9796 52.8208 34.4163 52.8516 32.9198 53.2301C34.3898 53.4701 35.8598 53.6201 37.3298 53.7501C37.6193 53.7248 37.9104 53.7248 38.1998 53.7501C39.6021 54.3571 41.0781 54.7774 42.5898 55.0001C42.7398 55.0001 42.8898 55.0801 42.9998 55.1501ZM43.7498 52.0601C43.0399 50.9218 42.7729 49.5623 42.9998 48.2401C42.9998 47.2401 43.3198 46.1901 43.3098 45.1601C43.2598 42.7301 43.3098 40.3101 43.0698 37.8601C42.7698 35.2401 42.5798 32.6001 42.3498 29.9601C42.1198 27.3201 42.1898 24.6401 42.0098 21.9601C41.8019 19.5269 41.869 17.0781 42.2098 14.6601C42.3684 12.8543 42.3918 11.0393 42.2798 9.23006C42.2798 8.17006 42.0698 7.94006 41.0598 7.77006C40.3598 7.64006 40.0598 7.87006 40.2098 8.61006C40.4226 9.74085 40.5264 10.8894 40.5198 12.0401C40.6598 15.7001 40.3398 19.3501 40.7998 23.0401C41.0968 26.161 41.2336 29.2951 41.2098 32.4301C41.2698 35.1201 41.2098 37.8101 41.2098 40.5001C41.1392 40.9037 41.1392 41.3165 41.2098 41.7201C41.8698 43.4101 41.0698 44.9601 40.9098 46.5801C40.8498 47.2301 40.2998 47.7501 40.6298 48.5801C40.9598 49.4101 40.7698 49.7301 39.7698 49.9501C39.3409 50.0959 38.8988 50.1997 38.4498 50.2601C36.8298 50.2601 35.2198 50.4601 33.6198 50.5601C31.2478 50.6972 28.8679 50.5832 26.5198 50.2201C23.9046 49.7941 21.2596 49.5768 18.6098 49.5701C17.2198 49.5701 15.8298 49.4501 14.4398 49.3901C14.354 49.384 14.2689 49.4088 14.1998 49.4601C13.9498 49.8201 14.4698 50.9301 14.9298 50.9801C16.2998 51.1201 17.6798 51.3001 19.0598 51.3201C20.8294 51.3846 22.601 51.2774 24.3498 51.0001C25.962 50.856 27.5862 50.9266 29.1798 51.2101C31.2698 51.4001 33.3798 51.2701 35.4898 51.2801C35.8934 51.2095 36.3062 51.2095 36.7098 51.2801C38.2998 51.8901 39.9398 51.6001 41.5398 51.5201C42.3273 51.4677 43.112 51.656 43.7898 52.0601H43.7498ZM31.6698 52.9201C31.5998 52.8601 31.5398 52.7501 31.4598 52.7501C31.352 52.7613 31.247 52.7918 31.1498 52.8401C31.2098 52.9001 31.2698 53.0001 31.3398 53.0101C31.4685 53.0095 31.5953 52.9787 31.7098 52.9201H31.6698Z" fill="white"/>
<path d="M21.6297 16.93C22.7697 16.83 23.7897 17.16 24.7897 16.6C25.1118 16.4778 25.4675 16.4778 25.7897 16.6C25.9426 16.6604 26.0811 16.7521 26.1965 16.8692C26.3119 16.9863 26.4015 17.1262 26.4597 17.28C26.575 17.6948 26.5936 18.1305 26.5138 18.5536C26.4341 18.9766 26.2582 19.3757 25.9997 19.72C24.7687 21.1939 23.1771 22.3239 21.3797 23C20.8244 23.2121 20.2254 23.2839 19.6358 23.2089C19.0461 23.1338 18.4841 22.9144 17.9997 22.57C16.5855 21.8125 15.4841 20.5801 14.8897 19.09C14.7898 18.8877 14.7191 18.6722 14.6797 18.45C14.6866 17.1408 14.9026 15.8411 15.3197 14.6C15.8617 13.3115 16.7646 12.2072 17.9197 11.42C18.8297 10.64 20.0097 10.91 21.0997 11C21.2897 11 21.5497 11.38 21.6197 11.63C21.6831 11.9594 21.6999 12.296 21.6697 12.63C21.6297 14 21.6297 15.36 21.6297 16.93ZM20.2097 11.76C19.496 11.8591 18.818 12.1339 18.2368 12.5598C17.6556 12.9857 17.1892 13.5493 16.8797 14.2C15.4197 16.72 15.4497 19.11 18.0797 20.77C18.1797 20.83 18.3097 20.85 18.3897 20.93C19.2397 21.86 20.3397 21.38 21.3397 21.45C22.4397 20.61 23.5397 19.78 24.6197 18.93C24.6694 18.8676 24.7027 18.7937 24.7167 18.7151C24.7307 18.6366 24.7248 18.5558 24.6997 18.48C24.6416 18.426 24.5708 18.3877 24.4938 18.3684C24.4169 18.3492 24.3364 18.3497 24.2597 18.37C23.3297 18.91 22.3197 18.61 21.3597 18.61C20.5497 18.61 20.2197 18.13 20.2097 17.27C20.1997 15.47 20.2097 13.66 20.2097 11.76Z" fill="white"/>
<path d="M25.9997 15.8701C24.9997 15.7201 24.1097 15.6501 23.2897 15.4501C23.1834 15.4286 23.0832 15.3839 22.9961 15.3194C22.909 15.2548 22.8372 15.1719 22.7856 15.0765C22.7341 14.9811 22.7042 14.8755 22.698 14.7673C22.6918 14.6591 22.7094 14.5508 22.7497 14.4501C22.9739 13.2236 23.0578 11.9756 22.9997 10.7301C22.9997 10.0101 24.1097 9.4301 24.9997 9.5501C25.8835 9.63212 26.715 10.0058 27.3631 10.6123C28.0112 11.2188 28.4392 12.0236 28.5797 12.9001C28.621 13.2436 28.7085 13.58 28.8397 13.9001C29.0897 14.4201 28.7397 14.7701 28.5797 15.1901C28.4197 15.6101 28.0197 15.4601 27.7097 15.5201L25.9997 15.8701ZM24.3597 11.0001C24.3597 11.8701 24.3597 12.6501 24.4197 13.4301C24.4797 14.2101 24.6897 14.4301 25.4197 14.5001C26.1497 14.5701 26.7897 14.5001 27.4897 14.5001C26.9997 12.6201 26.2997 11.1301 24.3597 11.0001Z" fill="white"/>
<path d="M34.9998 37.0001C34.2998 38.1601 33.1398 38.2801 32.1398 38.6301C31.2175 38.8947 30.2788 39.0984 29.3298 39.2401C29.0524 39.3122 28.7664 39.3459 28.4798 39.3401C27.3598 39.1901 26.2398 38.9601 25.1098 38.8301C24.7498 38.8301 24.3698 39.0101 23.9998 39.0101C23.8557 39.0202 23.7113 38.9941 23.5797 38.9344C23.4482 38.8747 23.3335 38.7831 23.2462 38.668C23.1589 38.5529 23.1016 38.4179 23.0795 38.2751C23.0575 38.1323 23.0713 37.9862 23.1198 37.8501C23.1898 37.6501 23.5198 37.3401 23.5698 37.3701C24.4698 37.8801 25.4498 36.7701 26.3198 37.5101C26.4106 37.5816 26.5245 37.6172 26.6398 37.6101C27.8798 37.4501 29.1298 37.3101 30.3598 37.1101C31.184 36.9003 32.0184 36.7334 32.8598 36.6101C33.5859 36.6569 34.304 36.7878 34.9998 37.0001Z" fill="white"/>
<path d="M34.1197 28.7601C33.1797 29.0701 32.5597 29.3301 31.9297 29.4701C31.0697 29.6601 30.2497 30.1901 29.3097 29.5901C28.9697 29.3801 28.3997 29.5901 27.9297 29.5401C27.2986 29.6156 26.6608 29.6156 26.0297 29.5401C25.4436 29.505 24.8559 29.505 24.2697 29.5401C24.1676 29.528 24.0696 29.493 23.983 29.4375C23.8964 29.3821 23.8234 29.3078 23.7697 29.2201C23.6997 29.0401 23.7697 28.6701 23.8597 28.5901C24.3197 28.2801 24.9297 27.7301 25.3097 27.8501C26.2397 28.1401 27.1197 27.6601 28.0797 27.9901C29.0663 28.336 30.1364 28.364 31.1397 28.0701C31.4702 27.9506 31.8246 27.9127 32.1728 27.9597C32.5211 28.0067 32.8528 28.1372 33.1397 28.3401C33.3897 28.4301 33.5997 28.5201 34.1197 28.7601Z" fill="white"/>
<path d="M18.26 30.3C18.51 29.78 18.69 29.36 18.91 28.96C19.008 28.7866 19.1555 28.6463 19.3336 28.5572C19.5118 28.4682 19.7125 28.4343 19.91 28.46C20.32 28.46 20.61 28.63 20.52 29.08C20.32 30.08 20.1 31.17 19.82 32.2C19.7809 32.3427 19.7076 32.4738 19.6064 32.5817C19.5052 32.6897 19.3792 32.7713 19.2393 32.8196C19.0994 32.8679 18.9499 32.8813 18.8036 32.8587C18.6574 32.8361 18.5189 32.7782 18.4 32.69C18.21 32.57 17.97 32.44 17.89 32.25C17.5944 31.3937 16.9876 30.6798 16.19 30.25C16.1282 30.1966 16.0817 30.1277 16.0554 30.0504C16.029 29.9731 16.0237 29.8901 16.04 29.81C16.0829 29.7425 16.1401 29.6852 16.2074 29.642C16.2748 29.5988 16.3508 29.5708 16.43 29.56C16.7733 29.4475 17.1454 29.46 17.4803 29.5955C17.8153 29.7309 18.0915 29.9805 18.26 30.3Z" fill="white"/>
<path d="M24.8698 41.8301C25.3898 41.8301 26.0098 41.6901 26.4198 42.2701C26.5998 42.5101 26.7598 42.3801 26.9898 42.2701C27.8305 41.8949 28.752 41.7367 29.6698 41.8101C29.992 41.8811 30.2976 42.0135 30.5698 42.2001C30.6698 42.2601 30.6798 42.5001 30.6698 42.6601C30.6598 42.8201 30.4798 42.8401 30.4098 42.8201C29.1698 42.5201 28.2998 43.7301 27.1098 43.5801C26.5198 44.2301 26.0098 43.6501 25.5798 43.3901C25.1498 43.1301 24.7798 42.7601 24.1898 42.8301C23.8198 42.8301 23.7098 42.6101 23.7298 42.2701C23.7498 41.9301 23.9598 41.7801 24.2998 41.8001C24.4698 41.8401 24.6498 41.8301 24.8698 41.8301Z" fill="white"/>
<path d="M32.5397 16.89C32.9497 16.89 33.3597 16.89 33.7697 16.89C34.3597 16.89 34.7697 17.03 34.9297 17.66C34.9297 17.89 35.4697 18.08 35.0597 18.35C34.8497 18.48 34.4897 18.61 34.3297 18.51C34.1059 18.3814 33.8539 18.3096 33.5959 18.3009C33.3379 18.2922 33.0817 18.3468 32.8497 18.46C32.5295 18.5923 32.1699 18.5923 31.8497 18.46C31.6358 18.3062 31.3697 18.2429 31.1095 18.2841C30.8492 18.3253 30.6157 18.4676 30.4597 18.68C30.1397 19.02 29.6797 19.15 29.4597 18.78C29.3867 18.688 29.3329 18.5824 29.3013 18.4692C29.2698 18.3561 29.2613 18.2378 29.2762 18.1213C29.2911 18.0048 29.3292 17.8925 29.3882 17.7909C29.4472 17.6894 29.5259 17.6007 29.6197 17.53C30.0908 17.2244 30.6121 17.0044 31.1597 16.88C31.625 16.8299 32.0944 16.8299 32.5597 16.88L32.5397 16.89Z" fill="white"/>
<path d="M17.53 40.08C17.82 39.44 18.04 38.86 18.32 38.32C18.3571 38.2393 18.4104 38.167 18.4767 38.1076C18.5429 38.0483 18.6206 38.0031 18.7049 37.975C18.7893 37.9469 18.8785 37.9364 18.9671 37.9441C19.0557 37.9519 19.1418 37.9777 19.22 38.02C19.3185 38.1078 19.3938 38.2185 19.4391 38.3424C19.4845 38.4663 19.4985 38.5994 19.48 38.73C19.2962 39.6751 19.0625 40.6097 18.78 41.53C18.58 42.16 18.04 42.3 17.6 41.83C16.9451 41.101 16.3308 40.3365 15.76 39.54C15.67 39.42 15.86 39.01 16.03 38.83C16.2 38.65 16.49 38.62 16.69 38.99C16.9378 39.3771 17.2189 39.7418 17.53 40.08Z" fill="white"/>
<path d="M35.3396 21.51C34.9889 21.7542 34.6548 22.0214 34.3396 22.31C34.1414 22.5484 33.8673 22.7113 33.5632 22.7714C33.2591 22.8315 32.9435 22.7851 32.6696 22.64C31.8931 22.4599 31.0814 22.505 30.3296 22.77C30.0268 22.847 29.7112 22.8602 29.403 22.8085C29.0948 22.7569 28.8008 22.6416 28.5396 22.47C28.46 22.3977 28.3993 22.3071 28.3627 22.2061C28.3261 22.105 28.3147 21.9965 28.3296 21.89C28.3607 21.7947 28.4156 21.7088 28.4891 21.6406C28.5625 21.5723 28.6522 21.524 28.7496 21.5C29.8983 21.5653 31.0499 21.4438 32.1596 21.14C32.2705 21.1156 32.3851 21.1136 32.4967 21.1342C32.6084 21.1549 32.7148 21.1976 32.8096 21.26C33.0479 21.4238 33.3304 21.5115 33.6196 21.5115C33.9088 21.5115 34.1912 21.4238 34.4296 21.26C34.5796 21.12 34.9996 21.39 35.3396 21.51Z" fill="white"/>
<path d="M29.29 33.15C28.8027 33.0119 28.3087 32.8984 27.81 32.81C27.24 32.74 26.51 32.51 26.13 32.81C25.31 33.35 24.7 32.75 24 32.7C23.91 32.7 23.76 32.45 23.77 32.34C23.8001 32.2705 23.8468 32.2095 23.9061 32.1624C23.9655 32.1153 24.0355 32.0835 24.11 32.07C25.0883 32.1178 26.0673 31.9891 27 31.69C27.24 31.57 27.65 31.77 28 31.85C28.66 32.01 29.31 32.17 30 32.37C30.17 32.42 30.29 32.61 30.44 32.74C30.2735 32.8571 30.096 32.9575 29.91 33.04C29.7376 33.0652 29.5624 33.0652 29.39 33.04L29.29 33.15Z" fill="white"/>
<path d="M31.6997 13.2701C32.036 12.5956 32.5341 12.0149 33.1497 11.5801C33.7097 11.9301 34.1497 12.5101 34.8597 12.3801C34.9697 12.3801 35.2197 12.6101 35.2697 12.7801C35.2957 12.8468 35.3051 12.9188 35.297 12.99C35.2889 13.0611 35.2635 13.1292 35.2231 13.1883C35.1827 13.2474 35.1285 13.2958 35.0652 13.3292C35.0018 13.3626 34.9313 13.3801 34.8597 13.3801C34.2197 13.4401 33.6297 14.0501 32.9197 13.3801C32.6797 13.2201 32.1897 13.3201 31.6997 13.2701Z" fill="white"/>
</svg>
