<svg width="23" height="22" viewBox="0 0 23 22" fill="none" xmlns="http://www.w3.org/2000/svg">
<path fill-rule="evenodd" clip-rule="evenodd" d="M13.4855 7V9H9.4855V7C9.4855 5.89543 10.3809 5 11.4855 5C12.5901 5 13.4855 5.89543 13.4855 7ZM7.4855 9V7C7.4855 4.79086 9.27637 3 11.4855 3C13.6946 3 15.4855 4.79086 15.4855 7V9H16.4855C17.0378 9 17.4855 9.44772 17.4855 10V18C17.4855 18.5523 17.0378 19 16.4855 19H6.4855C5.93322 19 5.4855 18.5523 5.4855 18V10C5.4855 9.44772 5.93322 9 6.4855 9H7.4855ZM11.4855 11C10.3809 11 9.4855 11.6716 9.4855 12.5C9.4855 13.0552 9.8877 13.54 10.4855 13.7993V17H12.4855V13.7993C13.0833 13.54 13.4855 13.0552 13.4855 12.5C13.4855 11.6716 12.5901 11 11.4855 11Z" fill="#74726D"/>
</svg>
