<svg xmlns="http://www.w3.org/2000/svg" viewBox="0 0 90 90"><defs><style>.cls-1{fill:#171717;}</style></defs><g id="Ackman"><path class="cls-1" d="M60.36,21.28c0,.79.57,1.32.88,2a1,1,0,0,0,.5-.06,7.42,7.42,0,0,0,.1-2,7.25,7.25,0,0,0-2.54-4.7.73.73,0,0,1-.2-.26c-.08-.19-.47-.33-.07-.62.23-.16.32-.05.51,0a4,4,0,0,1,2,2.13,35.93,35.93,0,0,1,1.36,3.46,3.31,3.31,0,0,1-.27,2.35c-.66,1-.13,1.38.39,2.07A5.34,5.34,0,0,1,64,29c0,.64-.15,1.27-.21,1.91a4.48,4.48,0,0,1-.91,2.81c-.15.16-.11.5-.15.76l-.27.09.12.13.13-.24c.2.14.56.29.56.41,0,.71-.17,1.42-.29,2.23.16,0,.47.07.78.09a1.09,1.09,0,0,1,1,1c0,1.21.61,2.43,0,3.63a.84.84,0,0,0-.07.47c.34,2.3-.37,4.53-.5,6.79a3.09,3.09,0,0,1-1.42,2.51,2.81,2.81,0,0,0-.51.4,2.08,2.08,0,0,1-2.73.32c-.68-.34-.72-.31-1.06.37a3.13,3.13,0,0,0-.31,1,39.51,39.51,0,0,0-.5,4.46,35.75,35.75,0,0,1-.21,4.26.76.76,0,0,0,.09.42c.88,0,1.09.93,1.73,1.29a28.55,28.55,0,0,1,4.67,3.68,1.66,1.66,0,0,0,1.28.51,16.6,16.6,0,0,1,7.84,1.3.49.49,0,0,1,.26.15l1.17,1.6c-.33.24-.83.42-1,.78a3.1,3.1,0,0,0-.2,1.41A3.37,3.37,0,0,1,72,76.1a6,6,0,0,0-1.7,2.2,3.5,3.5,0,0,1-2.9,2,27.4,27.4,0,0,0-4.84,1.11,4.52,4.52,0,0,1-2.5,0,3.21,3.21,0,0,1-1.4-.6,1.79,1.79,0,0,1-.31-1.16,48.65,48.65,0,0,1-.31-6.4c.16-1.92.08-3.87.07-5.81,0-.39-.37-.79-.68-1.16a4.18,4.18,0,0,0-.19,2.34.94.94,0,0,1,0,.62c-.48,1.25-.6,2.61-1.58,3.69a25.61,25.61,0,0,1-3.21,3c-1.13.89-2.24,1.82-3.46,2.81l1.3.72,1.38.7-.54.86a4.25,4.25,0,0,0-2.73-.69A4.49,4.49,0,0,1,46,79.49a4.19,4.19,0,0,0-1.44-.56,9.26,9.26,0,0,1-3.4-1.11A47.6,47.6,0,0,1,36.27,75a23,23,0,0,1-5-4.27,7.62,7.62,0,0,0-1.21-1L30,69.52l-.13.1.23.13c-.31,1.19.21,2.27.47,3.37s.72,2.16,1.09,3.24c.12.35.28.68.41,1,.19.5.49,1.09.08,1.49a1.44,1.44,0,0,1-1.62.3c-1.54-.73-3.23-.56-4.83-.88-.61-.12-1.2-.35-1.8-.53A8.75,8.75,0,0,0,20.81,77c-.47,0-1-.43-1.6-.11-1.09-.49-2.37-.38-3.42-1-.31-.19-.35-.39-.14-.63a13.1,13.1,0,0,1,1.08-1.15,33.94,33.94,0,0,1,5.42-3.59c.67-.4,1.39-.73,2.05-1.16a4.58,4.58,0,0,0,.88-.88c1.16-1.29,2.3-2.59,3.56-4-.73-1.14-1.59-2.45-2.42-3.77a9.89,9.89,0,0,1-1.4-3.78c-.14-.91-.11-.95-1-1.1a2.47,2.47,0,0,1-1.95-1.61,24.66,24.66,0,0,1-1-4.21,14.11,14.11,0,0,1-.63-3.67c0-.42-.39-.84-.53-1.29-.38-1.16-1.05-2.29-.19-3.56.3-.45.13-1.11.53-1.63A1.6,1.6,0,0,1,21.75,39l.09.28.15-.12L21.73,39c-.18-.54-.4-1.06-.54-1.61a4.88,4.88,0,0,1-.29-1.82,7.18,7.18,0,0,0-1-4.65A10.9,10.9,0,0,1,19,27.38a1.66,1.66,0,0,1,.63-1.44c.07.74.15,1.51.19,2.28a8.19,8.19,0,0,0,2.16,4.7,2.06,2.06,0,0,1,.69,1.67,2.46,2.46,0,0,0,.45,1.35l.33-2.79h.28a4.25,4.25,0,0,1,.24,1c0,.64-.22,1.28-.19,1.91a22.79,22.79,0,0,0,.11,4.37,6.29,6.29,0,0,0,.22.74c.53,1.29.26,2.68.49,4a1.05,1.05,0,0,1-.29.69c-.24.29-.55.34-.78,0a2.36,2.36,0,0,1-.41-1.64,7.83,7.83,0,0,0-.27-3.08c-.07-.3-.09-.71-.29-.85a5.66,5.66,0,0,0-1.4-.61.49.49,0,0,0-.39.18,4,4,0,0,0-.47,1c-.1.35-.06.75-.15,1.11a3.66,3.66,0,0,0,.4,2.72c.52,1,1,2,1.4,3A4.92,4.92,0,0,1,22,48.86l.46-1c.22.66.42,1.22.58,1.79,0,.12-.09.29-.14.44l-.51-.27-.08-.27-.14.11.24.14a8,8,0,0,0,.71,4.58c.11.3.22.5.52.32s.48-.38.47-.55c-.1-1-.27-1.94-.43-2.9s-.32-1.62-.43-2.44c0-.13.16-.29.25-.44a2.63,2.63,0,0,1,.3.44,2.71,2.71,0,0,1,.09.57,4.19,4.19,0,0,1,.24-.48c.1-.15.23-.29.34-.43.1.15.25.29.27.45a2.27,2.27,0,0,1-.05.63l-.12,1c0,.37-.07.74-.12,1.12-.08.63.61-.08.55.28a23.63,23.63,0,0,0,.14,3.37c0,.43,0,.64.48.57.06,0,.22.12.22.2.06.62.11,1.25.12,1.87s.26.21.48.2a.53.53,0,0,1,.41.29,3.89,3.89,0,0,1,.2,1.07c0,.73-.11,1.43.89,1.73.27.09.33.82.54,1.24.06.13.28.18.43.27l.25-.52a20.7,20.7,0,0,1,1.33,2.54,3.34,3.34,0,0,0,1.36,1.66,35.46,35.46,0,0,0,3.14,2,19.77,19.77,0,0,0,2.76,1,2.76,2.76,0,0,0,2.63,0c.24-.08.52-.28.73-.22a3.6,3.6,0,0,0,2.71-.55c.17-.09.18-.07.22.55l-.27.07.11.15.14-.25c.67-.12.94-.68,1.32-1.13s.59-.51.76.11l-.25.08.1.13.14-.23a11.39,11.39,0,0,0,4.67-4.23l-.09,1.24-.26.07.1.12.13-.23a9.1,9.1,0,0,0,.83-1c.2-.35.21-.83.46-1.13s.69.22.92-.24c.55-1.1,1.46-2,1.75-3.26a12.44,12.44,0,0,1,1.08-2.72,14.45,14.45,0,0,0,1.89-6.23,8.36,8.36,0,0,1,.23-1.58c0-.23.27-.42.56-.84.11.73.36,1.29.21,1.69-.33.87.14,1.24.71,1.6,1.69,1,3,.21,3.5-1.5.9-2.85,1-5.84,1.41-8.79a4,4,0,0,0-.52-2.09,1.22,1.22,0,0,0-2.25-.35A3,3,0,0,1,60,39.63c-.08,0-.26,0-.28-.06s-.12-.33-.06-.42c.33-.46.7-.9,1.06-1.34l.36-.28C62.5,37,62.5,37,62.48,35.3c-.42.56-.91,1.17-1.36,1.79-.08.11,0,.31-.07.46l-.36.29a3.09,3.09,0,0,1-.62-.12c-.3-.12-.43-.69-.21-.75,1.19-.32,1.34-1.42,1.64-2.29.55-1.66,1.39-3.24,1.47-5.06a5.65,5.65,0,0,0-.48-3.14l-.34,4.8a2.37,2.37,0,0,1-.44-2.06A2.76,2.76,0,0,0,61.37,27c-.36-.49-.3-1.28-.47-1.93-.35-1.33-.44-2.8-1.74-3.7a.28.28,0,0,1,0-.28.58.58,0,0,1,.4-.13,6.4,6.4,0,0,1,.83.41ZM33.21,70.47l-.08-.26-.13.11.23.13.06.28.17-.12Zm3.49.74-.27.07.12.15.13-.25.27-.07L36.84,71Zm-6.55-5L30.08,66l-.13.1.23.13a.64.64,0,0,0,0,.3,1,1,0,0,0,.19.27c0-.09.14-.21.11-.27A1.94,1.94,0,0,0,30.15,66.23Zm8.72,8.45.07.25.14-.11-.23-.13.56-.56.23.62c.55-.53,1.11-1,1.59-1.55.62-.7,1.2-1.43,1.75-2.19a1,1,0,0,0,.2-.83c-.23-.39-.62-.19-1-.05a1.55,1.55,0,0,0-.69.52,10.5,10.5,0,0,1-2.94,2.77c-.24.12-.33.55-.49.84Zm1.15.84a10.15,10.15,0,0,0,5.5,2.56,2.27,2.27,0,0,1,.71.29c1,.51,1.17.46,2-.33a5.13,5.13,0,0,1,1.2-1,23.75,23.75,0,0,0,4.83-3.86,8.78,8.78,0,0,0,1.95-2.79c-.36-1,.09-2,0-3a32.22,32.22,0,0,1,.07-5.81c.15-1.26.29-2.52.44-3.78a61.53,61.53,0,0,0-3.22,5.5,6.17,6.17,0,0,1-1.81,2.32c-.4.3-.77.63-1.1.9.09.31.72.2.26.6-.13.12-.5.23-.54.17-.37-.49-.68-.31-1.08,0-.59.42-1.26.76-1.84,1.2-.22.16-.47.6-.4.77a2.27,2.27,0,0,1-.2,1.92A4.48,4.48,0,0,1,46,73c-.76.74-1.55,1.43-2.36,2.12-.09.08-.35,0-.53-.06,0-.14,0-.35.13-.42a8.11,8.11,0,0,0,2-2.19,4.29,4.29,0,0,0,1-3,4.89,4.89,0,0,1-.83.29A1.68,1.68,0,0,0,44,71.05a5,5,0,0,1-1.55,2.12A13.07,13.07,0,0,0,40,75.52Zm.72-5.15a6,6,0,0,0-.85,0c-1.46.22-2.24,1.44-3.28,2.28-.07,0,0,.4.09.5a2.31,2.31,0,0,0,.63.31c0-.63.54-.16.79-.45C38.88,72.1,39.76,71.33,40.74,70.37Zm-7.07.93.45.25c.75.44.82.43,1.24-.14a3.07,3.07,0,0,0,.35-.51c.24-.44.16-1.06-.12-1.09-.52-.06-.26.49-.45.64A13.54,13.54,0,0,1,33.67,71.3Zm-1.42-1.6.31-.86c0-.11.06-.23.09-.34-.14,0-.31-.06-.41,0C31.69,68.8,31.69,69,32.25,69.7ZM21.75,35.55c-.3.91-.3.91.24,1.74ZM34.63,69.69c-.42-.26-.56-.43-.69-.42a2,2,0,0,0-.59.22c.12.13.21.34.34.36A3.41,3.41,0,0,0,34.63,69.69Zm-3.42-2.4c-.11.13-.24.21-.23.27.05.29-.62.39-.2.76l.24.2a2.83,2.83,0,0,0,.51-.71C31.57,67.69,31.33,67.48,31.21,67.29ZM23,37.5s.1,0,.1-.06c0-.23.05-.47.07-.71l-.08,0a3.58,3.58,0,0,0-.19.55C22.93,37.31,23,37.41,23,37.5Zm12.8,34.68s-.06-.06-.09-.06a.28.28,0,0,0-.11.08l.18.08Zm1.43-1.83-.11.09.2,0ZM22,37.84s-.07.07-.07.1.06.08.09.13l.08-.22ZM61.75,25.48l-.07-.1-.11.07.12.12Zm-.21-1-.07-.11-.1.08.12.11Z"/><path class="cls-1" d="M33.34,11a10.13,10.13,0,0,1,3.43-1.83A8.91,8.91,0,0,0,33,9.75a7.78,7.78,0,0,0-3.43,2.19c.56-.14.83-.19,1.09-.28A6.2,6.2,0,0,1,32,11.22a4.69,4.69,0,0,1,1.35.27c0,.74-.72.54-1.09.62-2.74.59-4.46,2.45-5.85,4.67a2.75,2.75,0,0,0-.27,1.85c.08.43.67.76,1,1.13-1.19.78-1.84.29-2.12-1.64a16.41,16.41,0,0,0-4.2,4,4.63,4.63,0,0,0-1,2.75c0,.1-.18.2-.27.31-.11-.14-.3-.28-.31-.43-.1-2,1-3.48,2.14-4.93a5.42,5.42,0,0,1,3.16-2.2c.4-.07.66,0,.81-.58a11.9,11.9,0,0,1,1.33-3A2.79,2.79,0,0,1,28,13a1.75,1.75,0,0,0,1-1,5.81,5.81,0,0,1,4.18-3c.7-.18,1.43-.24,2.12-.43a2.31,2.31,0,0,1,2.09.19c.72.5,1.51-.2,2.3,0,.38.08.82-.13,1.22-.1A29,29,0,0,0,45,8.54a7.15,7.15,0,0,1,3.62.9c.73.37,1.49.69,2.25,1,.16.06.39-.07.59-.12a6.33,6.33,0,0,1,5.67,1.43A7.23,7.23,0,0,1,59,13.43c.11.18.32.37.31.54,0,.34-.11.84-.33.95s-.59-.09-.74-.54a2.86,2.86,0,0,0-2.33-2.05c-1-.2-2-.57-3.09-.91.08.29.14.51.21.73s.16.49.29.92a2.63,2.63,0,0,1-.68-.4A4.7,4.7,0,0,0,50,11a10.49,10.49,0,0,1-1.7-.73,12.69,12.69,0,0,0-4.78-.95,27.84,27.84,0,0,0-3.38.34,16.85,16.85,0,0,0-2,.14A11.64,11.64,0,0,0,34.3,11C34.12,11.11,33.82,11,33.34,11Z"/><path class="cls-1" d="M39.47,20.45c-.17-.1-.37-.31-.51-.27a4,4,0,0,0-1.43.54c-1.4,1.06-2.87.31-4.31.25a.54.54,0,0,1-.36-.29,2.12,2.12,0,0,1-.07-.57,2.07,2.07,0,0,1,.43,0,1.29,1.29,0,0,0,.7-.3c1-.93,1.7-2.26,3.11-2.85.76-.32,1.32-1.11,2.07-1.5a16.75,16.75,0,0,1,4.51-1.68,15.33,15.33,0,0,1,5.32.07c.22,0,.4.3.92.72L48,14.32A13.82,13.82,0,0,0,38,17.1a14.83,14.83,0,0,0-3.07,2.45,2.08,2.08,0,0,0-.2.53,2,2,0,0,0,.59.17,5.4,5.4,0,0,0,3.54-1.49,5.37,5.37,0,0,1,.89-.68s.28.05.29.1c0,.47.27.47.64.31.62-.26,1.26-.47,1.9-.69a10.93,10.93,0,0,1,4.75-.69,12.22,12.22,0,0,1,2.34,0c1.74.5,3.61.6,5.22,1.55a14.51,14.51,0,0,1,1.51,1.05c.21.16.77.21.44.63-.12.15-.61.12-.89,0a6,6,0,0,1-1.11-.55A16.89,16.89,0,0,0,48,18.23a5.71,5.71,0,0,0-1.54.15,1.12,1.12,0,0,0-.64.42,7.8,7.8,0,0,1-4.17,2.66c-.33.11-.86.2-1,0-.56-.52-.89-.15-1.37.09A12.41,12.41,0,0,1,35,23a4,4,0,0,1-2.91-.82c-.12-.08-.09-.36-.13-.55.15,0,.37-.09.43,0,.94,1,2.18.76,3.22.59a6.82,6.82,0,0,0,3.88-1.76,5.24,5.24,0,0,0,2.69-1l.58-.05c0-.06-.13-.19-.14-.18l-.42.26A3.29,3.29,0,0,0,39.47,20.45Zm3.27-.26c-.27,0-.58-.19-.68.24-.26,0-.57-.17-.67.25l-.26.07.1.13.13-.24c.25,0,.6.25.68-.23.26,0,.58.21.68-.24l.36-.28c.9.08,1.38-.68,2.06-1.05l.27-.08-.12-.14-.13.24c-.46,0-.93.05-1.39.05-.72,0-.64.54-.68,1Z"/><path class="cls-1" d="M47,34.52c1.41.5,2.7.74,3.52,1.95a19.7,19.7,0,0,0,1.69,1.86,2.49,2.49,0,0,1,.51.79c.06.15-.08.4-.19.56s-.29,0-.41-.08a7.38,7.38,0,0,1-1.69-1.11c-1.32-1.44-3-1.36-4.67-1.24a6.43,6.43,0,0,0-3,.86c-1,.57-1.79.08-1.93-1.07a.53.53,0,0,1,.28-.43c.67-.28,1.37-.49,2-.75s1.53-.67,2.31-1A13.64,13.64,0,0,1,47,34.52Z"/><path class="cls-1" d="M57.76,43.28c.19.14.56.27.56.4a4,4,0,0,1-.46,1.88c-.1-.38-.18-.77-.3-1.15,0-.07-.16-.14-.24-.15a.35.35,0,0,0-.27.11c-.29.53-.57,1.07-1,1.86a2,2,0,0,1,.48-2c.39-.69.64-1.17.1-1.92a4,4,0,0,1-.46-1.62,1.73,1.73,0,0,1,.48-1.46c.75-.89.7-1.71-.31-2.11a1.73,1.73,0,0,1-.91-.94,14.11,14.11,0,0,1-.86-1.5,4.9,4.9,0,0,1-.34-2.43,2.35,2.35,0,0,0-.3-1.33,6.16,6.16,0,0,1-.69-4.09c.11-.52.11-1.07.21-1.59,0-.16.21-.3.32-.44.09.14.29.29.28.43,0,.7-.14,1.39-.23,2.07-.17,1.18.32,2.22.71,3.68a7.82,7.82,0,0,1,.32-1.13c.07-.15.25-.24.38-.35.07.17.21.34.2.51a12.56,12.56,0,0,0-.08,3.3,11.78,11.78,0,0,0,1.06,3.09c.12-.11.22-.15.24-.22.14-.44.48-.53.61-.12.35,1.07.58,2.18.85,3.24.36-.24.59-.91,1.42-.93a6.77,6.77,0,0,0-.86,2.27c0,.52-.58.22-.93.26-.59.07-.26-.31-.27-.45a8.74,8.74,0,0,1,.11-1.08c-.5.32-.75.45-.63,1a4.87,4.87,0,0,0,.81,2.48c.08.09,0,.31,0,.47a1.45,1.45,0,0,0-.34.2s0,.17.05.27a1.14,1.14,0,0,0,.23-.2A1,1,0,0,0,57.76,43.28Z"/><path class="cls-1" d="M25.57,40.52c-.16-.34-.36-.55-.32-.7a7.69,7.69,0,0,1,3-4.07c.86.1,1.71-.55,2.59,0a4.93,4.93,0,0,0,1.41.62,3.43,3.43,0,0,0,2,0c.76-.27,1.41.44,1.5,1.4a1.2,1.2,0,0,1-1.43,1.1,22.4,22.4,0,0,1-4.84-.83c-1.42-.56-2.14-.18-3.07,1.15Z"/><path class="cls-1" d="M33.44,50.89c-.58.74-1.18,1.51-1.77,2.28l-.21-.11c0-.24,0-.54.1-.73a18.26,18.26,0,0,1,1.32-1.93,2.63,2.63,0,0,0,.62-1.06c.09-.36.48-.65.78-.94a.43.43,0,0,1,.41,0,.45.45,0,0,1,.1.42,2.74,2.74,0,0,0-.49,1.79c0,.17.22.34.34.51a1.54,1.54,0,0,0,.28-.42c.11-.47.48-.42.74-.31a13.6,13.6,0,0,1,1.33.78,1.5,1.5,0,0,0,1.83-.26,4.23,4.23,0,0,1,.61-.51,1.26,1.26,0,0,1,1.83.87.64.64,0,0,1-.77.63,2.91,2.91,0,0,0-2.65.83c-.09.09-.29.08-.43.12A3.33,3.33,0,0,1,33.44,50.89Z"/><path class="cls-1" d="M37,58.92a13.17,13.17,0,0,0-3.58-.13c-.36.09-.84-.31-1.24-.53-.06,0,0-.37,0-.39.33-.13.86-.39,1-.26.64.59,1.27.28,1.93.16a13.49,13.49,0,0,1,4.39.21,11.11,11.11,0,0,0,2.94-.15,2.84,2.84,0,0,0,2.09-1.23c.31-.42.75-.36.89.14s.82.66.44,1.22-.86.32-1.32.26a1,1,0,0,0-1.07.37c-.2.26-.76.27-1.16.32A14.21,14.21,0,0,1,37,58.92Z"/><path class="cls-1" d="M56.3,27.7c-.31-.82-.55-1.5-.82-2.16-.83-2-2.53-3.14-4.26-4.26a.54.54,0,0,0-.4,0c-.36.78-1,.39-1.52.34a23.58,23.58,0,0,0-3.85.38,3.43,3.43,0,0,1-.78,0c-.27,0-.75.11-.76-.33s.45-.33.72-.28a4.7,4.7,0,0,0,1.54-.12c1.38-.2,2.77-.27,4.27-.41a5.92,5.92,0,0,0-3.11-.21,1.5,1.5,0,0,1-.78,0c-.1,0-.2-.19-.24-.31a.29.29,0,0,1,.14-.24A6.66,6.66,0,0,1,50.08,20a11.27,11.27,0,0,1,5.58,4.37A3.58,3.58,0,0,1,56.3,27.7Z"/><path class="cls-1" d="M43.52,41.08l.77,1.28s0,.09-.1.24l-2-1.3c.64-1.17,1.85-1.44,2.87-1.93a2.19,2.19,0,0,1,1.53.06,22.28,22.28,0,0,1,2.49,1.25.43.43,0,0,1,.19.34.4.4,0,0,1-.31.24,1.68,1.68,0,0,0-1.9.68c-.27.39-1,.36-1.64.22s-.42-.56-.57-.85C44.47,40.59,44.5,40.57,43.52,41.08Z"/><path class="cls-1" d="M44.13,59.89a7.16,7.16,0,0,1-1,.73c-.52.22-1.09.34-1.61.56-.24.11-.66.24-.29.66-.25.14-.64.45-.74.37-1.12-.86-2.35-.27-3.52-.28-.38,0-.79.35-1.14-.06-.16-.18-.9-.16-.32-.69-.4-.21-.82-.41-1.21-.64a.45.45,0,0,1-.18-.36c0-.1.21-.17.34-.21a.47.47,0,0,1,.31,0c1.22.6,2.54.21,3.8.43a3.62,3.62,0,0,0,2.45-.19C41.83,59.85,42.86,60,44.13,59.89Z"/><path class="cls-1" d="M34.34,41.36a4.35,4.35,0,0,1-1.25.28c-.76-.13-.8-.16-1.28.28-.16.14-.33.27-.5.4a1.07,1.07,0,0,1-1.66-.08,5.54,5.54,0,0,1-.59-.91c-.69.39-1.26.73-1.86,1-.11,0-.33-.06-.46-.15s0-.28.06-.34a17.87,17.87,0,0,1,2.14-1.67A3.28,3.28,0,0,1,32.29,40C32.93,40.32,33.49,40.79,34.34,41.36Z"/><path class="cls-1" d="M55.63,22.58a1.25,1.25,0,0,1,1.62.42,5.9,5.9,0,0,1,1.4,4.52,10.54,10.54,0,0,1-.67,3.4,8,8,0,0,0-.29,2c0,.21.48.44,0,.56-.08,0-.32-.33-.4-.54a6.51,6.51,0,0,1,.11-4.31,5.35,5.35,0,0,0,.18-1.2c0-.15-.14-.33-.1-.45.51-1.45-.29-2.43-1.16-3.41A8.12,8.12,0,0,1,55.63,22.58Z"/><path class="cls-1" d="M45.25,11.72c-1.63-1.39-3.46-.66-5.19-.48a19.28,19.28,0,0,0-4,1.1,10.38,10.38,0,0,0-5.87,4.47c-.06.1-.25.12-.38.18-.06-.18-.12-.35-.17-.53a.16.16,0,0,1,0-.15A15.79,15.79,0,0,1,33,13c2.52-1.58,5.43-2,8.23-2.67,1.15.22,2.39-.26,3.49.41a5.17,5.17,0,0,1,.73.68Z"/><path class="cls-1" d="M32.33,18a5.34,5.34,0,0,1-2.11.93,5.75,5.75,0,0,1-.93,0c-.09,0-.19-.21-.22-.33s.08-.21.15-.24c.34-.12.7-.21,1-.32a4.84,4.84,0,0,0,2.21-1.49,9.08,9.08,0,0,1,5.3-3.1,11.72,11.72,0,0,1,2.94.09c-1,1-2.19,0-3.14.72-.79.56-1.84.75-2.63,1.32a18.55,18.55,0,0,0-2.27,2.17h0l-.37.29Z"/><path class="cls-1" d="M36.37,55.91a5.59,5.59,0,0,0,.84.36c.34.1.87.32,1,.17.83-.74,1.72-.31,2.59-.26.58,0,1.17.13,1.74.22a.43.43,0,0,1,.3.27c0,.1-.13.31-.23.32a6.78,6.78,0,0,1-1.55.14c-1-.06-2-.33-2.93.24a1.28,1.28,0,0,1-1-.15,2,2,0,0,0-2.6.21c-.19.19-.34.17-.51,0s-.11-.36.1-.5C34.79,56.43,35.32,55.59,36.37,55.91Z"/><path class="cls-1" d="M21.62,29.31a6.63,6.63,0,0,1,.16.89.43.43,0,0,1-.21.35.44.44,0,0,1-.37-.2,7.61,7.61,0,0,1-.61-3.5c.16-.84.23-1.69.32-2.55A2.32,2.32,0,0,1,22,22.52a2.45,2.45,0,0,1,0,.68,10.06,10.06,0,0,0-.33,2.73,4.78,4.78,0,0,0,.45,2.42c.24.49.61,1,.34,1.64l-.85-.66a1.05,1.05,0,0,0,0-.3.93.93,0,0,0-.18-.26c0,.08-.13.2-.1.25A1.52,1.52,0,0,0,21.62,29.31Z"/><path class="cls-1" d="M60.39,21.32c-.81-1.22-1.6-2.46-2.45-3.66a4.14,4.14,0,0,0-3.27-1.91c-.79-.05-1.58-.18-2.37-.3-.09,0-.17-.23-.19-.36s.13-.22.18-.21c.9.16,1.88-.53,2.71.27a4.77,4.77,0,0,1,4,3.08,27,27,0,0,0,1.63,2.52c.18.29.08.5-.28.53Z"/><path class="cls-1" d="M35.92,43.08c-.32,1.43-.64,2.86-1,4.28a.41.41,0,0,1-.31.25.41.41,0,0,1-.27-.27,3.24,3.24,0,0,1,.15-1.26c.83-1.68.61-3.53.91-5.29a7.54,7.54,0,0,0-.15-1.21c0-.17.17-.34.27-.51.12.13.29.24.34.39a6.87,6.87,0,0,1,0,3c0,.21,0,.42-.08.63Z"/><path class="cls-1" d="M49.9,34.92a2.75,2.75,0,0,1-.22-2.24c.23-1.29.51-2.57.8-3.85a.42.42,0,0,1,.34-.2.38.38,0,0,1,.22.31C50.71,30.9,50.91,33,49.9,34.92Z"/><path class="cls-1" d="M62.87,42.15c-.13-.54-.22-.87-.28-1.2s.34-.82-.21-.93c-.21,0-.52.4-.78.62s-.73.63-1.11.91a.45.45,0,0,1-.42,0,.43.43,0,0,1,0-.41c.41-.48.89-.9,1.28-1.4a1.35,1.35,0,0,1,1.59-.63c.41.13.67,1.41.45,2C63.23,41.35,63.1,41.63,62.87,42.15Z"/><path class="cls-1" d="M24,30.2a11.35,11.35,0,0,1,.72-2,6.34,6.34,0,0,0,.55-2.1c0-.17.2-.3.31-.45.1.14.3.29.29.42a5.31,5.31,0,0,1-.51,2.11,7.08,7.08,0,0,0-.7,4.11.32.32,0,0,1-.16.26s-.2-.06-.24-.13A4.26,4.26,0,0,1,24,30.2Z"/><path class="cls-1" d="M54.13,45.88a.82.82,0,0,1,.28,1A17.34,17.34,0,0,1,52,51.73c-.06.08-.18.11-.39.24a4.5,4.5,0,0,1,.19-.91C52.57,49.33,53.36,47.6,54.13,45.88Z"/><path class="cls-1" d="M58.87,35.39c-.14-.29-.39-.56-.34-.74.21-.69.56-1.33.76-2a2.94,2.94,0,0,0,.09-1.86,1,1,0,0,1,.53-1.36l.24,1a2.89,2.89,0,0,1-.1,1.88c-.21.53-.34,1.09-.53,1.63S59.12,34.83,58.87,35.39Z"/><path class="cls-1" d="M32.67,17.7c.1.1.3.22.29.29a4.2,4.2,0,0,1-2.07,2.74c-.85.51-1.74.05-2.6-.07-.05,0-.1-.18-.09-.27s.1-.23.15-.23a3.63,3.63,0,0,1,.94.06,2,2,0,0,0,2.28-.93c.29-.41.51-.88.76-1.32h0l.37-.29Z"/><path class="cls-1" d="M41.55,52c1.16-1.19.88-2.32,0-3.43-.06-.08,0-.33,0-.36a.71.71,0,0,1,.49-.07A1.28,1.28,0,0,1,43,49.27a6.73,6.73,0,0,1-.08,2c-.1.36-.64.61-1,.9Z"/><path class="cls-1" d="M44.75,51.18c.1,0,.24,0,.3.09.85.93,1.71,1.86,2.54,2.81.08.1,0,.35,0,.54-.14,0-.33,0-.41-.1-.86-.93-1.71-1.87-2.54-2.82-.06-.08,0-.28,0-.43S44.71,51.21,44.75,51.18Z"/><path class="cls-1" d="M45.7,44.45c-.83-.1-1.5-.22-2.17-.24s-1-.73-1.51-1c-.06,0,.1-.45.16-.69.15.09.38.14.44.28.34.73,1,.8,1.67.89C44.79,43.72,45.39,43.6,45.7,44.45Z"/><path class="cls-1" d="M29,21.85c-.2.19-.27.31-.35.32A2.79,2.79,0,0,0,26.4,24c-.07.14-.3.19-.45.28,0-.19-.18-.44-.1-.56A14.2,14.2,0,0,1,27.09,22C27.59,21.4,28.23,21.69,29,21.85Z"/><path class="cls-1" d="M20.51,41.18c1.28.81,1.38,2.13,1.82,3.26a.41.41,0,0,1-.14.38.47.47,0,0,1-.4-.1c-.12-.09-.27-.25-.27-.38a3.7,3.7,0,0,0-.92-2.25C20.46,41.89,20.54,41.53,20.51,41.18Z"/><path class="cls-1" d="M60.87,48.54c.4-.43.75-.79,1.23-1.29a2.31,2.31,0,0,1-1.34,2.15c-.09.05-.44-.11-.49-.24a10.25,10.25,0,0,1-.39-1.47s.11-.17.19-.19.25,0,.28.07C60.53,47.87,60.68,48.18,60.87,48.54Z"/><path class="cls-1" d="M61,45.65c0,.05,0,.12,0,.14s-.25.11-.27.08a12.74,12.74,0,0,1-1.36-1.69c-.2-.34.13-.72.5-.86.12,0,.47.17.46.19-.27.79.28,1.29.64,1.85A.7.7,0,0,1,61,45.65Z"/><path class="cls-1" d="M33.35,43.53a4.06,4.06,0,0,1-2.94,2c-.09,0-.24-.15-.31-.26s0-.23.1-.26Z"/><path class="cls-1" d="M25.14,23.94a4.57,4.57,0,0,1-.51,1.28c-.38.45-.45,1.36-1.12,1.33-.5,0,.15-.38.15-.65s.26-.53.37-.82c.19-.47.33-1,.53-1.44.06-.15.26-.24.39-.36.07.17.14.34.2.51S25.14,23.89,25.14,23.94Z"/><path class="cls-1" d="M27.63,34.22c0-1-.08-2-.11-2.89a1.18,1.18,0,0,1,.09-.46.36.36,0,0,1,.26-.12.51.51,0,0,1,.25.13C27.85,32,28.66,33.17,27.63,34.22Z"/><path class="cls-1" d="M39.92,41c-.88-1.15-.23-2.09-.25-3.25C40.58,38.91,39.94,39.85,39.92,41Z"/><path class="cls-1" d="M61.38,42.75c.07-.4,0-.58.13-.7a.59.59,0,0,1,.38-.15c.06,0,.19.12.2.19.06.55.11,1.1.12,1.66a.42.42,0,0,1-.25.31.4.4,0,0,1-.33-.21C61.5,43.42,61.43,43,61.38,42.75Z"/><path class="cls-1" d="M36,47.76c0-.51,0-.78.5-.88.7-.14.69-.22,1.4.33Z"/><path class="cls-1" d="M39,54.27a2.75,2.75,0,0,1,.14-.42c0-.06.18-.08.26-.07s.22.11.22.17a1.85,1.85,0,0,1,0,.62c-.07.26.09.66-.35.74C39,55.37,38.91,55.13,39,54.27Z"/><path class="cls-1" d="M25.77,21a2.24,2.24,0,0,1-.93,1.9C24.78,22,24.78,22,25.77,21Z"/><path class="cls-1" d="M37.89,53.57c-.25.41-.48.8-.73,1.17,0,0-.19,0-.29-.07s-.1-.08-.09-.1c.16-.43.32-.86.5-1.27a.28.28,0,0,1,.26-.08A2.26,2.26,0,0,1,37.89,53.57Z"/><path class="cls-1" d="M47.65,71.89c0-.36,0-.56.05-.65a3.5,3.5,0,0,1,.66-.56s.17.09.25.14a6.76,6.76,0,0,1-.46.72A2.36,2.36,0,0,1,47.65,71.89Z"/><path class="cls-1" d="M42.33,76.12,42,75.8l.34-.34c.08.1.22.2.22.3S42.43,76,42.33,76.12Z"/><path class="cls-1" d="M48.91,69.46c-.13-.15-.3-.3-.28-.34a1.82,1.82,0,0,1,.34-.34c.07.11.2.21.2.32S49,69.3,48.91,69.46Z"/></g></svg>