<svg xmlns="http://www.w3.org/2000/svg" viewBox="0 0 90 90"><defs><style>.cls-1{fill:#171717;}</style></defs><g id="catch"><path class="cls-1" d="M23,47.7c0,.25-.24.57,0,.9l2,3.06c.06.11,2.2,4,2.32,4.15.24.31,1.36.39,1.74.71a30.94,30.94,0,0,1,3.17,1.11c.1.08,1.73.25,2.06.58a15.11,15.11,0,0,0,3.44.64c.12,0,3.81.09,4.37,0l4-.15c.68,0,1.12-.21,1.8-.22.05,0,5.92-1.2,6.47-1.23a4.16,4.16,0,0,1,1.28.11c.56.42.92,0,1.59.95.33.34.67.67,1,1,.67.76,13.63,16,13.76,16.56l1.24,1.35a1,1,0,0,1-.12,1.42c-.12.12-.24.17-.33.08C72,78,63.37,67.8,63,67.46s-5.16-6.06-5.42-6.75a2.27,2.27,0,0,0-.53-.84c-.52-.53-1.05-1.06-1.59-1.57-.28-.26-1.69,0-2,.15-1.16.5-5,.77-6.43,1.13-.27,0-3,.16-3.24.16H39.4c-.68,0-1.36,0-2,0-.41,0-1.67-.39-1.94-.39a9.45,9.45,0,0,1-2.63-.82c-.53-.31-2.37-.53-2.67-.72s-1.85-.72-2.2-.91-1.25-.59-1.33-.79-.28-.61-.43-.9a13.48,13.48,0,0,0-.81-1.38,11.6,11.6,0,0,0-1.24-2,8.55,8.55,0,0,1-1.28-2,5.41,5.41,0,0,0-.72-1c0-.47,0-.95,0-1.42a.65.65,0,0,1,0-.2A7.33,7.33,0,0,1,24,45.51a.9.9,0,0,1,.94.2,4,4,0,0,1,1,1.27c.06.13.27.58.37.46a25.76,25.76,0,0,1,1.52-2.19,1,1,0,0,1,1.13,0,5.17,5.17,0,0,1,1.3,1.53c.13.3.22.32.4.12a6,6,0,0,1,1.54-.92c.09,0,1.27.7,1.36,1.31,0,.12.16.22.24.32a2.51,2.51,0,0,0,1.16.25c.17,0,.8,0,.86,0a20.18,20.18,0,0,0,2.14.47c.29,0,3.07,1.22,3.55,1.22a.67.67,0,0,1,.38.08,1.88,1.88,0,0,0,1.36.31c.34,0,2.59-.29,3.38-.4a2.41,2.41,0,0,0,.94-.3,1.12,1.12,0,0,1,.58-.11,1.33,1.33,0,0,0,1-.27c.17-.15.38-.11.58-.13s.59,0,.78-.12A2.65,2.65,0,0,1,52,48.31c.28,0,2.86,0,3.27,0s.68,0,1,0,.55-.06.78.14.76.26,1,.6,1,.76,1.13,1.4c0,.06,1.21.94,1.68,1.41a5.18,5.18,0,0,0,1,.65,20.77,20.77,0,0,1,2.22,1.35,6.56,6.56,0,0,0,1.72,1c.54.28,12.63,7.65,13.92,8.19a.29.29,0,0,1,.15.14c0,.05,0,.13,0,.19a.24.24,0,0,1-.17.33,1.69,1.69,0,0,1-1.54-.21c-.23-.19-.55,0-.77-.16-1.09-.65-13.8-8.52-14.27-8.78a3.63,3.63,0,0,1-.71-.36c-.36-.32-1.57-1.14-1.76-1.33a3.63,3.63,0,0,0-1.44-1.07L57.88,50.4c-.25-.23-.49-.47-.75-.69a10.77,10.77,0,0,0-1.69-.55l-3.87,0a1.08,1.08,0,0,0-.55.23,6.06,6.06,0,0,0-1.91.54c-.13.11-.4.05-.6.05a11.63,11.63,0,0,0-1.32.39c-.41,0-1.41.39-1.54.39l-3.88,0a20.41,20.41,0,0,1-3-1,6,6,0,0,0-1.89-.62,8.34,8.34,0,0,0-1.32-.39c-.2,0-.9-.35-1.11-.3s-.34.23-.53.28-.41.31-.43.59,0,.41,0,.61a.65.65,0,0,0,0,.2.32.32,0,0,0,.14.14c.31.12.59.32.89.47a1.43,1.43,0,0,0,.59,0,.42.42,0,0,0,.38-.4c0-.33,0-.67,0-1a.2.2,0,0,1,.12-.15s.12,0,.17.07a1,1,0,0,1,.51.82c0,.34,0,.68,0,1a.39.39,0,0,0,.32.44c.45.11,2.32,1,2.75,1.16s.82,0,1.12.37c.48.08.82.44,1.28.57a.94.94,0,0,1,.64.73.35.35,0,0,1-.32.41c-.06,0-.16,0-.2,0-.37-.33-.9-.27-1.3-.47A2.36,2.36,0,0,0,39.51,54c-.43-.44-3.06-.47-3.46-.74H33.4a.3.3,0,0,0-.18.1,1.34,1.34,0,0,1-.95.26.66.66,0,0,0-.2,0c-.6.17-1-.27-1.52-.43-.68-.57-3.53-2.91-3.88-3.37s-.84-.69-1-1.27c-.33-.34-.32-.62-.65-.95,0,0-.18-.39-.25-.39-.1-.34-.36-.56-.51-.56C23.76,46.68,23,47.22,23,47.7Zm4.48-.42a1.8,1.8,0,0,1-.34.71c-.1.11,0,.2.05.34a17.32,17.32,0,0,0,1.91,1.92c.3.27,1.8,2.17,3.2,2.51a.22.22,0,0,0,.19,0,1.38,1.38,0,0,1,.92-.32c.48,0,1,0,1.42,0,.06,0,.12-.06.16-.11s0-.1,0-.13a.31.31,0,0,0-.16-.12,1.9,1.9,0,0,1-1-.25c-.32-.24-.74-.29-1-.63s-1.62-1.18-1.7-1.35a3.18,3.18,0,0,0-.52-.84c-.3-.28-.54-.61-.85-.87s-.35-.73-.63-1-.48-.66-.73-.88c0,0-.1,0-.13,0S27.5,47.23,27.48,47.28Zm5.5.85c-.13-.31-.22-.55-.33-.79a.44.44,0,0,0-.67-.1l-.3.25a.81.81,0,0,0-.19.91,1.34,1.34,0,0,0,.58.77c.09,0,.45.32.46.23A3.58,3.58,0,0,1,33,48.2C33,48.15,33,48.09,33,48.13Z"/><path class="cls-1" d="M34.48,41.4h.21a2,2,0,0,1,1.11.34,2.14,2.14,0,0,1,.81.54c.09.11,0,.2,0,.34a1,1,0,0,1-1.07.36c-.32-.06-.54-.38-.91-.36s-.67,0-1,0l-.21,0c-.11,0-.29-.41-.22-.51.22-.34.46-.67.93-.65Z"/><path class="cls-1" d="M53.83,36.21a1.61,1.61,0,0,1-.28.39c-.31.24-.67.41-1,.65s-.49.45-.74.67a1,1,0,0,1-.94.13c-.11,0-.28-.44-.2-.52.46-.48.93-1,1.38-1.44a1.42,1.42,0,0,1,1.64-.31C53.85,35.82,53.89,36,53.83,36.21Z"/><path class="cls-1" d="M53.19,44.26a1.41,1.41,0,0,1,1.33.38c.17.2.38.38.53.59a.54.54,0,0,1,0,.38c0,.13-.38.27-.51.21l-.17-.11a1.07,1.07,0,0,0-.73-.26c-.46,0-.71-.3-1-.61-.08-.1,0-.5.16-.52Z"/><path class="cls-1" d="M37.33,38.52a2.61,2.61,0,0,1-.68-.05,8.58,8.58,0,0,1-1-.56s0-.12,0-.19a.48.48,0,0,1,.29-.44,2.72,2.72,0,0,1,2,.63c.07,0,.06.24.06.36a.2.2,0,0,1-.13.14Z"/><path class="cls-1" d="M38.36,45.77c0,.12,0,.32-.1.35a6.31,6.31,0,0,1-1,.52.27.27,0,0,1-.34-.14c-.06-.12-.13-.29-.08-.37a1.14,1.14,0,0,1,1.32-.63C38.22,45.52,38.28,45.68,38.36,45.77Z"/><path class="cls-1" d="M49,34.21a1.15,1.15,0,0,1-.6,1.15.52.52,0,0,1-.37,0c-.18,0-.19-.16-.1-.29.26-.36.28-.88.73-1.12l.17-.1Z"/><path class="cls-1" d="M38.79,34.08a.27.27,0,0,1-.17.32c-.18.08-.51,0-.53-.16a2.46,2.46,0,0,1-.08-.59c0-.12.11-.23.18-.34a1.67,1.67,0,0,1,.16.12C38.53,33.62,38.8,33.75,38.79,34.08Z"/><path class="cls-1" d="M39.67,39.3a.27.27,0,0,1-.35-.13c-.1-.2-.06-.47.08-.53a1,1,0,0,1,.38,0c.14,0,.29.37.2.5A1,1,0,0,1,39.67,39.3Z"/><path class="cls-1" d="M51,43.89c.25,0,.32,0,.38.31a.33.33,0,0,1-.26.41c-.2,0-.45-.06-.47-.2a.73.73,0,0,1,0-.36A.27.27,0,0,1,51,43.89Z"/><path class="cls-1" d="M54.94,40.73c0,.24,0,.36-.33.4s-.36,0-.39-.31,0-.35.32-.4S54.89,40.46,54.94,40.73Z"/><path class="cls-1" d="M51.78,41.39c-.24,0-.34-.1-.36-.33a.38.38,0,0,1,.49-.4.35.35,0,0,1,.27.42A.34.34,0,0,1,51.78,41.39Z"/><path class="cls-1" d="M50.23,47.46a.27.27,0,0,1-.13.33.2.2,0,0,1-.15,0,1.17,1.17,0,0,1-.3-.24.45.45,0,0,1-.09-.31c0-.13.18-.15.33-.12S50.19,47.18,50.23,47.46Z"/><path class="cls-1" d="M38.15,42.31a.59.59,0,0,1,.16.08.37.37,0,0,1-.25.58.25.25,0,0,1-.33-.12.17.17,0,0,1,0-.15A4.78,4.78,0,0,1,38.15,42.31Z"/><path class="cls-1" d="M40.42,31c0,.26,0,.57.13.78a3.67,3.67,0,0,1,.35,1.14,6.44,6.44,0,0,1,.4,1.12,1,1,0,0,0,1.2.79,2.43,2.43,0,0,0,.37-.16c.31-.13.41-.11.42.09,0,.42,0,.84,0,1.25.48-.23,1.62-.82,1.63-1.09a7.3,7.3,0,0,1,0-.81c.08-.59-.33-1-.49-1.5,0-.09-.21-.18-.32-.19-.41,0-.82,0-1.22,0-.14,0-.3,0-.34-.18-.13-.51-.57-.91-.49-1.5a5,5,0,0,0,0-1,.69.69,0,0,0-.09-.38,2.23,2.23,0,0,0-1-.95.82.82,0,0,0-.78.11c-.36.31-.7.63-1.06,1a.22.22,0,0,1-.16,0c-.29-.29-.58-.57-.84-.88a.58.58,0,0,1-.09-.38,16,16,0,0,1,0-1.83,3.29,3.29,0,0,0-.49-1.51,1,1,0,0,0-1.37-.47c-.18.08-.34.27-.52.27a1.83,1.83,0,0,0-1.13.38.43.43,0,0,1-.38,0,7.54,7.54,0,0,1-.55-.58,2.88,2.88,0,0,0-.41-1.33,1.68,1.68,0,0,1,0-.6,2.41,2.41,0,0,0-.06-.81,2.66,2.66,0,0,1-.38-1.13.57.57,0,0,0-.18-.35c-.38-.39-.78-.76-1.17-1.13a.5.5,0,0,0-.56,0,2.28,2.28,0,0,0-1,1.26,4.92,4.92,0,0,0-.48.87,3.75,3.75,0,0,1-.68.76,2.13,2.13,0,0,0-.52.85c0,.14-.17.12-.31,0A1.87,1.87,0,0,1,27,21.31a2.15,2.15,0,0,1-.41-1.12.55.55,0,0,0-.15-.36,9.93,9.93,0,0,0-.72-.73.65.65,0,0,0-.36-.15,2.39,2.39,0,0,0-1.75.3c-.09.06-.22,0-.26-.19-.13-.51-.57-.93-.43-1.53a.68.68,0,0,0-.15-.57c-.27-.3-.25-.78-.61-1-.12-.08-.22-.22-.34-.22a13.45,13.45,0,0,0-1.42,0c-.12,0-.23.13-.34.21a16.55,16.55,0,0,0-1.68,1.65c-.29.3-.29.75-.61,1a2.34,2.34,0,0,0-.66,1c-.05.14-.41.18-.53.08a1.19,1.19,0,0,1-.58-1,1.91,1.91,0,0,0-.31-1.14,5.36,5.36,0,0,1-.44-.9,3.63,3.63,0,0,1-.07-1l-.09-1c-.4-.46-.26-1-.29-1.56a.67.67,0,0,1,0-.2,1.42,1.42,0,0,0-.57-1.23,1.32,1.32,0,0,0-1.08-.46,3.18,3.18,0,0,0-1,.09,12.7,12.7,0,0,0-1.61.8,1.65,1.65,0,0,0-.5,1s.1.11.16.11a1.31,1.31,0,0,0,.78-.09,13.48,13.48,0,0,1,1.24-.66,1,1,0,0,1,1.33.88c0,.61.05,1.22,0,1.83a.92.92,0,0,0,.21.56,1.29,1.29,0,0,1,.18.77c0,.35.4.55.39.91a1.1,1.1,0,0,0,.24.76c.24.28.07.69.25.95.3.45.38,1,.83,1.37.27.21.49.47.74.7a1,1,0,0,0,1.28-.11,1.37,1.37,0,0,0,.33-.49c.31-.9,1-1.55,1.41-2.41.39-.38.77-.77,1.16-1.14.19-.19.48-.14.72.08a1.12,1.12,0,0,1,.4.89,1.09,1.09,0,0,0,.11.79,1.62,1.62,0,0,1,.3,1.14,1,1,0,0,0,.3.73l.58.57a.53.53,0,0,0,.56.06l1.05-1c.13-.12.29,0,.49.15.34.35.32.88.65,1.23a1.74,1.74,0,0,0,.26,1,6.7,6.7,0,0,1,.54,1.07,3.16,3.16,0,0,0,.55.83c.61.65.82.65,1.47,0,.43-.44.83-.9,1.25-1.35.16-.72.8-1.07,1.23-1.57.1-.13.23-.16.32-.1a.25.25,0,0,1,.1.17c0,.2,0,.46.06.6a2.09,2.09,0,0,1,.36,1.54c-.07.64.54,1.09.44,1.73a3.15,3.15,0,0,0,.95,1,.48.48,0,0,0,.18.08,1.81,1.81,0,0,0,1.36-.24.71.71,0,0,1,.36-.15,3.75,3.75,0,0,1,.82,0c.11,0,.3.1.32.18.11.52.48.93.48,1.51,0,1.56-.17,1.18.92,2.31.24.24.48.48.73.71a.64.64,0,0,0,.36.17,1.66,1.66,0,0,0,1.35-.26C40.26,30.79,40.38,30.82,40.42,31Z"/><path class="cls-1" d="M49,41a7,7,0,0,0-1.35-2A5.32,5.32,0,0,0,46,37.84a5.77,5.77,0,0,0-2.86-.2.57.57,0,0,1-.26.11,3.71,3.71,0,0,0-1.08.52c-.32.24-.58.57-.88.84a1.28,1.28,0,0,0-.46,1.08,2.17,2.17,0,0,0-.4,1.52c0,.23-.13.38-.23.55a.91.91,0,0,0,0,1,2.07,2.07,0,0,1,.3,1.15.82.82,0,0,0,.14.58,17.43,17.43,0,0,0,2,2,.59.59,0,0,0,.37.12,2,2,0,0,1,1.34.34,1.85,1.85,0,0,0,1.37-.11,1.5,1.5,0,0,1,.76-.23.74.74,0,0,0,.38-.12c.56-.37.91-1,1.59-1.21a.24.24,0,0,0,.13-.15c.08-.51.58-.75.77-1.18.11-.23,0-.56.17-.77a1.8,1.8,0,0,0,.32-1.14A2.44,2.44,0,0,0,49,41ZM47.6,43.41a5.13,5.13,0,0,1-1.64,2c-.48,0-.76.55-1.3.47a7.09,7.09,0,0,0-1.22,0,.76.76,0,0,1-.54-.21c-.3-.27-.6-.55-.89-.84-.86-.87-.73-.74-.76-1.75,0-.21,0-.41,0-.61a2.81,2.81,0,0,1,0-.41c0-.33-.08-.68.14-1s.37-1,.87-1.33c.28-.19.51-.43.89-.4s.68,0,1,.05,1.41,0,1.6.17c.38.38.76.77,1.16,1.13a3.93,3.93,0,0,1,.62,1A1.81,1.81,0,0,1,47.6,43.41Z"/></g></svg>