<svg xmlns="http://www.w3.org/2000/svg" viewBox="0 0 90 90"><defs><style>.cls-1{fill:#171717;}</style></defs><g id="Faucet"><path class="cls-1" d="M24.92,74.15a.53.53,0,0,1-.42-.7c.05-.17.39-.29.63-.25a.45.45,0,0,1,.29.56A.42.42,0,0,1,24.92,74.15Z"/><path class="cls-1" d="M44.34,40.27c0,.16-.06.38-.22.38s-.22-.21-.22-.39a.46.46,0,0,1,.23-.41A1.83,1.83,0,0,1,44.34,40.27Z"/><path class="cls-1" d="M55.74,41.76c0,.16-.06.38-.23.38s-.22-.21-.22-.39a.44.44,0,0,1,.23-.4A1.62,1.62,0,0,1,55.74,41.76Z"/><path class="cls-1" d="M50.05,41.06a2.67,2.67,0,0,1,.36-.22.28.28,0,0,1,.39.15.2.2,0,0,1,0,.17.29.29,0,0,1-.4.15A1.72,1.72,0,0,1,50.05,41.06Z"/><path class="cls-1" d="M47.45,40.16c-.09.11-.22.33-.26.31-.4-.2-.4-.44,0-.61C47.25,39.84,47.37,40.06,47.45,40.16Z"/><path class="cls-1" d="M44.83,38.84c-.08.08-.2.25-.24.23-.35-.15-.35-.33,0-.46C44.65,38.6,44.75,38.76,44.83,38.84Z"/><path class="cls-1" d="M56,40.35c-.05.06-.14.18-.16.16-.26-.1-.25-.23,0-.32C55.91,40.18,56,40.29,56,40.35Z"/><path class="cls-1" d="M55.14,68.84a1.47,1.47,0,0,0,0-.31c-.15-.75.42-1.26.64-1.89,0-.11.27-.2.43-.23s.51,0,.77,0a3.74,3.74,0,0,1,2.33.86,1.66,1.66,0,0,1,.48.59c.13.21.21.46.33.68.27.53.24.72-.17,1.12s-.5.33-.57.06-.33-.6-.44-.91a1.56,1.56,0,0,0-1-1A2.39,2.39,0,0,0,57,67.4c-.4,0-.74.18-.76.5l-.09,1.8c0,.17-.47.35-.65.25a.58.58,0,0,1-.18-.17A1.65,1.65,0,0,1,55.14,68.84Z"/><path class="cls-1" d="M61.36,64.83a2.85,2.85,0,0,1-.16.44.33.33,0,0,1-.43.14c-.14,0-.33-.12-.39-.24a1.11,1.11,0,0,1,0-.94.66.66,0,0,1,.39-.23.44.44,0,0,1,.54.34C61.35,64.51,61.35,64.67,61.36,64.83Z"/><path class="cls-1" d="M62.2,68.33c.29,0,.67.13.61.24a.88.88,0,0,1-.36.26.29.29,0,0,1-.4-.16C62,68.54,62,68.44,62.2,68.33Z"/><path class="cls-1" d="M31,48.61h-.26c-.34,0-.44-.1-.5-.44a.46.46,0,0,1,.42-.52,2.76,2.76,0,0,1,.76,0c.19,0,.23.22.26.39s0,.36-.2.43A3.71,3.71,0,0,1,31,48.61Z"/><path class="cls-1" d="M25.43,62.24a.4.4,0,0,1-.17.44,1.1,1.1,0,0,1-.73.14c-.29,0-.52-.17-.53-.42a.73.73,0,0,1,.1-.46c.48-.68.82-.65,1.28.07A.78.78,0,0,1,25.43,62.24Z"/><path class="cls-1" d="M19.92,72a.27.27,0,0,1-.12.3.72.72,0,0,1-.5.09c-.2,0-.36-.11-.37-.28a.56.56,0,0,1,.07-.32c.33-.47.57-.45.88,0A.38.38,0,0,1,19.92,72Z"/><path class="cls-1" d="M33.19,67.09a.41.41,0,0,1,.5.36.48.48,0,0,1-.32.55c-.36.1-.66-.12-.61-.47S32.88,67.12,33.19,67.09Z"/><path class="cls-1" d="M15.72,69.69a1.81,1.81,0,0,1-.37.24.31.31,0,0,1-.41-.16.17.17,0,0,1,0-.17.3.3,0,0,1,.41-.17A2.33,2.33,0,0,1,15.72,69.69Z"/><path class="cls-1" d="M22.2,61.42a.32.32,0,0,1-.41-.15.2.2,0,0,1,0-.17.29.29,0,0,1,.41-.17C22.33,61,22.34,61.37,22.2,61.42Z"/><path class="cls-1" d="M37.28,64.65c.14,0,.23,0,.22.17s-.1.11-.15.16-.12-.11-.14-.17S37.25,64.7,37.28,64.65Z"/><path class="cls-1" d="M41.36,76.69c-.07,0-.11-.12-.16-.17a3.19,3.19,0,0,1,.38-.26.29.29,0,0,1,.41.18"/><path class="cls-1" d="M44.17,73.75c-.06,0-.14,0-.15-.09s0-.22.16-.21.1.1.15.15Z"/><path class="cls-1" d="M71,75.75s-.07.13-.13.16c-.31.14-.44.12-.62-.07a.18.18,0,0,1,0-.16.32.32,0,0,1,.41-.17A2.05,2.05,0,0,1,71,75.75Z"/><path class="cls-1" d="M71.36,71.87a.65.65,0,0,1-.17-.16c-.06-.11,0-.26.18-.31s.64.11.6.24a.25.25,0,0,1-.17.16A3.11,3.11,0,0,1,71.36,71.87Z"/><path class="cls-1" d="M36.84,65.31a.72.72,0,0,1-.26,0,1,1,0,0,1-.34-.32.5.5,0,0,1,.29-.62,3.31,3.31,0,0,1,.77,0,.64.64,0,0,1,.34.31.57.57,0,0,1-.29.64Z"/><path class="cls-1" d="M41.93,70a.59.59,0,0,1,.2.07c.65.49.66.56.11,1.11-.2.2-.31.18-.6-.09s-.37-.44-.25-.59l.34-.36Z"/><path class="cls-1" d="M55.2,77.89c0-.25,0-.5,0-.74s.34-.35.6-.27a.63.63,0,0,1,.32.3c.1.22-.08.58-.26.6a6.3,6.3,0,0,1-.75,0Z"/><path class="cls-1" d="M57.17,73c-.06.06-.13.15-.19.15s-.12-.11-.18-.17.14-.16.2-.16S57.11,72.89,57.17,73Z"/><path class="cls-1" d="M39.53,69.23a2.14,2.14,0,0,1-.06.5c-.06.18-.23.23-.4.26s-.34,0-.43-.18-.12-.15-.11-.21a1.84,1.84,0,0,0-.46-1.42c-.15-.18,0-.62.18-.66s.38-.09.5,0a1.33,1.33,0,0,1,.79,1.21A4.51,4.51,0,0,0,39.53,69.23Z"/><path class="cls-1" d="M44.15,68c-.06.36-.17.45-.5.4s-.46-.16-.41-.5.17-.45.5-.4S44.21,67.69,44.15,68Z"/><path class="cls-1" d="M27.05,55.72a.49.49,0,0,1,.27.59.63.63,0,0,1-.32.3.44.44,0,0,1-.57-.28C26.4,56.09,26.81,55.68,27.05,55.72Z"/><path class="cls-1" d="M52.07,63.34c-.17-.11-.23-.23-.16-.34a.29.29,0,0,1,.41-.15.83.83,0,0,1,.37.26C52.74,63.2,52.33,63.37,52.07,63.34Z"/><path class="cls-1" d="M77.47,71.44v-4a.94.94,0,0,0-.3-.61,1.91,1.91,0,0,0-1.8-.83,13,13,0,0,1-1.87,0,1.21,1.21,0,0,1-.59-.16c-.48-.27-1-.5-1.49-.76a4.87,4.87,0,0,0-.81-.43,5.65,5.65,0,0,0-.93-.07c-.6-.09-1.09-.6-1.76-.42a3.27,3.27,0,0,1-.7,0l-1.16,0c-.42.41-1,.32-1.5.51s-.54.21-.76,0a14,14,0,0,0-1.15-1.16c-.43-.37-.53-.94-.89-1.34l-.16-.17a.62.62,0,0,0-.83-.09c-.42.33-.76.79-1.33.89a6.85,6.85,0,0,1-1.56,1,1.62,1.62,0,0,1-1.55-.09,1.76,1.76,0,0,0-.57-.13,2.57,2.57,0,0,0-1.53.4c-.1.05-.29,0-.43-.09a.21.21,0,0,1,0-.16,1.34,1.34,0,0,0,.13-1.51,14.75,14.75,0,0,1-.82-1.64c0-.11-.23-.19-.37-.24a2.32,2.32,0,0,0-.46,0,1.19,1.19,0,0,0-1.05.37,1.29,1.29,0,0,1-.17.16l-1.24,1.21a5.37,5.37,0,0,1-1.09.74A10.53,10.53,0,0,0,47.53,64a8.05,8.05,0,0,1-1,.56c-.13.07-.25,0-.38-.11l-.33-.33-.17-.16a.61.61,0,0,0-.83,0,4.25,4.25,0,0,0-1.09,1.47,1.13,1.13,0,0,1-1.12.7c-.85,0-1.71,0-2.56,0-.19,0-.37-.25-.38-.49a7.12,7.12,0,0,0-.07-1.39c-.13-.55-.65-.86-1-1.25a10.83,10.83,0,0,0-.83-.83c-.52-.47-.6-1.26-1.18-1.69a.41.41,0,0,1-.13-.19c0-.15-1-3.39-1-3.72,0-.53,0-1.07,0-1.6a.55.55,0,0,1,.43-.5c.51-.14.92-.59,1.51-.5.3-.23.61-.46.9-.71s.63-.75.17-1.56a2.68,2.68,0,0,1,.07-2.64.92.92,0,0,0-.1-1.19,1.91,1.91,0,0,1-.27-.52,1.54,1.54,0,0,0-.65-.75c-.7-.41-1.92-1.15-2-1.19a.46.46,0,0,1-.1-.18c0-.23,0-.45,0-.68a.59.59,0,0,1,.13-.18.15.15,0,0,1,.16,0A9.72,9.72,0,0,0,39,46.73a37.08,37.08,0,0,0,4.05.64,11.2,11.2,0,0,0,1.16,0c.26,0,1.27-.23,1.45-.08s.74,1.4,1.12,1.52.78.48,1.29.42a1,1,0,0,1,.42.17,1.36,1.36,0,0,0,.63.26l5.6,0a1,1,0,0,0,.67-.13c.41-.34,1-.44,1.37-.84s.54-1,.91-1.32a4.87,4.87,0,0,0,1-1.55,3.58,3.58,0,0,0,.69-1.92,2.12,2.12,0,0,0,.42-1.52c0-1.71,0-3.43,0-5.14a2.68,2.68,0,0,0-.46-2A1.69,1.69,0,0,0,58.83,34c0-.51-.51-.77-.55-1.26a11.36,11.36,0,0,0-.94-1,10.56,10.56,0,0,0-1-.56A1.93,1.93,0,0,0,55.22,31c-1.87,0-3.74,0-5.61,0a.87.87,0,0,0-.23,0,1.41,1.41,0,0,0-.4.22c-.53.47-1.1.91-1,1.75,0,0-.07.14-.14.18a.18.18,0,0,1-.17,0,2,2,0,0,1-.47-.5c-.23-.47-.11-1.08-.54-1.49,0,0,0-.15,0-.22,0-.39,0-.72.47-.91a4.13,4.13,0,0,0,1.7-1.54A.9.9,0,0,0,49,28a1.71,1.71,0,0,0-.37-1.52,2.56,2.56,0,0,0-1.53-1.62,4.42,4.42,0,0,0-1.51-.51c-.4,0-.78-.63-.79-1s0-.78,0-1.17a.78.78,0,0,0-.13-.43,1.73,1.73,0,0,1-.29-1.1c0-.08,0-.15,0-.23,0-.55-.09-1.14.7-1.22.29-.28.29-.71.57-1s.11-.44.12-.67a3.93,3.93,0,0,1,.06-.69c0-.12.19-.3.3-.3,1,0,2,0,3-.06a1.46,1.46,0,0,0,.67-.14,2.39,2.39,0,0,1,1-.35.89.89,0,0,0,.46-.19,17.14,17.14,0,0,0,1.66-1.64,7.25,7.25,0,0,0,.74-1.41c0-.75,0-1.5,0-2.25a.89.89,0,0,0-.18-.49,2.2,2.2,0,0,0-2-1c-.85.07-1.71,0-2.57,0a1.88,1.88,0,0,0-.67.1,4.12,4.12,0,0,0-1,.51c-.31.25-.75.25-1,.53-.58.65-1.47.85-2,1.51a.43.43,0,0,1-.62,0c-.3-.28-.71-.3-1-.52a1.46,1.46,0,0,0-.89-.26c-.3,0-.6,0-.91,0-2.78,0-1.88-.35-4,1.72a1.29,1.29,0,0,0-.16.17c-.25.3-.22.74-.51,1a.79.79,0,0,0-.15.66,1.06,1.06,0,0,1-.58.94c-.25.17-.57.23-.82.39s-.27.17-.39,0a1.51,1.51,0,0,0-1.1-.28H30.65a1.29,1.29,0,0,0-.86.28,2.92,2.92,0,0,1-.94.67,1.51,1.51,0,0,0-.92,1,10.64,10.64,0,0,1-.72,1.43A1.07,1.07,0,0,0,27.15,20c.35.59.52,1.3,1.14,1.72a1.42,1.42,0,0,0,.82.36h2.8a.91.91,0,0,0,.65-.21,13,13,0,0,1,1-.93c.43-.32,1-.47,1.3-.94.41-.62,1.16-.73,1.72-1.13a.47.47,0,0,1,.69.37c0,1.17,0,2.33,0,3.5a2.78,2.78,0,0,1-.06.92c-.15.39-.69.28-1,.57a1,1,0,0,1-.65.2,1,1,0,0,0-.44.1,10.93,10.93,0,0,0-1.36,1.27,5.14,5.14,0,0,0-.65,1.2.69.69,0,0,0,0,.45,4.25,4.25,0,0,0,.25.39c.26.47.28.48.9.91a3.3,3.3,0,0,1,.51.48.52.52,0,0,1,0,.63c-.43.45-.86.9-1.31,1.34l-.1.07c-.44.22-.89.42-1.33.63a10,10,0,0,0-1.22.62,4.39,4.39,0,0,1-1.08.35,4.44,4.44,0,0,0-1.77,1,5.48,5.48,0,0,1-1.67,1.4,1.23,1.23,0,0,0-.59.51,3,3,0,0,1-.63,1,5.21,5.21,0,0,0-1.44,2.32,1.75,1.75,0,0,0-.42,1.28c0,1.17,0,2.34,0,3.51a1.08,1.08,0,0,1-.58.93,9.78,9.78,0,0,0-1,.52c-.17.14-.45.15-.62.29-.46.41-.9.85-1.33,1.3a.59.59,0,0,0-.16.4c0,1.17,0,2.35,0,3.52a1.61,1.61,0,0,0,.35.84.9.9,0,0,1,.13.43,1.27,1.27,0,0,0,.86,1.24,1.16,1.16,0,0,1,.4.2.48.48,0,0,1,.11.41,3.21,3.21,0,0,1-1.32,1.26l-1.23.6a.53.53,0,0,0-.12.62,1.26,1.26,0,0,0,.91.64,1.33,1.33,0,0,1,.67.15,2,2,0,0,0,1.31.34.92.92,0,0,1,.66.17c.24.21,1.82.18,2.22.43a10.59,10.59,0,0,0,3,.32.54.54,0,0,1,.5.39,23.72,23.72,0,0,1,.5,2.46c0,.22.44,1.84.45,2.45a31.16,31.16,0,0,1,.94,3.5A14.54,14.54,0,0,0,31,69.81c.09.17.13.24,0,.4a.89.89,0,0,0-.25.63,2.86,2.86,0,0,1-.06.93,8.22,8.22,0,0,0-.51,1c0,.1-.23.2-.37.22a2.65,2.65,0,0,1-.69,0c-.56,0-.83.34-1.1.72-.1.13.05.58.19.61s.46,0,.68.09a1,1,0,0,1,.34.22c-.13.07-.26.19-.39.2-1.4,0-2.8,0-4.2,0a1.15,1.15,0,0,1-.59-.32c-.33-.27-.4-.52-.25-.8a7.41,7.41,0,0,0,.74-1.42,10.28,10.28,0,0,0,.11-1.85c0-.23,0-.46,0-.69a1,1,0,0,1,.34-.59l.37-.34a9,9,0,0,1,.81.82c.35.47.94.51,1.36.84.13.11.24.07.39-.05a1.59,1.59,0,0,1,.41-.21c.07,0,.16,0,.23,0,.69-.14.77-.24.75-.89a.51.51,0,0,0-.65-.45,1.27,1.27,0,0,0-.19.13c-.62.35-.75.34-1.21-.1-.16-.16-.31-.34-.48-.51s-.11-.36,0-.57c.26-.44.18-.63-.32-.85-.35-.16-.4-.21-.2-.45A20.47,20.47,0,0,0,27.5,62.4c0-.26,0-1.59,0-1.9a1.12,1.12,0,0,0-1.08-1h-.23a7.61,7.61,0,0,0-1.17,0c-.53.08-.81-.43-1.28-.46a1.5,1.5,0,0,1-.87-.25,1.9,1.9,0,0,0-1.56-.21c-.12,0-.25.19-.3.31-.15.41-1.8,3.91-1.92,4.37s-.91.86-1,1.55c0,.06-.09.13-.14.18-.21.23-.43.45-.65.68-.38.38-.76.78-1.15,1.15a2.59,2.59,0,0,1-.72.57,2.25,2.25,0,0,0-.78.49,2.48,2.48,0,0,1-1,.57,4.59,4.59,0,0,0-.82.43.66.66,0,0,0-.31.49A1.63,1.63,0,0,0,13,70.94a6.54,6.54,0,0,1,.85.81c.55.68,1.45.88,2,1.54.5.2.94.52,1.44.7a7.78,7.78,0,0,1,1.23.6,1.61,1.61,0,0,0,.86.31,5.51,5.51,0,0,1,.7,0,1.24,1.24,0,0,0,1-.4,4.5,4.5,0,0,1,.52-.46.39.39,0,0,1,.21-.06.45.45,0,0,1,.23,0c.21.08.23.19.09.35a1.19,1.19,0,0,0-.24,1.09c.08.36.48.32.7.5a2.14,2.14,0,0,0,1.3.41,2.11,2.11,0,0,0,1.52.41c1.09,0,2.18,0,3.27,0a3.46,3.46,0,0,0,1.52-.46,1.09,1.09,0,0,0,.59-.64.49.49,0,0,1,.76-.17,13.3,13.3,0,0,0,1,1,3.67,3.67,0,0,0,1.18.67c.47.12.79.47,1.25.6a3.26,3.26,0,0,1,1.22.61c.4.34.9.19,1.3.41a1.21,1.21,0,0,0,1.57.09,3.09,3.09,0,0,1,3.27.1c.55.34.76,0,1.06-.12a2.05,2.05,0,0,0,1.41-1.39c.07-.28.32-.51.42-.82s.42-.37.78-.31c.08,0,.19,0,.23,0,.51.56,1.34.31,1.9.77a.68.68,0,0,0,.43.11c.27,0,.54,0,.81,0a1.89,1.89,0,0,1,1,.24,4.58,4.58,0,0,1,1.34.88c.35.42.8.75,1.14,1.17s1,.53,1.45,1a1.45,1.45,0,0,0,.4.34,4.32,4.32,0,0,0,1.86.1c.07,0,.14-.07.19-.12.51-.47,1.09-.89,1.07-1.71,0-.2.2-.4.3-.61a4.86,4.86,0,0,0,.62-2.18,1.13,1.13,0,0,1,.9-.94c.85,0,1.72,0,2.56-.08a3.06,3.06,0,0,1,1.73.54,1.72,1.72,0,0,1,.53.36,1.59,1.59,0,0,0,1.26.58l2.27,1.09a1.38,1.38,0,0,0,.63.27c1.4,0,2.79,0,4.19,0a.45.45,0,0,0,.33-.28,4.52,4.52,0,0,0,.05-1.16c-.06-.47.25-.77.39-1.15a1,1,0,0,0,.06-.39c0-.54,0-1.08,0-1.61,0-.33.15-.44.39-.32a3.13,3.13,0,0,1,1.5,1,1.67,1.67,0,0,0,.33.32c.33.3.57.24.89-.25a1.32,1.32,0,0,0,.15-.42c0-.15,0-.33,0-.46a6.2,6.2,0,0,0,.39-.83A6.43,6.43,0,0,0,77.47,71.44ZM35.89,18.14a.84.84,0,0,1-.4.2,1.47,1.47,0,0,0-1.23.52,1.51,1.51,0,0,1-1.24.47.46.46,0,0,0-.32.27c-.09.21-.07.49-.32.57a1.23,1.23,0,0,1-1.28-.23c-.13-.1-.25,0-.32.16s0,.15-.06.22c-.14.31-.29.41-.5.32a.71.71,0,0,1-.34-.24c-.09-.21-.12-.47-.35-.55a.76.76,0,0,0-.64.16c-.26.16-.44.09-.45-.14s0-.31,0-.46h0a3.53,3.53,0,0,1,0-.46.84.84,0,0,1,.13-.43c.41-.45.85-.89,1.28-1.33.63-.21,1.14-.78,1.89-.68.31,0,.62,0,.93,0a1.35,1.35,0,0,1,.41.18,1.75,1.75,0,0,0,1.94,0,1.18,1.18,0,0,1,.87-.18.39.39,0,0,1,.37.23A1,1,0,0,1,35.89,18.14ZM23,65.6l.05,0-.67-.64a1.1,1.1,0,0,0-.85-.27,1.44,1.44,0,0,0-1.43.59c-.11.11-.21.23-.31.35a.64.64,0,0,0-.13.19,2.72,2.72,0,0,0-.09,1.14.85.85,0,0,0,.3.59c.1.12.22.22.33.34a1.38,1.38,0,0,0,1.21.54c.31,0,.62,0,.93,0s.58.41.42.64c-.37.5-.54,1.09-.87,1.61-.09.12-.09.32-.2.4-.57.45-.67,1.21-1.17,1.7-.17.16-.34.32-.49.49s-.25.18-.38.12c-.6-.32-1.24-.58-1.84-.9a2.77,2.77,0,0,0-.83-.4.29.29,0,0,1-.18-.13c-.48-.65-1.36-.72-1.86-1.34a1.67,1.67,0,0,0-.79-.44c-.17-.06-.19-.21-.19-.39s0-.34.19-.38c.79-.16,1.19-1,2-1.16.27-.08.47-.39.69-.61.71-.71,1.42-1.43,2.12-2.15.17-.17.4-.33.45-.53.16-.64.71-1,1-1.51.12-.19.16-.43.26-.63a1.44,1.44,0,0,0,.25-.63c0-.23,0-.48.16-.66s.28-.71.51-1,.47-.4.9-.18.67,0,.89.17a2.73,2.73,0,0,0,1.75.43c.94,0,1,.14.94,1.14a1.66,1.66,0,0,1-.18.65c-.56,1.17-1.22,2.28-1.71,3.48-.11.26-.27.27-.49.07Zm-.79,1.07c.07.11-.4.7-.53.65-.32-.12-.64-.28-1-.43s-.16-.18,0-.36a3.08,3.08,0,0,0,.28-.61,1.88,1.88,0,0,1,.12-.18c.08-.14.52-.17.6,0C21.88,66,22.06,66.34,22.23,66.67Zm23.7,1.27a1.59,1.59,0,0,0,.21-1.1c0-.66.39-1,.85-1.25a1.71,1.71,0,0,0,1.57-.8c.52-.58,1.32-.74,1.84-1.35a15.74,15.74,0,0,1,1.67-1.59c.07-.06.29,0,.43.06a12.25,12.25,0,0,1,.68,1.41c.08.35,0,.76-.27.79-.75.08-1,1-1.76,1-.34.31-.69.6-1,.93s-.74.78-1.09,1.19c-.09.1-.06.31-.14.42a1.26,1.26,0,0,1-1.12.69c-.23,0-.46,0-.31,0h-1.3A.27.27,0,0,1,45.93,67.94ZM39,66.6a1.65,1.65,0,0,0,1.27.4c.57.55,1.29.42,2,.42a1.2,1.2,0,0,0,.64-.19c.46-.26.94-.48,1.41-.71.18-.1.45.14.46.37a.58.58,0,0,1-.1.43,1.44,1.44,0,0,0-.32.85,1.06,1.06,0,0,1-.21.63c-.41.42-.09,1.07-.54,1.48a2,2,0,0,0-.74,1.14c0,.06-.1.12-.17.15a.39.39,0,0,1-.21.06H40.59a1.8,1.8,0,0,1-1.08-.32c-.31-.21-.69-.3-1-.51s-.72-.27-.75-.75c-.46-.51-.52-1.28-1.13-1.7-.21-.16-.12-.33.06-.54s.69-.34,1-.57.58-.51.89-.72A.47.47,0,0,1,39,66.6ZM36.06,52.52a1.93,1.93,0,0,1-.35.29c-.05,0-.14,0-.15-.07a1.08,1.08,0,0,1-.07-.43c0-.2.24-.29.54-.26.07,0,.18.09.18.12A1,1,0,0,1,36.06,52.52Zm13.18-20c.37-.06.76-.08,1.14-.11.23,0,.52,0,.68-.09A2.3,2.3,0,0,1,52.61,32h1.63a.37.37,0,0,1,.2.11,2.09,2.09,0,0,0,1.09.34.88.88,0,0,1,.38.22c.05,0,.06.14.07.21.14.56.72.8.93,1.31.09.21.18.43.29.63.3.53.14,1.24.64,1.69,0,.31,0,.63,0,.94,0,.77,0,1.55,0,2.33S58,41.3,57.49,42c-.08.1-.05.29-.06.44,0,.47-.08.93-.11,1.39-.41.57-.59,1.25-.93,1.83a5.82,5.82,0,0,1-1.61,1.67.37.37,0,0,1-.23,0,2.48,2.48,0,0,0-1.29.4.45.45,0,0,1-.23,0c-.07,0-.17-.06-.19-.12s-.13-.32-.07-.41a3.33,3.33,0,0,1,.58-.71,6.53,6.53,0,0,0,1.76-2.66c.09-.28.42-.47.36-.82a.38.38,0,0,0-.1-.2.2.2,0,0,0-.17,0,2.26,2.26,0,0,0-1,1,6.5,6.5,0,0,1-1.76,2.1s-1.19,1.22-1.69,1.69a1.1,1.1,0,0,1-1.07.16.36.36,0,0,1-.18-.14s0-.12.06-.16.31-.41.5-.46a3.07,3.07,0,0,0,1.3-.88c.18-.16,1-1,1.05-1.06.25-.29.47-.61.71-.92-.11-.72.55-1.24.51-2-.07-1.32,0-2.64,0-4a1.78,1.78,0,0,0-.31-.85c-.25-.47-.1-1.09-.57-1.48,0-.49-.44-.79-.57-1.24a1.24,1.24,0,0,0-.78-.8c-.56-.23-1.07-.66-1.74-.5a.81.81,0,0,1-.45-.09.36.36,0,0,1-.19-.38C49,32.69,49.06,32.52,49.24,32.49ZM37.32,14.05c.4-.47.43-1.17,1-1.54a.94.94,0,0,1,.4-.2c.78,0,1.55-.05,2.32-.07l1.88.08a.47.47,0,0,1,.44.44c0,.23,0,.46.09.69s.5.3.6.21l.87-.78c.17-.16.32-.4.52-.46.57-.14.89-.59,1.33-.9.25-.17.55-.25.81-.41a6.75,6.75,0,0,0,1.23-.62c.47,0,.93,0,1.39-.07a2.56,2.56,0,0,1,1.52.45c.21.11.45.18.49.41a1,1,0,0,1-.12.89c-.2.24-.4.47-.62.7-.4.42-.46.43-1.2.07-.14-.07-.27,0-.31.18s0,.46,0,.7-.31.35-.52.36a1.43,1.43,0,0,1-.88-.22c-.25-.16-.42-.08-.45.18s0,.31,0,.46a.54.54,0,0,1-.64.46.8.8,0,0,1-.19-.13,1.12,1.12,0,0,0-1.49,0,.68.68,0,0,1-1-.08.5.5,0,0,0-.64-.05,10.42,10.42,0,0,0-.87.77c-.21.19-.2.3,0,.55s.31.35.47.52.1.31-.11.33c-.41.06-.66.39-1,.52l-.42.16c.05.13.11.26.16.38s.17.28.16.42c0,.68.2,1.4-.35,2a.19.19,0,0,0,0,.18c.15.18.32.34.48.51.3.34.3.34-.06.72-.15.17-.31.34-.46.52s.06.12.1.19.23.31.2.34a6.85,6.85,0,0,1-.66.66s-.14,0-.22,0c-.93,0-1.87,0-2.8,0-.12,0-.25-.14-.36-.23a1.1,1.1,0,0,1,.11-.2,1,1,0,0,0,.12-.19.25.25,0,0,0,0-.19c-.43-1.44-.43-1.44.83-2.09.06,0,.1-.11.14-.16s-.11-.13-.17-.15l-.89-.19A.28.28,0,0,1,38.3,20a1.11,1.11,0,0,1,.05-.44c.06-.15.19-.1.36,0s.29.17.72-.26c.15-.16.14-.24,0-.39s-.55-.55-.82-.83l-.49-.5a1.27,1.27,0,0,1-.37-.83,1.42,1.42,0,0,0-.2-.64C37.13,15.44,37.35,14.73,37.32,14.05ZM34.51,27.4a1.19,1.19,0,0,1,.39-1.25,1.33,1.33,0,0,1,.59-.34c.37-.06.6-.47,1-.44.16,0,.36,0,.46,0a2.28,2.28,0,0,1,1.52-.41c1,0,2,0,3,0a1.72,1.72,0,0,1,1.08.32,1.34,1.34,0,0,0,.9.13,1.33,1.33,0,0,1,.86.26.66.66,0,0,0,.41.18c.6-.08,1,.4,1.49.54a.64.64,0,0,1,.41.51c.12.35.52.59.39,1,0,.05-.11.17-.13.17-.69-.32-1.39-.6-2-1a2.2,2.2,0,0,0-1.08-.3,1.3,1.3,0,0,1-.67-.12,2.22,2.22,0,0,0-1.32-.34l-3.72,0a1.73,1.73,0,0,0-1.12.15c-.43.33-1,.37-1.37.83a2,2,0,0,1-.54.41C34.94,27.78,34.55,27.58,34.51,27.4ZM24.65,40a1.63,1.63,0,0,1,.64-1.42c.35-.32.37-.83.72-1.17,1-.91,1.87-1.86,2.81-2.79.39-.39,1-.45,1.4-.77a1.68,1.68,0,0,0,1.28-.44c.56-.06.93-.5,1.46-.66a7.33,7.33,0,0,0,1.21-.63c.33-.19.72-.26,1-.59a7.11,7.11,0,0,0,.74-1.42c0-.13,0-.31,0-.46a1.09,1.09,0,0,1,.92-.91,1.86,1.86,0,0,0,1-.4c.27-.23.6-.09.9-.14s.43-.51.79-.25c.18.14.34.32.51.47a.9.9,0,0,0,.18.16.53.53,0,0,0,.63,0,1,1,0,0,1,.6-.29c.17,0,.34,0,.38.21.13.5.07,1.07.58,1.44.17.12.24.16.38,0s.35-.36.6-.26A2.15,2.15,0,0,1,44,30c.41.35.31,1.05.88,1.3.16.07.26.05.33-.15s0-.16,0-.23a2.52,2.52,0,0,1,.24-.33.52.52,0,0,1,.16.17c.09.21.15.43.25.63.23.48.3.48.25.86a1.67,1.67,0,0,0,.75,1.6A3.32,3.32,0,0,0,49,34.7c.39,0,.78,0,1.17,0a1,1,0,0,1,1,.56,3.87,3.87,0,0,1,.72,1.66.9.9,0,0,0,.13.43,1.73,1.73,0,0,1,.32.85c0,.78,0,1.56,0,2.33a1.61,1.61,0,0,1-.32.85,1.69,1.69,0,0,0-.15.43,1.73,1.73,0,0,1-.16.66c-.37.49-.68,1-1,1.53a8.13,8.13,0,0,1-1.32,1.3.17.17,0,0,1-.18,0,.3.3,0,0,1-.11-.41,15.86,15.86,0,0,1,.73-1.42,1.54,1.54,0,0,0,.13-.89c0-.18-.12-.29-.25-.27a.47.47,0,0,0-.2.12,4.45,4.45,0,0,0-.9,1.58,2.83,2.83,0,0,1-.54.73c-.15.17-.26.18-.34,0a.83.83,0,0,1,0-.22c0-.34.31-.52.39-.81s-.12-.53-.3-.56-.47,0-.7-.06a.44.44,0,0,1-.32-.52c.11-.27.26-.54.37-.81s-.09-.43-.36-.48-.36,0-.39.17c-.1.54-.6.9-.66,1.45-.42.55-.59,1.26-1.14,1.73a.9.9,0,0,0-.21.4c-.17.5-.58.42-1,.4A.43.43,0,0,1,43,44.8a1.93,1.93,0,0,0,.44-1.29,2.44,2.44,0,0,0,.42-2c0-.06-.09-.13-.15-.17s-.14,0-.15,0c-.21.41-.42.81-.6,1.23a5.55,5.55,0,0,1-.73,1.41,11.67,11.67,0,0,1-1.32,1.31.55.55,0,0,1-.63,0,2.53,2.53,0,0,1-.49-.49.47.47,0,0,1-.08-.42,12.79,12.79,0,0,1,.78-1.4,1.4,1.4,0,0,0,.1-.9.35.35,0,0,0-.12-.19c-.1-.07-.24,0-.36.11a1.61,1.61,0,0,0-.4.56,1.87,1.87,0,0,1-.66.92.57.57,0,0,1-.64,0c-.38-.29-.36-.3-.21-1.09a5.54,5.54,0,0,0,.05-1.15A.5.5,0,0,0,38,40.9a7.26,7.26,0,0,0-2.08-.07.8.8,0,0,0-.4.2c-.36.3-.67.21-1,0s-.66-.23-1.15.32c-.15.18-.14.28.09.33.51.12,1.1.05,1.4.64,0,.05.07.16.05.18-.22.22-.45.42-.67.63-.7,0-1.4,0-2.1,0-.09,0-.17.17-.24.27a.43.43,0,0,0,.17.15,3,3,0,0,1,.63.25,2.15,2.15,0,0,0,1.1.26c.18,0,.31.35.27.57s-.33.41-.52.3A3.11,3.11,0,0,0,32,44.56c-.93,0-1.87,0-2.8,0-.23,0-.47,0-.7,0-.46,0-.75-.53-1.28-.44a6.52,6.52,0,0,1-1.17,0H24.61c-.17,0-.38-.28-.38-.51v-1.4h0a5.3,5.3,0,0,0,0-.69A2.23,2.23,0,0,1,24.65,40Zm3.27,16.75a.47.47,0,0,1-.46.42c-.77,0-1.54,0-2.31,0a1.72,1.72,0,0,1-1.08-.32c-.27-.2-.6-.1-.9-.13s-.48,0-.66-.14c-.37-.36-.86-.27-1.29-.38A.32.32,0,0,1,21,56s0-.13.09-.18.31-.4.5-.45a4.06,4.06,0,0,0,1.59-1.35,4.75,4.75,0,0,1,.39-.82,1.67,1.67,0,0,0,.15-.66.58.58,0,0,1,.36-.53c.2-.1.42-.18.62-.29s.34-.11.42.27a3.42,3.42,0,0,0,0,.46,1.18,1.18,0,0,0,1.15.93,4.08,4.08,0,0,0,.7,0,1.4,1.4,0,0,0,.38-.2A2.14,2.14,0,0,0,27.3,53l-.65-.66a.43.43,0,0,1-.07-.43.48.48,0,0,1,.52-.34,1,1,0,0,1,.66.11.61.61,0,0,1,.16.16.58.58,0,0,1,0,.23Zm.29-6.11c-.94,0-1.87,0-2.8,0a8.11,8.11,0,0,0-1.85.11,6.22,6.22,0,0,0-1.42.74,1.25,1.25,0,0,1-.89.08.3.3,0,0,1-.18-.15.21.21,0,0,1,.05-.18c.26-.28.53-.57.81-.83a.62.62,0,0,1,.4-.19,2.57,2.57,0,0,0,1.29-.45c.26-.14.62,0,.89-.18a.15.15,0,0,0,0-.15.85.85,0,0,0-1.12-.5c-.21.09-.41.29-.62.28a1.92,1.92,0,0,0-1.4.71c-.14.15-.28.18-.35.06a.94.94,0,0,1-.13-.42c0-.23,0-.55.21-.62.58-.18,1-.74,1.69-.65a2.92,2.92,0,0,1,1.51-.47.21.21,0,0,0,.21-.27.28.28,0,0,0-.17-.15c-.38,0-.77,0-1.15,0a2.75,2.75,0,0,0-1.74.47A.39.39,0,0,1,21,47.5c0-.15,0-.37.1-.42.66-.39,1.33-.74,2-1.08a1.12,1.12,0,0,1,.45-.07,2,2,0,0,0,1.32-.34.32.32,0,0,1,.2-.1h3a.47.47,0,0,1,.2.12,1.52,1.52,0,0,0,.86.28c1,0,2,.05,3,.05a1.65,1.65,0,0,1,1.08.31c.27.2.6.11.9.15s.47,0,.66.15a1.88,1.88,0,0,0,1.09.32,1.17,1.17,0,0,1,.85.71s-.08.13-.14.15a2.27,2.27,0,0,1-1.76-.2,1.74,1.74,0,0,0-1.93.21.74.74,0,0,0-.12.37s.11.11.18.11c.61.05,1.26-.06,1.76.42l1.62.11a1.07,1.07,0,0,1,.59.34,1.13,1.13,0,0,1,.32,1.06.44.44,0,0,1-.66.39,2.11,2.11,0,0,0-1.3-.42c-.85,0-1.71,0-2.56,0v0l-2.8.08a.77.77,0,0,0-.43.11A1.94,1.94,0,0,1,28.21,50.6ZM30,58.83a.42.42,0,0,1-.1-.2c0-.38,0-.77,0-1.16,0-.23,0-.46,0-.69a1.62,1.62,0,0,0-.12-.43c-.09-.21-.27-.41-.27-.62,0-1.24,0-2.48,0-3.71a.47.47,0,0,1,.44-.44l2.08-.08v0c.62,0,1.24,0,1.86,0,.09,0,.23.21.25.35a3.18,3.18,0,0,1,0,.69,2.23,2.23,0,0,0-.41,1.75c0,.54,0,1.08,0,1.62A2.66,2.66,0,0,0,34,57.51c.06.09,0,.28-.08.42a.2.2,0,0,1-.16,0l-1.22-.63c-.13-.08-.25,0-.4.08s-.73.2-1,.52-.54.55-.81.82S30,58.93,30,58.83Zm3-.09c-.34.48-.28,1.19-.91,1.5l-.19.08c-.06,0-.13-.08-.18-.13a2.66,2.66,0,0,1-.45-.51.53.53,0,0,1,0-.44,1.18,1.18,0,0,1,1.52-.64C32.89,58.63,33,58.73,33,58.74Zm-1.77,6.78a1.83,1.83,0,0,0,0-.47c-.08-.37-.44-.62-.42-1a4.85,4.85,0,0,0-.06-.93c0-.14-.15-.26-.23-.4a2,2,0,0,1-.11-1.56s.09-.1.14-.15a4.5,4.5,0,0,0,.41.25,4,4,0,0,0,1.82.13.32.32,0,0,0,.2-.1c.45-.41,1-.73,1.13-1.41a.39.39,0,0,1,.12-.19c.1-.07.25,0,.27.19s.32.53.41.81a10.91,10.91,0,0,0,.5,1,2.49,2.49,0,0,0,.45.79l.81.83.67.65c.27.28.54.56.8.85,0,0,0,.14,0,.18a5.23,5.23,0,0,1-1.72,1.52,8.17,8.17,0,0,0-1.22.61,12.3,12.3,0,0,0-1.2,1.09l-.51.48a.88.88,0,0,1-.88.13.45.45,0,0,1-.36-.51C32.3,67.68,31.17,66,31.22,65.52Zm5.3,9.33a.57.57,0,0,1-.57-.23.52.52,0,0,1,.42-.62.34.34,0,0,1,.44.34A.45.45,0,0,1,36.52,74.85Zm8.59-1.44a13.38,13.38,0,0,1-1.68,2.72,1.15,1.15,0,0,1-.44.78.89.89,0,0,1-.59.32H40.77c-.23,0-.46,0-.69,0a2.81,2.81,0,0,1-1.76-.41c-.23-.16-.63,0-.86-.23a.48.48,0,0,1-.14-.39,1.41,1.41,0,0,1,.37-.55,1.69,1.69,0,0,0,.55-1.45,1.1,1.1,0,0,0-.51-1,8.68,8.68,0,0,0-1-.51c-.13-.06-.25,0-.4.1s-.45.14-.63.27a1.31,1.31,0,0,0-.7,1.12,5.58,5.58,0,0,1,0,.7c0,.29-.45.53-.66.38a5.85,5.85,0,0,0-1.51-1c-.27-.09-.47-.39-.7-.6s-.27-.29-.06-.76a3.38,3.38,0,0,0,.12-1.13.62.62,0,0,1,.53-.64,1.32,1.32,0,0,0,.57-.35c.62-.59,1.21-1.2,1.82-1.8.12-.12.25-.09.37.07l.43.55c-.12.81.45,1.27.93,1.77a13,13,0,0,0,1,1,1.9,1.9,0,0,0,.63.23c.15,0,.35,0,.45.07a2.07,2.07,0,0,0,1.52.4c1.17,0,2.33,0,3.49,0A1.89,1.89,0,0,0,45,72.7s.12,0,.15.08a.46.46,0,0,1,.09.2A.49.49,0,0,1,45.11,73.41Zm4.39,1.93c-.53,0-1.09.13-1.56-.27a.75.75,0,0,0-.42-.14c-.31,0-.62,0-.93-.05s-.32-.19-.15-.45a11,11,0,0,1,.5-1,4,4,0,0,0,.52-1,2.53,2.53,0,0,0,.1-.67c0-.22-.2-.52-.36-.52H45.8c-.34,0-.54.28-.82.39a.68.68,0,0,1-.44,0c-.17-.06-.13-.17,0-.35s.23-.57.4-.82a1.13,1.13,0,0,1,.92-.61h1.86v0l1.86,0c.66.4,1.35.71,2,1.06.11.06.07.21-.07.35s-.11.12-.17.17c-.4.34-.49.35-1,0-.06,0-.17-.14-.18-.12-.35.3-.7.61-1,.93,0,0-.12.13-.12.19a4,4,0,0,0,.1,1.83,4,4,0,0,0,.6.71.54.54,0,0,1,.12.18C49.72,75.2,49.61,75.34,49.5,75.34Zm1.08-1.42a1,1,0,0,1-.32,0,4.69,4.69,0,0,1-.47-.35c-.25-.23-.24-.28-.1-.56.07-.13.15-.27.21-.41.29-.58.58-.64,1-.21s.31.3.09.75c-.1.2-.17.42-.27.62A.31.31,0,0,1,50.58,73.92Zm7.22-1.15a1.94,1.94,0,0,0-.43,1.29c0,.54,0,1.09,0,1.63A1.76,1.76,0,0,1,57,77a4.9,4.9,0,0,1-.68,1.93.52.52,0,0,1-.62.11c-.28-.23-.61-.43-.67-.84a.83.83,0,0,1-.54-.33,6.06,6.06,0,0,0-2.26-1.55c-.42-.19-.82-.41-1.22-.63a.48.48,0,0,1,0-.61,1,1,0,0,1,.18-.13,1.43,1.43,0,0,0,1.1-1.08,1.48,1.48,0,0,1,.23-.4,1.23,1.23,0,0,0-.08-1.5.23.23,0,0,1,0-.18.35.35,0,0,1,.42-.13c.36.1.61.48,1,.45a1.7,1.7,0,0,1,.86.29,1.91,1.91,0,0,0,1.77-.08,1.38,1.38,0,0,1,.88-.19C57.65,72.15,58,72.55,57.8,72.77ZM58.41,71a.69.69,0,0,0-1-.1,1,1,0,0,1-.63.24,12.82,12.82,0,0,0-1.39,0,3.41,3.41,0,0,1-1.74-.49c-.45-.19-.68-.67-1.11-.81s-.79-.46-1.22-.62a9.2,9.2,0,0,1-1.22-.6c-.16-.08-.19-.48-.07-.62s.09-.13.14-.18l2-2a1.12,1.12,0,0,1,.81-.37c.62,0,1.06-.6,1.75-.48a8.85,8.85,0,0,0,1.63,0h0c.38,0,.77,0,1.16,0s.8.1,1.12-.15,1-.39,1.37-.82a7,7,0,0,1,.86-.78s.14,0,.18.06.4.3.48.5a2.51,2.51,0,0,0,.6,1c.27.27.51.57.77.86.13.65.69,1,1,1.52,0,.48.65.76.46,1.25a2.89,2.89,0,0,1-.74.87,4.31,4.31,0,0,1-1.84.83,11.16,11.16,0,0,1-1.16,0,1.41,1.41,0,0,0-1.21.55,1.24,1.24,0,0,1-.36.29A.52.52,0,0,1,58.41,71Zm6.8,1.43c.21-.22.44-.41.65-.62s.22-.13.37,0c.49.5.5.5.16.87l-.47.48c-.32.31-.38.31-.7,0S64.91,72.75,65.21,72.44Zm7-.09a2.22,2.22,0,0,0-.32,1.32l0,2.09a1.16,1.16,0,0,1-1.09,1,2,2,0,0,1-1.52-.39,3.86,3.86,0,0,1-1.92-.67,3.48,3.48,0,0,0-1.08-.34,1.16,1.16,0,0,1-.73-.53c0-.06-.13-.14-.12-.19a.31.31,0,0,1,.19-.13c1.14-.27,1.15-.27,1.77-.92a.8.8,0,0,0,.3-.6c0-.47,0-.93,0-1.4,0-.18-.27-.39-.48-.4l-.93,0v0c-.32,0-.63,0-.94,0a1.37,1.37,0,0,0-.88,1c0,.54,0,1.08-.09,1.61,0,.18-.2.2-.38.19-.33,0-.52-.38-.81-.4-.7,0-1.4,0-2.1,0a.37.37,0,0,0-.2.11,2,2,0,0,1-1.54.31.49.49,0,0,1-.45-.44,1.21,1.21,0,0,1,.29-1.07c.34-.32.66-.65,1-1a1.09,1.09,0,0,1,.84-.32,3.53,3.53,0,0,0,.46,0c.62,0,1.28.17,1.83-.12a9.32,9.32,0,0,0,1.25-1,10.63,10.63,0,0,1,1-.57.5.5,0,0,1,.63,0,10.2,10.2,0,0,0,2.14,1.3,3.62,3.62,0,0,0,2.45.33,1.12,1.12,0,0,0,.4-.24,1.23,1.23,0,0,1,.9-.11c.12,0,.32.17.33.27A2.23,2.23,0,0,1,72.21,72.35Zm3.53-.14c-.25.23-.29.25-.75,0-.13-.06-.29-.08-.43-.15s-.39-.22-.37-.51a5.1,5.1,0,0,0,0-1.17,1.6,1.6,0,0,1,.72-1.6c.17-.13.15-.27,0-.36a.65.65,0,0,0-.21-.06c-.07,0-.18,0-.22,0a1.69,1.69,0,0,1-1.25.49c-.38,0-.63.42-1,.43a.93.93,0,0,1-.84-.28,1.55,1.55,0,0,1-.37-.57,2.12,2.12,0,0,0-.81-1.09,1.18,1.18,0,0,0-1.83.09c-.16.14-.18.29,0,.35.36.13.69.33,1,.46a.94.94,0,0,1,.73.77,1.47,1.47,0,0,0,.24.39.2.2,0,0,1-.17.32,1.94,1.94,0,0,1-1.75-.36,7.4,7.4,0,0,1-1-.49c-.38-.13-.65-.43-1-.52s-.46-.31-.6-.61a4.66,4.66,0,0,0-.71-.91,1.07,1.07,0,0,1-.21-.64c0-.37.18-.64.49-.65l2.1-.07v0c.39,0,.78,0,1.17,0a3.09,3.09,0,0,1,2,.5c.14.07.26.15.39.23a7.48,7.48,0,0,1,1.22.65,9.28,9.28,0,0,0,1.39,0c.81-.08,1.44.54,2.22.51.13,0,.33.47.23.6a3,3,0,0,0-.27,2.44c0,.21.24.4.28.62A1.11,1.11,0,0,1,75.74,72.21Z"/></g></svg>