<svg xmlns="http://www.w3.org/2000/svg" viewBox="0 0 90 90"><defs><style>.cls-1{fill:#171717;}</style></defs><g id="Layer_10" data-name="Layer 10"><path class="cls-1" d="M30,72.5A7.59,7.59,0,0,0,33,74c.13,0,.31,0,.41.08s.32.3.3.4a.64.64,0,0,1-.41.36,1.44,1.44,0,0,1-.67-.16,45.17,45.17,0,0,1-4.32-2.07,2.74,2.74,0,0,0-1.78-.32,12.82,12.82,0,0,0-1.84.42c1.26.47,2.36.9,3.48,1.28.26.09.5.14.36.44a.63.63,0,0,1-.51.27c-1.07-.35-2.12-.74-3.18-1.13-.17-.06-.43-.12-.49-.25-.47-1.06-1.4-.76-2.21-.78a8.85,8.85,0,0,0-2.21.17l2.5,1.3a1.54,1.54,0,0,1,.56.41c0,.06-.07.37-.17.41a.76.76,0,0,1-.55-.06c-.94-.45-1.88-.89-2.79-1.4-.34-.18-.55-.66-.89-.76s-.72.13-1.09.21a5.53,5.53,0,0,1-.58.09c.54.46,1,.85,1.47,1.26,0,0,0,.2,0,.27a.36.36,0,0,1-.25.1.42.42,0,0,1-.26-.08A10.44,10.44,0,0,1,15,72.29a1.94,1.94,0,0,1-.48-1.14,69,69,0,0,0-.33-7.2c-.32-2.41-.13-4.81-.22-7.21a13,13,0,0,1,.25-3.28c.22-1,.06-2.08.24-3.14a10,10,0,0,0-.11-3.57,16,16,0,0,1-.06-3.91c.07-.91.89-1.41,2.13-1.45,1,0,1.94,0,2.92,0,0-.12,0-.22,0-.25a5.76,5.76,0,0,1-1.88-5,7,7,0,0,1,.41-1.93,10.17,10.17,0,0,1,2.24-3.45,5.56,5.56,0,0,1,3.72-1.55,7.79,7.79,0,0,1,4.26.95,6.29,6.29,0,0,1,2.61,2.6,13.86,13.86,0,0,1,1,2.47,5.3,5.3,0,0,1-1.39,5.37l-.43.5h4.41c0-1.3,0-2.59,0-3.88a3.64,3.64,0,0,1,.23-1.84,1.33,1.33,0,0,0,0-1,5.56,5.56,0,0,1,0-3.08,16.22,16.22,0,0,0,0-3c1.49-.75,3.06,0,4.6-.25-.48-.55-.95-1-1.37-1.56a2.89,2.89,0,0,1-.59-1.86c0-1.21-.07-2.43,0-3.64a6.54,6.54,0,0,1,1.92-4q.45-.48.93-.93a6,6,0,0,1,6.11-1.66c.59.18,1.21.25,1.78.46a8.32,8.32,0,0,1,4.7,4.73,3.14,3.14,0,0,1,.21,1.67,8.79,8.79,0,0,1-3.48,6.54h1.77c.39,0,.78,0,1.17,0,1.05.08,1.42.48,1.44,1.53v1.16c.1,6,.19,12.08.32,18.12,0,1,.23,2,.35,3a7.78,7.78,0,0,0,3.67-.36l-.39-.44a4.79,4.79,0,0,1-1.36-3.64,9.89,9.89,0,0,1,.62-3.77c.9-1.86,2.19-3.2,4.39-3.38.46,0,.92-.25,1.38-.26,2.29,0,4.37.49,5.81,2.44a5.79,5.79,0,0,1,.85,1.77,15.2,15.2,0,0,1,.62,2.89,4.71,4.71,0,0,1-1.85,4.46l2.81.35c.56.07.78.25.81.79.1,2.06.25,4.12.28,6.18,0,3.2,0,6.4,0,9.6a7.31,7.31,0,0,1-.23,2.71c-.12.3.09.73.13,1.1,0,.17,0,.45,0,.49s-.51.21-.38.48.44.1.63.21.74.42.71.55c-.12.52-.65.33-.94.25a7.3,7.3,0,0,1-2.5-.89,3.3,3.3,0,0,0-2.86-.33c.46.17.94.31,1.39.52.22.1.57.35.55.49,0,.41-.48.28-.7.22a7.94,7.94,0,0,1-2.5-.91,5,5,0,0,0-4-.64c.79.34,1.58.67,2.37,1a.39.39,0,0,1,.16.33.43.43,0,0,1-.31.2,2.11,2.11,0,0,1-.87,0A17.08,17.08,0,0,1,60,72.61a1.83,1.83,0,0,0-1.73-.27l-1,.31,3.21,1.5c-.35.54-.84.5-1.41.23l-3.9-1.79-1,.73,2,.88c-.53.16-.85.36-1.12.31a5.67,5.67,0,0,1-1.87-.58,5.61,5.61,0,0,0-3.79-.38l.62.18a5,5,0,0,1,.8.27,1.72,1.72,0,0,1,.48.49s-.11.21-.19.31-.11,0-.14,0c-1.06-.64-2.39-.47-3.42-1.24-.53-.39-1.23-.24-2.32.26.18.08.42.12.5.24s.85.09.57.61c-.08.15-.63.17-.92.09a5.7,5.7,0,0,1-1.55-.64c-.88-.58-1.9-.4-2.86-.7.28.39.93.49.75,1.14l0,0a4.76,4.76,0,0,1-2.26-.67,3.15,3.15,0,0,0-2.32-.4c0,.06,0,.16.06.17.34.09.85,0,.72.6-.06.29-.57.47-1,.27a24.52,24.52,0,0,1-2.83-1.6,1.89,1.89,0,0,0-1.17-.39H30a1.55,1.55,0,0,0-.23-.27c-.05,0-.17,0-.25.06s.13.15.22.18A.61.61,0,0,0,30,72.5ZM68.69,46.32a.81.81,0,0,0,0,.27.66.66,0,0,0,.18.23c0-.08.09-.19.06-.24a1.25,1.25,0,0,0-.27-.24,6.82,6.82,0,0,0,0-1,4.66,4.66,0,0,0-.48-1.89,5.74,5.74,0,0,0-2.68-2.08,8.45,8.45,0,0,0-4.26-.16,4.21,4.21,0,0,0-3.35,2.74c-.53,1.36-.23,2.75-.28,4.14,0,.68.63,1,.86,1.59a2.46,2.46,0,0,0,.31.48,1.9,1.9,0,0,0,2.78.75.9.9,0,0,1,1.05,0,.59.59,0,0,0,.5,0,1.45,1.45,0,0,0,.58-.63c.11-.4.36-.47.63-.35s.24.37.24.58a3,3,0,0,1-.15.76c1.41.07,1.6,0,1.82-1.18,0-.24-.14-.51-.16-.77a2.1,2.1,0,0,1,.12-.54,2.15,2.15,0,0,1,.51.15c.57.33.45,1,.59,1.57.21-.19.34-.33.49-.46a1.34,1.34,0,0,0,.4-1.77c-.27-.62-.3-1.36-.62-2a.29.29,0,0,1,.44-.37A8.12,8.12,0,0,1,68.69,46.32ZM30.58,36.43l.1.22.1-.12-.22-.08a2.73,2.73,0,0,0-.28-1.66A6.25,6.25,0,0,0,26,30.57a16.13,16.13,0,0,0-2.84-.26,2.92,2.92,0,0,0-2.6,1.25c-.88,1.19-2,2.33-1.95,4-.66,1.34-.11,2.5.56,3.62a4,4,0,0,0,1.95,1.55c.64.29,1.19-.14,1.72-.46a.8.8,0,0,1,.28,0c.31.92.57,1.07,1.35.67a2.18,2.18,0,0,0,.83-.7c.18-.27.32-.35.55-.18s.39.29.14.58a.48.48,0,0,0,.12.44,1.13,1.13,0,0,0,1.48-.67,1.38,1.38,0,0,0,.05-.42c0-.34.29-.37.52-.3s.25.22.34.36a.56.56,0,0,1,0,.29c-.05.25-.1.49-.18.83.63-.2.9-.51.71-1.09A11.13,11.13,0,0,1,28.69,39a.87.87,0,0,1,.1-.61c.21-.33.41,0,.58.1a1.29,1.29,0,0,1,.35.38c.18.26.39.27.54,0a1.05,1.05,0,0,0,0-1.3,4.91,4.91,0,0,1-.58-1,.38.38,0,0,1,.11-.37c.07-.06.25,0,.37,0A2.19,2.19,0,0,1,30.58,36.43Zm4.93-7.67c0,.66,0,1.09,0,1.52.15,4.38-.25,8.78.26,13.16.17,1.43,0,2.9,0,4.36.11,4.24-.16,8.47.22,12.72.34,3.69.25,7.41.35,11.12a3.83,3.83,0,0,0,.08.6c1.9,0,3.73,0,5.57,0,.61,0,1.21.24,1.82.24s1.31-.21,2-.25c2.15-.12,4.31-.2,6.46-.3.32,0,.64-.06,1-.1,0-.48,0-.86,0-1.25s0-.83-.06-1.44a6,6,0,0,1-.54.74,6.09,6.09,0,0,1-1,.79c-.1.07-.35,0-.5-.1s-.18-.24-.07-.46a2.43,2.43,0,0,1,1.92-1.51.33.33,0,0,0,.2-.23c0-.48,0-1,0-1.45s0-.9,0-1.47c-.51.48-.88.86-1.3,1.19a.56.56,0,0,1-.53,0c-.08,0-.09-.36,0-.48.37-.58.49-1.32,1.28-1.63s.74-.48.55-1.19c-.09-.32-.21-.62-.4-1.19-.37.46-.65.84-1,1.19-.08.09-.33.18-.36.14a.83.83,0,0,1-.22-.46c0-.8.6-1.13,1.14-1.53.21-.16.56-.38.56-.56,0-1,.26-2-.38-2.91l-.93.83c-.38-.93.28-1.43.74-2a1.2,1.2,0,0,0,.32-.55c0-.86,0-1.72,0-2.72-.49.56-.83,1-1.21,1.38a.43.43,0,0,1-.39.08c-.09,0-.15-.22-.16-.35a2.13,2.13,0,0,1,.62-1.54c.37-.49.76-1,1.11-1.49a9.68,9.68,0,0,0-.2-2.71c-.25.42-.45.79-.68,1.14a1.72,1.72,0,0,1-.39.31,1.31,1.31,0,0,1-.17-.36,1.66,1.66,0,0,1,.57-1.54c.36-.34.9-.58.89-1.24,0-.95,0-1.91,0-3.17-.42.71-.67,1.15-.94,1.57a2.36,2.36,0,0,1-.41.35c-.13-.19-.34-.37-.38-.58a1.74,1.74,0,0,1,.58-1.55,3.55,3.55,0,0,0,1.13-3.36,1,1,0,0,0-.13-.26c-.14.15-.34.27-.39.44-.09.35-.28.5-.61.42-.51-.12-.37-.59-.27-.83a15.29,15.29,0,0,1,.94-1.73c.14-.24.44-.47.44-.7a14.77,14.77,0,0,0-.08-3.17c-.32.51-.54.93-.82,1.31a.33.33,0,0,1-.59,0,.78.78,0,0,1-.09-.61,4.17,4.17,0,0,1,1.17-1.77,1.22,1.22,0,0,0,.45-1.15c0-.47,0-.94,0-1.47-.46.51-.83.93-1.22,1.32A.29.29,0,0,1,51,32a2.24,2.24,0,0,1,.13-.82,3,3,0,0,1,1.3-1.49.62.62,0,0,0,.25-.54.66.66,0,0,0-.52-.29c-1.27.1-2.54,0-3.8,0a5.07,5.07,0,0,0-1.3.06,12.17,12.17,0,0,1-4.73.15,11.67,11.67,0,0,0-4.37,0,1.37,1.37,0,0,1-.56-.05Zm-.9,31.92a21.39,21.39,0,0,0-1.42,1.66c-.22.33-.46.34-.7.19-.08-.05,0-.4,0-.6.15-1,1-1.5,1.44-2.25.15-.23.38-.48.38-.73a7.56,7.56,0,0,0-.1-2.2c-.21.25-.39.38-.45.54s-.21.48-.49.31-.54-.34-.33-.68a4.55,4.55,0,0,1,.84-1.14,1.52,1.52,0,0,0,.54-1.41c0-.42,0-.85,0-1.39-.47.36-.82.65-1.2.89a.42.42,0,0,1-.4-.06.37.37,0,0,1-.08-.36c.36-.51.74-1,1.12-1.48.18-.22.53-.43.53-.65,0-1.16.61-2.31.14-3.64-.44.49-.82.94-1.23,1.34-.11.11-.33.11-.49.16,0-.18-.16-.39-.11-.54a4,4,0,0,1,1.62-2c.19-.14.4-.19.4-.49,0-.91,0-1.82,0-2.73l-.28-.15c-.51.58-1,1.17-1.53,1.74a.4.4,0,0,1-.38.06.44.44,0,0,1-.13-.38,3.74,3.74,0,0,1,1.74-2.18,3.12,3.12,0,0,0,.41-.41c-1.43.14-2.72.34-4,.38-.9,0-1.8-.26-2.7-.24a35.21,35.21,0,0,0-5.89.21,18.33,18.33,0,0,1-3.78,0,5.1,5.1,0,0,0-2.65.49,5.23,5.23,0,0,1,0,.56,26.71,26.71,0,0,0,.27,4c.08,1.68-.22,3.36-.22,5,0,4.48-.34,9,.21,13.46.13,1.05,0,2.13,0,3.19,0,.79.17,1.58.27,2.37a5.66,5.66,0,0,0,1.72,0,5.88,5.88,0,0,1,2-.24c1.58-.09,3.15,0,4.74-.23,2.77-.38,5.56.18,8.35.25a.52.52,0,0,1,.27.07,2.76,2.76,0,0,0,1.79.14V68.1l-1.6,1.52c-.09-.22-.26-.45-.21-.59a4.22,4.22,0,0,1,1.5-2,.77.77,0,0,0,.34-.51c-.1-.79-.26-1.57-.4-2.39l-1.25,1.58c-.12-.42-.33-.73-.25-.89a3.88,3.88,0,0,1,.91-1.27,2,2,0,0,0,.74-1.9C34.63,61.38,34.63,61.15,34.61,60.68Zm36.11-6.37c-.38.47-.55.82-.84,1s-.58.59-1,.13.07-.67.2-.84a24.14,24.14,0,0,1,1.65-1.8c-2.26-.13-4.37-.33-6.47-.33-2.49,0-5,.18-7.48.25-.75,0-1.5-.08-2.37-.14,0,.25,0,.58,0,.9.1,3.22-.11,6.44.24,9.67.25,2.4.05,4.84.06,7.26,0,.32.06.63.1,1.06,2-.13,3.92-.36,5.83-.37,2.15,0,4.31.14,6.47.26,1.09.06,2.1.05,2.59-1.18a.55.55,0,0,1,.2-.2,1.87,1.87,0,0,0,.82-2c0-.22,0-.45-.08-.76l-1.22,1.18c-.47-.27-.63-.63-.31-1.08a15.63,15.63,0,0,1,1.26-1.56,1.13,1.13,0,0,0,.35-.89c0-.43,0-.85,0-1.55a7.83,7.83,0,0,1-.73,1,.71.71,0,0,1-.54.06c-.09,0-.17-.22-.19-.35a1,1,0,0,1,.29-.92,6.26,6.26,0,0,0,.8-.83,1.48,1.48,0,0,0,.36-.73c0-.76,0-1.52,0-2.39l-1,1.06a1.63,1.63,0,0,1,.45-2.09,1.08,1.08,0,0,0,.56-.94C70.7,56.28,70.72,55.42,70.72,54.31ZM44.53,15.46c.34.79.59,1.44.91,2.06a.72.72,0,0,0,.54.31c1,0,1.76.66,2.62,1,.39.17.39.5,0,.81s-.9.7-1.37,1c-.72.5-.69.49-.47,1.31A9.86,9.86,0,0,1,47.13,24c0,.58-.44.82-1,.58-.09,0-.19,0-.28-.08A9.5,9.5,0,0,0,43,23.23a5.15,5.15,0,0,0-3,1,.45.45,0,0,1-.62-.59c.26-.71.57-1.4.86-2.09a2.18,2.18,0,0,0-.49-1.89.61.61,0,0,0-.54,0c-.28.25-.68.56-.7.86-.08,1.35-.07,2.71,0,4.06,0,.6.44.85,1,.87l1.44.08c-.27.33-.38.55-.56.66a3.71,3.71,0,0,1-.78.27c.21.11.39.14.45.24.35.51.81.3,1.22.18s.85-.39,1.3-.54a.52.52,0,0,1,.47.19A.56.56,0,0,1,43,27a9.42,9.42,0,0,1-1.07.64c1.68.13,1.68.13,2.81-1.07a.45.45,0,0,1,.42-.09c.13.11.28.34.24.47a6.89,6.89,0,0,1-.49,1c1,0,1.06,0,1.42-.61.21-.37.35-.77.59-1.12s.46-.49.62-.45c.36.09.21.43.13.71s-.14.59-.24,1.06c1.28-1.11,1.59-1.76,1.53-3.13,0-.32.09-.43.38-.44s.44.11.45.42,0,.84.08,1.49a3.19,3.19,0,0,0,.24-3.07c.28-.41-.66-.71-.1-1.14l.94.79a2.17,2.17,0,0,1,.21.4,2.45,2.45,0,0,1,.11-.55c.59-1.12.08-2-.43-3.05C49.54,16.67,47.35,15.77,44.53,15.46ZM41,17.83A2.28,2.28,0,0,0,43.07,16a.42.42,0,0,0-.14-.37c-.15-.07-.42-.14-.52-.05-.71.54-1.4,1.12-2.08,1.7a.45.45,0,0,0-.11.38c0,.09.19.17.31.21A2,2,0,0,0,41,17.83ZM70.84,71.27l-.31-.43a1.52,1.52,0,0,0-.32.4c0,.05.15.24.26.27S70.68,71.38,70.84,71.27ZM56.52,72.35a.66.66,0,0,0,.2.14c.08,0,.16,0,.24-.08s-.14-.14-.22-.16S56.59,72.32,56.52,72.35Z"/><path class="cls-1" d="M65,75.06c-.19.14-.37.35-.44.31a1.88,1.88,0,0,1-.49-.41,2.57,2.57,0,0,1,.57-.35S64.85,74.85,65,75.06Z"/><path class="cls-1" d="M46.23,75c.15.18.32.33.3.35A3.59,3.59,0,0,1,46,76a1.13,1.13,0,0,1-.27-.22C45.87,75.52,46,75.31,46.23,75Z"/><path class="cls-1" d="M74,72.4a3.5,3.5,0,0,1-.83.09c-.13,0-.23-.21-.35-.32.15-.06.31-.2.43-.17A4.06,4.06,0,0,1,74,72.4Z"/><path class="cls-1" d="M69,75.66c-.16-.4-.28-.56-.26-.69s.18-.26.28-.38c.1.13.25.25.27.4S69.13,75.27,69,75.66Z"/><path class="cls-1" d="M41.61,74.57h1.1l-.84.53-.23-.57Z"/><path class="cls-1" d="M57.18,75.6c-.34.06-.52.14-.66.1s-.21-.21-.31-.32c.09-.08.21-.23.27-.21A6.76,6.76,0,0,1,57.18,75.6Z"/><path class="cls-1" d="M76,73.6l-.25.34-.34-.27c.08-.08.15-.21.24-.23S75.85,73.53,76,73.6Z"/><path class="cls-1" d="M61.1,75.48l-.27-.32.36-.29c.06.1.17.21.17.31S61.22,75.35,61.1,75.48Z"/><path class="cls-1" d="M73.33,74.92a1.11,1.11,0,0,1-.3.17c-.06,0-.15-.06-.22-.1l.4-.38Z"/><path class="cls-1" d="M51.86,75.48c.1.06.2.09.21.13a.36.36,0,0,1,0,.25s-.16,0-.16,0S51.86,75.63,51.86,75.48Z"/><path class="cls-1" d="M46.85,33a24.25,24.25,0,0,1,.27,2.44c0,1.93,0,3.87,0,5.8a3.71,3.71,0,0,1,1.29.52,2.22,2.22,0,0,1,.47,1.75c0,.82,0,1.65,0,2.47s-.19,1-.92,1a33,33,0,0,1-6-.29c-.45-.07-.61-.4-.61-.84,0-1.4,0-2.8,0-4.3l1.34-.14a1,1,0,0,0,.12-.35c0-.54,0-1.07,0-1.6,0-.86-.29-1.13-1.2-1.19-.38,0-.78,0-1.16,0s-.65-.51-.47-.74c.95-1.25,1.3-2.87,2.46-4a1.28,1.28,0,0,1,1-.5C44.51,33,45.62,33,46.85,33ZM42.78,45.48h3.68c.41,0,.83.62,1.16.14.21-.3.1-.83.11-1.25,0-.58,0-1.15,0-1.74-1.21.32-1.7,0-1.71-1.14,0-2.07,0-4.15,0-6.23,0-.37,0-.74-.05-1.14H45a2.27,2.27,0,0,0-2.37,1.46c-.25.58-.58,1.11-.89,1.7l2,.11a5,5,0,0,0,0,1.79A7.78,7.78,0,0,1,44,41.3a.83.83,0,0,1-.46,1c-.79.28-.73.87-.71,1.5S42.78,44.81,42.78,45.48Z"/><path class="cls-1" d="M24.3,53.75c1-.1,1.85-.36,2.65.09a1.16,1.16,0,0,0,.28,0c.46.07,1,0,1.36.25.49.39.2,1.08.23,1.64s0,1.26,0,1.89-.27,1.14-.93,1.13c-1.77,0-3.55.28-5.32-.18a8.25,8.25,0,0,0-1.73-.06.68.68,0,0,1-.73-.71c0-1.17,0-2.33,0-3.49,0-.14,0-.34.11-.39.92-.55.64-1.88,1.62-2.43a14.34,14.34,0,0,0,1.94-1.47,1,1,0,0,0,.4-.88c0-.45-.22-.68-.62-.52-.61.24-1.18.54-1.83.85-.29-.26-.6-.56-.93-.83-.92-.77-.93-1.68.05-2.3A8.46,8.46,0,0,1,24,45.19a3.15,3.15,0,0,1,3.36,1.69,3,3,0,0,1,0,3.47,7.21,7.21,0,0,1-2.28,2.51C24.83,53,24.64,53.37,24.3,53.75Zm3.76,1c-1.33.15-2.43-.24-3.5.28a.78.78,0,0,1-1-.44,2.49,2.49,0,0,1,.71-2.35,6.72,6.72,0,0,0,2-2,2.8,2.8,0,0,0-.06-3.41,1.81,1.81,0,0,0-1.62-.74,7.84,7.84,0,0,0-3.16,1.12,1.21,1.21,0,0,0-.39.42.51.51,0,0,0,0,.37c.37.1.61.64,1.14.25a2.28,2.28,0,0,1,1.62-.43,1.26,1.26,0,0,1,1.23,1.13A2.48,2.48,0,0,1,24,51.28c-.44.35-1,.6-1.42.93a2,2,0,0,0-.78,1.14A22,22,0,0,0,21.15,57c0,.58.15.69.52.7,1.84,0,3.68,0,5.52,0,.39,0,.51-.21.55-.5C27.85,56.45,27.94,55.7,28.06,54.74Z"/><path class="cls-1" d="M60.34,58.66c-.55.08-.92.12-1.28.19-.71.13-.82.08-.84-.55,0-.82,0-1.64,0-2.46a.71.71,0,0,1,.54-.75,5.77,5.77,0,0,1,1.52-.3c1.54,0,3.09,0,4.64,0A1.1,1.1,0,0,1,66.05,56c0,.43,0,.87,0,1.3.12,1.11,0,2-1.61,2.22A9.1,9.1,0,0,1,65.6,60,3.2,3.2,0,0,1,67,62.43c.24,2.47-1.2,3.65-3,4.46a5,5,0,0,1-4.84-.59,3.41,3.41,0,0,1-1.37-2.64,1.54,1.54,0,0,1,.74-1.25,2.24,2.24,0,0,1,1.51.13,5.28,5.28,0,0,1,1.16.81c.41.31.63,0,.8-.28s.2-.56-.15-.73l-1.64-.81c-.82-.39-1-.75-.56-1.56C59.76,59.55,60,59.17,60.34,58.66Zm.42,1.76a8.24,8.24,0,0,1,1.07.51,9.67,9.67,0,0,1,1,.82,1.08,1.08,0,0,1,.37,1.57c-.76,1.53-2.11,1.77-3.52.63-.23-.19-.42-.68-.78-.32-.11.12.05.65.23.88a3.21,3.21,0,0,0,1.45,1.08,4.73,4.73,0,0,0,4.57-.81c1.11-.77.81-3-.38-3.67a3.45,3.45,0,0,0-1.89-.56.67.67,0,0,1-.52-.4.75.75,0,0,1,.25-.59,2.45,2.45,0,0,1,.94-.62C64.7,58.67,65,57.88,65,56.85c0-.05.07-.08.07-.13,0-.57-.38-1-.89-.74a4,4,0,0,1-2.67.12,10.47,10.47,0,0,0-2-.16c-.41,0-.57.25-.44.68s.28.69.42,1c1-.27,2-.69,2.71.47Z"/><path class="cls-1" d="M22.47,35.33a23.72,23.72,0,0,0,1.74-1.72c.74-.89,1.83-.9,2.79-1.22.09,0,.25.09.34.18s0,.21,0,.26a3.4,3.4,0,0,1-.74.68,7,7,0,0,0-3,3,.82.82,0,0,1-.91.54.84.84,0,0,1-.5-.19c-.54-.77-1.07-1.55-1.57-2.35-.09-.15,0-.4-.05-.6.22,0,.52,0,.66.1C21.67,34.4,22.07,34.89,22.47,35.33Z"/><path class="cls-1" d="M61,45c1-.79,1.75-1.49,2.58-2.12A7.92,7.92,0,0,1,65.08,42a.68.68,0,0,1,.62.14.76.76,0,0,1-.07.65,2.44,2.44,0,0,1-.72.71,10.58,10.58,0,0,0-2.82,2.8c-.65.93-1.39.83-1.94-.18-.29-.54-.62-1.06-.93-1.59,0-.08-.13-.18-.11-.25a2,2,0,0,1,.32-.73c.06-.07.45,0,.58.18C60.37,44.12,60.67,44.54,61,45Z"/></g></svg>