<svg xmlns="http://www.w3.org/2000/svg" viewBox="0 0 90 90"><g id="Movers"><path d="M48.6,44.11c0-.86,0-3.46,0-4.06a8.75,8.75,0,0,1,1.85-5.27,16.5,16.5,0,0,1,4.43-4C56.28,29.87,57.7,29,59.2,28c-1.39-1.28-2.81-2.57-4.22-3.89a33.71,33.71,0,0,1-2.45-2.48,7.74,7.74,0,0,1-1-1.87.7.7,0,0,1,.23-.65,2.78,2.78,0,0,1,1.17-.41c1.66-.12,8.55-.37,10.33-.54,3.25-.33,6.51-.25,9.77-.26a6.07,6.07,0,0,0,1.28,0,3,3,0,0,1,1.44.23A9.4,9.4,0,0,1,76,19.85c0,4.26,0,8.53,0,12.79,0,.45,0,2.26,0,2.71,0,2.18-.39,4.34-.27,6.53a2.61,2.61,0,0,1-.24,1,.84.84,0,0,1-1.4.34c-.71-.54-6.3-5.2-7-6.75a9.4,9.4,0,0,0-.79-1.1c-1.85,1.7-4,2.78-5.84,4.4a28,28,0,0,0-3.3,3.69,4.16,4.16,0,0,0-1,2.42c0,.88-.74,3.56,0,4,3.92,2.21,8,9.78,9.07,10.66.15-.13,1.36-1.28,1.53-1.45,1.94-1.83,3.85-3.68,5.8-5.49.67-.63,1.22,1.84,1.14,3.63a10.72,10.72,0,0,0,0,1.7c.08.74-.26,2.89-.18,3.16.32,1.07.27,8.2.24,9.14s0,1.72,0,2.66c-.36,0-.69.07-1,.07-1.38,0-1.76,0-3.14,0-3.29.07-6.61-1-9.88-.69-2.7.26-5.39.12-8.08.22-.63,0-1-.55-.55-1,1.1-1.13,7.5-5.35,8.95-6.69-.33-.69-4.93-10-7.6-11.16-1.09.52-3.21,1.73-4.4,1.75-1.88,0-3.76.1-5.62.28a3.29,3.29,0,0,0-1.68.8,5.62,5.62,0,0,0-1.92,3.2,8.89,8.89,0,0,1-2.43,4.5,8.86,8.86,0,0,1-4,2.65,16.68,16.68,0,0,1-2.22.41c-1.26.13-2.54.18-3.81.28a7.74,7.74,0,0,0-2,.2c-.44.14-1-.15-1.59-.25L24,67.71a6.36,6.36,0,0,1,2.84-1A27.47,27.47,0,0,0,30,66.28a11.51,11.51,0,0,0,2-.3,7.9,7.9,0,0,0,4.76-4.81c.22-.63.42-1.27.63-1.9a4.73,4.73,0,0,1,1.15-1.94L39.87,56a3.76,3.76,0,0,1,2.63-1.1c1.91-.09,3.83-.15,5.75-.29a5.43,5.43,0,0,0,1.8-.5c1.83-.85,3.54-1.86,4.06-4a4.68,4.68,0,0,0,.17-1c0-.91,0-1.81,0-2.72a7.2,7.2,0,0,1,1.8-4.49A18.8,18.8,0,0,1,58,39.73a23.89,23.89,0,0,1,2.23-1.91,25.47,25.47,0,0,1,5.53-3.54,2.6,2.6,0,0,1,1.91.18,10.34,10.34,0,0,1,1.08,1.41A15.77,15.77,0,0,0,70.64,38a18.49,18.49,0,0,1,2.93,2.59c.09.14.35.18.64.31-.09-.76.11-11.07.23-11.73a4.56,4.56,0,0,0,0-.64c0-.69.2-7,.26-8,0-.51,0-1,0-1.63l-15.58.75L52.45,20a9.37,9.37,0,0,0,.7.76c1.1.94,2.22,1.86,3.3,2.82A37.25,37.25,0,0,1,60.51,28a1.67,1.67,0,0,1-.9,1.27c-1.15.78-2.31,1.55-3.46,2.34a17.66,17.66,0,0,0-4.74,4.62,5.66,5.66,0,0,0-1,3.21c0,1.55,0,3.1,0,4.65,0,.25,0,2.91,0,3.5A3.8,3.8,0,0,1,49.48,50a17.64,17.64,0,0,1-1.38,1.49,6.2,6.2,0,0,1-3.75,1.26,7.34,7.34,0,0,1-2.67-.15,2.71,2.71,0,0,0-2.32.78,16.92,16.92,0,0,0-3.74,4.3,5.59,5.59,0,0,0-.45,1.16,15.67,15.67,0,0,1-1.79,4A4,4,0,0,1,30,64.68a14,14,0,0,1-2.66-.21A6.64,6.64,0,0,0,24,65.1a14.16,14.16,0,0,0-4.52,2.74c-.19.16-1,.72-1.26.48a3.62,3.62,0,0,0-.69-.31c-.59-.34-.59-.62,0-1.1.9-.72,1.78-1.46,2.7-2.14a20.17,20.17,0,0,1,4.82-2.13,2.7,2.7,0,0,1,.9,0c1.3,0,2.59,0,3.88,0A2,2,0,0,0,31.3,62a4.8,4.8,0,0,0,1.51-2.59c.79-3.25,3-5.48,5.32-7.61A4.18,4.18,0,0,1,41,50.72h3.23c.25,0,2.76-.34,2.72-.38-.86-1-4.66-4.33-5.66-5.6a22.24,22.24,0,0,1-2.54-4.21c-.6-1.31-1-6.43-1.12-6.62-.66.8-1.48,3.38-2.37,4.19a6,6,0,0,1-4.22.91c-1.69-.54-3.59-3.1-4.56-5.42a11.67,11.67,0,0,1-1-4.41,22.35,22.35,0,0,0-.94-4.86C24,23,22.29,22.46,21.7,22c-.44-.38,1.29-.86,2.61-.68a1.73,1.73,0,0,1,.93.32,9.52,9.52,0,0,1,1.51,1.73,23.92,23.92,0,0,1,1.43,2.81A16.84,16.84,0,0,1,29,29.8,8.08,8.08,0,0,0,30,32.27c.52.87,2.05,3.38,2.78,2.92s1.51-3,1.9-3.94a8.4,8.4,0,0,1,1.07-1.86,4.29,4.29,0,0,1,3.66-2,3.1,3.1,0,0,1,2.44.87A8,8,0,0,1,42,30.92a16.43,16.43,0,0,0,1.24,5.49,35.69,35.69,0,0,0,2.86,4.89A16.7,16.7,0,0,0,48.6,44.11Z"/><path d="M72.38,27.47c0,.47,0,.84,0,1.22s0,.81-.53,1c-.31.09-.58.21-.8-.07a1.32,1.32,0,0,1-.41-1.25C70.88,27.59,71.08,27.47,72.38,27.47Z"/><path d="M72.65,35.12c-.21.39-.52,1-.85,1.53a.38.38,0,0,1-.34.05,1,1,0,0,1-.54-1.14,11.84,11.84,0,0,1,.46-1.17.64.64,0,0,1,.81-.45.69.69,0,0,1,.46.82Z"/><path d="M71.61,22.62a4.34,4.34,0,0,1,0-.51c0-.33.23-.62.54-.55s.71.1.72.54a2,2,0,0,1-.17,1.34c-.15.22-.23.48-.53.37a1,1,0,0,1-.54-.44,2.08,2.08,0,0,1,0-.75Z"/><path d="M16,69.33c.51,0,.79.21.82.59a1,1,0,0,1-1.11,1A.68.68,0,0,1,15,70C15.06,69.52,15.34,69.32,16,69.33Z"/><path d="M19.39,20.07c0,.47-.41.69-.89.66-.26,0-.39-.13-.38-.39s.27-.68.64-.62A2,2,0,0,1,19.39,20.07Z"/><path d="M17.41,16c.21.11.36.13.41.22a.47.47,0,0,1,0,.35,1,1,0,0,1-.9.47.72.72,0,0,1-.26-.26.21.21,0,0,1,0-.2C16.93,16.4,17.18,16.2,17.41,16Z"/><path d="M15.24,72.94a.72.72,0,0,1-.08.22.82.82,0,0,1-1,.28c-.1,0-.19-.37-.15-.53s1-.32,1.21-.08C15.24,72.85,15.24,72.9,15.24,72.94Z"/><path d="M22.42,70c-.3.24-.51.53-.72.53a.52.52,0,0,1-.47-.63c0-.48.41-.38.68-.34S22.18,69.82,22.42,70Z"/><path d="M19.86,72.23c-.28.23-.41.42-.57.45a.49.49,0,0,1-.61-.48c0-.09.29-.28.45-.28A2.9,2.9,0,0,1,19.86,72.23Z"/><path d="M20.62,18c.26.29.43.46.56.64a.71.71,0,0,1-.31.27c-.24.07-.43,0-.42-.32A4,4,0,0,1,20.62,18Z"/><path d="M23.15,20.11c-.17.16-.31.35-.37.33a1.87,1.87,0,0,1-.48-.33c.14-.13.25-.32.42-.37S23,19.94,23.15,20.11Z"/></g></svg>