<svg viewBox="0 0 90 90" fill="none" xmlns="http://www.w3.org/2000/svg">
<g clip-path="url(#clip0_9077_18588)">
<g clip-path="url(#clip1_9077_18588)">
<mask id="mask0_9077_18588" style="mask-type:luminance" maskUnits="userSpaceOnUse" x="3" y="3" width="91" height="82">
<path d="M93.2002 3.30005H3.2002V84.3H93.2002V3.30005Z" fill="white"/>
</mask>
<g mask="url(#mask0_9077_18588)">
<path d="M50.9909 9.80955C51.4142 9.71222 51.8423 9.72313 52.2672 9.64775C53.4701 9.4344 54.2096 9.08455 55.3471 9.80015C55.6323 9.97958 55.9034 10.1968 56.2026 10.3509C56.8073 10.6622 57.4395 10.8511 57.9971 11.2609C58.5768 11.6871 59.0197 12.2658 59.5092 12.7873C59.9291 13.2348 60.371 13.6501 60.7545 14.1317C62.2606 16.0236 63.3452 18.4776 63.8736 20.8317C64.394 23.1508 64.468 25.5927 63.7909 27.8902C63.5869 28.5823 63.3 29.2438 63.0224 29.9083C63.7847 30.6002 64.731 31.2702 64.8137 32.4006C64.8853 33.3787 64.1368 33.9987 63.8059 34.836L63.813 34.8992C63.8695 35.3783 64.0668 35.827 64.1972 36.2887C64.3016 36.6578 64.3389 37.0374 64.354 37.4196C64.4207 39.1026 63.8182 40.6875 63.7083 42.3495C63.6405 43.3748 64.106 44.3377 63.9686 45.3533C63.8982 45.8729 63.6727 46.3526 63.3548 46.7651C62.5388 47.8242 61.2506 48.2057 60.0362 48.6017C59.8159 49.7185 59.3561 50.6042 58.392 51.2448C58.0102 51.4985 57.5733 51.714 57.1413 51.8649C56.8541 51.9654 56.5161 52.0342 56.2566 52.1971C55.2582 52.8238 54.3015 55.7543 53.9703 56.9184C55.4776 58.0627 56.8881 60.1218 57.9187 61.7007C58.6059 62.012 59.2862 62.3378 59.9596 62.678C60.7511 63.0846 61.5224 63.525 62.354 63.846C63.2849 64.2053 64.398 64.216 65.2693 64.6873C65.7109 64.9263 66.0531 65.3675 66.3573 65.7592C68.1796 66.2081 69.4475 67.2882 70.407 68.8885C71.8566 71.3061 72.6672 74.0438 73.0441 76.8276C73.7272 76.9097 74.4582 77.0073 74.9095 77.5986C75.4316 78.2827 75.3465 79.3571 75.2602 80.1622C75.8101 80.4878 76.4145 80.8265 76.792 81.3613C77.2607 82.0255 77.5074 83.161 77.8105 83.939C78.5425 85.7924 79.2906 87.6392 80.055 89.4794C80.5238 89.2111 81.0508 88.9304 81.6084 89.0697C81.9182 89.1471 82.1613 89.3529 82.3199 89.628C82.6082 90.128 82.5898 90.7083 82.5318 91.2619C83.4711 91.7528 83.6351 92.2372 83.9341 93.1873C83.9987 93.3941 84.0659 93.6001 84.1357 93.8051H83.2771H80.9789H80.6031H77.3767H76.6317H74.8653H67.5939H63.8675H60.0147H58.4746H44.9542H40.1275H16.5509H14.4092H13.4542C13.1568 91.9314 13.0754 89.9636 13.0001 88.0701C12.9372 86.6618 12.9071 85.2527 12.9098 83.8429C12.9125 82.4331 12.948 81.0242 13.0162 79.6161C13.0844 78.2079 13.1853 76.8022 13.3189 75.3988C13.4525 73.9955 13.6187 72.596 13.8174 71.2004C14.0322 69.6546 14.2306 67.2515 15.1523 65.9884C15.8246 65.0673 16.7083 65.2849 17.4859 64.7812C17.8314 64.5574 18.1371 64.2314 18.4483 63.9601C18.9658 63.5031 19.5009 63.068 20.0535 62.6547C22.5011 60.8393 25.9353 58.9347 28.7867 57.85C29.2187 56.6994 30.2514 55.8327 31.0519 54.9305C28.5191 54.7065 25.9231 53.8361 24.2461 51.8202C23.13 50.4784 22.6805 48.79 22.6901 47.0618C22.694 46.3643 22.7751 45.6687 22.7607 44.971C22.2798 44.1894 21.7784 43.4283 21.424 42.5767C20.2183 39.6799 20.4373 36.269 21.137 33.2693C22.6652 26.7182 28.4717 17.6873 34.2134 14.1189C36.18 12.8966 38.1103 12.3032 40.4224 12.6476C41.3694 11.664 42.5936 10.9137 43.9477 10.6752C44.3367 10.6067 44.732 10.6024 45.1238 10.5595C45.4649 10.5222 45.7945 10.3883 46.1379 10.3717C46.339 10.3619 46.5433 10.4161 46.7382 10.4604C47.8107 9.89392 49.2924 9.2278 50.527 9.59369C50.6925 9.64273 50.8436 9.72067 50.9909 9.80955ZM21.5722 39.1315C21.7208 37.7276 22.0011 36.3914 22.4017 35.0399C22.4448 34.8943 22.4919 34.5958 22.5749 34.4765C22.6271 34.4013 22.6486 34.4126 22.7256 34.3958L22.7244 34.3547L22.6323 34.3178L22.6993 34.2324L22.6541 34.2732L22.7104 34.2484L22.693 34.2306C22.7149 34.328 22.7167 34.2863 22.698 34.3757C22.5821 34.9323 22.5249 35.5219 22.4417 36.0859C22.0641 38.647 21.8389 41.3647 22.9632 43.778C22.0251 39.4716 24.217 31.6054 25.5113 27.3559C25.3088 30.2518 24.7303 33.1252 24.3938 36.0107C24.9861 34.029 25.8071 32.091 26.6152 30.1893C28.5594 25.6147 30.7183 20.7749 34.3145 17.252C34.1791 17.5288 33.9497 17.8044 33.7734 18.0592C33.4494 18.5189 33.137 18.9864 32.8363 19.4618C31.7589 21.1713 30.8302 22.9278 30.0643 24.7992C31.3529 22.6807 32.9316 21.117 34.8508 19.5853C34.1423 20.4196 33.4119 21.2452 32.7567 22.123C31.3348 24.0277 30.336 26.1647 29.5571 28.4061C29.1017 29.7162 28.762 31.1506 28.2107 32.4146L28.1875 32.4664C28.3751 31.6422 28.5043 30.8001 28.6844 29.9724C28.9325 28.88 29.2131 27.7961 29.5263 26.7208C27.0214 30.5857 24.1615 37.3286 23.992 41.9682C23.935 43.5301 24.1279 44.4949 24.4388 46.0038L24.4432 45.946L24.4766 45.9251L24.4493 45.8967C24.302 42.8651 24.8213 39.9369 26.6101 37.4155C25.968 39.5428 25.8096 41.7333 26.311 43.91C26.8159 46.1013 27.9152 48.316 29.6124 49.8145C30.0902 50.2365 30.6154 50.5754 31.1524 50.9135C29.9226 49.7617 28.9841 48.2316 28.425 46.6452C27.4336 43.8329 27.2526 40.6827 27.7576 37.7519C27.8635 37.1378 27.9705 36.448 28.2384 35.8863C27.8601 37.8948 28.1113 41.0116 28.5465 43.0317C29.034 45.2945 29.9487 47.4387 31.7524 48.9552C32.3059 49.4205 32.92 49.8054 33.525 50.1978C32.7914 49.4198 32.2179 48.5176 31.7595 47.5529C29.648 43.109 29.1637 36.9987 30.8059 32.344C30.273 35.8122 30.3429 38.9397 31.8636 42.1689C33.3043 45.2283 35.3944 46.9125 38.5205 48.0367C38.0397 47.6939 37.558 47.3385 37.1069 46.9571C34.2417 44.5341 32.4529 39.3259 32.1338 35.6516C32.7452 37.7608 33.2517 39.3058 34.367 41.2266C33.9051 39.8792 33.6263 38.4736 33.4342 37.0632C32.7278 31.8751 33.2478 25.6461 36.4993 21.3414C35.2304 24.0054 34.1269 27.0975 34.0078 30.0777C34.4827 28.417 35.0931 26.9214 36.1114 25.5144C34.3554 30.824 33.3118 34.9438 34.8466 40.4934C35.6268 43.3147 37.1166 45.8824 39.7186 47.353C40.9403 48.0436 42.4946 48.3399 43.8742 48.0715C44.2826 47.9919 44.6479 47.8338 45.0447 47.7281C45.1745 47.6936 45.3389 47.6517 45.4577 47.7213C45.4653 47.7766 45.4644 47.8198 45.4421 47.8721C45.0769 48.7272 43.3926 49.7133 42.5496 50.0138C40.4032 50.7789 38.24 50.62 36.1983 49.6397C37.1809 50.5403 38.0879 51.1177 39.3834 51.4625C38.7449 52.5931 37.7706 53.2328 36.6151 53.7344C38.3441 55.4393 39.9322 55.9509 41.976 57.1001C43.8385 58.1472 45.6287 59.268 47.3216 60.5767C44.2552 59.018 41.2571 57.3361 38.3274 55.5309C38.9166 56.1093 39.501 56.6785 40.1605 57.1777C41.5463 58.2267 43.0952 59.0564 44.5043 60.0827C45.5354 60.8229 46.5335 61.6058 47.4985 62.4313C48.642 63.393 49.7699 64.4089 51.0428 65.1976C52.1844 65.905 53.3745 66.3847 54.6084 66.8968C54.3539 66.038 54.252 65.1138 54.0329 64.2408C53.6993 62.9124 53.2492 61.5832 53.0903 60.2189C52.6701 56.6107 54.3684 52.8288 56.5706 50.0508C56.8249 49.7299 57.5098 49.0765 57.5126 48.6581C57.5134 48.5351 57.4537 48.4294 57.369 48.3451C57.1565 48.1334 56.7969 48.0124 56.5078 47.9464C54.3074 47.4442 51.7517 49.7321 51.013 49.637C50.293 49.5444 48.8469 47.0933 48.2871 46.4896C47.9471 46.1229 47.543 45.7998 47.1443 45.5006C46.4294 44.9642 45.6518 44.515 44.9094 44.0191C44.2209 43.559 43.459 42.8459 42.665 42.6068C42.1375 42.448 41.3861 42.6013 40.8266 42.5838C40.7327 43.5831 40.5599 44.5479 40.2327 45.4984C41.2015 45.9527 42.2305 46.2916 43.3006 46.3864C43.6799 46.4199 44.0715 46.4238 44.4502 46.3812C44.6889 46.3545 44.9362 46.2989 45.1761 46.2994C45.2577 46.2995 45.3295 46.3064 45.4026 46.3461C45.4606 46.3776 45.455 46.4252 45.4711 46.4839C45.4432 46.6246 45.3886 46.712 45.2927 46.8154C45.262 46.8481 45.2306 46.88 45.1984 46.9111C45.1661 46.9421 45.133 46.9724 45.0992 47.0018C45.0655 47.0312 45.031 47.0597 44.9957 47.0873C44.9605 47.115 44.9246 47.1417 44.8879 47.1674C44.8514 47.1932 44.8142 47.2181 44.7763 47.2419C44.7385 47.2658 44.7 47.2887 44.661 47.3106C44.622 47.3325 44.5824 47.3533 44.5424 47.3733C44.5023 47.3931 44.4617 47.4119 44.4206 47.4297C44.3796 47.4475 44.3382 47.4642 44.2963 47.4798C44.2544 47.4955 44.2122 47.5101 44.1695 47.5236C44.1269 47.5371 44.084 47.5495 44.0408 47.5607C43.9975 47.572 43.954 47.5822 43.9103 47.5912C43.8665 47.6003 43.8225 47.6082 43.7783 47.615C43.7341 47.6218 43.6898 47.6275 43.6454 47.632C43.6009 47.6365 43.5564 47.6399 43.5118 47.6421C43.4672 47.6444 43.4225 47.6454 43.3778 47.6454C41.6211 47.6531 39.9046 46.5543 38.7084 45.3389C36.083 42.6713 34.9716 38.0432 34.9898 34.3601C34.9903 34.0366 35.0021 33.7134 35.0253 33.3907C35.0485 33.0679 35.0831 32.7465 35.1289 32.4262C35.1748 32.1059 35.2319 31.7877 35.3001 31.4715C35.3684 31.1553 35.4477 30.8419 35.5381 30.5313C35.9543 29.0706 36.607 27.7187 37.2427 26.3459C38.6077 23.3984 40.0548 20.2077 42.3896 17.8919C43.974 16.3205 45.7101 15.7519 47.9039 15.7686C47.7084 15.7024 47.516 15.6594 47.3124 15.6272C46.6778 15.5266 45.9852 15.4738 45.3467 15.5665C43.362 15.8542 41.5187 17.3254 39.9456 18.4782C41.1788 16.9116 43.2543 15.6998 45.2128 15.3915C43.3368 15.2945 42.2271 15.9564 40.7686 17.0626C40.9401 16.8381 41.1123 16.6266 41.3199 16.4346C42.495 15.3473 43.9818 14.8532 45.5627 14.9175C46.5226 14.9566 47.8268 15.1308 48.514 15.8784C47.4835 15.9697 46.4542 16.1443 45.4926 16.5413C43.671 17.2934 42.4501 18.8084 41.3601 20.3956C41.12 20.7452 40.7943 21.1393 40.6315 21.5299C41.0869 21.1688 41.4468 20.6334 41.87 20.2246C43.332 18.8128 45.4125 17.0338 47.3817 16.4723C47.9204 16.3186 48.4807 16.2901 49.0362 16.2456C47.8047 17.1711 46.7436 18.782 46.1266 20.1754C45.5801 21.4095 45.1918 22.8138 44.1745 23.7535C45.037 22.4505 45.5097 20.948 46.027 19.4852C44.9565 20.7534 44.0824 22.1703 43.0257 23.4514C42.3558 24.2526 41.6652 25.0354 40.954 25.7998C40.0438 26.7848 39.0296 27.7821 38.3848 28.9708C39.1505 28.2435 39.8069 27.4576 40.6726 26.8346C41.2623 26.4103 41.8996 26.0666 42.5179 25.6881C44.6692 24.3712 45.15 23.3369 46.0694 21.0458C45.6403 23.4741 44.8414 24.7904 42.7522 26.1523C42.0735 26.5947 41.3654 26.9938 40.6992 27.4553C39.5992 28.2175 38.6684 29.1114 37.8199 30.1463C40.3784 28.3183 43.638 27.1726 45.3838 24.3879C45.6553 23.9548 45.9174 23.4754 46.0835 22.9899C46.164 22.7546 46.154 22.4231 46.2735 22.2199L46.3115 22.2409C46.3157 22.4132 46.3133 22.5855 46.3043 22.7576C46.2953 22.9298 46.2798 23.1014 46.2578 23.2723C46.2357 23.4433 46.2072 23.6132 46.1722 23.7819C46.1372 23.9507 46.0958 24.1178 46.048 24.2834C45.339 26.721 43.2168 29.5749 41.5414 31.4546C41.989 31.1195 42.4451 30.7894 42.8691 30.4242C43.3298 30.0273 43.7645 29.602 44.2336 29.2145C43.9225 29.6388 43.6183 30.0598 43.2473 30.4347C42.5226 31.1666 41.6474 31.7078 40.8623 32.3666C42.1129 31.7192 43.3006 30.8394 44.0896 29.6509C44.0895 29.6704 44.0909 29.6899 44.0895 29.7094C44.0746 29.9143 43.6905 30.5108 43.5665 30.6969C42.2252 32.7092 41.2451 33.0811 39.213 34.1052C39.3655 34.3829 39.5172 34.6621 39.6392 34.9551C39.765 35.2573 39.8675 35.6639 40.0558 35.931C40.4337 36.4671 41.0769 36.7705 41.3702 37.3816C41.4322 37.5107 41.4456 37.591 41.4011 37.7264C41.359 37.765 41.3221 37.7924 41.2657 37.8067C40.6267 37.9678 40.0237 37.3822 39.4137 37.3113C38.9726 37.2601 38.5349 37.4687 38.1152 37.245C38.0428 37.1444 38.036 37.1427 38.0402 37.0199C38.0788 36.9761 38.081 36.9688 38.1357 36.9325C38.4483 36.7249 39.3201 36.8748 39.6676 36.9249C39.4425 36.4413 39.1631 34.9594 38.7292 34.7492C38.6356 34.7039 38.5528 34.6925 38.4533 34.7273C37.9774 34.8938 37.5372 35.7107 37.3189 36.1328C37.3096 35.972 37.3134 35.8106 37.2249 35.6706C37.1385 35.8138 37.1617 36.0736 37.1699 36.2406C37.2274 37.4074 38.0054 37.8182 38.7638 38.5108C38.2232 38.4971 37.6754 38.4233 37.2408 38.068C36.6529 37.5874 36.4406 36.6142 36.3821 35.888C36.27 34.4992 36.415 32.9891 36.7667 31.6474C37.8356 27.5696 40.4451 25.7596 43.002 22.758C42.3849 23.1727 41.8491 23.6991 41.2756 24.1704C39.6872 25.4759 38.0015 26.6602 36.9653 28.4901C35.7413 30.6515 35.2077 34.0038 35.8819 36.3888C36.4298 38.3267 37.9469 40.0257 39.5562 41.1688C39.8037 41.3445 40.0594 41.5466 40.3274 41.6887C40.651 41.8601 41.3362 42.086 41.6772 41.9274C41.7748 41.882 41.7771 41.8494 41.8106 41.7548L41.6953 41.6876L41.7073 41.7496C41.3187 41.7629 40.9606 41.7789 40.6084 41.5804C40.3477 41.4333 40.2021 41.2345 40.1297 40.9446C40.0179 40.4973 40.0324 39.9994 40.2895 39.6031C40.4802 39.3091 40.7715 39.1102 41.1176 39.0548C41.4972 38.9941 41.8879 39.1099 42.194 39.3362C42.2068 39.3458 42.2194 39.3555 42.2322 39.3651C42.1493 38.8668 42.009 38.3799 41.8578 37.8989C42.5262 38.8367 42.7977 39.8839 43.2404 40.9286C43.4112 41.3316 43.6287 41.7105 43.9137 42.043C45.0609 43.3819 47.4628 44.7063 49.0403 45.4944C51.052 46.4996 52.2645 46.7939 54.3332 45.8203C54.8733 45.5661 55.4334 45.2311 55.9972 45.0447C56.1521 44.9935 56.293 44.9324 56.4406 44.8635C55.5229 45.52 54.4738 45.9913 53.5436 46.6428C54.1156 46.4572 54.7004 46.3062 55.2993 46.2421C55.9763 46.1696 56.6831 46.2204 57.3638 46.2383C58.3672 46.264 59.3703 46.2969 60.3731 46.3371C61.1138 46.371 61.916 46.4698 62.6471 46.3098C62.9469 46.2442 63.1678 46.1292 63.3328 45.8604C63.6938 45.2727 63.5593 44.3647 63.4185 43.7258C63.2878 43.1331 63.1008 42.2099 62.5436 41.8744C61.739 41.3902 60.5065 41.7052 59.6578 41.9089C60.4202 41.5093 61.2774 41.2025 62.146 41.3988C62.6612 41.5152 62.9895 41.7923 63.2676 42.2267C63.3016 41.2403 63.3321 40.3791 62.8297 39.4914C61.4082 39.1737 60.5365 39.0772 59.0995 39.3527C58.6426 39.4404 58.1809 39.5369 57.7407 39.69C56.2536 40.2071 55.8083 41.5575 55.1755 42.8626C55.4042 41.6407 55.7684 40.4425 56.808 39.6748C57.6159 39.0782 59.825 37.9068 60.8099 37.9052C61.3237 37.9044 61.834 38.0716 62.3345 38.1717C62.6229 38.2294 62.9248 38.2524 63.2165 38.2969L63.0995 38.3372C62.0941 38.6874 61.6105 38.2184 60.6771 38.3005C59.7615 38.3809 58.9002 38.9012 58.1002 39.3149C59.5787 38.9621 60.6157 38.2533 62.1763 38.8465C62.3162 38.7717 62.4638 38.698 62.6158 38.6519C62.771 38.6048 62.9561 38.6138 63.0949 38.7042C63.4475 38.9336 63.5031 39.7992 63.5768 40.1828C63.8863 37.9333 64.1817 37.5939 63.4454 35.2526C63.2483 35.4443 62.8491 35.6952 62.738 35.944C62.4307 36.6319 63.1977 37.9765 63.4002 38.6653L63.4178 38.7266C62.8061 37.7942 62.5874 36.665 62.372 35.5859C62.9576 34.6877 64.084 33.8639 64.2861 32.763C64.3506 32.4112 64.2735 32.0764 64.1021 31.7668C63.7098 31.0584 62.0512 29.5834 61.3847 28.9953C61.0424 28.6934 60.644 28.4092 60.384 28.0292C60.3752 28.0163 60.3668 28.0031 60.3582 27.9901C60.3606 27.9865 60.3639 27.9834 60.3654 27.9794C60.3928 27.9061 60.4092 27.8559 60.4548 27.7904C60.7636 27.6624 61.1569 27.4481 61.4958 27.5792C61.6197 27.6272 61.7692 27.7172 61.8555 27.8196L61.9228 27.8252C62.0286 27.8614 62.0947 27.8326 62.1986 27.8043C62.2474 27.8952 62.2979 27.9844 62.3381 28.0796L62.3922 28.0493C62.3415 27.5494 62.2747 26.9962 61.8797 26.6418C61.3973 26.209 60.6618 26.2575 60.0617 26.279C60.0786 26.0348 60.0837 25.7911 60.1564 25.556L60.2046 25.5342L60.3009 25.6618L60.3243 25.6478C60.3368 25.5424 60.336 25.4628 60.4027 25.3763C60.5364 25.3013 60.6373 25.2639 60.7922 25.2639C61.431 25.2638 61.9063 25.4852 62.3473 25.9341C61.961 25.2881 61.5856 24.6302 61.2803 23.9411C60.462 22.0938 59.8904 20.1086 58.5375 18.559C56.3889 16.098 52.1394 14.9827 48.9692 14.7912C48.0968 14.7386 47.226 14.8338 46.3534 14.8315C45.4725 14.829 44.5776 14.732 43.6991 14.8223C41.1536 15.084 38.9008 16.7276 37.0441 18.3805C38.4029 16.315 40.1709 15.042 42.5294 14.3658C41.5505 14.4179 40.6815 14.6194 39.8124 15.0813C39.5203 15.2365 39.2464 15.423 38.9492 15.5684L38.9099 15.5871C41.1408 13.6656 42.2845 14.263 44.9166 14.2408C43.7144 13.9434 42.5123 13.7408 41.2742 13.9184C39.2249 14.2127 37.2148 15.5502 35.9753 17.2045C36.6501 15.6539 37.7904 14.5455 39.2633 13.7582C38.5021 13.895 37.792 14.1068 37.0652 14.3673C37.9001 13.8398 38.6696 13.5994 39.6065 13.3153C39.1408 13.327 38.6751 13.3402 38.2129 13.4049C33.8438 14.0174 30.4203 18.1573 27.9339 21.48C24.4122 26.1862 20.7079 33.0054 21.5722 39.1315ZM29.2839 58.5829C26.3981 59.668 19.8484 63.104 18.1542 65.6443C17.3639 65.7626 16.4401 65.8548 15.8918 66.513C15.2014 67.3417 15.0675 69.1199 14.8969 70.1815C14.0086 75.7099 13.7754 81.6628 13.9789 87.2547C14.0799 89.441 14.2233 91.6244 14.4092 93.8051H16.5509H40.1275H44.9542C44.0108 93.4003 43.0059 93.1219 42.0443 92.7595C38.9308 91.5663 35.8602 90.2702 32.8326 88.871C28.1201 86.741 23.4823 84.5277 19.2383 81.5315C18.2786 80.854 16.9931 80.1138 16.4983 78.9997C15.7209 77.2489 15.9291 69.3068 16.6403 67.5405C16.75 67.2678 16.889 67.0616 17.1704 66.9549C17.6346 66.7788 18.2585 66.8116 18.7458 66.8278C21.0164 66.9031 23.1437 67.4943 25.2155 68.4093C29.3233 70.2238 32.7683 73.2666 35.5381 76.7809C36.5426 78.0553 37.5055 79.3972 38.098 80.9218C36.9143 80.395 35.8635 79.5364 34.7612 78.859C29.8358 75.832 25.0041 72.4194 19.0979 71.8103C19.8136 72.0502 20.5483 72.2348 21.2647 72.4754C22.6851 72.964 24.0675 73.5443 25.4117 74.2164C29.1258 76.0824 31.8619 78.4788 35.1479 80.9363C37.2249 82.4897 39.3918 83.8995 41.494 85.4127C39.2289 78.5723 34.7658 73.397 29.0763 69.1399C28.2616 68.5304 27.4542 67.8942 26.6002 67.3421L26.6174 67.3104C27.3368 67.5078 28.6246 68.2182 29.3197 68.6108C29.6644 68.8073 30.0051 69.0107 30.3416 69.221C30.6782 69.4312 31.0104 69.6481 31.3383 69.8717C31.6662 70.0954 31.9895 70.3256 32.3083 70.5623C32.6269 70.799 32.9408 71.042 33.2498 71.2913C33.5589 71.5407 33.8628 71.7962 34.1616 72.0578C34.4604 72.3194 34.7539 72.587 35.0421 72.8604C35.3302 73.1339 35.6128 73.4132 35.8898 73.698C36.1668 73.9829 36.438 74.2732 36.7034 74.5691C37.5614 75.5201 38.3336 76.5571 39.2005 77.4948C38.4882 76.1028 37.5544 74.8045 36.5818 73.587C32.8036 68.8573 28.2753 66.1768 22.6154 64.2424C24.5015 62.1776 27.3664 60.5272 29.7631 59.1371C29.6134 58.9434 29.4479 58.7643 29.2839 58.5829ZM50.5237 70.0593C51.782 72.0029 53.1691 73.8562 54.447 75.7871C57.411 80.2653 60.1113 84.9151 62.2737 89.8408C62.8481 91.1495 63.4042 92.4511 63.8675 93.8051H67.5939C67.5049 92.6535 67.2451 91.4935 67.0044 90.3668C65.8398 84.9164 63.8281 79.654 61.6274 74.5517C60.9282 72.9308 60.1095 71.3462 59.452 69.7117C58.4256 69.7421 57.3863 69.8869 56.3585 69.9516C54.4151 70.0731 52.4702 70.1089 50.5237 70.0593ZM35.5417 53.8936C35.8714 54.4856 36.3631 54.9617 36.8102 55.4641C37.313 56.0224 37.8009 56.5935 38.2741 57.1774C40.347 59.7396 42.3485 62.3675 44.3664 64.9742C42.2015 65.5034 40.0029 66.0818 37.8013 66.4256C36.6138 64.845 35.5518 63.2201 34.3126 61.6579C33.1607 60.2057 31.8924 58.8807 30.6904 57.4757C30.9928 56.6551 31.5924 56.047 31.9786 55.2895L31.9581 55.2847C31.6269 55.6171 31.3535 56.0287 31.0542 56.3914C30.5968 56.9458 30.1206 57.4845 29.6627 58.0388C32.7226 60.9174 35.0808 64.424 36.9561 68.1782C39.2203 67.2575 41.5312 66.4613 43.8086 65.5742C43.0121 66.1608 42.2088 67.1006 41.5177 67.8241C40.2384 69.1633 38.948 70.5004 37.7437 71.9087C38.3333 72.4932 38.9636 73.0371 39.5627 73.6121L45.9309 79.7203C48.4701 82.1823 50.968 84.6861 53.4243 87.2317C54.3539 88.1866 55.25 89.1716 56.165 90.1403C56.7598 90.7698 57.4766 91.3969 57.9478 92.1241C58.2614 92.6075 58.3268 93.2545 58.4746 93.8051H60.0147C59.7545 93.0132 59.4357 92.2381 58.9634 91.5477C58.2709 90.5363 57.4023 89.621 56.585 88.7113C55.2504 87.2243 53.8891 85.7626 52.5009 84.3262C48.2707 79.8828 43.918 75.5644 39.4425 71.3712C39.8808 70.691 40.4377 70.0641 40.9358 69.426C41.6036 68.5703 42.2483 67.6945 42.9413 66.8591C43.4414 66.2559 44.0037 65.6786 44.4394 65.0268C46.4811 67.8723 48.7134 70.583 50.7778 73.4129C52.9941 76.4508 55.0262 79.6145 57.0835 82.7615C58.4177 84.8026 59.592 86.9356 60.7954 89.0558C61.3469 90.0273 61.8529 91.0919 62.5043 91.9968C62.3074 91.501 62.0535 91.0182 61.8242 90.5365C61.409 89.6592 60.987 88.7853 60.558 87.9147C59.5112 85.8325 58.3974 83.7873 57.2165 81.7789C56.0356 79.7706 54.7903 77.8035 53.4807 75.8776C52.4719 74.3737 51.4385 72.8872 50.3805 71.4179C49.3225 69.9487 48.2404 68.4976 47.1343 67.0647C46.0281 65.6317 44.8986 64.2176 43.7455 62.8225C42.5925 61.4274 41.4167 60.0521 40.2181 58.6964C39.238 57.5767 36.6718 54.5149 35.5417 53.8936ZM25.276 75.6879C28.15 77.5651 30.0663 79.5812 32.5489 81.8765C34.8194 83.9527 37.1069 86.0099 39.4113 88.0479C40.958 89.4352 42.5466 90.7402 44.2447 91.9358C44.6899 92.2496 45.1543 92.627 45.6414 92.8665C45.191 91.6304 43.9688 88.8142 43.0948 87.8945C42.3328 87.0928 41.161 86.5156 40.2378 85.906C38.8988 85.0134 37.5677 84.109 36.2444 83.193C34.4859 81.9565 32.7532 80.6845 31.0464 79.3769C29.4426 78.167 27.8381 76.8292 26.0112 75.9693C25.7858 75.8634 25.5225 75.7296 25.276 75.6879ZM53.8428 57.7783C54.0991 58.4622 54.6457 59.0826 55.0384 59.6948C55.387 60.2379 55.6915 60.8077 55.9954 61.3767C56.6208 62.5479 57.2041 63.7395 57.8198 64.9152C58.263 65.7613 58.7339 66.5925 59.1731 67.4408C60.2137 69.452 61.1975 71.4908 62.1245 73.5573C63.4511 76.51 64.6878 79.5399 65.6844 82.6225C66.0577 83.779 66.4144 84.9408 66.7543 86.1077C67.037 87.0732 67.2818 88.09 67.7112 89.0014C67.5171 88.0313 67.2444 87.0683 66.9996 86.1097C65.3068 79.4801 62.6716 72.7819 59.6107 66.6721C60.5164 67.1323 61.4264 67.5838 62.3407 68.0265C62.9902 68.3423 63.6565 68.643 64.2822 69.0048L64.6552 69.8198C65.7014 72.1587 66.8572 74.4414 68.1224 76.6681C69.0086 78.2223 69.883 79.7831 70.7459 81.3504C72.575 84.6146 73.6402 86.467 74.2784 90.2525L74.3327 90.2558C74.3458 89.5739 74.1932 88.7907 74.0775 88.118C73.8868 87.0104 73.6341 85.9147 73.2598 84.8545C72.679 83.2088 71.8463 81.6679 70.9986 80.1484C70.5064 79.2661 70.0301 78.3669 69.5181 77.497C68.7938 76.2666 68.0294 75.0592 67.328 73.8154C66.8312 72.9473 66.3646 72.063 65.9281 71.1627C65.516 70.3041 65.1441 69.4249 64.7188 68.5731C63.846 68.0882 62.9462 67.6722 62.0429 67.2491C61.1879 66.8486 60.1081 66.4646 59.4074 65.82C58.7474 65.2129 58.3586 64.2041 57.9108 63.4315C57.2538 62.2978 54.8087 58.3342 53.8428 57.7783ZM66.8717 66.5269C67.6446 67.735 68.3231 69.137 68.7945 70.4926C69.1708 71.5949 69.5121 72.7081 69.8186 73.8321C70.315 75.6606 70.5367 77.2261 71.4007 78.9509C71.5366 79.2221 71.6797 79.5559 71.896 79.7718C71.742 78.186 71.8889 76.5877 71.7253 75.005C71.4535 72.3747 69.8645 68.8064 67.8344 67.131C67.5537 66.8993 67.2179 66.6476 66.8717 66.5269ZM60.3223 63.7891C62.1122 65.2826 64.4004 67.2427 65.8002 69.0911C65.3961 68.176 65.0945 67.2109 64.65 66.3166C66.663 68.5764 66.9561 70.5776 68.1522 73.1974C68.5239 74.0087 68.9187 74.8259 69.4127 75.5705C69.2052 74.8655 69.0498 74.1473 68.8568 73.4384C68.2297 71.135 67.451 68.6126 66.0634 66.6425C65.758 66.2088 65.4036 65.7243 64.9351 65.4583C64.1897 65.0349 63.1777 65.0773 62.3667 64.7871C61.6544 64.5324 61.0558 63.9837 60.3223 63.7891ZM75.1117 80.9658C74.4599 83.982 74.6757 85.5182 75.0515 88.5305C75.4157 86.8142 75.6471 85.0862 75.8304 83.342C76.3173 84.4765 76.8132 85.7289 77.1621 86.9133C77.3276 87.3698 77.4841 87.8332 77.6648 88.2837L77.7282 88.2933C78.1032 88.3532 78.4094 88.4795 78.6311 88.8089C78.9664 89.3072 78.8533 89.8917 79.0052 90.1806C79.026 90.22 79.0708 90.2408 79.1036 90.2709L79.0775 90.3031L79.0141 90.212L79.0687 90.3051C79.1732 90.2592 79.177 90.2461 79.2127 90.1354C79.2461 90.0316 79.2287 89.9033 79.1971 89.8019C78.7348 88.3112 78.0667 86.868 77.516 85.4082C77.1905 84.5455 76.5755 82.5186 76.1187 81.8553C75.8536 81.4703 75.4896 81.2248 75.1117 80.9658ZM50.3567 65.4985C50.352 66.0224 50.3238 66.4828 49.933 66.8792C49.8224 66.9912 49.6953 67.0883 49.5715 67.1847C50.0398 67.486 50.7278 68.216 51.3292 68.0591C51.5717 67.9959 51.7319 67.7958 51.8476 67.5842C51.9736 67.3537 52.0055 67.2161 52.0043 66.9567C52.0039 66.8661 52.0008 66.7848 52.0494 66.7063C52.1651 66.9475 52.0092 67.568 51.9204 67.8107C51.826 68.069 51.6799 68.263 51.5102 68.4733C52.1078 68.7941 52.693 69.1578 53.3802 69.2294C54.2742 69.2025 55.1745 69.1471 56.0681 69.1421C56.0099 68.7788 55.9518 68.4343 55.8305 68.0861C55.1636 67.6702 54.291 67.4426 53.5516 67.1709C52.4663 66.772 51.2915 66.1922 50.3567 65.4985ZM77.3767 93.8051H80.6031C81.1186 92.9443 81.8608 91.3738 81.7566 90.3543C81.7377 90.169 81.6587 89.9445 81.498 89.8345C81.3839 89.7564 81.271 89.7441 81.1377 89.7778C79.9943 90.068 78.0025 92.7392 77.3767 93.8051ZM74.8653 93.8051H76.6317C77.3035 92.8506 78.1736 91.2757 78.1471 90.0766C78.136 89.5804 77.9369 89.2968 77.5939 88.9727C76.1655 90.4345 75.0276 91.6575 74.8653 93.8051ZM72.7298 77.6485C72.7109 78.9407 72.6 80.4958 72.9776 81.7456C73.1834 82.4271 73.5317 83.1046 73.8538 83.7382C73.8816 83.5584 73.911 83.3788 73.9322 83.1981C74.2039 81.6514 74.9231 79.3692 74.2215 77.8878C73.7076 77.7215 73.267 77.685 72.7298 77.6485ZM58.7178 14.7462C59.6852 15.2599 60.5881 15.7385 61.2266 16.6654C61.3094 16.7855 61.4359 16.934 61.4924 17.0668C61.5006 17.0859 61.5044 17.1065 61.5103 17.1263C61.302 17.0044 61.1243 16.7274 60.9244 16.5664C60.3172 16.0775 59.6054 15.8237 58.8827 15.5597C59.4144 15.8919 59.9928 16.1456 60.4935 16.5276C61.8678 17.5763 62.564 19.5177 62.9446 21.1472C63.2724 22.55 63.4183 24.0624 63.2598 25.4986C62.9725 23.1332 62.7914 20.2687 61.2417 18.3404C61.0697 18.1386 60.9031 17.9266 60.699 17.7563L60.683 17.7618L60.7095 17.7983L60.7018 17.8341C60.7173 17.8442 60.7351 17.8514 60.7482 17.8644C60.9972 18.1084 61.4474 18.9875 61.6269 19.3334C62.6189 21.2449 62.8984 23.2194 62.9574 25.3485C62.9805 26.1827 62.9543 27.0934 63.1856 27.8997C63.3257 27.2026 63.4664 26.5111 63.5348 25.8023C63.8153 22.897 63.356 19.4781 61.7354 17.0099C61.057 15.9764 60.0186 14.9871 58.7625 14.7527C58.7478 14.7499 58.7327 14.7484 58.7178 14.7462ZM49.4494 10.2093C48.5528 10.3155 47.2041 10.63 46.6061 11.3756C46.3079 11.7475 46.2009 12.2209 46.2611 12.6908C46.2889 12.908 46.3511 13.1225 46.4075 13.3338C46.4827 12.5154 46.6172 11.6496 47.1987 11.0301C47.0419 11.8609 46.8691 12.8616 47.3513 13.627C47.4155 13.7289 47.5052 13.8218 47.5879 13.9085C47.5887 13.4479 47.5785 12.9837 47.593 12.5237C47.6888 11.8591 47.924 11.3547 48.4755 10.9462C48.7262 10.7606 49.0161 10.6156 49.298 10.4842C48.6341 10.9492 48.0398 11.3614 47.8979 12.2346C47.8405 12.5888 47.868 12.9297 47.8985 13.2843C48.5072 12.0186 49.3003 11.1268 50.3417 10.1992C50.0441 10.1901 49.7457 10.1715 49.4494 10.2093ZM44.8933 11.2309C43.4262 11.3664 42.262 12.0213 41.0547 12.8304C41.643 12.9439 42.235 13.0753 42.8288 13.1531C42.6288 12.9394 42.4307 12.7258 42.2159 12.5268C42.512 12.6917 42.7911 12.8789 43.0723 13.0679C43.4848 13.3106 43.9016 13.4788 44.3542 13.6299C44.088 13.366 43.514 12.8743 43.5075 12.4672C43.5064 12.3959 43.511 12.3847 43.5221 12.3209L43.5833 12.282C43.7753 12.421 43.932 12.6079 44.112 12.7626C44.4274 13.0334 44.7814 13.2523 45.1341 13.4698C44.7852 12.8859 44.7055 12.1745 44.8654 11.5143L44.8794 11.4585L44.927 11.2635L44.8933 11.2309ZM55.6371 66.5419C55.3723 66.6592 55.1641 66.7882 54.9519 66.9894C54.9655 66.9992 54.9788 67.0092 54.9925 67.0189C55.5254 67.3953 56.4255 67.3312 56.5621 68.1188C56.6183 68.4428 56.568 68.8222 56.5227 69.1466C57.3499 69.1439 58.1691 69.0817 58.9943 69.0367C58.8217 68.6711 58.6253 68.3279 58.4196 67.9808C58.1703 67.5146 57.9317 67.04 57.6311 66.6045C57.5597 67.218 57.4977 68.535 57.01 68.9259L56.9152 68.945C56.5008 68.4121 57.483 66.7611 55.9072 66.5671C55.8177 66.5562 55.7271 66.5463 55.6371 66.5419ZM48.4758 64.1187C48.4711 64.6482 48.3442 65.005 47.9595 65.385C47.8786 65.465 47.7962 65.5442 47.7076 65.6155C47.9767 65.8906 48.8464 66.8444 49.2531 66.8052C49.2778 66.8029 49.3018 66.7956 49.3261 66.7908C49.6454 66.6123 49.9836 66.3933 50.0883 66.0172C50.1529 65.7847 50.1028 65.5444 49.982 65.3393C49.7013 64.8624 48.9636 64.3781 48.4758 64.1187ZM56.2613 12.061C55.4427 12.2016 54.7746 12.5583 54.2927 13.2537C53.9976 13.6794 53.8374 14.1649 53.6719 14.6516C54.2253 13.7957 54.6992 13.1085 55.7584 12.8854C56.0385 12.8265 56.3341 12.7968 56.6201 12.8043C57.8365 12.9132 58.8293 13.3313 59.8635 13.9756C58.9279 13.0407 58.0954 12.0262 56.6718 12.0312C56.5336 12.0317 56.3977 12.0378 56.2613 12.061ZM46.4411 62.4941C46.4472 63.163 46.389 63.5521 45.9114 64.0486C46.2476 64.3591 46.9158 65.1613 47.3856 65.1377C47.4835 65.1328 47.5901 65.1069 47.6835 65.0777C47.9282 64.8566 48.197 64.6405 48.2157 64.283C48.2282 64.0398 48.0948 63.8357 47.9344 63.6658C47.5245 63.2313 46.9402 62.8264 46.4411 62.4941ZM47.5049 16.9079C45.0056 18.0017 43.0898 20.0549 41.3564 22.107C40.9365 22.6042 40.4822 23.095 40.1071 23.6264L40.104 23.6985L40.1358 23.6863C41.6412 22.0724 43.1877 20.4969 44.868 19.065C45.7391 18.3225 46.659 17.6516 47.5609 16.9497L47.549 16.9108L47.5049 16.9079ZM44.6121 61.0324C44.5987 61.4758 44.5595 61.8702 44.341 62.2663C44.5411 62.4976 45.4083 63.6838 45.6612 63.6782C45.7368 63.6765 45.7795 63.6412 45.841 63.6022C46.0714 63.3354 46.2645 63.0524 46.2385 62.682C46.2098 62.2737 45.9071 61.9562 45.6073 61.7106C45.2967 61.4563 44.9546 61.2401 44.6121 61.0324ZM54.9753 10.9181C54.4309 10.9627 53.7145 11.1343 53.3086 11.5204L53.3178 11.5564C53.3396 11.5435 53.3605 11.5291 53.3832 11.5178C53.5323 11.4437 53.995 11.2987 54.1477 11.3508C54.1588 11.3546 54.1687 11.3616 54.1792 11.3671C54.0847 11.5234 53.8937 11.6328 53.7582 11.7544C53.2982 12.1673 53.0965 12.6817 52.8872 13.2485C53.2118 12.763 53.5263 12.3881 54.0128 12.0629C54.9122 11.5254 56.0116 11.2942 57.0357 11.5606C57.3559 11.6439 57.6541 11.7703 57.9474 11.9227C57.0378 11.2233 56.1369 10.8643 54.9753 10.9181ZM41.4449 58.8787C41.8516 59.3844 43.7976 61.8454 44.1813 62.0427C44.2269 61.9927 44.2655 61.9494 44.302 61.8919C44.3838 61.5977 44.4254 61.3132 44.4577 61.0096C43.88 60.472 42.1574 59.1185 41.4449 58.8787ZM82.1719 92.0056C81.8235 92.6491 81.4612 93.2536 80.9789 93.8051H83.2771C83.074 93.0256 82.8578 92.4696 82.1719 92.0056ZM51.5731 10.2068C50.6353 10.4354 49.8426 10.9056 49.3359 11.7606C49.2412 11.9205 48.9655 12.37 48.9895 12.5446C49.289 12.1482 49.4282 11.689 49.7633 11.3067C49.7161 11.4843 49.6688 11.6557 49.6499 11.8392C49.5418 12.5568 49.6165 13.1849 49.7521 13.894C49.9041 12.2596 50.6249 11.4504 51.6048 10.2275L51.5731 10.2068ZM41.1814 39.6272C40.9282 39.7539 40.7274 39.8915 40.6314 40.1718C40.623 40.196 40.6159 40.2205 40.6099 40.2454C40.604 40.2703 40.5993 40.2954 40.5958 40.3208C40.5924 40.3461 40.5902 40.3715 40.5893 40.3971C40.5884 40.4227 40.5888 40.4483 40.5904 40.4738C40.5921 40.4993 40.595 40.5247 40.5992 40.55C40.6033 40.5752 40.6087 40.6002 40.6154 40.6249C40.6221 40.6496 40.63 40.6739 40.6391 40.6978C40.6481 40.7217 40.6584 40.7451 40.6698 40.768C40.7761 40.9842 40.9855 41.1662 41.2137 41.2414C41.3555 41.2882 41.5064 41.296 41.6543 41.2995C41.9121 41.1616 42.0964 41.0264 42.1805 40.732C42.2449 40.5064 42.2222 40.266 42.1075 40.0603C42.0929 40.0339 42.077 40.0085 42.0598 39.9838C42.0425 39.9591 42.024 39.9355 42.0043 39.9128C41.9845 39.8901 41.9636 39.8685 41.9416 39.8481C41.9196 39.8276 41.8965 39.8084 41.8725 39.7904C41.8485 39.7723 41.8236 39.7557 41.7978 39.7403C41.772 39.725 41.7454 39.711 41.7182 39.6984C41.6909 39.6859 41.6631 39.6748 41.6347 39.6653C41.6063 39.6557 41.5774 39.6476 41.5481 39.6412C41.421 39.6124 41.3098 39.6132 41.1814 39.6272ZM46.1232 10.861C45.7398 11.0142 45.4366 11.1867 45.2619 11.5883C45.1046 11.9502 45.1356 12.3676 45.2845 12.7264C45.4167 13.0451 45.6228 13.2919 45.8669 13.5288L46.0404 13.6121L46.0986 13.5794C46.186 13.1432 45.83 12.6846 45.9326 12.2412C45.9838 12.0204 46.4375 10.9849 46.3715 10.8707C46.2862 10.8609 46.209 10.8538 46.1232 10.861ZM55.5174 65.0377C55.3224 65.1696 55.1922 65.2662 55.1392 65.5059C55.0822 65.764 55.145 66.0735 55.174 66.3344C55.5701 66.2057 55.9322 66.1068 56.33 66.3051C56.4791 66.3795 56.6183 66.4789 56.752 66.5782C56.8407 66.6665 56.9294 66.7677 57.0244 66.8484C56.9163 66.3087 56.8174 65.5759 56.3339 65.2335C56.0958 65.065 55.8015 65.0276 55.5174 65.0377ZM53.3822 9.89537C52.5255 10.048 51.5389 10.4714 51.0249 11.2144C50.9304 11.351 50.8201 11.5246 50.7967 11.6879C50.9391 11.6264 50.9526 11.4698 51.1065 11.4558C51.1735 11.6213 50.8939 12.2504 50.8438 12.4817C50.7592 12.872 50.7524 13.2804 50.7448 13.6786C50.8266 13.4065 50.8959 13.1345 50.9593 12.8576C51.191 11.8651 51.581 11.1645 52.4578 10.6097C53.1643 10.1625 53.891 10.0623 54.7077 10.0033C54.2523 9.90995 53.8465 9.87143 53.3822 9.89537ZM55.3132 63.4514C55.1237 63.5448 54.9447 63.6403 54.7677 63.7572C54.8657 64.2096 54.9236 64.67 55.0224 65.1218C55.19 64.9358 55.3503 64.783 55.5817 64.6825C55.8533 64.707 56.1145 64.7516 56.3819 64.8041C56.2879 64.3938 56.2122 63.7641 55.8164 63.5301C55.664 63.44 55.4841 63.4428 55.3132 63.4514ZM54.6361 61.625L54.2398 61.8833C54.3844 62.4023 54.518 62.9281 54.6779 63.4424C54.8307 63.3179 54.9734 63.2017 55.148 63.1083C55.386 63.0683 55.5768 63.0795 55.8137 63.0908C55.6544 62.6235 55.5028 61.9385 55.0367 61.6906C54.9144 61.6257 54.7715 61.6229 54.6361 61.625ZM53.6593 59.5731C53.6223 60.2655 53.8743 60.895 54.0886 61.5417C54.3833 61.3902 54.5877 61.3135 54.9271 61.3163L55.041 61.3444C55.0213 60.9458 54.5125 60.0896 54.2113 59.8114C54.0412 59.6544 53.8816 59.6201 53.6593 59.5731ZM48.0125 66.8386C48.599 67.5838 49.2257 68.2957 49.8117 69.0409C50.3699 69.113 50.9482 69.2206 51.5121 69.193C50.855 68.886 50.2183 68.5826 49.6245 68.1592C49.2508 67.8927 48.3108 66.9517 48.0125 66.8386ZM37.6648 48.7341C38.9552 49.431 40.2919 49.73 41.7311 49.3907L41.8113 49.3379L41.7932 49.2895C41.2705 49.1598 40.6775 49.2296 40.1381 49.16C39.3097 49.0533 38.4933 48.8273 37.6648 48.7341ZM57.4335 13.7907C58.2802 14.0127 59.0359 14.1469 59.815 14.5919C60.1192 14.7657 60.4344 15.1296 60.7531 15.2464C60.2205 14.4787 59.456 13.9766 58.5353 13.8106C58.183 13.7472 57.787 13.731 57.4335 13.7907Z" fill="#161717"/>
<path d="M62.1986 27.8043C62.2474 27.8953 62.2979 27.9844 62.3381 28.0796C62.2678 28.1057 62.2253 28.1009 62.1516 28.0982C62.0101 28.0359 61.9471 27.9413 61.8555 27.8197L61.9228 27.8253C62.0286 27.8614 62.0947 27.8327 62.1986 27.8043Z" fill="#161717"/>
<path d="M15.4598 80.0187C20.7579 84.7647 27.325 88.1259 33.7658 91.0243C35.169 91.6473 36.5761 92.2614 37.9873 92.8665C38.6953 93.1723 39.4453 93.4472 40.1277 93.8052H16.551C15.6507 89.6282 15.0515 84.2759 15.4598 80.0187Z" fill="#161717"/>
<path d="M60.2038 27.7459C60.0883 27.4418 59.9106 26.8766 60.0286 26.5649C60.2383 26.7461 60.2668 27.2131 60.3169 27.4817C60.2914 27.5808 60.2506 27.656 60.2038 27.7459Z" fill="#161717"/>
<path d="M41.1343 33.7488C41.4656 33.7982 42.0137 33.7037 42.2952 33.8335L42.278 33.9461C42.1857 33.9931 42.0996 34.0362 41.9973 34.0563C41.6586 34.1227 41.3973 33.9309 41.1343 33.7488Z" fill="#161717"/>
<path d="M62.1841 32.5621C62.2421 32.5534 62.2821 32.5459 62.3424 32.5438C62.4423 32.5405 62.4957 32.5528 62.5661 32.6257L62.5429 32.7091C62.3011 32.9111 62.1526 32.9096 61.8521 32.9103L61.3057 32.8686C61.5964 32.7484 61.8806 32.6444 62.1841 32.5621Z" fill="#161717"/>
<path d="M48.1718 31.8778C48.2902 32.2931 47.8501 33.1779 47.6589 33.5484C47.6392 33.5041 47.6305 33.491 47.6212 33.4404C47.5311 32.9518 47.9368 32.2841 48.1718 31.8778Z" fill="#161717"/>
<path d="M60.0674 45.1394C60.1415 45.1642 60.1098 45.1502 60.1817 45.1891C60.3822 45.2974 60.5816 45.4007 60.7977 45.4746C61.1253 45.5869 61.8364 45.6331 62.0634 45.8584C61.9277 45.8843 61.7981 45.8994 61.6596 45.8973C60.993 45.887 60.5191 45.6086 60.0674 45.1394Z" fill="#161717"/>
<path d="M48.9288 31.8837C48.9963 32.2423 48.4 33.6794 48.2457 34.0969C48.2355 34.0726 48.2226 34.0493 48.2151 34.0241C48.0444 33.4432 48.6192 32.3517 48.9288 31.8837Z" fill="#161717"/>
<path d="M49.923 32.587L49.9631 32.6238C50.0891 33.2305 49.4423 34.5521 49.1618 35.0829L49.1268 35.0754L49.0894 34.9428L49.1772 34.8992L49.0979 34.8633C49.2854 34.0377 49.5431 33.3408 49.923 32.587Z" fill="#161717"/>
<path d="M50.7648 32.9849C50.8444 33.2815 49.8535 35.8808 49.6468 36.3399C49.643 36.3257 49.6385 36.3115 49.6355 36.2971C49.4346 35.3264 50.2888 33.7762 50.7648 32.9849Z" fill="#161717"/>
<path d="M60.3172 27.4817C60.5339 27.2094 60.7661 27.0602 61.0675 26.9016C61.5635 27.1038 61.9157 27.3374 62.1987 27.8043C62.0948 27.8326 62.0287 27.8614 61.9229 27.8252L61.8556 27.8197C61.7693 27.7172 61.6198 27.6272 61.4959 27.5793C61.1569 27.4481 60.7637 27.6624 60.4549 27.7904C60.4092 27.8559 60.3929 27.9061 60.3655 27.9794C60.364 27.9834 60.3606 27.9865 60.3583 27.9901C60.3029 27.9123 60.2547 27.8272 60.2041 27.7459C60.2509 27.6561 60.2916 27.5808 60.3172 27.4817ZM61.1775 27.3042C60.9453 27.3639 60.6383 27.4401 60.4854 27.6397C60.4269 27.7162 60.443 27.7048 60.4549 27.7904C60.7637 27.6624 61.1569 27.4481 61.4959 27.5793C61.6198 27.6272 61.7693 27.7172 61.8556 27.8197L61.9229 27.8252C61.9094 27.7992 61.8976 27.7724 61.8826 27.7472C61.7191 27.4703 61.4624 27.3923 61.1775 27.3042Z" fill="#161717"/>
<path d="M56.3631 29.6414L56.3728 29.6491C56.4126 29.8158 56.3087 30.0415 56.2276 30.188C56.2109 30.218 56.1934 30.2476 56.1753 30.2767C56.157 30.3059 56.1381 30.3345 56.1185 30.3627C56.0988 30.3908 56.0784 30.4184 56.0574 30.4455C56.0363 30.4726 56.0146 30.4991 55.9922 30.5251C55.9697 30.5511 55.9467 30.5765 55.923 30.6013C55.8993 30.6261 55.875 30.6503 55.8501 30.6739C55.8251 30.6974 55.7996 30.7202 55.7735 30.7424C55.7474 30.7647 55.7208 30.7863 55.6936 30.8071C55.6664 30.828 55.6387 30.8482 55.6105 30.8676C55.5822 30.887 55.5535 30.9057 55.5243 30.9236C55.4952 30.9416 55.4656 30.9588 55.4356 30.9752C55.4055 30.9917 55.3751 31.0073 55.3442 31.0222C55.3134 31.0371 55.2822 31.0512 55.2506 31.0644C55.2191 31.0777 55.1872 31.0901 55.155 31.1017C55.1228 31.1133 55.0903 31.1241 55.0576 31.1341C55.0249 31.144 54.9919 31.1531 54.9587 31.1614C54.1476 31.3709 53.3127 31.0112 52.6228 30.6091C52.5431 30.5676 52.5092 30.5564 52.458 30.4798C52.73 30.4764 53.0919 30.662 53.3594 30.7403C53.7427 30.8524 54.2344 30.8918 54.6326 30.8437C55.4323 30.7472 55.899 30.2412 56.3631 29.6414Z" fill="#161717"/>
<path d="M56.8818 26.1709C57.1411 26.3951 57.351 27.0447 57.4101 27.3771C57.3312 27.5432 57.0964 27.9418 57.1441 28.1068C57.2326 28.1306 57.3093 28.1507 57.3876 28.2008C57.4878 28.265 57.5698 28.3953 57.6297 28.4943C57.7508 28.6943 58.5355 30.2465 58.5655 30.387C57.8315 29.819 57.7202 29.7349 57.4227 28.8273C57.3639 28.6478 57.3041 28.4432 57.1954 28.2888L57.1445 28.2974L57.0645 28.514L57.0251 28.529C56.8551 28.0738 57.0274 27.6307 57.0271 27.1641C57.0269 26.8249 56.9535 26.5006 56.8818 26.1709Z" fill="#161717"/>
<path d="M63.6542 32.5457L63.6883 32.5906C63.705 32.6616 63.6972 32.6871 63.6745 32.7585C63.2965 33.9502 62.7863 34.6097 61.6639 35.1796L61.6177 35.1257C61.6267 35.0603 61.6245 35.0557 61.6505 34.9837C61.8233 34.5063 62.387 34.1475 62.6867 33.7449C62.9266 33.4227 63.1108 33.0211 63.3789 32.7264C63.4556 32.6422 63.5527 32.5934 63.6542 32.5457Z" fill="#161717"/>
<path d="M61.4987 33.1895C61.6568 33.2084 61.8224 33.2364 61.9597 33.3236C62.0649 33.3905 62.0805 33.4554 62.1129 33.5705C62.0942 33.6694 62.0741 33.7388 62.0144 33.8213C61.6163 34.3717 60.86 34.4158 60.2486 34.5155C60.1153 34.5371 59.9451 34.5505 59.8166 34.4983C59.7334 34.4646 59.7001 34.4374 59.679 34.3477C59.6579 34.2581 59.7465 34.1086 59.7967 34.0386C60.1901 33.4898 60.8651 33.2785 61.4987 33.1895Z" fill="#161717"/>
<path d="M58.1235 39.7266C59.0343 39.7412 62.1956 39.9622 62.9169 40.2448C63.1256 40.4308 63.1073 40.7575 63.1286 41.0177C62.9343 41.0286 62.5578 40.7009 62.3248 40.6396C60.9957 40.2897 59.3355 40.4684 58.1235 39.7266Z" fill="#161717"/>
<path d="M53.9668 53.1448C53.9942 53.4019 52.8675 55.3615 52.6789 55.7392C52.0498 56.9984 51.4947 58.3357 50.996 59.6535C50.7446 60.3177 50.5401 60.9974 50.26 61.6508C50.2442 61.6065 50.2378 61.5974 50.2345 61.5473C50.2055 61.1203 50.4924 60.4975 50.6174 60.0872C51.411 57.4813 52.2919 55.3147 53.9668 53.1448Z" fill="#161717"/>
<path d="M38.4688 53.504C39.0493 53.778 39.5994 54.1788 40.139 54.5269C41.1298 55.1661 42.1252 55.8033 43.0615 56.5223C43.6956 57.0092 44.2926 57.5479 44.9043 58.0631C44.4183 57.9474 43.8953 57.5252 43.472 57.2588C42.1675 56.4377 39.3505 54.6834 38.4688 53.504Z" fill="#161717"/>
<path d="M59.469 31.8973C59.5404 31.9084 59.5932 31.9261 59.6587 31.9566C59.4712 32.0315 59.2981 32.1092 59.1483 32.249C58.7546 32.6167 58.4095 33.5081 58.4108 34.0533C58.4117 34.4635 59.1092 34.6303 59.3782 34.8807L59.3664 34.9606C59.2706 35.0275 59.1519 35.0736 59.0329 35.0731C58.8725 35.0726 58.7413 34.9697 58.6267 34.8681C58.2831 34.564 58.2394 34.2917 58.2081 33.8526C57.6518 34.7756 57.202 35.7407 56.7708 36.7278C56.555 37.1791 56.2976 38.1872 56.0283 38.5272C56.3931 36.7636 57.0036 35.235 57.8588 33.6593C58.2289 32.9775 58.6773 32.1319 59.469 31.8973Z" fill="#161717"/>
<path d="M54.2807 24.6147C54.7442 24.6101 55.3082 24.7889 55.6947 25.053C55.7882 25.1169 55.8257 25.148 55.8428 25.264C55.6076 25.4361 54.787 25.1512 54.4359 25.1736C52.9429 25.2688 52.3284 27.0414 51.4925 28.0303C51.3292 28.243 51.1674 28.4774 50.9522 28.6405C50.7773 28.7731 50.5976 28.8308 50.3786 28.8042L50.3599 28.7388C51.4411 28.2895 51.7325 26.6617 52.3904 25.7803C52.8586 25.1531 53.5049 24.7276 54.2807 24.6147Z" fill="#161717"/>
<path d="M54.2516 23.1608C55.0325 23.225 56.0628 23.2842 56.7671 23.6401C56.9478 23.7314 57.125 23.8686 57.1864 24.0707C57.2565 24.3011 57.1625 24.5464 57.0434 24.7431C56.5276 25.595 54.8488 24.2397 54.1727 24.1133C53.7387 24.0321 53.2706 24.1708 52.85 24.2682C53.0208 24.1852 53.1811 24.0898 53.3457 23.9957C54.001 23.6212 54.3628 23.695 55.0605 23.8871L55.0662 23.8532C54.9258 23.6953 54.5346 23.6218 54.3244 23.5935C53.2606 23.45 51.4397 25.0631 50.5903 25.711C50.8334 25.3292 51.0817 24.9524 51.3806 24.6117C52.1722 23.7095 53.06 23.2362 54.2516 23.1608Z" fill="#161717"/>
<path d="M54.1889 25.4544C54.5196 25.4283 55.5649 25.3145 55.8067 25.516L55.7941 25.5726C55.7099 25.6221 55.6296 25.6728 55.5501 25.7298C55.6823 25.8476 55.888 25.7511 56.0237 25.8834L55.9923 25.9398L55.8033 25.9878L55.8024 26.0556C55.9391 26.1282 56.0853 26.1813 56.2291 26.2381C56.0886 26.2593 55.9488 26.2839 55.8095 26.3119L55.775 26.3998L55.6835 26.3802L55.6822 26.3872L55.7326 26.4215C56.0015 26.4696 56.2319 26.4188 56.4958 26.3669C56.3811 26.4761 56.265 26.5917 56.1282 26.6727C55.7143 26.9177 55.4393 26.4188 55.1508 26.2158C55.0297 26.1305 54.8543 26.0935 54.7131 26.0534C55.3869 26.6399 55.4344 27.1435 55.802 27.914C55.8945 28.0783 56.0051 28.2349 56.1078 28.3931C54.9241 28.5105 53.4324 28.536 52.3542 28.0078C52.2923 28.0349 52.2176 28.0748 52.1516 28.087C52.0268 28.1101 51.9994 28.092 51.8994 28.0282C51.8657 27.8882 51.8842 27.8049 51.9471 27.6751C52.2163 27.1194 53.1291 26.0334 53.647 25.6912C53.8139 25.5809 54.0011 25.5179 54.1889 25.4544ZM53.5928 26.9352C53.2618 27.1624 52.9462 27.4003 52.6695 27.6936L53.244 27.9447L53.9119 28.0674C53.8044 27.7035 53.6107 27.3133 53.5928 26.9352Z" fill="#161717"/>
</g>
</g>
</g>
<defs>
<clipPath id="clip0_9077_18588">
<rect width="90" height="90" fill="white"/>
</clipPath>
<clipPath id="clip1_9077_18588">
<rect width="90" height="81" fill="white" transform="translate(9 1)"/>
</clipPath>
</defs>
</svg>
