<svg xmlns="http://www.w3.org/2000/svg" viewBox="0 0 90 90"><defs><style>.cls-1,.cls-2{fill:#171717;}.cls-1{stroke:#000;stroke-miterlimit:10;stroke-width:0.5px;}</style></defs><g id="Layer_8" data-name="Layer 8"><path class="cls-1" d="M27,75.86c-.13-.1-.25-.26-.4-.31a30.17,30.17,0,0,1-6.23-2.83A9.33,9.33,0,0,1,17.62,70c-.38-.57-.42-.56-1.13-.11a2.64,2.64,0,0,1-2.7.41,2,2,0,0,1-1.26-1.81,9.84,9.84,0,0,1,.81-4.14,5.67,5.67,0,0,1,.33-.65,2.69,2.69,0,0,0,.39-2.16c-.24-1-.38-2-.55-3a4.39,4.39,0,0,1,0-.89,16.35,16.35,0,0,1,1.25-6.27,19.14,19.14,0,0,1,4.18-6.67,21.44,21.44,0,0,1,4.84-3.32,13.46,13.46,0,0,1,4.43-1.77c.14,0,.27-.13.41-.14,2-.11,4-.31,6.07-.27a18.67,18.67,0,0,1,4.19.66,1.2,1.2,0,0,0,1.06-.1l1.67-1.07a7.54,7.54,0,0,0-.68-.77,1.25,1.25,0,0,1-.33-1.36,6.62,6.62,0,0,0,.24-1.14c.12-1.58.16-3.17.32-4.74a2.82,2.82,0,0,1,.8-1.83A64.09,64.09,0,0,1,48.28,23a42.24,42.24,0,0,0,4.1-3.71,43.55,43.55,0,0,1,5.11-4.28c.84-.6,1.59-1.34,2.38-2,1-.88,2-1.76,3-2.68a1.49,1.49,0,0,1,1.53-.24,2,2,0,0,1,.78.42,26.92,26.92,0,0,1,3.46,3c2.12,2.53,4.06,5.21,6.08,7.82.71.92,1.45,1.82,2.17,2.73a2.38,2.38,0,0,1-.16,3.33c-1.27,1.17-2.6,2.28-3.92,3.41l-2.27,1.92c-1.47,1.24-2.94,2.51-4.43,3.73a44,44,0,0,0-4.65,4.09,21,21,0,0,1-2,1.76,1.24,1.24,0,0,1-.55.18,23.72,23.72,0,0,1-6,.62c-1,.52-2.23.11-3.33.53-.93.36-1.81,0-3.23-.91l-.86.86a24.26,24.26,0,0,0,2,2.44c2.16,2,3,4.64,3.78,7.33-.09,1.84.81,3.56.63,5.41a4,4,0,0,1-.27,1.43A7.12,7.12,0,0,0,51,62.27c-.41,2.57-1.92,4.56-3.39,6.58a17.37,17.37,0,0,1-4.54,4.22c-.81.53-1.69,1-2.54,1.44a.8.8,0,0,1-.06,1.16c-.89.87-1.76,1.75-2.74,2.74-.4-.65-.42-1.1.05-1.54l1.63-1.52a3.4,3.4,0,0,0-2.87,1.22,11,11,0,0,1-1.28,1.27.37.37,0,0,1-.38,0,.42.42,0,0,1-.11-.39c.26-.45.57-.88.86-1.33l.22-.09-.1-.1-.09.22a6.26,6.26,0,0,1-.75,0A1.45,1.45,0,0,0,33.4,77a11.63,11.63,0,0,1-2.07,1.87c-.37-.27-.64-.53-.21-1s1-1,1.59-1.64l-.55-.07a2,2,0,0,0-2.11.88,3.75,3.75,0,0,1-2.17,1.75c-.05-1.31,1.33-1.56,1.72-2.61l-2.66-.34ZM76.34,25.34c-.25-.27-.41-.45-.59-.62a44.58,44.58,0,0,1-5.42-6.31c-.58-.79-1.11-1.63-1.76-2.36C67.33,14.65,66,13.31,64.74,12a1,1,0,0,0-1.44-.23c-.87.74-1.72,1.5-2.58,2.25a34.8,34.8,0,0,1-2.92,2.53,28.77,28.77,0,0,0-3.61,3.08c-1,1-2.12,2-3.22,2.89-1.47,1.24-3,2.41-4.47,3.64s-2.79,2.38-4.17,3.59a1,1,0,0,0-.34.6,6.69,6.69,0,0,0,0,1.95,7.7,7.7,0,0,1,0,4.07.52.52,0,0,0,.08.4,1.24,1.24,0,0,0,1.64.35c.29-.19.54-.43.82-.63,1-.7,1.91-1.42,3.22-1.18.27,0,.47.1.49.42s-.07.46-.39.5a7.29,7.29,0,0,0-3.55,2c.36.33.64.62.95.87s.5.31.72.5a6.46,6.46,0,0,1,.74.74c1,1.11,1.91,2.17,3.59,1.34.12-.06.3,0,.45,0l6.08-.31h.45a3.44,3.44,0,0,0,2.77-1.45c1.47-2.11,3.56-3.57,5.47-5.2C67,33.4,68.44,32.19,69.88,31c.33-.29.69-.55,1-.83A35.8,35.8,0,0,0,76.34,25.34ZM34.61,60.1c-1.46,1.59-2.85,3.15-4.27,4.68-.72.77-1.47,1.51-2.24,2.22a.47.47,0,0,1-.83-.32,18.81,18.81,0,0,1,.5-5.43,21.81,21.81,0,0,0,.41-3.65.66.66,0,0,0-.63-.83c-1.6-.21-2.94-1.3-4.58-1.39-.43-.47-.76-.22-1.11.14-1.3,1.33-2.65,2.6-3.9,4a26.89,26.89,0,0,0-2.29,2.91,2.25,2.25,0,0,0-.29,2.08,14.66,14.66,0,0,0,2,3.88,10.86,10.86,0,0,0,5.12,4.51A26.26,26.26,0,0,1,25.18,74a16.72,16.72,0,0,0,6.11,1.29,20,20,0,0,0,3,0,20.82,20.82,0,0,0,3.06-.39,16.39,16.39,0,0,0,5.23-2.54,22.27,22.27,0,0,0,5.05-5,13.24,13.24,0,0,0,1.22-1.83,19.88,19.88,0,0,0,1.56-5.29,8.23,8.23,0,0,0,0-4.35,11.31,11.31,0,0,1-.3-1.28,13.38,13.38,0,0,0-3.82-7.91,5.54,5.54,0,0,1-.78-1.07,9.88,9.88,0,0,0-4.73-3.83,1.23,1.23,0,0,0-1.37.14c-1.66,1.22-3.36,2.39-5,3.58-.36.25-.9.47-1,.81s.32.75.51,1.12a6.53,6.53,0,0,1,.57,1,.94.94,0,0,0,1.14.7,16.81,16.81,0,0,0,2.8-.24c1.5-.39,3,.17,4.57.26a.69.69,0,0,1,.43,1.06c-.87,1-1.76,2-2.69,3a16,16,0,0,1-1.58,1.3c.73,1.58,1.42,3,2.07,4.5.43,1,.82,2,1.18,3a2,2,0,0,0,1.32,1.36c1.45.5,1.71,1.91,2.19,3.13.07.17-.1.44-.16.67-.2-.11-.48-.17-.59-.34-.43-.66-.77-1.36-1.19-2-.29-.46-.48-.44-1.14-.14a.63.63,0,0,1-.52,0c-.69-.36-1.37-.75-2-1.15Zm3.81-19.25a31.43,31.43,0,0,0-6.32-.77,18.35,18.35,0,0,0-3.54.26,11.24,11.24,0,0,0-2.79.78,25,25,0,0,0-5.27,3.13,8.86,8.86,0,0,0-1.76,1.57,25.89,25.89,0,0,0-2.93,4.88,14.36,14.36,0,0,0-1.48,6.5c.1,1.22.2,2.45.34,3.67,0,.19.27.35.32.41l5.89-6.71c-.54-.23-1.09-.43-1.61-.68-.26-.12-.62-.29-.65-.49a.92.92,0,0,1,.41-.71,12.54,12.54,0,0,1,4.6-1.77,3.77,3.77,0,0,0,2.48-1.09,9.4,9.4,0,0,1,1.17-.91,2.85,2.85,0,0,0,1.21-2.42,9,9,0,0,1,.26-3.38c.26-.71.39-.86.94-.42.78.61,1.52,1.27,2.24,1.94a.73.73,0,0,0,1.06.08C34.69,43.49,36.4,42.28,38.42,40.85ZM14.53,64.34c-.2.55-.33,1-.5,1.36a6,6,0,0,0-.31,2.62c0,.93.7,1.3,1.59.91A2.8,2.8,0,0,1,16,69c.51-.07.58-.25.3-.68A10.19,10.19,0,0,1,14.53,64.34ZM41.34,40.71l3,1.83c.46.3.74.22,1.16-.37s-.09-.62-.32-.82c-.41-.36-.87-.66-1.26-1-1-.93-1.22-1-2.27,0A2.88,2.88,0,0,0,41.34,40.71Z"/><path class="cls-2" d="M44.72,73.68a3.16,3.16,0,0,1-.25.4c-.65.86-1.28,1.74-2,2.55a6.46,6.46,0,0,1-1.27,1c-.07.05-.27,0-.38-.11a.26.26,0,0,1,0-.27c.91-1.15,1.83-2.3,2.78-3.41a1.53,1.53,0,0,1,.76-.35C44.45,73.44,44.58,73.59,44.72,73.68Z"/><path class="cls-2" d="M46.37,73.9c.14.35.33.62.27.73-.53.88-1.11,1.73-1.69,2.57a.39.39,0,0,1-.39.09.44.44,0,0,1-.16-.36,1.86,1.86,0,0,1,.23-.83C45.15,75.39,45.72,74.71,46.37,73.9Z"/><path class="cls-2" d="M48.39,76.78c-.1-.23-.31-.5-.24-.59.43-.7.92-1.36,1.41-2a.38.38,0,0,1,.38-.06.42.42,0,0,1,.16.37,3.79,3.79,0,0,1-.38.93,11.05,11.05,0,0,1-.88,1.16C48.76,76.67,48.59,76.69,48.39,76.78Z"/><path class="cls-2" d="M26.94,75.83a.85.85,0,0,1-.4.87c-.5.39-1,.78-1.5,1.15a.28.28,0,0,1-.39-.39A5.12,5.12,0,0,1,27,75.86Z"/><path class="cls-2" d="M56.54,74.08c-.49.42-.91.78-1.34,1.12,0,0-.25-.16-.26-.26a1.15,1.15,0,0,1,1.16-1.17C56.21,73.78,56.31,73.9,56.54,74.08Z"/><path class="cls-2" d="M53,74.81a3.39,3.39,0,0,1-.51.62,6,6,0,0,1-.72.36c0-.17-.06-.37,0-.5.16-.32.23-.81.79-.63Z"/><path class="cls-2" d="M22.37,76.15c.05.22.12.35.08.4a7.17,7.17,0,0,1-.57.76s-.22,0-.25-.09c-.2-.45.24-.58.43-.84A2.23,2.23,0,0,1,22.37,76.15Z"/><path class="cls-2" d="M48.05,73.25a3.1,3.1,0,0,1-.65.44s-.27-.24-.28-.37a.67.67,0,0,1,.23-.43A4.27,4.27,0,0,1,48.05,73.25Z"/><path class="cls-2" d="M23.82,75.31l-.5.5c-.09-.14-.24-.28-.24-.41s.16-.28.25-.42Z"/><path class="cls-2" d="M20.42,75.41l.5.39c-.13.11-.24.31-.37.32s-.31-.15-.46-.23Z"/><path class="cls-2" d="M43.93,78.17c.08.26.17.39.14.5a2.16,2.16,0,0,1-.25.44c-.1-.08-.3-.2-.29-.23A7.44,7.44,0,0,1,43.93,78.17Z"/><path class="cls-2" d="M20.69,78.11l-.18.38-.42-.39.44-.4Z"/><path class="cls-2" d="M34.16,79l-.46.36c0-.09-.11-.21-.08-.26a.62.62,0,0,1,.28-.25C34,78.85,34.05,79,34.16,79Z"/><path class="cls-2" d="M37.17,79.52a2.51,2.51,0,0,1-.2-.24l.38-.38c0,.08.12.19.1.24A4.07,4.07,0,0,1,37.17,79.52Z"/><path class="cls-2" d="M51.22,72.83a1.41,1.41,0,0,1-.18-.29c0-.06.07-.15.1-.23l.4.41Z"/><path class="cls-2" d="M53.73,73.25a3.56,3.56,0,0,1-.41.17s-.14-.15-.13-.16l.39-.36Z"/><path class="cls-2" d="M51,76.91c-.07,0-.16.12-.22.11s-.15-.11-.23-.17c.08,0,.16-.09.24-.08S50.88,76.86,51,76.91Z"/><path class="cls-2" d="M54.25,76.9c-.07,0-.15.14-.2.12a.79.79,0,0,1-.25-.17.68.68,0,0,1,.24-.1C54.12,76.76,54.18,76.85,54.25,76.9Z"/><path class="cls-2" d="M23.92,78.61c-.08.12-.11.22-.16.23a.44.44,0,0,1-.25-.06s0-.16,0-.16Z"/><path class="cls-2" d="M30.55,79.8l-.15.2c0-.07-.13-.15-.12-.21a1,1,0,0,1,.19-.23Z"/><path class="cls-2" d="M64.28,29.13a8.21,8.21,0,0,1,.66.75.68.68,0,0,1-.13,1c-.34.28-.54,0-.75-.18s-.37-.35-.54-.53a.68.68,0,0,0-.88-.2,2.06,2.06,0,0,1-2.24-.21c-.13-.12-.31-.34-.28-.45a.65.65,0,0,1,.43-.36c.43-.06,1.25.4,1.57-.16-.31-.32-1.58-1.61-1.84-2-.45-.69-.34-.45-1.23,0a2.61,2.61,0,0,1-1.34,0,1.33,1.33,0,0,1-1.31-1.48,12.16,12.16,0,0,1,0-1.35c0-.42.55-.88.41-1a15.08,15.08,0,0,1-1.12-1.24c-.1-.12-.06-.34-.09-.52a1.84,1.84,0,0,1,.53.06,7.19,7.19,0,0,1,1.07.84c.24.21.32-.11.67-.28a2.45,2.45,0,0,1,1.18-.18c.14,0,.86.2.85.28a1,1,0,0,1-.32.54c-.12.1-1.23.06-1.48.42a8.67,8.67,0,0,1,.74.53c.4.37.73.91,1.2,1.11s.91-.08,1.38-.12c.2,0,.4,0,.6,0,.86,0,1.68,0,2.19.9a3.29,3.29,0,0,1,.4,3.09C64.52,28.66,64.4,28.88,64.28,29.13Zm-2.55-3.48c-.08,0-.35,0-.42.16-.19.3.13.34.31.5s.54.7.84,1,.6.78.74.65a2,2,0,0,0,.1-1.12A1.6,1.6,0,0,0,61.73,25.65Zm-3.42,0a1.91,1.91,0,0,0,.47-.26s-.12-.33-.23-.47a7.2,7.2,0,0,0-.92-1c-.09-.07-.24.3-.27.38C57.09,25,57.47,25.62,58.31,25.68Z"/><path class="cls-2" d="M47.52,34.56c-.18-.46-.43-.8-.35-.93a2.84,2.84,0,0,1,4.23-.77,1.28,1.28,0,0,1,.47.72,5.67,5.67,0,0,1-.68,3.55,4,4,0,0,1-2.61,1.7,2.36,2.36,0,0,1-1.25-.29.54.54,0,0,1-.2-.48c0-.14.22-.36.35-.35,1.65,0,2.49-1,3-2.37a3.67,3.67,0,0,0,.18-1.14c0-.14-.16-.34-.31-.43s-.62-.29-.91-.46a.74.74,0,0,0-1.05.19Z"/><path class="cls-2" d="M41.72,71.34c-.08.18-.13.47-.29.56a.56.56,0,0,1-.76-.27,2.72,2.72,0,0,1-.45-.9,7.13,7.13,0,0,0-1.28-2.91c0-.08-.18-.15-.18-.23,0-.32-.09-.76.08-1s.61-.06.89.19a6.68,6.68,0,0,1,1.64,2.89A16.35,16.35,0,0,1,41.72,71.34Z"/><path class="cls-2" d="M38.4,72.63a8.9,8.9,0,0,1-.28.9.43.43,0,0,1-.36.18.41.41,0,0,1-.26-.27,11.71,11.71,0,0,0-1.41-4.26C36,69.09,36,69,36,68.91s0-.44.18-.52a.56.56,0,0,1,.54,0A7.58,7.58,0,0,1,38.4,72.63Z"/><path class="cls-2" d="M44.29,61.11a6.05,6.05,0,0,1,1.31.52,7.6,7.6,0,0,1,2,2.69.67.67,0,0,1-.14.64.75.75,0,0,1-.66-.09c-.22-.18-.29-.52-.5-.72-.7-.67-1-1.71-2-2.1-.13,0-.21-.33-.22-.51S44.22,61.25,44.29,61.11Z"/><path class="cls-2" d="M43.48,68.55a1.48,1.48,0,0,1,0,.42,3.76,3.76,0,0,1-.32.55c-.18-.16-.45-.28-.52-.48-.19-.48-.22-1-.44-1.51-.34-.73-.63-1.54-1.5-1.89-.09,0-.2-.3-.16-.35A.64.64,0,0,1,41,65a1.19,1.19,0,0,1,.7.15C42.59,65.85,43.69,67.5,43.48,68.55Z"/><path class="cls-2" d="M34.18,74.6V73.16a4.47,4.47,0,0,0-.51-2.84c-.08-.11.1-.42.2-.62,0,0,.26,0,.33,0A4.19,4.19,0,0,1,35,74.18a1.68,1.68,0,0,1-.42.42C34.55,74.64,34.43,74.6,34.18,74.6Z"/><path class="cls-2" d="M48.19,62.35c-.64-.74-1.19-1.43-1.8-2.07a13.07,13.07,0,0,0-1.15-.9.39.39,0,0,1-.08-.33c.12-.13.35-.32.45-.28a4.12,4.12,0,0,1,2.91,2.81C48.57,61.78,48.32,62.06,48.19,62.35Z"/><path class="cls-2" d="M46.66,56.32a2.69,2.69,0,0,1,2.74,1.9c0,.11,0,.35,0,.38a.89.89,0,0,1-.55.08,1,1,0,0,1-.42-.4,2.14,2.14,0,0,0-1.92-1.08c-.09,0-.23,0-.29,0a7.68,7.68,0,0,1-.55-.59,3.38,3.38,0,0,1,.58-.27A1.69,1.69,0,0,1,46.66,56.32Z"/><path class="cls-2" d="M32.48,72.45A9.09,9.09,0,0,1,32,73.76a.79.79,0,0,1-.58.25c-.09,0-.26-.26-.27-.41,0-.43.08-.87.08-1.31s-.07-.81-.07-1.22a.42.42,0,0,1,.23-.3c.18,0,.49,0,.53.1C32.17,71.39,32.32,71.94,32.48,72.45Z"/><path class="cls-2" d="M46.68,53.6a2.23,2.23,0,0,1,2.19,1.19c.07.13,0,.38-.12.53s-.26,0-.38,0c-.57-.24-1.13-.52-1.71-.74-.3-.11-.58-.25-.44-.59S46.6,53.67,46.68,53.6Z"/><path class="cls-2" d="M48.6,52.66c-.29,0-.56.09-.73,0a3.48,3.48,0,0,0-1.62-.58c-.12,0-.34-.34-.31-.49a.58.58,0,0,1,.47-.35,3.17,3.17,0,0,1,1.2.41A6.46,6.46,0,0,1,48.6,52.66Z"/><path class="cls-2" d="M45.66,49.81a2.2,2.2,0,0,1,.2-.23,4.89,4.89,0,0,1,1.63.09c0,.1.09.28,0,.34a1.47,1.47,0,0,1-1.75,0C45.71,50,45.7,49.89,45.66,49.81Z"/><path class="cls-2" d="M29.37,71.89c0,.36,0,.6-.05.74a.76.76,0,0,1-.49.2.41.41,0,0,1-.33-.2,1.87,1.87,0,0,1,0-.58c0-.38.21-.69.59-.65C29.21,71.41,29.32,71.79,29.37,71.89Z"/><path class="cls-2" d="M26.35,72.59a2,2,0,0,1-.41-.33.47.47,0,0,1,0-.35c0-.08.12-.15.2-.21s.39-.52.71-.22a.54.54,0,0,1,.08.53A2.9,2.9,0,0,1,26.35,72.59Z"/><path class="cls-2" d="M21.52,69.66c.14.24.31.41.27.5a.48.48,0,0,1-.39.25c-.14,0-.27-.16-.41-.25Z"/><path class="cls-2" d="M44.15,46.34c.09.15.2.27.19.36s-.15.18-.24.26l-.3-.35Z"/><path class="cls-2" d="M45.56,48.35c-.12,0-.23.13-.28.1a.57.57,0,0,1-.25-.26s.06-.16.1-.24Z"/><path class="cls-2" d="M23.55,71.35l-.42.17c0-.08-.07-.22,0-.24a2,2,0,0,1,.41-.2Z"/><path class="cls-2" d="M19.69,68.39c-.07.12-.12.23-.14.22a2.48,2.48,0,0,1-.35-.13s.06-.08.1-.08Z"/></g></svg>