<svg xmlns="http://www.w3.org/2000/svg" viewBox="0 0 90 90"><g id="Short"><path d="M64.91,25.2c.51,0,1.07,0,1.63,0a10.41,10.41,0,0,1,6.08,2.31,1.16,1.16,0,0,1,.36.37,24.05,24.05,0,0,1,2.12,3.61,11.77,11.77,0,0,1,.81,5.76,6.11,6.11,0,0,1-2,3.71,11.76,11.76,0,0,1-4.69,2.73c-.27.08-.33.19-.24.45.17.48.25,1,.46,1.44a5.37,5.37,0,0,1,.32,3.34,11.67,11.67,0,0,1-1.06,3.23,10.92,10.92,0,0,1-6.62,5.47,3.09,3.09,0,0,1-1.65.08c-1.52-.36-3.09-.42-4.59-.93A5.32,5.32,0,0,1,54,55.69c-1.53,2.83-4.1,4.25-7,5.07a5.37,5.37,0,0,1-3.26.17,19.72,19.72,0,0,0-2.52-.31,8.32,8.32,0,0,1-4.39-2.15c-.69-.64-1.27-1.39-1.9-2.1-.22-.26-.43-.53-.66-.81-.92.61-1.73,1.15-2.54,1.67a6.11,6.11,0,0,1-4.91.53,9.33,9.33,0,0,1-4.85-2.9,26.11,26.11,0,0,1-1.76-2,4.57,4.57,0,0,1-.95-2.58,11,11,0,0,1-.2-2,11.76,11.76,0,0,1,.9-3.28,1.53,1.53,0,0,0,.11-.39,9.4,9.4,0,0,1-4.69-3.87A8.12,8.12,0,0,1,14,36.5c0-.65,0-1.3,0-2a4.63,4.63,0,0,1,.59-2.45,13.88,13.88,0,0,1,3.86-4.61A5.83,5.83,0,0,1,22,26.27a5.78,5.78,0,0,1,2.54.22c.44.18.58,0,.68-.59a16.23,16.23,0,0,1,1.23-4.76,8.91,8.91,0,0,1,5-4.48A18.39,18.39,0,0,1,34,15.72,8.82,8.82,0,0,1,37,15.65c.91.12,1.81.36,2.74.48a8.11,8.11,0,0,1,2.13.76c1.1.51,1.06.51,1.9-.23a14.66,14.66,0,0,1,6.72-3.39,9.5,9.5,0,0,1,1.69,0,3.14,3.14,0,0,0,1-.08,1,1,0,0,1,1,0,1.29,1.29,0,0,0,.63.08,8.15,8.15,0,0,1,5.28,2.22A19.13,19.13,0,0,1,63.8,20a2.7,2.7,0,0,1,.46,1.44,17.44,17.44,0,0,0,.26,2C64.61,24,64.75,24.49,64.91,25.2Zm-22.5-6.72a8.65,8.65,0,0,0-3.86-1.08,3,3,0,0,1-.91,0,8,8,0,0,0-5.26.35,7.92,7.92,0,0,0-3.25,1.94,8.71,8.71,0,0,0-2.05,3.62c-.29,1.23-.39,2.5-.58,3.76a4.45,4.45,0,0,0-.16,1.12c.06.4.31.78,0,1.26-.29-.17-.7-.26-.82-.51a8.72,8.72,0,0,1-.47-1.61,16.07,16.07,0,0,0-2.3,0,6.3,6.3,0,0,0-3.57,1.48,18.58,18.58,0,0,0-2.59,2.88,5.62,5.62,0,0,0-1,5c.16.48.14,1,.31,1.49a8,8,0,0,0,1,2A23.58,23.58,0,0,0,18.68,42,3.61,3.61,0,0,0,21,43.14a3.93,3.93,0,0,1,1.43.5c.65.35.66.35.53,1.35-.54-.07-1.08.11-1.61-.23-.23-.15-.49-.07-.64.36a10.08,10.08,0,0,0-.5,3.77,5,5,0,0,0,.91,2.86,10.5,10.5,0,0,0,6,4.5,4.67,4.67,0,0,0,4.13-.6c1-.73,1.8-1.6,2.7-2.4a8.42,8.42,0,0,1,.77-.69c.19-.14.53.06.57.3A2.33,2.33,0,0,1,34.59,55c1,.83,1.95,1.65,2.93,2.4A9.54,9.54,0,0,0,41,59a17.6,17.6,0,0,0,4.23.31,4.79,4.79,0,0,0,1.88-.3,11.34,11.34,0,0,0,4.13-2.43,8.57,8.57,0,0,0,1.62-2.29c.31-.65.65-1.29,1-1.92a1.81,1.81,0,0,1,.46-.59c.26-.18.9.17.78.37-.35.58-.07,1.19-.22,1.77s-.07.91.39,1.1.9.23,1.34.36c1.06.33,2.19.2,3.27.47a3.85,3.85,0,0,0,2.18,0,10.33,10.33,0,0,0,2.73-1.61,9.7,9.7,0,0,0,2.76-3.81,5.32,5.32,0,0,0,.18-4.79,7.63,7.63,0,0,1-.42-1.41c-2.16,0-2.16,0-3-.65a2.5,2.5,0,0,1,2-.92c.92-.11,1.83-.29,2.74-.45a8.38,8.38,0,0,0,2.69-1.42,5.38,5.38,0,0,0,2.65-5.29,11.46,11.46,0,0,0-.5-2.35,13.49,13.49,0,0,0-2.2-4.26,6.36,6.36,0,0,0-2.43-1.63,7.15,7.15,0,0,0-5-.62c-.87.17-1.71.44-2.57.62-.12,0-.39-.13-.4-.22a.56.56,0,0,1,.21-.46c.62-.33,1.27-.62,1.82-.89a9.47,9.47,0,0,1-.88-3.32,3.17,3.17,0,0,0-.68-1.88,16.45,16.45,0,0,1-.91-1.38,9.57,9.57,0,0,0-4-3.51,6.77,6.77,0,0,0-2.26-.75,12.7,12.7,0,0,0-5.79.72c-2.36.95-4.45,2.18-5.68,4.53a11.29,11.29,0,0,1-.64,1,.71.71,0,0,1-.92.23c-.14-.06-.24-.44-.21-.65a4.09,4.09,0,0,1,.36-1.07C41.89,19.2,42.14,18.9,42.41,18.48Z"/><path d="M63.25,65.31a6.1,6.1,0,0,1-2.5,5,12.54,12.54,0,0,1-2.35,1.48A4.71,4.71,0,0,1,56,72a1.29,1.29,0,0,1-.7-.27,14,14,0,0,1-2.81-2.93,5.49,5.49,0,0,1-.68-4.08,6.39,6.39,0,0,1,1.88-3.67,4.61,4.61,0,0,1,2.85-1.24,4.85,4.85,0,0,1,2.38.3,10.49,10.49,0,0,0,1.89.69,1.83,1.83,0,0,1,1.34,1.07A10.61,10.61,0,0,1,63,63.73,7.92,7.92,0,0,1,63.25,65.31Zm-10,.16a8,8,0,0,0,.21,1.64,7.52,7.52,0,0,0,2.54,3,1.48,1.48,0,0,0,1.16.23,5.25,5.25,0,0,0,3.06-2c1-1.36,1.77-2.78,1-4.53a7.63,7.63,0,0,1-.32-1.09c-.14-.54-.55-1-1-1.07-1.24-.07-2.37-.78-3.71-.38a3.16,3.16,0,0,0-2,1.26A4.25,4.25,0,0,0,53.25,65.47Z"/><path d="M72.3,72.57A4.32,4.32,0,0,1,68.54,77a4.41,4.41,0,0,1-2.92-1.07,4.06,4.06,0,0,1-1.17-4.15A4.65,4.65,0,0,1,68,68.5a5.3,5.3,0,0,1,2.21.35c.65.15.93.7,1.23,1.23A4,4,0,0,1,72.3,72.57Zm-3.72-2.63a3.45,3.45,0,0,0-.88.14,3.53,3.53,0,0,0-1.81,2,2.49,2.49,0,0,0,.91,2.6,2,2,0,0,0,2.61.06,2.77,2.77,0,0,0,.51-4.22A1.34,1.34,0,0,0,68.58,69.94Z"/><path d="M46.38,41.34a13.54,13.54,0,0,1-4-3.71,10.59,10.59,0,0,0-1.37-1.39A10.82,10.82,0,0,1,38.83,33c-.17-.34-.33-.69-.51-1-.31-.62-.41-.61-.84-.1a6.6,6.6,0,0,1-5.34,2.72,2.38,2.38,0,0,1-1-.26c-.56-.29-1.1-.64-1.64-1a.92.92,0,0,1-.41-1.07c.1-.48.54-.51.85-.72,0,0,.19.11.3.15.42.19.86.32,1.26.55A2.19,2.19,0,0,0,34,31.84a4.54,4.54,0,0,0,1.11-1.23c.48-.69.87-1.45,1.35-2.15a4,4,0,0,1,4-1.66,1.88,1.88,0,0,1,1,.56,27.4,27.4,0,0,1,3.68,4.43c.37.52.74,1,1.13,1.54s.94,1.23,1.46,1.79a9.43,9.43,0,0,0,1.1.88c.37.28.76.55,1.11.85.55.46.69.49,1.19,0,1.09-1.06,2.16-2.14,3.23-3.21.22-.21.44-.42.64-.65a.88.88,0,0,1,1-.2c.36.12.45.46.44.85,0,1.17,0,2.34,0,3.51,0,.5-.24,1-.21,1.5.06.75.27,1.49.39,2.24a15.9,15.9,0,0,1,.6,4.09c-1.68-.12-3.28.1-4.92-.18a9,9,0,0,0-3.72.08,3.35,3.35,0,0,1-1.66,0,10.52,10.52,0,0,0-2.43-.22c-.53,0-.67-.25-.4-.73a5.09,5.09,0,0,1,.68-.92C45.26,42.49,45.8,41.94,46.38,41.34Z"/><path d="M49.47,18c-.09-.09-.26-.18-.29-.3s0-.4.09-.47a3.75,3.75,0,0,1,2.2-.8.39.39,0,0,1,.26.21c0,.11,0,.34,0,.37A6.33,6.33,0,0,1,49.47,18Z"/><path d="M65.44,28.6a4.3,4.3,0,0,1-.49-.24.33.33,0,0,1,0-.55,2.39,2.39,0,0,1,2-.47c.14.08.18.37.18.57a.46.46,0,0,1-.22.39C66.44,28.42,66,28.49,65.44,28.6Z"/><path d="M47.2,19.22c.06,0,.32.11.36.24a.66.66,0,0,1-.22.51,9.18,9.18,0,0,1-1.16,1,.68.68,0,0,1-.57,0c-.09-.05-.13-.32-.08-.46A1.61,1.61,0,0,1,47.2,19.22Z"/><path d="M46.55,56.39a3.91,3.91,0,0,0,.53.19,3.86,3.86,0,0,0,.49.06c-.08.22-.08.53-.24.66a1.43,1.43,0,0,1-1.89,0c-.25-.21-.23-.42.09-.55A9.13,9.13,0,0,1,46.55,56.39Z"/><path d="M64.76,49a1.7,1.7,0,0,1,.59-1.34.42.42,0,0,1,.72.29,2,2,0,0,1-.6,1.62c-.11.1-.3.23-.39.19a.72.72,0,0,1-.31-.37A1.26,1.26,0,0,1,64.76,49Z"/><path d="M18.43,33.2c0,.21,0,.32,0,.38-.3.41-.59.82-.92,1.19-.08.09-.33.06-.48,0s-.15-.22-.13-.32a1.9,1.9,0,0,1,1-1.41C18,33,18.26,33.15,18.43,33.2Z"/><path d="M60.74,53.83c-.54,0-.89-.19-.9-.5s.36-.55.88-.53c.21,0,.49,0,.61.12s.62,0,.42.41c-.1.2-.11.54-.49.5A4.51,4.51,0,0,0,60.74,53.83Z"/><path d="M30.58,21c.05,0,.26.08.31.19a.54.54,0,0,1,0,.48,4.15,4.15,0,0,1-.7.75.51.51,0,0,1-.45,0,.55.55,0,0,1-.28-.38A1.12,1.12,0,0,1,30.58,21Z"/><path d="M64.28,51.17c.2.09.4.14.41.2a.67.67,0,0,1-.13.44,5.71,5.71,0,0,1-.55.55c-.25.25-.47.16-.66-.06s-.27-.57,0-.77A6.29,6.29,0,0,1,64.28,51.17Z"/><path d="M22.1,48.88c.1.08.27.15.34.28s.08.43.2.59.19.45-.09.62-.46-.06-.62-.25-.1-.23-.17-.33-.6-.15-.37-.51C21.51,49.1,21.81,49,22.1,48.88Z"/><path d="M31.72,52.23a1.29,1.29,0,0,1-1.48.74c-.15-.08-.22-.32-.32-.49a2.49,2.49,0,0,1,.4-.2A8,8,0,0,1,31.4,52C31.5,52,31.63,52.17,31.72,52.23Z"/><path d="M43.28,58.26c-.59,0-.66-.07-.66-.54s.2-.52.57-.49.76.24.75.66S43.53,58.22,43.28,58.26Z"/><path d="M58.23,53.77a4,4,0,0,1-1,0,1.06,1.06,0,0,1-.54-.47c-.14-.22.06-.49.34-.54C57.76,52.69,57.84,53.39,58.23,53.77Z"/><path d="M37.4,54.37c.25.37.52.74.76,1.14.13.21,0,.4-.29.4-.47,0-.69-.35-.88-.66S37,54.6,37.4,54.37Z"/><path d="M29.42,24.43c0,.12.21.29.19.44a3.48,3.48,0,0,1-.27.94c-.05.1-.28.16-.42.17a.42.42,0,0,1-.3-.17,1.5,1.5,0,0,1,.43-1.35C29.12,24.42,29.22,24.44,29.42,24.43Z"/><path d="M24.85,53.32c-.35,0-.73,0-.69-.49,0-.25,0-.54.36-.54s.93.35.94.64C25.48,53.41,25.11,53.29,24.85,53.32Z"/><path d="M49.68,55a.8.8,0,0,1-1.15.63.49.49,0,0,1-.15-.43.75.75,0,0,1,1.17-.48C49.63,54.77,49.65,54.92,49.68,55Z"/><path d="M20,30.26c-.21.31-.4.62-.62.92s-.28.41-.47.49-.31-.63-.12-.89S19.32,30,20,30.26Z"/><path d="M53.88,16.6c.46.08.71.27.73.67s-.11.41-.37.37a1.33,1.33,0,0,1-.47-.17c-.18-.11-.6-.09-.4-.47C53.47,16.81,53.74,16.71,53.88,16.6Z"/><path d="M17.16,36.79c0-.06.19-.34.36-.6a.27.27,0,0,1,.23,0,.86.86,0,0,1,0,1c-.07.1-.08.24-.15.34a.22.22,0,0,1-.2.1.42.42,0,0,1-.24-.21A2.89,2.89,0,0,1,17.16,36.79Z"/><path d="M28.84,53.71c-.16.14-.24.26-.35.31a1,1,0,0,1-.92-.42c0-.13,0-.41.09-.44a.75.75,0,0,1,.57,0A3.19,3.19,0,0,1,28.84,53.71Z"/><path d="M41.06,57.25c0,.07-.07.17-.14.2-.31.12-.76-.11-1.05-.56a.35.35,0,0,1,0-.33.4.4,0,0,1,.33-.13A1.17,1.17,0,0,1,41.06,57.25Z"/><path d="M22.23,46.54l.47-.49c.1.15.33.32.3.44a1.8,1.8,0,0,1-.39.55Z"/><path d="M32.61,19.65c-.17.14-.32.33-.38.31a2.26,2.26,0,0,1-.46-.37,2.34,2.34,0,0,1,.51-.33S32.46,19.47,32.61,19.65Z"/><path d="M19.28,39.13c-.11.18-.15.32-.23.37-.24.13-.6,0-.56-.24s.12-.23.19-.23A2.49,2.49,0,0,1,19.28,39.13Z"/><path d="M56.11,66.08c0,.06.28.21.31.38.07.49-.2.89-.52.88s-.5-.34-.51-.77S55.56,66,56.11,66.08Z"/><path d="M57.48,68.61c0-.5,0-.76.45-.72.22,0,.53-.1.58.29a.62.62,0,0,1-.64.73C57.7,68.9,57.55,68.67,57.48,68.61Z"/></g></svg>