<svg xmlns="http://www.w3.org/2000/svg" viewBox="0 0 90 90"><defs><style>.cls-1{fill:#171717;}</style></defs><g id="Tech"><path class="cls-1" d="M28.93,45.25l-2.39.33a13.53,13.53,0,0,0-2.17.22,4.58,4.58,0,0,1-2.49,0,10.2,10.2,0,0,0-3.43-.16,2.52,2.52,0,0,0-1.92.84c-.94,1.14-2.22.8-3.35.53a2.78,2.78,0,0,1-1.9-2.45,3.44,3.44,0,0,1,1.65-3.11,3,3,0,0,1,3.33.43c.2.18.36.39.56.56s.25.2.37.18c.91-.12,1.82-.29,2.74-.42a8.61,8.61,0,0,1,1.24-.08h7.77v-6H22.27c-.53,0-1.05,0-1.58,0s-.83-.28-.87-.88c-.12-1.77-.23-3.54-.32-5.31a2.38,2.38,0,0,1,.14-1.07c.3-.68.15-1-.44-1.54s-.44-1.55-.16-2.34a5.63,5.63,0,0,1,.79-1.33,2.91,2.91,0,0,1,4.24-.56c1.32,1,1.46,2.59,1.1,4.19a.73.73,0,0,1-.24.38c-1.54,1.22-1.3,2.91-1.32,4.66,2,0,3.87,0,5.76,0a1.63,1.63,0,0,0,.85-.31,5.36,5.36,0,0,1,3.68-1c.31,0,.63,0,1.05,0,0-.38.07-.73.08-1.08V18.19c0-.65,0-.73-.82-.76-2.11-.06-4.23-.09-6.33,0a4.09,4.09,0,0,0-1.4.61,3.32,3.32,0,0,1-3.19-.48,2.35,2.35,0,0,1-1-2.48,2.72,2.72,0,0,1,.52-1.58,3,3,0,0,1,4.43-.83,4.35,4.35,0,0,0,2.91,1c2.82.35,5.65.21,8.46.29a19.69,19.69,0,0,1,.51,5.45c0,1.37,0,2.74,0,4.12A9.58,9.58,0,0,1,38.9,26a7,7,0,0,0,.14,2.3c.05.78.09,1.56.14,2.44,1.24,0,2.44,0,3.64,0,.93,0,.9-.12,1.15-1.26A4.16,4.16,0,0,0,44,27c-.16-.42.32-1.07.17-1.48-.41-1.15.15-2.29-.17-3.47a13.24,13.24,0,0,1-.08-3.62,1.22,1.22,0,0,0-.39-1c-1.6-1.59-1-3.71.68-5a14,14,0,0,1,2.95-.13,2.19,2.19,0,0,1,1.53,1.22A4.84,4.84,0,0,1,49,16.05a1.81,1.81,0,0,1-1.23,1.8c-.39.17-.42.56-.29.95a3.83,3.83,0,0,1,.24,1c.13,3.41.23,6.82.34,10.23a1.59,1.59,0,0,0,.08.31c1.2,0,2.45,0,3.7,0a6.55,6.55,0,0,1,2.94.28c.31.16.62-.05.57-.49-.1-.83-.09-1.65-.18-2.48a46.36,46.36,0,0,1-.1-5.53c0-.22.36-.45.58-.65.06-.05.2,0,.31,0,1.66-.1,3.33-.22,5-.29a1.5,1.5,0,0,0,1-.39,3.73,3.73,0,0,1,5.12.46,3.14,3.14,0,0,1-.09,4,4.28,4.28,0,0,1-2.13,1.22A3.74,3.74,0,0,1,62.9,26a2,2,0,0,1-1.1-.82c-.36-.87-.84,0-1.26-.17a4.19,4.19,0,0,0-1.42,0h-.78c0,.54.12,1,.12,1.52,0,1.11,0,2.22,0,3.33,0,.48,0,.71.68,1,1.27.47,1.59,1.8,1.85,3a5.15,5.15,0,0,1,0,.79c0,1.09.25,1.22,1.33,1a5.6,5.6,0,0,1,1.09-.11c.79,0,1.58,0,2.37,0a21.39,21.39,0,0,0,4.06-.24,4.22,4.22,0,0,1,3.12.34,7.32,7.32,0,0,0,.08-.74c0-1.84,0-3.69,0-5.54a2.1,2.1,0,0,0-.56-1.56,3.56,3.56,0,0,1-.91-1.9,3.1,3.1,0,0,1,.83-2.23,2.42,2.42,0,0,1,2.14-1.09,3,3,0,0,1,2.48,1.26,1.52,1.52,0,0,0,.32.35,1.84,1.84,0,0,1,.77,1.62,2.43,2.43,0,0,1-.7,2c-.88.68-.83,1.55-1,2.5a72.83,72.83,0,0,0-.29,7.38c0,.19-.28.45-.22.55.37.64-.14.81-.5.78-1.69-.13-3.33.3-5,.33-2.64,0-5.28,0-7.92,0H61.09v5a5.91,5.91,0,0,0,2.57-.18A1,1,0,0,1,64,44l5.78-.34a2.57,2.57,0,0,1,.48,0,5.9,5.9,0,0,0,2,.25,3.42,3.42,0,0,0,1.49-1.08,1.88,1.88,0,0,1,2.23-.44,11,11,0,0,1,1.95.86,2.06,2.06,0,0,1,1,1.85,3.5,3.5,0,0,1-1.22,3.07,2.77,2.77,0,0,1-2.53.64,4.31,4.31,0,0,1-2.62-1.16,1.23,1.23,0,0,0-.87-.19c-1.56.08-3.14-.23-4.69.27a3.66,3.66,0,0,1-1.1,0H61.1c-.07,1.09-.14,2.12-.22,3.15s-.17,2.06-.26,3.15c1,0,1.88.57,2.82.1a1.25,1.25,0,0,1,.93,0,6.87,6.87,0,0,0,2.62.29c.71,0,.92.25,1,.92.1,1,.25,2,.31,2.94s0,1.9,0,2.85a1.38,1.38,0,0,0,.49,1.24,3.54,3.54,0,0,1,.76,1A2.57,2.57,0,0,1,69,66.5a2.62,2.62,0,0,1-3.11.74,5.11,5.11,0,0,1-2-1.15A2.22,2.22,0,0,1,63.75,63c1.17-1.4.68-3,.73-4.5,0-.35-.43-.62-.85-.52a12.09,12.09,0,0,1-2.94.31.64.64,0,0,0-.61.77c.12,1.12-.49,1.51-1.45,1.87a7.11,7.11,0,0,1-2.4.55,9.85,9.85,0,0,0-1.88.41c.12,1.43-.26,2.89.29,4.31a1,1,0,0,1,0,.63c-.63,1.85-.12,3.73-.32,5.73h5.33c.37,0,.82-.13,1.1,0,.86.5,1.33.22,1.91-.52A1.61,1.61,0,0,1,65,71.55c.12.08.32,0,.46.06,1.88.62,2.44,1.93,1.59,3.75-.34.74-.63,1.44-1.64,1.67-1.62.38-2.09.35-3.09-1-.13-.18-.12-.24-.39-.2a8,8,0,0,1-4-.14,1.1,1.1,0,0,0-.48,0c-1.06.18-2.12.41-3.18.54a16.91,16.91,0,0,1-2.36.06.68.68,0,0,1-.69-.72c0-1.46-.41-2.88-.36-4.36.1-2.53,0-5.07,0-7.61a5.11,5.11,0,0,0-.15-1.23c-.1-.43-.37-.82-.89-.62-1.37.51-2.8.17-4.3.34,0,.4-.05.81-.05,1.21,0,2.64,0,5.28,0,7.93,0,.55-.08,1.1.75,1a3.15,3.15,0,0,1,.88,4.49c-.59.75-1.25,1.45-2.38,1.2-.65-.14-1.32.1-2-.29a2.47,2.47,0,0,1-1.38-2.09,3.13,3.13,0,0,1,.94-2.85c.21-.17.24-.31.14-.63a5.35,5.35,0,0,1-.11-1.56V62.19a22.41,22.41,0,0,0-3.75-.1c-1.21,0-2.43,0-3.62,0,.12,1.87.08,3.72,0,5.57,0,.81-.37,1.07-1.18,1.07-1.53,0-3.06,0-4.59,0a1.56,1.56,0,0,0-1.13.42,3.57,3.57,0,0,1-5.43-1.08,3.31,3.31,0,0,1-.14-3.2,2.59,2.59,0,0,1,2.08-1.45,4,4,0,0,1,3.7.74,2.75,2.75,0,0,0,2.4.8c.21,0,.42,0,.74,0,0-.41.09-.81.11-1.2,0-.74,0-1.47.11-2.2,0-.21.18-.31-.14-.43s-.79-.46-1.21-.63a1.38,1.38,0,0,1-1-1.42c0-1.69,0-3.37,0-5.21a12.22,12.22,0,0,1-5.59.95,7.33,7.33,0,0,0-1.21.22,1.58,1.58,0,0,1-.77,0c-1.23-.51-2.5-.17-3.74-.27-1.46-.11-2.05.72-2,2.08a10.06,10.06,0,0,1-.25,3.74c-.22.57.19,1,.61,1.34a2.41,2.41,0,0,1,1,2.18,3.41,3.41,0,0,1-1,2.54,3.08,3.08,0,0,1-3.84.3c-1.84-1.3-1.5-3.27-.46-4.83.62-.11.47-.59.48-1s0-1.06,0-1.59c.1-2.46.22-4.91.31-7.37,0-.49.17-.83.69-.88,1.45-.11,2.91-.18,4.35-.34.72-.07,1.39.25,2.1.08a3.37,3.37,0,0,1,2.14.22c.57.26,1.16-.61,1.75,0,1.63-.55,3.33-.11,5.07-.36ZM46.78,32.89h0c-2.22,0-4.44,0-6.65,0a45.88,45.88,0,0,0-6.42.34,6.18,6.18,0,0,0-.73.23c-.54.15-1.28.14-1.57.5s-.19,1.08-.2,1.65c-.1,6.1.54,12.19.32,18.3a23.91,23.91,0,0,0,0,2.54,11.26,11.26,0,0,0,.32,1.81.75.75,0,0,0,.77.65c1.72,0,3.4.42,5.15.36,3.27-.12,6.55,0,9.82-.05.37,0,.82.12,1.09,0,.66-.39,1.34-.19,2-.27a19.33,19.33,0,0,1,2-.3,25.4,25.4,0,0,0,4.52-.32c1.1-.22,1.27-.32,1.3-1.45.2-6.21-.38-12.43.29-18.63a28.27,28.27,0,0,0,0-3.32,1.8,1.8,0,0,0-2-2Zm-9-18.06H29c-.34,0-.65,0-.62.48s-.17.77.44.81,1,.52,1.62.09a1.77,1.77,0,0,1,1.23-.08,16.52,16.52,0,0,0,3.57.31.7.7,0,0,1,.74.82V28.51c0,.63,0,1.26,0,1.9s.19.7.8.52c.19-.06.38-.21.57-.21.42,0,.54-.19.54-.57,0-1.59,0-3.17,0-4.76s.25-3.22.27-4.83c0-.93-.2-1.85-.27-2.78S37.83,15.89,37.79,14.83ZM53.42,73.48c0-4,0-7.83,0-11.64H51.5a5.15,5.15,0,0,0,0,1.63,11,11,0,0,1,.27,3.73c0,2.06,0,4.12,0,6.19,0,2.29,0,2,2.26,2a3.73,3.73,0,0,0,.46-.09c1-.17,1.91-.36,2.87-.52a2.17,2.17,0,0,1,.62,0c.51.08,1,.19,1.52.23a6.1,6.1,0,0,1,1.88.09c.72.31.65-.23.49-.4s.26-.85-.34-.94a21.16,21.16,0,0,0-3.89-.35C56.32,73.52,55,73.48,53.42,73.48ZM13.77,52.23v4.06a3.65,3.65,0,0,1,0,1.41c-.47,1-.14,2.08-.25,3.11-.05.47.15.64.63.65s.66-.12.65-.62c0-1-.05-1.9,0-2.85s.24-1.85.29-2.77c0-.47.12-.91.55-1a8.83,8.83,0,0,1,2-.34c2.5-.13,5,.2,7.53-.29,1-.2,2.07.09,3.09-.32.3-.12.73.09,1.11.15a3.93,3.93,0,0,0,0-.7c-.17-.82-.34-.88-1.26-.79-1.29.14-2.59.29-3.88.33-2,.05-4,0-6,0ZM61,38.25c.29,0,.49,0,.7,0A22.66,22.66,0,0,0,65.31,38a19.7,19.7,0,0,1,4.19.21c1.65.07,3.32-.17,5-.26.78,0,.93-.2.79-.93a13.47,13.47,0,0,1,0-5.69c.13-.66.23-1.32.32-2,0-.35,0-.6-.49-.61s-.88-.1-1.43-.17c.54,1.61.29,3.28.35,4.93,0,.37-.1.82.07,1.08.45.68,0,1-.42,1.28a2.46,2.46,0,0,1-1.44.5,13.82,13.82,0,0,0-4.2.27,3.25,3.25,0,0,1-1.23-.08,7.53,7.53,0,0,0-1.22-.19c-1.29.07-2.59.17-3.88.33a1.05,1.05,0,0,0-.64.57A2.7,2.7,0,0,0,61,38.25ZM21.13,35.12h7.71c.11-.23.23-.45.34-.68a1,1,0,0,0,.12-.28c.16-.71-.05-1-.77-.92a15.13,15.13,0,0,1-2,.26c-1.28-.06-2.55-.24-3.9-.39-.1-1.27-.21-2.5-.29-3.74,0-.36-.1-.57-.53-.61a7.18,7.18,0,0,1-.86-.28c-.29-.07-.52,0-.53.38v.63A32.77,32.77,0,0,0,21.13,35.12ZM61,46.72c1-.06,1.94-.15,2.85-.16,2.42,0,4.84,0,7.26,0a1.15,1.15,0,0,0,1-1.28.46.46,0,0,0-.3-.28c-1.29-.1-2.58-.63-3.86-.3a25.35,25.35,0,0,1-5.14.29h-.95a.71.71,0,0,0-.81.74C61,46.06,61,46.41,61,46.72ZM67,55.46c-2.12-.2-4.15.19-6.28-.29v1.72c0,.48.37.52.65.41a5.38,5.38,0,0,1,4,.13c.17,1.37.34,2.69.51,4h.74c.84,0,.83-.06.66-.9a5.68,5.68,0,0,1-.15-2A11.55,11.55,0,0,0,67,55.46ZM44.85,18.36a7,7,0,0,0,0,2.11,9.26,9.26,0,0,1,.26,3.09c0,1.8,0,3.59,0,5.39v1.38h1.59c0-.48,0-.89,0-1.3-.1-2.51-.21-5-.3-7.52,0-1,0-2.08,0-3.15ZM25.42,64.61c-.26,0-.53,0-.79,0A1.94,1.94,0,0,0,23,67a3.28,3.28,0,0,0,3.18,2A1.35,1.35,0,0,0,27.51,68a5.72,5.72,0,0,0,.24-1.67c0-1.13-.42-1.6-1.54-1.71A6.94,6.94,0,0,0,25.42,64.61ZM55.88,23c.12,2.39.25,4.82.38,7.25,0,.11,0,.27,0,.3a1.3,1.3,0,0,0,.56.17.39.39,0,0,0,.33-.23,3.43,3.43,0,0,0,0-.79c0-1.41,0-2.83,0-4.25a1.75,1.75,0,0,1,.31-1.33l.26-.23c.46.56,1-.2,1.58.12A1.88,1.88,0,0,0,61,23.87c0-.59,0-1.13-.07-1.58C59.26,22.68,57.53,22.09,55.88,23ZM32.48,61.39c0,1.09,0,2.08,0,3.07,0,1.24-.13,1.41-1.35,1.62-.27,0-.56-.13-.85-.17-.9-.14-1.22.13-1.28,1.08,0,.24,0,.49,0,.74h4.74c0-1,0-1.93,0-2.87s.23-1.93.35-2.93ZM73.21,45.7a9.63,9.63,0,0,0,.54,1.38c.39.71,1.22.46,1.82.65.78.25,1.89-1.17,1.94-2.24a2.41,2.41,0,0,0-2.05-2.13C74.16,43.32,73.38,44.17,73.21,45.7ZM23.94,25.85c.28-1.13-.64-1.69-1.39-2.33a1.07,1.07,0,0,0-.74-.12,3.37,3.37,0,0,0-2,2.68,1.12,1.12,0,0,0,.13.44,2.8,2.8,0,0,0,3.51.95,1.31,1.31,0,0,0,.49-.73A3.17,3.17,0,0,0,23.94,25.85ZM47.72,15.5a2.22,2.22,0,0,0-1.29-2.24,2,2,0,0,0-2.29.8c-.77,1.27-.69,1.68.22,2.72a2,2,0,0,0,2.27.49C47.54,17,47.71,16.66,47.72,15.5ZM76.87,25.68a2.86,2.86,0,0,0-.2-.44c-.19-.3-.4-.6-.61-.89s-.33-.53-.56-.62a3.17,3.17,0,0,0-1.48-.3c-1.15.21-1.87,2.1-1.28,3.15a3,3,0,0,0,2.64,1.25A3,3,0,0,0,76.87,25.68ZM42.17,75c.1.54.09,1.06.57,1.31a4.77,4.77,0,0,0,1.68.65,2.33,2.33,0,0,0,2-2c0-.88-1.18-2.09-2-2a2.78,2.78,0,0,0-1.53.61A4.69,4.69,0,0,0,42.17,75Zm2.16-3.14c-.39-3.26.62-6.5.09-9.78l-1.35.06c.07.81.17,1.52.18,2.22,0,2.47,0,4.94,0,7.41a1.17,1.17,0,0,0,.1.37Zm20-50.36c-1.5,0-2,.41-2.06,1.67a2.48,2.48,0,0,0,2.1,2.16,2.44,2.44,0,0,0,2-2C66.42,22.19,65.62,21.49,64.34,21.48ZM27.1,14.87a1.94,1.94,0,0,0-1.94-1.62,2.56,2.56,0,0,0-1.86,2c-.05,1,1.12,1.82,2.44,1.78C26.65,17,27.14,16.25,27.1,14.87ZM12.49,64.37a1.63,1.63,0,0,0,0,.63,2.4,2.4,0,0,0,.64,1,2.39,2.39,0,0,0,1.41.47c1-.09,1.91-2.24,1.32-3-.35-.47-.71-1.06-1.48-1A1.88,1.88,0,0,0,12.49,64.37Zm53.84-1.66A1.68,1.68,0,0,0,64.5,64c-.2,1,.13,1.5,1.16,1.88.19.07.45,0,.61.1.39.25.76.37,1.13,0s.91-.66.93-1.35C68.37,63.38,67.72,62.71,66.33,62.71ZM22.17,44.32c1,0,2.1,0,3.15,0s2.16-.19,3.23-.31a.55.55,0,0,0,.39-.18.71.71,0,0,0,0-.46.57.57,0,0,0-.14-.23c-.89.48-1.89,0-2.77.28a6.42,6.42,0,0,1-3.66,0,3.47,3.47,0,0,0-2,0,6.85,6.85,0,0,1-2,.26,4.42,4.42,0,0,1-.63,0c-.44,0-.53.24-.49.59a.42.42,0,0,0,.69.32,2.75,2.75,0,0,1,1.68-.27C20.49,44.3,21.33,44.32,22.17,44.32ZM64.49,76c1.14,0,1.61-.57,1.61-2,0-1.06-.59-1.56-1.84-1.56-.87,0-1.35.68-1.35,1.89S63.36,76.05,64.49,76ZM14.33,45.92A1.59,1.59,0,0,0,16,44.48a2.56,2.56,0,0,0-2-2.06c-.61,0-1.48,1-1.46,1.76A1.87,1.87,0,0,0,14.33,45.92Z"/><path class="cls-1" d="M51.82,49.71c.28.06.73-.06.59.46-.08.3-.33.54-.4.83,0,.12.23.3.43.53-.73.6-1.47,1.24-2.25,1.84-.11.08-.35,0-.53,0a1,1,0,0,1,.09-.42,5.35,5.35,0,0,1,.61-.71c-1.17.09-1.38,1.76-2.6,1.16l.54-.71c-1.08-.57-1.56.63-2.39.74-.09-.27-.11-.67-.3-.8s-.7,0-1,.3a2.34,2.34,0,0,1-.45.44,1.52,1.52,0,0,1-.43.12c0-.18-.06-.35-.08-.53a2.19,2.19,0,0,1,0-.36c-.11,0-.23,0-.3,0a10.27,10.27,0,0,0-1,.69c-.21.17-.38.15-.49-.06a3.45,3.45,0,0,1-.15-.67l-.78.5s-.08.09-.13.09l-.6,0c.08-.16.17-.31.24-.48a2,2,0,0,0,.06-.34c-.1,0-.24,0-.29,0-.43.38-.85.78-1.27,1.19a1.36,1.36,0,0,1-.14-.31c-.09-.39.52-1-.31-1.15-.1-.82-.29-1.64-.31-2.46,0-1.95,0-3.91,0-5.86a24.1,24.1,0,0,1,.33-2.93c.08-.6.5-.89,1.2-.9,2.22,0,4.44,0,6.65,0a14.18,14.18,0,0,0,1.84-.2,5.22,5.22,0,0,1,3,.57.61.61,0,0,1,.28.46c0,.47.31.45.63.48s.42.28.23.54-.59.61-.82,1c-.08.13,0,.39.06.6l.47-.28.43-.32a7.11,7.11,0,0,1-.24,1.11c-.21.47-.54.89-.7,1.37-.1.3-.31,1,.53.49.26-.15.54.3.36.63s-.57.86-.84,1.31c-.06.11,0,.28,0,.43a2.93,2.93,0,0,1,.37-.1c.14,0,.38,0,.41,0a.91.91,0,0,1,.09.58c-.12.43-.76.62-.61,1.2l-.25.12.14.14ZM39.59,51.38A5.67,5.67,0,0,1,41.51,51c.69.16,1,0,1.24-.6a4.38,4.38,0,0,1,.58-.91L45.87,46c1-1.41,2.08-2.82,3.1-4.25.12-.17.2-.52.12-.62a.83.83,0,0,0-.67-.27,2.31,2.31,0,0,0-1,.59c-1.58,1.86-2.81,4-4.57,5.7a16.09,16.09,0,0,0-1.28,1.56C41,49.52,40.36,50.33,39.59,51.38Zm10.65-9.56c-.8,1.18-1.52,2.29-2.29,3.36s-1.56,1.94-2.28,3-1.35,2-2.09,3.17a8.15,8.15,0,0,1,1,0,1.6,1.6,0,0,0,1.74-.9c1.28-1.86,2.43-3.81,3.69-5.68a1.24,1.24,0,0,0,.23-.56C50.25,43.39,50.24,42.62,50.24,41.82Zm-3.7-.67c-.74,0-1.31,0-1.88,0-.16,0-.33.18-.45.32-1.38,1.62-2.77,3.25-4.1,4.91a3.07,3.07,0,0,0-.63,1.37,12.26,12.26,0,0,0,0,2ZM50,51c-.33-1.57.51-2.95.17-4.48l-3,4.71C48.12,51.59,48.94,50.85,50,51Zm-6.87-9.6c-.73-.33-1.25-.32-1.68.19a13.09,13.09,0,0,1-1.29,1.55c-.8.7-.75,1.52-.59,2.61.6-.84,1.07-1.58,1.62-2.24S42.4,42.12,43.1,41.38Zm-3.55.8.87-.91C39.52,41.18,39.52,41.18,39.55,42.18Z"/><path class="cls-1" d="M25.39,66.05c.19.23.43.4.42.56s-.23.34-.37.51a6.44,6.44,0,0,1-.52-.65A3.48,3.48,0,0,1,25.39,66.05Z"/><path class="cls-1" d="M75.37,44.61a6.38,6.38,0,0,1,.48.81.63.63,0,0,1-.54.76c-.11,0-.33-.17-.32-.24C75.05,45.62,75.16,45.3,75.37,44.61Z"/><path class="cls-1" d="M22.53,25.36c-.25.27-.38.51-.55.56-.33.09-.64-.05-.57-.46a.69.69,0,0,1,.44-.44C22,25,22.22,25.19,22.53,25.36Z"/><path class="cls-1" d="M46.18,15.31a4.12,4.12,0,0,1-.84.47c-.12,0-.31-.17-.46-.27.18-.22.33-.52.57-.62S45.86,15.11,46.18,15.31Z"/><path class="cls-1" d="M74.44,26.57a2.09,2.09,0,0,1-.37-.13.79.79,0,0,1,0-1.31.76.76,0,0,1,1.09.18c.31.34.06.56-.15.78S74.59,26.43,74.44,26.57Z"/><path class="cls-1" d="M45,75.08c-.32.16-.51.33-.63.29a3.54,3.54,0,0,1-.75-.43c.18-.15.39-.46.54-.44S44.65,74.8,45,75.08Z"/><path class="cls-1" d="M65,23.41c-.31.27-.49.56-.7.59a.62.62,0,1,1,0-1.22C64.58,22.83,64.74,23.12,65,23.41Z"/><path class="cls-1" d="M25.88,14.93a3.35,3.35,0,0,1-.6.5c-.07,0-.24-.1-.37-.17a2.65,2.65,0,0,1,.36-.61S25.59,14.79,25.88,14.93Z"/><path class="cls-1" d="M14.08,65.19a4.39,4.39,0,0,1-.59-1c-.09-.44.28-.47.61-.47s.7,0,.6.47A4.39,4.39,0,0,1,14.08,65.19Z"/><path class="cls-1" d="M66.91,64.47c-.3.21-.45.4-.64.44-.41.08-.53-.19-.51-.55a.37.37,0,0,1,.52-.37C66.47,64.05,66.62,64.24,66.91,64.47Z"/><path class="cls-1" d="M65,74.41c-.38.29-.58.57-.83.61s-.39-.27-.58-.42a3.26,3.26,0,0,1,.75-.47C64.48,74.09,64.67,74.25,65,74.41Z"/><path class="cls-1" d="M14.93,44.39c-.36.14-.57.3-.69.25a4.16,4.16,0,0,1-.71-.5c.21-.14.44-.43.61-.4S14.57,44.08,14.93,44.39Z"/></g></svg>