<svg xmlns="http://www.w3.org/2000/svg" viewBox="0 0 90 90"><defs><style>.cls-1{fill:#171717;}</style></defs><g id="Wood"><path class="cls-1" d="M23.06,29.28c-.13,1.07-1,1.74-1.53,2.55-.22.32-.38-.29-.42-.58l.2-.3-.18.32-1.57,1.29c.56,0,.81,0,1.06-.07.42-.06.82-.21,1.24-.24A13.13,13.13,0,0,0,25.21,32a3.13,3.13,0,0,1,1.89.15,14.39,14.39,0,0,0,4.52.77,13.71,13.71,0,0,1,1.4.25,2.88,2.88,0,0,0,1.27,0c.42-.17,1-.3.92-1.09a2.23,2.23,0,0,1,.43-1.63,5.2,5.2,0,0,1,1.81-.67,14.55,14.55,0,0,0,1.49-.52c.2-.09.3-.38.45-.58.39.56.91-.31,1.24.09.49.59.88-.39,1.29,0s.86.19,1.32,0a.83.83,0,0,1,.74.13,2.84,2.84,0,0,0,2,.83.87.87,0,0,1,.69.34c.35.91,1.35.42,1.86.94a13.86,13.86,0,0,1,5.14,1.91,4.74,4.74,0,0,0,3.07.69,1.31,1.31,0,0,0,.25.31c.05,0,.18,0,.27-.07a1.17,1.17,0,0,0-.24-.21,1,1,0,0,0-.3,0,4.31,4.31,0,0,0-.68-.55,5.43,5.43,0,0,1-2.59-3.13c-.4-1.14-.89-2.25-1.23-3.4a5.36,5.36,0,0,1,0-1.6c0-.05.16-.13.25-.12s.24.06.26.13a8.12,8.12,0,0,1,.37,1.53,9.62,9.62,0,0,0,1.42,3.67,5.22,5.22,0,0,0,2.24,2.17c1.26.68,2.43,1.52,3.64,2.28.3.19.3.39,0,.61s-.27.26-.4.38a2.38,2.38,0,0,0,.63.29c.43,0,.87,0,1.3,0l.11.26.15-.14L62,35.83c-.25-1.59-.49-3.18-.74-4.77,0-.06-.17-.1-.26-.15l0,0a5.17,5.17,0,0,0-.93-3,19.36,19.36,0,0,1-1.41-3.51A14.68,14.68,0,0,0,55,17.85c-1.79-1.73-3.34-3.67-5-5.54a4.94,4.94,0,0,0-4.65-1.64,1.42,1.42,0,0,0-1,1.3c0,.55,0,1.09,0,1.63,0,.13-.3.31-.45.31s-.45-.19-.45-.3a8.29,8.29,0,0,1,0-2.28A2.21,2.21,0,0,1,44.9,9.64,5.07,5.07,0,0,1,50.34,11a43.91,43.91,0,0,1,3.5,3.83c1,1.17,1.93,2.46,3,3.57A10.71,10.71,0,0,1,59,22.25a16.79,16.79,0,0,1,.84,2.54,17.13,17.13,0,0,0,1.56,3.62c.58,1.33.76,2.74,1.22,4.08s.52,2.9,1,4.31a4.33,4.33,0,0,0,.36,1,31.39,31.39,0,0,1,2.22,5.41,9.75,9.75,0,0,1,.38,2.18c.19,1.21.41,2.41.56,3.62A7.43,7.43,0,0,1,67.18,51c-.19,1.5-.33,3.05-1.62,4.13l0,0c.11-1.17.22-2.33.32-3.51,0-.2,0-.41,0-.7-1.5,1.88-3,3.62-4.35,5.49A13.32,13.32,0,0,0,59,62.66a.3.3,0,0,1-.6,0,6,6,0,0,1,.6-2.77,23,23,0,0,1,3.78-6.07c1.31-1.59,2.7-3.19,2.86-5.41.53-.62-.2-1.17-.09-1.82.23-1.44-.37-2.77-.78-4.25-.13.27-.17.5-.27.54s-.51,0-.51,0a15.36,15.36,0,0,1-.12-1.57c-.25.74-.38,1.23-.59,1.68a16,16,0,0,1-.79,1.39,15.93,15.93,0,0,1-.92,1.48c-.33.43-.76.78-1.12,1.19-.67.77-1.29,1.59-2,2.31A3.79,3.79,0,0,0,57,51.86a13,13,0,0,1-2.13,4.58A15.47,15.47,0,0,0,52.3,62c0,.11-.11.2-.12.3-.12,1.71-.28,3.43-.31,5.15A18.09,18.09,0,0,0,52.19,70a5.53,5.53,0,0,1-.89,3.52,11.82,11.82,0,0,1-2.06,3,1.6,1.6,0,0,0-.34.69.3.3,0,0,0,.08.28c.13.07.36.14.42.09A1.88,1.88,0,0,1,51,77a1.07,1.07,0,0,0,.46-.11A12.44,12.44,0,0,0,58,70.77c.87-1.92,1.7-3.87,2.65-5.77.31-.63.57-1.3.93-2-.21.72.43,1.35.11,2.1-.06.15.16.52.34.65a25,25,0,0,0,4.83,2.73l.91.39a2.44,2.44,0,0,0-.66-2.6c-1.63-1.34-2.41-3.22-3.33-5a1.54,1.54,0,0,1,0-1.21,5.05,5.05,0,0,1,1.82-2.38,5.71,5.71,0,0,1-.69,1.59c-.71.83-.48,1.56-.11,2.43a11.94,11.94,0,0,0,2.46,3.68,4.1,4.1,0,0,1,1.28,2.5A1.82,1.82,0,0,0,69,69.07a14.24,14.24,0,0,0,2.1,1.15c-.33-1.43-.62-2.7-.92-4a7.69,7.69,0,0,0-1.93-3.78,8.72,8.72,0,0,1-2-3.38c-.15-.44,0-1.08-.63-1.34a.91.91,0,0,1,.9-1,8,8,0,0,0,2.35,5.1,9.69,9.69,0,0,1,2.31,5,17.21,17.21,0,0,1,.69,3.57c0,.25.3.54.5.78.77.89,1.54,1.79,2.34,2.66a1.3,1.3,0,0,1,.29,1.48,8.83,8.83,0,0,0-.23.92c-.09.3-.13.71-.34.87-1.4,1.07-2.46,2.71-4.59,2.56a19.8,19.8,0,0,0-2.86.29,7.79,7.79,0,0,0-2.71.29,1.6,1.6,0,0,1-1.12,0c-1.43-.55-2.89-.21-4.33-.27a6.74,6.74,0,0,0-1.23.26c-.3,0-.67.18-.79-.29l.24-.11-.12-.11-.1.24c-.58.07-1.16.15-1.74.18a10,10,0,0,1-1.22,0c-.37,0-.79-.22-1.09-.09-.53.22-1,.54-1.29-.24,0-.06-.37,0-.54,0a3.94,3.94,0,0,1-2,.18c-1.24-.11-2.51,0-3.75-.07a7.75,7.75,0,0,0-3.85.32,3.17,3.17,0,0,1-1.62,0,12.46,12.46,0,0,0-5.4,0,4.82,4.82,0,0,1-1.14,0,17.18,17.18,0,0,0-3.63.52,5.48,5.48,0,0,1-2.41.08,12,12,0,0,0-3-.26c-.65,0-1.31,0-2,0-3,0-3,0-5.56-1.61-.38-.24-.33-.5-.35-.8s.11-.46.45-.53c.93-.19,1.84-.48,2.78-.64,1.8-.29,1.87-.35,1.43-2.1a3.5,3.5,0,0,1-.08-.64c0-.33,0-.65,0-1a28.94,28.94,0,0,1,.16-3.72c.22.72.46,1.44.66,2.18a5,5,0,0,1,.17,1.1c0,.59,0,1.2,0,1.79.06,1.22.59,1.62,1.74,1.35.21,0,.39-.26.58-.26,2.11,0,3-1.36,3.58-3.17a14.48,14.48,0,0,0,1-4.16,7.43,7.43,0,0,0-1-3.32c-.21-.42-.46-.83-.67-1.26-.13-.26-.52-.53-.12-.81.1-.07.49.15.66.32a6.93,6.93,0,0,1,1.89,6.78c-.29,1.32-.82,2.58-1.26,3.94a5.91,5.91,0,0,0,2.23-1.61c.87-1,1.67-2.11,2.52-3.14a2.49,2.49,0,0,0,.61-2.25,24,24,0,0,0-1.05-3.31A1.47,1.47,0,0,0,31,62.93a3.54,3.54,0,0,1-1.46-.53c-.5-.29-.95-.69-1.43-1-.13-.09-.35-.1-.41-.22-1-1.92-3.05-3.2-3.39-5.53-1.3-2.22-1.75-4.73-2.47-7.15a.9.9,0,0,1-.08-.3c.21-1.69-.45-3.26-.69-4.89a1.78,1.78,0,0,0-.48-1.14c-.54-.39-1.2-.48-1.2-1.44,0-.62-.52-1.21-.63-1.93a6.76,6.76,0,0,1-.08-2.37c0-.23-.14-.48-.16-.72,0-.58-.47-.49-.84-.51s-.45.28-.54.62a22.2,22.2,0,0,0-.6,7.35,12.5,12.5,0,0,0,.73,2.74,27,27,0,0,0,1.26,3.74c.31.66-.08,1.27.23,1.9a4.05,4.05,0,0,1,.33,1.86,23.26,23.26,0,0,1-.41,3,15.82,15.82,0,0,0-.55,3.12.73.73,0,0,1,0,.33c-.78,1.49,0,2.79.53,4.1a11.13,11.13,0,0,1,.74,5,3.35,3.35,0,0,1-1-1.83c-.37-1.15-.84-2.27-1.22-3.42a9.11,9.11,0,0,1,0-5.54,13.63,13.63,0,0,0-.37-9.36c-.48-1.18-.6-2.45-1.18-3.61a5.72,5.72,0,0,1-.24-2.06c-.08-.91-.07-1.83-.23-2.72a3.81,3.81,0,0,1,0-2.64,2.24,2.24,0,0,0,0-1.13A10.15,10.15,0,0,1,16,32.7a4.88,4.88,0,0,1,1.61-2.37,3.42,3.42,0,0,0,1.22-3,12.08,12.08,0,0,1,.59-3.77,12.39,12.39,0,0,0,.38-2.35,9.29,9.29,0,0,1,2.66-5.49,20.62,20.62,0,0,1,5.82-4.85,11,11,0,0,1,5.13-1.49,11,11,0,0,1,3.37.21,4.63,4.63,0,0,0,2.3-.42,4.11,4.11,0,0,1,3.49.62.28.28,0,0,1,.07.28c-.08.1-.26.25-.34.22a4.7,4.7,0,0,0-3.24-.5,7.73,7.73,0,0,1,2.86,1.55,1.24,1.24,0,0,1,.43,1.15,2.21,2.21,0,0,1-.18.42c-.15-.11-.36-.18-.44-.32a1.81,1.81,0,0,0-1.69-1A21.25,21.25,0,0,1,37,10.91c-.3-.07-.64-.3-.9-.23-1.33.34-2.64-.23-4,.2a18.33,18.33,0,0,0-7.85,4.76A11,11,0,0,0,21.36,20a10.81,10.81,0,0,0-.55,3,25.44,25.44,0,0,1-.65,5.56,4.18,4.18,0,0,1-.7,1.58,19.09,19.09,0,0,0-1.1,1.76,3.7,3.7,0,0,0-.22,1c.56-.2.89-.3,1.09-.88A5.29,5.29,0,0,1,20.61,30a1.85,1.85,0,0,0,.51-1.63,11.48,11.48,0,0,1,.39-3.5c0-.08.26-.13.41-.15s.16.2.13.25c-.78,1.49.39,2.94,0,4.5l1.05-.2ZM44,62l.33-.33.32-.32L45,61a3.23,3.23,0,0,0,.85-.35c.27-.23.46-.25.6,0a.5.5,0,0,1-.18.46,20.23,20.23,0,0,0-3.59,3.45,4.29,4.29,0,0,0-1.21,1.94A14.14,14.14,0,0,0,41.09,70a2.55,2.55,0,0,1-.74,1.92,11.15,11.15,0,0,1-2.41,2.54,14.27,14.27,0,0,0-2.22,1.84c-.39.35-.84.7-.39,1.33.34-.3.67-.58,1-.88,1.26-1.18,2.53-2.33,3.75-3.55.46-.45.4-.51.87.25l1.13-1.36,0,0c.16,0,.38,0,.48-.06,2-1.69,3.9-3.4,5.84-5.11a5.32,5.32,0,0,0,.55-.61,7.35,7.35,0,0,1,1.37-1.55c.51-.31.48-.7.66-1.12.32-.73,0-1.55.37-2.19a7.93,7.93,0,0,0,.54-4.1c-.09-1.57.72-2.85,1.2-4.24,0-.15.33-.21.51-.32.08.23.29.48.24.67A25.06,25.06,0,0,1,53,56.07a1.47,1.47,0,0,0,0,1.31A20.15,20.15,0,0,0,56.07,52c-.07,0-.12-.11-.14-.1-1.67.78-1.66.78-1.94-1l-.73.9c-.06-.28-.12-.4-.09-.49a22,22,0,0,0,1.32-5.68.91.91,0,0,1,.32-.53.49.49,0,0,1,.41-.12.44.44,0,0,1,.17.38c-.54.8-.2,1.69-.26,2.53l-.24.11.11.11.1-.25a2.84,2.84,0,0,0,.65,0c.35-.07.73-.34,1-.26.57.14.11.77.37,1.1.05.07.17.09.34.18a29.32,29.32,0,0,0,5.08-6.48,3.79,3.79,0,0,0,.36-1.85,15.72,15.72,0,0,0-.28-2,2.27,2.27,0,0,0-3.37-1.88,6.51,6.51,0,0,1-1.74.69c-1,.07-1.2.74-1.44,1.44a5.12,5.12,0,0,0-.14,1c-.48-.3-1.1-.17-1.17-.83-.08-.84.18-1.71-.28-2.52,0-.08.39-.42.6-.64.15.74.3,1.49.48,2.35.57-1.77,2.39-1.32,3.55-2.35h-4c0-.09-.06-.23-.13-.25a16.79,16.79,0,0,0-5.29-.4c-.9,0-1.16.22-1.1,1.17.1,1.79-1.21,2.77-2.15,3.95-.22.28-.77.31-1.17.42a7.41,7.41,0,0,1-1.21.31,14.17,14.17,0,0,1-3.18.37c-.76-.07-1.53.05-2.28,0a3.79,3.79,0,0,1-1.79-.53,5.71,5.71,0,0,1-2.61-3.47,2.21,2.21,0,0,0-1.29-1.66c-.38-.19-1.65.14-1.63.44.06,1-.7,1.8-.41,2.87a2.37,2.37,0,0,1-.82,2.22,2.09,2.09,0,0,0,.83,3.09,16.37,16.37,0,0,0,2,.36l0,0c.5,1,.5,1-.48,1a4.06,4.06,0,0,1-3-.91c-.16.14-.31.3-.48.44-.54.46-1.17.61-1.22.31-.09-.55.39-.67.76-.89.2-.13.47-.42.45-.6-.1-.65-.3-1.29-.43-1.81-2.28,0-4.41.95-6.75.25a11.07,11.07,0,0,0,.14,1.17c.27,1.24.59,2.46.84,3.69.19.93.18,1.92.46,2.82a34.76,34.76,0,0,0,3.08,7.44c.16.28.36.54.61.92.18-.9.32-1.63.48-2.35a.41.41,0,0,1,.29-.27.41.41,0,0,1,.3.25,9.91,9.91,0,0,1-.18,1.09c-.23,1.14-.32,2.28.66,3.13A14.36,14.36,0,0,0,31,62.16a5,5,0,0,0,2.14.47,15.81,15.81,0,0,0,5.13-.32A8.31,8.31,0,0,0,42.57,60c.37-.44.57-1,.91-1.49.13-.18.47-.41.62-.36.35.13.16.4,0,.64a2,2,0,0,0-.1.62l-.26.1.12.12.11-.25a.89.89,0,0,0,.29-.09,24.1,24.1,0,0,1,4.29-3c.14-.06.23-.24.36-.33a3.72,3.72,0,0,1,.79-.52,3.38,3.38,0,0,0,1.76-1.77c.07-.14.1-.34.21-.41s.38,0,.4.08a.9.9,0,0,1,0,.62,3.21,3.21,0,0,0-1,2c-.09,0-.26,0-.27,0s0-.41-.36-.26a5.13,5.13,0,0,0-1.9,1.68s.42.5-.13.43c-1.14-.14-1.14-.18-1.87.69l-.33.33a.85.85,0,0,0-1,.66l-.33.32-.33.32-.33.33A2.93,2.93,0,0,0,42.18,62c-.22.48-.48.94-.73,1.4a19.26,19.26,0,0,1-5.36,6.66,1.8,1.8,0,0,0-.77,2.37,8.82,8.82,0,0,1,.85-.78,12.08,12.08,0,0,0,4.92-6.47,7.8,7.8,0,0,1,.7-1.42c.08-.14.25-.36.33-.34,1,.25,1.14-.61,1.55-1.12ZM21.79,30.29l-.26.11.12.12.1-.26.26-.1L21.89,30ZM55.45,50.23a1.4,1.4,0,0,0-.33.26s.05.18.08.28c.08-.08.2-.15.24-.25s0-.2,0-.31l.26-.1L55.57,50Zm.33-1.31a2.06,2.06,0,0,0-.57.12c-.05,0,0,.26,0,.39.07,0,.18,0,.22-.06a4,4,0,0,0,.33-.47l.58-.12c-.06-.06-.16-.18-.17-.17A3,3,0,0,0,55.78,48.92ZM24.72,33.23H23.26a.78.78,0,0,0-.84.79,15.13,15.13,0,0,1-.36,2.35A9.85,9.85,0,0,0,22,38.78a22.69,22.69,0,0,0,.24,2.94,13.22,13.22,0,0,0,2.53,0,13.62,13.62,0,0,1,2.37-.31,1.84,1.84,0,0,0,.82-.42c1.59-1.09,1.84-2.78,2-4.49a3.23,3.23,0,0,0-.06-1.12,1.22,1.22,0,0,0-.5-.77c-.47-.21-.34.41-.57.57l-.88.59c.45,0,.82.09,1.17.15.06,0,.13.16.14.25s-.07.26-.12.27c-1.48.11-3,.37-4.18-.9-.09-.1.06-.43.1-.65.95.45,1,.45,1-.52a2.48,2.48,0,0,0-.15-.56L25,34.85c-.44,0-.74-.12-.64-.63.07-.34.2-.68.3-1a.74.74,0,0,0,.3,0,.82.82,0,0,0,.25-.21c-.09,0-.21-.1-.26-.07A1.37,1.37,0,0,0,24.72,33.23ZM43.5,31.49c-.63.1-1.26.19-1.89.31-1.29.24-2.58.55-3.88.74a3.89,3.89,0,0,0-2.32,1.64c-.52.57-.19,1.35-.22,2,0,0,.05.1.07.15a12,12,0,0,0,1,2.49c.29.43.83.74,1.14,1.25.12.21.56.31.84.3,1.26,0,2.49.23,3.78.08a23.79,23.79,0,0,0,3.67-.94c1.11-.32,2.21-2.58,1.89-3.88-.16-.69-.17-1.38-.32-2a1.9,1.9,0,0,0-.72-1.14A4.22,4.22,0,0,0,43.5,31.49Zm-8.18,38.3c3.22-2.9,4.65-4.75,6-7.89-1.06.48-2.05.71-2.54,1.82a13.58,13.58,0,0,1-3.26,3.94,2.39,2.39,0,0,0-.23.22C34.63,68.61,34.63,68.76,35.32,69.79Zm-.16,6c.54-.36.94-.59,1.29-.88A13.35,13.35,0,0,0,38.61,73c1-1.27,2.38-2.43,1.69-4.34-.76.9-1.49,1.86-2.33,2.71a16.38,16.38,0,0,1-1.82,1.28,2,2,0,0,0-1,2A8.24,8.24,0,0,1,35.16,75.81ZM46.23,30.55v-.12c-.65-.15-1.36-.54-1.93-.4s-1.21-.37-1.8,0a3.75,3.75,0,0,1-2.34.17,3.35,3.35,0,0,0-2.57.78.5.5,0,0,0-.09.44.44.44,0,0,0,.4.17c.65-.18,1.28-.49,1.94-.61a6.81,6.81,0,0,1,2.49-.16c.9.19,1.63-.41,2.49-.21A5.59,5.59,0,0,0,46.23,30.55ZM34.72,67.66c.75-.8,1.5-1.51,2.14-2.31s1-1.51,1.58-2.38a2.64,2.64,0,0,0-2,1.18,5.53,5.53,0,0,1-2,2c-.35.18-.37.48-.11.8A3.87,3.87,0,0,1,34.72,67.66Zm-1.13-2.89a2.14,2.14,0,0,1,.19.26c.4.69.42.71.84.3a4.13,4.13,0,0,0,1.46-1.92C34.63,62.81,34.32,64.15,33.59,64.77ZM20.39,34.19c-.94,1.09-1,2.56-.35,4.78A12.16,12.16,0,0,0,20.39,34.19ZM33.81,63.55l-.16-.25a4.24,4.24,0,0,0-.4.31s0,.17.09.26Zm-13-23.19-.15-.25c-.05.08-.16.17-.14.24s.12.19.19.28Zm-4.09-5.24.12-.1-.1-.12s-.1.07-.11.11S16.66,35.08,16.69,35.12Zm.3-1.49s0,.07,0,.09.05.07.07.11l.06-.19Zm39.22,16s-.05.07,0,.09,0,.07.08.1l.06-.18Z"/><path class="cls-1" d="M23.09,28.66l-.55.23c0-.15-.14-.32-.1-.45a2.53,2.53,0,0,1,.44-1c1.45-1.52,2.3-3.44,3.51-5.11a8.26,8.26,0,0,1,1.13-1.16c.27-.25.64-.4.88-.67a8.6,8.6,0,0,1,5.14-2.64,7.69,7.69,0,0,0,1.69-.37c.9-.41,2-.72,2.23-1.87.12-.48.48-.45.74-.34s.31.52.14.83a7.09,7.09,0,0,1-2.65,2.73,15.24,15.24,0,0,1-5,1.9A5.61,5.61,0,0,0,27,23.26c-.86,1.26-1.52,2.66-2.52,3.86A5.91,5.91,0,0,0,23.72,29c-.13.37-.4.28-.66.29l0,0,0-.68.26-.11-.12-.12Zm9.81-9.82a2.75,2.75,0,0,0-2.25,1c.78-.28,1.46-.52,2.13-.79,0,0,.06-.17.09-.26a4.28,4.28,0,0,0,.62,0c.1,0,.18-.14.26-.21-.09,0-.21-.12-.27-.09A4.08,4.08,0,0,0,32.9,18.84Z"/><path class="cls-1" d="M24.39,20.8a12.65,12.65,0,0,1,1-2.31c.91-1.32,1.93-2.57,3-3.8a7.18,7.18,0,0,1,4.19-2.11,19.2,19.2,0,0,1,4.34-.27,4.92,4.92,0,0,1,4.64,2.57A.81.81,0,0,1,41.39,16c-.24.21-.6.24-.6-.1,0-.89-.69-1.12-1.24-1.29a16.55,16.55,0,0,0-5.76-1.1,5,5,0,0,0-2.72.79c-1.6,1.14-3.24,2.24-4.1,4.15a5.64,5.64,0,0,1-2.59,2.3Z"/><path class="cls-1" d="M21.85,55.28c-.14,1.49-.31,3-.4,4.48A6.23,6.23,0,0,0,23,64c.87,1.13,1.89,2.17,2.17,3.68.21,1.17.87,2.29.26,3.53-.07.13,0,.33,0,.48-.07.34.23.79-.24,1-.23.11-.66-.5-.7-1.1s0-1.3,0-2a6.22,6.22,0,0,0-1.72-4.34,7.05,7.05,0,0,1-1.6-2.56,4.86,4.86,0,0,1-.51-2.28c.26-1.18.06-2.37.27-3.52a7.67,7.67,0,0,0,0-4.09,4.78,4.78,0,0,1,0-1.31c0-.23.14-.63.25-.64.55-.06.31.41.37.68A14.12,14.12,0,0,1,21.85,55.28Z"/><path class="cls-1" d="M53.21,23.76c-1.27-.36-2.55-.48-3.45-1.59-.74-.91-1.77-1.58-2.2-2.76-.09-.25-.45-.41-.7-.59-.44-.32-.9-.59-1.31-.93a.86.86,0,0,1-.16-.55.53.53,0,0,1,.41-.12c1.49.56,3.07,1,4.05,2.41a4.47,4.47,0,0,1,.35.69,3.28,3.28,0,0,0,2.15,2.18,7.12,7.12,0,0,1,1,.52c.27.11.56.19.4.53C53.67,23.68,53.37,23.7,53.21,23.76Z"/><path class="cls-1" d="M31.05,32.61l-3.5-1.38a4.71,4.71,0,0,0-4.08-.16c-.25.12-.41.11-.49-.11a.55.55,0,0,1,.1-.48,3.56,3.56,0,0,1,4.29-.88,4.75,4.75,0,0,1,2.22,1.1c.11.14.37.18.57.23C31.29,31.2,31.29,31.2,31.05,32.61Z"/><path class="cls-1" d="M61,30.91a1.16,1.16,0,0,1,0,.32,4,4,0,0,1-.15.6c-.18,0-.43,0-.54-.17a8.8,8.8,0,0,1-1.49-1.88,22.24,22.24,0,0,1-1.69-3.55,31.48,31.48,0,0,0-1.51-3.79c-.07-.18-.11-.37-.24-.8a8,8,0,0,1,2.12,3c1.12,2,2.12,4,3.18,6,.07.12.23.18.35.27Z"/><path class="cls-1" d="M51.19,18.5a7.71,7.71,0,0,1-2.63-1.38c-1.29-.83-2.55-.57-3.86-.43-.15,0-.29.13-.45.16a.7.7,0,0,1-.86-.55c-.07-.42.25-.7.68-.71,1.3,0,2.61,0,3.91,0a.42.42,0,0,1,.16,0c1.3.68,2.76,1.2,3,2.92Z"/><path class="cls-1" d="M57.38,31.14c-1.66-.27-2.2-1.24-2.31-2.78a8.94,8.94,0,0,0-1-2.62c-.2-.48-.1-.91.34-1a.78.78,0,0,1,.7.19,4.62,4.62,0,0,1,1,2.6c-.07,1.23.07,2.34,1.3,3C57.44,30.58,57.38,30.85,57.38,31.14Z"/><path class="cls-1" d="M55.75,62.63c-.1,1.38-.23,2.75-.29,4.13a13.9,13.9,0,0,0,.21,1.56,2.81,2.81,0,0,1-.11.91c-.16.61-.37,1.2-.61,1.94-.66-3-1-5.86.83-8.51Z"/><path class="cls-1" d="M58.39,54.8c-.15-.6.39-.85.64-1.24.85-1.34,1.75-2.65,2.82-4.25.06.55.18.83.09,1a24.67,24.67,0,0,1-1.82,3.16,7.29,7.29,0,0,1-1.74,1.33Z"/><path class="cls-1" d="M46.3,26.74c-.21-.24-.57-.46-.62-.74a6.59,6.59,0,0,1,0-1.6.38.38,0,0,1,.27-.28.41.41,0,0,1,.31.24c0,.43,0,.86,0,1.29a5.93,5.93,0,0,0,.2.91Z"/><path class="cls-1" d="M58.38,54.79a.84.84,0,0,1-.66,1l0,0a.86.86,0,0,1,.65-1Z"/><path class="cls-1" d="M65.56,55.11a.7.7,0,0,1,0,.29.87.87,0,0,1-.2.23c0-.09-.1-.21-.07-.26a1.28,1.28,0,0,1,.31-.24Z"/><path class="cls-1" d="M57.72,55.76c0,.27.08.59-.33.65l0,0c0-.26-.14-.62.32-.66Z"/><path class="cls-1" d="M55.78,62.66a1,1,0,0,1,0-.3.91.91,0,0,1,.21-.23c0,.09.1.22.06.27a1.25,1.25,0,0,1-.31.23Z"/><path class="cls-1" d="M24.38,20.78l-.1.27-.14-.13.25-.12Z"/><path class="cls-1" d="M51.5,18.85l.25.1-.12.11-.09-.24Z"/><path class="cls-1" d="M51.19,18.5l.31.35,0,0-.35-.32Z"/><path class="cls-1" d="M57.39,56.41l-.11.27-.11-.14.25-.09Z"/><path class="cls-1" d="M33.21,53.13a7.27,7.27,0,0,1-3.32-.63,2.51,2.51,0,0,1-1.52-1.68c-.21-.74-.49-.7-1-.48-.08,0-.21,0-.32-.06s0-.25.07-.29c.72-.54,1.46-1.05,2.18-1.57a2.72,2.72,0,0,1,3.08-.53,1.81,1.81,0,0,0,1.4-.1,1.67,1.67,0,0,1,1.66.13c.51.27,1.08.43,1.6.68a8.55,8.55,0,0,0,4.21.65c.14,0,.29.2.44.31-.09.11-.16.26-.28.32-.83.44-1.65.9-2.51,1.29a14.18,14.18,0,0,0-2.12,1A5.32,5.32,0,0,1,33.21,53.13Zm5.64-3.06c-.48-.16-.79-.24-1.08-.35a6.73,6.73,0,0,0-3.63-.52,3.65,3.65,0,0,1-1.77,0,2.41,2.41,0,0,0-1.78.14c-.41.2-1.45-.18-1.28.8.12.68.93.7,1.41.72A23.53,23.53,0,0,0,38.85,50.07Z"/><path class="cls-1" d="M39,43.25a1.37,1.37,0,0,0,.12.38,6.63,6.63,0,0,0,1.79,1.79,21.55,21.55,0,0,1,2.57,2.49,2.52,2.52,0,0,1,.47.83c.21.53,0,1.2-.2,1.09a1.31,1.31,0,0,1-.56-.66,6.22,6.22,0,0,0-2.73-3.06,8,8,0,0,1-1.88-1.92c-.11-.13-.06-.41,0-.62S38.65,43.45,39,43.25Z"/><path class="cls-1" d="M56.72,39.28a12.86,12.86,0,0,1,1.59-1.12,2.45,2.45,0,0,1,3.54,1c0,.06-.09.25-.17.35a.3.3,0,0,1-.24.11.6.6,0,0,1-.25-.2c-.75-.87-1.61-.76-2.61-.47C58,39.14,57.48,39.7,56.72,39.28Z"/><path class="cls-1" d="M58.49,40.12c.06.07.19.17.18.22a4,4,0,0,1-.25.56c-.21.43-.37.86,0,1.28.67.81.19,1.51-.22,2.19-.09.14-.36.17-.55.26,0-.18-.17-.4-.11-.52a2.15,2.15,0,0,0,0-1.84,1.59,1.59,0,0,1,.66-2.1C58.26,40.11,58.38,40.13,58.49,40.12Z"/><path class="cls-1" d="M44,62l-.33.32-1,.2c.18-1,1.32-1.3,1.63-2.17l.32-.33.32-.33.32-.33a.84.84,0,0,0,1-.65l.33-.33.66.06c-.81.91-1.55,1.74-2.28,2.58l-.33.33-.32.32Z"/><path class="cls-1" d="M32.9,44.68c.23-.89.4-1.13.92-1a1.75,1.75,0,0,0,1.66,0,.6.6,0,0,1,.58.11c.18.15.43.54.37.61s-.61.54-.72.47c-.92-.58-1.91-.09-2.84-.27Z"/><path class="cls-1" d="M34.83,53.75a3.87,3.87,0,0,1-.94.36c-.64.06-1.29,0-1.93,0s-1.22.15-2,.25c.32-.51.61-.91,1.27-.9,1.17,0,2.34,0,3.51,0Z"/><path class="cls-1" d="M37.35,42a9.14,9.14,0,0,1,.73,1.42,1,1,0,0,1-.51,1.21c-.08,0-.26-.11-.39-.17C37.78,43.69,36.77,42.86,37.35,42Z"/><path class="cls-1" d="M45,49c-.07.06-.17.22-.27.23s-.25-.13-.34-.23a.53.53,0,0,1,0-.31c.05-.35-.62-.57-.16-1a.31.31,0,0,1,.29,0c.19.3.35.61.51.92C45,48.65,45,48.77,45,49Z"/><path class="cls-1" d="M32.1,41.37c-.21,0-.43,0-.63,0s-.19-.16-.18-.22.1-.35.18-.36a3.36,3.36,0,0,1,1,0c.15,0,.28.2.42.31a2.55,2.55,0,0,1-.43.3.8.8,0,0,1-.31,0Z"/><path class="cls-1" d="M42.06,72.11,41.45,72l.32-.79.2,0c0,.31,0,.62.05.93Z"/><path class="cls-1" d="M47.62,59.94c.12.21.26.34.23.43a.37.37,0,0,1-.29.25.39.39,0,0,1-.24-.3C47.31,60.23,47.47,60.12,47.62,59.94Z"/><path class="cls-1" d="M42.16,68.36c.11.33.2.47.17.5a4,4,0,0,1-.4.32c0-.07-.13-.17-.11-.21A4.6,4.6,0,0,1,42.16,68.36Z"/><path class="cls-1" d="M42.55,66c.05.09.15.18.13.25s-.13.17-.2.25c0-.08-.1-.18-.09-.26S42.49,66,42.55,66Z"/><path class="cls-1" d="M43.66,34.84l.81,0c-.55.9-.55.93-1.14.95-.76,0-1.52,0-2.28,0a3.4,3.4,0,0,1-1-.34c-.1,0-.15-.24-.23-.36.17-.08.35-.25.51-.23a7.76,7.76,0,0,1,1,.36l-.75-1.55c-.62.46-1.27,1-1.95,1.41a.45.45,0,0,1-.42-.07.48.48,0,0,1,0-.42,4.9,4.9,0,0,1,4.8-2,3.65,3.65,0,0,1,2.87,1.77,1.07,1.07,0,0,1-1.19,0c-.64-.42-.84,0-1,.49l-.26.11.12.13Z"/><path class="cls-1" d="M38.6,37.43a8.25,8.25,0,0,1-1-1,1.24,1.24,0,0,1-.08-.75c0-.06.38-.15.39-.13.3.58.57,1.17.84,1.76Z"/><path class="cls-1" d="M29.72,36.82c-.55.55-.81,1.16-1.56.91C28.7,37,28.7,37,29.72,36.82Z"/></g></svg>