<svg width="100" height="100" viewBox="0 0 100 100" fill="none" xmlns="http://www.w3.org/2000/svg">
<circle cx="50" cy="50" r="50" fill="#FEFEFE"/>
<path fill-rule="evenodd" clip-rule="evenodd" d="M20.0531 19.0142C20.0531 19.0219 20.1226 19.13 20.2076 19.2543C20.2925 19.3786 20.6205 19.8601 20.9364 20.3244C21.2523 20.7887 21.5913 21.2864 21.6896 21.4305C21.7879 21.5746 23.013 23.3757 24.412 25.4329C25.811 27.4901 27.0361 29.2911 27.1343 29.4352C27.2326 29.5793 27.4869 29.9526 27.6995 30.2648C27.9121 30.577 28.1664 30.9503 28.2647 31.0944C28.363 31.2385 29.4192 32.7906 30.6117 34.5437C31.8043 36.2967 32.9004 37.9078 33.0476 38.1239C33.1948 38.3401 33.4127 38.661 33.5318 38.8371C33.651 39.0132 33.8514 39.3079 33.9772 39.492C34.1031 39.6761 35.2661 41.3855 36.5618 43.2906C37.8575 45.1957 38.9718 46.8331 39.038 46.9291C39.1042 47.0252 39.3093 47.3264 39.4938 47.5986C39.6783 47.8708 40.0945 48.4827 40.4188 48.9585C41.9484 51.2032 43.4144 53.3592 43.4345 53.3934C43.4492 53.4184 43.3359 53.5719 43.0991 53.8478C42.9025 54.0769 41.5701 55.6397 40.1382 57.3207C38.7063 59.0016 36.3291 61.7916 34.8556 63.5207C33.3821 65.2497 31.3619 67.6205 30.3662 68.7892C29.3705 69.9579 26.9596 72.7872 25.0088 75.0765C23.0579 77.3659 21.135 79.6224 20.7357 80.0911C20.3364 80.5598 20.0053 80.9561 20 80.9716C19.9938 80.9899 20.8976 81 22.5357 81H25.081L25.184 80.8908C25.2406 80.8308 25.7282 80.2643 26.2677 79.6319C26.8071 78.9996 27.484 78.2071 27.7719 77.8709C28.0598 77.5347 28.7714 76.7029 29.3533 76.0225C29.9351 75.3421 30.7475 74.3925 31.1584 73.9122C31.5694 73.4319 32.6001 72.2269 33.4489 71.2343C34.2976 70.2417 35.3283 69.0366 35.7393 68.5563C36.1503 68.0761 37.0016 67.0806 37.6312 66.3441C38.2609 65.6077 38.9725 64.7759 39.2125 64.4958C39.4527 64.2156 40.0075 63.5672 40.4456 63.0549C41.3249 62.0267 42.1611 61.049 43.6446 59.3146C44.1855 58.6822 44.8801 57.8701 45.1882 57.5099C45.4963 57.1496 45.7585 56.8512 45.7708 56.8467C45.7831 56.8421 46.0093 57.1565 46.2734 57.5453C46.5375 57.934 46.8564 58.4027 46.9822 58.5869C47.108 58.771 48.4011 60.6703 49.8558 62.8075C51.3105 64.9448 52.5814 66.8113 52.6801 66.9554C52.7787 67.0995 53.5413 68.2194 54.3747 69.4441C55.208 70.6688 55.9705 71.7888 56.069 71.9329C56.1676 72.0769 56.6759 72.8236 57.1986 73.592C57.7214 74.3605 58.2562 75.1464 58.3872 75.3385C58.5182 75.5306 58.715 75.8196 58.8246 75.9806C58.9341 76.1417 59.7471 77.3366 60.6312 78.6361L62.2387 80.9987L71.1264 80.9994C78.304 80.9999 80.0114 80.9929 79.9999 80.963C79.9886 80.9331 78.4238 78.6241 77.6481 77.4925C77.4997 77.276 73.9564 72.0731 73.0684 70.7678C72.3337 69.6879 70.464 66.9419 70.0589 66.3479C69.804 65.9741 69.3957 65.375 69.1516 65.0165C68.9075 64.6581 68.1144 63.4937 67.3892 62.4291C66.6639 61.3645 65.9503 60.3166 65.8034 60.1005C65.5837 59.7773 64.8382 58.6824 64.2874 57.8737C64.2219 57.7777 63.5886 56.8477 62.88 55.807C62.1713 54.7664 61.4085 53.6465 61.1849 53.3183C60.9612 52.9901 59.9598 51.52 58.9596 50.0514C57.9594 48.5828 56.9782 47.1424 56.779 46.8504C56.5799 46.5584 56.2395 46.0571 56.0226 45.7365L55.6283 45.1535L56.2399 44.4379C56.5762 44.0442 57.1642 43.3567 57.5466 42.9099C58.4964 41.8 59.7855 40.2926 61.1662 38.677C61.8025 37.9326 62.4806 37.1401 62.6731 36.916C62.8657 36.6918 63.5436 35.8994 64.1797 35.1549C64.8157 34.4105 65.9299 33.1072 66.6558 32.2587C67.3816 31.4102 68.4176 30.1986 68.9581 29.5662C69.4985 28.9338 70.2154 28.0955 70.5512 27.7033C71.1529 27.0005 71.9267 26.0956 73.6627 24.0648C74.1485 23.4965 74.7816 22.7564 75.0696 22.4202C75.4587 21.9659 77.5412 19.5267 77.946 19.0509C77.9873 19.0025 77.8645 19 75.4246 19H72.8597L71.3881 20.7246C70.5788 21.6732 67.8767 24.8398 65.3835 27.7615C62.8903 30.6832 59.2028 35.0058 57.189 37.3671C55.1752 39.7285 53.4921 41.6977 53.4486 41.7431L53.3697 41.8257L52.0856 39.9384C51.3793 38.9004 50.7473 37.9726 50.681 37.8765C50.6148 37.7805 50.0352 36.9291 49.393 35.9845C48.7508 35.04 48.1579 34.1689 48.0753 34.0488C47.9928 33.9288 47.2436 32.8285 46.4104 31.6038C45.5772 30.379 44.8147 29.2591 44.7159 29.115C44.6172 28.9709 44.011 28.0802 43.3689 27.1357C42.7268 26.1911 42.1338 25.3201 42.0512 25.2C41.9685 25.0799 41.2907 24.0844 40.5448 22.9878C39.799 21.8912 39.1346 20.9153 39.0684 20.8192C39.0021 20.7232 38.6965 20.2746 38.3892 19.8223L37.8305 19H28.9418C24.053 19 20.0531 19.0064 20.0531 19.0142ZM27.3114 22.9951C27.3326 23.0322 27.8568 23.7933 28.4391 24.6324C28.6168 24.8885 29.1375 25.6417 29.5963 26.3061C30.055 26.9705 30.5309 27.6582 30.6538 27.8343C30.7768 28.0104 31.3572 28.8487 31.9437 29.6972C32.5301 30.5457 33.486 31.9276 34.0679 32.7681C35.2342 34.4527 35.7215 35.157 36.4748 36.2465C36.7515 36.6467 37.0189 37.0331 37.0691 37.1052C37.1194 37.1772 37.3275 37.4785 37.5317 37.7746C37.7358 38.0708 38.0035 38.4572 38.1264 38.6333C38.2493 38.8094 38.9317 39.7951 39.6429 40.8237C40.3541 41.8523 41.5185 43.5355 42.2307 44.5641C43.7951 46.8238 44.2192 47.4368 44.8737 48.3845C45.355 49.0814 45.721 49.61 46.4257 50.6258C46.6033 50.882 47.2242 51.7792 47.8053 52.6197C48.3865 53.4602 49.551 55.1434 50.3932 56.3601C51.2354 57.5768 52.0738 58.7884 52.2562 59.0526C52.7554 59.7753 53.5345 60.9011 53.898 61.4249C54.0758 61.681 54.8011 62.7289 55.5097 63.7535C59.0232 68.8336 60.3521 70.7546 60.6746 71.2197C61.7227 72.731 63.1855 74.8454 64.1734 76.2769L64.7006 77.0407L68.7362 77.041C71.3519 77.0412 72.7684 77.0313 72.7621 77.0129C72.7544 76.99 70.7154 74.0364 68.3919 70.6822C68.1919 70.3935 67.8017 69.8298 67.5248 69.4296C67.248 69.0293 66.876 68.4923 66.6982 68.2361C66.3745 67.7698 64.2714 64.7297 62.2682 61.8324C61.6816 60.9839 61.0561 60.0801 60.8783 59.8239C60.7005 59.5678 60.3286 59.0308 60.0519 58.6305C59.7752 58.2303 59.4033 57.6932 59.2255 57.4371C58.9019 56.9708 56.7988 53.9306 54.7956 51.0333C54.2089 50.1848 53.5835 49.281 53.4057 49.0249C53.2279 48.7687 52.856 48.2317 52.5793 47.8315C52.3026 47.4312 51.9307 46.8942 51.7529 46.638C51.5751 46.3819 51.2624 45.93 51.0581 45.6338C50.8537 45.3376 50.6455 45.0364 50.5953 44.9643C50.5452 44.8923 50.1286 44.2897 49.6695 43.6254C49.2104 42.961 48.7341 42.2733 48.6112 42.0972C48.4882 41.9211 47.6994 40.7815 46.8583 39.5648C46.0172 38.3481 45.0748 36.9858 44.7642 36.5376C44.4536 36.0893 43.9777 35.4016 43.7068 35.0094C43.4358 34.6172 43.173 34.2373 43.1228 34.1653C43.0726 34.0932 42.6559 33.4907 42.1968 32.8263C41.7377 32.1619 41.2616 31.4742 41.1386 31.2981C40.9253 30.9925 39.103 28.3582 36.8095 25.0399C36.2231 24.1914 35.6583 23.376 35.5546 23.2279L35.3659 22.9587H31.3282C28.1063 22.9587 27.2948 22.966 27.3114 22.9951Z" fill="black"/>
</svg>
