<svg width="90" height="90" viewBox="0 0 90 90" fill="none" xmlns="http://www.w3.org/2000/svg">
<path d="M37.3466 74.7486C37.6362 74.7455 37.8638 74.8304 38.1048 74.9893C38.8131 75.4566 39.7141 76.5761 39.8665 77.4225C39.9054 77.6385 39.8606 77.742 39.7382 77.9201C39.5829 77.9149 39.4648 77.8824 39.3323 77.8022C38.7183 77.4302 37.334 75.9047 37.2037 75.1992C37.1678 75.0041 37.2393 74.9009 37.3466 74.7486Z" fill="black"/>
<path d="M37.0711 83.7262C37.2026 83.7216 37.329 83.7227 37.4571 83.7576C37.5877 83.7932 37.6995 83.8695 37.7783 83.98C37.9509 84.2219 37.9876 84.5412 38.1538 84.7897C38.4746 85.2693 38.9359 85.6379 39.2333 86.139C39.3498 86.3355 39.5709 86.7211 39.4954 86.9449C39.4732 87.0107 39.4171 87.0236 39.361 87.057C39.1694 87.0748 38.9978 87.0367 38.8175 86.9703C37.8823 86.6265 37.2826 85.6966 36.8684 84.8453C36.5131 85.0877 36.1946 85.355 35.8846 85.6529C35.6383 85.9317 35.4376 86.2103 35.2634 86.5398C35.0221 86.9964 34.7904 87.9574 34.361 88.2528C34.2645 88.3187 34.2123 88.3231 34.0997 88.3081C33.9939 88.2343 33.9488 88.1218 33.9209 87.9996C33.72 87.1232 34.2316 86.0586 34.692 85.3432C35.2516 84.4741 36.0719 83.9482 37.0711 83.7262Z" fill="black"/>
<path d="M42.2409 5.38139C42.2559 5.38073 42.2708 5.37958 42.2858 5.3794C43.733 5.36126 45.2135 5.63134 46.5723 6.12185C49.3239 7.11522 51.8036 8.83549 54.2077 10.4649C56.0263 11.6976 57.8202 12.9043 59.4443 14.3956C60.1377 15.0324 60.7768 15.7332 61.3842 16.4519C63.4917 18.9459 64.1077 20.8643 64.7235 23.9993C64.9724 25.2665 65.2144 26.5658 65.1508 27.8628C65.095 29.0025 64.6029 30.0625 64.5283 31.196C64.4628 32.1907 64.8056 33.1826 64.8158 34.1821C64.8252 35.1077 64.6885 36.0193 64.6228 36.9397C64.5753 37.6052 64.5897 38.2845 64.6189 38.9508C65.0976 39.0937 65.4632 39.3073 65.7743 39.7076C66.7154 40.9189 66.6997 42.8773 66.5159 44.3241C66.3581 45.5668 65.9463 46.8698 65.4209 48.0104C65.1479 48.6033 64.8254 49.1765 64.5911 49.7864C63.7957 51.8572 63.6429 54.427 61.7301 55.8824C60.9784 56.4543 60.1695 56.3877 59.2899 56.2642C59.1316 57.5062 58.8568 61.3257 59.063 62.4131C60.2975 63.3603 61.8687 63.7096 62.9986 64.8294C63.7758 65.5998 64.3858 66.5854 65.0147 67.4797C65.5749 68.2735 66.1514 69.0552 66.7442 69.8251C67.1431 70.3505 67.5876 71.0344 68.1509 71.3902C69.0059 71.9303 70.4888 72.3008 71.4697 72.6471C75.0802 73.9218 78.711 75.0981 81.816 77.4163C82.2858 77.767 82.8562 78.146 83.1834 78.64C83.3018 78.8189 83.4255 79.0647 83.3547 79.284C83.3271 79.3696 83.2566 79.4264 83.1792 79.4669C82.6525 79.7427 82.1225 79.2354 81.7666 78.9128C79.4494 76.8122 76.6536 75.7308 73.7574 74.6909C72.3425 74.1725 70.9194 73.6777 69.4881 73.2065C69.9983 73.6941 70.4986 74.2101 70.9157 74.7803C71.4309 75.4849 71.7841 76.2835 72.2478 77.0191C72.7732 77.8527 74.9843 80.6689 74.9859 81.4199C74.9862 81.5837 74.9535 81.8321 74.8084 81.9346C74.5256 82.1346 73.7095 82.0847 73.3556 82.1126C72.2347 82.2008 71.0996 82.4495 70.0256 82.7785C67.8963 83.4308 65.4317 84.9545 63.5263 86.1252C62.806 86.5677 62.0921 87.0719 61.3342 87.4441C61.0822 87.568 60.7899 87.6831 60.5043 87.6612C60.3363 87.6484 60.1912 87.5704 60.0912 87.4343C59.9289 87.213 59.9216 86.9055 59.938 86.6427C60.0068 85.5394 60.3269 84.3849 60.5533 83.302C60.932 81.4542 61.3278 79.6101 61.7407 77.7697C62.0763 76.2843 62.4809 74.7842 62.658 73.2702C62.8938 71.254 62.2513 69.7503 61.0108 68.1906C61.2144 69.5374 61.5676 70.4592 61.1132 71.8098C60.4252 73.8542 59.0191 76.5214 57.9826 78.4052C57.0518 80.0967 51.9393 88.3441 50.6284 88.9312C50.5224 88.9787 50.4042 88.9928 50.2959 88.9427C50.0647 88.8354 50.0364 88.5331 50.038 88.3107C50.0412 87.8667 50.2524 87.3963 50.3564 86.9674C50.6062 85.9378 50.4849 84.7411 50.232 83.7251C49.8632 82.2433 49.2137 81.5194 47.9243 80.7389C47.3171 81.1853 46.6335 81.6429 46.1402 82.2146C45.309 83.1779 43.4246 86.6051 42.3839 86.9222C42.2498 86.963 42.0472 86.9464 41.9294 86.8622C41.8226 86.7859 41.7555 86.6924 41.7303 86.5626C41.689 86.3502 41.7754 86.1557 41.8874 85.9798C42.1663 85.5418 42.607 85.1485 42.9365 84.7361C43.4714 84.0665 43.9442 83.3494 44.4225 82.6389C44.421 82.547 44.4197 82.4542 44.4292 82.3628C44.5069 81.6144 46.6701 80.2287 47.2714 79.7681C47.8454 79.3215 48.4129 78.8668 48.9741 78.4042C49.8889 77.6634 50.7783 76.8931 51.6422 76.0933C52.5061 75.2936 53.3427 74.4663 54.152 73.6113C55.1398 72.5753 56.0925 71.5552 56.8402 70.3236C57.0248 70.0193 57.2637 69.6432 57.3355 69.2902C57.5185 68.3902 57.4442 67.3511 57.4926 66.4325C57.5639 65.0811 57.7091 63.7341 57.8069 62.3846C57.8575 61.686 57.8429 60.9742 57.9161 60.28L57.9225 60.2243C57.4189 61.0717 57.0482 62.0105 56.6082 62.893C55.3557 65.4057 53.7696 67.5895 51.5189 69.2968C50.5982 69.9953 49.6077 70.6024 48.6851 71.3001C47.4943 72.2007 46.5634 73.2118 45.1088 73.7008C43.5548 74.2144 40.1691 74.0978 38.5004 73.9387C36.9498 73.7909 35.0673 73.4048 33.7538 72.5557C33.2606 72.237 32.8376 71.8219 32.4538 71.3805C31.799 70.6276 31.2567 69.776 30.6198 69.0057C30.6452 69.6743 30.7393 70.3636 30.8487 71.0241C31.4834 74.8535 33.2911 78.4767 36.3923 80.8849C37.1674 81.4867 38.0648 81.8613 38.8478 82.4314C39.0996 82.6147 39.3123 82.8301 39.4726 83.0987C39.8507 83.7326 40.0612 84.5116 40.3467 85.1947C40.7495 86.1587 41.6839 87.8125 41.8058 88.766C41.8277 88.9365 41.8298 89.0771 41.7203 89.2178C41.6472 89.2494 41.6084 89.281 41.5262 89.2696C40.6115 89.1378 39.0749 84.7967 38.5481 83.8786C38.4441 83.6972 38.324 83.5261 38.1684 83.385C37.7928 83.0442 37.2777 82.8223 36.8356 82.5775C36.4278 82.3518 36.0424 82.1098 35.6701 81.8293C33.6879 80.3362 32.1692 78.2571 31.1404 76.0148C30.8598 75.4049 30.611 74.7822 30.3941 74.1469C30.1771 73.5116 29.993 72.8668 29.8419 72.2127C29.6923 71.5133 29.5836 70.8075 29.516 70.0955C29.447 69.2894 29.4899 68.3764 29.2315 67.608C29.1674 67.4175 29.0311 67.2579 28.9091 67.1011C28.7711 68.0894 28.7655 69.0791 28.7701 70.0741C28.7807 72.3154 28.9704 74.4239 29.6193 76.5769C29.9115 77.5463 30.3286 78.4636 30.6546 79.42C31.1274 80.8076 31.5142 82.2226 32.048 83.5897C32.4904 84.723 33.1515 85.7997 33.5123 86.9533C33.4549 87.1156 33.3859 87.305 33.271 87.4349C33.1945 87.5215 33.1045 87.5737 32.9856 87.5725C32.8592 87.5714 32.7485 87.519 32.6575 87.4347C32.2548 87.0616 32.0336 86.4124 31.8096 85.9185C31.3763 84.9628 30.9455 84.0075 30.5855 83.0211C30.207 81.984 29.9013 80.9195 29.546 79.8739C29.0531 78.4237 28.4652 76.9922 28.1435 75.4902C27.7968 73.8719 27.685 72.2401 27.6386 70.5894C26.0372 73.4527 24.736 78.6762 24.2854 81.967C24.1725 82.7919 24.0942 83.648 24.0859 84.4803C24.0788 85.206 24.1316 85.9589 24.0775 86.6805C24.0649 86.8474 24.0426 87.0547 23.9503 87.1989C23.9272 87.235 23.9126 87.2491 23.8829 87.2838C23.7869 87.3377 23.7131 87.3485 23.6051 87.3436C22.9726 87.3148 22.2637 86.9412 21.6773 86.7129C20.2547 86.1593 18.79 85.6427 17.4342 84.9399C16.1835 84.2916 15.0217 83.4903 13.7486 82.8808C13.4167 82.7233 13.0793 82.5789 12.7361 82.4477C12.1411 82.2269 11.2531 82.0789 10.8356 81.5772C10.7196 81.4377 10.6756 81.2844 10.694 81.1039C10.733 80.7219 11.0444 80.4031 11.3166 80.1591C12.0328 79.5172 12.9075 79.0252 13.7183 78.5138C15.1683 77.5994 16.6203 76.7061 17.9289 75.5917C14.5934 76.5732 10.7329 77.9087 7.8875 79.9202C7.625 80.1058 7.33768 80.3109 6.99847 80.2362C6.85991 80.2056 6.73495 80.1222 6.66207 79.9995C6.58843 79.8756 6.57712 79.7292 6.61285 79.5915C6.682 79.325 6.91679 79.1138 7.12239 78.9446C9.27914 77.1704 13.9411 75.5507 16.6432 74.7061C17.8981 74.3138 19.2589 74.009 20.4258 73.3938C22.0411 72.5421 24.1635 70.4048 25.7026 69.2057C26.338 68.7107 27.0831 68.3285 27.7741 67.9148C27.914 67.3011 27.9901 66.6746 28.1074 66.0563C27.6161 65.285 27.0786 64.5521 26.6385 63.7475C25.2085 61.1331 24.8969 58.3369 24.3769 55.4575C24.3236 55.4373 24.2709 55.4157 24.2187 55.3926C23.1943 54.9391 22.4539 54.2767 22.0568 53.2158C21.6519 52.1339 21.6351 50.9294 21.3248 49.8153C20.63 47.3196 18.9397 43.6583 19.4256 41.0796C19.5251 40.5515 19.7775 40.048 19.9977 39.5611C20.2405 39.0241 20.4463 38.7689 20.9973 38.5598C20.6892 37.2866 20.2733 36.0363 19.8847 34.7857C19.6927 34.1677 19.4777 33.5473 19.3452 32.9133C19.0389 31.4489 19.3591 29.976 19.2045 28.5002C19.0435 26.9648 18.383 25.5309 18.3528 23.9699C18.3379 23.2038 18.5146 22.479 18.7853 21.7663C19.405 20.1351 20.4217 18.7995 21.2684 17.2951C21.7819 16.3828 22.0406 15.3734 22.5293 14.4561C23.8457 11.9846 26.6191 10.6317 29.0666 9.52437C30.1968 9.01302 31.153 8.73009 32.3549 9.1838C32.9179 8.68452 33.4873 8.20358 34.1264 7.80262C36.4493 6.34554 39.5118 5.48527 42.2409 5.38139ZM41.8799 6.57242C39.0456 6.77297 35.125 7.91159 33.2436 10.0976C32.7235 10.7018 32.3977 11.3467 32.0996 12.0787C33.1094 10.7724 34.5072 9.16507 36.2557 8.93972C36.459 8.91353 36.5967 8.91784 36.7806 9.00881L36.8175 9.07754C36.597 9.61973 35.5358 10.0084 35.0736 10.3697C33.3196 11.7404 32.4176 13.7177 31.9483 15.8393C32.929 14.1234 34.648 12.2446 36.6128 11.7145C36.7951 11.6653 37.067 11.6096 37.2454 11.7039C37.3484 11.7583 37.4187 11.8275 37.4476 11.9425C37.4646 12.0105 37.4421 12.0735 37.4033 12.1316C37.224 12.3997 36.2812 12.8264 35.9527 13.0413C34.2802 14.1356 32.5347 16.2614 32.6747 18.3801C32.7037 18.8186 33.0389 19.9665 32.7195 20.2963C32.662 20.3557 32.5379 20.378 32.456 20.3735C32.144 20.3563 31.8859 20.0674 31.7058 19.8391C30.4714 18.2743 29.9484 16.1506 30.1887 14.1886C30.3628 12.7674 30.9417 11.4785 31.5861 10.2173C31.3024 10.1594 30.9894 10.0802 30.7009 10.1357C30.024 10.2657 26.6084 12.0061 25.9569 12.438C25.2259 12.9227 24.5223 13.5035 24.012 14.2228C23.3274 15.1877 23.0609 16.344 22.5342 17.3868C21.5967 19.2432 20.0589 20.9105 19.6357 22.9886C19.2708 24.7802 20.1737 26.8595 20.3633 28.6754C20.5187 30.1632 20.0616 31.6652 20.6596 33.1052C20.8925 32.2701 21.1993 31.3171 21.1832 30.4398C21.1746 29.9662 21.052 29.4461 21.1145 28.9786C21.1363 28.8157 21.1954 28.627 21.3523 28.5454C21.4697 28.4843 21.6583 28.4934 21.7753 28.5566C21.9812 28.6679 22.0702 28.8755 22.1184 29.0951C22.4349 30.5359 22.2578 32.5567 21.4192 33.8009C21.2952 33.9852 21.1593 34.1603 21.0114 34.3261C21.4068 35.3002 21.7227 36.7675 21.9979 37.8185C22.1546 38.4171 22.2944 39.0052 22.5687 39.5637C22.6567 38.6206 22.7034 37.6789 22.8416 36.7406C23.0663 35.2161 23.4031 33.7043 23.5394 32.1677C23.6654 30.7466 23.553 29.3197 23.6098 27.8967C23.6722 26.3286 23.9875 24.8202 24.3321 23.2945C23.9719 23.7118 23.6425 24.145 23.3781 24.6302C23.1587 25.0331 22.8908 26.112 22.5899 26.3169C22.4538 26.3203 22.4329 26.3164 22.3144 26.25C22.0717 25.895 22.1722 25.3208 22.249 24.9196C22.5847 23.1641 23.4697 21.3758 24.9916 20.3637C25.9168 19.7482 26.9885 19.5526 28.0274 19.2189C27.1022 18.7981 26.1363 18.5557 25.1429 18.9211C24.8737 19.0202 24.5041 19.2535 24.216 19.1474C24.1435 19.0582 24.1295 19.0375 24.1333 18.915C24.1508 18.354 25.1829 17.4038 25.6004 17.0849C26.3056 16.5463 27.2154 16.2513 28.1048 16.3698C28.7756 16.4593 29.3466 16.8233 29.7511 17.3573C29.9851 17.6661 30.2413 18.1044 30.167 18.5031C30.1528 18.5797 30.1191 18.6342 30.0784 18.6992C29.9685 18.758 29.9482 18.7735 29.821 18.7342C29.6866 18.6926 29.5539 18.5318 29.4535 18.4356C28.647 17.6628 27.9636 17.1578 26.7938 17.5736C26.5409 17.6635 26.3017 17.7871 26.0684 17.9187C27.3926 18.0012 29.538 18.5376 30.4398 19.5902C30.5605 19.7313 30.7382 20.0073 30.7103 20.2053C30.6953 20.3122 30.6534 20.3834 30.5588 20.4386C30.212 20.6407 29.4915 20.3854 29.0904 20.3824C27.5177 20.3707 26.3539 21.5748 25.8009 22.9375C25.1176 24.6214 24.828 26.6909 24.818 28.5061C24.8114 29.6865 24.8926 30.8289 24.7901 32.0107C24.6125 34.0561 24.1034 36.0556 23.8822 38.0966C23.8156 38.7098 23.7321 39.3368 23.7466 39.9543C23.7589 40.4771 23.8484 41.0227 23.8162 41.5426C23.8017 41.7764 23.7385 42.1648 23.4921 42.2706C23.3651 42.3251 23.2268 42.2905 23.1076 42.2333C22.6041 41.9912 21.4482 40.4555 21.1641 39.9196C20.4844 41.014 20.2844 41.9947 20.5742 43.2556C20.6769 43.702 20.8232 44.1341 20.9792 44.5642C20.9582 44.0648 20.8314 42.3795 21.117 42.0392C21.2961 41.9511 21.4725 42.0062 21.6512 42.068C22.2303 42.268 23.0326 42.6179 23.4822 43.0341C23.4873 43.0504 23.4925 43.0669 23.4975 43.0833C23.6496 43.5981 23.6212 44.1913 23.6834 44.7262C23.7714 45.4831 23.8999 46.2408 24.0355 46.9902C24.4673 49.3767 24.9972 51.7548 25.3702 54.1502C26.0787 58.7007 26.1346 61.2599 28.9906 65.1423C29.4622 65.7832 29.9393 66.4327 30.4628 67.0329C30.8064 67.4268 31.2037 67.7721 31.5569 68.1577C32.4491 69.1319 33.019 70.5444 34.2004 71.2128C35.9065 72.1781 38.1509 71.2104 39.9921 71.3732C40.9398 71.4569 41.7732 71.9491 42.7348 71.9414C43.5604 71.9348 44.4145 71.7459 45.2069 71.5205C45.4204 71.4597 45.6382 71.3987 45.8471 71.3244C46.3563 71.1317 46.8798 70.9089 47.3103 70.5676C47.9744 70.0413 48.9472 68.5408 49.5889 68.2448C49.7086 68.1897 49.771 68.204 49.8956 68.2335C50.0538 68.411 50.032 68.5792 50.0386 68.8091C50.6659 68.3629 51.2885 67.9152 51.8626 67.4009C54.6852 64.872 56.2089 61.4364 57.4809 57.9422C57.8425 56.9486 58.4857 55.3391 58.6643 54.3598C58.7292 54.0033 58.6106 53.4655 58.9402 53.2142C58.9551 53.2028 58.9721 53.1944 58.988 53.1846C59.1058 53.2157 59.1404 53.2568 59.2019 53.3629C59.5153 53.9037 59.4966 55.0197 60.2125 55.2227C60.4502 55.2901 60.6894 55.1937 60.8892 55.0674C61.4886 54.6885 61.9065 54.0052 62.2119 53.3837C62.8396 52.1061 63.0602 50.7227 63.5287 49.3943C63.7841 48.6703 64.133 47.9863 64.4336 47.2809C64.8218 46.37 65.1457 45.3825 65.3454 44.4123C65.5865 43.2411 65.6778 41.5011 64.9857 40.4527C64.7787 40.1392 64.4786 39.8672 64.1012 39.7904C63.5315 39.6744 62.7185 40.0696 62.263 40.3942C61.1133 41.2136 60.3915 42.5824 59.6875 43.773C59.4772 44.1287 59.2677 44.5562 58.9856 44.857C58.8541 44.9972 58.5867 45.1825 58.3889 45.1533C58.2128 45.1273 58.0698 45.0352 57.9692 44.8882C57.7337 44.5438 57.8626 44.0322 57.9482 43.6562C58.1051 42.9676 58.2778 42.3046 58.3115 41.5934C58.3905 39.9271 57.5824 38.0747 56.7751 36.6403C56.2957 35.7885 55.822 34.9758 55.5776 34.0191C55.2305 32.66 55.4736 31.1662 55.4628 29.777C50.0853 27.0209 52.0312 24.3301 48.8673 21.2958C49.5455 23.6871 50.2977 26.3572 51.8257 28.3587C52.1293 28.7535 52.4538 29.1302 52.7991 29.4891C53.2125 29.9199 53.8116 30.3541 54.0857 30.882C54.155 31.0157 54.1737 31.1778 54.09 31.3115C54.0297 31.4079 53.9521 31.482 53.8355 31.4986C53.3719 31.5646 52.6765 30.8613 52.3658 30.5774C51.0718 29.3956 49.8793 27.8421 49.1965 26.224C48.4037 24.3455 48.3691 21.6918 46.4666 20.5247C45.6474 20.0221 44.853 19.9247 43.9058 19.9627C43.1811 19.9918 40.1867 20.3742 39.7042 20.0224C39.6145 19.957 39.6295 19.9056 39.6294 19.807C39.7853 19.5559 40.1376 19.4785 40.4103 19.415C41.0109 19.275 41.6282 19.1802 42.2354 19.0719C44.4183 18.6827 46.7139 18.4291 48.6895 19.6585C49.2242 19.9913 49.7534 20.4189 50.1956 20.8693C49.576 19.3937 48.9561 18.1884 47.6663 17.1809C47.2603 16.8637 45.7923 16.2651 45.9374 15.8221C46.1407 15.6931 46.5345 15.7859 46.7601 15.8363C48.184 16.1546 49.4759 17.3426 50.2267 18.5501C50.7614 19.4101 51.1564 20.2794 51.4413 21.2555C51.9433 22.9747 52.0264 24.9739 53.2166 26.3993C53.7831 27.0776 54.5317 27.589 55.2545 28.0868C54.6136 27.0861 53.4205 25.0219 53.6693 23.823C53.6982 23.6837 53.7571 23.556 53.8793 23.474C53.9215 23.4457 53.9909 23.4282 54.0375 23.4132C54.5256 23.6037 55.297 25.5868 55.5711 26.1037C55.8263 26.5849 56.1067 27.0777 56.455 27.4984C56.8921 28.0265 57.4217 28.5033 58.03 28.8252C58.2333 28.9328 58.4527 29.0284 58.6756 29.0869C59.0298 29.1799 59.6706 29.159 59.8748 29.5171C59.9316 29.617 59.9053 29.8018 59.8618 29.9059C59.7947 30.0664 59.6558 30.1651 59.4958 30.2217C58.7094 30.5002 57.6735 30.1396 56.9219 29.9118C56.8169 31.7221 56.9455 33.5523 57.8372 35.1697C58.1704 35.774 58.6358 36.3582 58.8233 37.0299C58.8893 37.2662 58.9884 37.6697 58.7761 37.858C58.6692 37.9528 58.4858 37.9645 58.3498 37.9775C59.0459 40.0922 59.4297 40.2374 59.3219 42.6378C60.0411 41.278 60.9886 39.5251 62.5566 39.0351C62.8376 38.9473 63.1223 38.9146 63.4135 38.8804C63.4094 38.0855 63.4358 37.3099 63.529 36.5198C63.6102 35.8309 63.7471 35.1346 63.7604 34.4404C63.7779 33.5306 63.4776 32.6426 63.5534 31.7276C63.658 30.4662 64.0572 29.2399 64.1131 27.9764C64.1693 26.7065 63.919 25.4588 63.6655 24.2221C63.4624 23.2309 63.2938 22.2055 62.9604 21.2482C62.2398 19.1789 60.6507 17.2915 59.1136 15.7687C57.3393 14.0109 55.2979 12.6388 53.2307 11.2545C52.1505 10.5312 51.092 9.75886 49.9841 9.07965C47.7285 7.69694 44.9957 6.53427 42.3089 6.55379C42.1655 6.55484 42.0225 6.55769 41.8799 6.57242ZM58.8866 64.4921C58.7669 65.2825 58.6388 66.0905 58.62 66.8908C58.603 67.6141 58.7639 68.8722 58.61 69.4905C58.5053 69.911 58.1798 70.3361 57.9563 70.7077C56.9569 72.3697 55.6932 73.7066 54.3436 75.0857C53.4157 76.0338 52.4572 76.983 51.4636 77.8625C50.6503 78.5823 49.7713 79.2536 48.9861 80.0006C50.172 80.7011 50.9202 81.8418 51.2596 83.1568C51.3889 83.6574 51.4846 84.1777 51.5246 84.6935C51.5708 85.187 51.6003 85.6814 51.6131 86.1768C52.8681 84.2782 54.1924 82.4142 55.3867 80.4774C56.0565 79.3826 56.6931 78.2688 57.2965 77.136C57.8999 76.0032 58.4691 74.8535 59.004 73.6868C59.4039 72.8327 59.9546 71.8855 60.1045 70.9519C60.2626 69.9676 59.9702 68.7953 59.7731 67.8264C59.6547 67.2447 59.1717 64.7864 58.8866 64.4921ZM22.1052 44.0128C21.9309 44.479 21.6626 45.0046 21.6048 45.5009C21.4889 46.4983 22.1915 48.5075 22.5103 49.5135C22.589 49.7621 22.7783 50.0357 22.8008 50.292C22.8244 50.56 22.6725 50.812 22.5516 51.0405C22.8733 52.1658 23.1129 53.0991 24.0101 53.9056L24.0849 53.8944C24.1349 53.3399 23.3716 49.4679 23.1558 48.8486C22.8676 48.0215 22.1736 47.3476 22.1674 46.4313C22.1627 45.7205 22.5707 45.2143 22.7623 44.5631C22.5609 44.3241 22.3921 44.1516 22.1052 44.0128Z" fill="black"/>
<path d="M60.1132 50.9648C60.2316 50.9728 60.3883 50.9988 60.4808 51.0787C60.5791 51.1636 60.6193 51.2375 60.6281 51.3677C60.6414 51.5644 60.5116 51.7125 60.3875 51.8463C60.2574 51.8612 60.1408 51.8309 60.0412 51.741C59.9439 51.6533 59.9099 51.5452 59.9053 51.4183C59.8977 51.2103 59.9782 51.1076 60.1132 50.9648Z" fill="black"/>
<path d="M35.0522 46.6918C35.1447 46.701 35.2221 46.7118 35.2901 46.7827C35.4084 46.906 35.4311 47.1134 35.4258 47.2759C35.4152 47.6012 35.3097 47.9571 35.075 48.1863C35.0104 48.148 34.9471 48.1103 34.8886 48.0629C34.7564 47.9558 34.6989 47.7725 34.6869 47.6076C34.6619 47.2608 34.8425 46.95 35.0522 46.6918Z" fill="black"/>
<path d="M29.9245 55.978L30.12 56.0447C30.1967 56.1343 30.2285 56.1869 30.2328 56.3081C30.2488 56.7466 29.8104 57.6174 29.5075 57.9231C29.4313 57.889 29.3715 57.8527 29.3022 57.8072C29.216 57.6624 29.1947 57.5507 29.2112 57.3818C29.2569 56.9155 29.5709 56.2827 29.9245 55.978Z" fill="black"/>
<path d="M38.4312 34.825C38.5213 34.8481 38.5885 34.8675 38.6678 34.919C39.0268 35.1521 39.3549 35.8179 39.404 36.2385C39.4305 36.4649 39.3665 36.5915 39.2293 36.7636C39.0238 36.7375 38.8659 36.6853 38.7083 36.545C38.41 36.2795 38.2204 35.8581 38.2083 35.4603C38.2002 35.1932 38.2509 35.0217 38.4312 34.825Z" fill="black"/>
<path d="M38.7631 54.7313C38.8627 54.7506 38.9688 54.7761 39.0454 54.8475C39.2266 55.0164 39.2721 55.3537 39.2806 55.5866C39.2975 56.0532 39.2315 56.4842 38.9037 56.831C38.7566 56.8288 38.6569 56.8297 38.5425 56.7212C38.3481 56.5369 38.3296 56.1658 38.3403 55.919C38.3588 55.4907 38.4387 55.034 38.7631 54.7313Z" fill="black"/>
<path d="M59.9804 37.3436C60.0824 37.3685 60.1878 37.3914 60.2758 37.4517C60.733 37.7648 61.1337 38.5505 61.2383 39.0782C61.2832 39.3047 61.2593 39.3746 61.1353 39.5593C61.0135 39.514 60.8908 39.4634 60.7833 39.389C60.3507 39.0896 59.902 38.5319 59.8203 38.0086C59.7784 37.7396 59.8173 37.5598 59.9804 37.3436Z" fill="black"/>
<path d="M61.0999 35.9814C61.1954 35.985 61.2849 35.9887 61.3758 36.0206C61.7433 36.1491 62.003 36.5675 62.1577 36.9033C62.3488 37.3184 62.5013 37.8222 62.3395 38.2668C61.9817 38.2027 61.7508 38.01 61.5433 37.7149C61.1963 37.2214 61.0036 36.5793 61.0999 35.9814Z" fill="black"/>
<path d="M40.3296 55.1306C40.4936 55.2084 40.5616 55.2778 40.6411 55.4399C40.8524 55.8705 40.9771 56.6091 40.7955 57.0626C40.7193 57.2529 40.6186 57.3228 40.435 57.4022C40.3032 57.3655 40.1812 57.3289 40.0792 57.2332C39.873 57.0399 39.792 56.7617 39.787 56.4859C39.7775 55.9643 39.9664 55.499 40.3296 55.1306Z" fill="black"/>
<path d="M27.4336 32.09C27.5264 32.0833 27.6193 32.0799 27.7123 32.0798C28.1445 32.0785 29.2153 32.1616 29.4972 32.5268C29.5624 32.6111 29.5823 32.6802 29.5526 32.7859C29.5147 32.9209 29.3994 33.0025 29.2933 33.082C28.7971 33.1096 27.6053 33.0636 27.2512 32.6728C27.2041 32.6207 27.1721 32.5623 27.1739 32.4918C27.1786 32.3068 27.3036 32.2008 27.4336 32.09Z" fill="black"/>
<path d="M49.2103 55.6946C49.3185 55.7053 49.427 55.7141 49.5258 55.7633C49.8749 55.9369 50.1013 56.3247 50.2164 56.6826C50.3682 57.1549 50.3971 57.7167 50.1623 58.1632C50.1052 58.1484 50.0492 58.1318 49.9959 58.1059C49.6288 57.9269 49.3751 57.2351 49.2552 56.8637C49.1313 56.4802 49.0207 56.0715 49.2103 55.6946Z" fill="black"/>
<path d="M33.8378 42.4413C33.9114 42.4574 33.9596 42.4693 34.0235 42.5124C34.0807 42.551 34.0983 42.5948 34.1012 42.6659C34.1078 42.8313 33.9525 43.0262 33.8462 43.14C33.1432 43.8935 32.2091 43.9414 31.2513 43.9731C31.2025 43.9591 31.1403 43.9454 31.0961 43.9179C30.9982 43.8571 30.9698 43.7941 30.9458 43.6873C30.9992 43.5616 31.0843 43.5041 31.2047 43.4498C31.5487 43.2951 31.9667 43.2635 32.3312 43.1621C32.8627 43.0143 33.3595 42.7094 33.8378 42.4413Z" fill="black"/>
<path d="M62.4039 33.1091C62.5113 33.1324 62.6147 33.1665 62.7018 33.236C63.0734 33.533 63.2031 34.2224 63.2597 34.6747C63.3187 35.1463 63.3722 35.7385 63.0676 36.1339C62.9936 36.1149 62.9137 36.0959 62.8451 36.0614C62.5733 35.9242 62.4252 35.3747 62.3606 35.0945C62.2242 34.504 62.0631 33.648 62.4039 33.1091Z" fill="black"/>
<path d="M44.4561 42.2405C44.6343 42.2659 44.8058 42.3184 44.9738 42.3822C45.5159 42.5883 47.1416 43.3006 47.3379 43.8328C47.3865 43.9645 47.3401 44.0703 47.2935 44.1928C47.1493 44.2161 47.0168 44.2258 46.8713 44.2044C46.1287 44.095 44.9448 43.3683 44.5269 42.744C44.4059 42.5632 44.4157 42.4436 44.4561 42.2405Z" fill="black"/>
<path d="M39.5346 63.7392C39.5432 63.7374 39.5517 63.7347 39.5604 63.7337C40.2427 63.6517 41.3004 63.7977 41.8485 64.2353C41.9591 64.3235 41.9901 64.3666 42.0044 64.5057C41.673 64.8733 40.3993 64.5501 39.9174 64.5094C39.6589 64.4876 39.4051 64.5005 39.1469 64.5198C38.6544 64.5899 37.4421 64.9871 37.1096 64.9513C36.9922 64.881 36.9938 64.8719 36.9424 64.7437C36.9526 64.6429 36.9689 64.5776 37.0398 64.501C37.5233 63.9775 38.8529 63.7871 39.5346 63.7392Z" fill="black"/>
<path d="M55.473 14.2596C55.7264 14.262 55.9359 14.3109 56.164 14.4229C57.0396 14.8531 57.7065 15.7877 58.0216 16.6904C58.2379 17.3099 58.3753 18.1372 58.0828 18.75C57.9977 18.7569 57.9073 18.7707 57.8252 18.7382C57.5645 18.6349 57.3852 18.0309 57.2809 17.7744C57.0266 17.149 56.7369 16.5407 56.3481 15.9865C56.0538 15.5671 55.6736 15.1613 55.4588 14.6947C55.3817 14.5272 55.4066 14.425 55.473 14.2596Z" fill="black"/>
<path d="M50.8207 13.2671C51.0586 13.3073 51.2607 13.3679 51.4716 13.488C52.5944 14.1276 53.7297 15.4856 54.0559 16.7487C54.1551 17.1327 54.1622 17.4344 53.9573 17.7767C53.8287 17.7637 53.7148 17.7351 53.6087 17.6592C53.2407 17.3957 52.3061 15.7431 51.975 15.266C51.8606 15.1013 51.7491 14.9273 51.6153 14.7777C51.3272 14.4553 50.73 14.0723 50.6404 13.6404C50.6359 13.6186 50.6328 13.5965 50.6289 13.5746C50.6508 13.4346 50.7283 13.3661 50.8207 13.2671Z" fill="black"/>
<path d="M58.9798 22.7421C59.0856 22.7723 59.1944 22.803 59.2843 22.8691C59.43 22.9762 59.55 23.1343 59.6381 23.2906C60.0384 24.0006 60.2606 24.8137 60.6316 25.541C60.7862 25.8441 61.385 26.6993 61.3927 26.9723C61.3977 27.1529 61.3216 27.2477 61.2128 27.3779C60.8716 27.3888 60.6764 27.3276 60.403 27.1174C59.4288 26.3683 58.9563 24.8979 58.8142 23.7283C58.7705 23.3675 58.7442 23.0409 58.9798 22.7421Z" fill="black"/>
<path d="M60.6848 20.7303C60.7784 20.7627 60.8772 20.796 60.9574 20.8558C61.5691 21.3117 62.7086 24.0639 62.8375 24.8602C62.8908 25.1892 62.8763 25.3519 62.6828 25.6232C62.4708 25.6212 62.3488 25.6012 62.1836 25.4631C61.3355 24.754 60.5887 22.4761 60.5164 21.403C60.4975 21.122 60.4968 20.9477 60.6848 20.7303Z" fill="black"/>
<path d="M27.2184 13.4582C27.6165 13.4394 28 13.559 28.3407 13.7597C28.628 13.929 29.0162 14.227 29.0849 14.577C29.1201 14.7563 29.0576 14.8924 28.9654 15.0416C28.5255 15.3095 28.0502 14.5943 27.5955 14.5504C26.7998 14.4735 25.8677 15.0875 25.2801 15.5575C24.908 15.8946 24.6815 16.4682 24.2209 16.6909C24.1174 16.7409 24.0656 16.7546 23.9575 16.7178C23.9345 16.672 23.9301 16.6701 23.9203 16.6111C23.8776 16.3558 24.0638 15.9616 24.2022 15.751C24.9296 14.6445 25.8876 13.723 27.2184 13.4582Z" fill="black"/>
<path d="M22.0401 20.072C22.1787 20.1179 22.2628 20.151 22.3661 20.2561C22.475 20.5709 22.1119 21.3242 22.0063 21.6589C21.7625 22.4312 21.563 23.2667 21.4663 24.0706C21.3952 24.6607 21.4564 25.4582 21.2655 25.998C21.1841 26.2278 21.0787 26.3176 20.8624 26.4202C20.7961 26.357 20.7277 26.2934 20.6769 26.2163C20.2032 25.4965 20.4233 23.4991 20.5883 22.6898C20.7819 21.7405 21.1963 20.6242 22.0401 20.072Z" fill="black"/>
<path d="M40.5443 10.2544C41.742 10.0627 43.3692 10.42 44.4187 11.0091C44.7255 11.1812 45.3955 11.5942 45.4397 11.9664C45.454 12.0869 45.4322 12.1046 45.3593 12.1903C44.9112 12.3796 44.3427 12.0871 43.9132 11.9308C43.0404 11.6151 42.0967 11.4621 41.1741 11.3985C40.8072 11.3733 38.9925 11.4431 38.794 11.3568C38.6603 11.2987 38.657 11.2613 38.6021 11.134C38.6031 11.0563 38.6035 10.9959 38.6475 10.9275C38.9511 10.4549 40.0373 10.3169 40.5443 10.2544Z" fill="black"/>
<path d="M38.163 14.7626C38.312 14.7697 38.4047 14.8201 38.513 14.9147C38.5437 14.9906 38.5749 15.0321 38.5633 15.1163C38.5315 15.3435 38.3224 15.5253 38.1593 15.6715C37.8427 15.9554 37.4613 16.1897 37.113 16.4333C36.5499 16.8212 35.9991 17.2256 35.4604 17.6465C34.7499 18.2104 34.1475 18.9266 33.4187 19.4545C33.3726 19.4676 33.2892 19.4781 33.2434 19.4707C33.1452 19.4548 33.0735 19.3829 33.0334 19.2958C32.9309 19.0732 33.1399 18.5716 33.244 18.3511C33.9988 16.755 36.5267 15.341 38.163 14.7626Z" fill="black"/>
<path d="M35.0151 37.5526C35.2097 37.6048 35.408 37.6663 35.5852 37.7635C36.3106 38.1611 36.8929 39.0967 37.1231 39.8744C37.6306 41.5894 36.7482 43.7504 35.9451 45.2386C35.8289 45.3758 35.6635 45.5178 35.4819 45.5459C34.9319 45.2842 36.024 42.3241 36.1346 41.7954C36.3572 40.7325 36.1285 40.0792 35.5437 39.2015C35.373 38.9455 35.1858 38.6862 35.0591 38.4046C34.9234 38.1025 34.8931 37.8608 35.0151 37.5526Z" fill="black"/>
<path d="M44.5222 8.05748C45.4865 7.96053 46.4248 8.09143 47.3351 8.42001C48.0785 8.68837 50.7039 9.99099 50.9506 10.7142C50.9901 10.8299 50.9854 10.924 50.9241 11.0293C50.8653 11.1305 50.774 11.2007 50.6564 11.2201C50.3235 11.2749 49.9139 11.0002 49.6347 10.8419C48.3132 10.1742 47.0978 9.4096 45.6107 9.1396C45.0309 9.0343 43.0933 9.03931 42.7406 8.77892C42.7362 8.70306 42.7182 8.6665 42.7641 8.59993C43.0332 8.21021 44.0733 8.12374 44.5222 8.05748Z" fill="black"/>
<path d="M33.6706 48.8489C33.7727 48.8646 33.867 48.8815 33.9463 48.9544C34.2838 49.2656 34.145 50.2658 34.1528 50.6929C34.6529 51.5883 36.0878 51.9381 36.3668 52.7091C36.3524 52.7781 36.3633 52.8179 36.2994 52.8598C36.1478 52.959 35.9184 52.9233 35.7524 52.8829C34.7548 52.64 34.0894 51.8921 33.598 51.0419C33.3989 51.3853 33.1454 51.7015 32.89 52.0041C32.647 52.2981 31.126 54.2089 30.9343 54.2987C30.8764 54.3259 30.8514 54.2974 30.7968 54.2754C30.684 54.1331 30.6401 53.9752 30.6274 53.7947C30.5328 52.4563 32.0115 51.3505 32.7195 50.3602C33.0666 49.8749 33.2853 49.3088 33.6706 48.8489Z" fill="black"/>
<path d="M43.6445 12.8559C45.8091 12.7471 47.7704 13.4478 49.4989 14.7369C49.9519 15.0748 51.0788 16.0256 51.0885 16.6472C51.0904 16.7669 51.0656 16.7809 50.9867 16.8603C50.846 16.9099 50.7562 16.9116 50.6085 16.8959C49.9698 16.6195 49.413 16.1347 48.8453 15.739C48.2045 15.2924 47.5081 14.8824 46.8029 14.5477C46.1455 14.2356 45.433 13.9434 44.7195 13.7895C44.2724 13.6931 43.7154 13.7001 43.3033 13.5116C43.1871 13.4584 43.1407 13.397 43.0952 13.2811C43.1074 13.1938 43.1226 13.1342 43.178 13.0654C43.3098 12.9017 43.4471 12.8805 43.6445 12.8559Z" fill="black"/>
<path d="M42.9676 16.749C43.1379 16.7329 43.3344 16.755 43.4816 16.8449C43.5183 16.9046 43.5506 16.9297 43.5437 17.0038C43.5148 17.3084 43.1345 17.5991 42.901 17.7689C41.4143 18.8502 39.1841 19.7923 37.358 19.892C36.8515 19.9197 36.3674 19.8626 35.8675 19.7863C35.6452 19.7263 35.2561 19.6392 35.1358 19.4254C35.0707 19.3098 35.0926 19.2694 35.1209 19.1472C35.5186 18.9103 36.3321 18.9758 36.7923 18.9107C37.2299 18.8489 37.6814 18.7644 38.1077 18.6452C39.1435 18.3558 40.1622 17.9043 41.1456 17.4734C41.7412 17.2123 42.3383 16.9182 42.9676 16.749Z" fill="black"/>
<path d="M54.586 20.2734C54.7831 20.2892 54.9314 20.3527 55.0806 20.4825C55.9491 21.2377 56.415 23.2265 56.8366 24.2972C57.008 24.7327 57.2217 25.1502 57.45 25.5584C57.6413 25.9032 57.8451 26.2404 58.0612 26.5701C58.3229 26.9632 58.8302 27.4536 58.8888 27.9369C58.8909 27.9542 58.8922 27.9716 58.8929 27.9891C58.9004 28.1637 58.8383 28.2498 58.7294 28.3721C58.3757 28.3182 58.0971 28.1829 57.8173 27.9622C56.3655 26.8176 55.5125 24.273 54.9276 22.5726C54.7353 22.0136 54.47 21.407 54.4167 20.8158C54.3958 20.5848 54.4369 20.449 54.586 20.2734Z" fill="black"/>
<path d="M35.3904 49.9964C36.1956 49.9826 36.9794 51.6102 38.2228 51.7564C39.7613 51.9374 40.8352 50.4373 42.3595 50.5112C42.6293 50.5243 42.9535 50.5731 43.1374 50.7945C43.1483 50.8073 43.1584 50.8208 43.1677 50.8348C43.177 50.8488 43.1855 50.8633 43.1932 50.8783C43.2008 50.8933 43.2076 50.9087 43.2136 50.9245C43.2194 50.9402 43.2244 50.9563 43.2284 50.9726C43.2325 50.989 43.2355 51.0056 43.2376 51.0223C43.2398 51.039 43.2409 51.0557 43.2412 51.0726C43.2413 51.0894 43.2405 51.1062 43.2388 51.123C43.237 51.1397 43.2343 51.1563 43.2307 51.1728C43.1849 51.3748 43.025 51.4704 42.8631 51.5768C42.4292 51.7827 41.9355 51.8728 41.4827 52.0349C40.3873 52.427 39.4306 53.1363 38.2178 52.7492C37.788 52.612 37.4004 52.2923 36.9783 52.1727C36.8419 52.134 36.6813 52.1425 36.5398 52.1293C36.0829 52.0864 35.6483 51.7148 35.3731 51.3626C35.1745 51.1084 34.992 50.7748 35.0463 50.4405C35.0833 50.2132 35.2116 50.1196 35.3904 49.9964Z" fill="black"/>
<path d="M44.6476 60.4204C44.6936 60.4219 44.7092 60.4201 44.7586 60.4348C44.8759 60.4696 44.9392 60.517 44.9949 60.6203C44.9774 60.7661 44.9207 60.8551 44.829 60.966C43.7415 62.2811 41.5406 63.146 39.8769 63.2898C37.9291 63.4582 37.0791 63.0542 35.6345 61.8446C35.391 61.6209 35.025 61.3204 34.9956 60.9753C35.0296 60.9068 35.0302 60.868 35.1048 60.8346C35.4434 60.6833 36.8597 61.5332 37.275 61.6885C38.9745 62.3241 41.0982 61.9901 42.7385 61.3317C43.3919 61.0694 44.0083 60.7157 44.6476 60.4204Z" fill="black"/>
<path d="M43.5399 47.302C43.6324 47.3124 43.7305 47.3227 43.8172 47.3583C44.698 47.7204 48.6971 52.6392 49.0796 53.6237C49.1436 53.7888 49.1934 53.9427 49.1203 54.1121C49.0274 54.1773 48.9755 54.2006 48.8592 54.193C48.1335 54.1456 46.9066 52.4359 46.438 51.8572L45.3727 50.5017C45.3048 50.6822 45.2327 50.8551 45.1368 51.0226C44.7275 51.7374 43.801 52.556 42.9958 52.7612C42.8215 52.8057 42.4471 52.8898 42.2923 52.7627C42.1955 52.6833 42.1924 52.6316 42.1772 52.5171C42.3094 52.175 43.0957 51.9111 43.41 51.6652C43.9434 51.248 44.4746 50.5973 44.5443 49.9049C44.613 49.2219 43.9735 48.717 43.5794 48.2406C43.4399 48.0718 43.2751 47.8246 43.3161 47.5938C43.3413 47.4526 43.4349 47.3844 43.5399 47.302Z" fill="black"/>
<path d="M33.9624 19.9995C34.8176 19.9464 35.8847 20.6544 36.7048 20.9391C36.9174 21.0143 37.1325 21.0819 37.3499 21.1418C37.5674 21.2018 37.7866 21.2541 38.0078 21.2986C38.2289 21.343 38.4513 21.3795 38.675 21.4082C38.8988 21.437 39.1232 21.4577 39.3484 21.4706C40.0264 21.5047 40.7102 21.4173 41.3699 21.2627C42.5501 20.986 44.4009 20.1313 45.5516 20.5801C45.8222 20.6856 46.0846 20.8499 46.2033 21.1241C46.2006 21.1952 46.2132 21.2456 46.1694 21.3059C46.0521 21.4681 45.8589 21.4913 45.6747 21.5237C44.2775 21.5583 43.0637 22.0444 41.738 22.4033C40.4201 22.7602 39.1026 22.7521 37.7704 22.4758C37.0051 22.317 34.0375 21.4281 33.6234 20.7271C33.5591 20.6184 33.5499 20.5088 33.5837 20.3875C33.6351 20.2031 33.8089 20.0909 33.9624 19.9995Z" fill="black"/>
<path d="M63.555 41.2737C63.8892 41.3037 64.1474 41.3687 64.3778 41.631C64.7777 42.0864 64.7554 42.8308 64.7314 43.401C64.7071 43.9773 64.3715 45.8754 63.9157 46.2074C63.8114 46.2834 63.7911 46.2821 63.6719 46.2632C63.6056 46.1882 63.5741 46.1253 63.5685 46.0232C63.5562 45.7997 63.61 45.5518 63.6322 45.3285C63.6753 44.8954 63.699 44.468 63.6597 44.0335C63.6131 43.5179 63.478 43.062 63.2645 42.5922C62.371 43.4061 61.6131 44.2032 61.1048 45.3138C61.5858 46.4104 62.1304 46.6802 62.0603 48.0113C62.051 48.6329 61.8629 49.3091 61.4892 49.8126C61.1655 50.249 60.386 50.8255 59.8338 50.8646C59.7146 50.873 59.6706 50.8483 59.581 50.7749C59.5001 50.2726 60.2252 49.5089 60.4559 49.0674C60.8878 48.241 60.8054 47.6217 60.3665 46.8151C60.2483 46.5978 60.1132 46.3756 60.0444 46.1368C59.9057 45.6553 60.0769 45.2204 60.308 44.8002C60.9117 43.7024 62.3593 41.6198 63.555 41.2737Z" fill="black"/>
<path d="M32.598 38.734C33.2972 38.6643 33.7315 38.9757 34.2565 39.3928C34.6412 39.6985 35.3309 40.2318 35.3698 40.7588C35.38 40.8988 35.3386 41.0371 35.2433 41.1418C35.1077 41.2906 34.8973 41.3558 34.7011 41.3641C34.4701 41.3739 34.2377 41.3006 34.0705 41.1375C33.8509 40.9232 33.8764 40.7048 33.8767 40.4226C33.7436 40.342 33.6007 40.2753 33.4621 40.2046C33.4374 40.6509 33.346 41.1099 33.0854 41.4821C32.8504 41.8179 32.5036 42.0386 32.0959 42.0932C31.6725 42.1498 31.2246 42.0357 30.887 41.7725C30.3754 41.3739 30.2326 40.7728 30.1569 40.1641C29.9158 40.2799 29.6912 40.4207 29.4636 40.5606C29.3521 40.6514 29.2492 40.7529 29.1443 40.8513C29.3868 41.1203 30.062 41.3977 30.1496 41.7177C30.1781 41.8222 30.1507 41.989 30.0992 42.0811C30.0585 42.154 29.9758 42.2017 29.8954 42.219C29.4318 42.3192 28.7954 41.9744 28.4204 41.7251L28.3562 41.7552C27.8395 41.9958 27.2803 42.2382 26.7196 41.9888C26.6044 41.9376 26.5822 41.8876 26.5317 41.7761C26.5508 41.6508 26.5821 41.6136 26.6625 41.5138C26.9594 41.1448 27.4109 40.9354 27.7691 40.6318C28.1259 40.3292 28.4436 39.978 28.8164 39.6944C29.8493 38.909 31.3494 38.87 32.598 38.734Z" fill="black"/>
<path d="M45.7787 38.6475C46.7179 38.5688 47.9317 38.8832 48.8754 39.018C49.2456 39.0708 49.6312 39.0772 49.9961 39.149C50.1788 39.1848 50.3664 39.2413 50.5379 39.3139C51.1257 39.5628 51.9726 40.314 52.1938 40.9242C52.2373 41.0444 52.2516 41.1807 52.1764 41.2927C51.8902 41.7187 50.6921 41.3993 50.2296 41.4116C49.9383 41.4194 49.6958 41.4862 49.4223 41.5758C49.1743 41.6559 48.9219 41.7473 48.6627 41.7824C48.1699 41.8492 47.6873 41.7696 47.194 41.7554C46.0165 41.7214 45.2439 41.8643 44.089 41.4157C43.8203 41.3113 43.5327 41.1912 43.3065 41.0096C43.1498 40.8839 43.0148 40.7147 43.0011 40.5069C42.9873 40.2955 43.1012 40.1041 43.2356 39.9504C43.8032 39.3009 44.9059 38.7003 45.7787 38.6475ZM45.6758 40.0509C45.2661 40.0977 44.9658 40.2131 44.6035 40.4036C45.1383 40.6566 45.666 40.8684 46.2349 41.0356C46.4836 41.0922 46.733 41.145 46.9833 41.1942C46.8415 40.8101 46.7005 40.4301 46.5951 40.034C46.2983 40.0346 45.9679 40.0073 45.6758 40.0509ZM49.5696 40.1383C49.4459 40.436 49.3152 40.7327 49.2012 41.0341C49.4157 40.9883 49.63 40.9389 49.8454 40.8977C50.0496 40.8616 50.254 40.8196 50.4608 40.8025C50.2054 40.4838 49.9462 40.2977 49.5696 40.1383Z" fill="black"/>
<path d="M29.033 34.2493C29.047 34.2456 29.0608 34.2404 29.0752 34.238C29.259 34.2086 29.4327 34.3843 29.5691 34.4891C30.1358 34.5266 30.7143 34.6259 31.2686 34.7449C31.6533 34.8275 32.8438 35.2226 33.0926 35.192C33.135 35.0761 33.1797 34.9258 33.271 34.8379C33.3751 34.7378 33.5201 34.7123 33.6587 34.7194C34.3141 34.753 35.1605 35.2942 35.5896 35.7816C35.8057 36.027 36.1025 36.4714 36.0668 36.8175C36.0534 36.947 35.9906 37.0524 35.8887 37.1323C35.6783 37.2976 35.3581 37.3636 35.0959 37.3641C34.613 37.3651 34.1125 37.1943 33.6351 37.1202C32.8001 36.9905 31.9512 36.9069 31.1126 36.7976C30.4448 36.715 29.6859 36.5298 29.0163 36.6025C28.184 36.693 27.1396 37.3416 26.5887 37.9577C26.3292 38.2481 26.1481 38.9829 25.7481 39.0731C25.6453 39.0963 25.5479 39.0746 25.4707 39.0013C25.1523 38.6991 25.4623 37.624 25.4414 37.1892L25.437 37.1099C25.4687 37.0741 25.4992 37.0374 25.5315 37.0023C25.7448 36.7709 25.8078 36.4968 25.9498 36.2207C26.0654 35.996 26.2169 35.7793 26.3718 35.5802C27.1765 34.5465 27.7924 34.4008 29.033 34.2493Z" fill="black"/>
<path d="M47.2882 57.6169C47.5623 57.5836 47.7624 57.6143 47.9819 57.7946C48.3475 58.0949 48.5092 58.6179 48.5534 59.076C48.5769 59.3208 48.564 59.6487 48.3795 59.8366C48.2994 59.9182 48.1938 59.9644 48.079 59.9605C47.8163 59.9515 47.6281 59.7344 47.4571 59.5611C46.1757 59.8975 45.0872 59.7706 43.7987 59.5865C43.3313 59.5197 42.8623 59.4397 42.3885 59.477C41.4245 59.5528 40.6596 60.3383 39.6607 60.3292C38.8829 60.3221 38.2905 59.6794 37.5343 59.6112C37.0256 59.5652 36.4957 59.7649 35.9946 59.8338C34.831 59.9933 33.569 59.7123 32.4455 59.4228L31.9006 60.4206C31.8607 60.4809 31.8008 60.5754 31.7342 60.6119C31.6195 60.6748 31.5728 60.6594 31.4523 60.6352C31.3613 60.5627 31.3113 60.4998 31.2706 60.3919C31.101 59.9428 31.377 59.1766 31.5718 58.7588C31.6794 58.528 31.909 58.1092 32.1844 58.0513C32.2897 58.0292 32.3746 58.037 32.4631 58.1039C32.6526 58.2471 32.643 58.5456 32.6554 58.7593C33.5032 58.7735 34.3625 58.7701 35.202 58.6388C36.0659 58.5036 36.9535 57.9212 37.8444 58.0977C38.4707 58.2217 38.9996 58.6494 39.6013 58.8537L39.6696 58.8764C40.2555 58.6452 40.7469 58.0968 41.3529 57.9671C41.8218 57.8668 42.3711 58.0301 42.8272 58.1348C44.2264 58.4562 45.5849 58.8043 47.0121 58.4339C47.0119 58.3281 47.0122 58.2219 47.0198 58.1164C47.0375 57.8708 47.1045 57.7757 47.2882 57.6169Z" fill="black"/>
<path d="M48.7576 34.4095C49.3812 34.3781 49.7051 34.6741 50.1531 35.0584C50.356 34.9772 50.5592 34.92 50.7698 34.8642C51.3426 35.2404 51.8362 35.9049 52.3165 36.4002L52.72 36.2325L52.7564 36.2569C52.8952 36.3487 53.019 36.4467 53.1411 36.5601C53.5201 36.912 54.7079 38.0442 54.6434 38.5962C54.6293 38.717 54.5997 38.7262 54.5072 38.7903C54.0909 38.8575 53.6281 38.5995 53.2714 38.4135L52.9702 38.7406C52.075 38.3458 51.2705 37.4236 50.6679 36.6689C50.1788 36.6419 49.6883 36.5935 49.1983 36.6137C47.7927 36.6716 46.1688 37.0392 44.7696 37.2864C43.9833 37.4297 43.1892 37.3613 42.4068 37.5655C42.4396 38.3396 42.0226 38.9547 41.8371 39.683C41.7502 40.0237 41.8581 40.4023 41.769 40.7414C41.7332 40.8778 41.6703 40.9224 41.55 40.9841C41.4344 40.9826 41.3227 40.9593 41.2284 40.8876C41.0866 40.7797 41.0156 40.6168 40.9865 40.4442C40.8126 39.4137 41.2463 38.2115 41.8488 37.3921C41.667 37.1736 41.4965 36.96 41.509 36.6609C41.522 36.3481 41.709 36.0995 41.9364 35.8995C42.5761 35.3372 44.8118 34.4383 45.675 34.5064C45.8312 34.5781 45.9291 34.7373 46.0331 34.8693C46.5789 34.8244 47.5812 34.3981 48.0657 34.5639C48.221 34.6171 48.2655 34.7978 48.3189 34.9355C48.3511 35.0183 48.3567 35.0078 48.4272 35.0531C48.5559 35.043 48.6128 35.0404 48.7191 34.9584C48.8012 34.812 48.7587 34.5768 48.7576 34.4095Z" fill="black"/>
</svg>
