<svg width="90" height="90" viewBox="0 0 90 90" fill="none" xmlns="http://www.w3.org/2000/svg">
<path d="M61.899 41.3644C72.2725 41.3644 80.6818 33.224 80.6818 23.1822C80.6818 13.1404 72.2725 5 61.899 5C51.5256 5 43.1162 13.1404 43.1162 23.1822C43.1162 33.224 51.5256 41.3644 61.899 41.3644Z" fill="#161717" fill-opacity="0.3"/>
<path d="M80.5318 23.1822C80.5318 33.1366 72.1943 41.2144 61.899 41.2144C51.6038 41.2144 43.2662 33.1366 43.2662 23.1822C43.2662 13.2278 51.6038 5.15 61.899 5.15C72.1943 5.15 80.5318 13.2278 80.5318 23.1822Z" stroke="#161717" stroke-opacity="0.05" stroke-width="0.3"/>
<path d="M24.0265 67.2968C32.3254 67.2968 39.053 60.7844 39.053 52.7509C39.053 44.7175 32.3254 38.2051 24.0265 38.2051C15.7276 38.2051 9 44.7175 9 52.7509C9 60.7844 15.7276 67.2968 24.0265 67.2968Z" fill="#161717" fill-opacity="0.5"/>
<path d="M38.903 52.7509C38.903 60.697 32.2472 67.1468 24.0265 67.1468C15.8058 67.1468 9.15 60.697 9.15 52.7509C9.15 44.8049 15.8058 38.3551 24.0265 38.3551C32.2472 38.3551 38.903 44.8049 38.903 52.7509Z" stroke="#161717" stroke-opacity="0.05" stroke-width="0.3"/>
<path d="M61.3977 80.4933C67.222 80.2134 71.724 75.4169 71.4531 69.78C71.1823 64.143 66.2412 59.8002 60.4169 60.0801C54.5926 60.3599 50.0907 65.1564 50.3615 70.7934C50.6323 76.4303 55.5734 80.7731 61.3977 80.4933Z" fill="#161717" fill-opacity="0.8"/>
<path d="M71.3033 69.7872C71.5699 75.3368 67.1367 80.0673 61.3905 80.3434C55.6443 80.6195 50.778 76.3358 50.5113 70.7862C50.2447 65.2366 54.6779 60.506 60.4241 60.2299C66.1703 59.9538 71.0366 64.2376 71.3033 69.7872Z" stroke="#161717" stroke-opacity="0.05" stroke-width="0.3"/>
</svg>
