<svg width="152" height="63" viewBox="0 0 152 63" fill="none" xmlns="http://www.w3.org/2000/svg">
<rect width="152" height="63" fill="#FFFEFA"/>
<path d="M76 35V40M76 35L82 40M76 35L70 40M85 22V30.2C85 31.8802 85 32.7202 84.673 33.362C84.3854 33.9265 83.9265 34.3854 83.362 34.673C82.7202 35 81.8802 35 80.2 35H71.8C70.1198 35 69.2798 35 68.638 34.673C68.0735 34.3854 67.6146 33.9265 67.327 33.362C67 32.7202 67 31.8802 67 30.2V22M72 28V31M76 26V31M80 30V31M86 22H66" stroke="black" stroke-width="2" stroke-linecap="round" stroke-linejoin="round"/>
<path d="M34 21.2695V25.4001C34 25.9601 34 26.2401 34.109 26.4541C34.2049 26.6422 34.3578 26.7952 34.546 26.8911C34.7599 27.0001 35.0399 27.0001 35.6 27.0001H39.7305M36 37.5L34.5 36M34 21H28.8C27.1198 21 26.2798 21 25.638 21.327C25.0735 21.6146 24.6146 22.0735 24.327 22.638C24 23.2798 24 24.1198 24 25.8V36.2C24 37.8802 24 38.7202 24.327 39.362C24.6146 39.9265 25.0735 40.3854 25.638 40.673C26.2798 41 27.1198 41 28.8 41H35.2C36.8802 41 37.7202 41 38.362 40.673C38.9265 40.3854 39.3854 39.9265 39.673 39.362C40 38.7202 40 37.8802 40 36.2V27L34 21ZM35.5 33.5C35.5 35.433 33.933 37 32 37C30.067 37 28.5 35.433 28.5 33.5C28.5 31.567 30.067 30 32 30C33.933 30 35.5 31.567 35.5 33.5Z" stroke="black" stroke-width="2" stroke-linecap="round" stroke-linejoin="round"/>
<path d="M121 21.2695V25.4001C121 25.9601 121 26.2401 121.109 26.4541C121.205 26.6422 121.358 26.7952 121.546 26.8911C121.76 27.0001 122.04 27.0001 122.6 27.0001H126.731M123 32H115M123 36H115M117 28H115M121 21H115.8C114.12 21 113.28 21 112.638 21.327C112.074 21.6146 111.615 22.0735 111.327 22.638C111 23.2798 111 24.1198 111 25.8V36.2C111 37.8802 111 38.7202 111.327 39.362C111.615 39.9265 112.074 40.3854 112.638 40.673C113.28 41 114.12 41 115.8 41H122.2C123.88 41 124.72 41 125.362 40.673C125.926 40.3854 126.385 39.9265 126.673 39.362C127 38.7202 127 37.8802 127 36.2V27L121 21Z" stroke="black" stroke-width="2" stroke-linecap="round" stroke-linejoin="round"/>
</svg>
