<svg width="90" height="80" viewBox="0 0 90 80" fill="none" xmlns="http://www.w3.org/2000/svg">
<path fill-rule="evenodd" clip-rule="evenodd" d="M82.2326 21.7812C82.6443 22.0962 82.7226 22.6854 82.4076 23.097L75.5198 32.0971L66.8407 34.7433L58.8672 42.8944C58.5047 43.2649 57.9104 43.2715 57.5398 42.909C57.1693 42.5465 57.1627 41.9522 57.5252 41.5816L65.8342 33.0875L74.3955 30.4773L80.9168 21.9561C81.2318 21.5444 81.821 21.4661 82.2326 21.7812Z" fill="#CBCAC9"/>
<path fill-rule="evenodd" clip-rule="evenodd" d="M6.60501 0.615446C7.73636 -0.520261 9.79765 -0.00294456 10.1378 1.50206L13.5283 16.503L16.6433 15.0264C17.7944 14.4807 19.2032 15.0343 19.5638 16.1738L22.2559 24.6816L26.9916 8.26579C27.5834 6.2143 30.8547 6.48839 31.0297 8.60409L32.996 32.3722L33.47 31.4733C33.9523 30.5589 34.9821 30.2918 35.8021 30.453C36.6194 30.6136 37.4352 31.2385 37.4855 32.2423C37.5971 34.4733 37.8077 37.2694 38.2025 39.7423C38.4001 40.9796 38.6406 42.1156 38.9305 43.05C39.2284 44.0103 39.5489 44.6567 39.8494 44.9979C40.3013 45.511 40.7087 45.7619 41.0372 45.8814C41.3607 45.9992 41.6663 46.0111 41.96 45.9608C42.518 45.8652 43.0552 46.2017 43.1597 46.7124C43.2642 47.2232 42.8965 47.7148 42.3384 47.8104C41.7084 47.9184 41.0033 47.8942 40.2774 47.63C39.5564 47.3676 38.8756 46.8907 38.2487 46.1788C37.679 45.532 37.2686 44.5823 36.9526 43.564C36.6287 42.5199 36.3725 41.2949 36.1681 40.0144C35.7589 37.4515 35.5444 34.5842 35.4316 32.3284C35.4313 32.3234 35.4308 32.3199 35.4304 32.3176C35.4238 32.3122 35.4042 32.2994 35.3704 32.2928C35.3481 32.2884 35.3317 32.289 35.3222 32.2902L35.3217 32.2913L34.8476 33.1901C33.934 34.9224 31.1045 34.4323 30.9458 32.5142L28.9795 8.74616L24.2439 25.162C23.7114 27.0076 20.8612 27.0386 20.281 25.2051L17.5889 16.6973L14.474 18.1739C13.2643 18.7473 11.7909 18.1051 11.5149 16.8842L8.12438 1.88324L1.78772 8.24429C1.4052 8.62828 0.754982 8.65576 0.335419 8.30567C-0.0841451 7.95558 -0.114174 7.36048 0.268348 6.97649L6.60501 0.615446Z" fill="#228F9B"/>
<path d="M56.8025 46.1582C56.8025 49.2686 54.281 51.79 51.1707 51.79C48.0603 51.79 45.5388 49.2686 45.5388 46.1582C45.5388 43.0478 48.0603 40.5264 51.1707 40.5264C54.281 40.5264 56.8025 43.0478 56.8025 46.1582Z" fill="#189D39"/>
<ellipse cx="46.5307" cy="75.1021" rx="43.2653" ry="4.89796" fill="#F2EFE7"/>
</svg>
