<svg width="90" height="90" viewBox="0 0 90 90" fill="none" xmlns="http://www.w3.org/2000/svg">
<rect width="90" height="90" fill="white" fill-opacity="0.9"/>
<path d="M23.0598 29.2801C22.9298 30.3501 22.0598 31.0201 21.5298 31.8301C21.3098 32.1501 21.1498 31.5401 21.1098 31.2501L21.3098 30.9501L21.1298 31.2701L19.5598 32.5601C20.1198 32.5601 20.3698 32.5601 20.6198 32.4901C21.0398 32.4301 21.4398 32.2801 21.8598 32.2501C22.9826 32.3105 24.1084 32.2265 25.2098 32.0001C25.8402 31.8535 26.5005 31.9059 27.0998 32.1501C28.5556 32.6467 30.0817 32.9066 31.6198 32.9201C32.0905 32.9791 32.5578 33.0626 33.0198 33.1701C33.4379 33.2646 33.8717 33.2646 34.2898 33.1701C34.7098 33.0001 35.2898 32.8701 35.2098 32.0801C35.1343 31.5014 35.2887 30.9162 35.6398 30.4501C36.196 30.1157 36.8099 29.8885 37.4498 29.7801C37.9555 29.6338 38.4529 29.4602 38.9398 29.2601C39.1398 29.1701 39.2398 28.8801 39.3898 28.6801C39.7798 29.2401 40.2998 28.3701 40.6298 28.7701C41.1198 29.3601 41.5098 28.3801 41.9198 28.7701C42.3298 29.1601 42.7798 28.9601 43.2398 28.7701C43.3647 28.732 43.4968 28.7239 43.6254 28.7465C43.7539 28.7691 43.8754 28.8217 43.9798 28.9001C44.5107 29.43 45.2297 29.7284 45.9798 29.7301C46.1132 29.73 46.2448 29.7607 46.3644 29.8197C46.4841 29.8786 46.5885 29.9643 46.6698 30.0701C47.0198 30.9801 48.0198 30.4901 48.5298 31.0101C50.3532 31.2981 52.1008 31.9474 53.6698 32.9201C54.5847 33.4929 55.6678 33.7363 56.7398 33.6101C56.8068 33.7255 56.8912 33.8301 56.9898 33.9201C57.0398 33.9201 57.1698 33.9201 57.2598 33.8501C57.1898 33.7694 57.109 33.6988 57.0198 33.6401C56.9204 33.625 56.8192 33.625 56.7198 33.6401C56.5124 33.4341 56.2845 33.2499 56.0398 33.0901C54.804 32.4212 53.8756 31.2992 53.4498 29.9601C53.0498 28.8201 52.5598 27.7101 52.2198 26.5601C52.1397 26.0297 52.1397 25.4904 52.2198 24.9601C52.2198 24.9101 52.3798 24.8301 52.4698 24.8401C52.5598 24.8501 52.7098 24.9001 52.7298 24.9701C52.9024 25.4669 53.0263 25.9793 53.0998 26.5001C53.3152 27.8082 53.7986 29.0576 54.5198 30.1701C55.0279 31.1047 55.8094 31.8619 56.7598 32.3401C58.0198 33.0201 59.1898 33.8601 60.3998 34.6201C60.6998 34.8101 60.6998 35.0101 60.3998 35.2301C60.0998 35.4501 60.1298 35.4901 59.9998 35.6101C60.1945 35.737 60.4068 35.8347 60.6298 35.9001C61.0598 35.9001 61.4998 35.9001 61.9298 35.9001L62.0398 36.1601L62.1898 36.0201L61.9998 35.8301C61.7498 34.2401 61.5098 32.6501 61.2598 31.0601C61.2598 31.0001 61.0898 30.9601 60.9998 30.9101C61.0084 29.8378 60.6834 28.7894 60.0698 27.9101C59.4864 26.7889 59.0141 25.6133 58.6598 24.4001C58.0278 21.9365 56.7666 19.6795 54.9998 17.8501C53.2098 16.1201 51.6598 14.1801 49.9998 12.3101C49.4363 11.6534 48.7101 11.1562 47.894 10.8684C47.078 10.5806 46.2006 10.5122 45.3498 10.6701C45.0691 10.7567 44.8222 10.9283 44.6431 11.1611C44.464 11.3939 44.3615 11.6765 44.3498 11.9701C44.3498 12.5201 44.3498 13.0601 44.3498 13.6001C44.3498 13.7301 44.0498 13.9101 43.8998 13.9101C43.7498 13.9101 43.4498 13.7201 43.4498 13.6101C43.3448 12.8537 43.3448 12.0864 43.4498 11.3301C43.5203 10.9452 43.6916 10.586 43.9464 10.2891C44.2011 9.99216 44.5302 9.76819 44.8998 9.64005C45.8398 9.3065 46.8573 9.25762 47.8249 9.49953C48.7926 9.74144 49.6674 10.2634 50.3398 11.0001C51.5809 12.2066 52.7496 13.4855 53.8398 14.8301C54.8398 16.0001 55.7698 17.2901 56.8398 18.4001C57.8193 19.5195 58.555 20.8306 58.9998 22.2501C59.3469 23.073 59.6278 23.9224 59.8398 24.7901C60.2188 26.0527 60.7422 27.2674 61.3998 28.4101C61.9798 29.7401 62.1598 31.1501 62.6198 32.4901C63.0798 33.8301 63.1398 35.3901 63.6198 36.8001C63.6983 37.1469 63.8192 37.4828 63.9798 37.8001C64.8865 39.5304 65.6297 41.3416 66.1998 43.2101C66.4088 43.9199 66.5363 44.6513 66.5798 45.3901C66.7698 46.6001 66.9898 47.8001 67.1398 49.0101C67.2423 49.6686 67.2558 50.3379 67.1798 51.0001C66.9898 52.5001 66.8498 54.0501 65.5598 55.1301C65.6698 53.9601 65.7798 52.8001 65.8798 51.6201C65.8798 51.4201 65.8798 51.2101 65.8798 50.9201C64.3798 52.8001 62.8798 54.5401 61.5298 56.4101C60.1644 58.2419 59.2932 60.3942 58.9998 62.6601C58.9998 62.7396 58.9682 62.8159 58.9119 62.8722C58.8557 62.9284 58.7794 62.9601 58.6998 62.9601C58.6202 62.9601 58.5439 62.9284 58.4877 62.8722C58.4314 62.8159 58.3998 62.7396 58.3998 62.6601C58.3757 61.7021 58.5815 60.7522 58.9998 59.8901C59.9356 57.682 61.211 55.6339 62.7798 53.8201C64.0898 52.2301 65.4798 50.6301 65.6398 48.4101C66.1698 47.7901 65.4398 47.2401 65.5498 46.5901C65.7798 45.1501 65.1798 43.8201 64.7698 42.3401C64.6398 42.6101 64.5998 42.8401 64.4998 42.8801C64.3998 42.9201 63.9898 42.8801 63.9898 42.8801C63.923 42.3591 63.8829 41.8351 63.8698 41.3101C63.6198 42.0501 63.4898 42.5401 63.2798 42.9901C63.0398 43.4663 62.7761 43.9302 62.4898 44.3801C62.2104 44.8898 61.9032 45.3839 61.5698 45.8601C61.2398 46.2901 60.8098 46.6401 60.4498 47.0501C59.7798 47.8201 59.1598 48.6401 58.4498 49.3601C57.6552 49.9692 57.134 50.8679 56.9998 51.8601C56.5961 53.5113 55.8724 55.0673 54.8698 56.4401C53.6511 58.1036 52.7773 59.994 52.2998 62.0001C52.2998 62.1101 52.1898 62.2001 52.1798 62.3001C52.0598 64.0101 51.8998 65.7301 51.8698 67.4501C51.9159 68.3066 52.0228 69.1587 52.1898 70.0001C52.2977 71.2401 51.9842 72.4803 51.2998 73.5201C50.7721 74.6204 50.0772 75.6324 49.2398 76.5201C49.072 76.719 48.9553 76.9558 48.8998 77.2101C48.8883 77.2597 48.8895 77.3114 48.9035 77.3604C48.9175 77.4094 48.9438 77.454 48.9798 77.4901C49.1098 77.5601 49.3398 77.6301 49.3998 77.5801C49.6021 77.3644 49.8524 77.1994 50.1304 77.0986C50.4084 76.9979 50.7063 76.9641 50.9998 77.0001C51.1594 76.9982 51.3166 76.9606 51.4598 76.8901C54.3241 75.7328 56.6553 73.5513 57.9998 70.7701C58.8698 68.8501 59.6998 66.9001 60.6498 65.0001C60.9598 64.3701 61.2198 63.7001 61.5798 63.0001C61.3698 63.7201 62.0098 64.3501 61.6898 65.1001C61.6298 65.2501 61.8498 65.6201 62.0298 65.7501C63.5335 66.8364 65.1535 67.7521 66.8598 68.4801L67.7698 68.8701C67.9258 68.4196 67.9464 67.9333 67.8291 67.4712C67.7119 67.0092 67.4618 66.5916 67.1098 66.2701C65.4798 64.9301 64.6998 63.0501 63.7798 61.2701C63.6981 61.0788 63.656 60.873 63.656 60.6651C63.656 60.4571 63.6981 60.2513 63.7798 60.0601C64.1317 59.1009 64.7663 58.271 65.5998 57.6801C65.452 58.2421 65.2194 58.7783 64.9098 59.2701C64.1998 60.1001 64.4298 60.8301 64.7998 61.7001C65.3833 63.0693 66.2176 64.3174 67.2598 65.3801C67.9675 66.0367 68.4208 66.922 68.5398 67.8801C68.5445 68.3192 68.7079 68.7419 68.9998 69.0701C69.6663 69.5117 70.3688 69.8964 71.0998 70.2201C70.7698 68.7901 70.4798 67.5201 70.1798 66.2201C69.9038 64.804 69.235 63.4941 68.2498 62.4401C67.3348 61.4801 66.6508 60.3241 66.2498 59.0601C66.0998 58.6201 66.2498 57.9801 65.6198 57.7201C65.6073 57.594 65.6212 57.4668 65.6606 57.3465C65.7001 57.2262 65.7642 57.1154 65.8489 57.0213C65.9336 56.9272 66.0371 56.8517 66.1526 56.7999C66.2681 56.748 66.3932 56.7208 66.5198 56.7201C66.6612 58.6482 67.496 60.4598 68.8698 61.8201C70.1072 63.2282 70.9096 64.965 71.1798 66.8201C71.5352 67.9823 71.7665 69.179 71.8698 70.3901C71.8698 70.6401 72.1698 70.9301 72.3698 71.1701C73.1398 72.0601 73.9098 72.9601 74.7098 73.8301C74.906 74.016 75.0394 74.2584 75.0914 74.5237C75.1433 74.789 75.1113 75.0638 74.9998 75.3101C74.9067 75.6124 74.8299 75.9195 74.7698 76.2301C74.6798 76.5301 74.6398 76.9401 74.4298 77.1001C73.0298 78.1701 71.9698 79.8101 69.8398 79.6601C68.8807 79.6873 67.9248 79.7842 66.9798 79.9501C66.0664 79.8867 65.1491 79.9849 64.2698 80.2401C63.9087 80.375 63.5109 80.375 63.1498 80.2401C61.7198 79.6901 60.2598 80.0301 58.8198 79.9701C58.4026 80.0182 57.9908 80.1053 57.5898 80.2301C57.2898 80.2301 56.9198 80.4101 56.7998 79.9401L57.0398 79.8301L56.9198 79.7201L56.8198 79.9601C56.2398 80.0301 55.6598 80.1101 55.0798 80.1401C54.6735 80.1649 54.2661 80.1649 53.8598 80.1401C53.4898 80.1401 53.0698 79.9201 52.7698 80.0501C52.2398 80.2701 51.7698 80.5901 51.4798 79.8101C51.4798 79.7501 51.1098 79.8101 50.9398 79.8101C50.2999 80.0418 49.6108 80.1038 48.9398 79.9901C47.6998 79.8801 46.4298 79.9901 45.1898 79.9201C43.9 79.7 42.5755 79.8101 41.3398 80.2401C40.8089 80.3804 40.2507 80.3804 39.7198 80.2401C37.9414 79.8453 36.0982 79.8453 34.3198 80.2401C33.9411 80.2851 33.5585 80.2851 33.1798 80.2401C31.9547 80.2834 30.7378 80.4577 29.5498 80.7601C28.7624 80.9653 27.9391 80.9926 27.1398 80.84C26.1547 80.6278 25.1467 80.5404 24.1398 80.5801C23.4898 80.5801 22.8298 80.5801 22.1398 80.5801C19.1398 80.5801 19.1398 80.5801 16.5798 78.9701C16.1998 78.7301 16.2498 78.4701 16.2298 78.1701C16.2098 77.8701 16.3398 77.7101 16.6798 77.6401C17.6098 77.4501 18.5198 77.1601 19.4598 77.0001C21.2598 76.7101 21.3298 76.6501 20.8898 74.9001C20.8435 74.6896 20.8167 74.4754 20.8098 74.2601C20.8098 73.9301 20.8098 73.6101 20.8098 73.2601C20.7832 72.0179 20.8367 70.7753 20.9698 69.5401C21.1898 70.2601 21.4298 70.9801 21.6298 71.7201C21.7272 72.0793 21.7842 72.4482 21.7998 72.8201C21.7998 73.4101 21.7998 74.0201 21.7998 74.6101C21.8598 75.8301 22.3898 76.2301 23.5398 75.9601C23.7498 75.9601 23.9298 75.7001 24.1198 75.7001C26.2298 75.7001 27.1198 74.3401 27.6998 72.5301C28.2373 71.2006 28.5743 69.7986 28.6998 68.3701C28.633 67.2 28.2903 66.0624 27.6998 65.0501C27.4898 64.6301 27.2398 64.2201 27.0298 63.7901C26.8998 63.5301 26.5098 63.2601 26.9098 62.9801C27.0098 62.9101 27.3998 63.1301 27.5698 63.3001C28.4616 64.1584 29.1073 65.2399 29.4396 66.4322C29.772 67.6246 29.779 68.8841 29.4598 70.0801C29.1698 71.4001 28.6398 72.6601 28.1998 74.0201C29.0594 73.6662 29.8234 73.1146 30.4298 72.4101C31.2998 71.4101 32.0998 70.3001 32.9498 69.2701C33.2274 68.9733 33.428 68.613 33.5344 68.2208C33.6407 67.8287 33.6494 67.4164 33.5598 67.0201C33.2902 65.8928 32.9393 64.7866 32.5098 63.7101C32.3699 63.4397 32.1494 63.2194 31.8789 63.0797C31.6085 62.94 31.3013 62.8877 30.9998 62.9301C30.4799 62.8636 29.9812 62.6826 29.5398 62.4001C29.0398 62.1101 28.5898 61.7101 28.1098 61.4001C27.9798 61.3101 27.7598 61.3001 27.6998 61.1801C26.6998 59.2601 24.6498 57.9801 24.3098 55.6501C23.0098 53.4301 22.5598 50.9201 21.8398 48.5001C21.796 48.4054 21.7689 48.3039 21.7598 48.2001C21.9698 46.5101 21.3098 44.9401 21.0698 43.3101C21.0512 42.8849 20.8809 42.4805 20.5898 42.1701C20.0498 41.7801 19.3898 41.6901 19.3898 40.7301C19.3898 40.1101 18.8698 39.5201 18.7598 38.8001C18.5937 38.0209 18.5666 37.2186 18.6798 36.4301C18.6798 36.2001 18.5398 35.9501 18.5198 35.7101C18.5198 35.1301 18.0498 35.2201 17.6798 35.2001C17.3098 35.1801 17.2298 35.4801 17.1398 35.8201C16.5314 38.2195 16.3286 40.7037 16.5398 43.1701C16.6784 44.1081 16.9233 45.0274 17.2698 45.9101C17.598 47.1858 18.0191 48.4358 18.5298 49.6501C18.8398 50.3101 18.4498 50.9201 18.7598 51.5501C19.0149 52.1354 19.128 52.7727 19.0898 53.4101C19.0184 54.4179 18.8815 55.42 18.6798 56.4101C18.3925 57.429 18.2083 58.4743 18.1298 59.5301C18.155 59.6386 18.155 59.7515 18.1298 59.8601C17.3498 61.3501 18.1298 62.6501 18.6598 63.9601C19.2866 65.5479 19.5398 67.2587 19.3998 68.9601C18.8803 68.472 18.5299 67.8309 18.3998 67.1301C18.0298 65.9801 17.5598 64.8601 17.1798 63.7101C16.6047 61.9082 16.6047 59.9719 17.1798 58.1701C18.1661 55.1043 18.035 51.7884 16.8098 48.8101C16.3298 47.6301 16.2098 46.3601 15.6298 45.2001C15.4249 44.5337 15.3436 43.8356 15.3898 43.1401C15.3098 42.2301 15.3198 41.3101 15.1598 40.4201C14.8452 39.5682 14.8452 38.6319 15.1598 37.7801C15.2564 37.4096 15.2564 37.0205 15.1598 36.6501C15.1724 35.2904 15.4581 33.9472 15.9998 32.7001C16.2872 31.7668 16.8481 30.9412 17.6098 30.3301C18.0452 29.9697 18.3845 29.5071 18.5974 28.9836C18.8103 28.4601 18.8901 27.892 18.8298 27.3301C18.8255 26.0501 19.0246 24.7775 19.4198 23.5601C19.6216 22.7907 19.7488 22.0038 19.7998 21.2101C20.0432 19.1328 20.9804 17.1985 22.4598 15.7201C24.0836 13.7578 26.0569 12.1134 28.2798 10.8701C29.8414 9.9594 31.6033 9.44765 33.4098 9.38005C34.5372 9.2762 35.674 9.34704 36.7798 9.59005C37.5698 9.64912 38.3617 9.50451 39.0798 9.17005C39.6709 9.00644 40.2912 8.9772 40.8951 9.08448C41.499 9.19176 42.0712 9.43284 42.5698 9.79005C42.6058 9.82597 42.6313 9.87101 42.6437 9.92034C42.656 9.96967 42.6547 10.0214 42.6398 10.0701C42.5598 10.1701 42.3798 10.3201 42.2998 10.2901C41.3148 9.73992 40.1648 9.56245 39.0598 9.79005C40.1123 10.098 41.0872 10.6264 41.9198 11.3401C42.0851 11.4779 42.2117 11.6565 42.2871 11.8581C42.3625 12.0597 42.3841 12.2775 42.3498 12.4901C42.3045 12.6359 42.2441 12.7766 42.1698 12.9101C42.0198 12.8001 41.8098 12.7301 41.7298 12.5901C41.5742 12.2784 41.332 12.0183 41.0322 11.8409C40.7324 11.6636 40.3878 11.5765 40.0398 11.5901C39.0112 11.4381 37.9951 11.2108 36.9998 10.9101C36.6998 10.8401 36.3598 10.6101 36.0998 10.6801C34.7698 11.0201 33.4598 10.4501 32.0998 10.8801C29.1217 11.7752 26.4203 13.4132 24.2498 15.6401C22.9499 16.8399 21.9585 18.3355 21.3598 20.0001C21.0356 20.969 20.8504 21.9791 20.8098 23.0001C20.7983 24.8717 20.5803 26.7363 20.1598 28.5601C20.0391 29.1297 19.8006 29.6679 19.4598 30.1401C19.0615 30.7063 18.6943 31.2939 18.3598 31.9001C18.2405 32.2216 18.1664 32.5581 18.1398 32.9001C18.6998 32.7001 19.0298 32.6001 19.2298 32.0201C19.5256 31.2481 19.9983 30.5563 20.6098 30.0001C20.8195 29.7893 20.9754 29.5312 21.0642 29.2474C21.1529 28.9637 21.172 28.6627 21.1198 28.3701C21.069 27.1903 21.2006 26.0097 21.5098 24.8701C21.5098 24.7901 21.7698 24.7401 21.9198 24.7201C22.0698 24.7001 22.0798 24.9201 22.0498 24.9701C21.2698 26.4601 22.4398 27.9101 22.0498 29.4701L23.0998 29.2701L23.0598 29.2801ZM43.9998 62.0001L44.3298 61.6701L44.6498 61.3501L44.9998 61.0001C45.2984 60.9245 45.5846 60.8066 45.8498 60.6501C46.1198 60.4201 46.3098 60.4001 46.4498 60.6501C46.4622 60.7358 46.4521 60.8232 46.4206 60.9038C46.389 60.9845 46.3371 61.0555 46.2698 61.1101C44.9356 62.1078 43.7298 63.2666 42.6798 64.5601C42.1084 65.0854 41.6902 65.7558 41.4698 66.5001C41.1978 67.6463 41.0702 68.8221 41.0898 70.0001C41.1066 70.3539 41.0495 70.7074 40.9221 71.038C40.7946 71.3686 40.5998 71.669 40.3498 71.9201C39.6852 72.8884 38.8719 73.7456 37.9398 74.4601C37.1396 74.9969 36.3958 75.6133 35.7198 76.3001C35.3298 76.6501 34.8798 77.0001 35.3298 77.6301C35.6698 77.3301 35.9998 77.0501 36.3298 76.7501C37.5898 75.5701 38.8598 74.4201 40.0798 73.2001C40.5398 72.7501 40.4798 72.6901 40.9498 73.4501L42.0798 72.09C42.2398 72.09 42.4598 72.0901 42.5598 72.0301C44.5598 70.3401 46.4598 68.6301 48.3998 66.9201C48.5986 66.7312 48.7825 66.5273 48.9498 66.3101C49.3311 65.7314 49.7923 65.2096 50.3198 64.7601C50.8298 64.4501 50.7998 64.0601 50.9798 63.6401C51.2998 62.9101 50.9798 62.0901 51.3498 61.4501C51.8893 60.1552 52.0756 58.7404 51.8898 57.3501C51.7998 55.7801 52.6098 54.5001 53.0898 53.1101C53.0898 52.9601 53.4198 52.9001 53.5998 52.7901C53.6798 53.0201 53.8898 53.2701 53.8398 53.4601C53.6076 54.3447 53.3272 55.216 52.9998 56.0701C52.8985 56.2735 52.8458 56.4977 52.8458 56.7251C52.8458 56.9524 52.8985 57.1766 52.9998 57.3801C54.2943 55.7557 55.3299 53.9409 56.0698 52.0001C55.9998 52.0001 55.9498 51.8901 55.9298 51.9001C54.2598 52.6801 54.2698 52.6801 53.9898 50.9001L53.2598 51.8001C53.1998 51.5201 53.1398 51.4001 53.1698 51.3101C53.8599 49.4837 54.3038 47.5736 54.4898 45.6301C54.5312 45.4214 54.6445 45.2339 54.8098 45.1001C54.8646 45.0504 54.93 45.0138 55.001 44.993C55.072 44.9722 55.1468 44.9678 55.2198 44.9801C55.2773 45.0244 55.3229 45.0824 55.3526 45.1487C55.3822 45.215 55.395 45.2876 55.3898 45.3601C54.8498 46.1601 55.1898 47.0501 55.1298 47.8901L54.8898 48.0001L54.9998 48.1101L55.0998 47.8601C55.3157 47.8849 55.5338 47.8849 55.7498 47.8601C56.0998 47.7901 56.4798 47.5201 56.7498 47.6001C57.3198 47.7401 56.8598 48.3701 57.1198 48.7001C57.1698 48.7701 57.2898 48.7901 57.4598 48.8801C59.4495 46.9698 61.1597 44.7883 62.5398 42.4001C62.8137 41.8235 62.9375 41.1872 62.8998 40.5501C62.8494 39.8781 62.7559 39.21 62.6198 38.5501C62.602 38.164 62.486 37.7889 62.2827 37.4602C62.0794 37.1316 61.7956 36.8603 61.4581 36.672C61.1206 36.4837 60.7407 36.3847 60.3542 36.3844C59.9678 36.3841 59.5876 36.4824 59.2498 36.6701C58.7061 36.9827 58.12 37.2151 57.5098 37.3601C56.5098 37.4301 56.3098 38.1001 56.0698 38.8001C55.9903 39.128 55.9434 39.4629 55.9298 39.8001C55.4498 39.5001 54.8298 39.6301 54.7598 38.9701C54.6798 38.1301 54.9398 37.2601 54.4798 36.4501C54.4798 36.3701 54.8698 36.0301 55.0798 35.8101C55.2298 36.5501 55.3798 37.3001 55.5598 38.1601C56.1298 36.3901 57.9498 36.8401 59.1098 35.8101H55.1098C55.1098 35.7201 55.0498 35.5801 54.9798 35.5601C53.2488 35.1472 51.4632 35.0122 49.6898 35.1601C48.7898 35.1601 48.5298 35.3801 48.5898 36.3301C48.6898 38.1201 47.3798 39.1001 46.4398 40.2801C46.2198 40.5601 45.6698 40.5901 45.2698 40.7001C44.8759 40.8373 44.4711 40.941 44.0598 41.0101C43.0172 41.2531 41.9504 41.3772 40.8798 41.3801C40.1198 41.3101 39.3498 41.4301 38.5998 41.3801C37.9683 41.3554 37.3529 41.1732 36.8098 40.8501C35.5168 40.0822 34.5789 38.8353 34.1998 37.3801C34.1395 37.018 33.99 36.6767 33.7648 36.3868C33.5396 36.097 33.2458 35.8679 32.9098 35.7201C32.5298 35.5301 31.2598 35.8601 31.2798 36.1601C31.3398 37.1601 30.5798 37.9601 30.8698 39.0301C30.9396 39.4395 30.9006 39.8601 30.7567 40.2497C30.6128 40.6394 30.369 40.9843 30.0498 41.2501C29.8753 41.5 29.7577 41.7852 29.705 42.0855C29.6524 42.3858 29.6662 42.6939 29.7452 42.9883C29.8243 43.2828 29.9669 43.5563 30.1629 43.7898C30.3588 44.0233 30.6035 44.2111 30.8798 44.3401C31.5384 44.5014 32.2063 44.6216 32.8798 44.7001V44.7001C33.3798 45.7001 33.3798 45.7001 32.3998 45.7001C31.8644 45.7548 31.3234 45.7025 30.8084 45.5463C30.2934 45.3901 29.8146 45.133 29.3998 44.7901C29.2398 44.9301 29.0898 45.0901 28.9198 45.2301C28.3798 45.6901 27.7498 45.8401 27.6998 45.5401C27.6098 44.9901 28.0898 44.8701 28.4598 44.6501C28.6598 44.5201 28.9298 44.2301 28.9098 44.0501C28.8098 43.4001 28.6098 42.7601 28.4798 42.2401C26.1998 42.2401 24.0698 43.1901 21.7298 42.4901C21.7557 42.8823 21.8024 43.2728 21.8698 43.6601C22.1398 44.9001 22.4598 46.1201 22.7098 47.3501C22.8998 48.2801 22.8898 49.2701 23.1698 50.1701C23.9048 52.761 24.9384 55.2577 26.2498 57.6101C26.4098 57.8901 26.6098 58.1501 26.8598 58.5301C27.0398 57.6301 27.1798 56.9001 27.3398 56.1801C27.3614 56.1142 27.3993 56.0549 27.45 56.0077C27.5007 55.9605 27.5626 55.9269 27.6298 55.9101C27.6966 55.9235 27.7591 55.9534 27.8115 55.997C27.8639 56.0407 27.9045 56.0967 27.9298 56.1601C27.8901 56.5265 27.83 56.8903 27.7498 57.2501C27.5198 58.3901 27.4298 59.5301 28.4098 60.3801C29.2054 61.0664 30.0739 61.6633 30.9998 62.1601C31.6696 62.473 32.4005 62.6335 33.1398 62.6301C34.8558 62.8039 36.5887 62.6958 38.2698 62.3101C39.9021 61.9879 41.4 61.1831 42.5698 60.0001C42.9398 59.5601 43.1398 59.0001 43.4798 58.5101C43.6098 58.3301 43.9498 58.1001 44.0998 58.1501C44.4498 58.2801 44.2598 58.5501 44.0998 58.7901C44.034 58.9902 44.0003 59.1994 43.9998 59.4101L43.7398 59.5101L43.8598 59.6301L43.9698 59.3801C44.0709 59.3669 44.169 59.3364 44.2598 59.2901C45.5766 58.1373 47.0151 57.1313 48.5498 56.2901C48.6898 56.2301 48.7798 56.0501 48.9098 55.9601C49.1499 55.7538 49.4154 55.5791 49.6998 55.4401C50.4908 55.0962 51.1205 54.463 51.4598 53.6701C51.5298 53.5301 51.5598 53.3301 51.6698 53.2601C51.7798 53.1901 52.0498 53.2601 52.0698 53.3401C52.1432 53.5402 52.1432 53.7599 52.0698 53.9601C51.5075 54.4853 51.1527 55.1951 51.0698 55.9601C50.9798 55.9601 50.8098 55.9601 50.7998 55.9601C50.7898 55.9601 50.7998 55.5501 50.4398 55.7001C49.6758 56.0922 49.0225 56.6699 48.5398 57.3801C48.5398 57.3801 48.9598 57.8801 48.4098 57.8101C47.2698 57.6701 47.2698 57.6301 46.5398 58.5001L46.2098 58.8301C45.9897 58.7857 45.7611 58.8302 45.5737 58.9539C45.3864 59.0776 45.2556 59.2703 45.2098 59.4901L44.8798 59.8101L44.5498 60.1301L44.2198 60.4601C43.7855 60.546 43.3763 60.7292 43.023 60.9959C42.6697 61.2626 42.3814 61.6059 42.1798 62.0001C41.9598 62.4801 41.6998 62.9401 41.4498 63.4001C40.1846 65.9936 38.3528 68.2696 36.0898 70.0601C35.6805 70.2795 35.3719 70.6486 35.2284 71.0903C35.0849 71.5319 35.1176 72.012 35.3198 72.4301C35.5858 72.1518 35.8697 71.8912 36.1698 71.6501C38.5079 70.1264 40.2464 67.8403 41.0898 65.1801C41.2744 64.6842 41.5089 64.2084 41.7898 63.7601C41.8698 63.6201 42.0398 63.4001 42.1198 63.4201C43.1198 63.6701 43.2598 62.8101 43.6698 62.3001L43.9998 62.0001ZM21.7898 30.2901L21.5298 30.4001L21.6498 30.5201L21.7498 30.2601L22.0098 30.1601L21.8898 30.0001L21.7898 30.2901ZM55.4498 50.2301C55.3273 50.2996 55.2161 50.3873 55.1198 50.4901C55.1198 50.4901 55.1698 50.6701 55.1998 50.7701C55.2798 50.6901 55.3998 50.6201 55.4398 50.5201C55.4798 50.4201 55.4398 50.3201 55.4398 50.2101L55.6998 50.1101L55.5698 50.0001L55.4498 50.2301ZM55.7798 48.9201C55.5851 48.9329 55.3932 48.9733 55.2098 49.0401C55.1598 49.0401 55.2098 49.3001 55.2098 49.4301C55.2798 49.4301 55.3898 49.4301 55.4298 49.3701C55.5509 49.2215 55.6612 49.0644 55.7598 48.9001L56.3398 48.7801C56.2798 48.7201 56.1798 48.6001 56.1698 48.6101C56.0314 48.7024 55.901 48.8061 55.7798 48.9201V48.9201ZM24.7198 33.2301H23.2598C23.1516 33.2217 23.0428 33.236 22.9405 33.2721C22.8381 33.3081 22.7444 33.3652 22.6653 33.4395C22.5863 33.5139 22.5236 33.6039 22.4813 33.7039C22.439 33.8039 22.4181 33.9115 22.4198 34.0201C22.3616 34.8116 22.2412 35.5974 22.0598 36.3701C21.9412 37.1679 21.921 37.9773 21.9998 38.7801C22.0159 39.7642 22.0961 40.7463 22.2398 41.7201C23.0812 41.8009 23.9284 41.8009 24.7698 41.7201C25.5492 41.5475 26.3422 41.4437 27.1398 41.4101C27.4443 41.3419 27.7265 41.1973 27.9598 40.9901C29.5498 39.9001 29.7998 38.2101 29.9598 36.5001C30.0053 36.1261 29.985 35.747 29.8998 35.3801C29.8397 35.0681 29.6604 34.7918 29.3998 34.6101C28.9298 34.4001 29.0598 35.0201 28.8298 35.1801L27.9498 35.7701C28.3998 35.7701 28.7698 35.8601 29.1198 35.9201C29.1798 35.9201 29.2498 36.0801 29.2598 36.1701C29.2698 36.2601 29.1898 36.4301 29.1398 36.4401C27.6598 36.5501 26.1398 36.8101 24.9598 35.5401C24.8698 35.4401 25.0198 35.1101 25.0598 34.8901C26.0098 35.3401 26.0598 35.3401 26.0598 34.3701C26.0319 34.1782 25.9815 33.9902 25.9098 33.8101L24.9998 34.8501C24.5598 34.8501 24.2598 34.7301 24.3598 34.2201C24.4298 33.8801 24.5598 33.5401 24.6598 33.2201C24.7587 33.2405 24.8608 33.2405 24.9598 33.2201C25.0564 33.1675 25.1414 33.0961 25.2098 33.0101C25.1198 33.0101 24.9998 32.9101 24.9498 32.9401C24.8604 33.0259 24.783 33.1234 24.7198 33.2301V33.2301ZM43.4998 31.4901C42.8698 31.5901 42.2398 31.6801 41.6098 31.8001C40.3198 32.0401 39.0298 32.3501 37.7298 32.5401C36.7774 32.7747 35.9487 33.3604 35.4098 34.1801C34.8898 34.7501 35.2198 35.5301 35.1898 36.1801C35.1898 36.1801 35.2398 36.2801 35.2598 36.3301C35.499 37.1948 35.8344 38.03 36.2598 38.8201C36.5498 39.2501 37.0898 39.5601 37.3998 40.0701C37.5198 40.2801 37.9598 40.3801 38.2398 40.3701C39.4998 40.3701 40.7298 40.6001 42.0198 40.4501C43.2662 40.2348 44.4934 39.9204 45.6898 39.5101C46.7998 39.1901 47.8998 36.9301 47.5798 35.6301C47.4198 34.9401 47.4098 34.2501 47.2598 33.6301C47.1672 33.1748 46.9111 32.7693 46.5398 32.4901C45.6971 31.7705 44.6051 31.4113 43.4998 31.4901V31.4901ZM35.3198 69.7901C38.5398 66.8901 39.9698 65.0401 41.3198 61.9001C40.2598 62.3801 39.2698 62.6101 38.7798 63.7201C37.9524 65.228 36.8462 66.565 35.5198 67.6601C35.4383 67.7282 35.3615 67.8017 35.2898 67.8801C34.6298 68.6101 34.6298 68.7601 35.3198 69.7901V69.7901ZM35.1598 75.7901C35.6998 75.4301 36.0998 75.2001 36.4498 74.9101C37.2366 74.3532 37.9609 73.7128 38.6098 73.0001C39.6098 71.7301 40.9898 70.5701 40.2998 68.6601C39.5398 69.5601 38.8098 70.5201 37.9698 71.3701C37.3928 71.8375 36.7848 72.2651 36.1498 72.6501C35.8029 72.8459 35.5224 73.1409 35.3442 73.4972C35.166 73.8536 35.0983 74.255 35.1498 74.6501C35.1804 75.036 35.1837 75.4236 35.1598 75.8101V75.7901ZM46.2298 30.5501V30.4301C45.5798 30.2801 44.8698 29.8901 44.2998 30.0301C43.7298 30.1701 43.0898 29.6601 42.4998 30.0301C41.7581 30.3355 40.9379 30.3951 40.1598 30.2001C39.7008 30.1457 39.2355 30.187 38.7932 30.3212C38.3509 30.4555 37.9412 30.6798 37.5898 30.9801C37.5415 31.0413 37.5082 31.113 37.4926 31.1894C37.477 31.2658 37.4794 31.3448 37.4998 31.4201C37.546 31.4806 37.6072 31.5281 37.6773 31.5579C37.7475 31.5877 37.8241 31.5988 37.8998 31.5901C38.5498 31.4101 39.1798 31.1001 39.8398 30.9801C40.6529 30.7738 41.497 30.7196 42.3298 30.8201C43.2298 31.0101 43.9598 30.4101 44.8198 30.6101C45.2904 30.6497 45.7642 30.6295 46.2298 30.5501V30.5501ZM34.7198 67.6601C35.4698 66.8601 36.2198 66.1501 36.8598 65.3501C37.4998 64.5501 37.8598 63.8401 38.4398 62.9701C38.0385 63.0013 37.6497 63.1238 37.3031 63.3283C36.9565 63.5329 36.6612 63.8139 36.4398 64.1501C35.9578 64.9788 35.2686 65.668 34.4398 66.1501C34.0898 66.3301 34.0698 66.6301 34.3298 66.9501C34.4843 67.1724 34.615 67.4104 34.7198 67.6601ZM33.5898 64.7701C33.6596 64.8518 33.7231 64.9387 33.7798 65.0301C34.1798 65.7201 34.1998 65.7401 34.6198 65.3301C35.2867 64.8496 35.795 64.1811 36.0798 63.4101C34.6298 62.8101 34.3198 64.1501 33.5898 64.7701V64.7701ZM20.3898 34.1901C19.4498 35.2801 19.3898 36.7501 20.0398 38.9701C20.4724 37.4157 20.5914 35.7908 20.3898 34.1901V34.1901ZM33.8098 63.5501L33.6498 63.3001C33.5104 63.3953 33.3768 63.4988 33.2498 63.6101C33.2498 63.6101 33.2498 63.7801 33.3398 63.8701L33.8098 63.5501ZM20.8098 40.3601L20.6598 40.1101C20.6098 40.1901 20.4998 40.2801 20.5198 40.3501C20.5398 40.4201 20.6398 40.5401 20.7098 40.6301L20.8098 40.3601ZM16.7198 35.1201L16.8398 35.0201L16.7398 34.9001C16.7398 34.9001 16.6398 34.9701 16.6298 35.0101C16.6198 35.0501 16.6598 35.0801 16.6898 35.1201H16.7198ZM17.0198 33.6301C17.0198 33.6301 17.0198 33.7001 17.0198 33.7201C17.0198 33.7401 17.0698 33.7901 17.0898 33.8301L17.1498 33.6401L17.0198 33.6301ZM56.2398 49.6301C56.2398 49.6301 56.1898 49.7001 56.2398 49.7201C56.2898 49.7401 56.2398 49.7901 56.3198 49.8201L56.3798 49.6401L56.2398 49.6301Z" fill="#171717"/>
<path d="M23.0898 28.6601L22.5398 28.8901C22.5398 28.7401 22.3998 28.5701 22.4398 28.4401C22.5119 28.0787 22.6621 27.7374 22.8798 27.4401C24.3298 25.9201 25.1798 24.0001 26.3898 22.3301C26.7276 21.9073 27.1061 21.5188 27.5198 21.1701C27.7898 20.9201 28.1598 20.7701 28.3998 20.5001C29.7574 19.0536 31.5733 18.1209 33.5398 17.8601C34.1153 17.8007 34.6822 17.6766 35.2298 17.4901C36.1298 17.0801 37.2298 16.7701 37.4598 15.6201C37.5798 15.1401 37.9398 15.1701 38.1998 15.2801C38.4598 15.3901 38.5098 15.8001 38.3398 16.1101C37.7217 17.2445 36.8054 18.1885 35.6898 18.8401C34.1482 19.7632 32.4554 20.4065 30.6898 20.7401C29.9349 20.8849 29.2178 21.1833 28.5831 21.6168C27.9483 22.0503 27.4094 22.6096 26.9998 23.2601C26.1398 24.5201 25.4798 25.9201 24.4798 27.1201C24.1201 27.6983 23.8629 28.3343 23.7198 29.0001C23.5898 29.3701 23.3198 29.2801 23.0598 29.2901V28.6101L23.3198 28.5001L23.1998 28.3801L23.0898 28.6601ZM32.8998 18.8401C32.4729 18.8204 32.0472 18.9006 31.6566 19.0742C31.2661 19.2478 30.9213 19.51 30.6498 19.8401C31.4298 19.5601 32.1098 19.3201 32.7798 19.0501C32.7798 19.0501 32.8398 18.8801 32.8698 18.7901C33.0762 18.8051 33.2834 18.8051 33.4898 18.7901C33.5898 18.7901 33.6698 18.6501 33.7498 18.5801C33.6598 18.5801 33.5398 18.4601 33.4798 18.4901C33.2771 18.5905 33.0831 18.7075 32.8998 18.8401V18.8401Z" fill="#171717"/>
<path d="M24.3899 20.8001C24.6456 19.9988 24.9806 19.2249 25.3899 18.4901C26.2999 17.1701 27.3199 15.9201 28.3899 14.6901C29.5109 13.5375 30.9864 12.7944 32.5799 12.5801C34.0117 12.326 35.4677 12.2355 36.9199 12.3101C37.858 12.2505 38.7936 12.4608 39.6159 12.9163C40.4382 13.3717 41.1128 14.0532 41.5599 14.8801C41.6836 15.052 41.735 15.2654 41.7032 15.4748C41.6715 15.6841 41.559 15.8727 41.3899 16.0001C41.1499 16.2101 40.7899 16.2401 40.7899 15.9001C40.7899 15.0101 40.0999 14.7801 39.5499 14.6101C37.7107 13.9035 35.7601 13.531 33.7899 13.5101C32.826 13.5058 31.8815 13.7801 31.0699 14.3001C29.4699 15.4401 27.8299 16.5401 26.9699 18.4501C26.3692 19.4695 25.4631 20.2741 24.3799 20.7501L24.3899 20.8001Z" fill="#171717"/>
<path d="M21.8499 55.2801C21.7099 56.7701 21.5399 58.2801 21.4499 59.7601C21.4184 61.3175 21.9714 62.8302 22.9999 64.0001C23.8699 65.1301 24.8899 66.1701 25.1699 67.6801C25.3799 68.8501 26.0399 69.9701 25.4299 71.2101C25.3599 71.3401 25.4299 71.5401 25.4299 71.6901C25.3599 72.0301 25.6599 72.4801 25.1899 72.6901C24.9599 72.8001 24.5299 72.1901 24.4899 71.5901C24.4499 70.9901 24.4899 70.2901 24.4899 69.5901C24.5018 67.975 23.885 66.4186 22.7699 65.2501C22.058 64.5223 21.5122 63.6489 21.1699 62.6901C20.8171 61.9829 20.642 61.2002 20.6599 60.4101C20.9199 59.2301 20.7199 58.0401 20.9299 56.8901C21.3001 55.5519 21.3001 54.1383 20.9299 52.8001C20.8698 52.3655 20.8698 51.9247 20.9299 51.4901C20.9299 51.2601 21.0699 50.8601 21.1799 50.8501C21.7299 50.7901 21.4899 51.2601 21.5499 51.5301C21.8168 52.7611 21.9177 54.0223 21.8499 55.2801V55.2801Z" fill="#171717"/>
<path d="M53.21 23.7601C51.94 23.4001 50.66 23.2801 49.76 22.1701C49.02 21.2601 47.99 20.5901 47.56 19.4101C47.47 19.1601 47.11 19.0001 46.86 18.8201C46.42 18.5001 45.96 18.2301 45.55 17.8901C45.4354 17.7304 45.379 17.5363 45.39 17.3401C45.4463 17.2927 45.5118 17.2576 45.5824 17.2369C45.653 17.2163 45.7271 17.2105 45.8 17.2201C47.29 17.7801 48.87 18.2201 49.85 19.6301C49.9864 19.8495 50.1035 20.0804 50.2 20.3201C50.3541 20.8309 50.6304 21.2964 51.0051 21.6763C51.3797 22.0562 51.8414 22.339 52.35 22.5001C52.6966 22.6467 53.031 22.8206 53.35 23.0201C53.62 23.1301 53.91 23.2101 53.75 23.5501C53.67 23.6801 53.37 23.7001 53.21 23.7601Z" fill="#171717"/>
<path d="M31.0499 32.61L27.5499 31.23C26.9254 30.8989 26.2344 30.7126 25.5282 30.6849C24.8219 30.6572 24.1184 30.7889 23.4699 31.07C23.2199 31.19 23.0599 31.18 22.9799 30.96C22.9583 30.8778 22.9561 30.7916 22.9735 30.7083C22.9908 30.625 23.0273 30.5469 23.0799 30.48C23.5947 29.8763 24.2964 29.4618 25.0736 29.3024C25.8508 29.1429 26.659 29.2477 27.3699 29.6C28.1942 29.7639 28.9603 30.1434 29.5899 30.7C29.6999 30.84 29.9599 30.88 30.1599 30.93C31.2899 31.2 31.2899 31.2 31.0499 32.61Z" fill="#171717"/>
<path d="M60.9999 30.91C61.0147 31.0162 61.0147 31.1239 60.9999 31.23C60.9654 31.4336 60.9153 31.6342 60.8499 31.83C60.6699 31.83 60.4199 31.83 60.3099 31.66C59.7297 31.1043 59.2284 30.4718 58.8199 29.78C58.1528 28.6489 57.5873 27.4609 57.1299 26.23C56.709 24.9354 56.2046 23.6694 55.6199 22.44C55.5499 22.26 55.5099 22.07 55.3799 21.64C56.3097 22.462 57.0355 23.4891 57.4999 24.64C58.6199 26.64 59.6199 28.64 60.6799 30.64C60.7499 30.76 60.9099 30.82 61.0299 30.91H60.9999Z" fill="#171717"/>
<path d="M51.19 18.5001C50.2322 18.2149 49.339 17.7462 48.56 17.1201C47.27 16.2901 46.01 16.5501 44.7 16.6901C44.55 16.6901 44.41 16.8201 44.25 16.8501C44.1573 16.8736 44.0607 16.8778 43.9663 16.8625C43.8718 16.8473 43.7815 16.8128 43.701 16.7612C43.6204 16.7097 43.5512 16.6422 43.4977 16.5629C43.4442 16.4836 43.4076 16.3941 43.39 16.3001C43.32 15.8801 43.64 15.6001 44.07 15.5901C45.37 15.5901 46.68 15.5901 47.98 15.5901C48.0328 15.5798 48.0872 15.5798 48.14 15.5901C49.44 16.2701 50.9 16.7901 51.14 18.5101L51.19 18.5001Z" fill="#171717"/>
<path d="M57.3798 31.1401C55.7198 30.8701 55.1798 29.9001 55.0698 28.3601C54.8763 27.4396 54.5388 26.5554 54.0698 25.7401C53.8698 25.2601 53.9698 24.8301 54.4098 24.7401C54.5331 24.7127 54.6613 24.7157 54.7832 24.7488C54.9051 24.7819 55.0172 24.8441 55.1098 24.9301C55.7027 25.6732 56.0519 26.5812 56.1098 27.5301C56.0398 28.7601 56.1798 29.8701 57.4098 30.5301C57.4398 30.5801 57.3798 30.8501 57.3798 31.1401Z" fill="#171717"/>
<path d="M55.7499 62.63C55.6499 64.01 55.5199 65.38 55.4599 66.76C55.5004 67.2836 55.5705 67.8044 55.6699 68.32C55.6833 68.6273 55.6461 68.9347 55.5599 69.23C55.3999 69.84 55.1899 70.43 54.9499 71.17C54.2899 68.17 53.9499 65.31 55.7799 62.66L55.7499 62.63Z" fill="#171717"/>
<path d="M58.3897 54.8001C58.2397 54.2001 58.7797 53.9501 59.0297 53.5601C59.8797 52.2201 60.7797 50.9101 61.8497 49.3101C61.9097 49.8601 62.0297 50.1401 61.9397 50.3101C61.4118 51.4068 60.8035 52.4631 60.1197 53.4701C59.6099 53.9985 59.0233 54.4469 58.3797 54.8001H58.3897Z" fill="#171717"/>
<path d="M46.2996 26.74C46.0896 26.5 45.7296 26.28 45.6796 26C45.6146 25.4686 45.6146 24.9313 45.6796 24.4C45.6952 24.3333 45.7285 24.2721 45.7761 24.2228C45.8236 24.1735 45.8835 24.138 45.9496 24.12C46.0172 24.1309 46.081 24.1586 46.1351 24.2005C46.1893 24.2425 46.2321 24.2973 46.2596 24.36C46.2596 24.79 46.2596 25.22 46.2596 25.65C46.3023 25.9581 46.3692 26.2624 46.4596 26.56L46.2996 26.74Z" fill="#171717"/>
<path d="M58.3796 54.79C58.4029 54.8991 58.4042 55.0117 58.3836 55.1213C58.3629 55.2309 58.3206 55.3353 58.2592 55.4284C58.1978 55.5215 58.1184 55.6014 58.0258 55.6635C57.9331 55.7256 57.829 55.7686 57.7196 55.79V55.79C57.6776 55.5717 57.7218 55.3455 57.843 55.1591C57.9642 54.9726 58.1529 54.8403 58.3696 54.79H58.3796Z" fill="#171717"/>
<path d="M65.5598 55.1101C65.58 55.2057 65.58 55.3045 65.5598 55.4001C65.5072 55.4879 65.4395 55.5658 65.3598 55.6301C65.3598 55.5401 65.2598 55.4201 65.2898 55.3701C65.3802 55.2747 65.4847 55.1937 65.5998 55.1301L65.5598 55.1101Z" fill="#171717"/>
<path d="M57.7197 55.76C57.7197 56.03 57.7997 56.35 57.3897 56.41C57.3897 56.15 57.2497 55.79 57.7097 55.75L57.7197 55.76Z" fill="#171717"/>
<path d="M55.7797 62.66C55.7647 62.5606 55.7647 62.4594 55.7797 62.36C55.836 62.2718 55.907 62.194 55.9897 62.13C55.9897 62.22 56.0897 62.35 56.0497 62.4C55.9589 62.4923 55.8544 62.5699 55.7397 62.63L55.7797 62.66Z" fill="#171717"/>
<path d="M24.3796 20.78L24.2796 21.05L24.1396 20.92L24.3896 20.8L24.3796 20.78Z" fill="#171717"/>
<path d="M51.5 18.8501L51.75 18.9501L51.63 19.0601L51.54 18.8201L51.5 18.8501Z" fill="#171717"/>
<path d="M51.1899 18.5L51.4999 18.85L51.1499 18.53L51.1899 18.5Z" fill="#171717"/>
<path d="M57.3899 56.41L57.2799 56.68L57.1699 56.54L57.4199 56.45L57.3899 56.41Z" fill="#171717"/>
<path d="M33.2096 53.13C32.0688 53.1837 30.9314 52.9679 29.8896 52.5C29.5222 52.3588 29.1933 52.1331 28.9292 51.8413C28.6652 51.5495 28.4735 51.1996 28.3696 50.82C28.1596 50.08 27.8796 50.12 27.3696 50.34C27.2896 50.34 27.1596 50.34 27.0496 50.28C26.9396 50.22 27.0496 50.03 27.1196 49.99C27.8396 49.45 28.5796 48.94 29.2996 48.42C29.6962 48.0258 30.2047 47.7634 30.7558 47.6685C31.307 47.5737 31.874 47.651 32.3796 47.89C32.6078 47.9674 32.8492 47.9984 33.0896 47.9813C33.3301 47.9641 33.5646 47.8991 33.7796 47.79C34.0434 47.6646 34.3356 47.6106 34.6269 47.6334C34.9182 47.6562 35.1984 47.755 35.4396 47.92C35.9496 48.19 36.5196 48.35 37.0396 48.6C38.3656 49.1684 39.8139 49.392 41.2496 49.25C41.3896 49.25 41.5396 49.45 41.6896 49.56C41.5996 49.67 41.5296 49.82 41.4096 49.88C40.5796 50.32 39.7596 50.78 38.8996 51.17C38.1665 51.4443 37.4574 51.7788 36.7796 52.17C35.7426 52.9065 34.4761 53.2471 33.2096 53.13V53.13ZM38.8496 50.07C38.3696 49.91 38.0596 49.83 37.7696 49.72C36.631 49.214 35.3744 49.034 34.1396 49.2C33.5585 49.3453 32.9506 49.3453 32.3696 49.2C31.7802 49.0171 31.1431 49.0672 30.5896 49.34C30.1796 49.54 29.1396 49.16 29.3096 50.14C29.4296 50.82 30.2396 50.84 30.7196 50.86C33.4549 51.0727 36.2063 50.8053 38.8496 50.07V50.07Z" fill="#171717"/>
<path d="M38.9997 43.25C39.021 43.3818 39.0614 43.5099 39.1197 43.63C39.5959 44.3361 40.2036 44.9438 40.9097 45.42C41.8339 46.1773 42.6936 47.0102 43.4797 47.91C43.6878 48.1542 43.8473 48.4359 43.9497 48.74C44.1597 49.27 43.9497 49.94 43.7497 49.83C43.4937 49.6798 43.2962 49.4471 43.1897 49.17C42.6518 47.8707 41.6895 46.7921 40.4597 46.11C39.7293 45.5806 39.0937 44.9314 38.5797 44.19C38.4697 44.06 38.5197 43.78 38.5797 43.57C38.6397 43.36 38.6497 43.45 38.9997 43.25Z" fill="#171717"/>
<path d="M56.7197 39.28C57.2207 38.8671 57.7522 38.4927 58.3097 38.16C58.602 37.9711 58.9312 37.8466 59.2754 37.7948C59.6196 37.7431 59.9708 37.7652 60.3058 37.8598C60.6407 37.9545 60.9516 38.1194 61.2179 38.3435C61.4841 38.5677 61.6995 38.8461 61.8497 39.16C61.8497 39.22 61.7597 39.41 61.6797 39.51C61.6508 39.5454 61.6141 39.5738 61.5725 39.5928C61.5309 39.6119 61.4855 39.6212 61.4397 39.62C61.3398 39.5772 61.2534 39.5081 61.1897 39.42C60.4397 38.55 59.5797 38.66 58.5797 38.95C57.9997 39.14 57.4797 39.7 56.7197 39.28Z" fill="#171717"/>
<path d="M58.4898 40.12C58.5498 40.19 58.6798 40.29 58.6698 40.34C58.6009 40.5328 58.5174 40.72 58.4198 40.9C58.2098 41.33 58.0498 41.76 58.4198 42.18C59.0898 42.99 58.6098 43.69 58.1998 44.37C58.1098 44.51 57.8398 44.54 57.6498 44.63C57.6498 44.45 57.4798 44.23 57.5398 44.11C57.676 43.8224 57.7466 43.5082 57.7466 43.19C57.7466 42.8718 57.676 42.5576 57.5398 42.27C57.3577 41.9024 57.3247 41.4787 57.4477 41.0873C57.5707 40.696 57.8402 40.3673 58.1998 40.17C58.2598 40.11 58.3798 40.13 58.4898 40.12Z" fill="#171717"/>
<path d="M43.9999 62L43.6699 62.32L42.6699 62.52C42.8499 61.52 43.9899 61.22 44.2999 60.35L44.6199 60.02L44.9399 59.69L45.2599 59.36C45.3683 59.3834 45.4802 59.3852 45.5893 59.3652C45.6983 59.3451 45.8023 59.3037 45.8953 59.2433C45.9883 59.1829 46.0684 59.1046 46.1309 59.0131C46.1935 58.9216 46.2373 58.8186 46.2599 58.71L46.5899 58.38L47.2499 58.44C46.4399 59.35 45.6999 60.18 44.9699 61.02L44.6399 61.35L44.3199 61.67L43.9999 62Z" fill="#171717"/>
<path d="M32.8996 44.6801C33.1296 43.7901 33.2996 43.5501 33.8196 43.6801C34.0747 43.8175 34.3599 43.8894 34.6496 43.8894C34.9394 43.8894 35.2246 43.8175 35.4796 43.6801C35.5776 43.6469 35.6825 43.6395 35.7841 43.6588C35.8857 43.6781 35.9806 43.7233 36.0596 43.7901C36.2396 43.9401 36.4896 44.3301 36.4296 44.4001C36.3696 44.4701 35.8196 44.9401 35.7096 44.8701C34.7896 44.2901 33.7996 44.7801 32.8696 44.6001L32.8996 44.6801Z" fill="#171717"/>
<path d="M34.83 53.75C34.5336 53.9104 34.2176 54.0315 33.89 54.11C33.25 54.17 32.6 54.11 31.96 54.11C31.32 54.11 30.74 54.26 29.96 54.36C30.28 53.85 30.57 53.45 31.23 53.46C32.4 53.46 33.57 53.46 34.74 53.46L34.83 53.75Z" fill="#171717"/>
<path d="M37.3497 42C37.634 42.4511 37.8782 42.9263 38.0797 43.42C38.155 43.6493 38.1448 43.8981 38.0511 44.1204C37.9574 44.3428 37.7864 44.5238 37.5697 44.63C37.4897 44.63 37.3097 44.52 37.1797 44.46C37.7797 43.69 36.7697 42.86 37.3497 42Z" fill="#171717"/>
<path d="M45 49.0001C44.93 49.0601 44.83 49.2201 44.73 49.2301C44.63 49.2401 44.48 49.1001 44.39 49.0001C44.3591 48.899 44.3591 48.7911 44.39 48.6901C44.44 48.3401 43.77 48.1201 44.23 47.6901C44.2747 47.6664 44.3245 47.6541 44.375 47.6541C44.4256 47.6541 44.4754 47.6664 44.52 47.6901C44.71 47.9901 44.87 48.3001 45.03 48.6101C45 48.6501 45 48.7701 45 49.0001Z" fill="#171717"/>
<path d="M32.1 41.3701C31.89 41.3701 31.67 41.3701 31.47 41.3701C31.27 41.3701 31.28 41.2101 31.29 41.1501C31.3 41.0901 31.39 40.8001 31.47 40.7901C31.8015 40.7402 32.1385 40.7402 32.47 40.7901C32.62 40.7901 32.75 40.9901 32.89 41.1001C32.7574 41.2146 32.6133 41.3151 32.46 41.4001C32.3577 41.4203 32.2524 41.4203 32.15 41.4001L32.1 41.3701Z" fill="#171717"/>
<path d="M42.0597 72.1101L41.4497 72.0001L41.7697 71.2101H41.9697C41.9697 71.5201 41.9697 71.8301 42.0197 72.1401L42.0597 72.1101Z" fill="#171717"/>
<path d="M47.6198 59.9401C47.7398 60.1501 47.8798 60.2801 47.8498 60.3701C47.8288 60.4342 47.7908 60.4914 47.7396 60.5355C47.6885 60.5796 47.6263 60.6088 47.5598 60.6201C47.4973 60.595 47.4423 60.5542 47.4003 60.5017C47.3582 60.4491 47.3305 60.3865 47.3198 60.3201C47.3098 60.2301 47.4698 60.1201 47.6198 59.9401Z" fill="#171717"/>
<path d="M42.16 68.3601C42.27 68.6901 42.36 68.8301 42.33 68.8601C42.2036 68.9752 42.07 69.0821 41.93 69.1801C41.93 69.1101 41.8 69.0101 41.82 68.9701C41.9177 68.7585 42.0313 68.5545 42.16 68.3601V68.3601Z" fill="#171717"/>
<path d="M42.5499 66C42.5999 66.09 42.6999 66.18 42.6799 66.25C42.6599 66.32 42.5499 66.42 42.4799 66.5C42.4799 66.42 42.3799 66.32 42.3899 66.24C42.3999 66.16 42.4899 66 42.5499 66Z" fill="#171717"/>
<path d="M43.66 34.8401H44.47C43.92 35.7401 43.92 35.7701 43.33 35.7901C42.57 35.7901 41.81 35.7901 41.05 35.7901C40.701 35.7296 40.3636 35.6148 40.05 35.4501C39.95 35.4501 39.9 35.2101 39.82 35.0901C39.99 35.0101 40.17 34.8401 40.33 34.8601C40.6712 34.9571 41.0053 35.0774 41.33 35.2201L40.58 33.6701C39.96 34.1301 39.31 34.6701 38.63 35.0801C38.5597 35.104 38.4845 35.1101 38.4112 35.0979C38.3379 35.0857 38.2688 35.0555 38.21 35.0101C38.1782 34.9447 38.1616 34.8729 38.1616 34.8001C38.1616 34.7273 38.1782 34.6555 38.21 34.5901C38.7418 33.8399 39.474 33.2545 40.3228 32.9009C41.1716 32.5472 42.1029 32.4395 43.01 32.5901C43.5954 32.6326 44.162 32.8157 44.6616 33.1238C45.1613 33.432 45.5792 33.856 45.88 34.3601C45.7039 34.4779 45.4968 34.5408 45.285 34.5408C45.0731 34.5408 44.8661 34.4779 44.69 34.3601C44.05 33.9401 43.85 34.3601 43.69 34.8501L43.43 34.9601L43.55 35.0901L43.66 34.8401Z" fill="#171717"/>
<path d="M38.6 37.4301C38.2387 37.126 37.9041 36.7914 37.6 36.4301C37.4961 36.1945 37.4682 35.9323 37.52 35.6801C37.52 35.6201 37.9 35.5301 37.91 35.5501C38.21 36.1301 38.48 36.7201 38.75 37.3101L38.6 37.4301Z" fill="#171717"/>
<path d="M29.7197 36.8201C29.1697 37.3701 28.9097 37.9801 28.1597 37.7301C28.6997 37.0001 28.6997 37.0001 29.7197 36.8201Z" fill="#171717"/>
</svg>
