<svg xmlns="http://www.w3.org/2000/svg" viewBox="0 0 60 60"><defs><style>.cls-1{fill:#171717;}</style></defs><g id="Collections"><path class="cls-1" d="M49.25,34.51c1.25.29,2.38.5,3.47.83A1.75,1.75,0,0,1,54,37.23a4.42,4.42,0,0,1-.82,2.65Q50.51,43.66,48,47.57a68,68,0,0,0-4.31,6.94c-.36.74-.82,1.39-1.79,1.34-.1,0-.25,0-.3.06-.75,1.08-1.63.41-2.39.08a11.54,11.54,0,0,0-2.13-.5c-1.42-.31-2.93-.15-4.29-.87a5.64,5.64,0,0,0-2.16-.35A9.6,9.6,0,0,1,27.48,54c-.24-.1-.61.07-.91.13-.5.11-.9-.06-.91-.5,0-.73.08-1.47.14-2.2s.13-1.23.2-1.88a18.84,18.84,0,0,0-6.25.64A12.28,12.28,0,0,0,17,51.71a16.38,16.38,0,0,1-2.14.95c-.6.22-.94.09-1.19-.45s-.42-1.28-.66-1.91c-.74-1.83-1.42-3.69-2.26-5.47C9.06,41.19,7.25,37.6,5.47,34A4.09,4.09,0,0,1,6.9,28.6c1.56-1,3.17-1.84,4.71-2.73-.26-1.45-.51-2.93-.82-4.4a10,10,0,0,0-.65-1.91,5.65,5.65,0,0,1-.63-2.73,1.49,1.49,0,0,0,0-.79c-.71-1.25,0-2.33.39-3.44a1.15,1.15,0,0,1,.52-.5A10,10,0,0,1,14.75,11c1.07-.11,2.15,0,3.22,0s1.86-.19,2.84-.3c0-.84,0-1.53,0-2.22q.11-1.49.33-3a2.11,2.11,0,0,1,1.53-1.23c2.13-.12,4.25-.29,6.37-.32,3.12-.06,6.23,0,9.35,0a30.1,30.1,0,0,0,3.79-.31c1.44-.22,2,.88,2.14,2,.61,3.76.21,7.55.31,11.32a2,2,0,0,1-.12.77c-.13.28,0,.33.21.4,1.26.35,2.29,1.23,3.58,1.52a4.59,4.59,0,0,1,1.46.55,9.45,9.45,0,0,0,3.58,1.1c1.61.3,2,1,1.3,2.53C53.47,26.16,52.25,28.59,51,31,50.45,32.2,49.84,33.36,49.25,34.51Zm-25.5-9.1c1.91-.21,3.73.22,5.51-.31a3.86,3.86,0,0,1,1.43,0,13.25,13.25,0,0,0,1.39.19c3,0,6,0,9,0h1.3c.08-3,0-5.84.26-8.7.26-3.18.07-6.4.08-9.61a10.47,10.47,0,0,0,0-1.12c-.06-.58-.49-1-1-.75a6.37,6.37,0,0,1-2.83.28c-5.34.09-10.69-.24-16,.42a3.66,3.66,0,0,0-.17,2.28c.11,1.2.09,2.4.27,3.62.31,2,.29,4.1.4,6.16C23.51,20.36,23.62,22.79,23.75,25.41ZM27.25,39l3.19.47c.68.1,1.35.22,2,.31a16,16,0,0,1,3.28.41c1.91.63,3.91.7,5.83,1.17a6.9,6.9,0,0,0,1.44,0,.63.63,0,0,0,.72-.45,31.78,31.78,0,0,0,1.74-3.51,51.15,51.15,0,0,1,2.9-6.23c1.2-2.49,2.63-4.88,4-7.31.22-.4.11-.7-.32-.82a40.79,40.79,0,0,1-7.61-3.25,18.45,18.45,0,0,0-.06,2.08c0,1.55,0,3.1,0,4.65,0,.73-.15.85-.93,1-.2,0-.41.05-.69.08.28.42.5.79.75,1.12.8,1,.79,1.43-.18,2.25a2.78,2.78,0,0,1-1.07.65,26,26,0,0,1-2.65.4,1.76,1.76,0,0,1-2-.93.9.9,0,0,0-.6-.35c-.3-.06-.72,0-.66-.45a1.2,1.2,0,0,1,.45-.76c.9-.62,1.8-.49,2,.49s.63.8,1.11.69A7.22,7.22,0,0,0,42.41,30c.28-.18.45-.45.16-.79s-.57-1-1-1.2-.88.11-1.34.19h-.16l-7.66.34-1.09.07c.16.78.33,1.43.4,2.09a3.11,3.11,0,0,1-.49,2.41c-.53.67-1.23.52-1.91.58a13.63,13.63,0,0,0-1.54.23.57.57,0,0,0-.54.64C27.27,36.07,27.25,37.56,27.25,39Zm2.43,7.21c.39-1.14-.08-2.09-.15-3.07s-.18-1.21-1.19-1.44c-.45-.11-.91-.2-1.36-.33a2.24,2.24,0,0,1-1.82-1.92,6.39,6.39,0,0,1,0-2.18,7.62,7.62,0,0,0,.08-2.7,12.91,12.91,0,0,1-1.68.7,20.76,20.76,0,0,0-6.16,2.22,2.69,2.69,0,0,1-.57.26,1.58,1.58,0,0,1-2.27-1.15c-.27-1-.77-1.93-1.13-2.9a15.91,15.91,0,0,1-1-3.75A7.17,7.17,0,0,0,11.65,27l-.84.58L7.28,30a1.53,1.53,0,0,0-.67,1.67,4.36,4.36,0,0,0,.53,1.44c2,3,3.6,6.14,5.36,9.23a43.77,43.77,0,0,1,3.13,6.14,11.75,11.75,0,0,0,.72,1.35c.75-.48,1.35-.9,2-1.28a13.38,13.38,0,0,1,7.56-2.3C27.18,46.29,28.46,46.24,29.68,46.24ZM20.8,24.54c-.89-1.08-.89-1.08-2-1.1h-.16a3.26,3.26,0,0,1-3.06-2.29,1.81,1.81,0,0,1-.22-1.36,5,5,0,0,1,1.74-2.41A6.14,6.14,0,0,1,21,16.05c.39-1.6-.31-3-.25-4.37-1.65.18-3.21.42-4.77.49a19.3,19.3,0,0,0-3.86.7c-.26.07-.67.49-.64.56.3.61-.36,1.3.24,1.89.23.23.24.68.36,1a21.88,21.88,0,0,1,.7,3.19c.5,2.44,1.23,4.81,1.69,7.27C15,29.68,16,32.47,16.8,35.33c1.43-.65,2.82-1.25,4.18-1.92A20.48,20.48,0,0,1,28.3,31.8c.37,0,.75,0,1.13,0s.43-.27.38-.55c-.14-.87-.31-1.73-.45-2.55-1.61-.14-3.19-.39-4.77-.38a2.35,2.35,0,0,1-2.53-1.47,2.76,2.76,0,0,0-.53-.61,11.45,11.45,0,0,0-.72,1.59c-.16.55,0,.74.64.77s1-.09,1.24.52a3.38,3.38,0,0,1-1,.4c-1.82.12-2,0-1.79-1.8.09-.61,0-1.7,1.23-1.73.11,0,.29-.38.3-.59a7.33,7.33,0,0,1,.31-2.66,2.23,2.23,0,0,0-.14-1.22,9.71,9.71,0,0,1-.48-3.25,7.12,7.12,0,0,0,0-.8c0-.5-.41-.53-.67-.4A8.47,8.47,0,0,0,17.38,19a1.7,1.7,0,0,0,.29,2.76,3.61,3.61,0,0,0,1.49.42,19.61,19.61,0,0,0,2.06,0Zm7,27.78c1,0,1.84,0,2.64,0a10.32,10.32,0,0,1,3.58.51,8.47,8.47,0,0,0,1.82.44,12.08,12.08,0,0,1,3.56.6,3.93,3.93,0,0,0,2.2-.06c.3-.08.43-.77.65-1.17.05-.1.15-.16.2-.25,1.78-2.73,3.54-5.46,5.34-8.17,1-1.53,2.13-3,3.18-4.51a13.19,13.19,0,0,0,.89-1.48c.35-.71.2-1.07-.56-1.31s-1.52-.34-2.27-.56c-.5-.15-.74-.07-1,.45-.58,1.4-1.22,2.78-1.91,4.12A13.4,13.4,0,0,1,44.81,43a1.41,1.41,0,0,1-.89.6c-1.84,0-3.71.32-5.5-.5A6.15,6.15,0,0,0,36,42.68c-1.32,0-2.67.26-4-.28a.37.37,0,0,0-.55.36c0,.74.09,1.47.16,2.21,0,.41.1.83.15,1.24a1.45,1.45,0,0,1-1.12,1.66c-.79.3-1.34,1.08-2.22,1.29a.31.31,0,0,0-.18.23C28.1,50.31,28,51.24,27.84,52.32Z"/><path class="cls-1" d="M38.52,12.89a7.87,7.87,0,0,1-2.66,4.63,2.4,2.4,0,0,1-2.41.34A4.49,4.49,0,0,1,30.85,16a23.2,23.2,0,0,0-2-2.65,1.13,1.13,0,0,1-.18-1.16,5.44,5.44,0,0,1,2.85-3.4,5,5,0,0,0,.57-.27c.82-.58,1.63-1.25,2.55-.16.82-.07,1.35.19,1.37,1.11,0,.07.36.12.55.19C38.07,10.2,38.56,10.93,38.52,12.89Zm-4.6,3.5c.89,0,1-.05,1.35-.52.22-.29.4-.62.65-.89a5.86,5.86,0,0,0,1-2.26c.17-.49-.11-.89-.5-1.24s-.64-.11-1,0a6.31,6.31,0,0,1-1.78.54c-.91.08-2,.72-2.6-.66a.39.39,0,0,0-.4-.11,1.26,1.26,0,0,0-.23,1.65,12.11,12.11,0,0,1,1.78,2.38A2.33,2.33,0,0,0,33.92,16.39Zm-.47-6.06,2.34-.89C34,9.26,34,9.26,33.45,10.33Z"/><path class="cls-1" d="M40.08,21.07a2.71,2.71,0,0,1-1.49,1.87,3.58,3.58,0,0,1-2.43.44c-.14,0-.27-.22-.41-.23-1.84-.13-3.69-.25-5.53-.35a1.67,1.67,0,0,0-.75.19c-.73.33-1.22-.14-1.69-.52a.86.86,0,0,1-.08-.84,4.4,4.4,0,0,1,1-1c.08-.06.39.06.53.17.43.38-.07.32-.22.45a.48.48,0,0,0-.12.41.43.43,0,0,0,.4.15,6.83,6.83,0,0,1,4.53-.05,5.24,5.24,0,0,0,1.26.09,5.39,5.39,0,0,1,1.71.24,3,3,0,0,0,2.52-.54Z"/><path class="cls-1" d="M37.52,36.59c-.9,0-1.42-.36-1.56-1.06s.19-1.09.84-.73c.49.26.94.09,1.38.19a2.85,2.85,0,0,1,.84.36c.09.06.08.28.12.43C38.39,35.65,38.26,36.78,37.52,36.59Z"/><path class="cls-1" d="M21.61,42c.28-.15.55-.32.84-.44s1.27.42,1.21.86c0,.11-.19.21-.31.27s-.53.12-.7.28a1.53,1.53,0,0,1-2.45,0c-.11-.1-.34-.25-.4-.21-.75.54-1.84-.09-2.49.74a.43.43,0,0,1-.69,0c-.25-.23-.4-.44-.19-.82.39-.74.79-1.39,1.78-1.26a2,2,0,0,0,.64,0C20.56,41.08,20.56,41.08,21.61,42Z"/><path class="cls-1" d="M41,48.49c.29.61,0,.91-.3,1.23a3.05,3.05,0,0,1-1.58,1,1.89,1.89,0,0,1-2.44-1.17c-.3-.74-.65-.55-1.16-.45a1.8,1.8,0,0,1-1,0,.84.84,0,0,1-.46-.57.8.8,0,0,1,.43-.59,12.52,12.52,0,0,1,1.82-.38,1.09,1.09,0,0,1,1.26.68c.82,1.57,1.42,1.67,3,.65C40.69,48.76,40.8,48.64,41,48.49Z"/></g></svg>