<svg xmlns="http://www.w3.org/2000/svg" viewBox="0 0 90 90"><g id="Confetti"><path d="M46,62.74A7.83,7.83,0,0,0,47,65a3.22,3.22,0,0,1,.32,1.64,1.79,1.79,0,0,1-1.16,1.72c-.55.21-1.13.39-1.68.6-2.16.81-4.3,1.67-6.48,2.44-2.93,1-5.89,2-8.84,3q-2.61.9-5.19,1.84c-1.69.62-3.4,1.18-5,1.91a33.33,33.33,0,0,1-3.73,1.37,2.25,2.25,0,0,1-1.59-.19c-.38-.14-.59-.71-.91-1.06s-.19-.83-.15-1.32a15.74,15.74,0,0,1,1.28-3.76c1-2.73,2.23-5.37,3.11-8.15a4.93,4.93,0,0,1,.23-.46c.86-1.78,1.74-3.56,2.57-5.35.44-1,.81-2,1.2-3a75.08,75.08,0,0,1,4.44-9.16c.3-.53.84-.71,1.31-1a1.42,1.42,0,0,1,1.59,0,1.9,1.9,0,0,0,.53,0c-.11.18-.25.3-.25.42,0,.54-.27.78-.73.5s-.67-.08-.85.24a2.05,2.05,0,0,0-.15,2c.19.41.35.84.65,1.56V49.37c0-.28.17-.41.42-.35s.32.17.34.28a31.28,31.28,0,0,1,.53,3.17A2,2,0,0,0,29.41,54a6.54,6.54,0,0,1,.71.87v-2c.94.1,1.18.61,1.09,1.41-.05.39,0,.79,0,1.18a3,3,0,0,0,1.33,2.66v-4c.14.08.2.1.24.15.27.25.69.48.76.79a7.48,7.48,0,0,1,0,1.71,18.68,18.68,0,0,1,0,2,2.38,2.38,0,0,0,.92,2.18c.19.16.37.34.67.62V58.2c0-.53,0-1.06,0-1.58,0-.15.12-.29.18-.44l.33.3A1.93,1.93,0,0,1,36.26,58a15.33,15.33,0,0,0,.21,1.79,14.22,14.22,0,0,1,0,1.46c0,.41-.23.89-.08,1.21s.67.68,1.08,1.06c.18-.85,0-1.71.11-2.64.21.29.35.51.51.69a2,2,0,0,1,.51,1.68,1.7,1.7,0,0,0,1.48,2.16l.17-1.28h1.12a.65.65,0,0,1,.11.22,5.66,5.66,0,0,1,0,.92c-.13.81.26,1.2,1.08,1.36,0-.53,0-1.06,0-1.58s.16-.89.52-.92.5.47.53.88.19.75.22,1.13a2.9,2.9,0,0,1-.11.75c.23.08.51.2.79.28a.9.9,0,0,0,1.23-.86,3.71,3.71,0,0,0-.45-2c-.58-1.15-1.22-2.27-1.88-3.5L44.5,60l1.16,2.22L46,59.17c-.63-.58-1.42-.21-2.13-.08a2.25,2.25,0,0,0-1.67,1.29c-.07.15-.24.25-.35.39-1,1.16-1.15,1.2-2.28.32a.82.82,0,0,1-.34-.63c.08-.45-.57-.85,0-1.32.31-.29.5-.73.84-1a5.41,5.41,0,0,1,1.36-.68c.82-.32,1.64-.86,2.56-.29a4.82,4.82,0,0,1,2.88.61.5.5,0,0,0,.41-.05c.48-.28.94-.63,1.44-.87a3.24,3.24,0,0,1,2.57-.11c.76.26,1.08,1.06.88,2.1-.1.52-.09,1.23-.69,1.45s-1-.2-1.36-.59a1.89,1.89,0,0,0-1.82-.64A9.79,9.79,0,0,0,49,60.92c.4.62.13,1.08-.15,1.56a2.86,2.86,0,0,1-.65.65,1.17,1.17,0,0,1-1.52.1c-.21-.15-.42-.3-.62-.46l-.09-.2-.09.09Zm-8.76,4.52a12.09,12.09,0,0,1,1.83,1.2,1.92,1.92,0,0,0,2.46.22,2.4,2.4,0,0,0,.23-.11c.09-.07.22-.16.22-.24a.33.33,0,0,0-.2-.26,16.78,16.78,0,0,1-6.56-4.32c-.68-.69-1.39-1.35-2.06-2a10.82,10.82,0,0,1-.93-1.1c-1-1.31-1.92-2.66-2.89-4A28.2,28.2,0,0,1,26.18,51c-.24-.56-.41-1.16-.65-1.86-.78,1.75-1.5,3.35-2.19,5-.32.75-.55,1.53-.87,2.28-1,2.24-1.9,4.5-3,6.7-.44.93-.91,1.84-1.28,2.8q-.75,2-1.56,3.93c-.83,2-1.7,3.93-2.53,5.91a4.34,4.34,0,0,0-.4,2,.9.9,0,0,0,.91.84.52.52,0,0,0,.29-.26s0-.19-.11-.24a.78.78,0,0,1-.16-1.27c1.31,1.15,1.61,1.23,2.87.73.73-.28.77-.38.44-1.08a2,2,0,0,1-.24-.46.65.65,0,0,1,.11-.48c0-.06.31,0,.43.08a2.28,2.28,0,0,1,.46.47,1,1,0,0,0,1.39.3c.59-.28,1.2-.5,1.88-.78a3.57,3.57,0,0,1-.65-.65,2.3,2.3,0,0,1-.14-.71,2.4,2.4,0,0,1,.71,0c.19.06.33.28.52.39a1.8,1.8,0,0,0,1.37.25c.64-.18,1.25-.46,2-.73l-1.36-1.09c.4-.35.53-.68.93-.45s.76.4,1.14.61c1.16.65,2.13.07,3.22-.43a7.57,7.57,0,0,1-.72-.53c-.46-.41-.58-.82-.31-1s.62.07.9.28a2.65,2.65,0,0,0,3.5,0c-.39-.38-.75-.75-1.13-1.1s-.14-.61.18-.84c.19.18.38.36.58.53,1.17,1.07,1.67,1.15,3.07.48.06,0,.08-.11.16-.22-.17-.14-.34-.28-.5-.43s-.62-.57-.9-.89c-.09-.1-.07-.3-.1-.46.2,0,.46-.12.59,0a14.92,14.92,0,0,1,1.35,1c.92.69,1.47.64,2.4-.2C38.36,68.74,37.32,68.47,37.27,67.26Zm3-7,2.78-2a3.59,3.59,0,0,1,.34-.17.2.2,0,0,0,0-.13c0-.07-.08-.19-.11-.18A5,5,0,0,0,39.8,59.6c-.23.31-.09.45.24.54A.44.44,0,0,1,40.24,60.26Zm7-.39a2.21,2.21,0,0,0-.39,1.9.7.7,0,0,0,.55.42c.18,0,.34-.33.47-.54s0-.25,0-.37C47.63,60.82,47.43,60.36,47.23,59.87Zm2.49-2c.35.25.66.48,1,.69,0,0,.2,0,.22,0a.44.44,0,0,0,.07-.34C50.72,57.68,50.31,57.66,49.72,57.82Z"/><path d="M40.75,30.6c-.39-2,.69-3.67,2.23-5.17a11.91,11.91,0,0,1,3.28-2,3.57,3.57,0,0,1,2,0,3.9,3.9,0,0,0,2.95-1.1,2.31,2.31,0,0,0,1-2.68,12.24,12.24,0,0,1-.3-2.43,1.93,1.93,0,0,1,1.41-1.67A1.56,1.56,0,0,1,55,16.1a8,8,0,0,1,1.56,3.62,4.33,4.33,0,0,1-1.11,3.34c-.14.17-.32.31-.46.48A4.17,4.17,0,0,1,51.78,25c-1.39.13-2.78.1-4.16.23a3.78,3.78,0,0,0-3.47,3.44,11.26,11.26,0,0,0-.22,1.13c0,1,.15,2.06.26,3.1,0,.1.25.18.37.29s.52.31.34.6a1,1,0,0,1-.62.39,15.43,15.43,0,0,1-1.91.28c-1,.08-1,0-1.37-.92a3,3,0,0,1-.24-.73C40.72,32.14,40.75,31.48,40.75,30.6Zm2.36-3.55a2.15,2.15,0,0,0-1.29,1.66,30.26,30.26,0,0,0,0,3.81,1.27,1.27,0,0,0,.37.79c.09.09.45-.16.68-.15.51,0,.64-.26.5-.65a7.9,7.9,0,0,1-.49-3.29c0-.73.16-1.45.25-2.17l.21-.1-.11-.11Zm8.78-3.55a1.24,1.24,0,0,0,1.45-.25c2.35-1.76,2-4.46.5-6.26-.19-.21-.39-.38-.67-.13s-.36.35-.17.66c.53.83.28,1.86.67,2.73C53.36,21.48,53.21,22.8,51.89,23.5Z"/><path d="M63.57,22.52c.5-.35.9-.7,1.35-.95a4.31,4.31,0,0,1,3-.56,2,2,0,0,1,1.67,2,4.4,4.4,0,0,1-1.06,2.83,3.42,3.42,0,0,1-3.12.9,1,1,0,0,1-.46-.22c-.49-.34-1-.7-1.54-1.11a3.78,3.78,0,0,0-.73,1.71c-.16.57-.16,1.19-.3,1.78a11.07,11.07,0,0,1-.52,1.38,2.2,2.2,0,0,1-.78-1.69,6.64,6.64,0,0,1,1.15-4.17,1,1,0,0,0,0-1.1A6.12,6.12,0,0,1,62.15,19a4.92,4.92,0,0,1,2.12-2.55,1.92,1.92,0,0,1,1.38-.25c.15,0,.4.11.42.2a.86.86,0,0,1-.13.6,4.13,4.13,0,0,1-.74.49,4,4,0,0,0-1.73,4.69C63.5,22.28,63.52,22.37,63.57,22.52Zm4.33.13c-1.38-.43-2.32.29-3.24,1a.57.57,0,0,0-.12.47,1.77,1.77,0,0,0,2.59.72A1.93,1.93,0,0,0,67.9,22.65Z"/><path d="M58.8,42.31a5.37,5.37,0,0,0-.35,2.63c0,.46-.32.62-.81.5-1.15-.29-1.8.05-2.29,1.28S54.42,49,54,50.19a5.3,5.3,0,0,1-2.71,3.31,8.08,8.08,0,0,0-1.36,1,2.19,2.19,0,0,1-1.67.56,9.3,9.3,0,0,1-2.13-.83c-.09,0-.16-.34-.11-.47a14.63,14.63,0,0,1,.69-1.37.89.89,0,0,1,.4-.43c.18-.06.52-.06.62.06.43.51,1,.4,1.57.5.8.15,1.11.06,1.35-.65a30,30,0,0,0,.89-2.93c.32-1.34.44-2.72.85-4a14.17,14.17,0,0,1,1.4-2.74,1.65,1.65,0,0,1,1.08-.64,4.55,4.55,0,0,1,3.4.29C58.48,41.9,58.62,42.13,58.8,42.31ZM52.14,51l.21.09c.54-1.35,1-2.73,1.63-4s1.21-3.11,3.38-2.84V42.39c-.66,0-1.27,0-1.87,0a1.34,1.34,0,0,0-1.3.88c-.24.69-.58,1.34-.77,2-.48,1.77-.66,3.61-1.31,5.33C52.07,50.76,52.13,50.9,52.14,51Zm-2.62,2.62c-.68-.3-1.28,0-1.8-.35-.22-.17-.68.19-.62.45a.62.62,0,0,0,.46.28,7.27,7.27,0,0,0,1.32,0C49.07,54,49.24,53.82,49.52,53.64Z"/><path d="M39.73,21.11a12.13,12.13,0,0,1,1,1.06,4.33,4.33,0,0,1,.56,3c0,.34-.27.52-.62.56s-.41-.26-.51-.48a1.38,1.38,0,0,1-.15-.62,3.48,3.48,0,0,0-1-2.87c-.45,0-.65.47-1,.76a3,3,0,0,1-2.59.51c-.25,0-.49-.35-.69-.58a1.82,1.82,0,0,1,.73-2.79c.67-.2,1.38-.56,2.11-.06a.69.69,0,0,0,.64,0c.13-.09.1-.39.21-.57a4.51,4.51,0,0,0,.19-2.57c0-.27-.32-.56-.54-.81s-.45-.31-.57-.52a.8.8,0,0,1-.06-.7,4.18,4.18,0,0,1,2.43-1.63.62.62,0,0,1,.52.29,6.74,6.74,0,0,1,.93,2.78A7.68,7.68,0,0,1,39.73,21.11Zm.46-3.62a7,7,0,0,0-.25-2.84c-.25-.6-.55-.74-1.08-.39a3.7,3.7,0,0,0-.51.48,2.18,2.18,0,0,1,1.31,1.91C39.72,17,39.71,17.33,40.19,17.49Zm-2.63,3.33A3.34,3.34,0,0,0,36,20.71a.64.64,0,0,0-.59.71c.06.39.5.74.84.57C36.79,21.75,37.42,21.58,37.56,20.82Z"/><path d="M69,57a3.87,3.87,0,0,1,1.34-4.68,2.36,2.36,0,0,1,3.58,1.59,3,3,0,0,1-.8,2.51c-.44.41-.84.86-1.33,1.38a5.09,5.09,0,0,0,3.49.36c.3-.07.41,0,.5.19a.52.52,0,0,1,0,.45,2.47,2.47,0,0,1-2.9,1,6.47,6.47,0,0,1-2.48-1,1.65,1.65,0,0,0-1-.2,8.33,8.33,0,0,1-2.58-.26A3.94,3.94,0,0,1,64,56a.62.62,0,0,1,.13-.57.73.73,0,0,1,.6.08c.19.09.3.32.47.45s.5.33.74.52C66.86,57.15,67.89,56.89,69,57Zm1.47-.11c.61-.58,1.07-1,1.47-1.42A2,2,0,0,0,72.49,54c0-.39-.22-.49-.5-.65s-.56-.26-.84,0c-.69.57-1.3,1.19-1.07,2.2C70.16,55.93,70.3,56.29,70.49,56.88Z"/><path d="M47.52,36a4.17,4.17,0,0,1,3.59,1.51,2.77,2.77,0,0,1,.73,1.88,4.66,4.66,0,0,1-3.41,4.65c-.13,0-.25.15-.36.13-1.66-.21-3.27-.56-4.27-2.09a2,2,0,0,1-.43-1.33c0-.31,0-.62,0-.93A3.51,3.51,0,0,1,47.14,36Zm0,1.07a2.45,2.45,0,0,0-2.34.77,2.92,2.92,0,0,0,.51,4.39c.53.38,1.09.24,1.57.48.72.39,1.25,0,1.77-.34a4.1,4.1,0,0,0,.94-.92,2.58,2.58,0,0,0,.43-2.68A2.8,2.8,0,0,0,47.51,37.11Z"/><path d="M63.21,43.71a3.88,3.88,0,0,1,4-4,2.34,2.34,0,0,1,1.31.47c.52.37,1,.82,1.49,1.18a2,2,0,0,1,.83,2.19,5.45,5.45,0,0,1-2.4,3.62,3.08,3.08,0,0,1-2.93,0A3.39,3.39,0,0,1,63.21,43.71Zm1.06,0a2.23,2.23,0,0,0,1.33,2.12,9.45,9.45,0,0,0,1.19.46.85.85,0,0,0,.5,0,4.66,4.66,0,0,0,2.26-3.12c0-.09,0-.21,0-.26-.47-.53-.65-1.33-1.4-1.61a3.92,3.92,0,0,0-1.56-.46A2.86,2.86,0,0,0,64.27,43.72Z"/><path d="M43.65,44.78a3.6,3.6,0,0,1-2.45,3.31,2.45,2.45,0,0,1-1-.14,3.05,3.05,0,0,1-2.53-2.12c0-.08-.12-.16-.11-.23.24-1.2.09-2.53,1.15-3.45A1.82,1.82,0,0,1,41,41.86,20.82,20.82,0,0,1,43,43,1.81,1.81,0,0,1,43.65,44.78Zm-1.47.94c-.4-.66-1-.94-.5-1.51,0-.05,0-.22-.08-.28a5.23,5.23,0,0,0-.76-.73c-.81-.54-1.48-.24-1.71.74,0,.2-.1.41-.15.61-.14.53-.14.53.58,1a6.05,6.05,0,0,0,.63.4c.29.15.17.81.66.6.14-.06.11-.55.15-.83,0,0,0-.09,0-.14.06-.29.22-.33.46-.19Z"/><path d="M32.35,51.89a8.89,8.89,0,0,1-1.53-.49c-1.63-.78-1.62-2-1.36-3.38A4.44,4.44,0,0,1,29.89,47,1.55,1.55,0,0,1,31.84,46a4.46,4.46,0,0,0,.51.07,3.2,3.2,0,0,1,2.92,2.33,1.71,1.71,0,0,1,0,.84A4.41,4.41,0,0,1,34,51.33,2,2,0,0,1,32.35,51.89ZM30.7,48.7l-.09,0a2.83,2.83,0,0,0,.25.84,2,2,0,0,0,2.85.25,1.08,1.08,0,0,0,.07-1.26,2.77,2.77,0,0,0-2-1.12c-.68-.11-1,.1-1.13.74A3.13,3.13,0,0,0,30.7,48.7Z"/><path d="M46.71,16.21c-2.23,0-3.34-1.78-2.57-3.62a5,5,0,0,1,1-1.49,2.29,2.29,0,0,1,3.25,0c.11.08.18.2.29.27a2.12,2.12,0,0,1,.69,2.59,3.21,3.21,0,0,1-1.89,2.19A2.13,2.13,0,0,1,46.71,16.21Zm-.27-1.58c.62,0,.86-.19,1.23-1a1.66,1.66,0,0,0-.5-1.93c-.34-.19-.91,0-1.35.57a2.69,2.69,0,0,0-.48.77A1.05,1.05,0,0,0,46.44,14.63Z"/><path d="M60,56.19a2.67,2.67,0,0,1-2,2.66A2.86,2.86,0,0,1,55.55,58a3.45,3.45,0,0,1,.74-4.54,2.34,2.34,0,0,1,2.24,0A2.59,2.59,0,0,1,60,56.19Zm-1.59-.33a6.47,6.47,0,0,1-.25-.9c-.05-.36-.25-.4-.53-.4A1.53,1.53,0,0,0,56.34,56a1.15,1.15,0,0,0,1.06,1.31c.41.06,1-.48,1.05-1C58.46,56.24,58.45,56.15,58.45,55.86Z"/><path d="M29.33,31.28a3.41,3.41,0,0,1-2.78.77,1.22,1.22,0,0,1-.55-.31,3.14,3.14,0,0,1-1.1-2.14,5.91,5.91,0,0,1,.5-3.67c.24-.45.34-1,.6-1.41a2.32,2.32,0,0,0,.18-1.41c0-.88-.29-1.1-1.18-1.1-.44,0-.88,0-1.32,0-.13,0-.37-.16-.37-.24a.68.68,0,0,1,.23-.51,2.26,2.26,0,0,1,.84-.28c.39,0,.79,0,1.18,0a1.29,1.29,0,0,1,1.48,1,3.52,3.52,0,0,1,.2,2.72c-.42,1-.74,2.08-1.15,3.11a2.86,2.86,0,0,0,.59,2.76,1.43,1.43,0,0,0,1.15.5A11.18,11.18,0,0,1,29.33,31.28Z"/><path d="M33,31.48a5.63,5.63,0,0,1,.24-1.26,2.19,2.19,0,0,1,2.39-1.59,4.29,4.29,0,0,1,1.53.19,2.24,2.24,0,0,1,1.28,1.31A3,3,0,0,1,38.5,32a3.66,3.66,0,0,1-2,2.14,2.21,2.21,0,0,1-2.38-.35A2.44,2.44,0,0,1,33,31.48Zm4.3-.12c0-.76-.89-1.95-1.44-1.9a2.32,2.32,0,0,0-2,2.11,1.65,1.65,0,0,0,1.69,1.58A2,2,0,0,0,37.29,31.36Z"/><path d="M46.73,45.84c.59-.05,1,0,1.18.64.08.26.41.44.63.66a1.1,1.1,0,0,1,.22,1.41c-.33.74-.7,1.41-1.59,1.49a2.84,2.84,0,0,1-2.42-1,1.84,1.84,0,0,1,.2-2.48C45.44,46.12,46,45.61,46.73,45.84Z"/><path d="M71.67,32.1a2.49,2.49,0,0,1,1.13-1.85,1.12,1.12,0,0,1,1.32-.1c1.82,1,1.94,2,.86,3.72-.39.63-1.86.65-2.58.12S71.65,33.27,71.67,32.1Z"/><path d="M73.52,41.92a1.79,1.79,0,0,1,.65-1.63c.4-.31.92-.77,1.33-.71a4.34,4.34,0,0,1,1.54.89,1.23,1.23,0,0,1,.46,1.16,2.22,2.22,0,0,1-2,2.34A2,2,0,0,1,73.52,41.92Z"/><path d="M63.46,62.48c.62.18.68.28.34.6s-.54.41-.84.64a2.19,2.19,0,0,0,.5.36c.3.1.33.26.16.48s-.33.45-.63.2-.45-.42-.74-.69a6.89,6.89,0,0,0-.12,1.54,1.62,1.62,0,0,1-.24.69c-.15.21-.41.22-.5-.06A4,4,0,0,1,61.13,65c0-.62,0-.56-.85-.77a2.69,2.69,0,0,1-.57-.17.26.26,0,0,1,0-.5c.36-.21.78-.34,1.15-.53.11-.06.26-.31.23-.36-.33-.45-.37-.7.32-.71a.65.65,0,0,0,.46-.41c.15-.46.35-.41.67-.19a1.35,1.35,0,0,0,.5.09c1.05.12,1.07.15.47,1.07a2.9,2.9,0,0,0-.51,0c-.07,0-.14.12-.21.18.08,0,.17.11.23.08S63.3,62.57,63.46,62.48Z"/><path d="M56,31.55A2,2,0,0,1,54,29.3c0-1.41.56-2,1.92-2a2.11,2.11,0,0,1,2.31,2.2A1.94,1.94,0,0,1,56,31.55Zm-.1-1.05h.13c.54.06.79-.34,1-.7s0-.67-.32-.88-.6-.94-1.25-.78a1,1,0,0,0-.47.42c-.08.13-.05.34-.1.5A1,1,0,0,0,55.94,30.5Z"/><path d="M41.51,56a4.29,4.29,0,0,1-.63.36c-.29.11-.52.17-.72-.25s-.59-.47-.86-.74c-1.13-1.1-2.24-2.22-3.37-3.33a.6.6,0,0,1-.07-.91c.19-.23.38-.35.65-.1l4.93,4.7C41.49,55.76,41.48,55.86,41.51,56Z"/><path d="M50.77,30.43a3.11,3.11,0,0,1,0,.53c-.14.82-.83,1.47-1.46,1.37a1.71,1.71,0,0,1-1.48-2,3.44,3.44,0,0,1,.17-.87c.24-.47,1.92-.67,2.36-.35S50.79,30,50.77,30.43Z"/><path d="M59.43,36.36l-.61,1.52c-.39-.26-1-.05-1.29-.7a.81.81,0,0,0-.43.08c-.36.22-.7.46-1.06.7a.94.94,0,0,1-.15-1,.5.5,0,0,0,0-.31c-.23-.55-.23-.54.11-.83a1,1,0,0,0,.28-.34c.26-.57.24-.56.85-.3a.57.57,0,0,0,.46,0c.3-.16.55-.42.86-.56a.79.79,0,0,1,.56.11c.21.11.08.27,0,.42s-.2.38-.34.54-.35.36-.15.68S59.07,36.25,59.43,36.36Z"/><path d="M28.68,36.89a4.6,4.6,0,0,1,.43-.58,1.57,1.57,0,0,1,.38-.22,1.24,1.24,0,0,1,.11.48,2.55,2.55,0,0,1-.25.59c-.16.34-.15.33.31.51a.4.4,0,0,1,.18.26c-.43.47-.07.77.22,1.1a.37.37,0,0,1,0,.34.43.43,0,0,1-.35.09c-.25-.05-.48-.18-.73-.23s-.7-.37-.82.25a.43.43,0,0,1-.29.25.91.91,0,0,1-.49-.08.35.35,0,0,1,0-.33c.37-.43.11-.55-.27-.72s-.43-.4-.17-.76c.08-.11-.13-.39-.08-.56s.33-.36.39-.33c.34.19.57.27.6-.25a.57.57,0,0,1,.11-.36.7.7,0,0,1,.42-.24c.07,0,.17.23.24.37A2.26,2.26,0,0,1,28.68,36.89Z"/><path d="M57.65,14.55c0-.43-.08-.87.33-1.21a1.37,1.37,0,0,1,1.44-.2,1.75,1.75,0,0,1,.92,1.47,1.68,1.68,0,0,1-.89,1.48,1.31,1.31,0,0,1-1.8-1C57.64,14.9,57.65,14.72,57.65,14.55Z"/><path d="M34.75,41.07A1.09,1.09,0,0,1,33.6,40a1.62,1.62,0,0,1,1.29-1.54A1.1,1.1,0,0,1,36,39.6C36,40.54,35.52,41.09,34.75,41.07Z"/><path d="M66.9,35c0,.81-.39,1.32-1.06,1.34-.27,0-.52,0-.52-.4s0-.79,0-1.18c0-.6.25-.81.77-.81s.76.22.8.79A2.25,2.25,0,0,1,66.9,35Z"/><path d="M60.07,50.66a4,4,0,0,1-.28-.88c0-.15.17-.47.25-.47a1.18,1.18,0,0,1,.65.27c.08.09,0,.39-.07.54S60.33,50.41,60.07,50.66Z"/><path d="M35.17,66.44c0-.52.35-.78.72-.76s.35.32.35.57c0,.43-.32.82-.56.69A2.21,2.21,0,0,1,35.17,66.44Z"/><path d="M33.68,66.82c.21.26.44.42.41.53a2.18,2.18,0,0,1-.35.65,2.62,2.62,0,0,1-.39-.59C33.32,67.28,33.52,67.1,33.68,66.82Z"/><path d="M31.28,67.88a2.72,2.72,0,0,1,.18.65c0,.11-.25.31-.28.29a2.67,2.67,0,0,1-.44-.39Z"/></g></svg>