<svg width="924" height="234" viewBox="0 0 924 234" fill="none" xmlns="http://www.w3.org/2000/svg">
<g clip-path="url(#clip0_2844_4)">
<path d="M357.822 161.781C357.822 186.841 345.431 212.256 322.512 224.811C299.409 237.464 269.502 236.463 247.468 222.086C226.968 208.711 216.547 185.205 216.24 161.677C216.152 154.924 216.333 42.5181 216.333 42.5181H250.346C250.346 42.5181 251.699 90.4391 251.699 101.887C271.209 89.1351 299.345 88.0461 320.262 98.8061C345.13 111.601 357.822 136.82 357.822 161.781ZM323.354 161.781C323.354 142.752 307.461 125.327 287.031 125.327C267.231 125.327 250.987 143.453 250.831 161.781C250.672 180.717 266.746 198.235 287.031 198.235C307.357 198.239 323.354 180.689 323.354 161.781Z" fill="#000C0D"/>
<path d="M412.95 230.053H377.36V42.923L412.95 42.723V230.053Z" fill="#000C0D"/>
<path d="M573.81 161.781C573.839 176.141 569.501 190.169 561.371 202.006C553.242 213.843 541.705 222.928 528.293 228.056C500.01 238.728 466.85 229.731 448.046 206.783C429.094 183.65 427.146 149.883 442.382 124.467C457.728 98.86 488.945 86.245 518.682 92.298C552.657 99.216 573.81 129.026 573.81 161.781ZM539.348 161.781C539.368 156.999 538.443 152.26 536.626 147.836C534.809 143.412 532.136 139.391 528.76 136.004C525.385 132.616 521.373 129.929 516.955 128.097C512.538 126.265 507.802 125.323 503.02 125.327C482.076 125.327 466.943 142.342 466.954 161.781C466.965 180.722 482.612 198.181 503.02 198.235C523.838 198.29 539.348 181.111 539.348 161.781Z" fill="#000C0D"/>
<path d="M727.29 161.781C727.321 176.14 722.984 190.169 714.855 202.006C706.727 213.843 695.191 222.929 681.778 228.056C653.495 238.728 620.33 229.731 601.531 206.783C582.579 183.65 580.631 149.883 595.867 124.467C611.212 98.8601 642.429 86.2461 672.157 92.3001C706.143 99.2161 727.29 129.026 727.29 161.781ZM692.828 161.781C692.848 156.999 691.924 152.26 690.107 147.837C688.29 143.414 685.618 139.393 682.243 136.005C678.867 132.618 674.856 129.931 670.439 128.098C666.022 126.266 661.287 125.324 656.505 125.327C635.555 125.327 620.423 142.342 620.434 161.781C620.445 180.722 636.097 198.181 656.505 198.235C677.323 198.29 692.828 181.111 692.828 161.781Z" fill="#000C0D"/>
<path d="M923.09 230.054H887.982C887.982 230.054 887.894 172.042 887.894 156.516C887.894 143.693 886.994 125.327 867.794 127.85C850.872 130.077 852.694 147.24 852.694 159.335C852.694 174.861 851.917 230.054 851.917 230.054L817.362 229.912C817.362 229.912 817.537 147.705 817.362 144.87C816.601 132.27 802.898 123.07 790.814 130.017C779.37 136.59 782.162 152.117 782.162 163.017C782.162 178.669 782.462 221.171 782.162 226.726C781.962 230.469 782.78 229.807 778.769 230.059C771.096 230.541 746.835 229.495 746.835 229.495V99.013C746.835 99.013 746.025 95.735 750.398 95.888C763.669 96.337 764.156 105.476 764.156 105.476C764.156 105.476 773.011 100.507 776.251 98.942C783.539 95.3978 791.531 93.5389 799.635 93.503C813.35 93.481 826.304 98.615 834.835 109.161C848.228 91.537 875.322 89.677 894.322 99.134C912.41 108.134 922.722 125.885 923.087 145.308C923.467 165.497 923.09 230.054 923.09 230.054Z" fill="#000C0D"/>
<path d="M132.729 91.242C158.757 91.242 179.857 70.8168 179.857 45.621C179.857 20.4252 158.757 0 132.729 0C106.701 0 85.6011 20.4252 85.6011 45.621C85.6011 70.8168 106.701 91.242 132.729 91.242Z" fill="#A3EAE7"/>
<path d="M37.703 156.309C58.5258 156.309 75.406 139.969 75.406 119.812C75.406 99.6552 58.5258 83.3149 37.703 83.3149C16.8802 83.3149 0 99.6552 0 119.812C0 139.969 16.8802 156.309 37.703 156.309Z" fill="#28B5BD"/>
<path d="M131.471 189.42C146.085 188.718 157.381 176.683 156.701 162.54C156.022 148.396 143.624 137.499 129.01 138.202C114.397 138.904 103.101 150.939 103.78 165.082C104.46 179.226 116.858 190.123 131.471 189.42Z" fill="#228F9B"/>
</g>
<defs>
<clipPath id="clip0_2844_4">
<rect width="923.257" height="233.633" fill="white"/>
</clipPath>
</defs>
</svg>
